<?xml version="1.0" encoding="utf-8"?>
<!-- Generator: Adobe Illustrator 28.3.0, SVG Export Plug-In . SVG Version: 6.00 Build 0)  -->
<svg version="1.1" id="Capa_1" xmlns="http://www.w3.org/2000/svg" xmlns:xlink="http://www.w3.org/1999/xlink" x="0px" y="0px"
	 viewBox="0 0 800 1550" style="enable-background:new 0 0 800 1550;" xml:space="preserve">
<style type="text/css">
	.st0{fill:#E7ECF2;}
	.st1{fill:#D2D6EA;}
	.st2{fill:#FBECEA;}
	.st3{fill:#EDF3EC;}
	.st4{fill:#F4ECEE;}
</style>
<g>
	<path class="st3" d="M674.4,996.3c-57.8,27.3-115.7,32.1-169.8-10.3c-27.2-21.4-43.8-50-54.6-82.3c-12.7-38.7-14.9-78.4-14.3-118.7
		c1.5-72.7,18-143.5,29-214.8c1.3-4.4,1.8-8.7,2.3-12.9c-33.3,51-61.7,102.4-95.3,150.9c-26,37.4-54.6,73.1-86.2,106.2
		c-37.4,39.3-80.8,69.3-130.1,91.9c-11,5-22.7,9.1-34.5,12.2C75,930.6,33.3,925.2,0,905.3V1550h800V895
		C765.6,936.7,725.1,972.3,674.4,996.3z"/>
</g>
</svg>
