<?xml version="1.0" encoding="utf-8"?>
<!-- Generator: Adobe Illustrator 28.3.0, SVG Export Plug-In . SVG Version: 6.00 Build 0)  -->
<svg version="1.1" id="Capa_1" xmlns="http://www.w3.org/2000/svg" xmlns:xlink="http://www.w3.org/1999/xlink" x="0px" y="0px"
	 viewBox="0 0 500 500" style="enable-background:new 0 0 500 500;" xml:space="preserve">
<style type="text/css">
	.st0{fill:#AEC2D3;}
	.st1{fill:#627DB3;}
	.st2{fill:#F0BDB8;}
	.st3{fill:#C3D8BF;}
	.st4{fill:#DBC1C7;}
</style>
<g>
	<path class="st3" d="M73.8,154c10.7,0,20.1,3.6,28.3,10.9c8.2,7.3,12.3,17.5,12.3,30.6c0,13.2-4,23.9-12,32.2
		c-8,8.3-17.5,12.4-28.7,12.4c-8.5,0-15.4-2.5-20.8-7.6v1.5c0,3-1.5,4.5-4.5,4.5l-26-0.2c-2.6,0-4-1.1-4-3.3v-0.7
		c0-1.4,1.1-3.5,3.4-6.3c2.3-2.8,3.4-5.7,3.4-8.7V141c0-3-1.4-5.8-4.2-8.4c-2.8-2.6-4.2-4.6-4.2-5.9v-0.7c0-1.8,1.6-3.4,4.7-4.8
		L48.2,109c2.2-1.1,4.1-1.4,5.7-0.7c1.6,0.7,2.4,2.2,2.4,4.6v46.1C60.7,155.7,66.6,154,73.8,154z M71.1,231.6
		c8.7,0,13.1-7.2,13.1-21.7c0-6.9-0.5-13.8-1.6-20.7c-1.1-6.9-3-13.1-5.9-18.6c-2.8-5.5-6.2-8.3-10.1-8.3c-3.1,0-5.6,1.4-7.5,4
		c-1.9,2.7-2.8,6.4-2.8,11.1V211c0,5.3,1.5,10,4.6,14.3C63.9,229.5,67.3,231.6,71.1,231.6z"/>
	<path class="st3" d="M217.1,163.8c0,0.9-0.6,2-1.9,3.3c-1.3,1.3-2.5,2.9-3.8,5c-1.3,2.1-1.9,4.5-1.9,7.2v40.3
		c0,2.9,1.1,5.7,3.4,8.5c2.3,2.8,3.4,4.9,3.4,6.3v0.7c0,2.2-1.3,3.3-3.8,3.3H188c-1.3,0-2.3-0.4-3.2-1.2c-0.9-0.8-1.3-1.8-1.3-3.1
		v-1.5c-5.3,5.1-12.3,7.6-21,7.6c-11.1,0-20.7-3.8-28.7-11.5c-8-7.6-12-18.2-12-31.6c0-12.5,4-22.8,12.1-30.9
		c8-8.1,17.6-12.1,28.8-12.1c8.5,0,15.4,2.4,20.8,7.2v-1c0-1.8,0.7-3.2,2.2-4.1c1.5-0.9,3.5-1.2,6-0.9l21.2,3.1
		c2.8,0.3,4.1,2,4.1,4.8V163.8z M155.8,144.3c-3.1,0.8-5.5,0.1-7.1-2.2c-1.6-2.8-1.2-5.2,1.2-7.2l29.4-23.1c2.2-1.6,4.2-2.2,6-1.8
		c1.8,0.4,3.3,1.7,4.3,3.9l5.5,11.7c1.1,2.1,1.4,4,0.7,5.8c-0.7,1.8-2.2,3-4.6,3.5L155.8,144.3z M169.4,231.6
		c3.1,0.1,5.7-1.1,7.8-3.8c2.1-2.6,3.2-6.2,3.2-10.7v-33.2c0-6.2-1.5-11.3-4.6-15.4c-3.1-4.1-6.7-6.1-10.8-6.1
		c-8.5,0-13,7.1-13.6,21.2c-0.2,5.4,0.3,11.7,1.5,18.8c1.2,7.1,3.3,13.7,6.2,19.9C161.9,228.4,165.4,231.5,169.4,231.6z"/>
	<path class="st3" d="M57,357.4c-11,0-20.1-1.9-27.2-5.6c-7.1-3.7-10.7-8.6-10.7-14.6c0-3.7,1.1-6.4,3.4-8.3
		c2.2-1.8,5.2-2.8,8.9-2.8c3.9,0,7,1.2,9.3,3.7c2.3,2.5,3.8,5.2,4.6,8.1c0.8,2.9,2.2,5.6,4.1,8.1c2,2.5,4.5,3.7,7.6,3.7
		c6.2,0,9.3-3.2,9.3-9.5c0-4.1-1.6-7.4-4.7-9.8c-3.2-2.4-7-4.2-11.5-5.5c-4.5-1.3-8.9-2.7-13.3-4.3c-4.4-1.6-8.2-4.3-11.4-8.1
		c-3.2-3.8-4.7-8.8-4.7-15c0-7.7,3.4-14,10.2-18.9c6.8-4.9,15.5-7.3,26.2-7.3s19.4,2,26.1,6c6.7,4,10.1,8.9,10.1,14.6
		c0,3-1.1,5.5-3.4,7.5c-2.2,2-5,3-8.2,3c-3.8,0-6.8-1.2-9-3.6c-2.2-2.4-3.6-5.1-4.4-8c-0.7-2.9-1.9-5.6-3.4-8s-3.6-3.6-6.3-3.6
		c-2.5,0-4.5,1-5.9,2.9c-1.4,2-2.2,4.2-2.2,6.9c0,4.2,1.5,7.7,4.6,10.3c3,2.6,6.7,4.6,11,6c4.3,1.4,8.6,2.9,12.9,4.5
		c4.3,1.6,8,4.2,11,7.8c3,3.6,4.6,8.4,4.6,14.2c0,7.3-3.4,13.4-10.1,18.2C77.7,355,68.6,357.4,57,357.4z"/>
	<path class="st3" d="M107.4,355.8c-2.8,0-4.1-1.1-4.1-3.3v-0.7c0-1.4,1.1-3.5,3.4-6.4c2.3-2.9,3.4-5.7,3.4-8.6v-32.7
		c0-3-1.1-5.9-3.4-8.7c-2.3-2.8-3.4-4.7-3.4-5.8V289c0-1.4,1.3-2.7,4-4l26-12.7c2.4-1,4.3-1.1,5.7-0.3c1.4,0.8,2.1,2.1,2.1,4v61
		c0,2.9,1.3,5.7,3.9,8.6c2.6,2.9,3.9,5,3.9,6.4v0.7c0,2.2-1.4,3.3-4.3,3.3H107.4z M125.8,263c-5.9,0-10.6-1.6-14.3-4.9
		c-3.7-3.3-5.5-7.4-5.5-12.3c0-4.9,1.8-9,5.5-12.3c3.7-3.3,8.4-4.9,14.3-4.9c5.7,0,10.4,1.6,14.1,4.9c3.7,3.3,5.5,7.4,5.5,12.3
		c0,4.9-1.8,9-5.5,12.3C136.3,261.4,131.6,263,125.8,263z"/>
	<path class="st3" d="M63.2,475c-13.1,0-23.8-4.3-32.2-12.8c-8.4-8.6-12.6-18.7-12.6-30.4c0-13,4.2-23.3,12.7-31.1
		c8.5-7.7,18.8-11.7,31-11.8c10.2-0.1,18.9,2.2,26,7c7.1,4.8,10.7,10.9,10.7,18.5c0,2.9-1,5.3-3,7.2c-2,2-5.2,2.9-9.6,2.8
		c-3.9-0.2-7.3-1.8-10.1-4.6c-2.8-2.9-4.8-6-6.1-9.3c-1.3-3.3-3-6.3-5.2-9c-2.2-2.7-4.7-4-7.4-4c-3.6,0.1-6.5,2-8.7,5.7
		c-2.2,3.7-3.4,8.2-3.4,13.6c0,11.3,2.6,20.3,7.7,27c5.1,6.8,11.9,10.2,20.4,10.2c7.7,0,14.1-3.3,19.1-10c1.1-1.4,2.5-1.9,4.1-1.5
		c1.6,0.4,2.4,1.5,2.4,3.4c-0.2,8-3.5,14.9-9.8,20.7C83,472.2,74.3,475,63.2,475z"/>
	<path class="st3" d="M153.9,475c-13.3,0-24.6-4.1-33.8-12.3c-9.2-8.2-13.9-18.5-13.9-30.9s4.6-22.6,13.8-30.7
		c9.2-8.1,20.1-12.1,32.7-12.1c13.1,0,24.2,4.1,33.4,12.2c9.2,8.2,13.8,18.5,13.8,31c0,12.4-4.5,22.6-13.4,30.7
		C177.5,471,166.6,475,153.9,475z M157.5,466.6c7.3,0,11-7.1,11-21.2c0-5.2-0.7-11.3-2.2-18.4c-1.4-7.1-3.8-13.8-7.2-20.1
		c-3.4-6.3-7.1-9.5-11.3-9.5c-4,0-6.9,1.8-8.6,5.3c-1.7,3.6-2.6,9-2.6,16.2c0,3.8,0.5,8.3,1.4,13.4c0.9,5.2,2.2,10.4,3.8,15.6
		c1.6,5.2,3.8,9.6,6.6,13.3C151.3,464.8,154.3,466.6,157.5,466.6z"/>
	<path class="st3" d="M245.5,474.9c-11,0-20.1-1.9-27.2-5.6c-7.1-3.7-10.7-8.6-10.7-14.6c0-3.7,1.1-6.4,3.4-8.3
		c2.2-1.8,5.2-2.8,8.9-2.8c3.9,0,7,1.2,9.3,3.7c2.3,2.5,3.8,5.2,4.6,8.1c0.8,2.9,2.2,5.6,4.1,8.1c2,2.5,4.5,3.7,7.6,3.7
		c6.2,0,9.3-3.2,9.3-9.5c0-4.1-1.6-7.4-4.7-9.8c-3.2-2.4-7-4.2-11.5-5.5c-4.5-1.3-8.9-2.7-13.3-4.3c-4.4-1.6-8.2-4.3-11.4-8.1
		c-3.2-3.8-4.7-8.8-4.7-15c0-7.7,3.4-14,10.2-18.9c6.8-4.9,15.5-7.3,26.2-7.3c10.7,0,19.4,2,26.1,6c6.7,4,10.1,8.9,10.1,14.6
		c0,3-1.1,5.5-3.4,7.5c-2.2,2-5,3-8.2,3c-3.8,0-6.8-1.2-9-3.6c-2.2-2.4-3.6-5.1-4.4-8c-0.7-2.9-1.9-5.6-3.4-8s-3.6-3.6-6.3-3.6
		c-2.5,0-4.5,1-5.9,2.9c-1.4,2-2.2,4.2-2.2,6.9c0,4.2,1.5,7.7,4.6,10.3c3,2.6,6.7,4.6,11,6c4.3,1.4,8.6,2.9,12.9,4.5
		c4.3,1.6,8,4.2,11,7.8c3,3.6,4.6,8.4,4.6,14.2c0,7.3-3.4,13.4-10.1,18.2C266.3,472.5,257.1,474.9,245.5,474.9z"/>
</g>
</svg>
