<?xml version="1.0" encoding="utf-8"?>
<!-- Generator: Adobe Illustrator 28.3.0, SVG Export Plug-In . SVG Version: 6.00 Build 0)  -->
<svg version="1.1" id="Capa_1" xmlns="http://www.w3.org/2000/svg" xmlns:xlink="http://www.w3.org/1999/xlink" x="0px" y="0px"
	 viewBox="0 0 800 1550" style="enable-background:new 0 0 800 1550;" xml:space="preserve">
<style type="text/css">
	.st0{fill:#E7ECF2;}
	.st1{fill:#D2D6EA;}
	.st2{fill:#FBECEA;}
	.st3{fill:#EDF3EC;}
	.st4{fill:#F4ECEE;}
</style>
<g>
	<path class="st0" d="M163.2,168.1c9.8,47.4,41.1,63.2,85,42.2c26.7-12.7,50.5-29.9,70.7-51.7c38.3-41.2,70.5-86.7,99.8-134.8
		c4.8-7.9,9.5-15.9,14.1-23.8H211c-15.3,27.1-28.7,55.4-38.4,85.5C163.7,112.4,157.5,139.6,163.2,168.1z"/>
	<path class="st0" d="M592.7,916.1c-32.8,17.1-67.9,28.5-103.2,39.9c-158.2,51-312.3,41.3-459-37.8C20.1,912.6,9.9,906.7,0,900.5
		V1550h800V763C742.5,820.7,673.5,871.7,592.7,916.1z"/>
</g>
</svg>
