<?xml version="1.0" encoding="utf-8"?>
<!-- Generator: Adobe Illustrator 28.3.0, SVG Export Plug-In . SVG Version: 6.00 Build 0)  -->
<svg version="1.1" id="Capa_1" xmlns="http://www.w3.org/2000/svg" xmlns:xlink="http://www.w3.org/1999/xlink" x="0px" y="0px"
	 viewBox="0 0 500 500" style="enable-background:new 0 0 500 500;" xml:space="preserve">
<style type="text/css">
	.st0{fill:#AEC2D3;}
	.st1{fill:#627DB3;}
	.st2{fill:#F0BDB8;}
	.st3{fill:#C3D8BF;}
	.st4{fill:#DBC1C7;}
</style>
<g>
	<path class="st4" d="M105.3,119.1c0,2.9,1.1,5.7,3.4,8.5c2.3,2.8,3.4,4.9,3.4,6.3v0.7c0,2.2-1.3,3.3-4,3.3H83.6
		c-3,0-4.5-1.4-4.5-4.3V132c-5.4,5.1-12.4,7.6-21,7.6c-11.1,0-20.7-3.8-28.7-11.5c-8-7.6-12-18.2-12-31.6c0-12.5,4-22.8,12.1-30.9
		c8-8.1,17.6-12.1,28.8-12.1c7,0,12.9,1.6,17.7,4.8V35.4c0-2.3-0.7-4.3-2.2-5.9c-1.5-1.7-3-3.1-4.6-4.3c-1.5-1.2-2.3-2.5-2.3-3.9
		v-0.5c0-2.2,1.3-3.7,4-4.5l26.9-8.1c5.1-1.6,7.6-0.2,7.6,4.1V119.1z M65,131.1c3.1,0.1,5.7-1.1,7.8-3.8c2.1-2.6,3.2-6.2,3.2-10.7
		V83.4c0-5.5-1.6-10.5-4.7-14.9c-3.2-4.4-6.7-6.6-10.8-6.6c-8.5,0-13,7.1-13.6,21.2c-0.2,5.4,0.3,11.7,1.5,18.8
		c1.2,7.1,3.3,13.7,6.2,19.9C57.6,127.9,61,131,65,131.1z"/>
	<path class="st4" d="M191.4,110.6c1.3-1.3,2.7-1.6,4.2-1.1c1.5,0.5,2.3,1.7,2.2,3.5c-0.1,2.6-0.9,5.4-2.3,8.3
		c-1.4,2.9-3.5,5.7-6.1,8.5c-2.6,2.8-6.3,5.1-10.9,7c-4.6,1.8-9.9,2.8-15.8,2.8c-12.9,0-23.3-4-31.4-12.1
		c-8.1-8-12.1-18.5-12.1-31.5c0-12.5,4.1-22.7,12.4-30.6c8.3-7.9,18.4-11.9,30.3-12c10.2-0.1,18.5,2.1,24.8,6.7
		c6.3,4.6,9.5,10.7,9.5,18.3c0,6-2.6,11.3-7.7,15.8c-5.1,4.6-11.7,7.5-19.9,8.8c-5.7,1-11.5,1.4-17.2,1.2
		c4.8,9.3,12.1,13.9,21.7,13.9C181.5,118.2,187.7,115.7,191.4,110.6z M158.2,62.6c-3.6,0-6.4,1.8-8.5,5.3c-2.1,3.6-3.2,8.2-3.2,13.9
		c0,4.7,0.5,9.1,1.5,13.3c3.2,0.1,6.1,0,8.6-0.3c7.8-1.4,11.7-7.6,11.7-18.6c-0.1-3.8-1.1-7-3-9.6C163.5,63.9,161.1,62.6,158.2,62.6
		z"/>
	<path class="st4" d="M61.8,257.1c-13.1,0-23.8-4.3-32.2-12.8c-8.4-8.6-12.6-18.7-12.6-30.4c0-13,4.2-23.3,12.7-31.1
		c8.5-7.7,18.8-11.7,31-11.8c10.2-0.1,18.9,2.2,26,7c7.1,4.8,10.7,10.9,10.7,18.5c0,2.9-1,5.3-3,7.2c-2,2-5.2,2.9-9.6,2.8
		c-3.9-0.2-7.3-1.8-10.1-4.6c-2.8-2.9-4.8-6-6.1-9.3c-1.3-3.3-3-6.3-5.2-9c-2.2-2.7-4.7-4-7.4-4c-3.6,0.1-6.5,2-8.7,5.7
		c-2.2,3.7-3.4,8.2-3.4,13.6c0,11.3,2.6,20.3,7.7,27c5.1,6.8,11.9,10.2,20.4,10.2c7.7,0,14.1-3.3,19.1-10c1.1-1.4,2.5-1.9,4.1-1.5
		c1.6,0.4,2.4,1.5,2.4,3.4c-0.2,8-3.5,14.9-9.8,20.7C81.6,254.2,72.9,257.1,61.8,257.1z"/>
	<path class="st4" d="M152.5,257.1c-13.3,0-24.6-4.1-33.8-12.3c-9.2-8.2-13.9-18.5-13.9-30.9s4.6-22.6,13.8-30.7
		c9.2-8.1,20.1-12.1,32.7-12.1c13.1,0,24.2,4.1,33.4,12.2c9.2,8.2,13.8,18.5,13.8,31c0,12.4-4.5,22.6-13.4,30.7
		C176.1,253,165.3,257.1,152.5,257.1z M156.1,248.6c7.3,0,11-7.1,11-21.2c0-5.2-0.7-11.3-2.2-18.4c-1.4-7.1-3.8-13.8-7.2-20.1
		c-3.4-6.3-7.1-9.5-11.3-9.5c-4,0-6.9,1.8-8.6,5.3c-1.7,3.6-2.6,9-2.6,16.2c0,3.8,0.5,8.3,1.4,13.4c0.9,5.2,2.2,10.4,3.8,15.6
		c1.6,5.2,3.8,9.6,6.6,13.3C149.9,246.8,152.9,248.6,156.1,248.6z"/>
	<path class="st4" d="M75.7,288.5c4.9,0,8.9,1.6,11.8,4.8c2.9,3.2,4.4,7.3,4.4,12.2c0,10.8-4.4,16.2-13.3,16.2
		c-3.6,0-6.3-0.8-8.1-2.5c-1.8-1.7-2.9-3.5-3.2-5.6c-0.3-2.1-0.9-3.9-1.8-5.6c-0.9-1.7-2.3-2.5-4.1-2.5c-4.2,0-6.4,5.5-6.4,16.5v32
		c0,2.9,1.5,5.7,4.6,8.5c3,2.8,4.6,4.9,4.6,6.3v0.7c0,2.2-1.4,3.3-4.1,3.3H23c-2.8,0-4.1-1.1-4.1-3.3v-0.7c0-1.4,1.1-3.5,3.4-6.3
		c2.3-2.8,3.4-5.7,3.4-8.5v-34.3c0-2.3-0.7-4.2-2.1-5.9c-1.4-1.6-2.8-3-4.1-4.1c-1.4-1.1-2.1-2.4-2.1-3.8v-0.5c0-2,1.3-3.6,4-5
		l24.3-11.4c2.3-0.8,3.9-0.9,4.8-0.2c0.9,0.7,1.4,2,1.4,4v12.6C55.9,294.1,63.8,288.5,75.7,288.5z"/>
	<path class="st4" d="M189.9,298.3c0,0.9-0.6,2-1.9,3.3c-1.3,1.3-2.5,2.9-3.8,5c-1.3,2.1-1.9,4.5-1.9,7.2v40.3
		c0,2.9,1.1,5.7,3.4,8.5c2.3,2.8,3.4,4.9,3.4,6.3v0.7c0,2.2-1.3,3.3-3.8,3.3h-24.6c-1.3,0-2.3-0.4-3.2-1.2c-0.9-0.8-1.3-1.8-1.3-3.1
		V367c-5.3,5.1-12.3,7.6-21,7.6c-11.1,0-20.7-3.8-28.7-11.5c-8-7.6-12-18.2-12-31.6c0-12.5,4-22.8,12.1-30.9
		c8-8.1,17.6-12.1,28.8-12.1c8.5,0,15.4,2.4,20.8,7.2v-1c0-1.8,0.7-3.2,2.2-4.1c1.5-0.9,3.5-1.2,6-0.9l21.2,3.1
		c2.8,0.3,4.1,2,4.1,4.8V298.3z M142.2,366.1c3.1,0.1,5.7-1.1,7.8-3.8c2.1-2.6,3.2-6.2,3.2-10.7v-33.2c0-6.2-1.5-11.3-4.6-15.4
		c-3.1-4.1-6.7-6.1-10.8-6.1c-8.5,0-13,7.1-13.6,21.2c-0.2,5.4,0.3,11.7,1.5,18.8c1.2,7.1,3.3,13.7,6.2,19.9
		C134.7,362.9,138.2,366,142.2,366.1z"/>
	<path class="st4" d="M61.8,492.1c-13.1,0-23.8-4.3-32.2-12.8c-8.4-8.6-12.6-18.7-12.6-30.4c0-13,4.2-23.3,12.7-31.1
		c8.5-7.7,18.8-11.7,31-11.8c10.2-0.1,18.9,2.2,26,7c7.1,4.8,10.7,10.9,10.7,18.5c0,2.9-1,5.3-3,7.2c-2,2-5.2,2.9-9.6,2.8
		c-3.9-0.2-7.3-1.8-10.1-4.6c-2.8-2.9-4.8-6-6.1-9.3c-1.3-3.3-3-6.3-5.2-9c-2.2-2.7-4.7-4-7.4-4c-3.6,0.1-6.5,2-8.7,5.7
		c-2.2,3.7-3.4,8.2-3.4,13.6c0,11.3,2.6,20.3,7.7,27c5.1,6.8,11.9,10.2,20.4,10.2c7.7,0,14.1-3.3,19.1-10c1.1-1.4,2.5-1.9,4.1-1.5
		c1.6,0.4,2.4,1.5,2.4,3.4c-0.2,8-3.5,14.9-9.8,20.7C81.6,489.2,72.9,492.1,61.8,492.1z"/>
	<path class="st4" d="M110.2,490.3c-2.8,0-4.1-1.1-4.1-3.3v-0.7c0-1.4,1.1-3.5,3.4-6.4c2.3-2.9,3.4-5.7,3.4-8.6v-32.7
		c0-3-1.1-5.9-3.4-8.7c-2.3-2.8-3.4-4.7-3.4-5.8v-0.7c0-1.4,1.3-2.7,4-4l26-12.7c2.4-1,4.3-1.1,5.7-0.3c1.4,0.8,2.1,2.1,2.1,4v61
		c0,2.9,1.3,5.7,3.9,8.6c2.6,2.9,3.9,5,3.9,6.4v0.7c0,2.2-1.4,3.3-4.3,3.3H110.2z M128.6,397.5c-5.9,0-10.6-1.6-14.3-4.9
		c-3.7-3.3-5.5-7.4-5.5-12.3c0-4.9,1.8-9,5.5-12.3c3.7-3.3,8.4-4.9,14.3-4.9c5.7,0,10.4,1.6,14.1,4.9c3.7,3.3,5.5,7.4,5.5,12.3
		c0,4.9-1.8,9-5.5,12.3C139,395.9,134.3,397.5,128.6,397.5z"/>
	<path class="st4" d="M205.9,492.1c-13.3,0-24.6-4.1-33.8-12.3c-9.2-8.2-13.9-18.5-13.9-30.9s4.6-22.6,13.8-30.7
		c9.2-8.1,20.1-12.1,32.7-12.1c13.1,0,24.2,4.1,33.4,12.2c9.2,8.2,13.8,18.5,13.8,31c0,12.4-4.5,22.6-13.4,30.7
		C229.5,488,218.6,492.1,205.9,492.1z M189.7,396.3c-3.1,0.8-5.5,0.1-7.1-2.2c-1.6-2.8-1.2-5.2,1.2-7.2l29.4-23.1
		c4.5-3.4,7.9-2.8,10.3,2.1l5.7,11.7c1,2.1,1.2,4,0.5,5.8c-0.7,1.8-2.2,3-4.6,3.5L189.7,396.3z M209.5,483.6c7.3,0,11-7.1,11-21.2
		c0-5.2-0.7-11.3-2.2-18.4c-1.4-7.1-3.8-13.8-7.2-20.1c-3.4-6.3-7.1-9.5-11.3-9.5c-4,0-6.9,1.8-8.6,5.3c-1.7,3.6-2.6,9-2.6,16.2
		c0,3.8,0.5,8.3,1.4,13.4c0.9,5.2,2.2,10.4,3.8,15.6c1.6,5.2,3.8,9.6,6.6,13.3C203.3,481.8,206.3,483.6,209.5,483.6z"/>
	<path class="st4" d="M353.5,471.6c0.2,2.9,1.3,5.7,3.3,8.5c2,2.8,2.9,5,2.9,6.5v0.7c0,2.2-1.4,3.3-4.1,3.3h-34.4
		c-2.8,0-4.1-1.1-4.1-3.3v-0.7c0-1.4,1.1-3.5,3.3-6.4c2.2-2.9,3.2-5.7,2.9-8.6l-1.7-30.8c-0.5-8.5-1.6-14.5-3.4-18.1
		c-1.8-3.6-4.6-5.3-8.5-5.3c-3.7,0-6.5,1.5-8.4,4.5c-1.9,3-2.8,7.1-2.8,12.2v37.5c0,2.9,1.3,5.7,3.8,8.6c2.5,2.9,3.8,5,3.8,6.4v0.7
		c0,2.2-1.4,3.3-4.1,3.3h-37.2c-2.8,0-4.1-1.1-4.1-3.3v-0.7c0-1.4,1.3-3.5,3.8-6.4c2.5-2.9,3.8-5.7,3.8-8.6v-33.9
		c0-2.4-0.7-4.4-2.2-6.1c-1.5-1.7-3-3.1-4.6-4.3c-1.5-1.2-2.3-2.5-2.3-3.9v-0.5c0-1.5,1.4-2.9,4.1-4.3l24.1-11.9
		c2.2-0.9,3.8-0.9,4.9-0.1c1.1,0.9,1.6,2.3,1.6,4.2v8.1c4.8-8.6,13-12.9,24.6-12.9c8.6,0,16,2.8,22.2,8.4
		c6.2,5.6,9.8,14.8,10.7,27.4L353.5,471.6z"/>
</g>
</svg>
