<?xml version="1.0" encoding="utf-8"?>
<!-- Generator: Adobe Illustrator 28.3.0, SVG Export Plug-In . SVG Version: 6.00 Build 0)  -->
<svg version="1.1" id="Capa_1" xmlns="http://www.w3.org/2000/svg" xmlns:xlink="http://www.w3.org/1999/xlink" x="0px" y="0px"
	 viewBox="0 0 800 1550" style="enable-background:new 0 0 800 1550;" xml:space="preserve">
<style type="text/css">
	.st0{fill:#E7ECF2;}
	.st1{fill:#D2D6EA;}
	.st2{fill:#FBECEA;}
	.st3{fill:#EDF3EC;}
	.st4{fill:#F4ECEE;}
</style>
<g>
	<path class="st1" d="M739.4,95.7c-6.6,28.6-15.9,56.7-20.7,86.1c-2.9,18.5-3.4,37.4-0.5,55.9c4.5,29.7,22.3,50.9,44.8,68.6
		c11.8,9.4,24.3,17.5,37,25.3V0h-47.5c-0.1,3.7-0.1,7.6-0.1,11.7C753.7,40.3,745.7,67.9,739.4,95.7z"/>
	<path class="st1" d="M559.8,820.2c-33.1,27.3-63.6,57.2-93.5,87.7c-38.4,38.9-77.3,77.1-121.6,109.4
		c-38.7,28.3-80.3,51.4-127.9,61.5c-33.9,7.2-67.3,6.9-100.1-5.8c-36.3-14-61.7-39.7-77.6-74.7c-16.4-36-21.2-74.2-16.7-113.6
		c6.1-55.9,26-106.5,52.4-155.5c9.5-18,16.4-37.1,11.4-58c-4.2-17.5-14.6-31-29.7-40.8c-15.4-10.1-31.3-18.5-47.9-26
		c-2.9-1.3-5.7-2.6-8.5-4V1550h800V714.2c-31.3,5.4-62.4,11.5-92.7,21.5C652.2,754,604,783.4,559.8,820.2z"/>
	<path class="st1" d="M212.8,116.9c45.6-8.2,85.3-29.4,122.6-55.4c27-18.8,52-40.2,77.1-61.5H0v100.5c34.6,4,68.4,11.4,102.8,16.4
		C139.7,122.2,176.2,123.5,212.8,116.9z"/>
</g>
</svg>
