<?xml version="1.0" encoding="utf-8"?>
<!-- Generator: Adobe Illustrator 28.3.0, SVG Export Plug-In . SVG Version: 6.00 Build 0)  -->
<svg version="1.1" id="Capa_1" xmlns="http://www.w3.org/2000/svg" xmlns:xlink="http://www.w3.org/1999/xlink" x="0px" y="0px"
	 viewBox="0 0 500 500" style="enable-background:new 0 0 500 500;" xml:space="preserve">
<style type="text/css">
	.st0{fill:#AEC2D3;}
	.st1{fill:#627DB3;}
	.st2{fill:#F0BDB8;}
	.st3{fill:#C3D8BF;}
	.st4{fill:#DBC1C7;}
</style>
<g>
	<path class="st0" d="M75.9,30.9c4.9,0,8.9,1.6,11.8,4.8C90.6,38.9,92,43,92,47.9c0,10.8-4.4,16.2-13.3,16.2c-3.6,0-6.3-0.8-8.1-2.5
		c-1.8-1.7-2.9-3.5-3.2-5.6c-0.3-2.1-0.9-3.9-1.8-5.6c-0.9-1.7-2.3-2.5-4.1-2.5c-4.2,0-6.4,5.5-6.4,16.5v32c0,2.9,1.5,5.7,4.6,8.5
		c3,2.8,4.6,4.9,4.6,6.3v0.7c0,2.2-1.4,3.3-4.1,3.3h-37c-2.8,0-4.1-1.1-4.1-3.3v-0.7c0-1.4,1.1-3.5,3.4-6.3c2.3-2.8,3.4-5.6,3.4-8.5
		V62.2c0-2.3-0.7-4.2-2.1-5.9c-1.4-1.6-2.8-3-4.1-4.1c-1.4-1.1-2.1-2.4-2.1-3.8v-0.5c0-1.9,1.3-3.6,4-5l24.3-11.4
		c2.3-0.8,3.9-0.9,4.8-0.2c0.9,0.7,1.4,2,1.4,4v12.6C56,36.6,63.9,30.9,75.9,30.9z"/>
	<path class="st0" d="M167.1,88c1.3-1.3,2.7-1.6,4.2-1.1c1.6,0.5,2.3,1.7,2.2,3.5c-0.1,2.6-0.9,5.4-2.3,8.3
		c-1.4,2.9-3.5,5.7-6.1,8.5c-2.6,2.8-6.3,5.1-10.9,7c-4.6,1.8-9.9,2.8-15.7,2.8c-12.9,0-23.3-4-31.4-12c-8.1-8-12.1-18.5-12.1-31.5
		c0-12.5,4.1-22.7,12.4-30.5c8.3-7.9,18.4-11.8,30.3-12c10.2-0.1,18.5,2.1,24.8,6.7c6.3,4.6,9.5,10.7,9.5,18.2
		c0,6-2.6,11.2-7.7,15.8c-5.1,4.6-11.7,7.5-19.9,8.8c-5.7,1-11.5,1.4-17.2,1.2c4.8,9.3,12,13.9,21.7,13.9
		C157.2,95.6,163.3,93.1,167.1,88z M133.9,40c-3.6,0-6.4,1.8-8.5,5.3c-2.1,3.6-3.2,8.2-3.2,13.9c0,4.7,0.5,9.1,1.6,13.3
		c3.2,0.1,6.1,0,8.6-0.3c7.8-1.4,11.7-7.6,11.7-18.6c-0.1-3.8-1.1-7-3-9.6C139.1,41.3,136.7,40,133.9,40z"/>
	<path class="st0" d="M61.9,234.4c-13.1,0-23.8-4.3-32.2-12.8c-8.4-8.5-12.6-18.7-12.6-30.4c0-13,4.2-23.3,12.7-31.1
		c8.5-7.7,18.8-11.7,31-11.8c10.2-0.1,18.9,2.2,26,7c7.1,4.8,10.7,10.9,10.7,18.5c0,2.9-1,5.3-3,7.2c-2,2-5.2,2.9-9.6,2.8
		c-3.9-0.2-7.3-1.8-10.1-4.6c-2.8-2.9-4.8-6-6.1-9.3c-1.3-3.3-3-6.3-5.2-9c-2.2-2.7-4.6-4-7.4-4c-3.6,0.1-6.5,2-8.7,5.7
		c-2.2,3.7-3.4,8.2-3.4,13.6c0,11.2,2.6,20.3,7.7,27c5.1,6.8,11.9,10.2,20.4,10.2c7.7,0,14.1-3.3,19.1-10c1.1-1.4,2.5-1.9,4.1-1.5
		c1.6,0.4,2.4,1.5,2.4,3.4c-0.2,8-3.5,14.9-9.8,20.7C81.8,231.5,73.1,234.4,61.9,234.4z"/>
	<path class="st0" d="M200.3,158.1c0,0.9-0.6,2-1.9,3.3c-1.3,1.3-2.5,2.9-3.8,5c-1.3,2.1-1.9,4.5-1.9,7.2v40.3
		c0,2.9,1.1,5.7,3.4,8.5c2.3,2.8,3.4,4.9,3.4,6.3v0.7c0,2.2-1.3,3.3-3.8,3.3h-24.6c-1.3,0-2.3-0.4-3.2-1.2c-0.9-0.8-1.3-1.8-1.3-3.1
		v-1.5c-5.3,5-12.3,7.6-21,7.6c-11.1,0-20.7-3.8-28.7-11.4c-8-7.6-12-18.2-12-31.6c0-12.5,4-22.8,12-30.9c8-8.1,17.6-12.1,28.7-12.1
		c8.5,0,15.4,2.4,20.8,7.2v-1c0-1.8,0.7-3.2,2.2-4.1c1.5-0.9,3.5-1.2,6-0.9l21.2,3.1c2.8,0.3,4.1,2,4.1,4.8V158.1z M139,138.7
		c-3.1,0.8-5.5,0.1-7.1-2.2c-1.6-2.8-1.2-5.2,1.2-7.2l29.4-23.1c2.2-1.6,4.2-2.2,6-1.8c1.8,0.4,3.3,1.7,4.3,3.9l5.5,11.7
		c1.1,2.1,1.4,4,0.7,5.8c-0.7,1.8-2.2,3-4.6,3.5L139,138.7z M152.6,225.9c3.1,0.1,5.7-1.1,7.8-3.8c2.1-2.6,3.2-6.2,3.2-10.7v-33.2
		c0-6.2-1.5-11.3-4.6-15.4c-3.1-4.1-6.7-6.1-10.8-6.1c-8.5,0-13,7.1-13.6,21.2c-0.2,5.4,0.3,11.6,1.5,18.8
		c1.2,7.1,3.3,13.7,6.2,19.9C145.1,222.7,148.6,225.8,152.6,225.9z"/>
	<path class="st0" d="M164,331.3c0.2,2.9,1.3,5.7,3.3,8.6c1.9,2.9,2.9,5,2.9,6.4v0.7c0,2.2-1.4,3.3-4.1,3.3h-34.4
		c-2.8,0-4.1-1.1-4.1-3.3v-0.7c0-1.3,1.1-3.3,3.3-6.2c2.2-2.9,3.2-5.8,2.9-8.8l-1.7-30.5c-0.5-8.6-1.6-14.7-3.4-18.3
		c-1.8-3.6-4.6-5.4-8.4-5.4c-3.4,0-6.1,1.5-7.9,4.5c-1.8,3-2.8,6.9-2.8,11.9c0.3,2.4,0.5,4.8,0.5,7.2v30.6c0,2.9,1,5.7,3.1,8.6
		c2.1,2.9,3.1,5,3.1,6.4v0.7c0,2.2-1.4,3.3-4.1,3.3H77.8c-2.8,0-4.1-1.1-4.1-3.3v-0.7c0-1.4,1-3.5,3-6.4c2-2.9,3-5.7,3-8.6v-32.7
		c0-14.3-3.9-21.5-11.7-21.5c-3.8,0-6.7,1.5-8.6,4.5c-2,3-2.9,6.9-2.9,11.9v37.9c0,2.9,1.3,5.7,3.8,8.6c2.5,2.9,3.8,5,3.8,6.4v0.7
		c0,2.2-1.4,3.3-4.1,3.3H22.7c-2.8,0-4.1-1.1-4.1-3.3v-0.7c0-1.4,1.3-3.5,3.8-6.4c2.5-2.9,3.8-5.7,3.8-8.6v-33.9
		c0-2.3-0.8-4.3-2.3-5.9c-1.6-1.7-3.1-3.1-4.6-4.4c-1.5-1.3-2.2-2.6-2.2-4v-0.5c0-1.5,1.4-2.9,4.1-4.3L47,266.4
		c2.1-0.9,3.7-0.9,4.8,0c1.1,0.9,1.7,2.3,1.7,4.1v6.2c5.3-7.3,12.9-11,22.9-11c12.7,0,22.1,4.7,28.2,14.1c2.3-4.5,5.7-7.9,10.2-10.4
		c4.5-2.5,9.6-3.7,15.3-3.7c8.4,0,15.5,2.8,21.4,8.4c5.9,5.6,9.3,14.9,10.2,27.7L164,331.3z"/>
	<path class="st0" d="M271.2,275.6c0,0.9-0.6,2-1.9,3.3c-1.3,1.3-2.5,2.9-3.8,5c-1.3,2.1-1.9,4.5-1.9,7.2v40.3
		c0,2.9,1.1,5.7,3.4,8.5c2.3,2.8,3.4,4.9,3.4,6.3v0.7c0,2.2-1.3,3.3-3.8,3.3h-24.6c-1.3,0-2.3-0.4-3.2-1.2c-0.9-0.8-1.3-1.8-1.3-3.1
		v-1.5c-5.3,5-12.3,7.6-21,7.6c-11.1,0-20.7-3.8-28.7-11.4c-8-7.6-12-18.2-12-31.6c0-12.5,4-22.8,12-30.9c8-8.1,17.6-12.1,28.7-12.1
		c8.5,0,15.4,2.4,20.8,7.2v-1c0-1.8,0.7-3.2,2.2-4.1c1.5-0.9,3.5-1.2,6-0.9l21.2,3.1c2.8,0.3,4.1,2,4.1,4.8V275.6z M223.5,343.4
		c3.1,0.1,5.7-1.1,7.8-3.8c2.1-2.6,3.2-6.2,3.2-10.7v-33.2c0-6.2-1.6-11.3-4.6-15.4c-3.1-4.1-6.7-6.1-10.8-6.1
		c-8.5,0-13,7.1-13.6,21.2c-0.2,5.4,0.3,11.6,1.5,18.8c1.2,7.1,3.3,13.7,6.2,19.9C216,340.1,219.5,343.2,223.5,343.4z"/>
	<path class="st0" d="M75.9,383.2c4.9,0,8.9,1.6,11.8,4.8c2.9,3.2,4.4,7.3,4.4,12.2c0,10.8-4.4,16.2-13.3,16.2
		c-3.6,0-6.3-0.8-8.1-2.5c-1.8-1.7-2.9-3.5-3.2-5.6c-0.3-2.1-0.9-3.9-1.8-5.6c-0.9-1.7-2.3-2.5-4.1-2.5c-4.2,0-6.4,5.5-6.4,16.5v32
		c0,2.9,1.5,5.7,4.6,8.5c3,2.8,4.6,4.9,4.6,6.3v0.7c0,2.2-1.4,3.3-4.1,3.3h-37c-2.8,0-4.1-1.1-4.1-3.3v-0.7c0-1.4,1.1-3.5,3.4-6.3
		c2.3-2.8,3.4-5.6,3.4-8.5v-34.2c0-2.3-0.7-4.2-2.1-5.9c-1.4-1.6-2.8-3-4.1-4.1c-1.4-1.1-2.1-2.4-2.1-3.8v-0.5c0-1.9,1.3-3.6,4-5
		l24.3-11.4c2.3-0.8,3.9-0.9,4.8-0.2c0.9,0.7,1.4,2,1.4,4v12.6C56,388.9,63.9,383.2,75.9,383.2z"/>
	<path class="st0" d="M190,393c0,0.9-0.6,2-1.9,3.3c-1.3,1.3-2.5,2.9-3.8,5c-1.3,2.1-1.9,4.5-1.9,7.2v40.3c0,2.9,1.1,5.7,3.4,8.5
		c2.3,2.8,3.4,4.9,3.4,6.3v0.7c0,2.2-1.3,3.3-3.8,3.3h-24.6c-1.3,0-2.3-0.4-3.2-1.2c-0.9-0.8-1.3-1.8-1.3-3.1v-1.5
		c-5.3,5-12.3,7.6-21,7.6c-11.1,0-20.7-3.8-28.7-11.4c-8-7.6-12-18.2-12-31.6c0-12.5,4-22.8,12-30.9c8-8.1,17.6-12.1,28.7-12.1
		c8.5,0,15.4,2.4,20.8,7.2v-1c0-1.8,0.7-3.2,2.2-4.1c1.5-0.9,3.5-1.2,6-0.9l21.2,3.1c2.8,0.3,4.1,2,4.1,4.8V393z M142.3,460.8
		c3.1,0.1,5.7-1.1,7.8-3.8c2.1-2.6,3.2-6.2,3.2-10.7v-33.2c0-6.2-1.6-11.3-4.6-15.4c-3.1-4.1-6.7-6.1-10.8-6.1
		c-8.5,0-13,7.1-13.6,21.2c-0.2,5.4,0.3,11.6,1.5,18.8c1.2,7.1,3.3,13.7,6.2,19.9C134.8,457.5,138.3,460.7,142.3,460.8z"/>
</g>
</svg>
