<?xml version="1.0" encoding="utf-8"?>
<!-- Generator: Adobe Illustrator 28.3.0, SVG Export Plug-In . SVG Version: 6.00 Build 0)  -->
<svg version="1.1" id="Capa_1" xmlns="http://www.w3.org/2000/svg" xmlns:xlink="http://www.w3.org/1999/xlink" x="0px" y="0px"
	 viewBox="0 0 500 500" style="enable-background:new 0 0 500 500;" xml:space="preserve">
<style type="text/css">
	.st0{fill:#AEC2D3;}
	.st1{fill:#627DB3;}
	.st2{fill:#F0BDB8;}
	.st3{fill:#C3D8BF;}
	.st4{fill:#DBC1C7;}
</style>
<g>
	<path class="st1" d="M63.5,122.6c-13.1,0-23.8-4.3-32.2-12.8c-8.4-8.6-12.6-18.7-12.6-30.4c0-13,4.2-23.3,12.7-31.1
		c8.5-7.7,18.8-11.7,31-11.8c10.2-0.1,18.9,2.2,26,7c7.1,4.8,10.7,10.9,10.7,18.5c0,2.9-1,5.3-3,7.2c-2,2-5.2,2.9-9.6,2.8
		c-3.9-0.2-7.3-1.8-10.1-4.6c-2.8-2.9-4.9-6-6.1-9.3c-1.3-3.3-3-6.3-5.2-9c-2.2-2.7-4.6-4-7.4-4c-3.6,0.1-6.5,2-8.7,5.7
		c-2.2,3.7-3.4,8.2-3.4,13.6c0,11.3,2.6,20.3,7.7,27c5.1,6.8,11.9,10.2,20.4,10.2c7.7,0,14.1-3.3,19.1-10c1.1-1.4,2.5-1.9,4.1-1.5
		c1.6,0.4,2.4,1.5,2.4,3.4c-0.2,8-3.5,14.9-9.8,20.7C83.4,119.7,74.6,122.6,63.5,122.6z"/>
	<path class="st1" d="M154.2,122.6c-13.3,0-24.6-4.1-33.8-12.3c-9.2-8.2-13.9-18.5-13.9-30.9s4.6-22.6,13.8-30.7
		c9.2-8.1,20.1-12.1,32.7-12.1c13.1,0,24.2,4.1,33.4,12.2c9.2,8.2,13.8,18.5,13.8,31c0,12.4-4.5,22.6-13.4,30.7
		C177.8,118.5,167,122.6,154.2,122.6z M157.9,114.1c7.3,0,11-7.1,11-21.2c0-5.2-0.7-11.3-2.2-18.4c-1.4-7.1-3.8-13.8-7.2-20.1
		c-3.4-6.3-7.1-9.5-11.3-9.5c-4,0-6.9,1.8-8.6,5.3c-1.7,3.6-2.6,9-2.6,16.2c0,3.8,0.5,8.3,1.4,13.4c0.9,5.2,2.2,10.4,3.8,15.6
		c1.6,5.2,3.8,9.6,6.6,13.3C151.6,112.3,154.6,114.1,157.9,114.1z"/>
	<path class="st1" d="M74.2,154c10.7,0,20.1,3.6,28.3,10.9c8.2,7.3,12.3,17.5,12.3,30.6c0,13.2-4,23.9-12,32.2
		c-8,8.3-17.5,12.4-28.7,12.4c-8.5,0-15.4-2.5-20.8-7.6v1.5c0,3-1.5,4.5-4.5,4.5l-26-0.2c-2.6,0-4-1.1-4-3.3v-0.7
		c0-1.4,1.1-3.5,3.4-6.3c2.3-2.8,3.4-5.7,3.4-8.7V141c0-3-1.4-5.8-4.2-8.4c-2.8-2.6-4.2-4.6-4.2-5.9v-0.7c0-1.8,1.5-3.4,4.6-4.8
		L48.5,109c2.2-1.1,4.1-1.4,5.7-0.7c1.6,0.7,2.4,2.2,2.4,4.6v46.1C61.1,155.7,66.9,154,74.2,154z M71.4,231.6
		c8.7,0,13.1-7.2,13.1-21.7c0-6.9-0.5-13.8-1.6-20.7c-1.1-6.9-3-13.1-5.9-18.6c-2.8-5.5-6.2-8.3-10.1-8.3c-3.1,0-5.6,1.4-7.5,4
		c-1.9,2.7-2.8,6.4-2.8,11.1V211c0,5.3,1.5,10,4.6,14.3C64.2,229.5,67.6,231.6,71.4,231.6z"/>
	<path class="st1" d="M194.5,211.1c1.3-1.3,2.7-1.6,4.2-1.1s2.3,1.7,2.2,3.5c-0.1,2.6-0.9,5.4-2.3,8.3c-1.4,2.9-3.5,5.7-6.1,8.5
		c-2.6,2.8-6.3,5.1-10.9,7c-4.6,1.8-9.9,2.8-15.8,2.8c-12.9,0-23.3-4-31.4-12.1c-8.1-8-12.1-18.5-12.1-31.5
		c0-12.5,4.1-22.7,12.4-30.6c8.3-7.9,18.4-11.9,30.3-12c10.2-0.1,18.5,2.1,24.8,6.7c6.3,4.6,9.5,10.7,9.5,18.3
		c0,6-2.6,11.3-7.7,15.8c-5.1,4.6-11.7,7.5-19.9,8.8c-5.7,1-11.5,1.4-17.2,1.2c4.8,9.3,12.1,13.9,21.7,13.9
		C184.6,218.7,190.8,216.2,194.5,211.1z M161.3,163.1c-3.6,0-6.4,1.8-8.5,5.3c-2.1,3.6-3.2,8.2-3.2,13.9c0,4.7,0.5,9.1,1.5,13.3
		c3.2,0.1,6.1,0,8.6-0.3c7.8-1.4,11.7-7.6,11.7-18.6c-0.1-3.8-1.1-7-3-9.6C166.6,164.4,164.2,163.1,161.3,163.1z"/>
	<path class="st1" d="M266.3,154c4.9,0,8.9,1.6,11.8,4.8c2.9,3.2,4.4,7.3,4.4,12.2c0,10.8-4.4,16.2-13.3,16.2
		c-3.6,0-6.3-0.8-8.1-2.5c-1.8-1.7-2.9-3.5-3.2-5.6c-0.3-2.1-0.9-3.9-1.8-5.6c-0.9-1.7-2.3-2.5-4.1-2.5c-4.2,0-6.4,5.5-6.4,16.5v32
		c0,2.9,1.5,5.7,4.6,8.5c3,2.8,4.6,4.9,4.6,6.3v0.7c0,2.2-1.4,3.3-4.1,3.3h-37c-2.8,0-4.1-1.1-4.1-3.3v-0.7c0-1.4,1.1-3.5,3.4-6.3
		c2.3-2.8,3.4-5.7,3.4-8.5v-34.3c0-2.3-0.7-4.2-2.1-5.9c-1.4-1.6-2.8-3-4.1-4.1c-1.4-1.1-2.1-2.4-2.1-3.8V171c0-2,1.3-3.6,4-5
		l24.3-11.4c2.3-0.8,3.9-0.9,4.8-0.2c0.9,0.7,1.4,2,1.4,4V171C246.5,159.6,254.4,154,266.3,154z"/>
	<path class="st1" d="M55.6,357.6c-8.7,0-15.6-2.8-20.6-8.3c-5-5.5-7.5-13.4-7.5-23.6v-40.8H21c-1.1,0-2.1-0.4-2.8-1.1
		c-0.7-0.7-1.1-1.7-1.1-2.8v-3.8c0-2.6,1.3-4,4-4h3.3c5.3,0,9.8-1.6,13.6-4.7c3.8-3.2,6.3-7.4,7.4-12.7c0.6-3,2.1-4.5,4.6-4.5h4
		c3.1,0,4.6,1.5,4.6,4.5v17.4h17.7c1.1,0,2.1,0.4,2.8,1.1c0.7,0.7,1.1,1.7,1.1,2.8v3.8c0,1.1-0.4,2.1-1.1,2.8
		c-0.7,0.7-1.7,1.1-2.8,1.1H58.5v41.3c0,2.9,0.7,5.1,2.2,6.8c1.5,1.7,3.3,2.5,5.5,2.5c4.9,0,8.7-2.1,11.4-6.4c0.8-1,1.7-1.6,2.8-1.8
		s1.9,0,2.7,0.6c0.7,0.6,1.1,1.4,1.1,2.4c0,7.2-2.6,13.6-7.7,19C71.4,354.8,64.4,357.6,55.6,357.6z"/>
	<path class="st1" d="M135.5,357.6c-13.3,0-24.6-4.1-33.8-12.3c-9.2-8.2-13.9-18.5-13.9-30.9s4.6-22.6,13.8-30.7
		c9.2-8.1,20.1-12.1,32.7-12.1c13.1,0,24.2,4.1,33.4,12.2c9.2,8.2,13.8,18.5,13.8,31c0,12.4-4.5,22.6-13.4,30.7
		C159.1,353.5,148.2,357.6,135.5,357.6z M139.1,349.1c7.3,0,11-7.1,11-21.2c0-5.2-0.7-11.3-2.2-18.4c-1.4-7.1-3.8-13.8-7.2-20.1
		c-3.4-6.3-7.1-9.5-11.3-9.5c-4,0-6.9,1.8-8.6,5.3c-1.7,3.6-2.6,9-2.6,16.2c0,3.8,0.5,8.3,1.4,13.4c0.9,5.2,2.2,10.4,3.8,15.6
		c1.6,5.2,3.8,9.6,6.6,13.3C132.9,347.3,135.9,349.1,139.1,349.1z"/>
	<path class="st1" d="M77.4,389c4.9,0,8.9,1.6,11.8,4.8c2.9,3.2,4.4,7.3,4.4,12.2c0,10.8-4.4,16.2-13.3,16.2c-3.6,0-6.3-0.8-8.1-2.5
		c-1.8-1.7-2.9-3.5-3.2-5.6c-0.3-2.1-0.9-3.9-1.8-5.6c-0.9-1.7-2.3-2.5-4.1-2.5c-4.2,0-6.4,5.5-6.4,16.5v32c0,2.9,1.5,5.7,4.6,8.5
		c3,2.8,4.6,4.9,4.6,6.3v0.7c0,2.2-1.4,3.3-4.1,3.3h-37c-2.8,0-4.1-1.1-4.1-3.3v-0.7c0-1.4,1.1-3.5,3.4-6.3c2.3-2.8,3.4-5.7,3.4-8.5
		v-34.3c0-2.3-0.7-4.2-2.1-5.9c-1.4-1.6-2.8-3-4.1-4.1c-1.4-1.1-2.1-2.4-2.1-3.8V406c0-2,1.3-3.6,4-5l24.3-11.4
		c2.3-0.8,3.9-0.9,4.8-0.2c0.9,0.7,1.4,2,1.4,4V406C57.6,394.6,65.5,389,77.4,389z"/>
	<path class="st1" d="M168.7,446.1c1.3-1.3,2.7-1.6,4.2-1.1s2.3,1.7,2.2,3.5c-0.1,2.6-0.9,5.4-2.3,8.3c-1.4,2.9-3.5,5.7-6.1,8.5
		c-2.6,2.8-6.3,5.1-10.9,7c-4.6,1.8-9.9,2.8-15.8,2.8c-12.9,0-23.3-4-31.4-12.1c-8.1-8-12.1-18.5-12.1-31.5
		c0-12.5,4.1-22.7,12.4-30.6c8.3-7.9,18.4-11.9,30.3-12c10.2-0.1,18.5,2.1,24.8,6.7c6.3,4.6,9.5,10.7,9.5,18.3
		c0,6-2.6,11.3-7.7,15.8c-5.1,4.6-11.7,7.5-19.9,8.8c-5.7,1-11.5,1.4-17.2,1.2c4.8,9.3,12.1,13.9,21.7,13.9
		C158.8,453.7,164.9,451.2,168.7,446.1z M135.5,398.1c-3.6,0-6.4,1.8-8.5,5.3c-2.1,3.6-3.2,8.2-3.2,13.9c0,4.7,0.5,9.1,1.5,13.3
		c3.2,0.1,6.1,0,8.6-0.3c7.8-1.4,11.7-7.6,11.7-18.6c-0.1-3.8-1.1-7-3-9.6C140.7,399.4,138.3,398.1,135.5,398.1z"/>
	<path class="st1" d="M220.4,474.9c-11,0-20.1-1.9-27.2-5.6c-7.1-3.7-10.7-8.6-10.7-14.6c0-3.7,1.1-6.4,3.4-8.3
		c2.2-1.8,5.2-2.8,8.9-2.8c3.9,0,7,1.2,9.3,3.7c2.3,2.5,3.8,5.2,4.6,8.1c0.8,2.9,2.2,5.6,4.1,8.1c2,2.5,4.5,3.7,7.6,3.7
		c6.2,0,9.3-3.2,9.3-9.5c0-4.1-1.6-7.4-4.7-9.8c-3.2-2.4-7-4.2-11.5-5.5c-4.5-1.3-8.9-2.7-13.3-4.3c-4.4-1.6-8.2-4.3-11.4-8.1
		c-3.2-3.8-4.7-8.8-4.7-15c0-7.7,3.4-14,10.2-18.9c6.8-4.9,15.5-7.3,26.2-7.3c10.7,0,19.4,2,26.1,6c6.7,4,10.1,8.9,10.1,14.6
		c0,3-1.1,5.5-3.4,7.5c-2.2,2-5,3-8.2,3c-3.8,0-6.8-1.2-9-3.6c-2.2-2.4-3.6-5.1-4.4-8c-0.7-2.9-1.9-5.6-3.4-8s-3.6-3.6-6.3-3.6
		c-2.5,0-4.5,1-5.9,2.9c-1.4,2-2.2,4.2-2.2,6.9c0,4.2,1.5,7.7,4.6,10.3c3,2.6,6.7,4.6,11,6c4.3,1.4,8.6,2.9,12.9,4.5
		c4.3,1.6,8,4.2,11,7.8c3,3.6,4.6,8.4,4.6,14.2c0,7.3-3.4,13.4-10.1,18.2C241.1,472.5,232,474.9,220.4,474.9z"/>
</g>
</svg>
