<?xml version="1.0" encoding="utf-8"?>
<!-- Generator: Adobe Illustrator 28.3.0, SVG Export Plug-In . SVG Version: 6.00 Build 0)  -->
<svg version="1.1" id="Capa_1" xmlns="http://www.w3.org/2000/svg" xmlns:xlink="http://www.w3.org/1999/xlink" x="0px" y="0px"
	 viewBox="0 0 800 1550" style="enable-background:new 0 0 800 1550;" xml:space="preserve">
<style type="text/css">
	.st0{fill:#E7ECF2;}
	.st1{fill:#D2D6EA;}
	.st2{fill:#FBECEA;}
	.st3{fill:#EDF3EC;}
	.st4{fill:#F4ECEE;}
</style>
<g>
	<path class="st4" d="M800,170.1V0H499.4c43.2,8.4,86.2,22.3,129.1,41.8C695.4,71.9,752.4,114.7,800,170.1z"/>
	<path class="st4" d="M302.3,0H0v144.3C60,98.4,125,59.9,196.5,31.4C231.8,17.3,267.1,6.8,302.3,0z"/>
	<path class="st4" d="M644,1069.6c-32.5-6.7-63-19.2-92.8-32.6c-38.2-17.3-75.7-36.7-113.4-55c-34.3-18.5-66.8-39.1-97.4-63.3
		c-38.1-30-53.3-67.9-43.4-116c5.6-27.3,10.7-54.6,15.5-82c4.4-24.3,5-48.5,0.3-72.9c-1.4-7.4-3.1-15-5.7-21.9
		c-14.4-37.8-42.8-46.5-76.1-23.6c-28.6,19.7-46.7,48.2-64.3,76.8c-8.9,14.3-16.2,29.4-24.6,44.3c-13.9,24.6-35,35-63.3,32.5
		c-23.9-2.3-46.2-9.8-68-18.3c-3.6-1.4-7.2-2.7-10.8-4.1V1550h800V961.7c-10.7,23.9-23.8,46.7-41.1,66.9
		C728.5,1064.7,690.7,1079.1,644,1069.6z"/>
</g>
</svg>
