<?xml version="1.0" encoding="UTF-8"?>
<svg id="diseño" xmlns="http://www.w3.org/2000/svg" viewBox="0 0 372.01 148.95">
  <defs>
    <style>
      .cls-1 {
        fill: #fff;
      }
    </style>
  </defs>
  <path class="cls-1" d="M329.25,128.58l1.97,5.62h-3.93l1.96-5.62ZM332.98,139.26h2.46l-5.13-13.56h-2.11l-5.12,13.56h2.45l1.1-3.16h5.25l1.11,3.16ZM319.21,125.71h-2.35v13.56h2.35v-13.56ZM306.72,125.71h-2.36v13.56h8.51v-1.88h-6.16v-11.68ZM299.35,125.71h-2.35v13.56h2.35v-13.56ZM278.06,125.71v13.56h2.35v-4.47l-.23-5.97,4,10.44h1.68l4-10.45-.23,5.98v4.47h2.35v-13.56h-3.04l-3.9,10.39-3.91-10.39h-3.05ZM268.08,128.58l1.96,5.62h-3.93l1.97-5.62ZM271.81,139.26h2.46l-5.13-13.56h-2.11l-5.12,13.56h2.45l1.1-3.16h5.25l1.11,3.16ZM259.21,131.64h-5.46v-4.03h6.26v-1.9h-8.61v13.56h2.36v-5.74h5.46v-1.88ZM239.67,125.71h-2.34v9.66l-6.06-9.66h-2.36v13.56h2.36v-9.62l6.04,9.62h2.36v-13.56ZM223.95,131.35h-5.57v-3.74h6.44v-1.9h-8.8v13.56h8.86v-1.88h-6.51v-4.17h5.57v-1.86ZM204.23,131.35h-5.57v-3.74h6.44v-1.9h-8.8v13.56h8.86v-1.88h-6.51v-4.17h5.57v-1.86ZM183.07,125.71h-2.58l4.86,13.56h2.28l4.88-13.56h-2.59l-3.45,10.61-3.41-10.61ZM176.63,125.71h-2.35v13.56h2.35v-13.56ZM160.98,125.71h-2.58l4.86,13.56h2.28l4.88-13.56h-2.59l-3.45,10.61-3.41-10.61ZM147.98,140.46c.31-.63.46-1.25.46-1.88v-1.35h-1.68v1.55c-.03.86-.33,1.7-.91,2.51l.98.67c.46-.38.85-.88,1.16-1.51M141.66,131.54h-5.88v-4.37h6.73v-1.46h-8.52v13.56h8.61v-1.46h-6.82v-4.8h5.88v-1.46ZM123.39,125.71h-1.8v13.56h8.22v-1.46h-6.43v-12.09ZM109.33,127.17h3.32c.89.02,1.59.27,2.1.76.51.48.76,1.13.76,1.94,0,.85-.25,1.5-.76,1.96-.51.45-1.24.68-2.2.68h-3.21v-5.33ZM112.52,133.96c1.53,0,2.71-.36,3.53-1.07.82-.71,1.23-1.72,1.23-3.04,0-1.25-.42-2.25-1.26-3.01-.84-.76-2-1.14-3.49-1.14h-5v13.56h1.79v-5.31h3.19ZM88.8,125.71v13.56h1.79v-5.28l-.18-5.67,4.44,10.95h1.37l4.45-10.98-.17,5.7v5.28h1.79v-13.56h-2.32l-4.43,11.06-4.43-11.06h-2.31ZM83.49,125.71h-1.79v13.56h1.79v-13.56ZM74.58,134.3c.47.36.7.88.7,1.54s-.25,1.19-.75,1.57c-.5.38-1.23.58-2.17.58-1.01,0-1.82-.24-2.43-.71-.6-.47-.91-1.12-.91-1.94h-1.8c0,.79.22,1.49.66,2.11.44.62,1.06,1.11,1.87,1.47s1.68.54,2.61.54c1.43,0,2.58-.33,3.44-.99s1.29-1.54,1.29-2.64c0-.69-.15-1.29-.46-1.8-.31-.51-.78-.96-1.42-1.34-.64-.38-1.52-.73-2.64-1.05-1.13-.32-1.92-.67-2.39-1.05-.47-.38-.7-.85-.7-1.4,0-.69.25-1.23.74-1.62.49-.39,1.18-.58,2.06-.58.95,0,1.68.23,2.21.7.52.47.78,1.12.78,1.94h1.8c0-.75-.2-1.44-.6-2.08-.4-.63-.97-1.13-1.69-1.49-.73-.36-1.56-.54-2.49-.54-1.37,0-2.48.35-3.33,1.05-.85.7-1.28,1.58-1.28,2.65,0,.94.35,1.74,1.05,2.38.7.64,1.81,1.18,3.35,1.62,1.22.35,2.07.71,2.53,1.08M55.96,131.54h-5.88v-4.37h6.73v-1.46h-8.52v13.56h8.61v-1.46h-6.82v-4.8h5.88v-1.46ZM34.54,125.71h-1.95l5.02,13.56h1.58l5.03-13.56h-1.96l-3.87,11.18-3.86-11.18ZM28.45,125.71h-1.79v13.56h1.79v-13.56ZM12.84,125.71h-1.95l5.02,13.56h1.58l5.03-13.56h-1.96l-3.87,11.18-3.86-11.18Z"/>
  <path class="cls-1" d="M30.05,66.75v24.34h17.01c6.62,0,10.82-.19,12.6-.56,2.73-.5,4.96-1.71,6.68-3.63,1.71-1.93,2.58-4.5,2.58-7.73,0-2.73-.66-5.05-1.99-6.95-1.33-1.9-3.24-3.29-5.74-4.16s-7.94-1.3-16.3-1.3h-14.84ZM30.05,30.55v21.05h12.05c7.16,0,11.61-.11,13.35-.31,3.15-.37,5.62-1.46,7.42-3.26,1.8-1.8,2.7-4.17,2.7-7.11s-.78-5.1-2.33-6.86c-1.55-1.76-3.86-2.83-6.92-3.2-1.82-.21-7.06-.31-15.71-.31h-10.56ZM11.67,15.4h36.38c7.2,0,12.57.3,16.11.9,3.54.6,6.7,1.85,9.5,3.76,2.8,1.91,5.12,4.44,6.99,7.6,1.86,3.16,2.79,6.72,2.79,10.65,0,4.26-1.15,8.18-3.45,11.74-2.3,3.56-5.41,6.23-9.34,8.01,5.55,1.61,9.81,4.36,12.79,8.26,2.98,3.89,4.47,8.47,4.47,13.72,0,4.14-.96,8.16-2.89,12.07-1.92,3.91-4.55,7.04-7.88,9.38-3.33,2.34-7.44,3.78-12.33,4.32-3.06.33-10.45.54-22.16.62H11.67V15.4Z"/>
  <rect class="cls-1" x="102.88" y="15.4" width="18.38" height="91.02"/>
  <path class="cls-1" d="M187,70.41l-12.54-33.77-12.29,33.77h24.84ZM220.83,106.42h-19.99l-7.95-20.67h-36.38l-7.51,20.67h-19.5L164.96,15.4h19.43l36.44,91.02Z"/>
  <path class="cls-1" d="M225.93,76.81l17.88-1.74c1.08,6,3.26,10.41,6.55,13.22,3.29,2.82,7.73,4.22,13.32,4.22,5.92,0,10.38-1.25,13.38-3.76,3-2.5,4.5-5.43,4.5-8.78,0-2.15-.63-3.98-1.89-5.5-1.26-1.51-3.47-2.82-6.61-3.94-2.15-.75-7.06-2.07-14.72-3.98-9.85-2.44-16.76-5.44-20.74-9-5.59-5.01-8.38-11.11-8.38-18.32,0-4.63,1.32-8.97,3.94-13,2.63-4.04,6.42-7.11,11.36-9.22,4.95-2.11,10.92-3.17,17.91-3.17,11.42,0,20.02,2.5,25.8,7.51,5.77,5.01,8.8,11.7,9.09,20.05l-18.38.81c-.79-4.67-2.47-8.04-5.06-10.09-2.58-2.05-6.47-3.07-11.64-3.07s-9.52,1.1-12.54,3.29c-1.94,1.41-2.92,3.29-2.92,5.65,0,2.15.91,4,2.73,5.52,2.32,1.95,7.95,3.98,16.89,6.08,8.94,2.11,15.55,4.29,19.83,6.55,4.28,2.26,7.64,5.34,10.06,9.25,2.42,3.91,3.63,8.74,3.63,14.49,0,5.22-1.45,10.1-4.34,14.66-2.9,4.55-7,7.94-12.29,10.15-5.3,2.21-11.9,3.32-19.81,3.32-11.51,0-20.34-2.66-26.51-7.98-6.17-5.32-9.85-13.07-11.05-23.25"/>
  <rect class="cls-1" x="314.83" y="15.4" width="18.38" height="91.02"/>
  <path class="cls-1" d="M340.52,103.38h1.41c.84,0,1.41.41,1.41,1.1s-.57,1.1-1.41,1.1h-1.41v-2.2ZM343.93,104.47c0-.97-.83-1.65-1.9-1.65h-2.1v5.16h.59v-1.86h1.37l1.31,1.86h.67l-1.34-1.91c.82-.17,1.41-.79,1.41-1.6"/>
  <path class="cls-1" d="M346.34,105.4c0,2.44-1.98,4.41-4.41,4.41s-4.41-1.98-4.41-4.41,1.98-4.41,4.41-4.41,4.41,1.98,4.41,4.41M347.04,105.4c0-2.82-2.29-5.11-5.11-5.11s-5.12,2.29-5.12,5.11,2.29,5.11,5.12,5.11,5.11-2.29,5.11-5.11"/>
  <g>
    <path class="cls-1" d="M350.52,15.42l.43,2.78v9.47h-2.78v-12.26h2.36ZM350.52,15.42l3.84,4.74c.85,1.06,1.54,1.85,2.08,2.37.53.52,1.01.88,1.43,1.09.42.21.87.31,1.35.31s.93-.1,1.3-.31c.37-.21.66-.52.85-.94.19-.42.29-.92.29-1.5,0-.87-.21-1.59-.63-2.15s-1.05-1.02-1.91-1.35l1.01-2.56c1.39.52,2.41,1.33,3.05,2.41.64,1.08.97,2.38.97,3.89,0,1.21-.18,2.25-.55,3.12-.37.87-.91,1.53-1.63,2-.72.46-1.59.7-2.6.7-.73,0-1.43-.15-2.09-.46-.66-.31-1.35-.82-2.06-1.54s-1.53-1.69-2.42-2.92c-.28-.33-.49-.57-.61-.72l-3.07-4.29,1.41-1.89Z"/>
    <path class="cls-1" d="M348.79,32.01c.64-1.01,1.58-1.78,2.82-2.32s2.68-.81,4.34-.81,3.04.28,4.29.85c1.24.57,2.2,1.37,2.88,2.4.68,1.03,1.02,2.21,1.02,3.55s-.33,2.52-.98,3.54-1.58,1.79-2.79,2.35c-1.21.55-2.63.83-4.26.83s-3.1-.28-4.35-.85c-1.26-.57-2.23-1.37-2.91-2.4-.68-1.03-1.02-2.21-1.02-3.55s.32-2.57.97-3.58ZM351.1,37.35c.43.46,1.07.82,1.91,1.08s1.84.38,3.01.38,2.11-.13,2.95-.38c.85-.25,1.48-.62,1.92-1.1.43-.48.65-1.04.65-1.68s-.22-1.23-.66-1.71-1.08-.85-1.92-1.1c-.84-.25-1.83-.38-2.99-.38s-2.15.13-2.99.38c-.84.25-1.47.62-1.9,1.1-.43.48-.64,1.05-.64,1.71s.22,1.24.65,1.71Z"/>
    <path class="cls-1" d="M350.52,43.72l.43,2.78v9.47h-2.78v-12.26h2.36ZM350.52,43.72l3.84,4.74c.85,1.06,1.54,1.85,2.08,2.37.53.52,1.01.88,1.43,1.09.42.21.87.31,1.35.31s.93-.1,1.3-.31c.37-.21.66-.52.85-.94.19-.42.29-.92.29-1.5,0-.87-.21-1.59-.63-2.15s-1.05-1.02-1.91-1.35l1.01-2.56c1.39.52,2.41,1.33,3.05,2.41.64,1.08.97,2.38.97,3.89,0,1.21-.18,2.25-.55,3.12-.37.87-.91,1.53-1.63,2-.72.46-1.59.7-2.6.7-.73,0-1.43-.15-2.09-.46-.66-.31-1.35-.82-2.06-1.54s-1.53-1.69-2.42-2.92c-.28-.33-.49-.57-.61-.72l-3.07-4.29,1.41-1.89Z"/>
    <path class="cls-1" d="M348.24,61.06c.28-.82.69-1.52,1.23-2.11.55-.59,1.24-1.04,2.08-1.36l1.28,2.47c-.85.39-1.48.88-1.9,1.47-.41.59-.62,1.37-.62,2.32,0,.67.13,1.24.38,1.69.25.46.6.79,1.02,1s.93.31,1.52.31c.85,0,1.5-.24,1.94-.73.44-.49.66-1.2.66-2.14,0-.7-.11-1.33-.33-1.87-.22-.55-.54-1.04-.98-1.49l.94-2.54,8.37.61v10.5h-2.85v-9.02l1.03,1.14-5.54-.4.63-.43c.48.64.81,1.31,1,2,.19.69.28,1.46.28,2.31,0,1.18-.21,2.18-.62,3-.41.82-1,1.42-1.76,1.82s-1.66.59-2.69.59c-1.11,0-2.08-.25-2.91-.76s-1.47-1.25-1.92-2.22c-.45-.97-.67-2.1-.67-3.37,0-1.05.14-1.98.42-2.79Z"/>
  </g>
</svg>