<?xml version="1.0" encoding="UTF-8"?>
<svg id="Capa_1" data-name="Capa 1" xmlns="http://www.w3.org/2000/svg" viewBox="0 0 394.59 466.73">
  <defs>
    <style>
      .cls-1 {
        fill: #fff;
        stroke-width: 0px;
      }
    </style>
  </defs>
  <g>
    <path class="cls-1" d="M79.42,158.71v-1.14c12.92,0,13.68-9.5,13.68-23.56V45.09c0-14.06-.76-23.56-13.68-23.56v-1.14h48.64v1.14c-12.92,0-13.68,9.5-13.68,23.56v88.92c0,14.06.76,23.56,13.68,23.56v1.14h-48.64Z"/>
    <path class="cls-1" d="M216.41,20.39h35.72v1.14c-12.92,0-14.82,14.44-14.82,34.96v104.5h-1.14l-82.84-124.07v86.07c0,19.76,3.8,34.58,17.48,34.58v1.14h-37.62v-1.14c12.92,0,16.72-14.82,16.72-34.58V42.43c0-13.68-6.46-19.38-16.72-20.9v-1.14h34.2l66.5,100.51V56.49c0-20.52-3.04-34.96-17.48-34.96v-1.14Z"/>
  </g>
  <g>
    <path class="cls-1" d="M117.99,165.36h31.92v1.14c-9.12,1.52-13.87,13.87-22.04,36.67l-37.05,102.79h-1.52l-41.8-116.28c-5.51-15.58-9.31-22.42-17.29-23.18v-1.14h48.64v1.14c-10.64.76-14.25,7.03-10.45,18.05l30.78,87.97,25.08-70.49c7.98-22.42,6.65-34.01-6.27-35.53v-1.14Z"/>
    <path class="cls-1" d="M252.7,270.05l-4.56,33.63h-97.47v-1.14c12.92,0,13.68-9.5,13.68-23.56v-88.92c0-14.06-.76-23.56-13.68-23.56v-1.14h94.62l2.47,30.02h-1.14c-10.45-22.23-17.48-26.98-38.38-26.98h-22.61v61.75h17.29c17.67,0,22.23-4.75,26.03-18.81h1.14v42.18h-1.14c-3.8-14.06-8.36-20.33-26.03-20.33h-17.29v58.52c0,5.7,1.71,8.93,7.6,8.93h17.67c19.76,0,28.5-4.18,40.66-30.59h1.14Z"/>
    <path class="cls-1" d="M372.59,302.54v1.14c-3.04.38-12.54.76-18.24.76-13.68,0-17.1-6.08-40.66-57.76-3.23-6.84-6.46-8.36-12.54-8.36h-7.79v40.66c0,14.06.76,23.56,13.68,23.56v1.14h-48.64v-1.14c12.92,0,13.68-9.5,13.68-23.56v-88.92c0-14.06-.76-23.56-13.68-23.56v-1.14h51.3c30.4,0,47.12,14.06,47.12,36.1,0,18.62-13.87,30.4-30.97,34.96v.38c5.51,3.23,10.26,10.83,14.82,19.57,19,36.48,22.8,43.13,31.92,46.17ZM293.36,235.28h12.92c18.81,0,28.5-11.59,28.5-32.3s-8.93-34.58-28.31-34.58h-5.89c-4.56,0-7.22,2.28-7.22,6.84v60.04Z"/>
  </g>
  <g>
    <path class="cls-1" d="M119.89,310.33h35.72v1.14c-12.92,0-14.82,14.44-14.82,34.96v104.5h-1.14l-82.84-124.07v86.07c0,19.76,3.8,34.58,17.48,34.58v1.14h-37.62v-1.14c12.92,0,16.72-14.82,16.72-34.58v-80.56c0-13.68-6.46-19.38-16.72-20.9v-1.14h34.2l66.5,100.51v-64.41c0-20.52-3.04-34.96-17.48-34.96v-1.14Z"/>
    <path class="cls-1" d="M253.27,424.33c5.51,15.58,9.31,22.42,17.29,23.18v1.14h-48.64v-1.14c10.64-.76,14.25-7.98,10.64-18.05l-9.88-27.93h-42.37l-3.8,10.45c-7.98,22.42-6.65,34.01,6.27,35.53v1.14h-31.92v-1.14c9.12-1.14,13.87-13.87,22.04-36.67l37.05-102.79h1.52l41.8,116.28ZM181.83,396.97h39.33l-19.57-55.48-19.76,55.48Z"/>
    <path class="cls-1" d="M271.32,448.65v-1.14c12.92,0,13.68-9.5,13.68-23.56v-88.92c0-14.06-.76-23.56-13.68-23.56v-1.14h48.64v1.14c-12.92,0-13.68,9.5-13.68,23.56v101.84c0,5.7,1.71,8.74,7.41,8.74h8.17c20.52,0,30.21-6.08,43.13-33.44h1.14l-4.94,36.48h-89.87Z"/>
  </g>
</svg>