<?xml version="1.0" encoding="UTF-8"?>
<svg id="Capa_1" data-name="Capa 1" xmlns="http://www.w3.org/2000/svg" viewBox="0 0 518.43 348.99">
  <defs>
    <style>
      .cls-1 {
        fill: #fff;
        stroke-width: 0px;
      }
    </style>
  </defs>
  <g>
    <path class="cls-1" d="M71.06,122.5c19.76,1.52,39.9,14.06,39.9,37.24,0,18.62-15.01,35.34-51.68,35.34H3.42v-1.14c12.92,0,13.68-9.5,13.68-23.56v-88.92c0-14.06-.76-23.56-13.68-23.56v-1.14h53.2c32.87,0,47.12,13.49,47.12,32.3,0,20.9-16.72,30.59-32.68,33.06v.38ZM45.6,59.8c-4.56,0-7.22,2.28-7.22,6.84v54.91h14.06c21.09,0,29.26-13.3,29.26-29.45,0-19.38-9.69-32.3-30.02-32.3h-6.08ZM87.78,158.6c0-20.14-12.73-34.01-34.58-34.01h-14.82v55.29c0,3.99,0,12.16,15.39,12.16,21.09,0,34.01-12.54,34.01-33.44Z"/>
    <path class="cls-1" d="M215.08,170.76c5.51,15.58,9.31,22.42,17.29,23.18v1.14h-48.64v-1.14c10.64-.76,14.25-7.98,10.64-18.05l-9.88-27.93h-42.37l-3.8,10.45c-7.98,22.42-6.65,34.01,6.27,35.53v1.14h-31.92v-1.14c9.12-1.14,13.87-13.87,22.04-36.67l37.05-102.79h1.52l41.8,116.28ZM143.64,143.4h39.33l-19.57-55.48-19.76,55.48ZM164.54,46.5l-.76-.38c4.94-11.4,11.78-33.25,14.25-37.24,1.71-2.66,4.18-4.18,6.84-4.18,4.94,0,8.36,4.56,8.36,8.17,0,1.52-.57,3.04-1.52,4.56-2.47,3.99-19,19.57-27.17,29.07Z"/>
    <path class="cls-1" d="M235.98,189.57l-1.14-31.35h1.14c8.36,23.94,21.47,36.48,39.14,36.48,15.01,0,28.31-10.07,28.31-27.36s-13.68-24.51-29.64-32.3l-9.69-4.75c-12.73-6.27-26.41-15.2-26.41-36.48,0-22.61,16.34-39.33,39.71-39.33,10.45,0,25.08,3.42,34.2,7.6v24.7h-1.14c-8.55-20.52-19.76-29.64-34.2-29.64-15.39,0-25.27,10.26-25.27,25.65s12.16,21.85,23.75,27.55l9.69,4.75c16.53,8.17,32.3,17.1,32.3,40.47s-17.86,41.8-44.46,41.8c-11.02,0-27.36-3.23-36.29-7.79Z"/>
    <path class="cls-1" d="M324.33,195.08v-1.14c12.92,0,13.68-9.5,13.68-23.56v-88.92c0-14.06-.76-23.56-13.68-23.56v-1.14h48.64v1.14c-12.92,0-13.68,9.5-13.68,23.56v88.92c0,14.06.76,23.56,13.68,23.56v1.14h-48.64Z"/>
  </g>
  <g>
    <path class="cls-1" d="M171.15,271.27c0-42.56,27.55-71.82,65.36-71.82,19,0,32.3,5.7,41.04,10.26l1.14,26.22h-1.14c-9.12-21.28-22.04-33.82-41.8-33.82-25.08,0-41.04,29.26-41.04,68.78s16.34,68.78,41.04,68.78c19.76,0,34.2-13.3,43.32-37.24h1.14l-3.42,30.4c-8.74,4.18-22.04,9.5-40.28,9.5-37.81,0-65.36-27.36-65.36-71.06Z"/>
    <path class="cls-1" d="M288.38,271.27c0-42.56,25.08-71.82,62.7-71.82s62.32,27.74,62.32,71.06-25.08,71.82-62.7,71.82-62.32-27.74-62.32-71.06ZM389.84,270.89c0-38.38-13.3-68.78-39.14-68.78s-38.76,29.26-38.76,68.78,13.3,68.78,39.14,68.78,38.76-29.26,38.76-68.78Z"/>
    <path class="cls-1" d="M424.23,334.54l-1.14-31.35h1.14c8.36,23.94,21.47,36.48,39.14,36.48,15.01,0,28.31-10.07,28.31-27.36s-13.68-24.51-29.64-32.3l-9.69-4.75c-12.73-6.27-26.41-15.2-26.41-36.48,0-22.61,16.34-39.33,39.71-39.33,10.45,0,25.08,3.42,34.2,7.6v24.7h-1.14c-8.55-20.52-19.76-29.64-34.2-29.64-15.39,0-25.27,10.26-25.27,25.65s12.16,21.85,23.75,27.55l9.69,4.75c16.53,8.17,32.3,17.1,32.3,40.47s-17.86,41.8-44.46,41.8c-11.02,0-27.36-3.23-36.29-7.79Z"/>
  </g>
</svg>