<?xml version="1.0" encoding="UTF-8"?>
<svg id="Capa_1" data-name="Capa 1" xmlns="http://www.w3.org/2000/svg" xmlns:xlink="http://www.w3.org/1999/xlink" viewBox="0 0 547.95 221.08">
  <defs>
    <style>
      .cls-1 {
        fill: #a02e2b;
      }

      .cls-1, .cls-2 {
        stroke-width: 0px;
      }

      .cls-3 {
        clip-path: url(#clippath);
      }

      .cls-2 {
        fill: none;
      }
    </style>
    <clipPath id="clippath">
      <polygon class="cls-2" points="21.29 -224.83 548.47 -303.62 548.47 -175.55 38.6 -104.15 21.29 -224.83"/>
    </clipPath>
    <clipPath id="clippath-1">
      <polygon class="cls-2" points="21.29 -224.83 35.7 -128.39 548.47 -205.02 548.47 -303.62 21.29 -224.83"/>
    </clipPath>
  </defs>
  <g class="cls-3">
    <rect class="cls-2" x="-2078.03" y="-851" width="2626.5" height="1729.65"/>
  </g>
  <g>
    <path class="cls-1" d="M100.08,80.13c-.5-9.58,6.12-22.35,15.3-22.83,4.06-.21,6.21,2.1,6.38,5.26l-2.35,2.67-.34.02c.29-5.21-1.29-7.28-4.05-7.13-6.2.33-12.46,11.33-11.94,21.19.27,5.18,2.3,7.34,5.57,7.16,3.72-.19,6.84-3.12,10-7.47l.35.21c-3.68,6.24-7.08,9.24-11.37,9.46-4.17.22-7.24-2.39-7.57-8.53Z"/>
    <path class="cls-1" d="M122.54,76.58c-.48-9.24,5.4-19.94,13.73-20.38,5.86-.31,9.8,3.78,10.17,10.76.48,9.24-5.39,19.94-13.73,20.38-5.86.31-9.8-3.78-10.17-10.76ZM143.34,66c-.29-5.52-2.63-9.24-7.14-9-7.1.37-11,12.1-10.56,20.55.29,5.52,2.63,9.24,7.14,9,7.1-.37,11-12.1,10.56-20.55Z"/>
    <path class="cls-1" d="M193.95,75.67c-2.54,5.44-5.42,8.76-7.5,8.87-2.03.11-2.41-1.79-1.8-5.21l2.66-15.05c.78-4.45,1.26-8.31-1.95-8.15-5.69.3-12.84,13.67-15.22,28.59l-2.82.15,3.09-19.71c.67-4.44,1.26-8.31-1.95-8.15-5.63.29-12.84,13.72-15.22,28.59l-2.82.15,3.86-24.49c.26-1.59.51-3.19-.5-3.14-.85.04-2.33,1.82-4.44,4.86l-.29-.21c2.34-4.98,4.86-7.49,6.55-7.57,1.92-.1,2.13,1.92,1.63,5.22l-2.34,14.58c3.72-11.95,9.84-20.29,15.14-20.56,4.79-.25,4.1,5.04,3.17,10.96l-1.41,8.72c3.72-11.95,9.84-20.29,15.14-20.56,4.79-.25,4.22,5.03,3.17,10.96l-2.43,13.97c-.26,1.59-.57,3.19.39,3.14.84-.04,2.68-1.72,5.61-6.17l.29.21Z"/>
    <path class="cls-1" d="M198.39,68.99c-.3,1.77-.44,3.53-.34,5.33.27,5.18,2.3,7.33,5.57,7.16,3.66-.19,7.52-3.16,10.68-7.51l.35.21c-3.68,6.24-7.82,9.28-12.04,9.5-4.17.22-7.24-2.39-7.57-8.53-.49-9.35,5.72-22.33,16.14-22.88,3.89-.2,5.5,1.41,5.62,3.72.27,5.18-7.11,8.79-18.41,13ZM198.57,67.97c10.01-4.03,15.35-6.68,15.09-11.64-.09-1.8-.91-3.34-3.33-3.21-4.9.26-10.02,7.08-11.76,14.85Z"/>
    <path class="cls-1" d="M244.29,72.8l.29.21c-2.54,5.44-5.36,8.75-7.61,8.87-2.25.12-2.02-2.94-1.63-5.22l1.27-8.14c-2.99,8.74-8.31,13.82-12.99,14.07-3.49.18-5.67-2.47-5.94-7.65-.53-10.08,6.4-23.33,16.43-23.85,2.08-.11,3.86.36,5.05,1.49l1.36-8.6c.6-3.65-.15-4.96-1.97-5.21l.04-.34,5.67-1.77h.23s-6.2,39.18-6.2,39.18c-.13.8-.47,2.91.55,2.85,1.13-.06,3.41-2.78,5.45-5.88ZM237.72,61.62l.3-1.88c.08-.63.11-1.19.06-2.04-.18-3.38-1.27-5.98-4.71-5.8-7.15.38-13.08,12.32-12.59,21.73.24,4.51,1.89,6.96,4.54,6.82,4.51-.24,10.42-8.17,12.4-18.84Z"/>
    <path class="cls-1" d="M246.01,70.11c-.48-9.24,5.4-19.94,13.73-20.38,5.86-.31,9.8,3.78,10.17,10.76.48,9.24-5.39,19.94-13.73,20.38-5.86.31-9.8-3.78-10.17-10.76ZM266.81,59.53c-.29-5.52-2.63-9.24-7.14-9-7.1.37-11,12.1-10.56,20.55.29,5.52,2.63,9.24,7.14,9,7.1-.37,11-12.1,10.56-20.55Z"/>
    <path class="cls-1" d="M292.5,48.47l-1.39,3.58-.34.02c-.69-.3-1.26-.39-1.94-.35-5.8.3-10.08,14.65-12.12,27.41l-2.82.15,3.86-24.49c.25-1.59.51-3.19-.5-3.14-.85.04-2.33,1.82-4.43,4.86l-.29-.21c2.34-4.98,4.86-7.49,6.55-7.57,1.92-.1,2.13,1.92,1.63,5.22l-1.92,11.96c2.61-9.51,6.59-17.52,11.44-17.77.73-.04,1.52-.02,2.28.33Z"/>
    <path class="cls-1" d="M324.18,46.36c1.76,1.26,2.56,3.48,2.69,6.13.71,13.46-12.42,37.88-23.07,38.43-1.75.09-3.52-.44-5.13-1.99l1.23-2.49.34-.02c1.45,1.85,3.24,2.49,5.15,2.39,4.45-.23,9.77-4.41,9.22-14.83-.48-9.13-4.65-24.05-7.75-23.88-.96.05-1.78,1.56-2.45,4.93l-.29-.1c.35-5.27,1.75-7.6,3.55-7.7,4.62-.24,9.11,14.38,9.7,25.53.13,2.42.06,4.35-.25,6,4.45-6.79,7.85-15.1,7.4-23.77-.18-3.44-1.12-6.21-3.05-7.47l-.02-.34,2.72-.82Z"/>
    <path class="cls-1" d="M340.56,73.41l1.16-3.79.34-.02c.95,3.11,3.96,5.55,7.57,5.37,3.61-.19,5.87-3.3,5.69-6.74-.16-3.04-2.15-4.46-4.97-6.52l-1.64-1.21c-2.12-1.58-4.06-3.06-4.25-6.73-.24-4.62,3.22-8.64,8.18-8.9,3.16-.17,5.71,1.17,7,2.12l-.77,3.66-.34.02c-1.03-2.49-3.31-4.91-6.8-4.73-3.38.18-5.13,3.49-4.98,6.25.15,2.87,1.81,4.25,3.86,5.79l1.64,1.21c3.29,2.43,5.24,4.08,5.42,7.57.26,4.96-3.76,9.01-9.29,9.3-3.38.18-6.5-1.13-7.82-2.64Z"/>
    <path class="cls-1" d="M387.99,65.5c-2.54,5.44-5.36,8.75-7.61,8.87-2.25.12-2.02-2.94-1.63-5.22l1.32-8.26c-3.04,8.86-8.36,13.94-13.04,14.18-3.49.18-5.67-2.47-5.94-7.65-.53-10.08,6.4-23.33,16.43-23.85,2.42-.13,4.38.51,5.53,2.08l2.26-2.15.34-.02-3.95,24.84c-.13.8-.47,2.91.54,2.85,1.13-.06,3.41-2.78,5.45-5.88l.29.21ZM381.34,52.85c.13-.8.2-1.53.14-2.66-.18-3.38-1.27-5.98-4.71-5.8-7.15.38-13.08,12.32-12.59,21.73.24,4.51,1.89,6.96,4.54,6.82,4.68-.25,10.9-8.76,12.62-20.09Z"/>
    <path class="cls-1" d="M389.85,68.57l5.18-32.7c.6-3.65-.15-4.96-1.97-5.21l.04-.34,5.67-1.77h.23s-6.19,39.18-6.19,39.18c-.13.8-.47,2.91.55,2.85,1.13-.06,3.41-2.78,5.45-5.88l.29.21c-2.54,5.44-5.36,8.75-7.61,8.87-2.25.12-2.02-2.94-1.63-5.22Z"/>
    <path class="cls-1" d="M427.03,63.45c-2.54,5.44-5.36,8.75-7.61,8.87s-2.02-2.94-1.63-5.22l1.32-8.26c-3.04,8.86-8.36,13.94-13.04,14.18-3.49.18-5.67-2.47-5.94-7.65-.53-10.08,6.4-23.33,16.43-23.85,2.42-.13,4.38.5,5.53,2.08l2.26-2.15.34-.02-3.95,24.84c-.13.8-.47,2.91.55,2.85,1.13-.06,3.41-2.78,5.45-5.88l.29.21ZM420.38,50.81c.13-.8.2-1.53.14-2.66-.18-3.38-1.27-5.98-4.71-5.8-7.15.38-13.08,12.32-12.59,21.73.24,4.51,1.89,6.96,4.54,6.82,4.67-.25,10.9-8.76,12.62-20.09Z"/>
  </g>
  <g>
    <g>
      <path class="cls-1" d="M50.31,194.6c-1.62.08-2.46-.53-2.53-1.85-.03-.51.14-1.15.51-1.93.36-.78.69-1.43.96-1.95l12.22-28.18c5.24-12.24,7.83-19.02,7.76-20.34-.07-1.42.6-2.16,2.01-2.24,1.92-.1,2.94.86,3.04,2.88.04.71-.34,2.25-1.13,4.62-.79,2.38-1.81,5.07-3.08,8.07-2.15,5.39-3.96,9.54-5.43,12.46,2.85-3.7,5.76-7.2,8.73-10.5,2.97-3.3,6-6.45,9.09-9.45,9.17-8.9,16.33-13.48,21.49-13.75,3.54-.19,5.4,1.39,5.57,4.73.16,3.03-2.06,10-6.67,20.89-4.6,10.99-6.82,17.91-6.67,20.74.07,1.32.56,1.95,1.47,1.9.3-.02.78-.17,1.42-.46.64-.29,1.32-.45,2.03-.49,1.72-.09,2.62.68,2.71,2.29.11,2.02-2.02,3.15-6.37,3.38-2.02.11-3.52-.3-4.48-1.21-.96-.91-1.48-2.18-1.57-3.8-.25-4.86,1.84-12.37,6.27-22.54,4.44-10.07,6.61-16.12,6.5-18.14-.06-1.21-.55-1.8-1.46-1.75-2.23.12-5.72,2.18-10.48,6.18-5.15,4.33-10.27,9.26-15.35,14.8-5.09,5.54-9.88,11.83-14.38,18.86l-9.85,15.27c-.56.94-1.35,1.44-2.36,1.49Z"/>
      <path class="cls-1" d="M50.03,195.1c-2.28,0-2.71-1.44-2.75-2.33-.03-.6.15-1.3.55-2.17.37-.79.69-1.44.97-1.97l12.2-28.14c6.46-15.09,7.76-19.27,7.72-20.11-.04-.84.15-1.51.57-1.98.43-.47,1.07-.74,1.91-.78,2.22-.12,3.45,1.04,3.57,3.36.04.78-.34,2.35-1.15,4.81-.78,2.36-1.82,5.09-3.09,8.11-1.31,3.28-2.5,6.13-3.57,8.52,1.99-2.46,4.01-4.83,6.04-7.09,2.97-3.3,6.03-6.49,9.11-9.48,9.35-9.07,16.48-13.62,21.81-13.9,3.8-.19,5.91,1.6,6.1,5.2.16,3.14-2.03,10.05-6.7,21.11-4.55,10.87-6.78,17.78-6.63,20.52.08,1.47.66,1.43.94,1.43.13,0,.48-.07,1.25-.41.7-.31,1.44-.49,2.2-.53,1.98-.11,3.13.88,3.23,2.77.12,2.34-2.18,3.66-6.84,3.9-2.16.12-3.79-.34-4.85-1.35-1.05-1-1.63-2.39-1.72-4.13-.26-4.91,1.87-12.57,6.31-22.77,4.39-9.95,6.56-15.98,6.46-17.91-.03-.49-.13-.85-.3-1.05-.09-.1-.25-.23-.64-.22-2.1.11-5.53,2.15-10.18,6.06-5.11,4.3-10.26,9.26-15.3,14.76-5.03,5.48-9.85,11.81-14.33,18.79l-9.85,15.27c-.64,1.08-1.57,1.66-2.75,1.72-.11,0-.21,0-.31,0ZM71.51,138.61c-.08,0-.16,0-.25,0-.57.03-.98.18-1.22.45-.24.27-.35.69-.32,1.26.05.9-.71,4-7.8,20.56l-12.22,28.18c-.29.55-.61,1.19-.97,1.96-.33.7-.48,1.27-.46,1.69.04.73.33,1.47,2.01,1.37h0c.84-.04,1.48-.45,1.95-1.25l9.86-15.29c4.5-7.03,9.36-13.4,14.43-18.93,5.07-5.53,10.25-10.52,15.4-14.85,4.89-4.11,8.42-6.17,10.77-6.29.78-.05,1.22.29,1.46.58.32.38.49.92.53,1.64.11,2.12-2.03,8.13-6.55,18.37-4.38,10.05-6.48,17.56-6.23,22.31.08,1.5.54,2.63,1.41,3.46.85.81,2.23,1.18,4.11,1.07,4-.21,5.98-1.17,5.89-2.85-.07-1.33-.75-1.89-2.18-1.82-.64.03-1.26.18-1.85.45-.72.32-1.22.48-1.6.5-.69.04-1.88-.22-2-2.37-.15-2.93,2.04-9.79,6.71-20.96,4.55-10.77,6.78-17.73,6.63-20.67-.16-3.08-1.76-4.43-5.05-4.26-5.01.26-12.13,4.84-21.17,13.61-3.06,2.98-6.11,6.15-9.07,9.43-2.95,3.27-5.88,6.8-8.71,10.47l-.84-.53c1.46-2.91,3.29-7.09,5.41-12.42,1.26-3,2.29-5.71,3.07-8.04.95-2.87,1.13-4,1.1-4.44-.09-1.66-.79-2.42-2.27-2.42Z"/>
    </g>
    <g>
      <path class="cls-1" d="M122.26,188.54c-5.87.31-8.95-2.32-9.24-7.88-.19-3.64.49-7.61,2.04-11.9,1.55-4.29,3.74-8.51,6.56-12.67,2.83-4.15,6.02-7.97,9.59-11.46,3.57-3.48,7.28-6.31,11.12-8.49,3.84-2.18,7.58-3.37,11.23-3.56,6.47-.34,9.88,2.68,10.21,9.05.22,4.15-.69,6.27-2.71,6.38-1.82.1-2.78-.71-2.87-2.44-.04-.71.1-1.45.42-2.23.31-.78.45-1.62.4-2.53-.15-2.83-2.15-4.15-5.99-3.95-6.17.32-13.66,5.43-22.48,15.33-2.1,2.44-4.14,5.29-6.09,8.54-1.96,3.25-3.54,6.5-4.74,9.76-1.2,3.26-1.72,6.3-1.58,9.13.14,2.73,1.73,4.02,4.77,3.86,2.63-.14,5.39-1.09,8.29-2.87,2.9-1.77,5.42-3.58,7.55-5.42,4.28-3.57,8.59-8.36,12.94-14.37.66-.85,1.52-1.96,2.56-3.33,1.04-1.37,2.23-2.91,3.56-4.6.48-.53,1.07-.82,1.78-.85,1.62-.08,2.47.68,2.56,2.3l-5.31,8.95c-3.55,5.87-5.23,10.62-5.03,14.26.14,2.63,1.47,3.88,4,3.75,2.12-.11,4.42-.79,6.89-2.04,2.47-1.24,4.49-2.46,6.05-3.66,3.12-2.29,6.37-5.13,9.75-8.5,3.37-3.37,6.59-6.76,9.66-10.17.38-.42.98-.66,1.79-.7,1.52-.08,2.31.49,2.37,1.7.06,1.12-.58,2.42-1.92,3.91-3.83,4.26-7.29,7.91-10.38,10.96-3.09,3.05-6.05,5.57-8.89,7.54-1.86,1.22-4.18,2.5-6.95,3.86-2.77,1.36-5.97,2.14-9.62,2.33-4.96.26-7.57-2.24-7.85-7.5-.11-2.02.06-3.71.5-5.05-8.74,9.28-17.06,14.13-24.95,14.54Z"/>
      <path class="cls-1" d="M121.37,189.07c-2.62,0-4.68-.63-6.15-1.88-1.64-1.4-2.55-3.59-2.7-6.5-.19-3.69.5-7.76,2.07-12.09,1.56-4.31,3.78-8.6,6.62-12.78,2.83-4.17,6.08-8.05,9.66-11.54,3.58-3.5,7.36-6.38,11.22-8.57,3.89-2.21,7.74-3.43,11.45-3.62,6.79-.35,10.39,2.85,10.74,9.52.11,2.17-.07,3.78-.55,4.93-.52,1.23-1.43,1.91-2.63,1.98-1.04.05-1.86-.17-2.43-.65-.58-.5-.91-1.25-.96-2.25-.04-.78.11-1.6.45-2.44.28-.7.41-1.48.36-2.32-.13-2.52-1.92-3.65-5.46-3.47-6,.32-13.45,5.42-22.13,15.16-2.07,2.41-4.1,5.25-6.04,8.46-1.93,3.21-3.51,6.46-4.69,9.67-1.17,3.18-1.69,6.19-1.55,8.94.13,2.46,1.49,3.52,4.24,3.39,2.53-.13,5.25-1.07,8.06-2.8,2.87-1.75,5.38-3.56,7.49-5.37,4.23-3.54,8.56-8.34,12.86-14.29.67-.86,1.53-1.97,2.57-3.34,1.04-1.37,2.23-2.91,3.57-4.6.59-.66,1.3-1,2.15-1.04.95-.05,1.69.17,2.21.64.53.47.82,1.19.87,2.13v.15s-5.38,9.08-5.38,9.08c-3.48,5.76-5.15,10.46-4.96,13.98.06,1.18.38,2.04.95,2.57.56.52,1.42.76,2.53.7,2.05-.11,4.3-.77,6.69-1.98,2.43-1.23,4.44-2.44,5.97-3.61,3.1-2.27,6.36-5.12,9.7-8.46,3.35-3.35,6.59-6.76,9.64-10.15.47-.53,1.19-.82,2.13-.87.87-.05,1.56.11,2.05.46.52.38.81.95.85,1.71.07,1.26-.6,2.66-2.05,4.27-3.81,4.23-7.31,7.93-10.4,10.99-3.09,3.06-6.11,5.62-8.95,7.6-1.87,1.22-4.22,2.53-7.01,3.9-2.82,1.39-6.12,2.19-9.81,2.38-2.62.14-4.65-.47-6.05-1.82-1.4-1.33-2.18-3.41-2.32-6.16-.07-1.27-.03-2.42.12-3.44-8.35,8.5-16.44,13.01-24.05,13.41h0c-.31.02-.62.02-.91.02ZM154.53,133.06c-.31,0-.62,0-.94.03-3.55.19-7.25,1.36-11,3.49-3.79,2.15-7.49,4.98-11.01,8.42-3.53,3.44-6.73,7.27-9.53,11.38-2.79,4.11-4.98,8.33-6.5,12.56-1.52,4.21-2.2,8.15-2.01,11.7.14,2.63.93,4.57,2.35,5.79,1.43,1.22,3.57,1.77,6.36,1.62h0c7.72-.4,16-5.25,24.61-14.39l1.53-1.63-.69,2.12c-.42,1.27-.57,2.91-.47,4.87.13,2.49.81,4.33,2.01,5.48,1.2,1.14,2.98,1.67,5.31,1.54,3.55-.19,6.72-.95,9.42-2.28,2.75-1.36,5.07-2.65,6.9-3.83,2.79-1.94,5.76-4.46,8.81-7.48,3.08-3.04,6.56-6.73,10.36-10.94,1.24-1.38,1.85-2.57,1.8-3.54-.02-.45-.17-.76-.43-.96-.3-.21-.78-.3-1.41-.27-.67.04-1.15.22-1.44.54-3.06,3.4-6.32,6.83-9.68,10.19-3.38,3.38-6.68,6.25-9.81,8.55-1.57,1.2-3.63,2.45-6.12,3.71-2.52,1.27-4.9,1.97-7.09,2.09-1.4.07-2.5-.25-3.27-.97-.76-.71-1.19-1.8-1.26-3.25-.2-3.73,1.52-8.62,5.11-14.55l5.23-8.81c-.05-.59-.23-1.03-.53-1.29-.32-.29-.82-.42-1.49-.38-.58.03-1.04.26-1.43.69-1.31,1.67-2.5,3.2-3.54,4.57-1.05,1.38-1.9,2.49-2.57,3.34-4.34,6-8.72,10.86-13.01,14.45-2.14,1.84-4.7,3.68-7.61,5.46-2.96,1.81-5.83,2.8-8.53,2.94-4.16.24-5.18-2.23-5.29-4.33-.15-2.89.39-6.03,1.61-9.33,1.2-3.27,2.81-6.58,4.78-9.84,1.96-3.25,4.03-6.15,6.14-8.6,8.87-9.96,16.55-15.17,22.83-15.5,5.16-.26,6.4,2.25,6.51,4.42.05.98-.1,1.9-.43,2.75-.29.71-.41,1.38-.38,2.01.04.71.24,1.23.61,1.54.38.32.96.45,1.73.42.82-.04,1.38-.48,1.76-1.37.42-.99.58-2.5.48-4.48-.3-5.78-3.17-8.6-8.75-8.6Z"/>
    </g>
    <g>
      <path class="cls-1" d="M193.42,184.81c-1.21.06-1.84-.36-1.89-1.27-1.77-2.75-2.88-8.52-3.34-17.32-.11-2.12-.11-4.96,0-8.52.12-3.56.33-7.27.63-11.14.3-3.87.68-7.41,1.12-10.63.44-3.22.97-5.55,1.61-7.01.54-1.25,1.27-1.89,2.18-1.94,1.62-.08,2.46.53,2.53,1.84.04.71-.03,1.4-.2,2.07-.17.67-.33,1.46-.48,2.38-1.05,5.13-1.81,10.54-2.27,16.25-.46,5.71-.54,11.54-.22,17.51.14,2.73.4,5.15.76,7.26.36,2.11.74,3.92,1.12,5.42,2.77-1.26,5.79-3.62,9.06-7.09,3.26-3.47,6.41-7.31,9.44-11.53,2.45-3.48,4.68-6.99,6.67-10.54,1.99-3.55,3.54-6.88,4.65-9.98,1.11-3.1,1.61-5.61,1.51-7.54-.07-1.31-.25-2.22-.52-2.71-.28-.49-.58-.88-.9-1.17-.32-.29-.5-.83-.54-1.64-.08-1.52.64-2.32,2.16-2.4,1.01-.05,1.96.66,2.85,2.13.89,1.48,1.39,3.38,1.52,5.7.38,7.18-4.1,17.51-13.44,30.98-9.63,13.59-17.64,20.55-24.01,20.89Z"/>
      <path class="cls-1" d="M193.19,185.32c-1.68,0-2.08-.94-2.15-1.61-1.79-2.88-2.89-8.6-3.35-17.46-.11-2.13-.11-5.01,0-8.56.12-3.57.33-7.32.63-11.16.3-3.86.68-7.44,1.12-10.66.45-3.29.99-5.63,1.65-7.14.62-1.43,1.5-2.18,2.61-2.24.92-.05,1.65.12,2.17.49.55.4.85,1.01.89,1.82.04.76-.03,1.5-.21,2.21-.17.66-.33,1.44-.48,2.34-1.05,5.11-1.81,10.56-2.26,16.21-.46,5.66-.53,11.53-.22,17.44.14,2.7.4,5.13.75,7.21.31,1.8.63,3.41.97,4.79,2.56-1.29,5.37-3.54,8.36-6.72,3.23-3.43,6.39-7.29,9.4-11.47,2.43-3.44,4.67-6.97,6.65-10.5,1.97-3.51,3.52-6.84,4.61-9.9,1.08-3.03,1.58-5.5,1.48-7.34-.08-1.53-.29-2.2-.46-2.49-.25-.44-.52-.8-.8-1.04-.43-.38-.66-1.04-.71-1.99-.05-.89.16-1.6.61-2.1.45-.5,1.13-.78,2.02-.82,1.22-.09,2.32.73,3.3,2.37.93,1.54,1.46,3.54,1.59,5.93.38,7.26-4.17,17.79-13.53,31.29-9.82,13.85-17.8,20.75-24.39,21.1h0c-.09,0-.17,0-.25,0ZM194.02,127.47c-.08,0-.17,0-.26,0-.71.04-1.28.57-1.75,1.64-.61,1.41-1.14,3.72-1.57,6.88-.44,3.2-.81,6.77-1.12,10.6-.3,3.83-.51,7.57-.63,11.12-.12,3.52-.12,6.38-.01,8.48.45,8.67,1.55,14.42,3.26,17.08l.07.11v.13c.02.3.03.87,1.37.8h0c6.18-.32,14.13-7.28,23.63-20.68,9.22-13.31,13.72-23.63,13.35-30.67-.12-2.23-.6-4.07-1.45-5.47-.78-1.3-1.59-1.91-2.4-1.89-.62.03-1.07.2-1.33.49-.27.29-.38.76-.35,1.38.05.88.26,1.19.38,1.3.36.32.69.76,1,1.29.32.57.51,1.53.59,2.93.1,1.98-.41,4.58-1.54,7.73-1.11,3.12-2.69,6.5-4.68,10.06-2,3.55-4.25,7.12-6.7,10.59-3.03,4.22-6.22,8.12-9.48,11.58-3.3,3.5-6.4,5.92-9.22,7.21l-.54.25-.15-.58c-.39-1.52-.77-3.36-1.13-5.46-.37-2.12-.62-4.58-.77-7.32-.31-5.96-.24-11.87.22-17.57.46-5.69,1.23-11.18,2.28-16.31.15-.91.32-1.72.49-2.4.15-.61.21-1.26.18-1.92-.03-.5-.18-.85-.48-1.07-.28-.21-.71-.31-1.26-.31Z"/>
    </g>
    <g>
      <path class="cls-1" d="M240.46,182.5c-2.83.15-4.91-.3-6.23-1.35-1.32-1.04-2.04-2.68-2.16-4.91-.11-2.12.39-5.07,1.51-8.83,1.12-3.76,2.61-7.82,4.46-12.18,1.85-4.36,3.84-8.52,5.96-12.48,2.12-3.96,4.21-7.24,6.25-9.84,2.04-2.59,3.72-3.92,5.04-3.99,1.82-.1,2.77.67,2.86,2.29.05,1.01-.71,2.98-2.28,5.9-1.57,2.92-3.29,5.95-5.15,9.09-.75,1.16-1.78,2.73-3.1,4.73s-2.59,3.86-3.81,5.6c-1.23,1.74-2.03,2.92-2.4,3.55-.93,1.57-1.87,4.11-2.8,7.6-1.03,3.5-1.5,6.17-1.41,7.99.04.81.25,1.41.63,1.79.37.39,1.22.54,2.54.47,2.53-.13,5.32-1.09,8.37-2.87,3.05-1.78,6.13-4,9.24-6.65,3.11-2.65,6.03-5.36,8.78-8.14,2.75-2.78,5.08-5.18,7-7.21.38-.42.98-.66,1.79-.7,1.52-.08,2.31.49,2.37,1.7.06,1.11-.58,2.42-1.93,3.9-2.59,2.87-4.99,5.43-7.21,7.68-2.22,2.25-4.34,4.24-6.38,5.96-3.21,2.6-6.79,5.02-10.73,7.26-3.94,2.23-7.68,3.44-11.22,3.63ZM263.04,119.7c-1.72.09-2.62-.72-2.71-2.44-.03-.5.28-1.46.92-2.86.63-1.4,1.37-2.83,2.21-4.3.84-1.46,1.49-2.46,1.97-2.99,1.62-2.01,2.89-3.29,3.83-3.85.93-.55,1.8-.85,2.62-.9,2.12-.11,3.24.8,3.34,2.72.04.71-.35,1.57-1.16,2.57-.81,1.01-1.75,1.94-2.82,2.81-1.57,1.1-2.54,1.96-2.91,2.59l-3.09,4.88c-.08.41-.29.8-.62,1.17-.34.38-.86.58-1.57.61Z"/>
      <path class="cls-1" d="M239.46,183.03c-2.44,0-4.3-.5-5.54-1.48-1.43-1.13-2.22-2.91-2.35-5.27-.11-2.17.4-5.2,1.53-9,1.12-3.75,2.62-7.87,4.48-12.23,1.84-4.34,3.86-8.56,5.98-12.53,2.13-3.97,4.25-7.3,6.3-9.91,2.16-2.74,3.93-4.11,5.41-4.18,1.03-.06,1.85.15,2.42.61.59.47.92,1.2.96,2.15.06,1.11-.71,3.13-2.34,6.16-1.57,2.92-3.31,5.99-5.16,9.11-.76,1.17-1.8,2.75-3.11,4.75-1.27,1.93-2.56,3.82-3.82,5.61-1.22,1.72-2.02,2.91-2.38,3.51-.91,1.53-1.83,4.04-2.74,7.48-1.02,3.45-1.48,6.08-1.39,7.83.04.68.2,1.18.49,1.47.12.13.57.41,2.15.33,2.44-.13,5.18-1.07,8.14-2.8,3.01-1.76,6.09-3.98,9.17-6.6,3.08-2.62,6.03-5.36,8.75-8.11,2.66-2.69,5.01-5.11,7-7.2.46-.52,1.18-.81,2.12-.86.86-.05,1.56.11,2.05.46.52.38.81.95.85,1.72.07,1.26-.61,2.66-2.05,4.27-2.58,2.86-5.01,5.45-7.22,7.7-2.22,2.25-4.38,4.27-6.41,6-3.23,2.61-6.86,5.07-10.8,7.31-3.99,2.26-7.84,3.51-11.44,3.69h0c-.35.02-.7.03-1.03.03ZM255.6,129.42c-.09,0-.18,0-.27,0-.8.04-2.25.74-4.67,3.8-2.02,2.56-4.11,5.84-6.21,9.76-2.11,3.94-4.11,8.13-5.95,12.44-1.84,4.33-3.33,8.41-4.44,12.13-1.1,3.69-1.6,6.6-1.5,8.66.11,2.07.77,3.59,1.97,4.54,1.22.96,3.2,1.38,5.9,1.24h0c3.44-.18,7.15-1.38,11-3.57,3.9-2.21,7.48-4.64,10.66-7.21,2-1.7,4.14-3.69,6.34-5.93,2.2-2.24,4.62-4.81,7.19-7.67,1.24-1.38,1.85-2.57,1.8-3.54-.02-.45-.17-.76-.43-.96-.3-.21-.78-.3-1.41-.27-.67.04-1.15.22-1.44.54-2,2.11-4.36,4.54-7.02,7.23-2.74,2.78-5.71,5.53-8.81,8.17-3.12,2.66-6.25,4.91-9.31,6.7-3.11,1.82-6,2.8-8.59,2.94-1.5.08-2.43-.12-2.92-.63-.46-.47-.72-1.18-.77-2.11-.1-1.89.37-4.56,1.43-8.15.93-3.51,1.89-6.11,2.85-7.72.38-.64,1.17-1.81,2.42-3.58,1.26-1.79,2.54-3.67,3.8-5.59,1.32-1.99,2.35-3.57,3.1-4.72,1.84-3.1,3.57-6.15,5.13-9.06,1.89-3.52,2.25-5.01,2.22-5.64-.04-.67-.23-1.13-.59-1.42-.33-.26-.83-.4-1.47-.4ZM262.8,120.2c-1.82,0-2.87-1.03-2.97-2.92-.02-.38.06-1.12.96-3.1.62-1.38,1.38-2.84,2.23-4.34.87-1.51,1.53-2.52,2.04-3.08,1.65-2.05,2.95-3.35,3.95-3.95,1-.6,1.96-.92,2.85-.97,3.02-.17,3.78,1.65,3.86,3.19.04.84-.37,1.79-1.27,2.91-.82,1.02-1.8,2-2.89,2.89-1.9,1.33-2.56,2.07-2.79,2.45l-3.05,4.82c-.11.46-.35.91-.72,1.32-.43.47-1.07.73-1.91.78h0c-.09,0-.18,0-.27,0ZM272.22,102.84c-.11,0-.22,0-.33,0-.72.04-1.52.32-2.39.83-.88.53-2.12,1.78-3.7,3.74-.47.52-1.11,1.5-1.93,2.93-.84,1.47-1.57,2.9-2.19,4.26-.79,1.73-.88,2.39-.87,2.63.08,1.44.77,2.04,2.19,1.97h0c.58-.03.98-.18,1.22-.45.27-.3.44-.62.5-.94l.07-.17,3.09-4.88c.4-.68,1.4-1.58,3.04-2.73,1.01-.83,1.94-1.75,2.72-2.72.73-.9,1.08-1.65,1.05-2.23-.08-1.55-.85-2.25-2.48-2.25Z"/>
    </g>
    <g>
      <path class="cls-1" d="M320.29,190.18c-.81.04-1.82-.29-3.02-.98-1.2-.7-2.13-1.39-2.77-2.06-1.29-1.45-2.2-3.23-2.71-5.33-.52-2.1-.84-4.42-.97-6.95-.11-2.12-.16-4.43-.13-6.92.02-2.49.16-5.16.42-8.01-2.47,3.17-5.28,6.29-8.41,9.34-3.14,3.06-6.35,5.58-9.64,7.58-3.29,2-6.46,3.08-9.49,3.24-7.59.4-11.59-3.45-12.02-11.54-.44-8.39,2.07-16.64,7.53-24.74,2.73-4,5.88-7.86,9.43-11.6,3.56-3.74,7.35-6.83,11.38-9.27,4.03-2.44,8.07-3.77,12.12-3.98,3.03-.16,5.77.86,8.22,3.07.18-.41.42-1.09.73-2.02.31-.93.78-2.12,1.41-3.57,2.15-5.39,4.54-11.01,7.18-16.88,2.63-5.87,5.01-10.74,7.15-14.6,2.41-4.29,4.78-6.49,7.11-6.61,1.62-.08,2.49,1.14,2.63,3.67.23,4.35-3.34,14.73-10.69,31.14-.46.94-1.26,2.63-2.4,5.07-1.14,2.45-2.46,5.25-3.97,8.42-1.51,3.17-3.04,6.32-4.6,9.45-1.56,3.12-2.96,5.91-4.2,8.36-1.24,2.45-2.14,4.14-2.7,5.09-.88,4.61-1.51,8.98-1.9,13.11-.39,4.13-.47,8.37-.25,12.72.08,1.62.24,3.11.46,4.46.22,1.36.66,2.42,1.31,3.2.54.58,1.12,1.03,1.74,1.35.62.32,1.35.61,2.17.87,1.23.24,1.88.92,1.93,2.03.1,1.82-.92,2.79-3.04,2.9ZM282.25,175.59c2.93-.15,5.99-1.3,9.18-3.45,3.18-2.14,6.17-4.66,8.96-7.54,2.5-2.57,4.8-5.2,6.89-7.89,2.09-2.7,4.02-5.46,5.8-8.29.62-3.58,1.38-7.12,2.26-10.62.88-3.49,1.89-7,3.03-10.5-1.75-2.44-4.09-3.59-7.03-3.44-3.04.16-6.34,1.47-9.91,3.94-3.58,2.47-6.97,5.46-10.18,8.98-3.22,3.52-5.96,6.85-8.22,10.02-4.7,7.04-6.86,14.36-6.46,21.94.25,4.75,2.14,7.04,5.68,6.85ZM324.09,126.39c3.5-6.78,6.56-13.1,9.2-18.97,2.63-5.87,4.73-11.38,6.28-16.53-3.77,5.47-6.87,11.21-9.29,17.22-2.42,6.01-4.49,12.1-6.19,18.28Z"/>
      <path class="cls-1" d="M320.14,190.69c-.88,0-1.91-.35-3.13-1.05-1.23-.71-2.2-1.44-2.88-2.15-1.36-1.53-2.31-3.39-2.84-5.56-.52-2.12-.85-4.49-.99-7.04-.11-2.11-.16-4.45-.13-6.95.02-2.02.11-4.17.28-6.41-2.22,2.74-4.72,5.46-7.43,8.1-3.15,3.07-6.42,5.64-9.73,7.65-3.35,2.03-6.62,3.15-9.72,3.31-7.87.43-12.1-3.63-12.54-12.01-.44-8.47,2.12-16.89,7.61-25.04,2.73-4,5.92-7.92,9.49-11.67,3.57-3.75,7.44-6.9,11.49-9.35,4.08-2.47,8.24-3.84,12.35-4.05,2.94-.17,5.64.76,8.04,2.73.13-.36.29-.81.46-1.34.31-.94.78-2.12,1.43-3.62,2.14-5.36,4.56-11.05,7.18-16.89,2.62-5.85,5.04-10.78,7.16-14.64,2.53-4.49,4.99-6.74,7.52-6.87.96-.05,1.77.32,2.3,1.06.5.7.78,1.7.85,3.08.24,4.47-3.28,14.73-10.73,31.37-.46.95-1.26,2.64-2.4,5.08-1.14,2.45-2.46,5.25-3.97,8.43-1.48,3.11-3.03,6.3-4.61,9.46-1.56,3.13-2.96,5.92-4.2,8.36-1.2,2.37-2.1,4.07-2.67,5.04-.86,4.53-1.49,8.89-1.88,12.98-.39,4.09-.47,8.35-.25,12.64.08,1.59.24,3.08.46,4.41.21,1.26.61,2.26,1.2,2.96.48.51,1.02.93,1.59,1.23.6.31,1.31.59,2.1.84,1.79.35,2.23,1.54,2.28,2.48.06,1.06-.23,1.89-.84,2.48-.59.57-1.49.88-2.67.94h0c-.06,0-.11,0-.17,0ZM311.75,158.28l-.15,1.69c-.25,2.8-.39,5.48-.42,7.97-.02,2.48.02,4.79.13,6.88.13,2.49.45,4.8.96,6.85.49,2.01,1.37,3.73,2.6,5.12.6.63,1.5,1.29,2.65,1.96,1.11.64,2.03.96,2.74.92h0c.93-.05,1.62-.27,2.04-.67.4-.38.58-.94.54-1.7-.05-.88-.52-1.37-1.53-1.57-.89-.28-1.65-.58-2.31-.92-.68-.35-1.31-.84-1.88-1.46-.72-.86-1.2-2.02-1.44-3.46-.23-1.37-.38-2.89-.47-4.52-.23-4.35-.14-8.65.25-12.79.39-4.14,1.04-8.57,1.91-13.15l.06-.16c.56-.94,1.46-2.64,2.68-5.06,1.24-2.45,2.64-5.23,4.2-8.36,1.57-3.15,3.12-6.33,4.6-9.44,1.51-3.17,2.83-5.98,3.97-8.42,1.14-2.44,1.94-4.14,2.4-5.08,7.28-16.25,10.86-26.65,10.64-30.9-.06-1.16-.28-2.02-.66-2.55-.34-.47-.79-.67-1.44-.65-2.13.11-4.39,2.25-6.7,6.36-2.11,3.83-4.51,8.73-7.12,14.56-2.62,5.82-5.03,11.5-7.17,16.87-.63,1.46-1.1,2.64-1.4,3.54-.31.94-.56,1.63-.75,2.06l-.28.64-.52-.46c-2.34-2.1-4.98-3.08-7.86-2.94-3.94.21-7.94,1.52-11.88,3.91-3.97,2.41-7.77,5.5-11.28,9.19-3.53,3.71-6.68,7.59-9.38,11.54-5.37,7.96-7.87,16.18-7.44,24.43.41,7.83,4.16,11.44,11.49,11.07,2.94-.15,6.05-1.22,9.26-3.17,3.25-1.97,6.46-4.5,9.56-7.51,3.11-3.03,5.92-6.15,8.37-9.29l1.05-1.34ZM281.85,176.1c-1.73,0-3.1-.59-4.07-1.77-1.01-1.22-1.59-3.09-1.72-5.57-.4-7.66,1.8-15.15,6.54-22.25,2.28-3.18,5.06-6.57,8.27-10.08,3.22-3.53,6.68-6.57,10.26-9.05,3.63-2.51,7.05-3.87,10.17-4.03,3.12-.16,5.61,1.06,7.46,3.64l.15.21-.08.24c-1.12,3.45-2.13,6.98-3.02,10.47-.88,3.48-1.63,7.04-2.25,10.58l-.07.18c-1.77,2.82-3.73,5.62-5.83,8.33-2.09,2.7-4.42,5.37-6.93,7.94-2.81,2.9-5.85,5.46-9.04,7.61-3.25,2.19-6.42,3.37-9.43,3.53h0c-.14,0-.28.01-.42.01ZM311.86,124.35c-.16,0-.33,0-.5.01-2.93.15-6.18,1.45-9.65,3.85-3.53,2.44-6.92,5.43-10.09,8.9-3.18,3.48-5.94,6.84-8.19,9.97-4.61,6.9-6.75,14.18-6.36,21.63.12,2.26.62,3.93,1.49,4.99.85,1.02,2.04,1.49,3.67,1.39h0c2.83-.15,5.83-1.28,8.92-3.36,3.13-2.11,6.12-4.62,8.88-7.48,2.48-2.54,4.79-5.19,6.85-7.85,2.06-2.66,3.98-5.41,5.72-8.17.62-3.53,1.37-7.08,2.25-10.55.87-3.43,1.86-6.9,2.96-10.29-1.54-2.04-3.49-3.04-5.95-3.04ZM324.54,126.61l-.93-.36c1.7-6.14,3.78-12.31,6.21-18.33,2.43-6.01,5.57-11.84,9.34-17.32l.89.43c-1.55,5.15-3.67,10.73-6.31,16.59-2.64,5.87-5.74,12.26-9.21,18.99ZM337.99,94.19c-2.86,4.52-5.29,9.25-7.24,14.1-1.73,4.3-3.3,8.68-4.66,13.07,2.49-4.96,4.75-9.71,6.75-14.15,2.03-4.53,3.76-8.9,5.15-13.02Z"/>
    </g>
    <g>
      <path class="cls-1" d="M340.6,177.1c-5.87.31-8.95-2.32-9.24-7.88-.19-3.64.49-7.61,2.04-11.9,1.55-4.29,3.74-8.51,6.56-12.67,2.83-4.15,6.02-7.97,9.59-11.46,3.57-3.48,7.28-6.31,11.12-8.49,3.84-2.18,7.58-3.36,11.23-3.55,6.47-.34,9.88,2.68,10.21,9.05.22,4.15-.69,6.27-2.71,6.38-1.82.1-2.78-.71-2.87-2.44-.04-.71.1-1.45.42-2.23.31-.78.45-1.62.4-2.53-.15-2.83-2.15-4.15-5.99-3.95-6.17.32-13.66,5.43-22.48,15.33-2.1,2.44-4.13,5.29-6.09,8.54-1.96,3.25-3.54,6.5-4.74,9.76-1.2,3.26-1.72,6.3-1.58,9.14.14,2.73,1.73,4.02,4.77,3.86,2.63-.14,5.39-1.09,8.29-2.87,2.9-1.77,5.42-3.58,7.55-5.42,4.27-3.57,8.59-8.36,12.94-14.37.66-.85,1.52-1.96,2.57-3.33,1.04-1.37,2.23-2.91,3.56-4.6.48-.53,1.07-.82,1.78-.85,1.62-.08,2.47.68,2.55,2.3l-5.31,8.95c-3.55,5.87-5.22,10.62-5.03,14.26.14,2.63,1.47,3.88,4,3.75,2.12-.11,4.42-.79,6.89-2.04,2.47-1.24,4.49-2.46,6.05-3.66,3.12-2.29,6.37-5.12,9.75-8.5,3.37-3.37,6.59-6.76,9.66-10.17.38-.42.98-.66,1.79-.7,1.52-.08,2.31.49,2.37,1.7.06,1.11-.58,2.42-1.92,3.91-3.83,4.26-7.29,7.91-10.38,10.97-3.09,3.05-6.05,5.57-8.89,7.54-1.87,1.22-4.18,2.5-6.95,3.86-2.77,1.36-5.97,2.14-9.62,2.33-4.96.26-7.57-2.24-7.85-7.5-.11-2.02.06-3.7.5-5.05-8.74,9.28-17.06,14.13-24.95,14.54Z"/>
      <path class="cls-1" d="M339.71,177.62c-2.62,0-4.68-.63-6.15-1.88-1.64-1.4-2.55-3.59-2.7-6.5-.19-3.69.5-7.76,2.07-12.09,1.55-4.3,3.78-8.6,6.62-12.78,2.84-4.17,6.09-8.05,9.66-11.54,3.58-3.5,7.36-6.38,11.22-8.57,3.89-2.21,7.74-3.43,11.45-3.62,3.36-.18,5.97.54,7.77,2.13,1.8,1.59,2.8,4.08,2.97,7.39.11,2.17-.07,3.78-.55,4.93-.52,1.23-1.43,1.92-2.63,1.98-1.04.06-1.86-.17-2.43-.65-.58-.5-.91-1.25-.96-2.25-.04-.78.11-1.6.45-2.44.29-.71.41-1.49.37-2.32-.13-2.52-1.94-3.66-5.46-3.47-6,.32-13.45,5.42-22.13,15.16-2.07,2.41-4.11,5.26-6.04,8.46-1.94,3.21-3.52,6.46-4.7,9.67-1.17,3.18-1.69,6.19-1.55,8.94.13,2.46,1.48,3.52,4.24,3.39,2.53-.13,5.25-1.07,8.06-2.8,2.86-1.75,5.38-3.56,7.49-5.37,4.23-3.54,8.56-8.34,12.86-14.29.67-.86,1.53-1.97,2.57-3.34,1.04-1.37,2.23-2.91,3.57-4.6.59-.66,1.31-1,2.15-1.04.94-.05,1.69.17,2.21.64.53.47.82,1.19.87,2.13v.15s-5.38,9.08-5.38,9.08c-3.48,5.75-5.15,10.46-4.96,13.98.06,1.18.38,2.04.95,2.57.56.52,1.42.77,2.53.7,2.05-.11,4.3-.77,6.69-1.98,2.43-1.22,4.44-2.44,5.97-3.61,3.1-2.27,6.36-5.12,9.7-8.46,3.36-3.36,6.6-6.77,9.64-10.15.47-.53,1.19-.82,2.14-.87.86-.06,1.56.11,2.05.46.52.38.81.95.85,1.71.07,1.26-.6,2.66-2.05,4.27-3.8,4.23-7.3,7.92-10.4,10.99-3.1,3.07-6.11,5.62-8.95,7.59-1.87,1.22-4.22,2.53-7.01,3.9-2.82,1.39-6.12,2.19-9.81,2.38-2.61.14-4.65-.47-6.05-1.82-1.4-1.33-2.18-3.41-2.32-6.16-.07-1.27-.03-2.42.12-3.44-8.35,8.5-16.44,13.01-24.04,13.41h0c-.31.02-.62.02-.91.02ZM372.84,121.62c-.3,0-.61,0-.92.02-3.55.19-7.25,1.36-11,3.49-3.79,2.15-7.49,4.98-11.01,8.42-3.53,3.44-6.73,7.27-9.53,11.38-2.79,4.11-4.98,8.34-6.5,12.56-1.52,4.21-2.2,8.15-2.01,11.7.14,2.63.93,4.57,2.35,5.79,1.43,1.22,3.57,1.76,6.36,1.62h0c7.72-.41,16-5.25,24.61-14.39l1.53-1.63-.69,2.13c-.42,1.27-.58,2.91-.47,4.86.13,2.49.81,4.33,2.01,5.49,1.2,1.14,2.99,1.67,5.31,1.54,3.55-.19,6.72-.95,9.42-2.28,2.75-1.36,5.07-2.65,6.9-3.83,2.78-1.93,5.75-4.45,8.81-7.48,3.08-3.05,6.57-6.73,10.36-10.95,1.24-1.38,1.85-2.57,1.8-3.54-.02-.45-.17-.76-.43-.96-.3-.21-.78-.31-1.41-.27-.67.04-1.15.22-1.45.54-3.05,3.39-6.31,6.82-9.68,10.19-3.38,3.38-6.68,6.25-9.8,8.55-1.57,1.21-3.63,2.46-6.12,3.71-2.52,1.27-4.9,1.97-7.09,2.09-1.39.08-2.5-.25-3.26-.97-.76-.71-1.19-1.81-1.26-3.25-.2-3.73,1.52-8.62,5.1-14.55l5.23-8.81c-.05-.59-.23-1.03-.53-1.3-.32-.29-.83-.42-1.49-.38-.58.03-1.04.26-1.44.69-1.31,1.66-2.49,3.2-3.54,4.57-1.05,1.38-1.9,2.49-2.57,3.34-4.34,6-8.72,10.86-13.01,14.45-2.14,1.84-4.7,3.68-7.61,5.46-2.96,1.81-5.83,2.8-8.53,2.94-4.18.22-5.18-2.24-5.29-4.33-.15-2.89.39-6.03,1.61-9.33,1.2-3.27,2.81-6.58,4.78-9.84,1.96-3.25,4.03-6.14,6.14-8.6,8.87-9.96,16.55-15.17,22.83-15.5,5.18-.27,6.4,2.25,6.51,4.42.05.98-.1,1.9-.44,2.74-.29.71-.41,1.38-.38,2.02.04.71.24,1.23.61,1.54.38.32.96.45,1.73.42.82-.04,1.38-.48,1.76-1.37.42-.99.58-2.5.48-4.48-.16-3.03-1.05-5.29-2.64-6.69-1.43-1.27-3.49-1.91-6.13-1.91Z"/>
    </g>
    <g>
      <path class="cls-1" d="M452.59,183.25c-.81.04-1.82-.29-3.02-.98-1.2-.7-2.13-1.39-2.77-2.06-1.29-1.45-2.2-3.23-2.71-5.33-.52-2.1-.84-4.42-.97-6.95-.11-2.12-.16-4.43-.13-6.92.02-2.48.16-5.16.42-8.01-2.47,3.17-5.28,6.29-8.41,9.34-3.14,3.06-6.35,5.58-9.64,7.58-3.29,2-6.46,3.08-9.49,3.24-7.59.4-11.59-3.45-12.02-11.54-.44-8.39,2.07-16.64,7.53-24.74,2.73-4,5.88-7.86,9.43-11.6,3.56-3.74,7.35-6.83,11.38-9.27,4.03-2.44,8.07-3.77,12.12-3.98,3.03-.16,5.77.86,8.22,3.07.18-.41.42-1.09.73-2.02.31-.93.78-2.12,1.41-3.57,2.15-5.39,4.54-11.01,7.18-16.88,2.63-5.87,5.01-10.74,7.15-14.6,2.41-4.29,4.78-6.49,7.11-6.61,1.62-.08,2.49,1.14,2.63,3.67.23,4.35-3.34,14.73-10.69,31.14-.46.94-1.26,2.63-2.4,5.07-1.14,2.45-2.46,5.25-3.97,8.42-1.51,3.17-3.04,6.32-4.6,9.45-1.56,3.12-2.96,5.91-4.2,8.36-1.24,2.45-2.14,4.14-2.7,5.09-.88,4.61-1.51,8.98-1.9,13.11-.39,4.13-.47,8.37-.25,12.72.08,1.62.24,3.11.46,4.46s.66,2.42,1.31,3.2c.54.58,1.12,1.03,1.74,1.35.63.32,1.35.61,2.18.87,1.23.24,1.88.92,1.93,2.03.1,1.82-.92,2.79-3.04,2.9ZM414.55,168.66c2.93-.15,5.99-1.3,9.18-3.45,3.18-2.14,6.17-4.66,8.96-7.54,2.5-2.57,4.8-5.2,6.89-7.89,2.09-2.7,4.02-5.46,5.8-8.29.62-3.58,1.38-7.12,2.26-10.62.88-3.49,1.89-7,3.03-10.5-1.75-2.44-4.09-3.59-7.03-3.44-3.04.16-6.34,1.47-9.91,3.94-3.57,2.47-6.97,5.46-10.18,8.98-3.22,3.52-5.96,6.85-8.22,10.02-4.7,7.04-6.85,14.36-6.46,21.94.25,4.75,2.14,7.04,5.68,6.85ZM456.4,119.45c3.5-6.78,6.56-13.1,9.2-18.97,2.63-5.87,4.73-11.38,6.28-16.53-3.77,5.47-6.87,11.21-9.29,17.22-2.42,6.01-4.49,12.1-6.19,18.28Z"/>
      <path class="cls-1" d="M452.45,183.75c-.88,0-1.91-.35-3.13-1.05-1.23-.72-2.2-1.44-2.88-2.15-1.36-1.53-2.31-3.39-2.84-5.56-.52-2.11-.85-4.48-.99-7.04-.11-2.11-.16-4.45-.13-6.95.02-2.02.11-4.16.28-6.41-2.22,2.74-4.72,5.46-7.43,8.1-3.15,3.07-6.42,5.64-9.73,7.65-3.35,2.03-6.62,3.15-9.72,3.31-7.88.42-12.1-3.63-12.54-12.01-.44-8.47,2.12-16.89,7.61-25.04,2.74-4,5.93-7.92,9.49-11.67,3.57-3.75,7.43-6.9,11.49-9.35,4.08-2.47,8.24-3.84,12.35-4.05,2.94-.17,5.64.76,8.04,2.73.13-.36.29-.81.46-1.34.31-.94.78-2.12,1.43-3.62,2.15-5.39,4.57-11.07,7.18-16.89,2.63-5.86,5.04-10.79,7.17-14.64,2.53-4.49,4.99-6.74,7.52-6.87.96-.05,1.77.32,2.3,1.06.5.7.78,1.7.85,3.08.24,4.47-3.28,14.73-10.73,31.37-.46.95-1.26,2.64-2.4,5.08-1.14,2.45-2.46,5.25-3.97,8.43-1.49,3.13-3.04,6.32-4.61,9.46-1.56,3.13-2.96,5.92-4.2,8.36-1.21,2.38-2.1,4.07-2.67,5.04-.86,4.53-1.49,8.89-1.88,12.98-.39,4.09-.47,8.34-.25,12.64.08,1.59.24,3.08.46,4.41.21,1.26.61,2.26,1.2,2.96.47.51,1.02.93,1.59,1.23.61.31,1.31.59,2.1.84,1.79.35,2.23,1.54,2.28,2.48.06,1.06-.23,1.89-.84,2.48-.59.57-1.49.88-2.67.94h0c-.06,0-.11,0-.17,0ZM444.05,151.35l-.15,1.69c-.25,2.81-.39,5.49-.42,7.97-.02,2.48.02,4.79.13,6.88.13,2.49.45,4.8.96,6.85.49,2.01,1.37,3.73,2.6,5.12.6.63,1.5,1.29,2.65,1.96,1.11.64,2.03.96,2.74.92h0c.93-.05,1.62-.27,2.04-.67.4-.38.58-.94.54-1.7-.05-.88-.52-1.37-1.53-1.57-.89-.28-1.65-.58-2.31-.92-.68-.35-1.31-.84-1.88-1.46-.72-.87-1.2-2.02-1.44-3.46-.23-1.37-.38-2.89-.47-4.52-.23-4.35-.14-8.66.25-12.79.39-4.14,1.04-8.57,1.91-13.15l.06-.16c.55-.93,1.46-2.64,2.68-5.06,1.24-2.45,2.64-5.23,4.2-8.36,1.56-3.13,3.11-6.31,4.6-9.44,1.51-3.17,2.83-5.98,3.97-8.42,1.14-2.44,1.94-4.14,2.4-5.08,7.28-16.25,10.86-26.65,10.64-30.9-.06-1.16-.28-2.02-.66-2.55-.34-.47-.79-.67-1.44-.65-2.13.11-4.39,2.25-6.7,6.36-2.11,3.82-4.51,8.72-7.13,14.56-2.61,5.8-5.02,11.48-7.17,16.86-.63,1.46-1.1,2.64-1.4,3.54-.31.94-.56,1.63-.75,2.06l-.28.64-.52-.46c-2.34-2.1-4.98-3.08-7.86-2.94-3.94.21-7.94,1.52-11.88,3.91-3.98,2.41-7.77,5.5-11.28,9.19-3.52,3.7-6.68,7.58-9.38,11.54-5.37,7.96-7.87,16.18-7.44,24.43.41,7.83,4.16,11.45,11.49,11.07,2.94-.15,6.05-1.22,9.26-3.17,3.25-1.97,6.46-4.5,9.56-7.51,3.11-3.03,5.92-6.15,8.37-9.29l1.04-1.34ZM414.15,169.17c-3.58,0-5.52-2.47-5.78-7.34-.4-7.66,1.8-15.15,6.54-22.25,2.28-3.18,5.06-6.57,8.27-10.08,3.22-3.53,6.68-6.57,10.26-9.05,3.63-2.51,7.05-3.87,10.17-4.03,3.1-.16,5.61,1.06,7.46,3.64l.15.21-.08.24c-1.12,3.45-2.13,6.98-3.02,10.47-.88,3.48-1.63,7.04-2.25,10.58l-.07.18c-1.77,2.82-3.73,5.62-5.83,8.33-2.1,2.7-4.43,5.37-6.93,7.94-2.81,2.9-5.85,5.46-9.04,7.61-3.25,2.19-6.42,3.37-9.43,3.53h0c-.15,0-.29.01-.43.01ZM444.16,117.41c-.16,0-.33,0-.5.01-2.93.15-6.18,1.45-9.65,3.85-3.53,2.44-6.92,5.43-10.09,8.9-3.18,3.48-5.94,6.84-8.19,9.97-4.61,6.9-6.75,14.18-6.36,21.63.23,4.46,1.92,6.54,5.16,6.38h0c2.83-.15,5.83-1.28,8.92-3.36,3.13-2.11,6.12-4.63,8.88-7.48,2.48-2.54,4.78-5.18,6.85-7.85,2.06-2.66,3.98-5.41,5.72-8.17.62-3.53,1.37-7.08,2.25-10.55.87-3.43,1.86-6.9,2.96-10.29-1.54-2.04-3.49-3.04-5.95-3.04ZM456.85,119.68l-.93-.36c1.7-6.14,3.78-12.31,6.21-18.33,2.43-6.01,5.57-11.84,9.34-17.32l.89.43c-1.55,5.14-3.67,10.72-6.31,16.59-2.64,5.87-5.74,12.26-9.21,18.99ZM470.3,87.26c-2.86,4.52-5.29,9.25-7.24,14.1-1.73,4.3-3.3,8.68-4.66,13.07,2.49-4.96,4.75-9.71,6.75-14.15,2.04-4.54,3.76-8.9,5.16-13.02Z"/>
    </g>
  </g>
</svg>