<?xml version="1.0" encoding="UTF-8"?>
<svg id="DISEÑO" xmlns="http://www.w3.org/2000/svg" xmlns:xlink="http://www.w3.org/1999/xlink" viewBox="0 0 290.26 91.48">
  <defs>
    <style>
      .cls-1 {
        clip-path: url(#clippath);
      }

      .cls-2 {
        fill: none;
      }

      .cls-2, .cls-3 {
        stroke-width: 0px;
      }

      .cls-3 {
        fill: #fff;
      }
    </style>
    <clipPath id="clippath">
      <rect class="cls-2" x="-47.24" y="-475.12" width="516.19" height="276.34"/>
    </clipPath>
  </defs>
  <g class="cls-1">
    <image width="1188" height="1347" transform="translate(1657.54 880.7) rotate(-89.26) scale(1.41 -1.41)" xlink:href="../FOTOS VIDEOS:PORTADILLAS/FINALES/ENTRADA-P06-LIGERO.webp"/>
  </g>
  <g>
    <g>
      <path class="cls-3" d="M14.42,43.87c-1.45.15-2.74.04-3.87-.35-1.13-.39-2.04-1.03-2.73-1.94-.69-.9-1.11-2.03-1.25-3.39-.13-1.27-.01-2.47.36-3.59.37-1.12.97-2.18,1.8-3.18,1.26-1.5,2.79-2.72,4.58-3.65,1.79-.93,3.69-1.5,5.68-1.71.99-.1,1.87-.03,2.66.24s1.42.66,1.91,1.19c.49.53.77,1.13.84,1.82.05.45-.01.87-.18,1.26-.17.4-.37.72-.6.97-.23.25-.43.38-.59.4-.13.01-.26-.03-.4-.14-.14-.1-.21-.2-.22-.28,0-.1.09-.24.29-.44.2-.2.4-.46.58-.77.18-.32.25-.69.21-1.12-.06-.57-.31-1.06-.74-1.46s-1.01-.68-1.73-.86c-.72-.17-1.52-.21-2.42-.12-1.77.19-3.45.74-5.05,1.66-1.59.92-2.96,2.06-4.08,3.44-.79.97-1.35,1.96-1.69,2.98-.34,1.02-.45,2.17-.31,3.44.13,1.23.53,2.22,1.19,2.98.67.76,1.52,1.29,2.55,1.59,1.03.3,2.16.39,3.39.26,1.4-.15,2.87-.53,4.4-1.14.9-.35,1.65-.72,2.25-1.12.6-.39,1.05-.75,1.34-1.07.27-.3.48-.53.61-.67.13-.14.24-.22.34-.23.11-.01.18.05.19.2.02.16-.05.37-.21.63-.16.26-.34.49-.54.69-.51.49-1.18.95-1.99,1.38-.82.43-1.63.8-2.45,1.12-.73.27-1.43.48-2.11.64-.68.16-1.34.27-1.99.34Z"/>
      <path class="cls-3" d="M27.58,41.28c-1.29.13-2.01-.52-2.17-1.97-.07-.67.02-1.39.26-2.15.24-.77.59-1.49,1.05-2.18.46-.68.99-1.26,1.59-1.73.6-.46,1.24-.73,1.91-.8.59-.06,1.04.12,1.36.53.32.42.51.9.56,1.44.08.72,0,1.46-.2,2.23-.21.77-.53,1.49-.96,2.17-.43.67-.93,1.23-1.51,1.68-.58.45-1.21.71-1.9.78ZM27.48,40.52c.1,0,.15-.02.16-.04.61-.14,1.16-.43,1.65-.85.49-.42.9-.93,1.23-1.52.33-.59.57-1.22.71-1.87.14-.66.18-1.3.11-1.92-.04-.37-.17-.64-.4-.83s-.5-.26-.82-.23c-.46.05-.93.29-1.41.73-.48.43-.91.97-1.3,1.61-.39.64-.7,1.29-.92,1.97-.22.67-.3,1.27-.25,1.78.09.86.5,1.25,1.23,1.17Z"/>
      <path class="cls-3" d="M36.29,41.14c-.73.08-1.32-.09-1.76-.51-.44-.41-.7-.99-.78-1.74-.06-.54-.03-1.21.08-1.99.2-1.33.61-2.88,1.22-4.67.49-1.35,1.02-2.7,1.61-4.02.59-1.33,1.24-2.64,1.98-3.94,1.17-2.09,2.02-3.16,2.56-3.22.35-.04.54.04.56.23.03.27-.35,1-1.12,2.17l-1.46,2.21c-1.27,1.9-2.26,3.82-2.99,5.75-.72,1.93-1.24,3.84-1.56,5.72-.09.54-.11,1.04-.06,1.51.13,1.21.69,1.76,1.67,1.66.35-.04.7-.18,1.04-.42.35-.23.54-.35.57-.35.19-.02.3.1.33.38.03.24-.04.43-.2.58-.51.37-1.07.59-1.69.66Z"/>
      <path class="cls-3" d="M41.13,39.86c-1.29.14-2.01-.52-2.17-1.97-.07-.67.02-1.38.26-2.15.24-.77.59-1.49,1.05-2.18.46-.68.99-1.26,1.59-1.73.6-.46,1.24-.73,1.91-.8.59-.06,1.04.12,1.36.53.32.42.5.9.56,1.44.08.72,0,1.46-.2,2.23-.21.77-.53,1.49-.96,2.17s-.93,1.23-1.51,1.68c-.58.44-1.22.71-1.9.78ZM41.03,39.09c.1-.01.15-.02.16-.04.61-.14,1.16-.43,1.65-.85.49-.42.9-.93,1.23-1.52.33-.59.57-1.22.71-1.87.14-.66.18-1.3.11-1.92-.04-.37-.17-.64-.4-.83-.23-.19-.5-.26-.82-.23-.46.05-.93.29-1.41.73-.48.44-.91.98-1.3,1.61-.39.64-.7,1.3-.92,1.97-.22.67-.3,1.27-.25,1.78.09.86.5,1.25,1.24,1.17Z"/>
      <path class="cls-3" d="M46.44,40.02c-.26.03-.39-.07-.42-.27-.01-.09,0-.19.05-.29.05-.1.08-.19.1-.25l1.71-4.62c.73-1.98,1.08-3.07,1.06-3.28-.02-.22.08-.35.3-.37.3-.03.47.1.5.41.02.16-.03.42-.13.79-.11.37-.25.79-.42,1.28-.3.87-.55,1.54-.76,2.01.42-.61.85-1.18,1.29-1.73.44-.55.89-1.07,1.36-1.57,1.38-1.48,2.47-2.26,3.28-2.35.56-.06.87.18.92.7.05.51-.09.78-.42.82-.16.02-.29-.1-.4-.37-.07-.18-.19-.27-.36-.25-.27.03-.77.38-1.48,1.05-.79.73-1.58,1.58-2.35,2.54s-1.58,2.18-2.41,3.64l-1.02,1.8c-.05.09-.11.16-.16.22-.05.06-.13.1-.24.11Z"/>
      <path class="cls-3" d="M57.03,38.74c-.67.07-1.22-.11-1.65-.53-.43-.42-.68-.97-.75-1.64-.12-1.15.14-2.36.78-3.66.17-.36.38-.71.61-1.07.24-.36.5-.7.78-1.04.43-.51.89-.95,1.39-1.3.49-.36.99-.56,1.48-.61.81-.09,1.26.26,1.34,1.02.1.96-.37,1.88-1.4,2.78-.96.81-1.95,1.27-2.95,1.37-.18.02-.33.02-.47.01-.14,0-.26-.02-.38-.04-.13.32-.23.72-.31,1.22-.08.49-.1.91-.06,1.26.11,1.05.63,1.53,1.55,1.43.75-.08,1.44-.28,2.08-.62s1.39-.92,2.23-1.75c.53-.5.92-.91,1.18-1.21.26-.3.54-.62.84-.96.09-.08.17-.11.25-.12.08,0,.16,0,.25.05.08.04.13.11.14.2.02.18-.12.44-.4.79-.24.28-.5.58-.78.89s-.71.75-1.31,1.31c-.64.61-1.36,1.12-2.16,1.51s-1.56.62-2.3.7ZM56.44,33.32c.51-.05.99-.18,1.43-.39.45-.21.86-.49,1.24-.83.85-.78,1.25-1.48,1.18-2.08-.03-.27-.21-.39-.54-.36-.64.07-1.34.54-2.1,1.4-.37.43-.68.81-.91,1.15-.23.34-.44.7-.62,1.09.1.02.2.03.32.02Z"/>
      <path class="cls-3" d="M64.29,38.34c-.89.09-1.37-.15-1.43-.74-.04-.37.05-.75.28-1.14.23-.39.5-.76.84-1.1s.65-.61.96-.8c.09-.05.22-.12.38-.18.16-.06.3-.1.41-.12.13-.01.2.03.21.13,0,.08-.07.18-.23.29-.7.43-1.22.91-1.58,1.43s-.52.94-.48,1.25c.03.29.29.41.79.35.41-.04.85-.2,1.32-.45.46-.26.9-.58,1.3-.96.4-.38.73-.78.97-1.19.25-.41.35-.79.31-1.14-.03-.24-.12-.45-.3-.62s-.43-.29-.77-.35l-1.63-.31c-.41-.09-.72-.22-.91-.41-.2-.19-.31-.41-.34-.66-.05-.48.08-.93.4-1.35.32-.42.74-.77,1.25-1.05.52-.28,1.03-.45,1.54-.5.51-.05.97.02,1.38.23.41.21.64.52.68.93.03.24-.02.47-.13.69-.11.22-.26.34-.43.36-.27.03-.42-.07-.44-.29,0-.08.03-.19.1-.31.08-.13.11-.25.1-.36-.05-.48-.44-.68-1.17-.6-.4.04-.78.17-1.16.38-.37.21-.67.46-.9.76s-.32.6-.29.92c.03.32.38.54,1.04.67l1.58.32c.48.09.82.26,1.02.48s.32.5.35.8c.08.72-.28,1.5-1.08,2.36-1.29,1.41-2.59,2.18-3.91,2.32Z"/>
      <path class="cls-3" d="M78.42,44.06c-.97.1-1.52-.42-1.64-1.57-.1-.97,0-1.93.33-2.88.05-.17.14-.26.28-.27.29-.03.44.08.47.34,0,.06,0,.15-.03.26-.03.11-.06.23-.09.36-.08.31-.13.64-.16.98-.03.34-.02.69.01,1.06.04.41.13.69.26.82.13.13.28.19.45.17.41-.04.88-.29,1.41-.73.53-.44,1.05-1.11,1.57-2,.37-.64.74-1.38,1.12-2.24.38-.86.77-1.84,1.19-2.95.56-1.46,1.05-2.94,1.49-4.43-.34.55-.71,1.09-1.09,1.61-.38.52-.8,1.02-1.25,1.49-1.2,1.27-2.24,1.95-3.12,2.04-1.05.11-1.64-.44-1.77-1.65-.05-.43-.02-.96.09-1.58.1-.62.27-1.34.49-2.15.03-.13.05-.24.04-.33,0-.09,0-.18.04-.28.2-.58.55-1.25,1.07-2,.11-.15.22-.24.31-.25.24-.03.38.14.41.49-1.31,2.44-1.88,4.45-1.71,6.03.07.67.37.98.89.92.59-.06,1.37-.55,2.33-1.48.69-.65,1.31-1.38,1.87-2.17.56-.79,1.06-1.61,1.48-2.44.3-.56.53-1.06.7-1.49.17-.43.28-.72.31-.87.05-.25.15-.38.3-.39.3-.03.47.08.49.33.01.13-.02.36-.11.7s-.19.74-.32,1.21c-.19.68-.46,1.59-.82,2.75-.36,1.15-.82,2.52-1.38,4.11-.69,1.97-1.41,3.6-2.14,4.89-.54.97-1.16,1.8-1.85,2.49s-1.33,1.06-1.92,1.12Z"/>
      <path class="cls-3" d="M102.69,35.66c-.13.01-.29-.03-.48-.13-.2-.1-.35-.2-.45-.3-.22-.22-.38-.49-.47-.82-.1-.33-.17-.69-.21-1.09-.04-.33-.06-.7-.08-1.09s-.02-.82,0-1.27c-.36.52-.78,1.04-1.25,1.55-.47.51-.96.93-1.46,1.28-.5.34-1,.54-1.47.59-1.2.13-1.86-.45-1.99-1.72-.14-1.32.19-2.65.99-3.97.4-.65.86-1.29,1.39-1.91.53-.62,1.11-1.14,1.72-1.56.62-.42,1.24-.66,1.88-.73.48-.05.92.09,1.32.42.03-.07.06-.18.1-.33.04-.15.1-.34.19-.58.29-.87.63-1.78.99-2.73s.7-1.74,1.01-2.37c.35-.69.7-1.06,1.07-1.1.26-.03.4.16.45.56.07.69-.41,2.35-1.43,5.01-.06.15-.18.42-.34.82-.16.4-.35.85-.56,1.36-.21.51-.43,1.02-.65,1.53-.22.51-.42.96-.59,1.35-.18.4-.3.67-.38.83-.1.74-.16,1.43-.19,2.09-.03.66,0,1.33.07,2.01.03.26.06.49.11.7.05.21.12.38.23.49.09.09.19.15.29.2.1.04.22.09.35.12.2.03.3.13.32.31.03.29-.12.45-.46.48ZM96.56,33.67c.46-.05.94-.26,1.42-.62s.94-.79,1.35-1.27c.37-.42.72-.86,1.02-1.3.31-.44.59-.9.85-1.36.07-.57.16-1.14.27-1.7.11-.56.24-1.12.39-1.68-.3-.37-.68-.53-1.14-.48-.48.05-.99.28-1.53.71-.54.42-1.06.92-1.53,1.5-.48.58-.88,1.13-1.22,1.65-.68,1.15-.96,2.32-.84,3.52.08.75.4,1.09.95,1.04ZM102.77,25.55c.5-1.1.93-2.12,1.3-3.07.37-.95.65-1.84.86-2.66-.55.9-.99,1.83-1.33,2.8s-.61,1.95-.83,2.94Z"/>
      <path class="cls-3" d="M105.63,33.46c-.45.05-.78,0-1-.16-.22-.15-.34-.41-.38-.76-.03-.33.02-.8.17-1.4.15-.6.35-1.26.6-1.96.26-.7.54-1.38.84-2.02.3-.64.61-1.18.91-1.61.3-.42.56-.65.76-.67.29-.03.44.08.47.34.02.16-.09.48-.31.95-.23.48-.47.97-.74,1.48-.11.19-.26.45-.45.77-.19.33-.38.63-.56.92-.18.28-.3.48-.35.58-.13.26-.26.66-.38,1.22-.13.56-.19.99-.16,1.27.01.13.05.22.11.28s.2.08.41.05c.4-.04.83-.22,1.3-.52.47-.31.93-.68,1.4-1.12.47-.44.91-.9,1.32-1.36.41-.46.76-.86,1.05-1.2.06-.07.15-.11.28-.13.24-.03.37.06.39.25.02.18-.07.39-.27.63-.38.48-.74.9-1.07,1.27s-.65.7-.96,1c-.49.44-1.03.85-1.63,1.23-.61.38-1.19.61-1.74.66ZM108.67,23.36c-.27.03-.42-.09-.45-.36,0-.08.03-.23.12-.46.09-.23.19-.46.31-.7.12-.24.22-.4.29-.49.24-.33.43-.54.57-.64.14-.09.28-.15.41-.16.33-.04.52.1.55.4.01.11-.04.25-.16.42-.12.17-.26.32-.42.47-.24.19-.38.33-.44.43l-.45.79c0,.07-.04.13-.09.19-.05.06-.13.1-.24.11Z"/>
      <path class="cls-3" d="M111.61,33.37c-.89.09-1.37-.15-1.43-.74-.04-.37.05-.75.28-1.14.22-.39.5-.76.84-1.1.33-.34.65-.61.95-.8.09-.05.22-.12.38-.18s.3-.1.41-.12c.13-.01.2.03.21.12,0,.08-.07.18-.24.29-.69.43-1.22.91-1.58,1.43-.36.53-.52.94-.48,1.25.03.29.29.41.79.35.41-.04.85-.2,1.32-.45.46-.26.9-.58,1.3-.96s.73-.78.98-1.19c.25-.41.35-.79.31-1.14-.03-.24-.13-.45-.3-.62-.17-.18-.43-.29-.77-.35l-1.63-.31c-.41-.09-.72-.22-.91-.41-.2-.19-.31-.41-.34-.67-.05-.48.08-.93.4-1.35.32-.42.74-.77,1.25-1.05.52-.28,1.03-.45,1.54-.5.51-.05.97.02,1.38.23.41.21.63.52.68.93.03.24-.02.47-.13.69-.11.22-.26.34-.43.36-.27.03-.42-.07-.44-.29,0-.08.03-.19.1-.31.08-.13.11-.25.09-.36-.05-.48-.44-.68-1.17-.6-.4.04-.78.17-1.16.38-.37.21-.67.46-.9.76-.23.3-.32.61-.29.92.03.32.38.54,1.04.66l1.58.32c.48.09.82.26,1.02.48.2.23.32.5.35.8.08.72-.28,1.5-1.08,2.36-1.29,1.41-2.59,2.18-3.91,2.32Z"/>
      <path class="cls-3" d="M120.8,32.04c-.67.07-1.22-.1-1.65-.53-.43-.42-.68-.97-.75-1.64-.12-1.15.14-2.37.78-3.66.17-.36.38-.71.61-1.07.24-.36.5-.7.79-1.04.43-.51.89-.95,1.38-1.3.49-.36.99-.56,1.48-.61.81-.08,1.26.26,1.34,1.02.1.96-.37,1.89-1.4,2.78-.96.81-1.94,1.27-2.95,1.37-.18.02-.33.02-.47.01s-.26-.03-.38-.04c-.13.32-.23.72-.31,1.21-.08.49-.1.91-.06,1.26.11,1.05.63,1.53,1.55,1.43.75-.08,1.44-.28,2.09-.62s1.38-.91,2.23-1.74c.53-.51.92-.91,1.18-1.21.26-.3.54-.62.84-.96.09-.07.17-.11.25-.12.08,0,.16,0,.25.05.08.04.13.11.14.2.02.18-.11.44-.4.79-.25.28-.5.58-.78.89-.27.31-.71.74-1.31,1.31-.64.61-1.36,1.12-2.16,1.51-.8.39-1.56.62-2.3.7ZM120.2,26.62c.51-.05.99-.18,1.43-.39s.86-.48,1.24-.83c.85-.78,1.25-1.48,1.18-2.08-.03-.27-.21-.39-.55-.36-.64.07-1.34.54-2.1,1.41-.38.43-.68.81-.91,1.15s-.44.7-.62,1.09c.1.02.2.03.32.02Z"/>
      <path class="cls-3" d="M126.79,31.58c-.26.03-.39-.06-.42-.27,0-.08.01-.18.06-.31.05-.12.1-.23.14-.32l1.7-4.55c.73-1.98,1.08-3.07,1.06-3.28-.02-.22.08-.35.3-.37.3-.03.47.11.51.43.01.11-.03.36-.14.74s-.25.82-.42,1.3c-.3.87-.55,1.54-.76,2.01.42-.61.85-1.18,1.29-1.73.44-.55.89-1.07,1.36-1.57,1.38-1.48,2.47-2.26,3.28-2.35.56-.06.86.17.92.7.05.48-.24,1.6-.88,3.36-.64,1.78-.93,2.88-.88,3.33.02.21.1.3.25.29.05,0,.12-.03.22-.08.1-.05.21-.08.32-.09.27-.03.42.08.45.34.03.32-.29.52-.98.59-.32.03-.56-.02-.72-.15s-.25-.33-.28-.59c-.08-.77.19-1.97.8-3.61.62-1.63.91-2.6.88-2.92-.02-.19-.1-.28-.25-.26-.35.04-.89.39-1.6,1.06-.78.73-1.55,1.55-2.3,2.46-.76.92-1.46,1.95-2.12,3.1l-1.43,2.49c-.08.15-.2.24-.36.26ZM131.69,20.29c-.06,0-.13,0-.2-.04-.07-.03-.09-.11-.07-.22.03-.15.09-.33.18-.55.09-.22.25-.42.47-.6.22-.18.52-.3.91-.34.29-.03.52,0,.7.1.18.09.34.19.49.3.15.1.33.15.53.13.27-.03.46-.14.57-.33.11-.19.2-.34.26-.46.07-.09.15-.13.23-.14.22-.02.31.09.28.36-.05.26-.18.54-.4.83-.21.29-.54.46-.99.5-.22.02-.43-.02-.62-.12-.19-.1-.38-.2-.58-.3-.19-.1-.42-.14-.68-.11-.22.02-.38.12-.49.28-.1.16-.2.34-.29.53-.05.12-.16.19-.32.2Z"/>
      <path class="cls-3" d="M139.02,29.57c-1.29.14-2.01-.52-2.17-1.97-.07-.67.02-1.38.26-2.15s.59-1.49,1.05-2.18c.46-.68.99-1.26,1.59-1.73.6-.46,1.24-.73,1.91-.8.59-.06,1.04.12,1.36.53.32.42.5.9.56,1.44.08.72,0,1.46-.2,2.23-.21.77-.53,1.49-.96,2.17s-.93,1.23-1.51,1.68c-.58.44-1.22.71-1.9.78ZM138.92,28.81c.1-.01.15-.02.16-.04.61-.14,1.16-.43,1.65-.85s.9-.93,1.23-1.52c.33-.59.57-1.22.71-1.88.14-.66.18-1.3.11-1.92-.04-.37-.17-.64-.4-.83-.23-.19-.5-.26-.82-.23-.46.05-.93.29-1.41.73-.48.44-.91.98-1.3,1.61-.39.64-.7,1.29-.92,1.97-.22.67-.3,1.27-.25,1.78.09.86.5,1.25,1.24,1.17Z"/>
      <path class="cls-3" d="M145.59,29.8c-.89.09-1.37-.15-1.43-.74-.04-.37.05-.75.28-1.14.23-.39.5-.76.84-1.1.33-.34.65-.61.95-.8.09-.05.22-.12.38-.18s.3-.1.41-.12c.13-.01.2.03.2.13,0,.08-.07.18-.23.29-.7.43-1.22.91-1.58,1.43s-.52.94-.48,1.25c.03.29.29.41.79.35.41-.04.85-.2,1.32-.45.46-.26.9-.58,1.3-.96s.73-.78.97-1.19c.25-.41.35-.79.31-1.14-.03-.24-.12-.44-.29-.62-.17-.18-.43-.29-.77-.35l-1.63-.31c-.41-.09-.72-.22-.91-.41-.2-.19-.31-.41-.34-.66-.05-.48.08-.93.4-1.35.32-.42.74-.77,1.25-1.05.52-.28,1.03-.45,1.54-.5.51-.05.97.02,1.38.23.41.21.64.52.68.93.03.24-.02.47-.13.69-.11.22-.26.34-.43.36-.27.03-.42-.07-.44-.29,0-.08.02-.19.1-.31.07-.13.11-.25.09-.36-.05-.48-.44-.68-1.17-.6-.4.04-.79.17-1.16.38s-.67.46-.9.76c-.23.3-.32.61-.29.92.03.32.38.54,1.04.66l1.58.32c.48.09.82.26,1.02.48.2.23.32.5.35.8.08.72-.28,1.5-1.08,2.36-1.29,1.41-2.59,2.18-3.91,2.32Z"/>
      <path class="cls-3" d="M158.65,34.29c-.75.08-1.18-.42-1.29-1.48-.15-1.4.23-3.7,1.14-6.89.15-.53.34-1.09.57-1.68s.5-1.21.82-1.87c.33-.71.65-1.33.95-1.86.31-.53.58-.96.82-1.29.08-.1.16-.18.23-.22.07-.04.13-.06.18-.07.41-.04.9.03,1.45.21.55.18,1.05.44,1.51.76.42.28.77.63,1.05,1.05s.45.87.5,1.35c.04.35,0,.71-.09,1.09-.1.37-.24.75-.43,1.12.41-.12.89-.36,1.46-.71.57-.35,1.13-.85,1.69-1.51.06-.07.14-.11.25-.12.24-.03.37.06.39.25,0,.08-.02.18-.08.31-.06.13-.17.29-.32.48-1.07,1.21-2.42,1.98-4.06,2.31-.21.28-.45.55-.7.81-.26.26-.52.5-.81.72-.87.65-1.63,1.02-2.28,1.08-.27.03-.5-.03-.7-.19-.19-.16-.3-.34-.33-.57-.08-.73.5-1.36,1.74-1.87.45-.18.9-.34,1.35-.48.45-.14.89-.29,1.33-.45.27-.53.46-.98.57-1.36.11-.38.16-.7.13-.96-.09-.84-.8-1.58-2.14-2.21-.53-.25-.93-.35-1.22-.31-1.16,1.57-2.18,3.71-3.07,6.41-.93,2.79-1.32,4.95-1.16,6.48.04.37.1.61.17.73s.2.17.36.16c.05,0,.09-.01.12-.02.03-.01.06-.02.09-.02.21-.02.32.09.35.35.03.29-.15.45-.55.49ZM161.69,27.35c.59-.06,1.39-.61,2.41-1.66-.25.06-.49.13-.72.2-.23.07-.55.2-.96.37-.7.28-1.03.58-.99.9.01.14.1.21.26.19Z"/>
      <path class="cls-3" d="M172.2,26.64c-.67.07-1.22-.11-1.65-.53-.43-.42-.68-.97-.75-1.64-.12-1.15.14-2.36.78-3.66.17-.36.38-.71.61-1.07.24-.36.5-.7.78-1.04.43-.51.89-.95,1.39-1.3.49-.36.99-.56,1.48-.61.81-.09,1.26.26,1.34,1.02.1.96-.37,1.89-1.4,2.78-.96.81-1.95,1.27-2.95,1.37-.18.02-.33.02-.47.01-.14,0-.26-.02-.38-.04-.13.32-.23.73-.31,1.22-.08.49-.1.91-.06,1.26.11,1.05.63,1.53,1.55,1.43.75-.08,1.44-.28,2.09-.62s1.39-.92,2.23-1.75c.53-.5.92-.91,1.18-1.21.26-.3.54-.62.84-.96.09-.07.17-.11.25-.12.08,0,.16,0,.25.05s.13.11.14.2c.02.18-.12.44-.4.79-.24.28-.5.58-.78.89-.27.31-.71.75-1.31,1.31-.64.62-1.36,1.12-2.16,1.51-.8.39-1.56.62-2.3.7ZM171.61,21.22c.51-.05.99-.18,1.43-.39.45-.21.86-.49,1.24-.83.85-.78,1.25-1.48,1.18-2.08-.03-.27-.21-.39-.54-.36-.64.07-1.34.54-2.1,1.4-.37.43-.68.81-.91,1.15-.23.34-.44.7-.62,1.09.1.02.2.03.31.02Z"/>
      <path class="cls-3" d="M178.19,26.18c-.26.03-.39-.07-.42-.27,0-.09,0-.19.05-.29.05-.1.08-.19.1-.25l1.71-4.62c.73-1.98,1.08-3.07,1.06-3.28-.02-.22.08-.35.3-.37.3-.03.47.1.5.41.02.16-.03.42-.13.79-.11.37-.25.79-.42,1.28-.29.87-.55,1.54-.75,2.01.42-.61.85-1.18,1.29-1.73.44-.55.89-1.07,1.36-1.57,1.38-1.48,2.47-2.26,3.28-2.35.56-.06.87.17.92.7.05.51-.09.78-.42.82-.16.02-.29-.1-.4-.37-.07-.18-.19-.27-.36-.25-.27.03-.77.38-1.48,1.05-.79.73-1.58,1.58-2.35,2.54s-1.58,2.18-2.41,3.63l-1.02,1.8c-.05.09-.11.16-.16.22-.05.06-.13.1-.24.11Z"/>
      <path class="cls-3" d="M185.65,32.76c-.51.05-.89-.08-1.14-.4-.25-.32-.41-.77-.47-1.34-.14-1.3.26-3.39,1.2-6.24-.07-.06-.11-.13-.12-.23-.02-.16.11-.33.38-.52.66-1.79,1.29-3.39,1.88-4.78s1.12-2.58,1.62-3.56c1.66-3.24,3.21-5.52,4.67-6.85.19-.18.38-.33.56-.45.18-.12.37-.18.56-.2.25-.03.39.06.41.27.01.11-.02.23-.1.36-.08.13-.2.33-.38.61-.21.3-.46.64-.74,1.03-.28.39-.57.8-.87,1.22-.3.42-.58.8-.83,1.14-.26.34-.46.61-.62.8l-1.96,2.5-.64,1.3c-.18.34-.38.8-.62,1.38-.24.58-.52,1.27-.84,2.06-.13.32-.29.73-.49,1.23-.2.5-.42,1.1-.67,1.79.13,0,.25.02.35.05.11.03.21.06.31.1,2.11-.9,4.05-2.29,5.82-4.19.1-.09.19-.14.27-.15.27-.03.42.08.44.32,0,.06,0,.13-.04.2-.03.07-.07.14-.11.21-.21.28-.53.61-.94.99-.41.38-.93.8-1.56,1.25-.54.38-1.06.73-1.57,1.05-.51.32-1,.59-1.47.82.5.49.8,1.16.89,2.01.12,1.16-.09,2.41-.65,3.74-.64,1.55-1.5,2.38-2.56,2.49ZM185.43,32.06c.46-.05.88-.29,1.27-.71s.69-.96.93-1.6c.18-.45.31-.99.4-1.6s.11-1.14.06-1.59c-.09-.89-.43-1.46-1-1.71-.2.05-.39.1-.56.15-.17.04-.34.06-.5.06v.02c-1.02,3.12-1.48,5.23-1.36,6.33.03.24.11.41.25.52.14.11.31.15.52.13Z"/>
      <path class="cls-3" d="M196.77,24.05c-.67.07-1.22-.1-1.65-.53-.43-.42-.68-.97-.75-1.64-.12-1.15.14-2.37.78-3.66.17-.36.38-.71.61-1.07.24-.36.5-.7.78-1.04.43-.51.89-.95,1.39-1.3.49-.36.99-.56,1.48-.61.81-.08,1.26.26,1.34,1.02.1.96-.37,1.88-1.4,2.78-.96.81-1.95,1.27-2.95,1.37-.18.02-.33.02-.47.01-.14,0-.26-.03-.38-.04-.13.32-.23.72-.31,1.22-.08.49-.1.91-.06,1.26.11,1.05.63,1.53,1.55,1.43.75-.08,1.44-.28,2.08-.62s1.39-.91,2.23-1.74c.53-.51.92-.91,1.18-1.21s.54-.62.84-.96c.09-.07.17-.11.25-.12s.16,0,.25.05c.08.04.13.11.14.2.02.18-.12.44-.4.79-.24.28-.5.58-.78.89-.27.31-.71.74-1.31,1.31-.64.61-1.36,1.12-2.16,1.51s-1.56.62-2.3.7ZM196.17,18.63c.51-.05.99-.18,1.43-.39.45-.21.86-.48,1.24-.83.85-.78,1.25-1.48,1.18-2.08-.03-.27-.21-.39-.54-.36-.64.07-1.34.54-2.1,1.41-.37.43-.68.81-.91,1.15-.23.34-.44.7-.62,1.09.1.02.2.03.32.02Z"/>
      <path class="cls-3" d="M206.6,22.92c-.84.09-1.53-.09-2.06-.53-.53-.44-.84-1.08-.92-1.91-.15-1.43.36-3.07,1.54-4.9.61-.93,1.25-1.67,1.93-2.2.68-.53,1.33-.83,1.97-.9.56-.06,1.01.09,1.35.44.34.35.54.81.6,1.39.04.35.03.71-.03,1.09-.04.26-.15.4-.34.42-.3.03-.47-.12-.51-.45-.02-.14,0-.33.02-.57.03-.24.04-.47.01-.69-.07-.64-.41-.92-1.03-.86-.33.03-.73.2-1.17.48-.44.29-.88.65-1.3,1.09-.42.44-.78.92-1.08,1.45-.92,1.56-1.31,2.92-1.19,4.06.14,1.32.81,1.92,2,1.8.75-.08,1.45-.27,2.11-.57.66-.3,1.41-.87,2.26-1.7.53-.5.92-.91,1.18-1.21.26-.3.54-.62.84-.96.09-.07.17-.11.25-.12.08,0,.16,0,.25.05.09.04.13.11.14.2.02.18-.12.44-.4.79-.25.28-.5.58-.78.89-.27.31-.71.75-1.31,1.31-.64.61-1.35,1.1-2.11,1.45-.76.35-1.51.57-2.24.65Z"/>
      <path class="cls-3" d="M213.36,23.54c-.3.03-.48-.19-.53-.67-.08-.7.19-1.97.8-3.8.6-1.84,1.54-4.25,2.8-7.25-.61.06-1.17.2-1.68.41-.52.21-.78.43-.79.65,0,.07-.04.13-.09.19-.05.06-.13.1-.24.11-.26.03-.4-.09-.42-.34-.04-.41.25-.79.87-1.13.62-.34,1.53-.57,2.7-.69l1.36-2.9c.09-.19.19-.39.3-.62s.22-.48.36-.75c.14-.24.31-.37.51-.39.13-.01.23.01.3.08.07.06.11.14.12.22.03.24-.26.91-.85,2.02-.74,1.38-1.14,2.13-1.19,2.25.24-.03.6-.04,1.08-.05.48-.01,1.05-.01,1.72,0,.24,0,.37.1.4.32.03.26-.1.4-.39.43-.11.01-.34.02-.68.01-.34,0-.7,0-1.09,0-.38,0-.71.03-.98.08l-.36.06c-2.64,6.03-3.87,9.73-3.71,11.12l.05.19v.05c.03.26-.09.4-.36.42Z"/>
      <path class="cls-3" d="M219.92,21.07c-1.29.13-2.01-.52-2.17-1.97-.07-.67.02-1.39.26-2.15.24-.77.59-1.49,1.05-2.18.46-.68.99-1.26,1.6-1.73.6-.46,1.24-.73,1.91-.8.59-.06,1.04.12,1.36.53.32.42.5.9.56,1.44.08.72,0,1.46-.2,2.23-.21.77-.53,1.49-.96,2.17-.43.67-.93,1.23-1.51,1.68-.58.45-1.22.71-1.9.78ZM219.81,20.3c.1,0,.15-.02.16-.04.61-.14,1.16-.43,1.65-.85.49-.42.9-.93,1.23-1.52.33-.59.57-1.22.71-1.87.14-.66.18-1.3.11-1.92-.04-.37-.17-.64-.4-.83-.23-.19-.5-.26-.82-.23-.46.05-.93.29-1.41.73-.48.43-.91.97-1.3,1.61-.39.64-.7,1.3-.92,1.97-.22.67-.3,1.27-.25,1.78.09.86.5,1.25,1.24,1.17Z"/>
      <path class="cls-3" d="M226.49,21.29c-.89.09-1.37-.16-1.43-.74-.04-.37.05-.75.28-1.14.23-.39.5-.76.84-1.1.33-.34.65-.61.96-.8.09-.05.22-.12.38-.18.16-.06.3-.1.41-.12.13-.01.2.03.21.12,0,.08-.07.18-.23.29-.7.43-1.22.9-1.58,1.43-.36.53-.52.94-.48,1.25.03.29.29.41.79.36.41-.04.85-.2,1.32-.45.47-.26.9-.58,1.3-.96.4-.38.73-.78.97-1.19.25-.41.35-.79.31-1.14-.03-.24-.12-.45-.3-.62-.17-.18-.43-.29-.77-.35l-1.63-.31c-.41-.08-.72-.22-.91-.41-.2-.19-.31-.41-.34-.67-.05-.48.08-.93.4-1.35.32-.42.74-.77,1.25-1.05.52-.28,1.03-.45,1.54-.5.51-.05.97.02,1.38.23.41.21.64.52.68.93.03.24-.02.47-.13.69-.11.22-.26.34-.43.36-.27.03-.42-.07-.44-.29,0-.08.03-.18.1-.31.08-.13.11-.25.1-.36-.05-.48-.44-.68-1.17-.6-.4.04-.78.17-1.16.37-.37.21-.67.46-.9.76-.23.3-.32.61-.29.92s.38.54,1.04.67l1.58.32c.48.09.82.26,1.02.48.2.23.32.49.35.8.08.72-.28,1.5-1.08,2.36-1.29,1.41-2.59,2.18-3.91,2.32Z"/>
      <path class="cls-3" d="M239.55,25.79c-.75.08-1.18-.41-1.29-1.48-.15-1.4.23-3.7,1.14-6.89.15-.53.34-1.09.57-1.68.23-.59.5-1.21.82-1.87.33-.71.65-1.33.95-1.87.31-.53.58-.96.82-1.29.09-.1.16-.18.23-.22.07-.04.13-.06.18-.07.41-.04.9.03,1.45.21.55.18,1.05.44,1.51.76.42.28.77.63,1.05,1.05.29.42.45.87.5,1.35.04.35,0,.71-.09,1.09-.1.37-.24.75-.43,1.12.41-.12.89-.36,1.46-.71.57-.35,1.13-.85,1.69-1.51.06-.07.14-.11.25-.12.24-.03.37.06.39.25,0,.08-.02.18-.08.31-.06.13-.17.29-.33.48-1.06,1.21-2.42,1.98-4.06,2.31-.21.28-.45.55-.7.81-.26.26-.52.5-.81.72-.87.65-1.62,1.02-2.28,1.08-.27.03-.5-.03-.7-.19-.19-.16-.3-.35-.33-.57-.08-.73.5-1.35,1.74-1.87.45-.18.9-.34,1.35-.48.45-.14.89-.3,1.33-.45.27-.53.46-.98.57-1.36s.16-.7.13-.96c-.09-.84-.8-1.58-2.14-2.21-.53-.25-.93-.36-1.22-.31-1.16,1.57-2.18,3.71-3.07,6.41-.93,2.79-1.32,4.95-1.15,6.48.04.37.1.61.17.73.08.12.2.17.36.15.05,0,.09-.01.12-.02s.06-.02.09-.02c.21-.02.32.09.35.35.03.29-.15.45-.55.49ZM242.59,18.85c.59-.06,1.39-.61,2.41-1.66-.25.06-.49.12-.72.2-.23.07-.55.19-.96.37-.7.28-1.03.58-.99.9.02.14.1.21.26.19Z"/>
      <path class="cls-3" d="M251.78,18.08c-.92.1-1.43-.29-1.52-1.17-.06-.57.01-1.21.22-1.9.21-.69.52-1.38.93-2.06.41-.68.89-1.31,1.42-1.89.54-.58,1.1-1.06,1.69-1.43.59-.38,1.17-.6,1.74-.66,1.02-.11,1.58.34,1.69,1.35.07.65-.06,1-.38,1.03-.29.03-.44-.09-.47-.36-.01-.11,0-.23.05-.36.04-.12.06-.26.04-.4-.05-.45-.37-.64-.98-.57-.97.1-2.11.97-3.42,2.61-.31.4-.61.87-.89,1.4-.28.53-.5,1.06-.67,1.58-.16.53-.22,1.01-.17,1.46.05.43.31.62.79.57.41-.04.84-.22,1.29-.52.44-.3.83-.61,1.15-.92.64-.6,1.29-1.39,1.92-2.38.1-.14.22-.32.38-.55s.33-.48.53-.76c.07-.09.16-.14.27-.15.26-.03.4.09.42.34l-.77,1.46c-.51.96-.74,1.72-.68,2.3.04.41.26.6.66.56.33-.04.69-.16,1.07-.38.38-.22.69-.42.92-.63.48-.39.96-.86,1.47-1.42.51-.56.99-1.12,1.44-1.69.06-.07.15-.11.28-.13.24-.03.37.06.39.25.02.18-.07.39-.27.63-.57.71-1.09,1.31-1.55,1.82-.46.51-.91.93-1.34,1.26-.28.21-.64.43-1.06.67-.43.24-.93.39-1.5.45-.78.08-1.21-.29-1.3-1.12-.03-.32-.02-.59.04-.8-1.3,1.54-2.58,2.37-3.82,2.5Z"/>
      <path class="cls-3" d="M261.72,17.4c-.26.03-.39-.06-.42-.27-.01-.09,0-.19.05-.3.05-.1.08-.18.1-.25l1.71-4.62c.73-1.98,1.08-3.07,1.06-3.28-.02-.22.08-.35.3-.37.3-.03.47.1.5.41.02.16-.03.42-.13.79-.11.37-.25.79-.42,1.28-.3.87-.55,1.54-.76,2.01.42-.61.85-1.18,1.29-1.73.44-.55.89-1.07,1.36-1.57,1.38-1.48,2.47-2.26,3.28-2.35.56-.06.87.17.92.7.05.51-.09.78-.42.82-.16.02-.29-.1-.4-.37-.07-.19-.19-.27-.36-.25-.27.03-.77.38-1.48,1.05-.79.73-1.58,1.57-2.35,2.54-.78.97-1.58,2.18-2.41,3.63l-1.02,1.8c-.05.09-.11.16-.16.22-.05.06-.13.1-.24.11Z"/>
      <path class="cls-3" d="M270.69,16.09c-.92.1-1.43-.29-1.52-1.17-.06-.57.01-1.21.22-1.9s.52-1.38.93-2.06c.41-.68.89-1.31,1.42-1.89.54-.58,1.1-1.06,1.69-1.43.59-.38,1.17-.6,1.74-.66,1.02-.11,1.58.34,1.69,1.35.07.65-.06,1-.38,1.03-.29.03-.44-.09-.47-.36-.01-.11,0-.23.05-.36.04-.12.06-.26.04-.4-.05-.45-.37-.64-.98-.57-.97.1-2.11.97-3.42,2.61-.31.4-.61.87-.89,1.4-.28.53-.5,1.06-.67,1.58-.16.53-.22,1.01-.17,1.46.05.43.31.62.79.57.41-.04.84-.22,1.29-.52.44-.3.83-.61,1.15-.92.64-.6,1.29-1.39,1.92-2.38.1-.14.22-.32.38-.55s.33-.48.53-.76c.07-.09.16-.14.27-.15.26-.03.4.09.42.34l-.77,1.46c-.51.96-.74,1.72-.68,2.3.04.41.27.6.66.56.33-.03.69-.16,1.07-.38.38-.22.69-.42.92-.63.48-.39.96-.86,1.47-1.42.5-.56.98-1.12,1.44-1.69.06-.07.15-.11.28-.13.24-.03.37.06.39.25.02.18-.07.39-.27.63-.57.71-1.09,1.31-1.55,1.82-.46.51-.91.93-1.34,1.26-.28.21-.64.43-1.06.67-.43.24-.93.39-1.5.45-.78.08-1.21-.29-1.3-1.12-.03-.32-.02-.59.04-.8-1.3,1.54-2.58,2.37-3.82,2.5Z"/>
    </g>
    <g>
      <path class="cls-3" d="M11.72,64.35c-.84.09-1.53-.09-2.06-.53-.53-.44-.84-1.08-.93-1.91-.15-1.43.36-3.07,1.54-4.9.61-.94,1.25-1.67,1.93-2.2.68-.53,1.33-.83,1.97-.9.56-.06,1.01.09,1.35.44.34.35.55.81.61,1.39.04.35.03.71-.03,1.09-.04.26-.15.4-.34.42-.3.03-.47-.12-.51-.46-.02-.14,0-.33.03-.57.03-.24.03-.47.01-.69-.07-.64-.41-.92-1.03-.86-.33.03-.73.2-1.17.48s-.88.65-1.3,1.09c-.42.44-.78.92-1.08,1.45-.92,1.56-1.31,2.91-1.19,4.06.14,1.32.8,1.92,2,1.8.75-.08,1.45-.27,2.12-.57.66-.3,1.41-.87,2.26-1.7.53-.51.92-.91,1.18-1.21.26-.3.54-.62.84-.96.09-.07.18-.11.25-.12.08,0,.16,0,.25.05s.13.11.14.2c.02.18-.12.44-.4.79-.24.28-.5.58-.78.89-.27.31-.71.75-1.31,1.31-.64.61-1.35,1.1-2.11,1.45s-1.51.57-2.24.65Z"/>
      <path class="cls-3" d="M25.27,63.41c-.78.08-1.23-.44-1.35-1.57-.06-.61,0-1.35.2-2.24-1.69,2.45-3.09,3.73-4.19,3.85-.91.1-1.42-.41-1.54-1.51-.04-.41-.03-.92.05-1.51.07-.59.19-1.22.36-1.86s.35-1.25.57-1.82c.21-.57.44-1.04.67-1.4.08-.12.2-.19.34-.21.08,0,.16.01.25.06.08.05.13.13.14.24,0,.1-.03.24-.13.42-.59,1.25-1,2.34-1.2,3.24-.28,1.04-.38,1.93-.3,2.66.07.68.28,1.01.64.97.22-.02.5-.17.85-.43.34-.26.69-.57,1.05-.94.36-.37.66-.71.92-1.03.71-.93,1.33-1.9,1.87-2.93.24-.48.45-.94.64-1.38.19-.45.35-.91.49-1.39.06-.18.12-.32.16-.42.04-.09.13-.15.23-.16.33-.03.52.08.54.33.02.16-.03.28-.13.35-1.28,3.47-1.85,5.82-1.72,7.07.04.33.09.57.17.69.08.13.19.18.35.17.22-.02.55-.2,1-.54.44-.34.95-.83,1.52-1.49l2.27-2.56c.11-.14.23-.22.34-.23.25-.03.39.08.42.32.02.21-.42.82-1.33,1.83-.39.44-.74.82-1.04,1.12-.31.31-.59.58-.86.82-.5.44-.95.79-1.34,1.05-.39.26-.7.4-.92.42Z"/>
      <path class="cls-3" d="M31.76,62.15c-.93.1-1.43-.29-1.52-1.17-.06-.57.01-1.21.22-1.9s.52-1.38.93-2.06c.41-.68.89-1.31,1.42-1.89s1.1-1.06,1.69-1.43c.59-.38,1.17-.59,1.74-.66,1.02-.11,1.58.34,1.69,1.35.07.65-.06,1-.37,1.03-.29.03-.44-.09-.48-.36,0-.11,0-.23.05-.36.04-.13.06-.26.04-.41-.05-.44-.37-.64-.98-.57-.97.1-2.11.97-3.42,2.61-.31.4-.61.87-.89,1.4-.28.53-.5,1.06-.67,1.58-.16.53-.22,1.01-.17,1.46.04.43.3.62.78.57.42-.04.84-.22,1.29-.52.44-.31.83-.61,1.15-.92.64-.6,1.29-1.39,1.92-2.38.1-.14.23-.32.38-.55s.33-.48.52-.75c.07-.09.16-.14.28-.15.26-.03.4.09.42.34l-.76,1.46c-.51.96-.74,1.72-.68,2.29.04.42.26.6.66.56.33-.04.69-.16,1.07-.38.38-.22.69-.43.92-.63.48-.39.96-.86,1.47-1.43.5-.56.99-1.12,1.44-1.68.06-.07.15-.11.28-.12.24-.03.37.05.39.25.02.18-.07.39-.27.63-.57.7-1.09,1.31-1.55,1.82-.46.51-.91.93-1.34,1.26-.28.21-.64.43-1.07.67-.43.24-.92.39-1.5.45-.78.08-1.21-.29-1.3-1.12-.03-.32-.02-.59.04-.8-1.3,1.54-2.58,2.37-3.82,2.51Z"/>
      <path class="cls-3" d="M45.09,61.15c-.73.08-1.32-.09-1.76-.5-.44-.41-.7-.99-.78-1.74-.06-.54-.03-1.2.08-1.99.2-1.33.61-2.88,1.22-4.67.49-1.36,1.02-2.7,1.61-4.02.59-1.33,1.25-2.64,1.98-3.94,1.17-2.09,2.02-3.16,2.56-3.21.35-.04.54.04.55.23.03.27-.34,1-1.12,2.17l-1.46,2.21c-1.26,1.9-2.26,3.82-2.98,5.75-.73,1.93-1.25,3.84-1.56,5.72-.09.54-.11,1.04-.06,1.51.13,1.21.69,1.76,1.67,1.66.35-.04.7-.18,1.05-.43.34-.23.54-.35.57-.35.19-.02.3.11.33.38.03.24-.04.43-.2.58-.51.37-1.07.59-1.7.66Z"/>
      <path class="cls-3" d="M51.93,67.61c-.89.09-1.39-.31-1.48-1.22-.04-.37,0-.79.12-1.28.12-.49.26-.98.43-1.46.17-.48.31-.91.43-1.28.34-1.05.61-1.86.81-2.44.19-.58.38-1.07.54-1.47-.89,1.08-1.83,1.67-2.83,1.77-.56.06-1.01-.08-1.37-.4s-.57-.85-.65-1.56c-.07-.7-.02-1.44.15-2.21.18-.78.56-1.63,1.16-2.56.32-.5.73-.99,1.25-1.47.51-.48,1.06-.89,1.66-1.24.59-.34,1.15-.54,1.68-.6,1.31-.14,2.04.51,2.19,1.95.03.26-.09.39-.34.42-.24.03-.38-.11-.43-.41-.03-.14-.06-.29-.08-.44-.03-.15-.08-.29-.16-.43-.14-.29-.44-.41-.88-.37-.77.08-1.5.39-2.19.92-.69.53-1.32,1.17-1.89,1.9-.5.65-.86,1.36-1.08,2.12-.23.77-.3,1.5-.23,2.2.11,1.02.53,1.49,1.26,1.41.53-.06,1.05-.34,1.58-.86s1.04-1.15,1.54-1.9c.5-.75.96-1.51,1.38-2.28l.61-1.1c.12-.22.24-.34.37-.36.13-.01.23.01.31.08.08.07.12.14.13.22,0,.06,0,.14-.05.22-.04.09-.09.22-.15.4l-2.04,4.71c.38.11.73.14,1.05.11.46-.05.91-.22,1.36-.53.44-.3.94-.72,1.48-1.24.53-.51.92-.91,1.18-1.21.26-.3.54-.62.84-.96.09-.07.17-.11.25-.12.08,0,.16,0,.25.05.08.04.13.11.14.2.02.18-.12.44-.4.79-.24.28-.5.58-.78.89-.27.31-.71.75-1.31,1.31-.43.4-.89.74-1.4,1.04-.51.29-1.04.47-1.6.53-.21.02-.43.02-.65,0,.4.6.65,1.38.75,2.34.07.64.05,1.29-.06,1.95-.11.66-.29,1.28-.54,1.84s-.58,1.04-.96,1.41c-.39.37-.83.58-1.32.63ZM51.8,66.88c.32-.03.62-.2.9-.52s.54-.69.76-1.14c.23-.45.4-.91.51-1.38.11-.47.15-.87.12-1.21-.06-.57-.16-1.1-.29-1.59-.13-.49-.31-.97-.54-1.47-.77,1.89-1.32,3.37-1.65,4.46-.33,1.09-.47,1.85-.42,2.28.04.41.25.6.61.56Z"/>
      <path class="cls-3" d="M66.85,59.04c-.78.08-1.23-.44-1.35-1.57-.06-.61,0-1.35.2-2.24-1.69,2.45-3.09,3.73-4.19,3.85-.91.1-1.42-.41-1.54-1.51-.04-.41-.03-.92.05-1.51.07-.6.19-1.22.36-1.86.16-.65.35-1.25.57-1.82.21-.57.44-1.04.67-1.4.08-.12.2-.19.34-.21.08,0,.16.01.25.06.09.05.13.13.15.24,0,.1-.03.24-.13.43-.59,1.25-1,2.34-1.2,3.24-.28,1.04-.38,1.93-.3,2.67.07.68.28,1.01.64.97.22-.02.5-.17.85-.43.34-.26.69-.57,1.05-.94s.66-.71.92-1.03c.71-.93,1.33-1.9,1.86-2.93.24-.48.45-.94.64-1.38.18-.45.35-.91.49-1.39.06-.18.12-.32.16-.41.04-.09.13-.15.23-.16.33-.04.52.08.54.33.02.16-.03.28-.13.35-1.28,3.47-1.85,5.82-1.72,7.07.03.33.09.57.17.7s.2.18.36.17c.22-.02.55-.2,1-.54.44-.34.95-.83,1.52-1.49l2.27-2.56c.12-.14.23-.22.34-.23.25-.03.39.08.42.32.02.21-.42.82-1.33,1.83-.39.44-.74.82-1.04,1.12-.31.31-.59.58-.86.81-.5.44-.95.79-1.34,1.05s-.7.4-.92.42Z"/>
      <path class="cls-3" d="M73.22,57.81c-.44.05-.78,0-1-.16-.22-.16-.34-.41-.38-.76-.03-.33.02-.8.17-1.41.15-.6.35-1.26.6-1.96.26-.7.54-1.38.84-2.02.3-.64.61-1.18.91-1.61.3-.43.56-.65.76-.67.28-.03.44.08.47.34.02.16-.09.48-.31.95-.23.48-.47.97-.74,1.48-.11.19-.26.45-.45.77-.19.33-.38.63-.56.92s-.3.48-.35.58c-.13.26-.26.66-.38,1.22-.13.56-.18.99-.16,1.27.02.13.05.22.12.28.06.06.2.07.4.05.4-.04.83-.21,1.3-.52s.93-.68,1.4-1.13c.47-.44.91-.89,1.32-1.36.41-.46.76-.86,1.05-1.2.06-.07.15-.11.28-.13.24-.03.37.06.39.25.02.18-.07.39-.27.63-.38.48-.74.9-1.07,1.28-.33.37-.65.7-.96.99-.48.44-1.03.85-1.63,1.24-.6.38-1.19.61-1.74.67ZM76.27,47.71c-.27.03-.42-.09-.45-.36,0-.08.03-.23.12-.46.09-.23.19-.46.31-.7s.22-.4.29-.49c.24-.33.43-.55.57-.64.14-.1.28-.15.4-.16.33-.03.52.1.55.4.01.11-.04.25-.16.41-.12.17-.26.32-.42.47-.24.19-.38.33-.44.43l-.45.8c-.01.07-.04.13-.09.19-.05.06-.13.1-.24.11Z"/>
      <path class="cls-3" d="M81.22,57.14c-.67.07-1.22-.1-1.65-.53-.43-.42-.68-.97-.75-1.64-.12-1.15.14-2.36.78-3.66.17-.36.38-.71.61-1.07.23-.36.5-.7.78-1.04.43-.51.89-.95,1.39-1.31.49-.36.99-.56,1.48-.61.81-.09,1.26.26,1.34,1.02.1.96-.37,1.88-1.4,2.78-.96.81-1.95,1.27-2.95,1.38-.18.02-.33.02-.47.01-.14,0-.26-.03-.38-.05-.13.32-.23.73-.31,1.22-.08.49-.1.91-.06,1.26.11,1.05.63,1.53,1.55,1.43.75-.08,1.44-.29,2.08-.62s1.39-.92,2.23-1.74c.53-.51.92-.91,1.18-1.21.26-.3.54-.62.84-.96.09-.07.17-.11.25-.12.08,0,.16,0,.25.05s.13.11.14.2c.02.18-.12.44-.4.79-.24.28-.5.58-.78.89-.27.31-.71.75-1.31,1.31-.64.61-1.37,1.12-2.16,1.51-.8.39-1.56.62-2.29.7ZM80.63,51.72c.51-.05.99-.18,1.43-.39.44-.21.86-.49,1.24-.83.85-.78,1.25-1.48,1.18-2.08-.03-.27-.21-.39-.54-.35-.64.07-1.34.53-2.1,1.4-.38.43-.68.81-.91,1.15-.23.34-.44.7-.62,1.09.1.02.2.03.32.02Z"/>
      <path class="cls-3" d="M87.21,56.68c-.26.03-.39-.06-.42-.27,0-.1,0-.2.05-.3.05-.1.08-.19.11-.25l1.71-4.63c.73-1.98,1.08-3.07,1.05-3.28-.02-.22.08-.35.3-.37.3-.03.47.1.5.41.02.16-.03.42-.13.79-.11.37-.25.79-.42,1.28-.3.87-.55,1.54-.76,2.01.42-.61.85-1.18,1.29-1.73.44-.55.89-1.07,1.36-1.57,1.38-1.48,2.47-2.26,3.28-2.35.56-.06.86.17.92.7.05.51-.09.78-.42.82-.16.02-.29-.11-.4-.37-.07-.19-.19-.27-.37-.25-.27.03-.77.38-1.49,1.05-.79.73-1.58,1.58-2.35,2.54s-1.58,2.18-2.41,3.63l-1.02,1.8c-.06.08-.11.16-.16.22-.05.06-.13.1-.24.11Z"/>
      <path class="cls-3" d="M104.88,54.65c-.67.07-1.22-.1-1.65-.53s-.68-.97-.75-1.64c-.12-1.15.14-2.37.78-3.66.17-.36.38-.71.61-1.07.24-.36.5-.7.79-1.04.43-.51.89-.95,1.39-1.3.49-.36.99-.56,1.48-.62.81-.08,1.26.26,1.34,1.02.1.96-.37,1.89-1.4,2.78-.96.81-1.94,1.27-2.95,1.37-.18.02-.33.03-.47.01-.14,0-.27-.03-.38-.05-.13.32-.23.73-.31,1.22-.08.49-.1.91-.06,1.26.11,1.05.63,1.53,1.55,1.43.75-.08,1.45-.29,2.09-.62s1.38-.91,2.23-1.74c.53-.51.92-.91,1.18-1.21.26-.3.54-.62.84-.96.09-.07.18-.11.25-.12.08,0,.16,0,.25.05.08.04.13.11.14.2.02.18-.12.44-.4.79-.24.28-.5.58-.78.89-.27.31-.71.75-1.31,1.31-.64.61-1.36,1.12-2.16,1.51-.8.39-1.56.62-2.3.7ZM104.28,49.23c.51-.05.99-.18,1.43-.39.44-.21.86-.48,1.24-.83.85-.78,1.25-1.48,1.18-2.08-.03-.27-.21-.39-.54-.36-.64.07-1.34.54-2.1,1.41-.38.42-.68.81-.91,1.15-.23.34-.44.7-.62,1.09.1.02.21.03.32.02ZM107.03,43.82c-.06,0-.13-.02-.21-.09s-.12-.13-.13-.19c0-.08.02-.15.07-.22.12-.14.28-.36.51-.65.23-.29.47-.6.72-.92.26-.33.48-.6.66-.83.06-.07.13-.14.21-.19.08-.05.15-.09.22-.1.08,0,.16.02.24.08s.13.14.16.21v.05c.01.1-.04.22-.17.38s-.39.47-.8.93c-.4.46-.84.94-1.3,1.44-.06.05-.12.09-.18.09Z"/>
      <path class="cls-3" d="M111.29,60.21c-.75.08-1.18-.41-1.29-1.48-.15-1.4.23-3.7,1.14-6.89.15-.53.34-1.09.57-1.68.23-.59.5-1.21.82-1.87.33-.71.64-1.33.95-1.86s.58-.96.82-1.3c.08-.1.16-.18.23-.21.07-.04.13-.06.17-.07.42-.04.9.03,1.45.21.55.18,1.05.44,1.51.76.42.28.77.63,1.05,1.05.28.42.45.87.5,1.35.04.35,0,.71-.09,1.09-.1.37-.24.74-.43,1.12.41-.12.89-.36,1.46-.71.57-.35,1.13-.85,1.69-1.51.06-.07.14-.11.25-.12.24-.03.37.06.39.25,0,.08-.02.18-.08.31-.06.13-.17.29-.33.48-1.06,1.21-2.42,1.98-4.06,2.31-.21.28-.44.55-.7.81-.26.26-.53.5-.81.72-.87.65-1.62,1.02-2.28,1.08-.27.03-.5-.04-.7-.19-.19-.16-.3-.35-.33-.57-.08-.73.5-1.36,1.74-1.87.45-.18.9-.34,1.35-.48.45-.14.89-.29,1.33-.45.27-.53.45-.98.57-1.36.11-.38.16-.7.13-.96-.09-.84-.8-1.58-2.14-2.22-.53-.25-.93-.35-1.21-.31-1.16,1.57-2.18,3.71-3.07,6.41-.93,2.79-1.32,4.95-1.15,6.48.04.37.1.61.17.73.08.12.19.17.35.15.05,0,.09-.01.12-.02.03-.01.06-.02.1-.02.21-.02.32.1.35.35.03.29-.16.45-.55.49ZM114.33,53.27c.59-.06,1.39-.61,2.41-1.66-.25.06-.49.13-.72.2-.23.07-.54.19-.96.37-.69.28-1.03.58-.99.9.02.15.1.21.26.19Z"/>
      <path class="cls-3" d="M124.47,52.04c-1.29.13-2.01-.52-2.17-1.97-.07-.67.02-1.39.26-2.15.24-.77.59-1.49,1.05-2.18.46-.68.99-1.26,1.59-1.72.6-.47,1.24-.74,1.91-.81.59-.06,1.04.12,1.36.53s.51.9.56,1.44c.08.72,0,1.46-.2,2.23-.21.77-.53,1.49-.96,2.17s-.93,1.23-1.51,1.68c-.58.45-1.21.71-1.9.78ZM124.36,51.28c.09,0,.15-.02.16-.04.61-.15,1.16-.43,1.65-.85.49-.42.89-.93,1.23-1.52.33-.59.57-1.22.71-1.87.14-.66.18-1.3.11-1.92-.04-.37-.17-.64-.4-.83-.23-.18-.5-.26-.82-.23-.46.05-.93.29-1.41.73s-.91.97-1.3,1.61c-.39.64-.7,1.29-.92,1.97s-.3,1.27-.25,1.78c.09.86.5,1.25,1.24,1.18Z"/>
      <path class="cls-3" d="M133.48,51.55c-.84.09-1.53-.09-2.06-.53-.53-.44-.84-1.08-.93-1.91-.15-1.43.36-3.07,1.54-4.9.61-.94,1.25-1.67,1.93-2.2.68-.53,1.33-.83,1.97-.9.56-.06,1.01.09,1.35.44s.54.81.6,1.39c.04.35.03.71-.03,1.09-.04.26-.15.4-.34.42-.3.03-.47-.12-.51-.46-.01-.14,0-.33.03-.57.03-.24.03-.47.01-.69-.07-.64-.41-.92-1.03-.86-.33.03-.73.2-1.17.48s-.88.65-1.3,1.09c-.42.44-.78.92-1.08,1.45-.91,1.56-1.31,2.91-1.19,4.06.14,1.32.81,1.92,2,1.8.75-.08,1.45-.27,2.11-.57.66-.3,1.42-.87,2.26-1.7.53-.51.92-.91,1.18-1.21.26-.3.54-.62.84-.96.09-.07.17-.11.25-.12.08,0,.16,0,.24.05s.13.11.14.2c.02.18-.12.44-.4.79-.24.28-.5.58-.78.89-.28.31-.71.75-1.31,1.31-.64.61-1.35,1.1-2.11,1.45s-1.51.57-2.24.65Z"/>
      <path class="cls-3" d="M141.33,50.63c-.92.1-1.43-.29-1.52-1.17-.06-.57.01-1.21.22-1.9.21-.69.52-1.37.93-2.05.41-.68.89-1.31,1.42-1.89s1.1-1.06,1.69-1.43c.59-.38,1.17-.59,1.74-.66,1.02-.11,1.58.34,1.69,1.35.07.65-.06,1-.37,1.03-.29.03-.44-.09-.48-.36,0-.11,0-.23.05-.35.04-.13.06-.26.04-.41-.05-.44-.37-.64-.98-.57-.97.1-2.11.97-3.42,2.61-.31.4-.61.87-.89,1.4-.28.53-.5,1.06-.67,1.58-.16.53-.22,1.01-.17,1.46.04.43.31.62.78.57.42-.04.84-.22,1.29-.52.44-.31.83-.61,1.15-.92.64-.6,1.29-1.39,1.92-2.38.1-.14.23-.32.38-.55.15-.23.33-.48.53-.76.07-.09.16-.14.27-.15.26-.03.4.09.42.34l-.76,1.46c-.51.96-.74,1.72-.68,2.29.04.42.26.6.66.56.33-.03.69-.16,1.07-.38.38-.22.69-.43.92-.63.48-.39.96-.86,1.47-1.43.5-.56.99-1.12,1.44-1.68.06-.07.15-.11.28-.13.24-.03.37.06.39.25.02.18-.07.39-.27.63-.57.7-1.09,1.31-1.55,1.82-.46.51-.91.93-1.34,1.26-.28.21-.64.43-1.06.67-.43.24-.93.39-1.5.45-.78.08-1.21-.29-1.3-1.12-.03-.32-.02-.59.04-.8-1.3,1.54-2.58,2.37-3.82,2.5Z"/>
      <path class="cls-3" d="M165.86,49.96c-.13.01-.29-.03-.48-.13-.2-.1-.35-.2-.46-.3-.22-.22-.37-.49-.47-.82-.1-.33-.17-.69-.21-1.09-.03-.33-.06-.7-.08-1.09-.02-.39-.02-.82,0-1.27-.37.52-.78,1.04-1.25,1.55-.47.51-.96.93-1.46,1.28s-1,.54-1.47.59c-1.2.13-1.86-.45-1.99-1.72-.14-1.32.19-2.65.99-3.97.4-.65.86-1.29,1.4-1.91.53-.62,1.1-1.14,1.72-1.56.61-.42,1.24-.66,1.88-.73.48-.05.92.09,1.33.42.03-.07.06-.18.1-.33s.11-.34.19-.58c.29-.87.63-1.78,1-2.73.37-.95.7-1.74,1.01-2.36.34-.7.7-1.07,1.07-1.1.26-.03.4.16.45.56.07.69-.41,2.36-1.43,5.01-.07.15-.18.43-.34.82-.16.39-.34.85-.56,1.36-.21.51-.43,1.02-.65,1.53-.22.51-.42.96-.59,1.35-.18.4-.3.67-.38.83-.1.73-.16,1.43-.19,2.09s0,1.33.07,2.01c.03.26.07.49.11.7.05.21.12.38.23.49.09.09.18.15.29.2.1.05.22.09.35.12.19.03.3.13.32.3.03.29-.12.45-.46.48ZM159.73,47.97c.46-.05.94-.26,1.42-.62s.94-.79,1.35-1.27c.37-.43.71-.86,1.02-1.3.31-.44.59-.9.85-1.36.07-.57.16-1.14.27-1.7.11-.56.24-1.12.39-1.68-.3-.37-.68-.53-1.14-.48-.48.05-.99.28-1.53.71-.54.42-1.06.92-1.53,1.5-.48.58-.89,1.13-1.22,1.65-.69,1.15-.96,2.33-.84,3.52.08.75.4,1.09.95,1.03ZM165.93,39.85c.5-1.1.93-2.12,1.3-3.07.37-.95.65-1.84.86-2.66-.55.9-.99,1.83-1.33,2.8-.33.97-.61,1.95-.83,2.94Z"/>
      <path class="cls-3" d="M170.15,47.79c-.67.07-1.22-.1-1.65-.53-.43-.42-.68-.97-.75-1.64-.12-1.15.14-2.36.78-3.66.17-.36.38-.71.61-1.07.24-.36.5-.7.79-1.04.43-.51.89-.95,1.39-1.31.49-.36.99-.56,1.48-.61.81-.09,1.26.26,1.34,1.02.1.96-.37,1.88-1.4,2.78-.96.81-1.94,1.27-2.95,1.38-.18.02-.33.02-.47.01-.14,0-.27-.03-.38-.05-.13.32-.23.73-.31,1.22-.08.49-.1.91-.06,1.26.11,1.05.63,1.53,1.55,1.43.75-.08,1.44-.29,2.08-.62.64-.33,1.39-.92,2.23-1.74.53-.51.92-.91,1.18-1.21.26-.3.54-.62.84-.96.09-.07.17-.11.25-.12.08,0,.16,0,.25.05s.13.11.14.2c.02.18-.12.44-.4.79-.24.28-.5.58-.78.89-.27.31-.71.75-1.31,1.31-.64.61-1.36,1.12-2.16,1.51-.79.39-1.56.62-2.29.7ZM169.55,42.37c.51-.05.99-.18,1.43-.39.44-.21.86-.48,1.24-.83.85-.78,1.25-1.48,1.18-2.08-.03-.27-.21-.39-.54-.35-.64.07-1.34.53-2.1,1.4-.38.43-.68.81-.91,1.15-.23.34-.44.7-.62,1.09.1.02.2.03.32.02Z"/>
      <path class="cls-3" d="M179.59,47.02c-.74.08-1.32-.09-1.76-.5s-.69-.99-.78-1.74c-.06-.54-.03-1.21.08-1.99.2-1.33.61-2.88,1.23-4.67.48-1.35,1.02-2.7,1.61-4.02s1.25-2.64,1.98-3.94c1.17-2.09,2.02-3.16,2.56-3.22.35-.04.54.04.56.23.03.27-.35,1-1.13,2.17l-1.46,2.21c-1.27,1.9-2.26,3.82-2.99,5.75-.72,1.93-1.25,3.84-1.56,5.72-.09.54-.11,1.04-.06,1.51.13,1.21.69,1.76,1.67,1.66.35-.04.7-.18,1.04-.42.35-.23.54-.35.57-.35.19-.02.3.1.33.38.03.24-.04.43-.21.58-.51.37-1.07.59-1.69.66Z"/>
      <path class="cls-3" d="M190.8,45.43c-.92.1-1.43-.29-1.52-1.17-.06-.57.01-1.2.23-1.9.21-.69.52-1.37.93-2.05.41-.68.89-1.31,1.42-1.89.54-.58,1.1-1.06,1.69-1.43.59-.38,1.17-.59,1.74-.65,1.02-.11,1.58.34,1.69,1.35.07.65-.06,1-.37,1.03-.29.03-.44-.09-.47-.36-.01-.11,0-.23.05-.36.04-.13.06-.26.04-.4-.05-.44-.37-.64-.98-.57-.97.1-2.12.97-3.43,2.61-.31.4-.61.87-.89,1.4-.28.53-.5,1.06-.67,1.58s-.22,1.01-.17,1.46c.04.43.31.62.78.57.42-.04.84-.22,1.29-.52.44-.3.82-.61,1.15-.92.64-.6,1.29-1.39,1.92-2.38.1-.14.22-.32.38-.55s.33-.48.53-.75c.07-.09.16-.14.28-.15.25-.03.39.09.42.34l-.77,1.46c-.51.96-.74,1.72-.68,2.29.04.42.26.6.66.56.33-.03.69-.16,1.07-.38.38-.22.69-.43.93-.63.47-.39.96-.86,1.47-1.42s.99-1.12,1.44-1.69c.06-.07.15-.11.28-.12.24-.03.37.06.39.25.02.18-.08.38-.27.63-.57.7-1.09,1.31-1.55,1.82-.46.51-.91.93-1.34,1.26-.28.21-.64.43-1.06.67-.43.24-.93.39-1.5.45-.78.08-1.22-.29-1.3-1.12-.03-.32-.02-.59.04-.8-1.3,1.54-2.58,2.37-3.82,2.5Z"/>
      <path class="cls-3" d="M200.73,44.75c-.25.03-.39-.06-.41-.27,0-.08.01-.18.06-.31.05-.13.1-.23.13-.32l1.7-4.55c.73-1.98,1.08-3.07,1.05-3.28-.02-.22.08-.35.3-.37.3-.03.47.11.51.43,0,.11-.04.36-.14.74-.11.38-.24.82-.42,1.3-.3.87-.55,1.54-.75,2.01.42-.61.85-1.18,1.29-1.73.44-.55.89-1.07,1.35-1.57,1.38-1.48,2.47-2.26,3.28-2.35.56-.06.86.18.92.7.05.48-.24,1.6-.88,3.35-.63,1.77-.93,2.88-.88,3.33.02.21.1.31.25.29.05,0,.12-.03.22-.08.1-.05.21-.08.32-.1.27-.03.42.09.45.34.03.32-.29.51-.98.59-.32.03-.56-.02-.72-.15-.16-.13-.25-.33-.28-.59-.08-.77.19-1.97.8-3.61.62-1.63.91-2.6.88-2.92-.02-.19-.1-.28-.25-.26-.35.04-.89.39-1.6,1.06-.78.73-1.55,1.55-2.3,2.46-.76.92-1.46,1.95-2.12,3.1l-1.43,2.5c-.08.15-.2.24-.36.26ZM205.63,33.46c-.07,0-.13,0-.2-.04s-.09-.11-.07-.22c.03-.15.09-.33.18-.55.09-.22.24-.42.47-.61s.53-.3.91-.34c.29-.03.52,0,.7.1.18.1.34.19.49.3.15.1.33.15.53.12.27-.03.46-.14.57-.33.11-.19.2-.34.26-.46.07-.09.15-.14.23-.14.22-.02.32.1.28.36-.05.26-.18.54-.4.83-.21.29-.54.46-.99.5-.22.02-.43-.02-.62-.12-.19-.1-.38-.2-.58-.3-.19-.1-.42-.14-.68-.11-.22.03-.38.12-.49.28-.11.16-.2.34-.29.53-.05.12-.16.18-.32.2Z"/>
      <path class="cls-3" d="M212.96,42.74c-1.29.14-2.01-.52-2.17-1.97-.07-.67.02-1.39.26-2.15.24-.77.59-1.49,1.05-2.18.46-.68.99-1.26,1.6-1.72s1.24-.73,1.91-.8c.59-.06,1.04.11,1.36.53.32.42.5.9.56,1.44.08.72,0,1.46-.2,2.23-.21.77-.53,1.49-.95,2.16-.43.67-.94,1.23-1.51,1.68-.58.45-1.21.71-1.9.78ZM212.86,41.98c.1,0,.15-.02.17-.04.61-.15,1.16-.43,1.65-.85.48-.42.89-.93,1.23-1.52.33-.59.57-1.22.71-1.87s.18-1.3.11-1.92c-.04-.37-.17-.64-.4-.83-.23-.18-.5-.26-.82-.23-.46.05-.93.29-1.41.73-.48.44-.91.97-1.3,1.61-.39.64-.7,1.3-.92,1.97s-.3,1.27-.25,1.78c.09.86.5,1.25,1.23,1.18Z"/>
      <path class="cls-3" d="M228.76,41.53c-.84.09-1.53-.09-2.06-.53-.53-.44-.84-1.08-.93-1.91-.15-1.43.36-3.07,1.54-4.9.61-.93,1.26-1.67,1.93-2.19.68-.53,1.33-.83,1.97-.9.56-.06,1.01.09,1.35.44.34.35.54.81.6,1.39.04.35.03.71-.03,1.09-.03.26-.15.4-.34.42-.3.03-.47-.12-.51-.46-.02-.14,0-.33.03-.57.03-.23.03-.46.01-.69-.07-.64-.41-.92-1.03-.86-.33.04-.73.2-1.17.49s-.88.65-1.3,1.09c-.42.44-.78.92-1.08,1.45-.92,1.56-1.31,2.92-1.19,4.06.14,1.32.81,1.92,2,1.79.75-.08,1.45-.27,2.11-.57.66-.3,1.42-.87,2.26-1.7.53-.51.92-.91,1.18-1.21.26-.3.54-.62.84-.96.09-.07.17-.11.25-.12.08,0,.16,0,.25.05.08.04.13.11.14.2.02.18-.11.44-.4.79-.24.28-.5.58-.78.89-.28.31-.71.75-1.31,1.31-.64.61-1.35,1.1-2.11,1.45s-1.51.57-2.24.64Z"/>
      <path class="cls-3" d="M237.55,40.15c-1.29.14-2.01-.52-2.17-1.97-.07-.67.02-1.38.26-2.15.24-.77.59-1.49,1.05-2.18.46-.68.99-1.26,1.59-1.72s1.24-.73,1.91-.8c.59-.06,1.04.11,1.36.53.32.42.51.9.56,1.44.08.72,0,1.46-.2,2.23-.21.77-.53,1.49-.96,2.16-.43.67-.93,1.23-1.51,1.68-.58.45-1.21.71-1.9.78ZM237.45,39.39c.09,0,.15-.02.16-.04.61-.15,1.16-.43,1.65-.85.49-.42.89-.93,1.23-1.52.33-.59.57-1.22.71-1.87.14-.66.18-1.3.11-1.92-.04-.37-.17-.64-.4-.83-.23-.18-.5-.26-.82-.23-.46.05-.93.29-1.41.73-.48.44-.91.98-1.3,1.61-.39.64-.7,1.3-.92,1.97s-.3,1.27-.25,1.78c.09.86.5,1.25,1.24,1.18Z"/>
      <path class="cls-3" d="M242.86,40.32c-.26.03-.39-.06-.42-.27,0-.08.01-.18.06-.31.05-.13.1-.23.14-.32l1.7-4.55c.73-1.98,1.08-3.07,1.06-3.28-.02-.22.08-.35.3-.37.3-.03.47.11.5.43.01.11-.03.36-.14.74-.1.38-.24.82-.42,1.3-.29.87-.55,1.54-.75,2.01.42-.61.85-1.18,1.29-1.73.44-.55.89-1.07,1.35-1.57,1.38-1.48,2.47-2.26,3.28-2.35.56-.06.86.18.92.7.05.48-.24,1.6-.88,3.35-.64,1.78-.93,2.89-.88,3.33.02.21.1.3.25.29.05,0,.12-.03.22-.08.1-.05.2-.08.32-.09.27-.03.42.08.44.34.03.32-.29.51-.98.59-.32.03-.56-.02-.72-.15-.16-.13-.25-.33-.28-.59-.08-.77.19-1.97.8-3.61.62-1.63.91-2.6.88-2.92-.02-.19-.1-.28-.24-.26-.35.04-.89.39-1.61,1.06-.78.73-1.55,1.55-2.3,2.47-.76.92-1.46,1.95-2.12,3.1l-1.43,2.49c-.08.15-.2.24-.36.26Z"/>
    </g>
    <g>
      <path class="cls-3" d="M17.67,85.15c-.78.08-1.23-.44-1.35-1.57-.06-.61,0-1.35.2-2.24-1.69,2.45-3.09,3.73-4.19,3.85-.91.1-1.42-.41-1.54-1.51-.04-.41-.03-.92.05-1.52.08-.59.19-1.22.36-1.86.17-.65.36-1.25.57-1.82s.44-1.04.68-1.4c.08-.12.2-.19.34-.2.08,0,.16.01.25.06.08.05.13.13.14.24,0,.1-.03.24-.13.42-.59,1.25-1,2.34-1.2,3.24-.28,1.05-.38,1.93-.3,2.67.07.69.28,1.01.64.97.22-.02.51-.17.85-.43.34-.26.69-.57,1.05-.94.36-.37.66-.71.92-1.03.71-.93,1.33-1.9,1.87-2.93.24-.48.45-.94.64-1.38.19-.45.35-.91.49-1.39.06-.18.12-.32.16-.42s.13-.15.24-.16c.33-.04.51.07.54.33.02.16-.03.28-.13.35-1.28,3.47-1.85,5.82-1.72,7.07.03.33.09.57.17.7.08.13.19.18.35.17.22-.02.55-.2,1-.54s.95-.83,1.52-1.49l2.27-2.56c.11-.14.23-.22.34-.23.25-.03.39.08.42.32.02.21-.42.82-1.33,1.83-.39.44-.74.82-1.04,1.12-.31.31-.59.58-.86.82-.5.44-.95.79-1.34,1.05-.39.26-.7.4-.92.42Z"/>
      <path class="cls-3" d="M22.19,84.45c-.26.03-.39-.07-.42-.27,0-.08.01-.18.06-.31.05-.12.1-.23.14-.32l1.7-4.55c.73-1.98,1.08-3.07,1.06-3.28-.03-.22.08-.34.3-.37.3-.03.47.11.51.43,0,.11-.03.36-.14.74-.11.38-.24.82-.42,1.3-.29.87-.55,1.54-.75,2.01.42-.61.85-1.18,1.29-1.73.44-.55.89-1.07,1.35-1.57,1.38-1.48,2.47-2.26,3.28-2.35.56-.06.86.18.92.7.05.48-.24,1.6-.88,3.36-.64,1.77-.93,2.88-.88,3.33.02.21.1.3.25.29.05,0,.12-.03.22-.08.1-.05.21-.08.32-.1.27-.03.42.08.44.34.03.32-.29.51-.98.59-.32.03-.56-.02-.72-.15-.16-.14-.25-.33-.28-.59-.08-.77.19-1.97.81-3.61.62-1.63.91-2.6.88-2.92-.02-.19-.1-.28-.25-.26-.35.04-.88.39-1.6,1.06-.78.73-1.55,1.55-2.3,2.46-.76.92-1.46,1.95-2.12,3.1l-1.43,2.49c-.08.15-.2.24-.36.26Z"/>
      <path class="cls-3" d="M33.5,82.9c-.92.1-1.43-.29-1.52-1.17-.06-.57.01-1.21.22-1.9.21-.69.52-1.37.93-2.05.41-.68.89-1.31,1.42-1.89.54-.58,1.1-1.06,1.69-1.43.59-.38,1.17-.6,1.74-.66,1.02-.11,1.58.34,1.69,1.35.07.65-.06,1-.38,1.03-.29.03-.44-.09-.47-.36-.01-.11,0-.23.05-.36.04-.12.06-.26.04-.4-.05-.45-.37-.64-.98-.57-.97.1-2.12.97-3.43,2.61-.31.4-.61.87-.89,1.4-.28.53-.5,1.05-.67,1.58-.16.53-.22,1.01-.17,1.46.04.43.31.62.79.57.41-.04.84-.22,1.29-.52.44-.3.83-.61,1.15-.92.64-.6,1.29-1.39,1.92-2.38.1-.14.22-.32.38-.55.15-.23.33-.48.53-.76.07-.09.16-.14.28-.15.25-.03.39.09.42.34l-.77,1.46c-.51.96-.74,1.72-.68,2.3.04.41.26.6.66.56.33-.03.69-.16,1.07-.38s.69-.43.92-.63c.48-.39.97-.86,1.47-1.42.5-.56.99-1.12,1.44-1.69.06-.07.15-.11.28-.13.24-.03.37.06.39.25.02.18-.07.39-.27.63-.57.71-1.09,1.31-1.55,1.82-.46.51-.91.93-1.34,1.26-.28.21-.64.43-1.06.67-.43.24-.93.39-1.5.45-.78.08-1.22-.29-1.3-1.12-.03-.32-.02-.59.04-.8-1.3,1.54-2.58,2.37-3.82,2.5Z"/>
      <path class="cls-3" d="M50.29,82.56c-.3.03-.48-.19-.53-.67-.07-.7.19-1.97.8-3.8.6-1.84,1.54-4.25,2.8-7.25-.6.06-1.17.2-1.68.41-.52.21-.78.43-.79.65-.01.07-.04.13-.09.19-.05.06-.13.1-.24.11-.26.03-.4-.09-.42-.34-.04-.41.25-.79.87-1.13.63-.34,1.53-.57,2.71-.7l1.36-2.9c.09-.18.19-.39.29-.62.11-.23.23-.48.36-.75.14-.24.31-.37.52-.39.13-.01.23.01.3.08.07.06.11.14.12.22.03.24-.26.91-.85,2.02-.74,1.38-1.14,2.13-1.19,2.25.24-.03.6-.04,1.08-.05.48-.01,1.05-.01,1.71,0,.24,0,.37.1.4.32.03.26-.1.4-.39.43-.11.01-.33.01-.67.01-.34,0-.7,0-1.09,0-.38,0-.71.03-.98.08l-.36.06c-2.63,6.03-3.87,9.73-3.71,11.12l.04.19v.05c.03.26-.09.4-.36.43Z"/>
      <path class="cls-3" d="M57.23,80.6c-.67.07-1.22-.1-1.65-.53-.43-.42-.68-.97-.75-1.64-.12-1.15.14-2.37.78-3.66.17-.36.38-.71.61-1.07.23-.36.5-.7.78-1.04.43-.51.89-.95,1.39-1.3.49-.36.99-.56,1.48-.61.81-.08,1.26.26,1.34,1.02.1.96-.37,1.88-1.4,2.78-.96.81-1.94,1.27-2.95,1.37-.18.02-.33.03-.47.01-.14,0-.26-.03-.38-.05-.13.32-.23.73-.31,1.22-.08.49-.1.91-.06,1.26.11,1.05.63,1.53,1.55,1.43.75-.08,1.45-.28,2.09-.62s1.39-.92,2.23-1.74c.53-.51.92-.91,1.18-1.21.26-.3.54-.62.84-.96.09-.07.17-.11.25-.12.08,0,.16,0,.24.05.08.04.13.11.14.2.02.18-.12.44-.4.79-.24.28-.5.58-.78.89-.28.31-.71.74-1.31,1.31-.64.61-1.36,1.12-2.16,1.51-.8.39-1.56.62-2.3.7ZM56.64,75.18c.51-.05.99-.18,1.43-.39.45-.21.86-.48,1.24-.83.85-.78,1.25-1.48,1.18-2.08-.03-.27-.21-.39-.54-.36-.64.07-1.34.54-2.1,1.41-.37.43-.68.81-.9,1.15-.23.34-.44.7-.62,1.09.1.02.2.03.32.02Z"/>
      <path class="cls-3" d="M62.34,80.23c-.27.03-.42-.08-.45-.34-.01-.13.15-.42.5-.89.34-.46.89-1.08,1.63-1.85l2.61-2.74c-.16-.42-.3-.79-.42-1.12-.12-.33-.23-.6-.34-.81-.4-.89-.73-1.44-1-1.66-.1-.09-.16-.18-.18-.3-.03-.24.08-.37.32-.4.37-.04.81.48,1.32,1.55.16.35.32.71.47,1.06l.45,1.07c1.59-1.62,2.61-2.72,3.08-3.32.11-.14.19-.25.23-.32.04-.07.07-.13.08-.18.06-.18.19-.29.38-.31.26-.03.39.08.42.32.05.48-1.24,1.99-3.87,4.54.26.65.53,1.26.79,1.82s.56,1.02.88,1.37c.32.35.65.5,1,.46.33-.03.68-.16,1.04-.37.36-.21.71-.47,1.07-.78.36-.3.67-.59.95-.86.53-.51.92-.91,1.18-1.21.26-.3.54-.62.84-.96.09-.07.17-.11.25-.12.08,0,.16,0,.25.05.08.04.13.11.14.2.02.18-.12.44-.4.79-.24.28-.5.58-.78.89-.28.31-.71.75-1.31,1.31-.26.25-.58.51-.94.77s-.74.49-1.11.67c-.38.18-.72.29-1.04.33-.54.06-1.02-.09-1.44-.44s-.79-.82-1.1-1.42c-.32-.59-.62-1.22-.9-1.89l-2.24,2.36c-.45.46-.85.91-1.19,1.33s-.64.82-.89,1.18c-.05.1-.15.16-.29.17Z"/>
      <path class="cls-3" d="M75.74,79.89c-.3.03-.48-.19-.53-.67-.08-.7.19-1.97.79-3.8.6-1.84,1.54-4.25,2.8-7.25-.6.06-1.16.2-1.68.41-.52.21-.78.43-.79.65-.01.07-.04.13-.09.19-.05.06-.13.1-.24.11-.26.03-.39-.09-.42-.34-.04-.42.25-.79.87-1.13.62-.34,1.52-.57,2.7-.7l1.36-2.9c.09-.18.19-.39.29-.62.11-.23.23-.48.36-.75.14-.24.31-.37.52-.39.13-.01.23.01.3.08.07.06.11.14.12.22.03.24-.26.91-.85,2.02-.74,1.38-1.14,2.13-1.19,2.25.24-.03.6-.04,1.08-.05.48-.01,1.05-.01,1.71,0,.24,0,.38.1.4.32.03.26-.1.4-.39.43-.11.01-.34.01-.68.01-.34,0-.7,0-1.09,0-.38,0-.71.03-.98.08l-.35.06c-2.64,6.03-3.87,9.73-3.71,11.12l.04.19v.05c.03.26-.09.4-.36.43Z"/>
      <path class="cls-3" d="M87.24,77.83c-.78.08-1.23-.44-1.35-1.57-.06-.61,0-1.35.2-2.24-1.69,2.45-3.09,3.73-4.19,3.85-.91.1-1.42-.41-1.53-1.51-.04-.41-.03-.92.04-1.51.08-.59.19-1.22.36-1.86.16-.65.35-1.25.57-1.82.22-.57.44-1.04.68-1.4.08-.12.2-.19.34-.2.08,0,.16.01.25.06.08.05.13.13.15.24,0,.1-.03.24-.13.42-.59,1.25-1,2.34-1.2,3.24-.28,1.05-.38,1.93-.3,2.67.07.69.28,1.01.63.97.23-.02.51-.17.85-.43.34-.26.69-.57,1.05-.94.35-.37.66-.71.92-1.03.71-.93,1.33-1.9,1.86-2.93.24-.48.45-.94.64-1.38.18-.44.35-.91.49-1.39.06-.19.11-.32.16-.42.05-.09.13-.14.24-.16.33-.03.52.07.54.33.02.16-.03.28-.13.35-1.28,3.47-1.85,5.82-1.72,7.07.03.33.09.57.17.7.08.13.2.18.36.17.22-.02.55-.2,1-.54.44-.34.94-.83,1.52-1.49l2.27-2.56c.11-.14.23-.22.34-.23.26-.03.4.08.42.32.02.21-.42.82-1.33,1.83-.39.44-.74.82-1.04,1.12-.31.31-.59.58-.86.82-.5.44-.95.79-1.34,1.05-.39.26-.7.4-.92.42Z"/>
      <path class="cls-3" d="M91.76,77.14c-.26.03-.39-.06-.42-.27,0-.1,0-.19.05-.3s.08-.19.11-.25l1.71-4.63c.73-1.98,1.08-3.07,1.05-3.28-.02-.22.08-.34.3-.37.3-.03.47.1.5.41.02.16-.03.42-.13.79-.11.37-.25.79-.42,1.28-.3.87-.55,1.54-.76,2.01.42-.61.85-1.18,1.29-1.73.44-.55.89-1.07,1.36-1.57,1.38-1.48,2.47-2.26,3.28-2.35.56-.06.86.18.92.7.05.51-.09.78-.42.82-.16.02-.29-.11-.4-.37-.07-.19-.19-.27-.37-.25-.27.03-.77.38-1.48,1.05-.79.73-1.58,1.58-2.36,2.54-.78.97-1.58,2.18-2.41,3.64l-1.02,1.8c-.06.09-.11.16-.16.22-.05.06-.13.1-.24.11Z"/>
      <path class="cls-3" d="M100.73,75.84c-.92.1-1.43-.29-1.52-1.17-.06-.57.02-1.21.23-1.9.21-.69.52-1.37.93-2.06.41-.68.89-1.31,1.42-1.89.54-.58,1.1-1.06,1.69-1.43.59-.38,1.17-.6,1.74-.66,1.02-.11,1.58.34,1.69,1.35.07.65-.06,1-.38,1.03-.29.03-.44-.09-.47-.36-.01-.11,0-.23.05-.36s.06-.26.04-.4c-.05-.45-.37-.64-.98-.58-.97.1-2.12.97-3.42,2.61-.31.4-.61.87-.89,1.4-.28.53-.5,1.06-.67,1.58-.16.53-.22,1.01-.17,1.45.04.43.31.62.79.57.41-.04.84-.22,1.29-.52.44-.3.83-.61,1.15-.92.64-.6,1.29-1.39,1.92-2.37.1-.14.22-.32.38-.55.15-.23.33-.48.53-.76.07-.09.16-.14.28-.15.25-.03.39.09.42.34l-.77,1.46c-.51.96-.74,1.72-.68,2.3.04.41.27.6.66.56.33-.04.69-.16,1.07-.38s.69-.43.93-.63c.48-.39.96-.86,1.47-1.42.5-.56.98-1.12,1.44-1.68.06-.07.15-.11.28-.13.24-.03.37.06.39.25.02.18-.07.39-.27.63-.57.71-1.09,1.31-1.55,1.82s-.91.93-1.34,1.26c-.28.21-.64.43-1.06.67s-.93.39-1.5.45c-.78.08-1.21-.29-1.3-1.12-.03-.32-.02-.59.03-.8-1.3,1.54-2.58,2.37-3.82,2.5Z"/>
      <path class="cls-3" d="M117.87,74.59c-.89.09-1.37-.15-1.43-.74-.04-.37.06-.75.28-1.14.22-.39.5-.76.84-1.1.33-.34.65-.61.95-.8.09-.06.22-.12.38-.18.16-.06.3-.1.41-.12.13-.01.2.03.21.12,0,.08-.07.18-.23.29-.69.43-1.22.9-1.58,1.43-.36.53-.52.94-.48,1.25.03.29.29.41.79.35.42-.04.85-.2,1.32-.45.47-.26.9-.58,1.3-.96s.73-.78.98-1.19c.24-.41.35-.79.31-1.14-.03-.24-.13-.45-.29-.62-.17-.17-.43-.29-.78-.35l-1.63-.31c-.41-.08-.72-.22-.91-.41-.2-.19-.31-.41-.33-.66-.05-.48.08-.93.4-1.35.32-.42.74-.77,1.25-1.05.52-.28,1.03-.45,1.54-.5s.97.02,1.38.23c.41.21.63.52.68.93.03.24-.02.47-.13.69-.12.22-.26.34-.43.36-.27.03-.42-.07-.44-.29,0-.08.03-.19.1-.31.08-.13.11-.25.1-.36-.05-.48-.44-.68-1.18-.6-.4.04-.78.17-1.16.38-.37.21-.67.46-.9.76-.23.3-.32.6-.29.92.03.32.38.54,1.04.66l1.58.32c.48.09.82.26,1.02.48s.32.49.35.8c.08.72-.28,1.51-1.08,2.36-1.29,1.41-2.59,2.18-3.91,2.32Z"/>
      <path class="cls-3" d="M131.52,73.18c-.78.08-1.23-.44-1.35-1.57-.07-.61,0-1.35.2-2.24-1.69,2.45-3.09,3.73-4.19,3.85-.91.1-1.42-.41-1.53-1.51-.04-.41-.03-.92.04-1.51.08-.59.19-1.22.36-1.86.17-.65.36-1.25.57-1.82.22-.57.44-1.04.68-1.4.08-.12.2-.19.34-.2.08,0,.16.01.25.06.08.05.13.13.14.24.01.1-.03.24-.12.42-.59,1.25-1,2.34-1.21,3.24-.28,1.04-.38,1.93-.3,2.66.07.69.28,1.01.63.97.22-.02.51-.17.85-.43.34-.26.69-.57,1.05-.94.35-.37.66-.71.92-1.03.71-.93,1.33-1.9,1.87-2.93.24-.48.45-.94.64-1.38.18-.44.35-.91.49-1.39.06-.19.12-.32.16-.42.05-.09.13-.14.24-.16.33-.03.51.07.54.33.02.16-.03.28-.13.35-1.28,3.47-1.85,5.82-1.72,7.07.03.33.09.57.17.7.08.13.2.18.36.17.22-.02.55-.2.99-.54.44-.34.95-.83,1.52-1.49l2.27-2.56c.11-.14.23-.22.34-.23.26-.03.39.08.42.32.02.21-.42.82-1.33,1.83-.39.44-.74.82-1.04,1.12-.3.31-.59.58-.85.82-.5.44-.95.79-1.34,1.05-.39.26-.7.4-.92.42Z"/>
      <path class="cls-3" d="M138.01,71.92c-.92.1-1.43-.29-1.52-1.17-.06-.57.02-1.21.23-1.9.21-.69.52-1.37.93-2.05.41-.68.89-1.31,1.42-1.89.54-.58,1.1-1.06,1.69-1.43s1.17-.6,1.74-.66c1.02-.11,1.58.34,1.69,1.35.07.65-.06,1-.38,1.03-.29.03-.44-.09-.47-.36-.01-.11,0-.23.05-.35.04-.13.06-.26.04-.4-.05-.45-.37-.64-.98-.57-.97.1-2.12.97-3.43,2.61-.31.4-.61.87-.89,1.4-.28.53-.5,1.06-.67,1.58-.16.53-.22,1.01-.17,1.46.04.43.31.62.79.57.41-.04.84-.22,1.29-.52.44-.31.83-.61,1.15-.92.64-.6,1.29-1.39,1.92-2.38.1-.14.22-.32.38-.55s.33-.48.53-.76c.07-.09.16-.14.28-.15.25-.03.39.09.42.34l-.77,1.46c-.51.96-.74,1.72-.68,2.3.04.41.26.6.66.56.33-.03.69-.16,1.07-.38.38-.22.69-.43.93-.63.47-.39.96-.86,1.47-1.42.5-.56.99-1.12,1.44-1.69.06-.07.15-.11.28-.13.24-.03.37.06.39.25.02.18-.07.39-.27.63-.57.7-1.09,1.31-1.55,1.82-.46.51-.91.93-1.34,1.26-.28.21-.64.43-1.06.67-.43.24-.93.39-1.5.45-.78.08-1.22-.29-1.3-1.12-.03-.32-.02-.59.04-.8-1.3,1.54-2.58,2.37-3.82,2.5Z"/>
      <path class="cls-3" d="M150.13,70.65c-.19.02-.3-.04-.31-.19-.3-.42-.53-1.32-.67-2.71-.03-.33-.06-.79-.07-1.35,0-.56,0-1.15,0-1.76.02-.61.04-1.18.09-1.69s.11-.89.2-1.12c.08-.2.18-.31.33-.32.25-.03.39.06.41.27.01.11,0,.22-.01.33-.02.11-.04.23-.06.38-.12.82-.2,1.68-.23,2.58-.03.91.01,1.83.11,2.77.05.43.11.81.18,1.14.08.33.15.61.22.85.43-.22.89-.62,1.37-1.2.49-.57.95-1.21,1.4-1.9.36-.57.68-1.14.97-1.72.29-.58.5-1.12.65-1.61.15-.5.21-.9.18-1.2-.02-.21-.06-.35-.11-.42-.05-.08-.1-.14-.15-.18-.05-.04-.09-.13-.1-.26-.03-.24.08-.37.32-.4.16-.02.32.09.47.31s.25.52.29.89c.12,1.13-.5,2.8-1.86,5-1.41,2.23-2.62,3.39-3.62,3.5Z"/>
      <path class="cls-3" d="M158.77,69.93c-.67.07-1.22-.11-1.65-.53-.43-.42-.68-.97-.75-1.64-.12-1.15.14-2.37.78-3.66.17-.36.38-.71.61-1.07.23-.36.5-.7.78-1.04.43-.51.89-.95,1.39-1.3s.99-.56,1.48-.61c.81-.08,1.26.26,1.34,1.02.1.96-.37,1.88-1.4,2.78-.96.81-1.94,1.27-2.95,1.37-.18.02-.33.02-.47.01-.14,0-.26-.03-.38-.05-.13.32-.23.73-.31,1.22-.08.49-.1.91-.06,1.26.11,1.05.63,1.53,1.55,1.43.75-.08,1.45-.28,2.09-.62s1.39-.92,2.23-1.74c.53-.51.92-.91,1.18-1.21.26-.3.54-.62.84-.96.09-.08.17-.12.25-.12.08,0,.16,0,.24.05.08.04.13.11.14.2.02.18-.12.44-.4.79-.24.28-.5.58-.78.89-.28.31-.71.74-1.31,1.31-.64.61-1.36,1.12-2.16,1.51-.8.39-1.56.62-2.3.7ZM158.18,64.51c.51-.05.99-.18,1.43-.39.45-.21.86-.48,1.24-.83.85-.78,1.25-1.48,1.18-2.08-.03-.27-.21-.39-.54-.36-.64.07-1.34.54-2.1,1.41-.37.43-.68.81-.9,1.15-.23.34-.44.7-.62,1.09.1.02.2.03.32.02Z"/>
      <path class="cls-3" d="M172.64,68.3c-.44.05-.78,0-1-.16-.22-.15-.34-.41-.38-.76-.03-.33.02-.8.17-1.41s.35-1.26.6-1.96c.26-.7.54-1.38.84-2.02.3-.64.61-1.18.91-1.61.3-.42.56-.65.76-.67.28-.03.44.08.47.34.02.16-.09.48-.31.95-.23.47-.47.97-.74,1.48-.11.19-.26.45-.45.77-.19.33-.38.63-.56.92-.18.29-.3.48-.35.58-.13.26-.26.66-.38,1.22-.13.56-.18.99-.16,1.27.01.13.05.22.12.28.06.06.2.08.4.05.4-.04.83-.22,1.3-.52.47-.31.93-.68,1.4-1.12s.91-.9,1.32-1.36c.41-.46.76-.86,1.05-1.2.06-.07.15-.11.28-.13.24-.03.37.06.39.25.02.18-.07.39-.27.63-.38.48-.74.9-1.07,1.28-.33.37-.65.7-.96.99-.48.44-1.03.85-1.63,1.23s-1.19.61-1.74.67ZM175.69,58.2c-.27.03-.42-.09-.45-.36,0-.08.03-.23.12-.46.09-.23.19-.46.31-.7.12-.24.22-.4.28-.49.24-.33.43-.55.58-.64.14-.1.28-.15.4-.16.33-.03.52.1.55.4.01.11-.04.25-.16.42s-.26.32-.42.47c-.24.19-.38.33-.43.43l-.45.8c0,.07-.04.13-.09.19s-.13.1-.24.11Z"/>
      <path class="cls-3" d="M177.38,68.14c-.25.03-.39-.07-.42-.27,0-.08.01-.18.07-.31.05-.12.1-.23.13-.32l1.7-4.55c.73-1.98,1.08-3.07,1.06-3.28-.02-.22.08-.35.3-.37.3-.03.47.11.5.43.01.11-.03.36-.14.74-.11.38-.25.82-.42,1.3-.3.87-.55,1.54-.76,2.01.42-.61.85-1.18,1.29-1.73.44-.55.89-1.07,1.36-1.57,1.38-1.48,2.47-2.26,3.28-2.35.56-.06.86.18.92.7.05.48-.24,1.6-.88,3.36-.64,1.77-.93,2.88-.88,3.33.02.21.11.3.25.29.05,0,.12-.03.22-.08.1-.05.21-.08.32-.1.27-.03.42.08.45.34.03.32-.29.51-.98.59-.32.03-.56-.02-.72-.15-.16-.14-.25-.33-.28-.59-.08-.77.19-1.97.8-3.61.62-1.63.91-2.6.88-2.92-.02-.19-.1-.28-.25-.26-.35.04-.89.39-1.61,1.06-.78.73-1.54,1.55-2.3,2.46-.76.92-1.46,1.95-2.12,3.1l-1.43,2.5c-.08.15-.2.24-.36.26Z"/>
      <path class="cls-3" d="M188.21,67.2c-.89.09-1.37-.15-1.43-.74-.04-.37.06-.75.28-1.14.23-.39.5-.76.84-1.1.33-.34.65-.61.95-.8.09-.06.22-.12.38-.18.16-.06.3-.1.41-.12.13-.01.2.03.21.12,0,.08-.07.18-.23.29-.7.43-1.22.91-1.58,1.43-.36.53-.52.94-.48,1.25.03.29.29.41.79.35.41-.04.85-.2,1.32-.45.47-.26.9-.58,1.3-.96s.73-.78.97-1.19c.25-.41.35-.79.32-1.14-.03-.24-.13-.45-.29-.62-.17-.17-.43-.29-.78-.35l-1.63-.31c-.41-.08-.72-.22-.91-.41-.2-.19-.31-.41-.33-.66-.05-.48.08-.93.4-1.35.32-.42.74-.77,1.25-1.05.52-.28,1.03-.45,1.54-.5s.97.02,1.38.23c.41.21.64.52.68.93.03.24-.02.47-.13.69-.12.22-.26.34-.43.36-.27.03-.42-.07-.44-.29,0-.08.03-.19.1-.31.08-.13.11-.25.1-.36-.05-.48-.44-.68-1.18-.6-.4.04-.79.17-1.16.38-.37.21-.67.46-.9.76-.23.3-.32.6-.29.92.03.32.38.54,1.04.66l1.58.32c.48.09.82.26,1.02.48s.32.49.35.8c.08.72-.28,1.51-1.08,2.36-1.29,1.41-2.59,2.18-3.91,2.32Z"/>
      <path class="cls-3" d="M201.85,65.79c-.78.08-1.23-.44-1.35-1.57-.07-.61,0-1.35.2-2.24-1.69,2.45-3.09,3.73-4.19,3.85-.91.1-1.42-.41-1.54-1.51-.04-.41-.03-.92.05-1.51.08-.59.19-1.22.36-1.86.17-.65.36-1.25.57-1.82.22-.57.44-1.04.68-1.4.08-.12.2-.19.34-.2.08,0,.16.01.25.06.08.05.13.13.14.24.01.1-.03.24-.12.42-.59,1.25-1,2.34-1.21,3.24-.28,1.04-.38,1.93-.3,2.66.07.69.28,1.01.63.97.22-.02.51-.17.85-.43.34-.26.69-.57,1.05-.94.35-.37.66-.71.92-1.03.71-.93,1.33-1.9,1.87-2.93.24-.48.45-.94.64-1.38.19-.44.35-.91.49-1.39.06-.19.12-.32.16-.42.05-.09.13-.14.24-.16.33-.03.51.07.54.33.02.16-.03.28-.13.35-1.28,3.47-1.85,5.82-1.72,7.07.04.33.09.57.17.7.08.13.2.18.35.17.23-.02.56-.2,1-.54.44-.34.95-.83,1.52-1.49l2.27-2.56c.11-.14.23-.22.34-.23.25-.03.39.08.42.32.02.21-.42.82-1.33,1.83-.39.44-.74.82-1.04,1.12-.3.31-.59.58-.85.82-.5.44-.95.79-1.34,1.05-.39.26-.7.4-.92.42Z"/>
      <path class="cls-3" d="M206.74,71.12c-.75.08-1.18-.42-1.29-1.48-.15-1.4.23-3.7,1.14-6.89.15-.53.34-1.09.57-1.68s.5-1.21.82-1.87c.33-.71.65-1.33.95-1.86.31-.53.58-.96.82-1.29.08-.1.16-.18.23-.22.07-.04.13-.06.18-.07.41-.04.89.03,1.45.21.55.18,1.05.44,1.51.76.42.28.77.63,1.05,1.05.28.42.45.87.5,1.35.04.35,0,.71-.09,1.08-.1.37-.24.75-.43,1.12.41-.12.89-.36,1.46-.71s1.13-.85,1.69-1.51c.06-.07.14-.11.25-.12.24-.03.37.06.39.25,0,.08-.02.18-.08.31-.06.13-.17.29-.33.48-1.06,1.21-2.42,1.98-4.06,2.31-.21.28-.44.55-.7.81-.26.26-.53.5-.81.72-.87.66-1.62,1.02-2.28,1.09-.27.03-.5-.03-.7-.19-.19-.16-.3-.34-.33-.57-.08-.73.5-1.36,1.74-1.87.45-.18.9-.34,1.35-.48.45-.14.89-.3,1.33-.46.27-.53.46-.98.57-1.36.11-.38.16-.7.13-.96-.09-.84-.8-1.58-2.14-2.21-.53-.25-.93-.35-1.22-.31-1.16,1.57-2.18,3.71-3.07,6.41-.93,2.79-1.32,4.95-1.15,6.48.04.37.1.61.17.73.08.12.2.17.36.16.05,0,.08-.01.12-.02s.06-.02.1-.02c.21-.02.32.1.35.35.03.29-.15.45-.55.49ZM209.78,64.18c.59-.06,1.39-.61,2.41-1.66-.25.06-.49.13-.72.2-.23.07-.54.2-.96.37-.69.28-1.02.58-.99.9.02.14.1.21.26.19Z"/>
      <path class="cls-3" d="M220.29,63.46c-.67.07-1.22-.11-1.65-.53-.43-.42-.68-.97-.75-1.64-.12-1.15.14-2.37.78-3.66.17-.36.38-.71.61-1.07.24-.36.5-.7.79-1.04.43-.51.89-.95,1.39-1.3.49-.36.99-.56,1.48-.61.81-.09,1.26.26,1.34,1.02.1.96-.37,1.88-1.4,2.78-.96.81-1.95,1.27-2.95,1.37-.18.02-.33.02-.47.01-.14,0-.27-.02-.38-.05-.13.32-.23.73-.31,1.22-.08.49-.1.91-.06,1.26.11,1.05.63,1.53,1.55,1.43.75-.08,1.44-.28,2.08-.62s1.39-.92,2.23-1.75c.53-.5.92-.91,1.18-1.21.26-.3.54-.62.84-.96.09-.07.17-.11.25-.12.08,0,.16,0,.25.05s.13.11.14.2c.02.18-.12.44-.4.79-.24.28-.5.58-.78.89-.27.31-.71.75-1.31,1.31-.64.61-1.36,1.12-2.16,1.51-.79.39-1.56.62-2.29.7ZM219.69,58.04c.51-.05.99-.18,1.43-.39s.86-.49,1.24-.83c.85-.78,1.25-1.48,1.18-2.08-.03-.27-.21-.39-.54-.36-.64.07-1.34.54-2.1,1.4-.38.43-.68.81-.91,1.15-.23.34-.44.7-.62,1.09.1.02.21.03.32.02Z"/>
      <path class="cls-3" d="M226.28,63c-.26.03-.39-.07-.42-.27,0-.1,0-.19.06-.29.04-.1.08-.19.11-.25l1.71-4.63c.73-1.98,1.08-3.07,1.06-3.28-.03-.22.08-.35.3-.37.3-.03.47.1.5.41.02.16-.03.42-.13.79-.11.37-.25.79-.42,1.28-.3.87-.55,1.54-.76,2.01.42-.61.85-1.18,1.3-1.73.44-.55.89-1.07,1.35-1.57,1.38-1.48,2.47-2.26,3.28-2.35.56-.06.86.18.92.7.05.51-.09.78-.42.82-.16.02-.29-.1-.4-.37-.07-.19-.19-.27-.37-.25-.27.03-.77.38-1.48,1.05-.79.73-1.58,1.58-2.36,2.54s-1.58,2.18-2.41,3.63l-1.02,1.8c-.06.09-.11.16-.16.22-.05.06-.13.1-.24.11Z"/>
      <path class="cls-3" d="M235.25,61.7c-.92.1-1.43-.29-1.52-1.17-.06-.57.02-1.21.23-1.9.21-.69.52-1.37.93-2.05.41-.68.89-1.31,1.42-1.89.54-.58,1.1-1.06,1.69-1.43.59-.38,1.17-.6,1.74-.66,1.02-.11,1.58.34,1.69,1.35.07.65-.06,1-.38,1.03-.29.03-.44-.09-.47-.36-.01-.11,0-.23.05-.35s.06-.26.04-.4c-.05-.45-.37-.64-.98-.57-.97.1-2.12.97-3.42,2.61-.31.4-.61.87-.89,1.4-.28.53-.5,1.06-.67,1.58-.16.53-.22,1.01-.17,1.46.04.43.31.62.79.57.41-.04.84-.22,1.29-.52.44-.31.83-.61,1.15-.92.64-.6,1.29-1.39,1.92-2.37.1-.14.22-.32.38-.55.15-.23.33-.48.53-.76.07-.09.16-.14.28-.15.25-.03.39.09.42.34l-.77,1.45c-.51.96-.74,1.72-.68,2.3.04.41.26.6.66.56.33-.03.69-.16,1.07-.38.38-.22.69-.43.93-.63.47-.39.96-.86,1.47-1.42.5-.56.98-1.12,1.44-1.68.06-.07.15-.11.28-.13.24-.03.37.06.39.25.02.18-.07.39-.27.63-.57.71-1.09,1.31-1.55,1.82-.46.51-.91.93-1.34,1.26-.28.21-.64.43-1.06.67s-.93.39-1.5.45c-.78.08-1.22-.29-1.3-1.12-.03-.32-.02-.59.04-.8-1.3,1.54-2.58,2.37-3.82,2.5Z"/>
      <path class="cls-3" d="M247.8,61.56c-.45.05-.83-.05-1.15-.29-.33-.24-.51-.57-.55-1.01-.02-.16-.02-.26,0-.31-.17.53-.35.81-.54.83-.25.03-.4-.11-.43-.41l1.35-5.07c.21-.79.45-1.62.73-2.48.28-.86.57-1.69.86-2.48.29-.79.57-1.52.84-2.17.26-.65.48-1.17.64-1.55.42-.93.84-1.66,1.26-2.2.42-.54.76-.82,1.03-.85.3-.03.47.12.51.46.02.19-.07.3-.26.32-.41.04-1.03.99-1.85,2.83-.26.57-.5,1.14-.73,1.71-.22.56-.43,1.12-.63,1.67-.27.78-.55,1.63-.84,2.53-.29.9-.59,1.85-.91,2.85.45-.82.95-1.58,1.52-2.29.5-.62,1.03-1.13,1.59-1.53.56-.41,1.14-.64,1.72-.7.65-.07,1.19.01,1.6.24.41.23.65.72.73,1.47.07.62-.04,1.3-.33,2.04s-.68,1.47-1.17,2.2c-.49.73-1.05,1.4-1.65,2.02-.6.62-1.2,1.12-1.79,1.51-.59.39-1.1.61-1.55.66ZM247.65,60.78c.48-.05.99-.27,1.53-.66.54-.38,1.07-.87,1.59-1.46.52-.59.98-1.21,1.4-1.88.42-.66.73-1.31.96-1.94.23-.63.31-1.17.26-1.63-.08-.72-.47-1.04-1.19-.96-.64.07-1.24.32-1.8.77-.57.45-1.1,1.02-1.6,1.71-.5.7-.96,1.45-1.37,2.27-.42.82-.79,1.64-1.12,2.46.13-.16.26-.24.38-.26.22-.02.34.07.37.28,0,.1-.02.2-.09.32-.03.05-.05.11-.08.18-.03.07-.03.16-.02.29.04.38.3.55.78.5Z"/>
      <path class="cls-3" d="M258.14,59.7c-.74.08-1.32-.09-1.76-.51s-.7-.99-.78-1.74c-.06-.54-.03-1.2.08-1.99.2-1.33.61-2.88,1.22-4.67.48-1.35,1.02-2.7,1.61-4.02.59-1.33,1.24-2.64,1.98-3.94,1.16-2.09,2.02-3.16,2.56-3.22.35-.04.54.04.56.23.03.27-.35,1-1.12,2.17l-1.46,2.21c-1.27,1.91-2.26,3.82-2.99,5.75-.72,1.93-1.24,3.83-1.56,5.72-.09.54-.11,1.05-.06,1.51.13,1.21.69,1.76,1.67,1.66.35-.04.7-.18,1.04-.42.35-.23.54-.35.57-.35.19-.02.3.1.33.38.03.24-.04.43-.21.58-.51.37-1.07.6-1.69.66Z"/>
      <path class="cls-3" d="M263.42,58.93c-.67.07-1.22-.11-1.65-.53-.43-.42-.68-.97-.75-1.64-.12-1.15.14-2.37.78-3.66.17-.36.38-.71.61-1.07.24-.36.5-.7.79-1.04.43-.51.89-.95,1.39-1.3.49-.36.99-.56,1.48-.61.81-.08,1.26.26,1.34,1.02.1.96-.37,1.88-1.4,2.78-.96.81-1.94,1.27-2.95,1.37-.18.02-.33.02-.47.01-.14,0-.27-.02-.38-.05-.13.32-.23.73-.31,1.22-.08.49-.1.91-.06,1.26.11,1.05.63,1.53,1.55,1.43.75-.08,1.45-.28,2.09-.62s1.38-.92,2.23-1.75c.53-.5.92-.91,1.18-1.21.26-.3.54-.62.84-.96.09-.07.17-.11.25-.12.08,0,.16,0,.25.05s.13.11.14.2c.02.18-.12.44-.4.79-.25.28-.5.58-.78.89-.28.31-.71.75-1.31,1.31-.64.61-1.36,1.12-2.16,1.51-.8.39-1.56.62-2.3.7ZM262.83,53.51c.51-.05.99-.18,1.43-.39s.86-.49,1.24-.83c.85-.78,1.25-1.48,1.18-2.08-.03-.27-.21-.39-.54-.36-.64.07-1.34.54-2.1,1.4-.38.43-.68.81-.91,1.15-.23.34-.43.7-.62,1.09.1.02.21.03.32.02Z"/>
      <path class="cls-3" d="M271.15,57.68c-.43.05-.67-.13-.71-.53-.05-.43.13-.67.53-.71.43-.05.67.13.71.53.05.43-.13.67-.53.71Z"/>
    </g>
  </g>
</svg>