<?xml version="1.0" encoding="UTF-8"?>
<svg id="Capa_1" data-name="Capa 1" xmlns="http://www.w3.org/2000/svg" viewBox="0 0 522.71 358.32">
  <defs>
    <style>
      .cls-1 {
        fill: #fff;
        stroke-width: 0px;
      }
    </style>
  </defs>
  <g>
    <path class="cls-1" d="M19.32,61.37c0-30.02,19.43-50.65,46.1-50.65,13.4,0,22.78,4.02,28.94,7.24l.8,18.49h-.8c-6.43-15.01-15.54-23.85-29.48-23.85-17.69,0-28.94,20.64-28.94,48.51s11.52,48.51,28.94,48.51c13.94,0,24.12-9.38,30.55-26.26h.8l-2.41,21.44c-6.16,2.95-15.54,6.7-28.41,6.7-26.67,0-46.1-19.3-46.1-50.12Z"/>
    <path class="cls-1" d="M101.73,61.37c0-30.02,17.69-50.65,44.22-50.65s43.95,19.56,43.95,50.12-17.69,50.65-44.22,50.65-43.95-19.56-43.95-50.12ZM173.29,61.1c0-27.07-9.38-48.51-27.6-48.51s-27.34,20.64-27.34,48.51,9.38,48.51,27.6,48.51,27.34-20.64,27.34-48.51Z"/>
    <path class="cls-1" d="M290.54,92.46c.54,9.92,1.07,16.62,10.18,16.62v.8h-33.9v-.8c9.11,0,9.65-6.7,9.11-16.62l-3.75-69.15-30.96,86.57h-1.07l-31.49-86.57-3.22,61.1c-.8,14.07,2.55,24.66,11.66,24.66v.8h-25.46v-.8c8.58-.67,10.72-10.72,11.39-24.66l2.95-56.55c.54-9.65-4.29-13.67-10.72-14.74v-.8h25.33l26.67,73.3,26.26-73.3h23.18v.8c-9.11.8-10.18,6.7-9.65,16.62l3.48,62.71Z"/>
  </g>
  <g>
    <path class="cls-1" d="M54.29,129.32c21.44,0,33.37,11.26,33.37,27.07,0,19.03-11.39,30.28-31.22,30.28-5.76,0-10.85-1.47-13.67-2.55v25.33c0,9.92,1.07,16.62,10.18,16.62v.8H18.11v-.8c9.11,0,9.65-6.7,9.65-16.62v-62.71c0-9.92-.54-16.62-9.65-16.62v-.8h36.18ZM72.12,157.2c0-13.4-5.9-25.73-20.37-25.73h-3.89c-3.22,0-5.09,1.61-5.09,4.82v41c0,4.29,2.68,6.16,9.92,6.16,10.72,0,19.43-9.11,19.43-26.26Z"/>
    <path class="cls-1" d="M89.8,226.88v-.8c9.11,0,9.65-6.7,9.65-16.62v-62.71c0-9.92-.54-16.62-9.65-16.62v-.8h34.3v.8c-9.11,0-9.65,6.7-9.65,16.62v71.83c0,4.02,1.21,6.17,5.23,6.17h5.76c14.47,0,21.31-4.29,30.42-23.58h.8l-3.48,25.73h-63.38Z"/>
    <path class="cls-1" d="M232.51,203.16l-3.22,23.72h-68.74v-.8c9.11,0,9.65-6.7,9.65-16.62v-62.71c0-9.92-.54-16.62-9.65-16.62v-.8h66.73l1.74,21.17h-.8c-7.37-15.68-12.33-19.03-27.07-19.03h-15.95v43.55h12.19c12.46,0,15.68-3.35,18.36-13.27h.8v29.75h-.8c-2.68-9.92-5.9-14.34-18.36-14.34h-12.19v41.27c0,4.02,1.21,6.3,5.36,6.3h12.46c13.94,0,20.1-2.95,28.68-21.58h.8Z"/>
    <path class="cls-1" d="M333.28,209.46c.54,9.92,1.07,16.62,10.18,16.62v.8h-33.9v-.8c9.11,0,9.65-6.7,9.11-16.62l-3.75-69.15-30.95,86.57h-1.07l-31.49-86.57-3.22,61.1c-.8,14.07,2.55,24.66,11.66,24.66v.8h-25.46v-.8c8.58-.67,10.72-10.72,11.39-24.66l2.95-56.55c.54-9.65-4.29-13.67-10.72-14.74v-.8h25.33l26.67,73.3,26.26-73.3h23.18v.8c-9.11.8-10.18,6.7-9.65,16.62l3.48,62.71Z"/>
    <path class="cls-1" d="M418.37,203.16l-3.22,23.72h-68.74v-.8c9.11,0,9.65-6.7,9.65-16.62v-62.71c0-9.92-.54-16.62-9.65-16.62v-.8h66.73l1.74,21.17h-.8c-7.37-15.68-12.33-19.03-27.07-19.03h-15.95v43.55h12.19c12.46,0,15.68-3.35,18.36-13.27h.8v29.75h-.8c-2.68-9.92-5.9-14.34-18.36-14.34h-12.19v41.27c0,4.02,1.21,6.3,5.36,6.3h12.46c13.94,0,20.1-2.95,28.68-21.58h.8Z"/>
    <path class="cls-1" d="M479.87,129.32h25.19v.8c-9.11,0-10.45,10.18-10.45,24.66v73.7h-.8l-58.43-87.5v60.7c0,13.94,2.68,24.39,12.33,24.39v.8h-26.53v-.8c9.11,0,11.79-10.45,11.79-24.39v-56.82c0-9.65-4.56-13.67-11.79-14.74v-.8h24.12l46.9,70.89v-45.43c0-14.47-2.14-24.66-12.33-24.66v-.8Z"/>
  </g>
  <g>
    <path class="cls-1" d="M350.97,267.48h-.8c-7.37-15.68-12.06-19.03-24.92-19.03h-4.15v77.99c0,9.92.54,16.62,9.65,16.62v.8h-34.3v-.8c9.11,0,9.65-6.7,9.65-16.62v-77.99h-4.15c-12.73,0-17.55,3.35-24.92,19.03h-.8l1.88-21.17h71.02l1.88,21.17Z"/>
    <path class="cls-1" d="M352.71,295.35c0-30.02,17.69-50.65,44.22-50.65s43.95,19.56,43.95,50.12-17.69,50.65-44.22,50.65-43.95-19.56-43.95-50.12ZM424.27,295.08c0-27.07-9.38-48.51-27.6-48.51s-27.34,20.64-27.34,48.51,9.38,48.51,27.6,48.51,27.34-20.64,27.34-48.51Z"/>
    <path class="cls-1" d="M448.65,339.97l-.8-22.11h.8c5.9,16.88,15.14,25.73,27.61,25.73,10.59,0,19.97-7.1,19.97-19.3s-9.65-17.29-20.9-22.78l-6.83-3.35c-8.98-4.42-18.63-10.72-18.63-25.73,0-15.95,11.52-27.74,28.01-27.74,7.37,0,17.69,2.41,24.12,5.36v17.42h-.8c-6.03-14.47-13.94-20.9-24.12-20.9-10.85,0-17.82,7.24-17.82,18.09s8.58,15.41,16.75,19.43l6.83,3.35c11.66,5.76,22.78,12.06,22.78,28.54s-12.6,29.48-31.36,29.48c-7.77,0-19.3-2.28-25.6-5.49Z"/>
  </g>
</svg>