<?xml version="1.0" encoding="UTF-8"?>
<svg id="Capa_1" data-name="Capa 1" xmlns="http://www.w3.org/2000/svg" viewBox="0 0 465.46 372.71">
  <defs>
    <style>
      .cls-1 {
        fill: #fff;
        stroke-width: 0px;
      }
    </style>
  </defs>
  <g>
    <path class="cls-1" d="M103.34,74.4h35.72v1.14c-12.92,0-14.82,14.44-14.82,34.96v104.5h-1.14L40.26,90.93v86.07c0,19.76,3.8,34.58,17.48,34.58v1.14H20.12v-1.14c12.92,0,16.72-14.82,16.72-34.58v-80.56c0-13.68-6.46-19.38-16.72-20.9v-1.14h34.2l66.5,100.51v-64.41c0-20.52-3.04-34.96-17.48-34.96v-1.14Z"/>
    <path class="cls-1" d="M143.24,143.95c0-42.56,25.08-71.82,62.7-71.82s62.32,27.74,62.32,71.06-25.08,71.82-62.7,71.82-62.32-27.74-62.32-71.06ZM244.7,143.56c0-38.38-13.3-68.78-39.14-68.78s-38.76,29.26-38.76,68.78,13.3,68.78,39.14,68.78,38.76-29.26,38.76-68.78ZM197.77,63.76c4.94-11.4,11.78-33.25,14.25-37.24,1.71-2.66,4.18-4.18,6.84-4.18,4.94,0,8.36,4.56,8.36,8.17,0,1.52-.57,3.04-1.52,4.56-2.47,3.99-19,19.57-27.17,29.07l-.76-.38Z"/>
    <path class="cls-1" d="M388.15,211.59v1.14c-3.04.38-12.54.76-18.24.76-13.68,0-17.1-6.08-40.66-57.76-3.23-6.84-6.46-8.36-12.54-8.36h-7.79v40.66c0,14.06.76,23.56,13.68,23.56v1.14h-48.64v-1.14c12.92,0,13.68-9.5,13.68-23.56v-88.92c0-14.06-.76-23.56-13.68-23.56v-1.14h51.3c30.4,0,47.12,14.06,47.12,36.1,0,18.62-13.87,30.4-30.97,34.96v.38c5.51,3.23,10.26,10.83,14.82,19.57,19,36.48,22.8,43.13,31.92,46.17ZM308.92,144.33h12.92c18.81,0,28.5-11.59,28.5-32.3s-8.93-34.58-28.31-34.58h-5.89c-4.56,0-7.22,2.28-7.22,6.84v60.04Z"/>
  </g>
  <g>
    <path class="cls-1" d="M21.83,357.7v-1.14c12.92,0,13.68-9.5,13.68-23.56v-88.92c0-14.06-.76-23.56-13.68-23.56v-1.14h57c42.94,0,68.02,24.13,68.02,67.45s-27.55,70.87-69.54,70.87H21.83ZM123.29,287.97c0-36.86-12.73-65.55-46.36-65.55h-12.92c-4.56,0-7.22,2.28-7.22,6.84v113.24c0,8.36,4.18,12.16,21.66,12.16,32.68,0,44.84-26.41,44.84-66.69Z"/>
    <path class="cls-1" d="M151.79,357.7v-1.14c12.92,0,13.68-9.5,13.68-23.56v-88.92c0-14.06-.76-23.56-13.68-23.56v-1.14h48.64v1.14c-12.92,0-13.68,9.5-13.68,23.56v88.92c0,14.06.76,23.56,13.68,23.56v1.14h-48.64Z"/>
    <path class="cls-1" d="M205.94,288.91c0-42.56,27.55-71.82,65.36-71.82,19,0,32.3,5.7,41.04,10.26l1.14,26.22h-1.14c-9.12-21.28-22.04-33.82-41.8-33.82-25.08,0-41.04,29.26-41.04,68.78s16.34,68.78,41.04,68.78c19.76,0,34.2-13.3,43.32-37.24h1.14l-3.42,30.4c-8.74,4.18-22.04,9.5-40.28,9.5-37.81,0-65.36-27.36-65.36-71.06Z"/>
    <path class="cls-1" d="M322.79,288.91c0-42.56,25.08-71.82,62.7-71.82s62.32,27.74,62.32,71.06-25.08,71.82-62.7,71.82-62.32-27.74-62.32-71.06ZM424.25,288.54c0-38.38-13.3-68.78-39.14-68.78s-38.76,29.26-38.76,68.78,13.3,68.78,39.14,68.78,38.76-29.26,38.76-68.78Z"/>
  </g>
</svg>