<?xml version="1.0" encoding="UTF-8"?>
<svg id="Capa_1" data-name="Capa 1" xmlns="http://www.w3.org/2000/svg" viewBox="0 0 479.29 304.09">
  <defs>
    <style>
      .cls-1 {
        fill: #fff;
        stroke-width: 0px;
      }
    </style>
  </defs>
  <g>
    <path class="cls-1" d="M7.04,147.9v-1.14c12.92,0,13.68-9.5,13.68-23.56V34.28c0-14.06-.76-23.56-13.68-23.56v-1.14h48.64v1.14c-12.92,0-13.68,9.5-13.68,23.56v101.84c0,5.7,1.71,8.74,7.41,8.74h8.17c20.52,0,30.21-6.08,43.13-33.44h1.14l-4.94,36.48H7.04Z"/>
    <path class="cls-1" d="M107.36,147.9v-1.14c12.92,0,13.68-9.5,13.68-23.56V34.28c0-14.06-.76-23.56-13.68-23.56v-1.14h48.64v1.14c-12.92,0-13.68,9.5-13.68,23.56v88.92c0,14.06.76,23.56,13.68,23.56v1.14h-48.64Z"/>
    <path class="cls-1" d="M161.51,79.12c0-42.56,27.74-71.82,65.17-71.82,20.71,0,34.77,4.94,43.89,9.5v25.84h-1.14c-10.26-21.28-22.42-32.68-43.13-32.68-25.27,0-41.23,29.26-41.23,68.97s14.25,68.59,41.42,68.59c15.01,0,25.27-6.84,25.27-17.86v-21.09c0-14.06-.76-21.47-11.78-22.23v-1.14h39.14v1.14c-5.7.76-6.08,8.17-6.08,22.23v27.93c-10.64,7.22-27.55,13.68-47.31,13.68-39.52,0-64.22-28.88-64.22-71.06Z"/>
    <path class="cls-1" d="M386.09,114.27l-4.56,33.63h-97.47v-1.14c12.92,0,13.68-9.5,13.68-23.56V34.28c0-14.06-.76-23.56-13.68-23.56v-1.14h94.62l2.47,30.02h-1.14c-10.45-22.23-17.48-26.98-38.38-26.98h-22.61v61.75h17.29c17.67,0,22.23-4.75,26.03-18.81h1.14v42.18h-1.14c-3.8-14.06-8.36-20.33-26.03-20.33h-17.29v58.52c0,5.7,1.71,8.93,7.6,8.93h17.67c19.76,0,28.5-4.18,40.66-30.59h1.14Z"/>
  </g>
  <g>
    <path class="cls-1" d="M345.05,291.73v1.14c-3.04.38-12.54.76-18.24.76-13.68,0-17.1-6.08-40.66-57.76-3.23-6.84-6.46-8.36-12.54-8.36h-7.79v40.66c0,14.06.76,23.56,13.68,23.56v1.14h-48.64v-1.14c12.92,0,13.68-9.5,13.68-23.56v-88.92c0-14.06-.76-23.56-13.68-23.56v-1.14h51.3c30.4,0,47.12,14.06,47.12,36.1,0,18.62-13.87,30.4-30.97,34.96v.38c5.51,3.23,10.26,10.83,14.82,19.57,19,36.48,22.8,43.13,31.92,46.17ZM265.82,224.47h12.92c18.81,0,28.5-11.59,28.5-32.3s-8.93-34.58-28.31-34.58h-5.89c-4.56,0-7.22,2.28-7.22,6.84v60.04Z"/>
    <path class="cls-1" d="M340.68,224.09c0-42.56,25.08-71.82,62.7-71.82s62.32,27.74,62.32,71.06-25.08,71.82-62.7,71.82-62.32-27.74-62.32-71.06ZM442.14,223.71c0-38.38-13.3-68.78-39.14-68.78s-38.76,29.26-38.76,68.78,13.3,68.78,39.14,68.78,38.76-29.26,38.76-68.78Z"/>
  </g>
</svg>