<?xml version="1.0" encoding="UTF-8"?>
<svg id="Capa_1" data-name="Capa 1" xmlns="http://www.w3.org/2000/svg" viewBox="0 0 594.07 303.81">
  <defs>
    <style>
      .cls-1 {
        fill: #fff;
        stroke-width: 0px;
      }
    </style>
  </defs>
  <g>
    <path class="cls-1" d="M100.75,7.6l2.47,30.02h-1.14c-10.45-22.23-17.67-26.98-38.38-26.98h-20.14v65.55h17.29c17.67,0,22.23-4.75,26.03-18.81h1.14v42.18h-1.14c-3.8-14.06-8.36-20.33-26.03-20.33h-17.29v41.99c0,14.06.76,23.56,13.68,23.56v1.14H8.6v-1.14c12.92,0,13.68-9.5,13.68-23.56V32.3c0-14.06-.76-23.56-13.68-23.56v-1.14h92.15Z"/>
    <path class="cls-1" d="M223.49,144.79v1.14c-3.04.38-12.54.76-18.24.76-13.68,0-17.1-6.08-40.66-57.76-3.23-6.84-6.46-8.36-12.54-8.36h-7.79v40.66c0,14.06.76,23.56,13.68,23.56v1.14h-48.64v-1.14c12.92,0,13.68-9.5,13.68-23.56V32.3c0-14.06-.76-23.56-13.68-23.56v-1.14h51.3c30.4,0,47.12,14.06,47.12,36.1,0,18.62-13.87,30.4-30.97,34.96v.38c5.51,3.23,10.26,10.83,14.82,19.57,19,36.48,22.8,43.13,31.92,46.17ZM144.26,77.52h12.92c18.81,0,28.5-11.59,28.5-32.3s-8.93-34.58-28.31-34.58h-5.89c-4.56,0-7.22,2.28-7.22,6.84v60.04Z"/>
    <path class="cls-1" d="M319.25,121.6c5.51,15.58,9.31,22.42,17.29,23.18v1.14h-48.64v-1.14c10.64-.76,14.25-7.98,10.64-18.05l-9.88-27.93h-42.37l-3.8,10.45c-7.98,22.42-6.65,34.01,6.27,35.53v1.14h-31.92v-1.14c9.12-1.14,13.87-13.87,22.04-36.67L275.93,5.32h1.52l41.8,116.28ZM247.81,94.25h39.33l-19.57-55.48-19.76,55.48Z"/>
  </g>
  <g>
    <path class="cls-1" d="M127.49,257.27l-4.56,33.63H31.54v-.76l69.92-134.52h-26.22c-21.28,0-28.69,4.94-39.71,26.98h-1.14l4.56-30.02h87.02v.76l-70.11,134.52h29.83c19.95,0,28.69-4.18,40.66-30.59h1.14Z"/>
    <path class="cls-1" d="M228.76,266.58c5.51,15.58,9.31,22.42,17.29,23.18v1.14h-48.64v-1.14c10.64-.76,14.25-7.98,10.64-18.05l-9.88-27.93h-42.37l-3.8,10.45c-7.98,22.42-6.65,34.01,6.27,35.53v1.14h-31.92v-1.14c9.12-1.14,13.87-13.87,22.04-36.67l37.05-102.79h1.52l41.8,116.28ZM157.32,239.21h39.33l-19.57-55.48-19.76,55.48Z"/>
    <path class="cls-1" d="M246.05,290.9v-1.14c12.92,0,13.68-9.5,13.68-23.56v-88.92c0-14.06-.76-23.56-13.68-23.56v-1.14h57c42.94,0,68.02,24.13,68.02,67.45s-27.55,70.87-69.54,70.87h-55.48ZM347.51,221.17c0-36.86-12.73-65.55-46.36-65.55h-12.92c-4.56,0-7.22,2.28-7.22,6.84v113.24c0,8.36,4.18,12.16,21.66,12.16,32.68,0,44.84-26.41,44.84-66.69Z"/>
    <path class="cls-1" d="M475.38,266.58c5.51,15.58,9.31,22.42,17.29,23.18v1.14h-48.64v-1.14c10.64-.76,14.25-7.98,10.64-18.05l-9.88-27.93h-42.37l-3.8,10.45c-7.98,22.42-6.65,34.01,6.27,35.53v1.14h-31.92v-1.14c9.12-1.14,13.87-13.87,22.04-36.67l37.05-102.79h1.52l41.8,116.28ZM403.94,239.21h39.33l-19.57-55.48-19.76,55.48Z"/>
    <path class="cls-1" d="M495.51,285.39l-1.14-31.35h1.14c8.36,23.94,21.47,36.48,39.14,36.48,15.01,0,28.31-10.07,28.31-27.36s-13.68-24.51-29.64-32.3l-9.69-4.75c-12.73-6.27-26.41-15.2-26.41-36.48,0-22.61,16.34-39.33,39.71-39.33,10.45,0,25.08,3.42,34.2,7.6v24.7h-1.14c-8.55-20.52-19.76-29.64-34.2-29.64-15.39,0-25.27,10.26-25.27,25.65s12.16,21.85,23.75,27.55l9.69,4.75c16.53,8.17,32.3,17.1,32.3,40.47s-17.86,41.8-44.46,41.8c-11.02,0-27.36-3.23-36.29-7.79Z"/>
  </g>
</svg>