<?xml version="1.0" encoding="UTF-8"?>
<svg id="Capa_1" data-name="Capa 1" xmlns="http://www.w3.org/2000/svg" xmlns:xlink="http://www.w3.org/1999/xlink" viewBox="0 0 632.59 323.01">
  <defs>
    <style>
      .cls-1 {
        clip-path: url(#clippath);
      }

      .cls-2 {
        fill: none;
      }

      .cls-2, .cls-3 {
        stroke-width: 0px;
      }

      .cls-3 {
        fill: #fff;
      }
    </style>
    <clipPath id="clippath">
      <polygon class="cls-2" points="44.57 872.39 571.75 793.6 571.75 921.67 61.88 993.07 44.57 872.39"/>
    </clipPath>
    <clipPath id="clippath-1">
      <polygon class="cls-2" points="44.57 872.39 58.98 968.84 571.75 892.2 571.75 793.6 44.57 872.39"/>
    </clipPath>
  </defs>
  <g>
    <path class="cls-3" d="M150.95,131.98c.76,14.06,1.52,23.56,14.44,23.56v1.14h-48.07v-1.14c12.92,0,13.68-9.5,12.92-23.56l-5.32-98.04-43.89,122.74h-1.52L34.86,33.94l-4.56,86.64c-1.14,19.95,3.61,34.96,16.53,34.96v1.14H10.73v-1.14c12.16-.95,15.2-15.2,16.15-34.96l4.18-80.18c.76-13.68-6.08-19.38-15.2-20.9v-1.14h35.91l37.81,103.93L126.82,18.36h32.87v1.14c-12.92,1.14-14.44,9.5-13.68,23.56l4.94,88.92Z"/>
    <path class="cls-3" d="M265.9,132.36c5.51,15.58,9.31,22.42,17.29,23.18v1.14h-48.64v-1.14c10.64-.76,14.25-7.98,10.64-18.05l-9.88-27.93h-42.37l-3.8,10.45c-7.98,22.42-6.65,34.01,6.27,35.53v1.14h-31.92v-1.14c9.12-1.14,13.87-13.87,22.04-36.67l37.05-102.79h1.52l41.8,116.28ZM194.45,105h39.33l-19.57-55.48-19.76,55.48Z"/>
    <path class="cls-3" d="M286.79,151.17l-1.14-31.35h1.14c8.36,23.94,21.47,36.48,39.14,36.48,15.01,0,28.31-10.07,28.31-27.36s-13.68-24.51-29.64-32.3l-9.69-4.75c-12.73-6.27-26.41-15.2-26.41-36.48,0-22.61,16.34-39.33,39.71-39.33,10.45,0,25.08,3.42,34.2,7.6v24.7h-1.14c-8.55-20.52-19.76-29.64-34.2-29.64-15.39,0-25.27,10.26-25.27,25.65s12.16,21.85,23.75,27.55l9.69,4.75c16.53,8.17,32.3,17.1,32.3,40.47s-17.86,41.8-44.46,41.8c-11.02,0-27.36-3.23-36.29-7.79Z"/>
  </g>
  <g>
    <path class="cls-3" d="M55.29,232.87c0-42.56,27.55-71.82,65.36-71.82,19,0,32.3,5.7,41.04,10.26l1.14,26.22h-1.14c-9.12-21.28-22.04-33.82-41.8-33.82-25.08,0-41.04,29.26-41.04,68.78s16.34,68.78,41.04,68.78c19.76,0,34.2-13.3,43.32-37.24h1.14l-3.42,30.4c-8.74,4.18-22.04,9.5-40.28,9.5-37.81,0-65.36-27.36-65.36-71.06Z"/>
    <path class="cls-3" d="M172.52,232.87c0-42.56,25.08-71.82,62.7-71.82s62.32,27.74,62.32,71.06-25.08,71.82-62.7,71.82-62.32-27.74-62.32-71.06ZM273.98,232.49c0-38.38-13.3-68.78-39.14-68.78s-38.76,29.26-38.76,68.78,13.3,68.78,39.14,68.78,38.76-29.26,38.76-68.78Z"/>
    <path class="cls-3" d="M410.21,193.35h-1.14c-10.45-22.23-17.1-26.98-35.34-26.98h-5.89v110.58c0,14.06.76,23.56,13.68,23.56v1.14h-48.64v-1.14c12.92,0,13.68-9.5,13.68-23.56v-110.58h-5.89c-18.05,0-24.89,4.75-35.34,26.98h-1.14l2.66-30.02h100.7l2.66,30.02Z"/>
    <path class="cls-3" d="M511.28,277.33c5.51,15.58,9.31,22.42,17.29,23.18v1.14h-48.64v-1.14c10.64-.76,14.25-7.98,10.64-18.05l-9.88-27.93h-42.37l-3.8,10.45c-7.98,22.42-6.65,34.01,6.27,35.53v1.14h-31.92v-1.14c9.12-1.14,13.87-13.87,22.04-36.67l37.05-102.79h1.52l41.8,116.28ZM439.84,249.97h39.33l-19.57-55.48-19.76,55.48Z"/>
    <path class="cls-3" d="M531.42,296.14l-1.14-31.35h1.14c8.36,23.94,21.47,36.48,39.14,36.48,15.01,0,28.31-10.07,28.31-27.36s-13.68-24.51-29.64-32.3l-9.69-4.75c-12.73-6.27-26.41-15.2-26.41-36.48,0-22.61,16.34-39.33,39.71-39.33,10.45,0,25.08,3.42,34.2,7.6v24.7h-1.14c-8.55-20.52-19.76-29.64-34.2-29.64-15.39,0-25.27,10.26-25.27,25.65s12.16,21.85,23.75,27.55l9.69,4.75c16.53,8.17,32.3,17.1,32.3,40.47s-17.86,41.8-44.46,41.8c-11.02,0-27.36-3.23-36.29-7.79Z"/>
  </g>
  <g class="cls-1">
    <rect class="cls-2" x="-2054.75" y="246.22" width="2626.5" height="1729.65"/>
  </g>
</svg>