<?xml version="1.0" encoding="UTF-8"?>
<svg id="Capa_1" data-name="Capa 1" xmlns="http://www.w3.org/2000/svg" viewBox="0 0 812.39 414.53">
  <defs>
    <style>
      .cls-1 {
        fill: #fff;
        stroke-width: 0px;
      }
    </style>
  </defs>
  <g>
    <path class="cls-1" d="M104.52,134.66c5.51,15.58,9.31,22.42,17.29,23.18v1.14h-48.64v-1.14c10.64-.76,14.25-7.98,10.64-18.05l-9.88-27.93H31.56l-3.8,10.45c-7.98,22.42-6.65,34.01,6.27,35.53v1.14H2.11v-1.14c9.12-1.14,13.87-13.87,22.04-36.67L61.2,18.38h1.52l41.8,116.28ZM33.08,107.3h39.33l-19.57-55.48-19.76,55.48Z"/>
    <path class="cls-1" d="M124.28,90.2c0-42.56,27.55-71.82,65.36-71.82,19,0,32.3,5.7,41.04,10.26l1.14,26.22h-1.14c-9.12-21.28-22.04-33.82-41.8-33.82-25.08,0-41.04,29.26-41.04,68.78s16.34,68.78,41.04,68.78c19.76,0,34.2-13.3,43.32-37.24h1.14l-3.42,30.4c-8.74,4.18-22.04,9.5-40.28,9.5-37.81,0-65.36-27.36-65.36-71.06Z"/>
    <path class="cls-1" d="M242.08,90.2c0-42.56,27.55-71.82,65.36-71.82,19,0,32.3,5.7,41.04,10.26l1.14,26.22h-1.14c-9.12-21.28-22.04-33.82-41.8-33.82-25.08,0-41.04,29.26-41.04,68.78s16.34,68.78,41.04,68.78c19.76,0,34.2-13.3,43.32-37.24h1.14l-3.42,30.4c-8.74,4.18-22.04,9.5-40.28,9.5-37.81,0-65.36-27.36-65.36-71.06Z"/>
    <path class="cls-1" d="M460.2,125.35l-4.56,33.63h-97.47v-1.14c12.92,0,13.68-9.5,13.68-23.56V45.36c0-14.06-.76-23.56-13.68-23.56v-1.14h94.62l2.47,30.02h-1.14c-10.45-22.23-17.48-26.98-38.38-26.98h-22.61v61.75h17.29c17.67,0,22.23-4.75,26.03-18.81h1.14v42.18h-1.14c-3.8-14.06-8.36-20.33-26.03-20.33h-17.29v58.52c0,5.7,1.71,8.93,7.6,8.93h17.67c19.76,0,28.5-4.18,40.66-30.59h1.14Z"/>
  </g>
  <g>
    <path class="cls-1" d="M102.48,298.44l-1.14-31.35h1.14c8.36,23.94,21.47,36.48,39.14,36.48,15.01,0,28.31-10.07,28.31-27.36s-13.68-24.51-29.64-32.3l-9.69-4.75c-12.73-6.27-26.41-15.2-26.41-36.48,0-22.61,16.34-39.33,39.71-39.33,10.45,0,25.08,3.42,34.2,7.6v24.7h-1.14c-8.55-20.52-19.76-29.64-34.2-29.64-15.39,0-25.27,10.26-25.27,25.65s12.16,21.85,23.75,27.55l9.69,4.75c16.53,8.17,32.3,17.1,32.3,40.47s-17.86,41.8-44.46,41.8c-11.02,0-27.36-3.23-36.29-7.79Z"/>
    <path class="cls-1" d="M191.97,235.17c0-42.56,25.08-71.82,62.7-71.82s62.32,27.74,62.32,71.06-25.08,71.82-62.7,71.82-62.32-27.74-62.32-71.06ZM293.43,234.79c0-38.38-13.3-68.78-39.14-68.78s-38.76,29.26-38.76,68.78,13.3,68.78,39.14,68.78,38.76-29.26,38.76-68.78Z"/>
    <path class="cls-1" d="M439.16,302.81v1.14c-3.04.38-12.54.76-18.24.76-13.68,0-17.1-6.08-40.66-57.76-3.23-6.84-6.46-8.36-12.54-8.36h-7.79v40.66c0,14.06.76,23.56,13.68,23.56v1.14h-48.64v-1.14c12.92,0,13.68-9.5,13.68-23.56v-88.92c0-14.06-.76-23.56-13.68-23.56v-1.14h51.3c30.4,0,47.12,14.06,47.12,36.1,0,18.62-13.87,30.4-30.97,34.96v.38c5.51,3.23,10.26,10.83,14.82,19.57,19,36.48,22.8,43.13,31.92,46.17ZM359.93,235.55h12.92c18.81,0,28.5-11.59,28.5-32.3s-8.93-34.58-28.31-34.58h-5.89c-4.56,0-7.22,2.28-7.22,6.84v60.04Z"/>
    <path class="cls-1" d="M437.83,303.95v-1.14c12.92,0,13.68-9.5,13.68-23.56v-88.92c0-14.06-.76-23.56-13.68-23.56v-1.14h48.64v1.14c-12.92,0-13.68,9.5-13.68,23.56v88.92c0,14.06.76,23.56,13.68,23.56v1.14h-48.64Z"/>
    <path class="cls-1" d="M494.45,235.17c0-42.56,25.08-71.82,62.7-71.82s62.32,27.74,62.32,71.06-25.08,71.82-62.7,71.82-62.32-27.74-62.32-71.06ZM595.91,234.79c0-38.38-13.3-68.78-39.14-68.78s-38.76,29.26-38.76,68.78,13.3,68.78,39.14,68.78,38.76-29.26,38.76-68.78Z"/>
    <path class="cls-1" d="M630.29,298.44l-1.14-31.35h1.14c8.36,23.94,21.47,36.48,39.14,36.48,15.01,0,28.31-10.07,28.31-27.36s-13.68-24.51-29.64-32.3l-9.69-4.75c-12.73-6.27-26.41-15.2-26.41-36.48,0-22.61,16.34-39.33,39.71-39.33,10.45,0,25.08,3.42,34.2,7.6v24.7h-1.14c-8.55-20.52-19.76-29.64-34.2-29.64-15.39,0-25.27,10.26-25.27,25.65s12.16,21.85,23.75,27.55l9.69,4.75c16.53,8.17,32.3,17.1,32.3,40.47s-17.86,41.8-44.46,41.8c-11.02,0-27.36-3.23-36.29-7.79Z"/>
  </g>
  <g>
    <path class="cls-1" d="M205.89,316.11c17.31,0,26.95,9.09,26.95,21.86,0,15.37-9.2,24.46-25.21,24.46-4.65,0-8.77-1.19-11.04-2.06v20.45c0,8.01.87,13.42,8.22,13.42v.65h-28.14v-.65c7.36,0,7.79-5.41,7.79-13.42v-50.64c0-8.01-.43-13.42-7.79-13.42v-.65h29.22ZM220.28,338.62c0-10.82-4.76-20.78-16.45-20.78h-3.14c-2.6,0-4.11,1.3-4.11,3.9v33.11c0,3.46,2.16,4.98,8.01,4.98,8.66,0,15.69-7.36,15.69-21.21Z"/>
    <path class="cls-1" d="M294.08,375.74l-2.6,19.15h-55.51v-.65c7.36,0,7.79-5.41,7.79-13.42v-50.64c0-8.01-.43-13.42-7.79-13.42v-.65h53.89l1.41,17.1h-.65c-5.95-12.66-9.96-15.37-21.86-15.37h-12.88v35.17h9.85c10.06,0,12.66-2.71,14.83-10.71h.65v24.02h-.65c-2.16-8.01-4.76-11.58-14.83-11.58h-9.85v33.33c0,3.25.97,5.09,4.33,5.09h10.06c11.25,0,16.23-2.38,23.16-17.42h.65Z"/>
    <path class="cls-1" d="M361.94,394.25v.65c-1.73.22-7.14.43-10.39.43-7.79,0-9.74-3.46-23.16-32.9-1.84-3.9-3.68-4.76-7.14-4.76h-4.44v23.16c0,8.01.43,13.42,7.79,13.42v.65h-27.7v-.65c7.36,0,7.79-5.41,7.79-13.42v-50.64c0-8.01-.43-13.42-7.79-13.42v-.65h29.22c17.31,0,26.84,8.01,26.84,20.56,0,10.61-7.9,17.31-17.64,19.91v.22c3.14,1.84,5.84,6.17,8.44,11.15,10.82,20.78,12.99,24.56,18.18,26.3ZM316.81,355.94h7.36c10.71,0,16.23-6.6,16.23-18.4s-5.09-19.7-16.12-19.7h-3.35c-2.6,0-4.11,1.3-4.11,3.9v34.2Z"/>
    <path class="cls-1" d="M362.8,391.76l-.65-17.86h.65c4.76,13.64,12.23,20.78,22.29,20.78,8.55,0,16.12-5.74,16.12-15.58s-7.79-13.96-16.88-18.4l-5.52-2.71c-7.25-3.57-15.04-8.66-15.04-20.78,0-12.88,9.31-22.4,22.62-22.4,5.95,0,14.28,1.95,19.48,4.33v14.07h-.65c-4.87-11.69-11.25-16.88-19.48-16.88-8.77,0-14.39,5.84-14.39,14.61s6.93,12.44,13.53,15.69l5.52,2.71c9.42,4.65,18.4,9.74,18.4,23.05s-10.17,23.81-25.32,23.81c-6.28,0-15.58-1.84-20.67-4.44Z"/>
    <path class="cls-1" d="M413.78,355.72c0-24.24,14.28-40.91,35.71-40.91s35.49,15.8,35.49,40.47-14.28,40.91-35.71,40.91-35.49-15.8-35.49-40.47ZM471.56,355.5c0-21.86-7.58-39.17-22.29-39.17s-22.08,16.67-22.08,39.17,7.58,39.17,22.29,39.17,22.08-16.67,22.08-39.17Z"/>
    <path class="cls-1" d="M535.95,316.11h20.34v.65c-7.36,0-8.44,8.22-8.44,19.91v59.52h-.65l-47.18-70.67v49.02c0,11.25,2.17,19.7,9.96,19.7v.65h-21.43v-.65c7.36,0,9.52-8.44,9.52-19.7v-45.88c0-7.79-3.68-11.04-9.52-11.9v-.65h19.48l37.88,57.25v-36.68c0-11.69-1.73-19.91-9.96-19.91v-.65Z"/>
    <path class="cls-1" d="M613.98,381.04c3.14,8.87,5.3,12.77,9.85,13.2v.65h-27.7v-.65c6.06-.43,8.12-4.54,6.06-10.28l-5.63-15.91h-24.13l-2.17,5.95c-4.54,12.77-3.79,19.37,3.57,20.24v.65h-18.18v-.65c5.19-.65,7.9-7.9,12.55-20.89l21.1-58.54h.87l23.81,66.23ZM573.29,365.46h22.4l-11.15-31.6-11.25,31.6Z"/>
    <path class="cls-1" d="M623.83,394.9v-.65c7.36,0,7.79-5.41,7.79-13.42v-50.64c0-8.01-.43-13.42-7.79-13.42v-.65h27.7v.65c-7.36,0-7.79,5.41-7.79,13.42v58c0,3.25.97,4.98,4.22,4.98h4.65c11.69,0,17.21-3.46,24.56-19.05h.65l-2.81,20.78h-51.19Z"/>
    <path class="cls-1" d="M738.65,375.74l-2.6,19.15h-55.51v-.65c7.36,0,7.79-5.41,7.79-13.42v-50.64c0-8.01-.43-13.42-7.79-13.42v-.65h53.89l1.41,17.1h-.65c-5.95-12.66-9.96-15.37-21.86-15.37h-12.88v35.17h9.85c10.06,0,12.66-2.71,14.83-10.71h.65v24.02h-.65c-2.16-8.01-4.76-11.58-14.83-11.58h-9.85v33.33c0,3.25.97,5.09,4.33,5.09h10.06c11.25,0,16.23-2.38,23.16-17.42h.65Z"/>
    <path class="cls-1" d="M743.09,391.76l-.65-17.86h.65c4.76,13.64,12.23,20.78,22.29,20.78,8.55,0,16.12-5.74,16.12-15.58s-7.79-13.96-16.88-18.4l-5.52-2.71c-7.25-3.57-15.04-8.66-15.04-20.78,0-12.88,9.31-22.4,22.62-22.4,5.95,0,14.28,1.95,19.48,4.33v14.07h-.65c-4.87-11.69-11.25-16.88-19.48-16.88-8.77,0-14.39,5.84-14.39,14.61s6.93,12.44,13.53,15.69l5.52,2.71c9.42,4.65,18.4,9.74,18.4,23.05s-10.17,23.81-25.32,23.81c-6.28,0-15.58-1.84-20.67-4.44Z"/>
  </g>
</svg>