<?xml version="1.0" encoding="UTF-8"?>
<svg id="Capa_1" data-name="Capa 1" xmlns="http://www.w3.org/2000/svg" viewBox="0 0 541.43 310.87">
  <defs>
    <style>
      .cls-1 {
        fill: #fff;
        stroke-width: 0px;
      }
    </style>
  </defs>
  <g>
    <path class="cls-1" d="M115.71,129.69c5.51,15.58,9.31,22.42,17.29,23.18v1.14h-48.64v-1.14c10.64-.76,14.25-7.98,10.64-18.05l-9.88-27.93h-42.37l-3.8,10.45c-7.98,22.42-6.65,34.01,6.27,35.53v1.14H13.3v-1.14c9.12-1.14,13.87-13.87,22.04-36.67L72.39,13.41h1.52l41.8,116.28ZM44.27,102.33h39.33l-19.57-55.48-19.76,55.48Z"/>
    <path class="cls-1" d="M136.61,109.17V40.39c0-14.06-.76-23.56-13.68-23.56v-1.14h48.64v1.14c-12.92,0-13.68,9.5-13.68,23.56v67.64c0,30.21,9.31,43.32,31.92,43.32,21.28,0,34.96-12.54,34.96-42.94v-56.62c0-17.86-3.04-34.96-15.96-34.96v-1.14h34.2v1.14c-12.92,0-14.82,17.1-14.82,34.96v56.62c0,32.68-14.82,47.88-44.08,47.88s-47.5-14.44-47.5-47.12Z"/>
    <path class="cls-1" d="M247.75,148.5l-1.14-31.35h1.14c8.36,23.94,21.47,36.48,39.14,36.48,15.01,0,28.31-10.07,28.31-27.36s-13.68-24.51-29.64-32.3l-9.69-4.75c-12.73-6.27-26.41-15.2-26.41-36.48,0-22.61,16.34-39.33,39.71-39.33,10.45,0,25.08,3.42,34.2,7.6v24.7h-1.14c-8.55-20.52-19.76-29.64-34.2-29.64-15.39,0-25.27,10.26-25.27,25.65s12.16,21.85,23.75,27.55l9.69,4.75c16.53,8.17,32.3,17.1,32.3,40.47s-17.86,41.8-44.46,41.8c-11.02,0-27.36-3.23-36.29-7.79Z"/>
  </g>
  <g>
    <path class="cls-1" d="M200.83,190.71h-1.14c-10.45-22.23-17.1-26.98-35.34-26.98h-5.89v110.58c0,14.06.76,23.56,13.68,23.56v1.14h-48.64v-1.14c12.92,0,13.68-9.5,13.68-23.56v-110.58h-5.89c-18.05,0-24.89,4.75-35.34,26.98h-1.14l2.66-30.02h100.7l2.66,30.02Z"/>
    <path class="cls-1" d="M320.53,297.87v1.14c-3.04.38-12.54.76-18.24.76-13.68,0-17.1-6.08-40.66-57.76-3.23-6.84-6.46-8.36-12.54-8.36h-7.79v40.66c0,14.06.76,23.56,13.68,23.56v1.14h-48.64v-1.14c12.92,0,13.68-9.5,13.68-23.56v-88.92c0-14.06-.76-23.56-13.68-23.56v-1.14h51.3c30.4,0,47.12,14.06,47.12,36.1,0,18.62-13.87,30.4-30.97,34.96v.38c5.51,3.23,10.26,10.83,14.82,19.57,19,36.48,22.8,43.13,31.92,46.17ZM241.29,230.61h12.92c18.81,0,28.5-11.59,28.5-32.3s-8.93-34.58-28.31-34.58h-5.89c-4.56,0-7.22,2.28-7.22,6.84v60.04Z"/>
    <path class="cls-1" d="M416.28,274.69c5.51,15.58,9.31,22.42,17.29,23.18v1.14h-48.64v-1.14c10.64-.76,14.25-7.98,10.64-18.05l-9.88-27.93h-42.37l-3.8,10.45c-7.98,22.42-6.65,34.01,6.27,35.53v1.14h-31.92v-1.14c9.12-1.14,13.87-13.87,22.04-36.67l37.05-102.79h1.52l41.8,116.28ZM344.84,247.33h39.33l-19.57-55.48-19.76,55.48Z"/>
    <path class="cls-1" d="M434.33,299.01v-1.14c12.92,0,13.68-9.5,13.68-23.56v-88.92c0-14.06-.76-23.56-13.68-23.56v-1.14h48.64v1.14c-12.92,0-13.68,9.5-13.68,23.56v101.84c0,5.7,1.71,8.74,7.41,8.74h8.17c20.52,0,30.21-6.08,43.13-33.44h1.14l-4.94,36.48h-89.87Z"/>
  </g>
</svg>