<?xml version="1.0" encoding="UTF-8"?>
<svg id="BASE" xmlns="http://www.w3.org/2000/svg" xmlns:xlink="http://www.w3.org/1999/xlink" viewBox="0 0 547.95 221.08">
  <defs>
    <style>
      .cls-1 {
        fill: none;
      }

      .cls-2 {
        fill: #fff;
      }

      .cls-3 {
        clip-path: url(#clippath);
      }
    </style>
    <clipPath id="clippath">
      <polygon class="cls-1" points="21.29 -224.83 548.47 -303.62 548.47 -175.55 38.6 -104.15 21.29 -224.83"/>
    </clipPath>
    <clipPath id="clippath-1">
      <polygon class="cls-1" points="21.29 -224.83 35.7 -128.39 548.47 -205.02 548.47 -303.62 21.29 -224.83"/>
    </clipPath>
  </defs>
  <g class="cls-3">
    <rect class="cls-1" x="-2078.03" y="-851" width="2626.5" height="1729.65"/>
  </g>
  <g>
    <path class="cls-2" d="M26.95,140.06c-.73-13.86,8.85-32.35,22.14-33.05,5.87-.31,8.99,3.04,9.23,7.61l-3.4,3.86-.49.03c.42-7.54-1.86-10.53-5.86-10.32-8.97.47-18.03,16.4-17.28,30.67.39,7.5,3.34,10.62,8.06,10.37,5.38-.28,9.9-4.52,14.48-10.81l.51.3c-5.33,9.03-10.25,13.37-16.45,13.7-6.03.32-10.48-3.46-10.95-12.34Z"/>
    <path class="cls-2" d="M59.46,134.92c-.7-13.37,7.81-28.86,19.88-29.49,8.48-.45,14.19,5.47,14.72,15.58.7,13.37-7.81,28.86-19.88,29.49-8.48.44-14.19-5.47-14.72-15.58ZM89.57,119.61c-.42-7.99-3.81-13.37-10.33-13.03-10.27.54-15.93,17.51-15.28,29.74.42,7.99,3.81,13.37,10.33,13.03,10.27-.54,15.93-17.51,15.28-29.74Z"/>
    <path class="cls-2" d="M162.82,133.59c-3.68,7.88-7.84,12.67-10.86,12.83-2.94.15-3.49-2.6-2.6-7.55l3.85-21.79c1.13-6.44,1.82-12.03-2.83-11.79-8.23.43-18.58,19.78-22.03,41.38l-4.08.21,4.47-28.52c.97-6.43,1.82-12.03-2.83-11.79-8.15.43-18.58,19.86-22.03,41.38l-4.08.21,5.58-35.45c.37-2.31.74-4.62-.73-4.54-1.22.06-3.38,2.63-6.42,7.04l-.42-.3c3.38-7.21,7.04-10.83,9.48-10.96,2.77-.15,3.09,2.78,2.36,7.56l-3.39,21.11c5.39-17.29,14.24-29.36,21.91-29.76,6.93-.36,5.94,7.29,4.59,15.86l-2.04,12.62c5.39-17.29,14.24-29.36,21.91-29.76,6.93-.36,6.11,7.28,4.59,15.86l-3.52,20.22c-.37,2.31-.82,4.62.57,4.55,1.22-.07,3.87-2.49,8.12-8.93l.43.3Z"/>
    <path class="cls-2" d="M169.25,123.94c-.44,2.56-.63,5.1-.49,7.71.39,7.5,3.34,10.62,8.06,10.37,5.3-.28,10.88-4.58,15.46-10.86l.51.3c-5.33,9.03-11.31,13.43-17.43,13.75-6.03.32-10.48-3.46-10.95-12.34-.71-13.53,8.28-32.32,23.37-33.11,5.63-.3,7.96,2.04,8.13,5.38.39,7.5-10.29,12.72-26.65,18.81ZM169.5,122.45c14.49-5.83,22.22-9.67,21.85-16.84-.14-2.61-1.32-4.84-4.82-4.65-7.09.37-14.51,10.24-17.02,21.5Z"/>
    <path class="cls-2" d="M235.68,129.45l.43.3c-3.67,7.88-7.76,12.67-11.02,12.84-3.26.17-2.92-4.26-2.36-7.56l1.83-11.79c-4.32,12.65-12.03,20.01-18.8,20.36-5.05.26-8.2-3.58-8.59-11.08-.76-14.6,9.27-33.76,23.78-34.52,3.02-.16,5.59.52,7.31,2.15l1.97-12.45c.87-5.28-.21-7.18-2.85-7.53l.05-.49,8.21-2.56.33-.02-8.97,56.72c-.18,1.15-.68,4.21.79,4.13,1.63-.08,4.94-4.02,7.89-8.51ZM226.17,113.27l.43-2.72c.12-.91.16-1.72.09-2.95-.26-4.89-1.84-8.65-6.82-8.39-10.35.54-18.93,17.83-18.22,31.45.34,6.52,2.74,10.08,6.57,9.88,6.52-.34,15.08-11.83,17.95-27.27Z"/>
    <path class="cls-2" d="M238.17,125.56c-.7-13.37,7.81-28.86,19.88-29.49,8.48-.44,14.19,5.47,14.72,15.58.7,13.37-7.81,28.86-19.88,29.49-8.48.45-14.19-5.47-14.72-15.58ZM268.27,110.24c-.42-7.99-3.81-13.37-10.33-13.03-10.27.54-15.93,17.51-15.28,29.74.42,7.99,3.81,13.37,10.33,13.03,10.27-.54,15.92-17.51,15.28-29.74Z"/>
    <path class="cls-2" d="M305.45,94.23l-2.02,5.17-.49.03c-1-.44-1.83-.56-2.81-.51-8.4.44-14.59,21.2-17.54,39.67l-4.08.21,5.58-35.45c.37-2.31.74-4.62-.73-4.54-1.22.07-3.38,2.63-6.42,7.04l-.43-.3c3.38-7.21,7.04-10.83,9.48-10.96,2.77-.15,3.09,2.78,2.36,7.56l-2.77,17.31c3.78-13.77,9.54-25.35,16.56-25.72,1.06-.06,2.21-.03,3.3.48Z"/>
    <path class="cls-2" d="M351.31,91.18c2.55,1.83,3.7,5.04,3.9,8.87,1.02,19.49-17.98,54.82-33.39,55.63-2.53.13-5.1-.63-7.43-2.88l1.77-3.61.49-.03c2.1,2.67,4.69,3.6,7.46,3.45,6.44-.34,14.14-6.38,13.35-21.47-.69-13.21-6.73-34.8-11.21-34.57-1.39.07-2.58,2.26-3.55,7.13l-.42-.14c.5-7.63,2.53-11,5.14-11.14,6.69-.35,13.19,20.81,14.04,36.96.18,3.51.09,6.29-.36,8.69,6.44-9.82,11.37-21.85,10.71-34.41-.26-4.98-1.62-8.99-4.41-10.81l-.03-.49,3.94-1.19Z"/>
    <path class="cls-2" d="M375.02,130.32l1.67-5.49.49-.03c1.38,4.51,5.73,8.04,10.95,7.77,5.22-.27,8.5-4.78,8.24-9.75-.23-4.4-3.12-6.46-7.2-9.43l-2.38-1.76c-3.06-2.29-5.88-4.43-6.15-9.73-.35-6.69,4.66-12.51,11.83-12.88,4.57-.24,8.27,1.69,10.14,3.07l-1.11,5.29-.49.03c-1.5-3.6-4.79-7.11-9.84-6.84-4.89.26-7.42,5.05-7.21,9.05.22,4.16,2.61,6.16,5.59,8.37l2.38,1.76c4.76,3.51,7.59,5.9,7.85,10.95.38,7.17-5.45,13.04-13.44,13.46-4.89.26-9.41-1.63-11.32-3.82Z"/>
    <path class="cls-2" d="M443.67,118.88c-3.67,7.88-7.76,12.67-11.02,12.84-3.26.17-2.92-4.26-2.36-7.56l1.91-11.95c-4.4,12.82-12.11,20.17-18.87,20.53-5.05.27-8.2-3.57-8.59-11.08-.76-14.6,9.27-33.76,23.78-34.52,3.51-.18,6.33.73,8.01,3.01l3.27-3.12.49-.03-5.72,35.95c-.18,1.15-.68,4.21.79,4.13,1.63-.08,4.94-4.02,7.89-8.51l.43.3ZM434.04,100.58c.19-1.15.29-2.22.21-3.85-.26-4.89-1.84-8.65-6.82-8.39-10.35.54-18.93,17.83-18.22,31.45.34,6.52,2.74,10.08,6.57,9.88,6.77-.35,15.77-12.68,18.26-29.08Z"/>
    <path class="cls-2" d="M446.35,123.32l7.49-47.32c.87-5.28-.21-7.18-2.85-7.53l.06-.49,8.21-2.56.33-.02-8.97,56.72c-.18,1.15-.68,4.2.79,4.13,1.63-.09,4.94-4.02,7.89-8.51l.43.3c-3.68,7.88-7.76,12.67-11.02,12.84-3.26.17-2.92-4.26-2.36-7.56Z"/>
    <path class="cls-2" d="M500.16,115.92c-3.67,7.88-7.76,12.67-11.02,12.84s-2.92-4.26-2.36-7.56l1.91-11.96c-4.4,12.82-12.1,20.18-18.87,20.53-5.05.26-8.2-3.58-8.59-11.08-.76-14.6,9.27-33.76,23.78-34.52,3.51-.18,6.33.73,8.01,3.01l3.27-3.12.49-.03-5.72,35.95c-.18,1.15-.68,4.2.79,4.13,1.63-.08,4.94-4.02,7.89-8.51l.43.3ZM490.54,97.62c.19-1.15.29-2.22.21-3.85-.26-4.89-1.84-8.65-6.82-8.39-10.35.54-18.93,17.83-18.22,31.45.34,6.52,2.73,10.08,6.57,9.88,6.77-.35,15.77-12.68,18.26-29.08Z"/>
  </g>
</svg>