<?xml version="1.0" encoding="UTF-8"?>
<svg id="Capa_1" data-name="Capa 1" xmlns="http://www.w3.org/2000/svg" xmlns:xlink="http://www.w3.org/1999/xlink" viewBox="0 0 547.95 222.49">
  <defs>
    <style>
      .cls-1 {
        clip-path: url(#clippath);
      }

      .cls-2 {
        fill: none;
      }

      .cls-2, .cls-3, .cls-4 {
        stroke-width: 0px;
      }

      .cls-3 {
        fill: #9c5d8a;
      }

      .cls-4 {
        fill: #792a67;
      }
    </style>
    <clipPath id="clippath">
      <polygon class="cls-2" points="21.29 -486.29 548.47 -565.08 548.47 -437.01 38.6 -365.61 21.29 -486.29"/>
    </clipPath>
    <clipPath id="clippath-1">
      <polygon class="cls-2" points="21.29 -486.29 35.7 -389.84 548.47 -466.48 548.47 -565.08 21.29 -486.29"/>
    </clipPath>
  </defs>
  <g class="cls-1">
    <rect class="cls-2" x="-2078.03" y="-1112.46" width="2626.5" height="1729.65"/>
  </g>
  <path class="cls-4" d="M131.13,71.82c-5.5,0-9.97,4.37-9.97,9.75s4.47,9.75,9.97,9.75,9.98-4.36,9.98-9.75-4.46-9.75-9.98-9.75M70.22,143.03h-.3l-23.37-72.12h-23.68l33.97,102.58h26.03l34.85-102.58h-23.83l-23.67,72.12ZM120.85,173.56h20.07v-74.37h-20.07v74.37ZM183.83,97.17c-16.4,0-33.21,5.75-34.34,24.88h20.07c.71-8.06,5.64-11.23,13.29-11.23,6.54,0,12.12,1.14,12.91,8.27v10.39h-15.45s-8.65-.12-15.25,1.93c-9.61,3-17.84,8.16-17.84,21.86,0,15.26,11.04,22.3,24.88,22.3,8.48,0,17.35-2.22,23.67-8.29v6.27h20.1v-56.81c-1-16.48-17.91-19.58-32.04-19.58M195.65,148.38c-.66,5.53-3.57,13.52-16.05,13.52-6.51,0-12.3-1.86-12.3-9.49,0-6.49,3.55-8.96,8.73-10.35.98-.11,2.08-.36,3.32-.43h16.31v6.75ZM500.34,99.19l-15.96,50.92h-.28l-16.55-50.92h-21.48l25.72,69.77c2.27,5.89,0,13.24-6.93,13.95-3.95.15-7.91-.43-11.74-.72v16.83c4.12.42,8.2.72,12.31.72,13.84,0,20.79-4.89,25.16-16.83l30.54-83.73h-20.79ZM413.62,97.17c-22.18,0-37.32,16.98-37.32,39.27s14.29,39.13,37.32,39.13c16.54,0,28.57-7.48,34.22-25.03h-17.68c-1.26,4.6-7.77,9.63-15.82,9.63-11.18,0-17.39-5.89-17.95-18.85h52.73c1.4-22.87-10.61-44.16-35.5-44.16M396.38,128.39c.28-5.76,3.95-15.83,16.68-15.83,9.77,0,14.14,5.47,15.97,15.83h-32.65ZM515.41,166.01c0-1.38-.82-2.06-2.57-2.06h-2.87v7.23h1.17v-3.11h1.22l2,3.11h1.23l-2.11-3.19c1.1-.1,1.93-.66,1.93-1.97M512.32,167.16h-1.18v-2.3h1.52c.77,0,1.62.15,1.62,1.09,0,1.16-.94,1.21-1.96,1.21M512.45,161.39c-3.48,0-6.4,2.67-6.4,6.14s2.92,6.23,6.4,6.23,6.32-2.66,6.32-6.23-2.88-6.14-6.32-6.14M512.45,172.84c-2.97,0-5.23-2.29-5.23-5.31s2.26-5.23,5.23-5.23,5.18,2.28,5.18,5.23-2.27,5.31-5.18,5.31M266.9,97.17c-8.49,0-17.26,4.03-22.35,12.36h-.42v-10.35h-19.07v74.37h20.07v-38.98c0-15.1,4.66-21.29,15.54-21.29,9.34,0,12.87,6.04,12.87,18.27v42h20.08v-45.74c0-18.43-5.37-30.65-26.71-30.65M344.29,97.17c-8.46,0-17.24,4.03-22.35,12.36h-.43v-10.35h-19.07v74.37h20.07v-38.98c0-15.1,4.67-21.29,15.56-21.29,9.33,0,12.86,6.04,12.86,18.27v42h20.07v-45.74c0-18.43-5.37-30.65-26.71-30.65"/>
  <path class="cls-3" d="M314.97,76.76v-29.47h24.76c12.58,0,19.89,4.86,19.89,14.27,0,11.63-8.95,15.21-19.43,15.21h-25.21ZM314.97,41.29V14.93h24.76c11.22,0,17.02,4.64,17.02,13.85,0,6.93-5.49,12.51-17.02,12.51h-24.76ZM339.73,8.93h-31.95v73.83h31.95c24.54,0,27.07-13.96,27.07-21,0-9.61-6.23-16.74-15.98-17.98v-.2c7.84-1.65,13.13-8.8,13.13-16.55,0-13.75-11.54-18.09-24.23-18.09"/>
  <path class="cls-3" d="M375.7,52.35c1.06-9.72,7.1-19.02,17.98-19.02s17.04,9.21,17.35,19.02h-35.34ZM393.69,27.85c-17.34,0-24.65,14.17-24.65,28.23,0,15.19,7.31,28.23,24.65,28.23,13.76,0,20.94-7.04,23.81-19.14h-6.67c-2.11,8.08-7.42,13.66-17.14,13.66-12.8,0-17.88-11.48-17.98-20.99h42c.54-15-6.46-29.99-24.02-29.99"/>
  <path class="cls-3" d="M447.22,78.83c-14.18,0-19.15-11.68-19.15-22.74s4.97-22.75,19.15-22.75c12.69,0,17.88,11.69,17.88,22.75s-5.19,22.74-17.88,22.74M428.08,8.93h-6.66v73.83h6.14v-10.14h.22c3.07,7.24,10.67,11.69,19.46,11.69,16.6,0,24.54-13.14,24.54-28.23s-7.93-28.23-24.54-28.23c-8.15,0-16.08,4.03-18.94,11.68h-.21V8.93Z"/>
  <path class="cls-3" d="M480.76,52.35c1.06-9.72,7.09-19.02,17.98-19.02s17.04,9.2,17.36,19.02h-35.34ZM498.74,27.85c-17.35,0-24.64,14.17-24.64,28.23,0,15.19,7.29,28.23,24.64,28.23,13.76,0,20.95-7.04,23.81-19.14h-6.66c-2.12,8.08-7.4,13.66-17.14,13.66-12.8,0-17.87-11.47-17.98-20.99h42c.52-15-6.46-29.99-24.02-29.99M511.02,7.38h-8.25l-11.11,14.58h5.39l13.97-14.58Z"/>
  <g>
    <path class="cls-4" d="M361.82,206.76l6.82-5.89c1.26-1.1,2.23-2.04,2.93-2.83.7-.79,1.2-1.52,1.49-2.2.3-.68.45-1.38.45-2.09,0-.84-.18-1.55-.54-2.15s-.87-1.05-1.52-1.36c-.66-.31-1.45-.46-2.36-.46-1.44,0-2.59.33-3.47.99-.88.66-1.52,1.66-1.91,2.99l-2.3-.81c.56-1.81,1.48-3.19,2.78-4.11,1.29-.93,2.94-1.39,4.93-1.39,1.52,0,2.8.25,3.86.75,1.06.5,1.86,1.21,2.42,2.14.56.93.84,2.02.84,3.27,0,.94-.2,1.85-.6,2.75-.4.9-1.02,1.83-1.87,2.8-.85.97-1.99,2.07-3.42,3.3-.52.46-.81.72-.87.78l-5.98,4.9-1.67-1.38ZM361.82,206.76l2.33-.3h12.8v2.39h-15.13v-2.09Z"/>
    <path class="cls-4" d="M377.4,201.91l11.57-14.02,1.67,1.41-11.12,13.45-.18-1.14h15.37v2.24h-17.31v-1.94ZM388.85,189.71l.12-1.82h2.66v20.96h-2.78v-19.14Z"/>
    <path class="cls-4" d="M397.05,201.13h9.51v2.6h-9.51v-2.6Z"/>
    <path class="cls-4" d="M408.23,206.76l6.82-5.89c1.26-1.1,2.23-2.04,2.93-2.83.7-.79,1.2-1.52,1.49-2.2.3-.68.45-1.38.45-2.09,0-.84-.18-1.55-.54-2.15s-.87-1.05-1.52-1.36c-.66-.31-1.45-.46-2.36-.46-1.44,0-2.59.33-3.47.99-.88.66-1.52,1.66-1.91,2.99l-2.3-.81c.56-1.81,1.48-3.19,2.78-4.11,1.29-.93,2.94-1.39,4.93-1.39,1.52,0,2.8.25,3.86.75,1.06.5,1.86,1.21,2.42,2.14.56.93.84,2.02.84,3.27,0,.94-.2,1.85-.6,2.75-.4.9-1.02,1.83-1.87,2.8-.85.97-1.99,2.07-3.42,3.3-.52.46-.81.72-.87.78l-5.98,4.9-1.67-1.38ZM408.23,206.76l2.33-.3h12.8v2.39h-15.13v-2.09Z"/>
    <path class="cls-4" d="M429.14,208.74c-1.05-.41-1.93-1.01-2.65-1.81-.72-.8-1.26-1.79-1.61-2.99l2.27-.96c.46,1.34,1.14,2.33,2.03,2.97.9.65,2.07.97,3.53.97,1.1,0,2.02-.21,2.78-.63.76-.42,1.31-1.01,1.64-1.76s.51-1.62.51-2.6c0-1.41-.42-2.52-1.26-3.32-.84-.8-2.02-1.2-3.56-1.2-1.1,0-2.04.18-2.83.52-.79.35-1.54.85-2.26,1.51l-2.15-.84.6-10.7h12.89v2.48h-11.93l1.29-1.26-.42,8.79-.6-.72c.9-.74,1.81-1.26,2.75-1.58.94-.32,2-.48,3.2-.48,1.59,0,2.92.29,3.98.88,1.06.59,1.83,1.4,2.33,2.44s.75,2.2.75,3.5c0,1.44-.33,2.71-.99,3.83-.66,1.12-1.57,1.99-2.73,2.62-1.17.63-2.5.94-3.99.94-1.33,0-2.53-.2-3.57-.61Z"/>
  </g>
</svg>