<?xml version="1.0" encoding="UTF-8"?>
<svg id="Capa_1" data-name="Capa 1" xmlns="http://www.w3.org/2000/svg" viewBox="0 0 510.94 228.14">
  <defs>
    <style>
      .cls-1 {
        fill: #fff;
        stroke-width: 0px;
      }
    </style>
  </defs>
  <g>
    <path class="cls-1" d="M70.42,6.25l1.82,22.12h-.84c-7.7-16.38-13.02-19.88-28.28-19.88h-14.84v48.3h12.74c13.02,0,16.38-3.5,19.18-13.86h.84v31.08h-.84c-2.8-10.36-6.16-14.98-19.18-14.98h-12.74v30.94c0,10.36.56,17.36,10.08,17.36v.84H2.52v-.84c9.52,0,10.08-7,10.08-17.36V24.45c0-10.36-.56-17.36-10.08-17.36v-.84h67.9Z"/>
    <path class="cls-1" d="M85.96,75.13V24.45c0-10.36-.56-17.36-10.08-17.36v-.84h35.84v.84c-9.52,0-10.08,7-10.08,17.36v49.84c0,22.26,6.86,31.92,23.52,31.92,15.68,0,25.76-9.24,25.76-31.64v-41.72c0-13.16-2.24-25.76-11.76-25.76v-.84h25.2v.84c-9.52,0-10.92,12.6-10.92,25.76v41.72c0,24.08-10.92,35.28-32.48,35.28s-35-10.64-35-34.72Z"/>
    <path class="cls-1" d="M227.64,6.25h26.32v.84c-9.52,0-10.92,10.64-10.92,25.76v77h-.84l-61.04-91.42v63.42c0,14.56,2.8,25.48,12.88,25.48v.84h-27.72v-.84c9.52,0,12.32-10.92,12.32-25.48V22.49c0-10.08-4.76-14.28-12.32-15.4v-.84h25.2l49,74.06v-47.46c0-15.12-2.24-25.76-12.88-25.76v-.84Z"/>
    <path class="cls-1" d="M258.16,108.17v-.84c9.52,0,10.08-7,10.08-17.36V24.45c0-10.36-.56-17.36-10.08-17.36v-.84h42c31.64,0,50.12,17.78,50.12,49.7s-20.3,52.22-51.24,52.22h-40.88ZM332.92,56.79c0-27.16-9.38-48.3-34.16-48.3h-9.52c-3.36,0-5.32,1.68-5.32,5.04v83.44c0,6.16,3.08,8.96,15.96,8.96,24.08,0,33.04-19.46,33.04-49.14Z"/>
    <path class="cls-1" d="M421.25,90.25c4.06,11.48,6.86,16.52,12.74,17.08v.84h-35.84v-.84c7.84-.56,10.5-5.88,7.84-13.3l-7.28-20.58h-31.22l-2.8,7.7c-5.88,16.52-4.9,25.06,4.62,26.18v.84h-23.52v-.84c6.72-.84,10.22-10.22,16.24-27.02l27.3-75.74h1.12l30.8,85.68ZM368.62,70.09h28.98l-14.42-40.88-14.56,40.88Z"/>
    <path class="cls-1" d="M435.81,104.11l-.84-23.1h.84c6.16,17.64,15.82,26.88,28.84,26.88,11.06,0,20.86-7.42,20.86-20.16s-10.08-18.06-21.84-23.8l-7.14-3.5c-9.38-4.62-19.46-11.2-19.46-26.88,0-16.66,12.04-28.98,29.26-28.98,7.7,0,18.48,2.52,25.2,5.6v18.2h-.84c-6.3-15.12-14.56-21.84-25.2-21.84-11.34,0-18.62,7.56-18.62,18.9s8.96,16.1,17.5,20.3l7.14,3.5c12.18,6.02,23.8,12.6,23.8,29.82s-13.16,30.8-32.76,30.8c-8.12,0-20.16-2.38-26.74-5.74Z"/>
  </g>
  <g>
    <path class="cls-1" d="M30.52,222.13v-.84c9.52,0,10.08-7,10.08-17.36v-65.52c0-10.36-.56-17.36-10.08-17.36v-.84h42c31.64,0,50.12,17.78,50.12,49.7s-20.3,52.22-51.24,52.22H30.52ZM105.28,170.75c0-27.16-9.38-48.3-34.16-48.3h-9.52c-3.36,0-5.32,1.68-5.32,5.04v83.44c0,6.16,3.08,8.96,15.96,8.96,24.08,0,33.04-19.46,33.04-49.14Z"/>
    <path class="cls-1" d="M135.66,189.09v-50.68c0-10.36-.56-17.36-10.08-17.36v-.84h35.84v.84c-9.52,0-10.08,7-10.08,17.36v49.84c0,22.26,6.86,31.92,23.52,31.92,15.68,0,25.76-9.24,25.76-31.64v-41.72c0-13.16-2.24-25.76-11.76-25.76v-.84h25.2v.84c-9.52,0-10.92,12.6-10.92,25.76v41.72c0,24.08-10.92,35.28-32.48,35.28s-35-10.64-35-34.72Z"/>
    <path class="cls-1" d="M277.48,120.21h23.52v.84c-6.72,1.12-10.22,10.22-16.24,27.02l-27.3,75.74h-1.12l-30.8-85.68c-4.06-11.48-6.86-16.52-12.74-17.08v-.84h35.84v.84c-7.84.56-10.5,5.18-7.7,13.3l22.68,64.82,18.48-51.94c5.88-16.52,4.9-25.06-4.62-26.18v-.84Z"/>
    <path class="cls-1" d="M376.73,197.35l-3.36,24.78h-71.82v-.84c9.52,0,10.08-7,10.08-17.36v-65.52c0-10.36-.56-17.36-10.08-17.36v-.84h69.72l1.82,22.12h-.84c-7.7-16.38-12.88-19.88-28.28-19.88h-16.66v45.5h12.74c13.02,0,16.38-3.5,19.18-13.86h.84v31.08h-.84c-2.8-10.36-6.16-14.98-19.18-14.98h-12.74v43.12c0,4.2,1.26,6.58,5.6,6.58h13.02c14.56,0,21-3.08,29.96-22.54h.84Z"/>
    <path class="cls-1" d="M458.07,142.33h-.84c-7.7-16.38-12.6-19.88-26.04-19.88h-4.34v81.48c0,10.36.56,17.36,10.08,17.36v.84h-35.84v-.84c9.52,0,10.08-7,10.08-17.36v-81.48h-4.34c-13.3,0-18.34,3.5-26.04,19.88h-.84l1.96-22.12h74.2l1.96,22.12Z"/>
  </g>
</svg>