<?xml version="1.0" encoding="UTF-8"?>
<svg id="Capa_1" data-name="Capa 1" xmlns="http://www.w3.org/2000/svg" viewBox="0 0 790.68 322.47">
  <defs>
    <style>
      .cls-1 {
        fill: #fff;
        stroke-width: 0px;
      }
    </style>
  </defs>
  <g>
    <path class="cls-1" d="M18.35,154.54v-1.14c12.92,0,13.68-9.5,13.68-23.56V40.92c0-14.06-.76-23.56-13.68-23.56v-1.14h57c42.94,0,68.02,24.13,68.02,67.45s-27.55,70.87-69.54,70.87H18.35ZM119.81,84.81c0-36.86-12.73-65.55-46.36-65.55h-12.92c-4.56,0-7.22,2.28-7.22,6.84v113.24c0,8.36,4.18,12.16,21.66,12.16,32.68,0,44.84-26.41,44.84-66.69Z"/>
    <path class="cls-1" d="M254.14,120.91l-4.56,33.63h-97.47v-1.14c12.92,0,13.68-9.5,13.68-23.56V40.92c0-14.06-.76-23.56-13.68-23.56v-1.14h94.62l2.47,30.02h-1.14c-10.45-22.23-17.48-26.98-38.38-26.98h-22.61v61.75h17.29c17.67,0,22.23-4.75,26.03-18.81h1.14v42.18h-1.14c-3.8-14.06-8.36-20.33-26.03-20.33h-17.29v58.52c0,5.7,1.71,8.93,7.6,8.93h17.67c19.76,0,28.5-4.18,40.66-30.59h1.14Z"/>
    <path class="cls-1" d="M261.54,85.76c0-42.56,27.55-71.82,65.36-71.82,19,0,32.3,5.7,41.04,10.26l1.14,26.22h-1.14c-9.12-21.28-22.04-33.82-41.8-33.82-25.08,0-41.04,29.26-41.04,68.78s16.34,68.78,41.04,68.78c19.76,0,34.2-13.3,43.32-37.24h1.14l-3.42,30.4c-8.74,4.18-22.04,9.5-40.28,9.5-37.81,0-65.36-27.36-65.36-71.06Z"/>
    <path class="cls-1" d="M379.53,85.76c0-42.56,25.08-71.82,62.7-71.82s62.32,27.74,62.32,71.06-25.08,71.82-62.7,71.82-62.32-27.74-62.32-71.06ZM480.99,85.38c0-38.38-13.3-68.78-39.14-68.78s-38.76,29.26-38.76,68.78,13.3,68.78,39.14,68.78,38.76-29.26,38.76-68.78Z"/>
  </g>
  <g>
    <path class="cls-1" d="M238.1,298.37v1.14c-3.04.38-12.54.76-18.24.76-13.68,0-17.1-6.08-40.66-57.76-3.23-6.84-6.46-8.36-12.54-8.36h-7.79v40.66c0,14.06.76,23.56,13.68,23.56v1.14h-48.64v-1.14c12.92,0,13.68-9.5,13.68-23.56v-88.92c0-14.06-.76-23.56-13.68-23.56v-1.14h51.3c30.4,0,47.12,14.06,47.12,36.1,0,18.62-13.87,30.4-30.97,34.96v.38c5.51,3.23,10.26,10.83,14.82,19.57,19,36.48,22.8,43.13,31.92,46.17ZM158.87,231.11h12.92c18.81,0,28.5-11.59,28.5-32.3s-8.93-34.58-28.31-34.58h-5.89c-4.56,0-7.22,2.28-7.22,6.84v60.04Z"/>
    <path class="cls-1" d="M333.1,275.19c5.51,15.58,9.31,22.42,17.29,23.18v1.14h-48.64v-1.14c10.64-.76,14.25-7.98,10.64-18.05l-9.88-27.93h-42.37l-3.8,10.45c-7.98,22.42-6.65,34.01,6.27,35.53v1.14h-31.92v-1.14c9.12-1.14,13.87-13.87,22.04-36.67l37.05-102.79h1.52l41.8,116.28ZM261.66,247.83h39.33l-19.57-55.48-19.76,55.48Z"/>
    <path class="cls-1" d="M352.09,230.73c0-42.56,27.55-71.82,65.36-71.82,19,0,32.3,5.7,41.04,10.26l1.14,26.22h-1.14c-9.12-21.28-22.04-33.82-41.8-33.82-25.08,0-41.04,29.26-41.04,68.78s16.34,68.78,41.04,68.78c19.76,0,34.2-13.3,43.32-37.24h1.14l-3.42,30.4c-8.74,4.18-22.04,9.5-40.28,9.5-37.81,0-65.36-27.36-65.36-71.06Z"/>
    <path class="cls-1" d="M467.42,299.51v-1.14c12.92,0,13.68-9.5,13.68-23.56v-88.92c0-14.06-.76-23.56-13.68-23.56v-1.14h48.64v1.14c-12.92,0-13.68,9.5-13.68,23.56v88.92c0,14.06.76,23.56,13.68,23.56v1.14h-48.64Z"/>
    <path class="cls-1" d="M524.04,230.73c0-42.56,25.08-71.82,62.7-71.82s62.32,27.74,62.32,71.06-25.08,71.82-62.7,71.82-62.32-27.74-62.32-71.06ZM625.5,230.35c0-38.38-13.3-68.78-39.14-68.78s-38.76,29.26-38.76,68.78,13.3,68.78,39.14,68.78,38.76-29.26,38.76-68.78ZM578.57,150.54c4.94-11.4,11.78-33.25,14.25-37.24,1.71-2.66,4.18-4.18,6.84-4.18,4.94,0,8.36,4.56,8.36,8.17,0,1.52-.57,3.04-1.52,4.56-2.47,3.99-19,19.57-27.17,29.07l-.76-.38Z"/>
    <path class="cls-1" d="M738.55,161.18h35.72v1.14c-12.92,0-14.82,14.44-14.82,34.96v104.5h-1.14l-82.84-124.07v86.07c0,19.76,3.8,34.58,17.48,34.58v1.14h-37.62v-1.14c12.92,0,16.72-14.82,16.72-34.58v-80.56c0-13.68-6.46-19.38-16.72-20.9v-1.14h34.2l66.5,100.51v-64.41c0-20.52-3.04-34.96-17.48-34.96v-1.14Z"/>
  </g>
</svg>