<?xml version="1.0" encoding="UTF-8"?>
<svg id="Capa_1" data-name="Capa 1" xmlns="http://www.w3.org/2000/svg" viewBox="0 0 524.04 310.59">
  <defs>
    <style>
      .cls-1 {
        fill: #fff;
        stroke-width: 0px;
      }
    </style>
  </defs>
  <g>
    <path class="cls-1" d="M103.21,11.58h31.92v1.14c-9.12,1.52-13.87,13.87-22.04,36.67l-37.05,102.79h-1.52L32.72,35.9c-5.51-15.58-9.31-22.42-17.29-23.18v-1.14h48.64v1.14c-10.64.76-14.25,7.03-10.45,18.05l30.78,87.97,25.08-70.49c7.98-22.42,6.65-34.01-6.27-35.53v-1.14Z"/>
    <path class="cls-1" d="M135.89,149.91v-1.14c12.92,0,13.68-9.5,13.68-23.56V36.28c0-14.06-.76-23.56-13.68-23.56v-1.14h48.64v1.14c-12.92,0-13.68,9.5-13.68,23.56v88.92c0,14.06.76,23.56,13.68,23.56v1.14h-48.64Z"/>
    <path class="cls-1" d="M287.7,125.59c5.51,15.58,9.31,22.42,17.29,23.18v1.14h-48.64v-1.14c10.64-.76,14.25-7.98,10.64-18.05l-9.88-27.93h-42.37l-3.8,10.45c-7.98,22.42-6.65,34.01,6.27,35.53v1.14h-31.92v-1.14c9.12-1.14,13.87-13.87,22.04-36.67L244.38,9.3h1.52l41.8,116.28ZM216.26,98.23h39.33l-19.57-55.48-19.76,55.48Z"/>
  </g>
  <g>
    <path class="cls-1" d="M136.71,294.88v-1.14c12.92,0,13.68-9.5,13.68-23.56v-88.92c0-14.06-.76-23.56-13.68-23.56v-1.14h48.64v1.14c-12.92,0-13.68,9.5-13.68,23.56v101.84c0,5.7,1.71,8.74,7.41,8.74h8.17c20.52,0,30.21-6.08,43.13-33.44h1.14l-4.94,36.48h-89.87Z"/>
    <path class="cls-1" d="M236.27,294.88v-1.14c12.92,0,13.68-9.5,13.68-23.56v-88.92c0-14.06-.76-23.56-13.68-23.56v-1.14h48.64v1.14c-12.92,0-13.68,9.5-13.68,23.56v88.92c0,14.06.76,23.56,13.68,23.56v1.14h-48.64Z"/>
    <path class="cls-1" d="M395.68,186.57h-1.14c-10.45-22.23-17.1-26.98-35.34-26.98h-5.89v110.58c0,14.06.76,23.56,13.68,23.56v1.14h-48.64v-1.14c12.92,0,13.68-9.5,13.68-23.56v-110.58h-5.89c-18.05,0-24.89,4.75-35.34,26.98h-1.14l2.66-30.02h100.7l2.66,30.02Z"/>
    <path class="cls-1" d="M502.46,261.24l-4.56,33.63h-97.47v-1.14c12.92,0,13.68-9.5,13.68-23.56v-88.92c0-14.06-.76-23.56-13.68-23.56v-1.14h94.62l2.47,30.02h-1.14c-10.45-22.23-17.48-26.98-38.38-26.98h-22.61v61.75h17.29c17.67,0,22.23-4.75,26.03-18.81h1.14v42.18h-1.14c-3.8-14.06-8.36-20.33-26.03-20.33h-17.29v58.52c0,5.7,1.71,8.93,7.6,8.93h17.67c19.76,0,28.5-4.18,40.66-30.59h1.14ZM444.89,146.29l-.76-.38c4.94-11.4,11.78-33.25,14.25-37.24,1.71-2.66,4.18-4.18,6.84-4.18,4.94,0,8.36,4.56,8.36,8.17,0,1.52-.57,3.04-1.52,4.56-2.47,3.99-19,19.57-27.17,29.07Z"/>
  </g>
</svg>