<?xml version="1.0" encoding="UTF-8"?>
<svg id="Capa_1" data-name="Capa 1" xmlns="http://www.w3.org/2000/svg" viewBox="0 0 518.84 314.26">
  <defs>
    <style>
      .cls-1 {
        fill: #fff;
        stroke-width: 0px;
      }
    </style>
  </defs>
  <g>
    <path class="cls-1" d="M119.28,114.74l-4.56,33.63H17.25v-1.14c12.92,0,13.68-9.5,13.68-23.56V34.75c0-14.06-.76-23.56-13.68-23.56v-1.14h94.62l2.47,30.02h-1.14c-10.45-22.23-17.48-26.98-38.38-26.98h-22.61v61.75h17.29c17.67,0,22.23-4.75,26.03-18.81h1.14v42.18h-1.14c-3.8-14.06-8.36-20.33-26.03-20.33h-17.29v58.52c0,5.7,1.71,8.93,7.6,8.93h17.67c19.76,0,28.5-4.18,40.66-30.59h1.14Z"/>
    <path class="cls-1" d="M206.68,10.05h31.92v1.14c-9.12,1.52-13.87,13.87-22.04,36.67l-37.05,102.79h-1.52l-41.8-116.28c-5.51-15.58-9.31-22.42-17.29-23.18v-1.14h48.64v1.14c-10.64.76-14.25,7.03-10.45,18.05l30.78,87.97,25.08-70.49c7.98-22.42,6.65-34.01-6.27-35.53v-1.14Z"/>
    <path class="cls-1" d="M341.39,114.74l-4.56,33.63h-97.47v-1.14c12.92,0,13.68-9.5,13.68-23.56V34.75c0-14.06-.76-23.56-13.68-23.56v-1.14h94.62l2.47,30.02h-1.14c-10.45-22.23-17.48-26.98-38.38-26.98h-22.61v61.75h17.29c17.67,0,22.23-4.75,26.03-18.81h1.14v42.18h-1.14c-3.8-14.06-8.36-20.33-26.03-20.33h-17.29v58.52c0,5.7,1.71,8.93,7.6,8.93h17.67c19.76,0,28.5-4.18,40.66-30.59h1.14Z"/>
  </g>
  <g>
    <path class="cls-1" d="M203.45,292.2v1.14c-3.04.38-12.54.76-18.24.76-13.68,0-17.1-6.08-40.66-57.76-3.23-6.84-6.46-8.36-12.54-8.36h-7.79v40.66c0,14.06.76,23.56,13.68,23.56v1.14h-48.64v-1.14c12.92,0,13.68-9.5,13.68-23.56v-88.92c0-14.06-.76-23.56-13.68-23.56v-1.14h51.3c30.4,0,47.12,14.06,47.12,36.1,0,18.62-13.87,30.4-30.97,34.96v.38c5.51,3.23,10.26,10.83,14.82,19.57,19,36.48,22.8,43.13,31.92,46.17ZM124.22,224.94h12.92c18.81,0,28.5-11.59,28.5-32.3s-8.93-34.58-28.31-34.58h-5.89c-4.56,0-7.22,2.28-7.22,6.84v60.04Z"/>
    <path class="cls-1" d="M304.91,259.71l-4.56,33.63h-97.47v-1.14c12.92,0,13.68-9.5,13.68-23.56v-88.92c0-14.06-.76-23.56-13.68-23.56v-1.14h94.62l2.47,30.02h-1.14c-10.45-22.23-17.48-26.98-38.38-26.98h-22.61v61.75h17.29c17.67,0,22.23-4.75,26.03-18.81h1.14v42.18h-1.14c-3.8-14.06-8.36-20.33-26.03-20.33h-17.29v58.52c0,5.7,1.71,8.93,7.6,8.93h17.67c19.76,0,28.5-4.18,40.66-30.59h1.14Z"/>
    <path class="cls-1" d="M313.46,287.83l-1.14-31.35h1.14c8.36,23.94,21.47,36.48,39.14,36.48,15.01,0,28.31-10.07,28.31-27.36s-13.68-24.51-29.64-32.3l-9.69-4.75c-12.73-6.27-26.41-15.2-26.41-36.48,0-22.61,16.34-39.33,39.71-39.33,10.45,0,25.08,3.42,34.2,7.6v24.7h-1.14c-8.55-20.52-19.76-29.64-34.2-29.64-15.39,0-25.27,10.26-25.27,25.65s12.16,21.85,23.75,27.55l9.69,4.75c16.53,8.17,32.3,17.1,32.3,40.47s-17.86,41.8-44.46,41.8c-11.02,0-27.36-3.23-36.29-7.79Z"/>
    <path class="cls-1" d="M505.17,185.04h-1.14c-10.45-22.23-17.1-26.98-35.34-26.98h-5.89v110.58c0,14.06.76,23.56,13.68,23.56v1.14h-48.64v-1.14c12.92,0,13.68-9.5,13.68-23.56v-110.58h-5.89c-18.05,0-24.89,4.75-35.34,26.98h-1.14l2.66-30.02h100.7l2.66,30.02Z"/>
  </g>
</svg>