<?xml version="1.0" encoding="UTF-8"?>
<svg id="DISEÑO" xmlns="http://www.w3.org/2000/svg" viewBox="0 0 592.32 237.08">
  <defs>
    <style>
      .cls-1 {
        fill: #5d514d;
        stroke-width: 0px;
      }
    </style>
  </defs>
  <path class="cls-1" d="M28.4,75.8c0-21.77,14.84-45.49,40.31-45.49,9.66,0,16.79,3.51,20.4,5.86l-1.85,11.22h-.59c-2.93-10.05-8.79-15.71-17.67-15.71-19.72,0-31.53,26.94-31.53,47.44,0,13.57,5.66,23.23,17.37,23.23,9.66,0,17.77-6.83,24.4-17.47h.58l-4.49,13.86c-4.98,2.25-11.52,4.98-20.01,4.98-17.38,0-26.94-10.93-26.94-27.92Z"/>
  <path class="cls-1" d="M84.72,83.71c0-16.11,11.32-33.48,26.45-33.48,10.74,0,17.67,7.71,17.67,20.11,0,16.4-11.32,33.38-26.35,33.38-10.64,0-17.77-7.61-17.77-20.01ZM120.84,66.43c0-8.78-2.93-14.84-9.47-14.84-11.42,0-18.55,21.67-18.55,35.92,0,8.69,2.93,14.84,9.47,14.84,11.52,0,18.55-21.67,18.55-35.92Z"/>
  <path class="cls-1" d="M211.22,88.79c-4.98,9.37-10.44,14.93-14.93,14.93s-4.98-4.49-3.61-10.35l5.76-25.18c1.46-6.34,2.54-12.2-2.15-12.2-8.39,0-21.18,21.67-26.55,46.56h-7.81l7.12-34.36c1.37-6.34,2.54-12.2-2.05-12.2-8.39,0-21.28,21.77-26.65,46.56h-7.81l8.69-41.09c.49-2.34,1.07-4.98-.59-4.98-1.37,0-3.9,2.54-7.42,7.13l-.49-.39c4.29-8.39,9.27-12.98,13.27-12.98,4.49,0,4.49,4.59,3.32,10.35l-4.88,22.84c7.13-19.33,17.57-33.19,27.33-33.19,8.1,0,7.32,8.59,5.17,18.74l-3.32,14.84c7.13-19.42,17.67-33.58,27.53-33.58,8.1,0,7.42,8.59,5.08,18.74l-5.37,23.52c-.59,2.34-1.17,4.98.39,4.98,1.46,0,4.69-2.63,9.47-9.08l.49.39Z"/>
  <path class="cls-1" d="M258.66,69.36c0,16.69-12.3,34.36-29.97,34.36-3.03,0-5.76-.49-7.91-1.66l-2.63,12.59c-1.27,6.15-1.76,9.57,2.25,9.57l-.1.58h-16.59l.1-.58c4.1,0,5.17-3.71,6.34-9.57l11.81-55.54c-2.93,1.46-6.15,3.22-9.57,5.27l-.39-.58c3.51-3.03,7.03-5.56,10.54-7.61l1.76-8.2,8.39-5.08h.49l-1.95,9.27c3.71-1.27,7.22-1.95,10.64-1.95,11.52,0,16.79,8.2,16.79,19.13ZM250.46,70.73c0-9.86-3.61-16.5-12.2-16.5-2.34,0-4.88.49-7.71,1.37l-6.74,32.02c-.29,1.66-.59,3.51-.59,5.66,0,5.17,1.46,9.08,7.13,9.08,10.83,0,20.11-16.11,20.11-31.63Z"/>
  <path class="cls-1" d="M261.88,93.37l11.62-54.66c1.37-6.15.2-8.39-2.93-9.18l.1-.59,12.98-2.73h.39l-14.06,66.28c-.29,1.27-1.07,4.59.68,4.59,1.85,0,5.95-4.2,9.37-8.79l.49.39c-4.88,9.17-10.25,15.03-15.13,15.03-5.17,0-4.49-5.95-3.51-10.35Z"/>
  <path class="cls-1" d="M290.77,77.66c-.59,2.64-.88,5.47-.88,8.2,0,9.08,3.22,13.08,8.69,13.08,5.95,0,12.4-4.59,18.06-11.42l.58.39c-7.12,11.03-14.64,15.91-22.25,15.91s-13.37-5.17-13.37-16.11c0-15.52,11.03-37.48,30.36-37.48,7.32,0,10.64,3.03,10.64,7.52,0,8.88-12.4,14.06-31.82,19.91ZM291.16,76c16.01-5.66,24.11-10.54,24.11-18.64,0-3.12-1.17-5.66-4.88-5.66-7.61,0-16.11,11.32-19.23,24.31Z"/>
  <path class="cls-1" d="M401.26,88.79c-4.98,9.37-10.44,14.93-14.93,14.93s-4.98-4.49-3.61-10.35l5.76-25.18c1.46-6.34,2.54-12.2-2.15-12.2-8.39,0-21.18,21.67-26.55,46.56h-7.81l7.12-34.36c1.37-6.34,2.54-12.2-2.05-12.2-8.39,0-21.28,21.77-26.65,46.56h-7.81l8.69-41.09c.49-2.34,1.07-4.98-.59-4.98-1.37,0-3.9,2.54-7.42,7.13l-.49-.39c4.29-8.39,9.27-12.98,13.27-12.98,4.49,0,4.49,4.59,3.32,10.35l-4.88,22.84c7.13-19.33,17.57-33.19,27.33-33.19,8.1,0,7.32,8.59,5.17,18.74l-3.32,14.84c7.13-19.42,17.67-33.58,27.53-33.58,8.1,0,7.42,8.59,5.08,18.74l-5.37,23.52c-.59,2.34-1.17,4.98.39,4.98,1.46,0,4.69-2.63,9.47-9.08l.49.39Z"/>
  <path class="cls-1" d="M411.51,77.66c-.59,2.64-.88,5.47-.88,8.2,0,9.08,3.22,13.08,8.69,13.08,5.95,0,12.4-4.59,18.06-11.42l.58.39c-7.12,11.03-14.64,15.91-22.25,15.91s-13.37-5.17-13.37-16.11c0-15.52,11.03-37.48,30.36-37.48,7.32,0,10.64,3.03,10.64,7.52,0,8.88-12.4,14.06-31.82,19.91ZM411.9,76c16.01-5.66,24.11-10.54,24.11-18.64,0-3.12-1.17-5.66-4.88-5.66-7.61,0-16.11,11.32-19.23,24.31Z"/>
  <path class="cls-1" d="M492.62,88.79c-4.88,9.37-10.35,14.93-14.93,14.93s-4.98-4.49-3.61-10.35l5.76-25.18c1.46-6.34,2.54-12.2-2.05-12.2-8.39,0-21.28,21.77-26.65,46.56h-7.81l8.69-41.09c.49-2.34,1.07-4.98-.59-4.98-1.37,0-3.9,2.54-7.42,7.13l-.49-.39c4.29-8.39,9.27-12.98,13.27-12.98,4.49,0,4.49,4.59,3.32,10.35l-5.08,23.33c7.13-19.52,17.57-33.68,27.53-33.68,8.1,0,7.52,8.59,5.17,18.74l-5.47,23.52c-.49,2.34-1.17,4.98.49,4.98,1.37,0,4.59-2.63,9.37-9.08l.49.39Z"/>
  <path class="cls-1" d="M511.55,54.92l-7.52,35.63c-.68,3.51-.88,7.22,1.95,7.22s8-4,14.35-12.49l.49.39c-5.66,10.54-13.67,18.06-19.91,18.06-5.17,0-6.44-5.27-4.98-12.4l7.81-36.41h-5.17l.29-.98,1.46-.58c4.78-2.05,9.27-5.66,14.15-14.74h.59l-2.64,12.79h16.4l-2.15,3.51h-15.13Z"/>
  <path class="cls-1" d="M570.89,88.79c-4.88,9.37-10.25,14.93-14.93,14.93-4.98,0-4.49-5.95-3.51-10.35l2.44-11.32c-5.66,13.96-14.45,21.67-22.35,21.67-6.34,0-10.05-5.08-10.05-14.45,0-17.57,13.08-39.04,31.14-39.04,4.49,0,8,1.27,10.05,4l5.27-3.42h.49l-8.79,41.68c-.29,1.27-1.07,4.59.59,4.59,1.85,0,5.66-3.9,9.18-8.69l.49.39ZM558.11,66.63c.29-1.66.49-3.22.49-5.27,0-5.47-1.46-9.76-6.54-9.76-10.83,0-21.28,20.11-21.28,36.02,0,7.32,2.34,11.32,6.25,11.32,7.12,0,17.37-14.15,21.08-32.31Z"/>
  <path class="cls-1" d="M31.82,184.3c-.68,3.03-1.07,6.05-1.07,9.17,0,8.98,3.32,12.88,8.98,12.88,6.34,0,13.27-4.78,19.13-12.01l.59.39c-6.93,10.44-14.35,15.32-21.67,15.32s-12.3-4.78-12.3-15.42c0-16.2,11.91-38.07,29.97-38.07,6.74,0,9.37,2.93,9.37,6.93,0,8.98-13.08,14.54-32.99,20.79ZM32.21,182.54c17.67-6.05,27.14-10.15,27.14-18.74,0-3.12-1.27-5.86-5.47-5.86-8.49,0-17.96,11.32-21.67,24.6Z"/>
  <path class="cls-1" d="M64.91,200.89l11.91-56.03c1.37-6.25.2-8.59-2.93-9.18l.1-.59,9.96-2.54h.39l-14.25,67.16c-.29,1.37-1.07,4.98.68,4.98,1.95,0,6.15-4.49,9.96-9.66l.49.39c-4.88,9.18-10.05,14.64-13.96,14.64s-3.22-5.27-2.34-9.17Z"/>
  <path class="cls-1" d="M103.95,200.89l11.91-56.03c1.37-6.25.2-8.59-2.93-9.18l.1-.59,9.96-2.54h.39l-14.25,67.16c-.29,1.37-1.07,4.98.68,4.98,1.95,0,6.15-4.49,9.96-9.66l.49.39c-4.88,9.18-10.05,14.64-13.96,14.64s-3.22-5.27-2.34-9.17Z"/>
  <path class="cls-1" d="M122.1,190.55c0-16.01,11.13-33.97,25.57-33.97,10.15,0,16.59,7.42,16.59,19.52,0,16.01-11.13,33.97-25.57,33.97-10.15,0-16.59-7.42-16.59-19.52ZM159,174.15c0-9.57-3.71-16.2-11.52-16.2-12.3,0-20.11,19.91-20.11,34.55,0,9.57,3.71,16.2,11.52,16.2,12.3,0,20.11-19.91,20.11-34.55Z"/>
  <path class="cls-1" d="M167.68,190.55c0-16.01,11.13-33.97,25.57-33.97,10.15,0,16.59,7.42,16.59,19.52,0,16.01-11.13,33.97-25.57,33.97-10.15,0-16.59-7.42-16.59-19.52ZM204.58,174.15c0-9.57-3.71-16.2-11.52-16.2-12.3,0-20.11,19.91-20.11,34.55,0,9.57,3.71,16.2,11.52,16.2,12.3,0,20.11-19.91,20.11-34.55Z"/>
  <path class="cls-1" d="M252.7,195.04l.49.39c-5.47,10.15-9.76,14.64-13.47,14.64-5.47,0-9.17-8.59-13.27-26.55,13.96-7.91,22.94-12.01,22.94-19.23,0-3.03-1.95-4.2-4.2-4.2-10.35,0-22.35,18.16-24.99,30.85l-3.81,17.96h-4.88l13.47-64.03c1.27-6.25.2-8.59-3.03-9.18l.2-.59,9.96-2.54h.39l-10.05,47.83c5.56-12.49,15.62-23.82,25.57-23.82,3.71,0,6.83,1.95,6.83,6.54,0,7.03-8.59,12.1-23.43,19.03,3.42,14.74,6.34,22.65,10.93,22.65,2.64,0,5.86-3.03,10.35-9.76Z"/>
  <path class="cls-1" d="M276.02,194.65c0-16.59,12.59-38.07,28.5-38.07,7.03,0,10.54,4.2,10.54,9.66l-4.29,4.39h-.59c.98-8.98-1.56-12.69-6.34-12.69-10.74,0-22.55,18.45-22.55,35.53,0,8.98,3.32,12.88,8.98,12.88,6.44,0,12.1-4.78,17.96-12.01l.59.39c-6.93,10.44-13.08,15.32-20.5,15.32s-12.3-4.78-12.3-15.42Z"/>
  <path class="cls-1" d="M314.09,190.55c0-16.01,11.13-33.97,25.57-33.97,10.15,0,16.59,7.42,16.59,19.52,0,16.01-11.13,33.97-25.57,33.97-10.15,0-16.59-7.42-16.59-19.52ZM350.98,174.15c0-9.57-3.71-16.2-11.52-16.2-12.3,0-20.11,19.91-20.11,34.55,0,9.57,3.71,16.2,11.52,16.2,12.3,0,20.11-19.91,20.11-34.55Z"/>
  <path class="cls-1" d="M407.21,195.43c-4.88,9.18-10.15,14.64-13.76,14.64s-4-3.32-2.64-9.17l5.95-25.77c1.76-7.61,2.93-14.25-2.63-14.25-9.76,0-23.43,22.55-28.89,48.02h-4.88l8.88-41.97c.59-2.73,1.17-5.47-.58-5.47-1.46,0-4.2,2.93-8.1,8l-.49-.39c4.49-8.39,9.08-12.49,12.01-12.49,3.32,0,3.51,3.51,2.34,9.18l-5.37,24.99c7.52-20.3,18.84-34.16,28.01-34.16,8.3,0,6.83,9.08,4.49,19.23l-5.47,23.91c-.59,2.73-1.27,5.47.39,5.47,1.46,0,4.78-2.73,10.25-10.15l.49.39Z"/>
  <path class="cls-1" d="M407.2,204.9c.59-2.44,2.93-4,5.37-3.51,2.34.58,4,3.03,3.42,5.37-.49,2.34-2.93,4-5.27,3.42-2.44-.49-4-2.93-3.51-5.27ZM415.79,164.68c.58-2.44,2.93-4,5.37-3.51,2.34.59,4,3.03,3.42,5.37-.49,2.34-2.93,4-5.27,3.42-2.44-.49-4-2.93-3.51-5.27Z"/>
</svg>