<?xml version="1.0" encoding="UTF-8"?>
<svg xmlns="http://www.w3.org/2000/svg" xmlns:xlink="http://www.w3.org/1999/xlink" viewBox="0 0 230.4 43.56">
  <defs>
    <style>
      .cls-1 {
        fill: none;
      }

      .cls-1, .cls-2, .cls-3 {
        stroke-width: 0px;
      }

      .cls-2 {
        fill: #5d514d;
      }

      .cls-3 {
        fill: #6f6556;
      }

      .cls-4 {
        isolation: isolate;
      }
    </style>
    <filter id="drop-shadow-8" filterUnits="userSpaceOnUse">
      <feOffset dx="2.83" dy="2.83"/>
      <feGaussianBlur result="blur" stdDeviation="2.83"/>
      <feFlood flood-color="#221f20" flood-opacity=".35"/>
      <feComposite in2="blur" operator="in"/>
      <feComposite in="SourceGraphic"/>
    </filter>
    <clipPath id="clippath">
      <path class="cls-1" d="M17.96,135.96c-11.16,0-20.2,9.05-20.2,20.21,0,8.06,4.73,14.99,11.55,18.24v104.92h17.32v-104.92c6.82-3.25,11.55-10.18,11.55-18.24,0-11.16-9.05-20.21-20.21-20.21Z"/>
    </clipPath>
    <filter id="drop-shadow-10" filterUnits="userSpaceOnUse">
      <feOffset dx="2.83" dy="2.83"/>
      <feGaussianBlur result="blur-2" stdDeviation="2.83"/>
      <feFlood flood-color="#221f20" flood-opacity=".35"/>
      <feComposite in2="blur-2" operator="in"/>
      <feComposite in="SourceGraphic"/>
    </filter>
    <clipPath id="clippath-2">
      <path class="cls-1" d="M307.08,140.86c-7.5,1.32-12.38,9.22-10.9,17.64-1.48-8.42-8.77-14.17-16.27-12.85-7.5,1.32-12.38,9.22-10.9,17.64,0,0,3.03,21.77,33.36,30.32,25.59-18.4,20.98-39.9,20.98-39.9-1.34-7.61-7.42-13.04-14.11-13.04-.72,0-1.44.06-2.16.19"/>
    </clipPath>
    <filter id="drop-shadow-12" filterUnits="userSpaceOnUse">
      <feOffset dx="2.83" dy="2.83"/>
      <feGaussianBlur result="blur-3" stdDeviation="2.83"/>
      <feFlood flood-color="#221f20" flood-opacity=".35"/>
      <feComposite in2="blur-3" operator="in"/>
      <feComposite in="SourceGraphic"/>
    </filter>
    <clipPath id="clippath-4">
      <rect class="cls-1" x="166.44" y="138.79" width="56.69" height="56.69"/>
    </clipPath>
    <clipPath id="clippath-5">
      <path class="cls-1" d="M166.72,167.14c0,15.5,12.56,28.06,28.06,28.06s28.06-12.56,28.06-28.06-12.56-28.06-28.06-28.06-28.06,12.56-28.06,28.06"/>
    </clipPath>
    <filter id="drop-shadow-13" filterUnits="userSpaceOnUse">
      <feOffset dx="2.83" dy="2.83"/>
      <feGaussianBlur result="blur-4" stdDeviation="2.83"/>
      <feFlood flood-color="#221f20" flood-opacity=".35"/>
      <feComposite in2="blur-4" operator="in"/>
      <feComposite in="SourceGraphic"/>
    </filter>
    <clipPath id="clippath-7">
      <path class="cls-1" d="M65.72,166.71c0,19.57,15.86,35.43,35.43,35.43s35.43-15.86,35.43-35.43-15.86-35.43-35.43-35.43-35.43,15.86-35.43,35.43"/>
    </clipPath>
  </defs>
  <g class="cls-4">
    <g id="Capa_1" data-name="Capa 1">
      <g>
        <path class="cls-3" d="M8.45,12.41c0-4.72,3.23-9.32,8.31-9.32,2.3,0,3.91.78,4.63,1.24l-.31,1.78h-.12c-.62-1.92-1.95-2.74-4.26-2.74-4.36,0-6.95,4.98-6.95,9.24,0,3.04,1.44,5.24,4.15,5.24,1.97,0,3.85-.72,4.09-1.88l.47-2.16c.31-1.42.41-2.14-.84-2.24l.02-.12h3.17l-.02.12c-.64.08-.82.76-1.15,2.24l-.64,2.88c-1.32.76-3.15,1.44-5.2,1.44-3.29,0-5.35-2.24-5.35-5.72Z"/>
        <path class="cls-3" d="M22.39,12.85c-.14.62-.23,1.24-.23,1.88,0,1.84.7,2.64,1.89,2.64,1.34,0,2.8-.98,4.03-2.46l.12.08c-1.46,2.14-3.02,3.14-4.57,3.14s-2.59-.98-2.59-3.16c0-3.32,2.51-7.8,6.31-7.8,1.42,0,1.97.6,1.97,1.42,0,1.84-2.76,2.98-6.95,4.26ZM22.48,12.49c3.72-1.24,5.72-2.08,5.72-3.84,0-.64-.27-1.2-1.15-1.2-1.79,0-3.78,2.32-4.57,5.04Z"/>
        <path class="cls-3" d="M39.66,15.13c-1.03,1.88-2.14,3-2.9,3s-.84-.68-.56-1.88l1.25-5.28c.37-1.56.62-2.92-.56-2.92-2.06,0-4.94,4.62-6.09,9.84h-1.03l1.87-8.6c.12-.56.25-1.12-.12-1.12-.31,0-.88.6-1.71,1.64l-.1-.08c.95-1.72,1.91-2.56,2.53-2.56.7,0,.74.72.49,1.88l-1.13,5.12c1.58-4.16,3.97-7,5.9-7,1.75,0,1.44,1.86.95,3.94l-1.15,4.9c-.12.56-.27,1.12.08,1.12.31,0,1.01-.56,2.16-2.08l.1.08Z"/>
        <path class="cls-3" d="M41.53,12.85c-.14.62-.23,1.24-.23,1.88,0,1.84.7,2.64,1.89,2.64,1.34,0,2.8-.98,4.03-2.46l.12.08c-1.46,2.14-3.02,3.14-4.57,3.14s-2.59-.98-2.59-3.16c0-3.32,2.51-7.8,6.31-7.8,1.42,0,1.97.6,1.97,1.42,0,1.84-2.76,2.98-6.95,4.26ZM41.62,12.49c3.72-1.24,5.72-2.08,5.72-3.84,0-.64-.27-1.2-1.15-1.2-1.79,0-3.78,2.32-4.57,5.04Z"/>
        <path class="cls-3" d="M56.29,7.33l-.58,1.24h-.12c-.25-.12-.45-.16-.7-.16-2.12,0-3.95,5-4.94,9.48h-1.03l1.87-8.6c.12-.56.25-1.12-.12-1.12-.31,0-.88.6-1.71,1.64l-.1-.08c.95-1.72,1.91-2.56,2.53-2.56.7,0,.74.72.49,1.88l-.93,4.2c1.13-3.32,2.74-6.08,4.5-6.08.27,0,.56.02.82.16Z"/>
        <path class="cls-3" d="M64.4,15.13c-1.03,1.88-2.12,3-2.94,3s-.68-1.08-.49-1.88l.64-2.9c-1.28,3.08-3.31,4.78-5.02,4.78-1.27,0-2.02-.98-2.02-2.82,0-3.58,2.78-8.14,6.44-8.14.88,0,1.58.26,1.97.84l.86-.72h.12l-1.91,8.72c-.06.28-.23,1.02.14,1.02.41,0,1.3-.92,2.1-1.98l.1.08ZM62.22,10.53c.06-.28.1-.54.1-.94,0-1.2-.35-2.14-1.6-2.14-2.61,0-5,4.12-5,7.46,0,1.6.56,2.5,1.52,2.5,1.71,0,4.13-2.9,4.98-6.88Z"/>
        <path class="cls-3" d="M64.94,14.97c0-3.4,2.65-7.8,6.01-7.8,1.48,0,2.22.86,2.22,1.98l-.9.9h-.12c.21-1.84-.33-2.6-1.34-2.6-2.26,0-4.75,3.78-4.75,7.28,0,1.84.7,2.64,1.89,2.64,1.36,0,2.55-.98,3.78-2.46l.12.08c-1.46,2.14-2.76,3.14-4.32,3.14s-2.59-.98-2.59-3.16Z"/>
        <path class="cls-3" d="M73.9,16.25l1.52-6.96c.12-.56.25-1.12-.12-1.12-.31,0-.88.6-1.71,1.64l-.1-.08c.95-1.72,1.91-2.56,2.53-2.56.7,0,.74.72.49,1.88l-1.52,6.96c-.06.28-.23,1.02.14,1.02.41,0,1.3-.92,2.1-1.98l.1.08c-1.03,1.88-2.12,3-2.94,3s-.68-1.08-.49-1.88ZM75.79,4.45c0-.48.41-.88.91-.88s.9.4.9.88-.41.88-.9.88-.91-.4-.91-.88Z"/>
        <path class="cls-3" d="M77.93,14.13c0-3.28,2.34-6.96,5.39-6.96,2.14,0,3.5,1.52,3.5,4,0,3.28-2.35,6.96-5.39,6.96-2.14,0-3.5-1.52-3.5-4ZM85.7,10.77c0-1.96-.78-3.32-2.43-3.32-2.59,0-4.24,4.08-4.24,7.08,0,1.96.78,3.32,2.43,3.32,2.59,0,4.24-4.08,4.24-7.08ZM82.82,6.11c.76-1,2.63-3.82,2.86-4.04.12-.12.27-.2.43-.2.29,0,.51.18.51.48,0,.22-.14.38-.27.5-.53.5-2.65,2.52-3.48,3.32l-.06-.06Z"/>
        <path class="cls-3" d="M97.59,15.13c-1.03,1.88-2.14,3-2.9,3s-.84-.68-.56-1.88l1.25-5.28c.37-1.56.62-2.92-.56-2.92-2.06,0-4.94,4.62-6.09,9.84h-1.03l1.87-8.6c.12-.56.25-1.12-.12-1.12-.31,0-.88.6-1.71,1.64l-.1-.08c.95-1.72,1.91-2.56,2.53-2.56.7,0,.74.72.49,1.88l-1.13,5.12c1.58-4.16,3.97-7,5.9-7,1.75,0,1.44,1.86.95,3.94l-1.15,4.9c-.12.56-.27,1.12.08,1.12.31,0,1.01-.56,2.16-2.08l.1.08Z"/>
        <path class="cls-3" d="M105.57,8.05l-1.65,7.48c-.16.76-.21,1.6.43,1.6s1.81-.94,3.15-2.68l.1.08c-1.17,2.14-2.92,3.6-3.99,3.6-.97,0-1.05-1.16-.78-2.36l1.71-7.72h-1.09l.04-.16.31-.12c.84-.32,1.56-1.08,2.3-2.8h.12l-.53,2.44h3.74l-.39.64h-3.48Z"/>
        <path class="cls-3" d="M116.15,7.33l-.58,1.24h-.12c-.25-.12-.45-.16-.7-.16-2.12,0-3.95,5-4.94,9.48h-1.03l1.87-8.6c.12-.56.25-1.12-.12-1.12-.31,0-.88.6-1.71,1.64l-.1-.08c.95-1.72,1.91-2.56,2.53-2.56.7,0,.74.72.49,1.88l-.93,4.2c1.13-3.32,2.74-6.08,4.5-6.08.27,0,.56.02.82.16Z"/>
        <path class="cls-3" d="M124.26,15.13c-1.03,1.88-2.12,3-2.94,3s-.68-1.08-.49-1.88l.64-2.9c-1.28,3.08-3.31,4.78-5.02,4.78-1.27,0-2.02-.98-2.02-2.82,0-3.58,2.78-8.14,6.44-8.14.88,0,1.58.26,1.97.84l.86-.72h.12l-1.91,8.72c-.06.28-.23,1.02.14,1.02.41,0,1.3-.92,2.1-1.98l.1.08ZM122.08,10.53c.06-.28.1-.54.1-.94,0-1.2-.35-2.14-1.6-2.14-2.61,0-5,4.12-5,7.46,0,1.6.55,2.5,1.52,2.5,1.71,0,4.13-2.9,4.98-6.88Z"/>
        <path class="cls-3" d="M124.12,17.05l.49-1.32h.12c.29,1.12,1.34,2.04,2.65,2.04s2.2-1.06,2.2-2.28c0-1.08-.7-1.62-1.69-2.4l-.58-.46c-.74-.6-1.42-1.16-1.42-2.46,0-1.64,1.34-3,3.15-3,1.15,0,2.06.52,2.51.88l-.35,1.28h-.12c-.33-.9-1.11-1.8-2.39-1.8s-1.93,1.14-1.93,2.12.58,1.54,1.3,2.12l.58.46c1.15.92,1.83,1.54,1.83,2.78,0,1.76-1.54,3.12-3.56,3.12-1.23,0-2.34-.52-2.8-1.08Z"/>
        <path class="cls-3" d="M145.86,7.29l-.43.92-2.32-.22c.49.5.78,1.22.78,2.1,0,2.18-1.73,4.16-4.03,4.18-1.23.38-1.6.58-1.6,1.02,0,.24.14.44.6.56l2.12.56c2.04.54,3.33,1,3.33,2.36,0,2.2-2.82,3.92-5.88,3.92-2.37,0-3.6-1.02-3.6-2.56,0-1.28.9-2.52,2.82-3.1l.29-.06.08.02c-1.56.68-2.24,1.72-2.24,2.74,0,1.32,1.17,2.36,3.48,2.36,2.47,0,4.32-1.2,4.32-2.6,0-1.24-1.44-1.66-2.67-1.98l-2.51-.66c-.82-.22-1.15-.62-1.15-1.14,0-.86.88-1.24,2.02-1.48-1.44-.24-2.37-1.32-2.37-2.9,0-2.16,1.73-4.16,4.07-4.16.76,0,1.4.2,1.91.6l3-.48ZM142.8,9.73c0-1.4-.6-2.28-1.79-2.28-2,0-3.02,2.4-3.02,4.24,0,1.42.62,2.3,1.81,2.3,1.95,0,3-2.42,3-4.26Z"/>
        <path class="cls-3" d="M146.1,12.85c-.14.62-.23,1.24-.23,1.88,0,1.84.7,2.64,1.89,2.64,1.34,0,2.8-.98,4.03-2.46l.12.08c-1.46,2.14-3.02,3.14-4.57,3.14s-2.59-.98-2.59-3.16c0-3.32,2.51-7.8,6.31-7.8,1.42,0,1.97.6,1.97,1.42,0,1.84-2.76,2.98-6.95,4.26ZM146.19,12.49c3.72-1.24,5.72-2.08,5.72-3.84,0-.64-.27-1.2-1.15-1.2-1.79,0-3.79,2.32-4.57,5.04Z"/>
        <path class="cls-3" d="M163.37,15.13c-1.03,1.88-2.14,3-2.9,3s-.84-.68-.56-1.88l1.25-5.28c.37-1.56.62-2.92-.56-2.92-2.06,0-4.94,4.62-6.09,9.84h-1.03l1.87-8.6c.12-.56.25-1.12-.12-1.12-.31,0-.88.6-1.71,1.64l-.1-.08c.95-1.72,1.91-2.56,2.53-2.56.7,0,.74.72.49,1.88l-1.13,5.12c1.58-4.16,3.97-7,5.9-7,1.75,0,1.44,1.86.95,3.94l-1.15,4.9c-.12.56-.27,1.12.08,1.12.31,0,1.01-.56,2.16-2.08l.1.08Z"/>
        <path class="cls-3" d="M165.24,12.85c-.14.62-.23,1.24-.23,1.88,0,1.84.7,2.64,1.89,2.64,1.34,0,2.8-.98,4.03-2.46l.12.08c-1.46,2.14-3.02,3.14-4.57,3.14s-2.59-.98-2.59-3.16c0-3.32,2.51-7.8,6.31-7.8,1.42,0,1.97.6,1.97,1.42,0,1.84-2.76,2.98-6.95,4.26ZM165.33,12.49c3.72-1.24,5.72-2.08,5.72-3.84,0-.64-.27-1.2-1.15-1.2-1.79,0-3.79,2.32-4.57,5.04Z"/>
        <path class="cls-3" d="M180,7.33l-.58,1.24h-.12c-.25-.12-.45-.16-.7-.16-2.12,0-3.95,5-4.94,9.48h-1.03l1.87-8.6c.12-.56.25-1.12-.12-1.12-.31,0-.88.6-1.71,1.64l-.1-.08c.95-1.72,1.91-2.56,2.53-2.56.7,0,.74.72.49,1.88l-.93,4.2c1.13-3.32,2.74-6.08,4.5-6.08.27,0,.55.02.82.16Z"/>
        <path class="cls-3" d="M188.11,15.13c-1.03,1.88-2.12,3-2.94,3s-.68-1.08-.49-1.88l.64-2.9c-1.28,3.08-3.31,4.78-5.02,4.78-1.28,0-2.02-.98-2.02-2.82,0-3.58,2.78-8.14,6.44-8.14.88,0,1.58.26,1.97.84l.86-.72h.12l-1.91,8.72c-.06.28-.23,1.02.14,1.02.41,0,1.3-.92,2.1-1.98l.1.08ZM185.93,10.53c.06-.28.1-.54.1-.94,0-1.2-.35-2.14-1.6-2.14-2.61,0-5,4.12-5,7.46,0,1.6.56,2.5,1.52,2.5,1.71,0,4.13-2.9,4.98-6.88Z"/>
        <path class="cls-3" d="M188.65,14.97c0-3.4,2.65-7.8,6.01-7.8,1.48,0,2.22.86,2.22,1.98l-.91.9h-.12c.21-1.84-.33-2.6-1.34-2.6-2.26,0-4.75,3.78-4.75,7.28,0,1.84.7,2.64,1.89,2.64,1.36,0,2.55-.98,3.78-2.46l.12.08c-1.46,2.14-2.76,3.14-4.32,3.14s-2.59-.98-2.59-3.16Z"/>
        <path class="cls-3" d="M197.61,16.25l1.52-6.96c.12-.56.25-1.12-.12-1.12-.31,0-.88.6-1.71,1.64l-.1-.08c.95-1.72,1.91-2.56,2.53-2.56.7,0,.74.72.49,1.88l-1.52,6.96c-.06.28-.23,1.02.14,1.02.41,0,1.29-.92,2.1-1.98l.1.08c-1.03,1.88-2.12,3-2.94,3s-.68-1.08-.49-1.88ZM199.5,4.45c0-.48.41-.88.9-.88s.91.4.91.88-.41.88-.91.88-.9-.4-.9-.88Z"/>
        <path class="cls-3" d="M201.64,14.13c0-3.28,2.34-6.96,5.39-6.96,2.14,0,3.5,1.52,3.5,4,0,3.28-2.34,6.96-5.39,6.96-2.14,0-3.5-1.52-3.5-4ZM209.41,10.77c0-1.96-.78-3.32-2.43-3.32-2.59,0-4.24,4.08-4.24,7.08,0,1.96.78,3.32,2.43,3.32,2.59,0,4.24-4.08,4.24-7.08ZM206.53,6.11c.76-1,2.63-3.82,2.86-4.04.12-.12.27-.2.43-.2.29,0,.51.18.51.48,0,.22-.14.38-.27.5-.54.5-2.65,2.52-3.48,3.32l-.06-.06Z"/>
        <path class="cls-3" d="M221.3,15.13c-1.03,1.88-2.14,3-2.9,3s-.84-.68-.56-1.88l1.25-5.28c.37-1.56.62-2.92-.56-2.92-2.06,0-4.94,4.62-6.09,9.84h-1.03l1.87-8.6c.12-.56.25-1.12-.12-1.12-.31,0-.88.6-1.71,1.64l-.1-.08c.95-1.72,1.91-2.56,2.53-2.56.7,0,.74.72.49,1.88l-1.13,5.12c1.58-4.16,3.97-7,5.9-7,1.75,0,1.44,1.86.95,3.94l-1.15,4.9c-.12.56-.27,1.12.08,1.12.31,0,1.01-.56,2.16-2.08l.1.08Z"/>
        <path class="cls-2" d="M18.89,25.33h-.12c-.56-2.28-1.11-2.68-3.21-2.68h-.6l-2.57,11.74c-.33,1.48-.43,2.38.97,2.38l-.02.12h-4.79l.02-.12c1.4,0,1.69-.9,2.02-2.38l2.55-11.74h-.62c-2.06,0-2.8.4-4.34,2.68h-.12l.9-3h10.31l-.37,3Z"/>
        <path class="cls-2" d="M26.9,34.07c-1.03,1.92-2.18,3.06-3.17,3.06s-.99-.94-.74-2.12l1.05-4.7c-1.52,3.96-3.7,6.82-5.78,6.82-1.71,0-1.56-1.76-1.07-3.84l1.13-4.82c.1-.48.25-1.02-.08-1.02-.31,0-.84.52-1.58,1.46l-.1-.08c.91-1.72,1.93-2.66,2.74-2.66.99,0,1.05.92.76,2.12l-1.21,5.16c-.31,1.3-.53,2.5.43,2.5,1.6,0,4.38-4.06,5.55-9.32l1.62-.26h.1l-1.85,8.46c-.1.48-.23,1.02.12,1.02.31,0,.97-.54,1.97-1.86l.1.08Z"/>
        <path class="cls-2" d="M41.71,34.07c-1.05,1.92-2.2,3.06-3.17,3.06s-1.03-.92-.74-2.12l1.19-5.16c.33-1.3.53-2.5-.43-2.5-1.77,0-4.48,4.46-5.59,9.54h-1.67l2.84-13.08c.27-1.26.04-1.72-.64-1.88l.04-.12,2.74-.56h.08l-2.55,11.74c1.5-3.96,3.7-6.82,5.78-6.82,1.69,0,1.56,1.76,1.07,3.84l-1.13,4.82c-.12.48-.25,1.02.08,1.02.31,0,.97-.54,2-1.86l.1.08Z"/>
        <path class="cls-2" d="M42.3,33.03c0-3.3,2.39-6.86,5.57-6.86,2.26,0,3.72,1.58,3.72,4.12,0,3.36-2.39,6.84-5.55,6.84-2.24,0-3.74-1.56-3.74-4.1ZM49.91,29.49c0-1.8-.62-3.04-2-3.04-2.41,0-3.91,4.44-3.91,7.36,0,1.78.62,3.04,2,3.04,2.43,0,3.91-4.44,3.91-7.36Z"/>
        <path class="cls-2" d="M62.08,26.27l-.49,1.02-2.26-.2c.49.5.76,1.18.76,2,0,2.24-1.79,4.16-4.18,4.18-1.15.32-1.52.52-1.52.92,0,.28.21.44.62.56l2.14.56c1.83.5,3.31,1,3.31,2.42,0,2.22-3.06,3.96-6.27,3.96-2.39,0-3.48-1-3.48-2.38,0-1.3,1.03-2.44,2.84-2.94l.33-.06.08.02c-1.34.64-1.91,1.58-1.91,2.5,0,1.24,1.05,2.2,3.27,2.2s4.03-1.04,4.03-2.36c0-1.14-1.32-1.54-2.57-1.86l-2.53-.66c-.72-.2-1.25-.58-1.25-1.26,0-.96,1.01-1.42,2.18-1.68-1.52-.24-2.49-1.32-2.49-2.88,0-2.22,1.81-4.16,4.22-4.16.78,0,1.48.2,2,.54l3.19-.44ZM58.54,28.47c0-1.24-.49-2.02-1.52-2.02-1.79,0-2.8,2.68-2.8,4.5,0,1.26.51,2.04,1.56,2.04,1.77,0,2.76-2.7,2.76-4.52Z"/>
        <path class="cls-2" d="M71.13,34.07c-1.03,1.92-2.16,3.06-3.15,3.06-1.05,0-.95-1.22-.74-2.12l.51-2.32c-1.19,2.86-3.04,4.44-4.71,4.44-1.34,0-2.12-1.04-2.12-2.96,0-3.6,2.76-8,6.56-8,.95,0,1.69.26,2.12.82l1.11-.7h.1l-1.85,8.54c-.06.26-.23.94.12.94.39,0,1.19-.8,1.93-1.78l.1.08ZM68.44,29.53c.06-.34.1-.66.1-1.08,0-1.12-.31-2-1.38-2-2.28,0-4.48,4.12-4.48,7.38,0,1.5.49,2.32,1.32,2.32,1.5,0,3.66-2.9,4.44-6.62Z"/>
        <path class="cls-2" d="M79.73,26.33l-.78,1.72h-.12c-.25-.12-.45-.16-.7-.16-2.12,0-3.74,4.52-4.73,9h-1.65l1.83-8.42c.1-.5.23-1.02-.12-1.02-.29,0-.82.52-1.56,1.46l-.1-.08c.91-1.72,1.95-2.66,2.8-2.66.95,0,.95.94.7,2.12l-.86,3.86c1.09-3.28,2.61-5.98,4.44-5.98.29,0,.58.02.86.16Z"/>
        <path class="cls-2" d="M85.12,31.79c-.12.54-.19,1.12-.19,1.68,0,1.86.68,2.68,1.83,2.68,1.25,0,2.61-.94,3.81-2.34l.12.08c-1.5,2.26-3.09,3.26-4.69,3.26s-2.82-1.06-2.82-3.3c0-3.18,2.32-7.68,6.4-7.68,1.54,0,2.24.62,2.24,1.54,0,1.82-2.61,2.88-6.71,4.08ZM85.2,31.45c3.37-1.16,5.08-2.16,5.08-3.82,0-.64-.25-1.16-1.03-1.16-1.6,0-3.39,2.32-4.05,4.98Z"/>
        <path class="cls-2" d="M91,36.07l.53-1.58h.12c.35,1.24,1.5,2.26,2.82,2.26,1.15,0,1.95-.9,1.95-2,0-1.02-.72-1.6-1.71-2.4l-.58-.46c-.74-.58-1.44-1.18-1.44-2.54,0-1.76,1.4-3.18,3.35-3.18,1.09,0,2.04.46,2.63.82l-.39,1.52h-.12c-.37-.98-1.3-1.96-2.53-1.96-1.09,0-1.75.96-1.75,1.86,0,.98.64,1.54,1.32,2.1l.58.46c1.11.88,1.85,1.52,1.85,2.88,0,1.88-1.58,3.28-3.74,3.28-1.21,0-2.35-.46-2.9-1.06Z"/>
        <path class="cls-2" d="M113.73,34.07c-1.03,1.92-2.18,3.06-3.15,3.06s-1.05-.92-.76-2.12l1.21-5.16c.31-1.3.53-2.5-.43-2.5-1.77,0-4.48,4.46-5.62,9.54h-1.65l1.83-8.42c.1-.48.23-1.02-.12-1.02-.29,0-.82.52-1.56,1.46l-.1-.08c.91-1.72,1.95-2.66,2.8-2.66.95,0,.95.94.7,2.12l-1.07,4.78c1.5-4,3.7-6.9,5.8-6.9,1.71,0,1.58,1.76,1.09,3.84l-1.15,4.82c-.1.48-.25,1.02.1,1.02.29,0,.97-.54,1.97-1.86l.1.08Z"/>
        <path class="cls-2" d="M124.69,34.07c-1.03,1.92-2.18,3.06-3.17,3.06s-.99-.94-.74-2.12l1.05-4.7c-1.52,3.96-3.7,6.82-5.78,6.82-1.71,0-1.56-1.76-1.07-3.84l1.13-4.82c.1-.48.25-1.02-.08-1.02-.31,0-.84.52-1.58,1.46l-.1-.08c.91-1.72,1.93-2.66,2.74-2.66.99,0,1.05.92.76,2.12l-1.21,5.16c-.31,1.3-.53,2.5.43,2.5,1.6,0,4.38-4.06,5.55-9.32l1.62-.26h.1l-1.85,8.46c-.1.48-.23,1.02.12,1.02.31,0,.97-.54,1.97-1.86l.1.08Z"/>
        <path class="cls-2" d="M127.18,31.79c-.12.54-.18,1.12-.18,1.68,0,1.86.68,2.68,1.83,2.68,1.25,0,2.61-.94,3.81-2.34l.12.08c-1.5,2.26-3.08,3.26-4.69,3.26s-2.82-1.06-2.82-3.3c0-3.18,2.33-7.68,6.4-7.68,1.54,0,2.24.62,2.24,1.54,0,1.82-2.61,2.88-6.71,4.08ZM127.27,31.45c3.37-1.16,5.08-2.16,5.08-3.82,0-.64-.25-1.16-1.03-1.16-1.6,0-3.39,2.32-4.05,4.98Z"/>
        <path class="cls-2" d="M133.07,36.07l.53-1.58h.12c.35,1.24,1.5,2.26,2.82,2.26,1.15,0,1.95-.9,1.95-2,0-1.02-.72-1.6-1.71-2.4l-.58-.46c-.74-.58-1.44-1.18-1.44-2.54,0-1.76,1.4-3.18,3.35-3.18,1.09,0,2.04.46,2.63.82l-.39,1.52h-.12c-.37-.98-1.3-1.96-2.53-1.96-1.09,0-1.75.96-1.75,1.86,0,.98.64,1.54,1.32,2.1l.58.46c1.11.88,1.85,1.52,1.85,2.88,0,1.88-1.58,3.28-3.74,3.28-1.21,0-2.34-.46-2.9-1.06Z"/>
        <path class="cls-2" d="M144.44,27.13l-1.58,7.3c-.14.72-.18,1.48.41,1.48s1.69-.82,3.02-2.56l.1.08c-1.19,2.16-2.88,3.7-4.2,3.7-1.09,0-1.36-1.08-1.05-2.54l1.65-7.46h-1.09l.06-.2.31-.12c1.01-.42,1.95-1.16,2.98-3.02h.12l-.55,2.62h3.46l-.45.72h-3.19Z"/>
        <path class="cls-2" d="M155.3,26.33l-.78,1.72h-.12c-.25-.12-.45-.16-.7-.16-2.12,0-3.74,4.52-4.73,9h-1.65l1.83-8.42c.1-.5.23-1.02-.12-1.02-.29,0-.82.52-1.56,1.46l-.1-.08c.9-1.72,1.95-2.66,2.8-2.66.95,0,.95.94.7,2.12l-.86,3.86c1.09-3.28,2.61-5.98,4.44-5.98.29,0,.58.02.86.16Z"/>
        <path class="cls-2" d="M163.91,34.07c-1.03,1.92-2.16,3.06-3.15,3.06-1.05,0-.95-1.22-.74-2.12l.51-2.32c-1.19,2.86-3.04,4.44-4.71,4.44-1.34,0-2.12-1.04-2.12-2.96,0-3.6,2.76-8,6.56-8,.95,0,1.69.26,2.12.82l1.11-.7h.1l-1.85,8.54c-.06.26-.23.94.12.94.39,0,1.19-.8,1.93-1.78l.1.08ZM161.22,29.53c.06-.34.1-.66.1-1.08,0-1.12-.31-2-1.38-2-2.28,0-4.48,4.12-4.48,7.38,0,1.5.49,2.32,1.32,2.32,1.5,0,3.66-2.9,4.44-6.62Z"/>
        <path class="cls-2" d="M178.33,30.09c0,3.42-2.59,7.04-6.31,7.04-.64,0-1.21-.1-1.67-.34l-.56,2.58c-.27,1.26-.37,1.96.47,1.96l-.02.12h-3.5l.02-.12c.86,0,1.09-.76,1.34-1.96l2.49-11.38c-.62.3-1.3.66-2.02,1.08l-.08-.12c.74-.62,1.48-1.14,2.22-1.56l.37-1.68,1.77-1.04h.1l-.41,1.9c.78-.26,1.52-.4,2.24-.4,2.43,0,3.54,1.68,3.54,3.92ZM176.61,30.37c0-2.02-.76-3.38-2.57-3.38-.49,0-1.03.1-1.62.28l-1.42,6.56c-.06.34-.12.72-.12,1.16,0,1.06.31,1.86,1.5,1.86,2.28,0,4.24-3.3,4.24-6.48Z"/>
        <path class="cls-2" d="M189,34.07c-1.03,1.92-2.16,3.06-3.15,3.06-1.05,0-.95-1.22-.74-2.12l.51-2.32c-1.19,2.86-3.04,4.44-4.71,4.44-1.34,0-2.12-1.04-2.12-2.96,0-3.6,2.76-8,6.56-8,.95,0,1.69.26,2.12.82l1.11-.7h.1l-1.85,8.54c-.06.26-.23.94.12.94.39,0,1.19-.8,1.93-1.78l.1.08ZM186.31,29.53c.06-.34.1-.66.1-1.08,0-1.12-.31-2-1.38-2-2.28,0-4.48,4.12-4.48,7.38,0,1.5.49,2.32,1.32,2.32,1.5,0,3.66-2.9,4.44-6.62Z"/>
        <path class="cls-2" d="M188.93,36.07l.53-1.58h.12c.35,1.24,1.5,2.26,2.82,2.26,1.15,0,1.95-.9,1.95-2,0-1.02-.72-1.6-1.71-2.4l-.58-.46c-.74-.58-1.44-1.18-1.44-2.54,0-1.76,1.4-3.18,3.35-3.18,1.09,0,2.04.46,2.63.82l-.39,1.52h-.12c-.37-.98-1.3-1.96-2.53-1.96-1.09,0-1.75.96-1.75,1.86,0,.98.64,1.54,1.32,2.1l.58.46c1.11.88,1.85,1.52,1.85,2.88,0,1.88-1.58,3.28-3.74,3.28-1.21,0-2.34-.46-2.9-1.06Z"/>
        <path class="cls-2" d="M197.35,35.01l1.44-6.54c.1-.48.23-1.02-.12-1.02-.29,0-.82.52-1.56,1.46l-.1-.08c.9-1.72,1.95-2.66,2.8-2.66.95,0,.95.94.7,2.12l-1.42,6.54c-.06.28-.23.94.12.94.39,0,1.19-.8,1.95-1.78l.1.08c-1.05,1.92-2.18,3.06-3.17,3.06-1.05,0-.95-1.22-.74-2.12ZM199.32,23.39c0-.62.51-1.12,1.17-1.12s1.15.5,1.15,1.12-.51,1.12-1.15,1.12-1.17-.5-1.17-1.12Z"/>
        <path class="cls-2" d="M201.84,33.03c0-3.3,2.39-6.86,5.57-6.86,2.26,0,3.72,1.58,3.72,4.12,0,3.36-2.39,6.84-5.55,6.84-2.24,0-3.74-1.56-3.74-4.1ZM209.45,29.49c0-1.8-.62-3.04-2-3.04-2.41,0-3.91,4.44-3.91,7.36,0,1.78.62,3.04,2,3.04,2.43,0,3.91-4.44,3.91-7.36ZM207,25.11c.72-1.06,2.32-3.76,2.63-4.06.16-.14.37-.24.56-.24.39,0,.72.28.72.66,0,.26-.19.46-.31.6-.54.52-2.61,2.32-3.52,3.1l-.08-.06Z"/>
        <path class="cls-2" d="M222.35,34.07c-1.03,1.92-2.18,3.06-3.15,3.06s-1.05-.92-.76-2.12l1.21-5.16c.31-1.3.53-2.5-.43-2.5-1.77,0-4.48,4.46-5.62,9.54h-1.65l1.83-8.42c.1-.48.23-1.02-.12-1.02-.29,0-.82.52-1.56,1.46l-.1-.08c.9-1.72,1.95-2.66,2.8-2.66.95,0,.95.94.7,2.12l-1.07,4.78c1.5-4,3.7-6.9,5.8-6.9,1.71,0,1.58,1.76,1.09,3.84l-1.15,4.82c-.1.48-.25,1.02.1,1.02.29,0,.97-.54,1.97-1.86l.1.08Z"/>
      </g>
    </g>
  </g>
</svg>