<?xml version="1.0" encoding="UTF-8"?>
<svg id="BASE" xmlns="http://www.w3.org/2000/svg" viewBox="0 0 161.35 125.94">
  <defs>
    <style>
      .cls-1 {
        fill: #fff;
        stroke-width: 0px;
      }
    </style>
  </defs>
  <g>
    <path class="cls-1" d="M9.92,31.71c-.33,0-.81-.17-.88-1.15-.06-.94.35-2.54,1.24-4.89.83-2.19,2.09-5.08,3.74-8.58-.56.07-1.09.19-1.59.36-.8.28-.84.51-.84.53-.03.16-.09.29-.2.4-.11.13-.29.21-.51.22-.23.01-.43-.04-.58-.17-.14-.13-.22-.31-.24-.55-.04-.65.41-1.21,1.32-1.65.81-.4,1.96-.65,3.41-.75l1.81-3.45c.13-.23.26-.49.41-.77.13-.25.27-.51.42-.81l.07-.13c.31-.49.66-.6.91-.62.3-.01.49.1.59.19.14.14.21.3.22.47.02.27-.12.79-1.23,2.67-.75,1.27-1.16,1.96-1.37,2.33.24,0,.54,0,.88,0,.61.01,1.34.05,2.18.1h0c.44,0,.73.26.75.69.01.23-.04.42-.17.57-.14.15-.34.24-.61.26-.14.01-.38,0-.89-.02-.43-.03-.88-.04-1.37-.05-.46-.01-.87,0-1.21.04l-.3.04c-3.58,7.31-5.33,11.88-5.21,13.57l.05.31c.03.48-.25.79-.76.82h0s-.04,0-.06,0ZM14.96,16.44l-.21.44c-1.75,3.69-3.07,6.72-3.93,9-.85,2.24-1.25,3.8-1.2,4.65.04.62.24.61.33.61h0c.22-.01.23-.08.22-.22l-.05-.27c-.14-1.86,1.61-6.44,5.33-14.03l.07-.14.61-.08c.37-.04.8-.06,1.29-.05.49,0,.96.03,1.39.05.32.02.67.03.82.02.11,0,.19-.03.22-.07.03-.03.03-.11.03-.15,0-.1,0-.15-.2-.15-.85-.05-1.57-.09-2.17-.1-.6-.01-1.05-.01-1.35,0l-.5.03.23-.45c.11-.22,1.07-1.85,1.64-2.79,1.09-1.84,1.15-2.26,1.15-2.35,0-.04-.03-.07-.06-.1-.03-.03-.1-.03-.15-.03-.06,0-.25.02-.45.33l-.06.11c-.15.29-.29.55-.42.8-.15.29-.29.55-.41.78l-1.96,3.73h-.16c-1.45.1-2.58.33-3.35.71-.69.33-1.03.71-1,1.1,0,.08.02.14.05.16.02.02.09.03.16.03.08,0,.11-.02.11-.03.05-.05.06-.08.06-.1.04-.52.72-.82,1.22-1,.69-.24,1.44-.39,2.23-.44l.49-.03Z"/>
    <path class="cls-1" d="M18.64,29.61c-.83,0-1.52-.29-2.05-.85-.56-.6-.88-1.37-.94-2.29-.09-1.5.32-3.09,1.22-4.74.23-.44.52-.89.85-1.35.34-.46.7-.89,1.07-1.29.58-.64,1.21-1.18,1.88-1.62.68-.45,1.37-.7,2.05-.74.58-.04,1.05.09,1.38.36.33.28.52.71.56,1.27.08,1.31-.6,2.55-2.03,3.68-1.3,1.01-2.64,1.56-3.96,1.64-.25.01-.46.01-.65,0-.09-.01-.18-.02-.27-.04-.14.35-.25.77-.35,1.25-.12.59-.17,1.1-.14,1.52.04.63.21,1.08.5,1.34.25.22.61.32,1.08.29.91-.05,1.77-.27,2.57-.64.79-.37,1.75-1.05,2.85-2.04.67-.59,1.19-1.08,1.54-1.45.34-.37.72-.76,1.12-1.17.19-.15.36-.22.52-.23.15-.02.3.02.46.1.19.1.31.27.32.5.02.31-.17.68-.62,1.19-.33.35-.68.72-1.04,1.09-.37.38-.96.92-1.75,1.6-.86.75-1.83,1.37-2.89,1.83-1.05.46-2.08.72-3.04.78h0c-.08,0-.16,0-.23,0ZM22.91,17.3c-.05,0-.11,0-.17,0-.58.03-1.17.25-1.77.65-.62.41-1.22.92-1.77,1.53-.36.39-.71.8-1.03,1.24-.32.43-.59.87-.81,1.28-.85,1.55-1.24,3.04-1.15,4.43.05.79.31,1.42.79,1.93.46.5,1.05.72,1.83.67.9-.05,1.85-.3,2.84-.73,1-.44,1.92-1.02,2.74-1.74.78-.67,1.36-1.2,1.71-1.57.36-.38.71-.74,1.03-1.08.46-.52.47-.73.47-.76-.07-.06-.12-.08-.17-.07-.05,0-.11.03-.18.08-.37.38-.74.77-1.08,1.13-.36.38-.89.88-1.58,1.49-1.15,1.03-2.13,1.73-2.99,2.13-.86.4-1.8.63-2.78.69-.62.04-1.13-.11-1.5-.43-.41-.36-.64-.95-.69-1.73-.03-.47.02-1.04.15-1.67.12-.62.28-1.15.48-1.58l.1-.22.23.05c.13.03.28.05.44.07.16.02.33.02.55,0,1.21-.07,2.44-.58,3.65-1.52,1.27-1.01,1.88-2.08,1.81-3.19-.02-.4-.14-.69-.35-.87-.19-.15-.46-.23-.82-.23ZM18.31,22.72c-.14,0-.27-.02-.39-.05l-.34-.1.17-.31c.27-.5.56-.97.87-1.38.32-.43.72-.89,1.23-1.43,1.07-1.12,2.03-1.69,2.92-1.75.32-.02.56.05.73.2.15.13.23.32.24.55.05.87-.51,1.79-1.71,2.8-.53.44-1.1.78-1.69,1.03-.6.25-1.25.4-1.92.44h0s-.07,0-.11,0ZM22.87,18.27s-.04,0-.07,0c-.73.04-1.59.57-2.54,1.57-.49.51-.89.97-1.18,1.37-.21.28-.42.59-.61.92.58-.04,1.13-.18,1.65-.39.54-.22,1.06-.54,1.55-.94,1.04-.87,1.55-1.66,1.51-2.33,0-.08-.02-.13-.05-.15-.04-.04-.13-.06-.25-.06Z"/>
    <path class="cls-1" d="M25.27,29.43c-.22,0-.4-.06-.53-.18-.15-.13-.23-.31-.24-.55-.01-.21.11-.51.74-1.29.47-.58,1.21-1.34,2.19-2.27l3.32-3.2-.41-1.26c-.13-.4-.26-.74-.38-1.02-.55-1.39-.9-1.88-1.09-2.05-.19-.17-.29-.37-.3-.59-.01-.23.04-.41.16-.55.12-.14.3-.22.53-.23.63-.03,1.2.65,1.87,2.21.19.46.37.92.55,1.38l.36.97c1.89-1.78,3.15-3.02,3.74-3.71.14-.16.24-.28.29-.36.06-.09.07-.13.07-.14.14-.36.4-.56.76-.58.47-.03.79.23.81.69.02.31.06,1.04-5.1,5.63.28.77.56,1.49.84,2.15.3.7.63,1.27.99,1.71.32.38.66.55,1.01.54.38-.02.79-.15,1.21-.38.45-.24.9-.55,1.35-.9.46-.36.88-.71,1.23-1.02.67-.59,1.19-1.08,1.54-1.45.34-.37.72-.76,1.12-1.17.19-.15.36-.22.51-.23.15,0,.31.03.46.11.19.1.31.27.32.5.02.31-.18.69-.62,1.19l-1.04,1.09c-.37.38-.96.92-1.75,1.6-.37.32-.79.64-1.27.95-.5.33-1,.6-1.49.81-.51.22-.99.35-1.43.38-.77.05-1.44-.19-2-.71-.53-.49-1-1.14-1.38-1.94-.31-.65-.61-1.34-.89-2.05l-2.65,2.56c-.58.55-1.1,1.09-1.56,1.6-.44.5-.84.98-1.18,1.43-.07.12-.24.3-.6.32h0s-.05,0-.08,0ZM29.31,16.81s0,0,0,0c-.08,0-.12.02-.14.04-.01.01-.03.06-.02.14,0,.04.02.11.11.19.36.31.75,1.03,1.24,2.26.12.29.26.65.39,1.06l.52,1.6-3.58,3.45c-.96.92-1.68,1.66-2.14,2.22-.56.69-.61.88-.62.91,0,.06.02.11.05.14.03.03.1.04.19.03h0c.12,0,.14-.05.15-.06.37-.49.77-.98,1.22-1.49.47-.53,1.01-1.08,1.6-1.64l3.28-3.17.15.41c.31.84.65,1.65,1.02,2.41.35.73.78,1.33,1.25,1.77.45.41.96.6,1.58.56.37-.02.79-.13,1.24-.33.46-.2.93-.46,1.4-.77.45-.3.86-.6,1.21-.9.78-.67,1.36-1.2,1.71-1.57l1.03-1.08c.46-.52.47-.73.47-.76-.08-.06-.14-.07-.17-.07-.02,0-.07.01-.17.08-.37.38-.74.77-1.08,1.13-.36.38-.89.88-1.58,1.49-.36.32-.79.68-1.26,1.05-.47.37-.95.69-1.43.95-.5.27-.99.42-1.45.45-.54.03-1.04-.21-1.48-.74-.4-.48-.77-1.1-1.08-1.85-.3-.72-.61-1.52-.91-2.37l-.07-.18.15-.13c4.73-4.2,5.06-5.11,5.05-5.29,0-.12-.02-.17-.21-.16-.13,0-.2.06-.25.18-.01.06-.06.16-.14.27-.06.09-.17.23-.34.42-.63.74-2.01,2.1-4.1,4.05l-.31.29-.66-1.77c-.17-.45-.35-.91-.54-1.36-.73-1.71-1.17-1.86-1.3-1.86Z"/>
    <path class="cls-1" d="M42.25,29.73c-.33,0-.82-.17-.88-1.15-.06-.94.35-2.54,1.24-4.89.83-2.18,2.08-5.07,3.74-8.59-.56.07-1.09.19-1.58.36-.61.21-.84.42-.84.53-.03.16-.09.29-.19.4-.12.13-.29.21-.51.22-.24.01-.44-.04-.58-.17-.14-.13-.22-.31-.24-.55-.04-.65.41-1.21,1.32-1.66.81-.4,1.96-.65,3.41-.75l1.81-3.45c.13-.23.27-.49.41-.77.15-.28.31-.6.49-.93.25-.39.55-.6.91-.62.29-.01.49.1.59.2.13.13.21.29.22.46.02.27-.11.79-1.23,2.67-.75,1.26-1.15,1.95-1.38,2.33.25,0,.54,0,.88,0,.61.01,1.34.05,2.18.1.44,0,.73.26.75.69.03.48-.26.79-.78.83-.16,0-.45,0-.89-.02-.43-.03-.88-.04-1.36-.05-.46-.01-.87,0-1.21.04l-.3.04c-3.58,7.31-5.33,11.88-5.21,13.57l.05.31c.01.24-.04.43-.17.58-.13.15-.33.23-.58.25h0s-.04,0-.06,0ZM47.29,14.47l-.21.44c-1.75,3.71-3.08,6.73-3.93,9-.85,2.24-1.25,3.8-1.2,4.65.04.63.25.61.33.61h0c.09,0,.16-.03.19-.06.02-.03.03-.08.03-.16l-.04-.27c-.14-1.86,1.61-6.44,5.33-14.03l.07-.14.61-.08c.36-.04.79-.06,1.29-.05.49,0,.95.03,1.38.05.41.02.69.03.82.02.26-.02.25-.1.25-.22,0-.09,0-.15-.2-.16-.85-.05-1.57-.08-2.17-.1-.6-.02-1.05-.01-1.35,0l-.5.03.22-.45c.08-.16.63-1.1,1.64-2.8,1.09-1.84,1.15-2.26,1.15-2.35,0-.04-.03-.07-.06-.1-.03-.03-.11-.03-.15-.03-.06,0-.25.02-.45.34-.17.32-.34.63-.48.91-.15.29-.29.55-.41.78l-1.95,3.72h-.16c-1.45.1-2.58.34-3.35.71-.69.34-1.03.71-1,1.1,0,.08.02.14.05.16.02.02.09.04.16.03.07,0,.11-.02.12-.03.03-.03.05-.07.05-.1.04-.52.72-.82,1.22-1,.69-.24,1.44-.39,2.23-.44l.49-.03Z"/>
    <path class="cls-1" d="M56.83,27.77c-.42,0-.78-.13-1.06-.38-.43-.38-.67-1.02-.73-1.96-.03-.49,0-1.05.11-1.68-1.99,2.44-3.61,3.67-4.94,3.75-.91.05-2.04-.29-2.16-2.26-.03-.55.02-1.21.15-1.98.13-.77.32-1.57.57-2.37.24-.79.52-1.56.83-2.3.31-.72.63-1.33.96-1.79.17-.22.39-.34.66-.36.17,0,.32.03.48.13.18.11.29.3.31.54.01.18-.05.39-.21.68-.8,1.52-1.37,2.86-1.68,3.97-.4,1.28-.57,2.37-.51,3.26.03.48.12.72.19.84.08.14.16.16.26.16.16,0,.45-.09.95-.44.43-.3.89-.67,1.35-1.11.48-.46.87-.86,1.2-1.23.93-1.11,1.77-2.31,2.49-3.55.33-.6.62-1.16.87-1.7.25-.53.48-1.11.69-1.7.1-.25.18-.44.24-.56.11-.2.3-.32.55-.33.81-.04.96.48.97.71.02.32-.1.52-.24.64-1.76,4.21-2.61,7.12-2.52,8.64.03.5.1.7.14.77.03.05.07.08.17.08.13,0,.45-.09,1.14-.58.56-.39,1.22-.99,1.97-1.76l3.01-3.11c.19-.22.41-.34.63-.36.24-.01.44.04.59.17.14.12.22.3.23.53.02.25-.11.67-1.86,2.46-.5.53-.97.99-1.39,1.38-.41.37-.79.7-1.14.99-.67.53-1.27.96-1.79,1.27-.57.34-.99.5-1.32.52-.05,0-.09,0-.14,0ZM55.48,22.41l.51.25c-.29,1.08-.41,2-.37,2.74.05.77.23,1.29.53,1.57.2.17.46.25.78.23h0c.16,0,.47-.09,1.06-.44.5-.3,1.08-.71,1.72-1.23.34-.28.71-.61,1.11-.97.41-.37.87-.83,1.36-1.35,1.57-1.6,1.69-1.98,1.7-2.04,0-.05-.02-.1-.04-.11-.02-.02-.08-.03-.17-.03-.05,0-.13.05-.24.17l-3.02,3.12c-.77.8-1.46,1.42-2.05,1.84-.64.44-1.09.66-1.44.68-.32.02-.56-.11-.71-.38-.11-.21-.18-.53-.21-1.01-.1-1.64.75-4.58,2.59-8.97l.03-.08.07-.05s.07-.05.06-.18c0-.09,0-.2-.36-.18-.06,0-.07.02-.07.04-.06.11-.13.27-.21.48-.21.61-.45,1.2-.71,1.75-.26.55-.55,1.12-.89,1.74-.74,1.28-1.6,2.5-2.55,3.64-.34.39-.74.8-1.24,1.27-.48.45-.96.84-1.41,1.16-.5.35-.91.53-1.24.54-.32.02-.61-.13-.78-.44-.15-.25-.24-.61-.27-1.1-.06-.96.12-2.12.54-3.46.32-1.15.9-2.53,1.73-4.08.15-.27.15-.36.15-.37,0-.06-.02-.08-.03-.08-.06-.03-.1-.06-.15-.05-.1,0-.17.04-.23.13-.3.42-.6.99-.9,1.67-.31.72-.58,1.48-.81,2.24-.24.78-.42,1.55-.55,2.3-.12.72-.17,1.35-.14,1.85.1,1.62.93,1.76,1.56,1.72,1.3-.08,3.08-1.6,5.29-4.52Z"/>
    <path class="cls-1" d="M62.64,27.14c-.19,0-.35-.04-.48-.13-.11-.08-.24-.23-.26-.5-.01-.17.03-.34.12-.52.06-.12.1-.22.14-.3l2.42-5.75c1.34-3.22,1.49-3.84,1.5-3.96-.01-.21.04-.39.16-.53.12-.13.29-.21.51-.22.26-.02.49.05.65.19.16.14.25.35.27.62.02.24-.06.59-.23,1.1-.16.47-.36,1.01-.61,1.61-.07.19-.14.37-.21.54.13-.15.26-.31.4-.46.61-.69,1.22-1.34,1.82-1.92,1.89-1.86,3.35-2.8,4.46-2.87.86-.05,1.37.38,1.43,1.21.02.39-.03.68-.15.9-.14.25-.38.4-.69.42-.26,0-.56-.09-.78-.68-.05-.15-.09-.15-.16-.15-.13,0-.55.14-1.77,1.18-1.03.87-2.07,1.9-3.09,3.06-1.01,1.15-2.1,2.64-3.22,4.43l-1.39,2.22c-.09.13-.17.23-.24.31-.12.14-.29.21-.51.23-.03,0-.05,0-.08,0ZM66.83,15.8s-.03,0-.05,0c-.07,0-.13.08-.13.15,0,.16.03.46-1.54,4.21l-2.42,5.76c-.04.09-.09.2-.16.33-.04.08-.06.15-.05.22,0,.03,0,.07.02.08,0,0,.06.03.19.02h0c.07,0,.1-.02.11-.03.06-.07.12-.15.19-.25l1.38-2.21c1.14-1.81,2.24-3.32,3.28-4.5,1.03-1.18,2.09-2.23,3.15-3.12,1.32-1.13,1.82-1.29,2.1-1.31.38-.01.62.17.74.54.07.19.15.29.19.29h0c.15,0,.2-.07.23-.13.05-.08.1-.25.08-.58-.03-.51-.27-.7-.82-.67-.96.06-2.33.97-4.09,2.71-.59.58-1.19,1.22-1.79,1.89-.57.65-1.15,1.35-1.71,2.1l-.49-.3c.28-.57.64-1.4,1.06-2.48.24-.59.44-1.12.6-1.58.19-.55.2-.79.2-.88,0-.08-.02-.18-.08-.23-.04-.04-.12-.05-.19-.05Z"/>
    <path class="cls-1" d="M73.88,25.99c-.56,0-1-.14-1.33-.41-.37-.31-.58-.79-.62-1.43-.05-.76.09-1.6.4-2.5.31-.88.75-1.75,1.32-2.61.57-.85,1.22-1.65,1.94-2.35.73-.72,1.49-1.31,2.27-1.76.8-.46,1.59-.72,2.37-.77,1.47-.09,2.28.63,2.36,2.06.03.46,0,.81-.12,1.07-.13.31-.37.5-.68.52-.26.01-.48-.04-.63-.18-.15-.13-.23-.33-.25-.57-.01-.18.02-.38.1-.57.04-.11.06-.24.05-.38-.01-.18-.04-.56-.9-.51-1.15.07-2.59,1.08-4.27,3.01-.4.48-.8,1.04-1.17,1.68-.37.63-.68,1.27-.91,1.91-.22.61-.32,1.19-.29,1.72.01.19.06.32.16.39.1.08.27.11.5.1.47-.03.99-.21,1.52-.55.55-.34,1.05-.7,1.47-1.07.83-.71,1.68-1.67,2.52-2.85.14-.18.31-.4.51-.68.21-.28.44-.59.71-.93.16-.18.35-.27.57-.29.23-.02.43.04.58.17.14.13.22.31.24.55v.09s-1.09,1.88-1.09,1.88c-.67,1.13-.98,2.04-.94,2.7.02.37.16.5.5.48.38-.02.81-.16,1.26-.39.48-.25.87-.49,1.16-.71.61-.45,1.25-1.02,1.91-1.69.68-.69,1.32-1.38,1.9-2.04.13-.14.31-.22.55-.24.26-.02.45.04.58.16.08.07.19.21.2.44.02.31-.13.63-.45.99-.74.84-1.44,1.59-2.07,2.23-.63.63-1.23,1.15-1.8,1.55-.39.26-.85.52-1.42.81-.59.29-1.27.46-2.03.51-1.16.08-1.81-.55-1.89-1.76,0-.08,0-.15,0-.22-1.57,1.53-3.1,2.35-4.57,2.44h0c-.08,0-.15,0-.22,0ZM80.48,14.73c-.07,0-.14,0-.21,0-.68.04-1.39.27-2.11.69-.74.43-1.46.99-2.15,1.67-.69.68-1.31,1.44-1.86,2.26-.54.82-.97,1.65-1.26,2.48-.29.82-.41,1.59-.37,2.27.03.47.17.82.41,1.02.25.21.63.3,1.14.27,1.49-.09,3.1-1.06,4.78-2.86l.48.28c-.07.23-.1.54-.08.91.06.89.45,1.27,1.28,1.22.69-.04,1.29-.2,1.81-.45.54-.27.99-.53,1.35-.77.54-.38,1.12-.88,1.72-1.49.62-.63,1.31-1.37,2.05-2.2.21-.23.32-.44.31-.58,0-.05-.04-.07-.17-.07-.08,0-.14.02-.16.05-.59.67-1.24,1.36-1.92,2.06-.69.7-1.35,1.28-1.97,1.75-.31.25-.72.5-1.24.77-.53.27-1.03.42-1.49.45-.66.05-1.07-.33-1.11-1.01-.05-.79.29-1.78,1.02-3.03l1-1.71s-.02-.07-.04-.08c-.02-.02-.09-.03-.16-.03-.07,0-.11.03-.16.08-.25.32-.49.63-.69.91-.21.28-.38.5-.51.67-.86,1.21-1.74,2.21-2.61,2.94-.44.38-.96.76-1.54,1.12-.62.38-1.22.6-1.79.63-.37.02-.67-.05-.89-.23-.23-.18-.35-.45-.37-.81-.04-.61.07-1.26.32-1.95.24-.67.56-1.35.95-2.01.39-.66.8-1.25,1.23-1.76,1.82-2.08,3.35-3.13,4.68-3.21,1.25-.08,1.48.62,1.51,1.05.01.23-.02.44-.1.63-.05.11-.07.22-.06.32,0,.05.01.14.06.18.04.03.11.04.22.04.06,0,.13-.02.19-.16.05-.12.1-.36.07-.82-.07-1.05-.54-1.53-1.54-1.53Z"/>
    <path class="cls-1" d="M87.97,25.83c-.49,0-.87-.08-1.16-.25-.38-.22-.59-.58-.62-1.05-.03-.52.12-1.06.46-1.6.31-.5.71-.98,1.17-1.41.45-.42.89-.76,1.3-1,.14-.08.33-.16.54-.24.23-.08.43-.13.6-.14.41-.02.55.22.56.44.02.29-.25.49-.45.62-.88.49-1.54,1.04-1.99,1.65-.54.74-.64,1.15-.63,1.36,0,.07.03.1.05.12.04.04.19.12.62.1.48-.03,1.02-.19,1.58-.47s1.12-.66,1.64-1.1c.5-.44.92-.91,1.24-1.39.3-.45.44-.87.41-1.25-.01-.24-.1-.44-.27-.63-.16-.18-.43-.32-.81-.4l-2.04-.49c-.58-.15-.99-.36-1.27-.65-.29-.3-.44-.65-.47-1.04-.04-.68.18-1.31.65-1.88.45-.54,1.04-.99,1.74-1.33.7-.34,1.4-.53,2.09-.58.7-.04,1.33.09,1.89.4.59.33.91.82.95,1.45.02.36-.06.7-.24,1.03-.25.45-.57.56-.8.58-.23.02-.43-.03-.58-.14-.11-.08-.25-.24-.27-.53,0-.17.05-.35.19-.56.07-.11.1-.2.09-.28,0-.17-.03-.62-1.15-.56-.46.03-.92.16-1.37.38s-.81.5-1.09.84c-.26.31-.37.62-.35.95.01.26.39.48,1.05.64l1.99.49c.66.16,1.13.42,1.41.77.28.34.43.74.46,1.19.06.99-.47,2.05-1.58,3.14-1.75,1.75-3.52,2.7-5.26,2.8h0c-.1,0-.2,0-.3,0ZM89.89,20.82s-.03,0-.04.01c-.19.07-.34.13-.44.19-.37.22-.78.53-1.19.92-.42.4-.78.83-1.07,1.29-.28.44-.4.85-.37,1.26.02.28.12.46.33.59.24.14.63.2,1.13.17h0c1.6-.1,3.24-.99,4.89-2.64.99-.97,1.46-1.88,1.41-2.7-.02-.32-.13-.61-.33-.86-.2-.25-.57-.44-1.1-.57l-1.98-.49c-.96-.23-1.46-.62-1.49-1.16-.03-.47.13-.93.48-1.35.33-.4.76-.73,1.27-.98s1.06-.41,1.59-.44c1.47-.09,1.73.65,1.76,1.09.01.2-.05.41-.18.62-.1.16-.1.22-.1.22,0,.03,0,.08.03.1.01,0,.06.04.21.03.12,0,.23-.1.33-.29.13-.23.19-.46.17-.71-.03-.43-.24-.75-.66-.98-.46-.25-.99-.36-1.57-.33-.61.04-1.24.21-1.87.52-.63.31-1.15.7-1.55,1.18-.38.46-.55.95-.52,1.48.02.25.12.48.31.68.2.21.54.37,1,.49l2.04.49c.49.11.86.3,1.11.57.25.28.39.61.41.98.03.51-.14,1.05-.51,1.6-.35.53-.8,1.04-1.35,1.51-.55.48-1.15.87-1.76,1.18s-1.24.5-1.8.53c-.48.03-.82-.05-1.03-.24-.15-.13-.23-.31-.24-.52-.03-.46.21-1.02.74-1.74.47-.63,1.13-1.2,1.97-1.7Z"/>
    <path class="cls-1" d="M109.97,33.36c-1.17,0-1.83-.65-1.9-1.9-.03-.5.05-1.06.23-1.71.18-.61.39-1.23.63-1.85.24-.6.44-1.13.62-1.59.49-1.31.87-2.33,1.16-3.05.08-.19.15-.37.22-.55-.92.73-1.87,1.13-2.84,1.19-.8.04-1.44-.17-1.93-.66-.48-.48-.76-1.22-.82-2.2-.06-.92.05-1.89.33-2.89.27-1,.82-2.1,1.64-3.27.44-.64,1.02-1.26,1.71-1.84.68-.59,1.43-1.1,2.22-1.51.8-.42,1.56-.65,2.27-.7,1.81-.12,2.84.87,2.96,2.85.01.24-.04.44-.17.58-.11.13-.27.2-.47.23.07.03.14.07.2.12.15.14.24.3.25.47,0,.15-.03.29-.11.44-.05.09-.11.25-.2.47l-2.7,5.56c.32.08.62.11.9.09.54-.03,1.08-.22,1.61-.55.56-.35,1.2-.84,1.9-1.46.68-.6,1.2-1.09,1.54-1.45.34-.37.72-.76,1.12-1.17.19-.15.36-.22.51-.23.15,0,.31.03.46.11.19.1.31.27.32.5.02.31-.18.69-.62,1.19l-1.04,1.09c-.36.38-.93.9-1.75,1.6-.57.49-1.2.92-1.88,1.28-.69.36-1.42.57-2.17.61-.11,0-.23,0-.34,0,.34.74.54,1.62.61,2.65.05.83-.01,1.69-.19,2.54-.18.85-.45,1.65-.81,2.37-.37.73-.82,1.34-1.36,1.81-.56.49-1.19.76-1.88.8h0c-.07,0-.14,0-.21,0ZM111.52,21.35l.47.31c-.22.47-.47,1.06-.76,1.81-.28.72-.67,1.73-1.15,3.04-.18.46-.38.99-.62,1.59-.23.6-.44,1.2-.61,1.79-.17.57-.24,1.09-.21,1.52.06,1,.53,1.42,1.5,1.36.56-.04,1.08-.26,1.54-.66.48-.42.9-.98,1.23-1.64.34-.68.6-1.43.77-2.23.17-.81.23-1.61.18-2.39-.07-1.16-.34-2.13-.78-2.87l-.32-.53.61.1c.26.04.51.05.76.04.66-.04,1.31-.23,1.94-.55.64-.34,1.24-.74,1.78-1.2.8-.69,1.36-1.2,1.71-1.56l1.03-1.08c.46-.52.47-.73.47-.76-.08-.06-.14-.07-.17-.07-.02,0-.07.01-.17.08-.37.38-.74.77-1.08,1.13-.35.38-.88.87-1.58,1.49-.72.64-1.39,1.15-1.97,1.52-.61.39-1.25.6-1.88.64-.44.03-.92-.04-1.43-.21l-.31-.1,2.99-6.14c.08-.22.16-.39.21-.5.04-.08.05-.12.05-.14,0-.02-.03-.06-.06-.08-.01-.01-.05-.05-.18-.04,0,0-.1.01-.26.29l-.83,1.36c-.57.94-1.2,1.9-1.88,2.83-.69.94-1.39,1.74-2.09,2.36-.74.66-1.48,1.02-2.22,1.07-.75.05-1.71-.28-1.82-2.13-.06-.92.09-1.89.42-2.88.34-.99.86-1.9,1.54-2.71.77-.91,1.63-1.7,2.55-2.35.95-.66,1.94-1.03,2.96-1.09.86-.05,1.23.34,1.38.68.1.19.17.41.2.64.02.19.05.36.08.54.04.32.13.31.22.31.17-.01.2-.05.19-.21-.1-1.67-.85-2.41-2.35-2.31-.62.04-1.31.25-2.04.63-.75.39-1.46.87-2.11,1.44-.65.56-1.19,1.14-1.61,1.74-.78,1.12-1.3,2.15-1.56,3.09-.26.93-.36,1.84-.31,2.7.05.84.27,1.45.65,1.83.38.37.87.54,1.49.5,1.19-.07,2.36-.74,3.49-1.99ZM113.98,12.34s-.08,0-.13,0c-.91.06-1.81.39-2.67.99-.88.62-1.7,1.38-2.44,2.25-.63.76-1.12,1.61-1.43,2.53-.31.92-.45,1.81-.4,2.65.09,1.48.72,1.62,1.21,1.59.6-.04,1.23-.35,1.87-.92.67-.6,1.35-1.36,2.01-2.27.67-.92,1.29-1.86,1.86-2.79l.83-1.36c.2-.33.42-.52.66-.56-.2-.09-.4-.29-.45-.74-.03-.17-.06-.36-.08-.56-.02-.16-.07-.31-.14-.45-.08-.17-.22-.36-.7-.36ZM109.97,32.41c-.26,0-.47-.07-.63-.22-.2-.17-.31-.44-.33-.8-.04-.59.19-1.57.68-2.97.47-1.35,1.26-3.23,2.34-5.57l.27-.6.25.61c.26.63.47,1.28.62,1.93.14.64.24,1.33.28,2.07.03.46-.04.99-.22,1.62-.17.6-.42,1.2-.74,1.78-.31.57-.68,1.06-1.07,1.46-.42.43-.88.66-1.35.69-.03,0-.06,0-.09,0ZM112.26,23.71c-.92,2.04-1.61,3.69-2.03,4.9-.58,1.64-.67,2.4-.65,2.75,0,.14.04.32.14.4.06.06.16.08.3.07h0c.34-.02.66-.19.98-.52.36-.37.69-.82.98-1.34.3-.54.54-1.1.69-1.66.16-.56.22-1.04.2-1.43-.04-.71-.14-1.37-.27-1.98-.09-.4-.21-.8-.35-1.2Z"/>
    <path class="cls-1" d="M129.38,23.33c-.78,0-1.67-.43-1.79-2.34-.03-.49,0-1.05.11-1.68-1.99,2.44-3.61,3.67-4.94,3.75-.91.05-2.04-.29-2.16-2.26-.03-.55.02-1.21.15-1.98.13-.77.32-1.57.57-2.37.24-.79.52-1.56.83-2.3.31-.72.63-1.33.96-1.79.17-.22.39-.34.66-.36.17-.02.33.03.48.13.13.08.29.24.3.54.01.18-.06.4-.22.68-.8,1.52-1.37,2.86-1.68,3.97-.4,1.27-.57,2.37-.51,3.26.03.48.12.72.19.84.08.14.16.16.26.16.16,0,.45-.09.95-.44.43-.3.89-.67,1.35-1.11.48-.46.87-.86,1.2-1.23.93-1.11,1.77-2.31,2.49-3.55.32-.58.62-1.15.87-1.7.25-.53.48-1.11.69-1.7.1-.25.18-.44.24-.56.11-.2.3-.32.55-.33.82-.05.96.48.97.71.02.32-.1.52-.24.64-1.76,4.21-2.61,7.12-2.52,8.64.03.5.1.7.14.77.03.05.06.09.17.08.13,0,.45-.09,1.14-.58.56-.39,1.22-.99,1.97-1.76l3.01-3.11c.19-.22.41-.34.63-.36.24-.01.44.04.59.17.14.12.22.3.23.53.02.25-.11.67-1.86,2.46-.5.53-.97.99-1.39,1.38-.41.37-.79.7-1.14.99-.67.53-1.27.96-1.79,1.27-.56.33-.99.5-1.32.52-.04,0-.09,0-.14,0ZM128.03,17.98l.51.25c-.29,1.08-.41,2-.37,2.74.1,1.68.8,1.82,1.32,1.79h0c.16,0,.47-.09,1.06-.44.5-.3,1.08-.71,1.72-1.23.34-.28.71-.61,1.11-.97.41-.37.87-.83,1.36-1.35,1.57-1.6,1.69-1.98,1.7-2.04,0-.05-.02-.1-.04-.11-.02-.02-.08-.03-.17-.03-.05,0-.13.05-.24.17l-3.02,3.12c-.77.8-1.46,1.42-2.05,1.84-.64.44-1.09.66-1.44.68-.32.02-.56-.11-.71-.38-.11-.21-.18-.53-.21-1.01-.1-1.64.75-4.57,2.59-8.97l.03-.08.07-.05s.07-.05.06-.18c0-.09,0-.2-.36-.18-.06,0-.07.02-.07.04-.06.11-.13.27-.21.48-.21.61-.45,1.2-.71,1.75-.26.55-.56,1.14-.89,1.74-.74,1.28-1.6,2.5-2.55,3.64-.34.39-.74.8-1.24,1.27-.48.45-.96.84-1.41,1.16-.5.35-.91.52-1.24.54-.33.02-.6-.13-.79-.44-.15-.25-.24-.61-.27-1.1-.06-.96.12-2.12.54-3.45.32-1.14.9-2.52,1.73-4.08.15-.26.15-.36.15-.38,0-.06-.02-.07-.04-.08-.05-.03-.1-.05-.14-.05-.1,0-.17.04-.23.13-.3.42-.6.99-.9,1.67-.31.72-.58,1.48-.81,2.24-.24.78-.42,1.55-.55,2.3-.12.72-.17,1.35-.14,1.85.1,1.62.94,1.77,1.56,1.72,1.3-.08,3.08-1.6,5.29-4.52Z"/>
    <path class="cls-1" d="M139.19,22.24c-.83,0-1.52-.29-2.05-.85-.57-.61-.88-1.38-.94-2.29-.09-1.5.32-3.1,1.22-4.74.24-.45.53-.91.86-1.35.32-.44.68-.87,1.07-1.29.58-.64,1.21-1.18,1.88-1.62.68-.45,1.37-.7,2.05-.74.58-.04,1.05.08,1.38.36.33.28.52.71.56,1.27.08,1.31-.6,2.55-2.03,3.68-1.3,1.01-2.64,1.56-3.96,1.64-.25.02-.46.01-.65-.01-.09,0-.18-.02-.27-.04-.13.34-.25.76-.35,1.25-.12.58-.17,1.1-.14,1.52.07,1.17.58,1.69,1.58,1.63.91-.06,1.78-.27,2.57-.64.8-.37,1.76-1.06,2.85-2.04.67-.59,1.19-1.08,1.54-1.45.34-.37.72-.76,1.12-1.17.2-.15.36-.22.52-.23.16,0,.31.03.46.11.19.1.31.27.32.5.02.31-.17.68-.62,1.19l-1.04,1.09c-.37.38-.96.92-1.75,1.6-.86.75-1.83,1.37-2.89,1.83-1.06.46-2.08.72-3.04.78h0c-.08,0-.16,0-.23,0ZM143.46,9.92c-.05,0-.11,0-.17,0-.58.04-1.17.25-1.77.65-.62.41-1.22.93-1.77,1.53-.38.41-.73.82-1.03,1.24-.31.42-.58.85-.81,1.28-.85,1.55-1.23,3.03-1.15,4.43.05.79.3,1.42.79,1.93.46.49,1.06.72,1.83.67.89-.05,1.85-.3,2.84-.73,1-.44,1.92-1.02,2.74-1.74.78-.67,1.36-1.2,1.71-1.57l1.03-1.08c.45-.51.48-.71.47-.76-.08-.06-.13-.07-.17-.07-.02,0-.07.01-.17.08-.36.38-.74.77-1.08,1.13-.36.38-.89.88-1.58,1.49-1.13,1.01-2.14,1.73-2.99,2.13-.86.4-1.79.63-2.78.69-.94.06-2.07-.27-2.19-2.17-.03-.48.02-1.04.15-1.67.13-.63.29-1.17.48-1.58l.1-.21.23.05c.13.03.28.05.44.07.16.02.33.02.55,0,1.21-.07,2.44-.58,3.65-1.52,1.27-1.01,1.88-2.08,1.81-3.19-.02-.4-.14-.69-.35-.87-.19-.15-.46-.23-.82-.23ZM138.86,15.35c-.14,0-.27-.02-.39-.05l-.34-.09.17-.32c.25-.48.54-.95.87-1.39.32-.42.73-.9,1.23-1.43,1.07-1.12,2.03-1.69,2.92-1.75.83-.06.96.5.97.75.05.87-.51,1.79-1.71,2.8-.53.43-1.09.78-1.69,1.03-.6.25-1.25.4-1.93.44h0s-.07,0-.1,0ZM143.43,10.9s-.05,0-.08,0c-.73.04-1.59.57-2.54,1.57-.49.51-.88.97-1.19,1.37-.22.29-.42.6-.61.92.58-.04,1.14-.18,1.65-.39.54-.23,1.06-.54,1.54-.94,1.04-.87,1.55-1.66,1.51-2.33,0-.1-.01-.21-.29-.21Z"/>
  </g>
  <g>
    <path class="cls-1" d="M9.96,31.42c-.38.02-.59-.27-.63-.88-.06-.89.35-2.48,1.22-4.77.87-2.29,2.18-5.29,3.94-9.02-.77.05-1.49.19-2.15.42-.67.23-1.01.49-1.03.78-.02.08-.06.16-.12.24-.07.08-.17.12-.31.13-.32.02-.5-.13-.51-.46-.03-.52.36-.99,1.16-1.38.81-.4,1.96-.64,3.46-.73l1.89-3.59c.13-.23.26-.49.41-.77.14-.28.31-.59.49-.93.19-.3.41-.45.67-.47.16,0,.29.03.37.11.09.09.13.18.14.28.02.3-.38,1.14-1.19,2.51-1.01,1.7-1.55,2.63-1.63,2.78.3-.02.76-.02,1.37,0,.61.01,1.33.05,2.17.1.3,0,.47.14.48.42.02.32-.15.5-.52.52-.14,0-.43,0-.85-.02-.43-.03-.89-.04-1.38-.05-.49-.01-.9,0-1.25.04l-.45.06c-3.67,7.47-5.44,12.09-5.31,13.85l.05.24v.06c.02.32-.14.5-.48.52Z"/>
    <path class="cls-1" d="M18.85,29.32c-.85.05-1.54-.2-2.06-.76-.52-.56-.81-1.26-.86-2.11-.09-1.46.31-2.98,1.18-4.58.24-.44.51-.88.83-1.32.32-.43.67-.86,1.05-1.27.57-.63,1.18-1.15,1.82-1.57.64-.43,1.28-.66,1.91-.7,1.03-.06,1.58.39,1.64,1.36.07,1.22-.57,2.36-1.92,3.44-1.26.97-2.53,1.5-3.8,1.57-.22.01-.42.01-.6,0-.17-.02-.33-.05-.48-.08-.18.4-.33.9-.46,1.52-.13.62-.17,1.15-.15,1.6.08,1.34.71,1.97,1.88,1.89.95-.06,1.84-.28,2.67-.67.83-.39,1.8-1.08,2.92-2.09.69-.61,1.21-1.1,1.55-1.47s.72-.75,1.12-1.16c.12-.09.23-.13.33-.14.1,0,.2.02.31.07.1.05.16.14.17.26.01.22-.17.55-.55.98-.32.34-.67.71-1.03,1.09-.36.38-.94.9-1.73,1.58-.85.74-1.79,1.34-2.82,1.79-1.03.45-2.01.7-2.94.76ZM18.4,22.43c.65-.04,1.26-.18,1.83-.42.58-.24,1.11-.57,1.62-.98,1.12-.94,1.66-1.8,1.61-2.57-.02-.34-.24-.5-.67-.48-.81.05-1.72.6-2.73,1.66-.5.52-.9.98-1.21,1.4-.31.42-.59.87-.85,1.35.12.04.26.05.4.04Z"/>
    <path class="cls-1" d="M25.33,29.14c-.34.02-.53-.13-.55-.46,0-.16.22-.52.68-1.09.46-.56,1.18-1.31,2.16-2.25l3.46-3.32c-.18-.53-.33-1.02-.47-1.43-.14-.42-.27-.77-.38-1.04-.46-1.15-.85-1.87-1.17-2.15-.13-.12-.2-.24-.21-.39-.02-.3.12-.46.43-.48.47-.03.99.65,1.59,2.04.19.46.37.91.54,1.37s.34.91.51,1.37c2.09-1.95,3.45-3.3,4.08-4.03.15-.17.26-.3.31-.39.06-.08.09-.16.11-.22.09-.23.25-.35.5-.37.32-.02.49.12.51.43.04.61-1.68,2.45-5.15,5.53.3.83.6,1.62.91,2.35.31.73.66,1.32,1.04,1.78.38.46.8.67,1.24.64.42-.03.87-.16,1.33-.41.46-.25.93-.56,1.39-.92.47-.36.88-.71,1.25-1.04.7-.61,1.21-1.1,1.56-1.47.34-.37.71-.75,1.12-1.16.12-.09.23-.14.33-.14s.2.02.31.07c.1.05.16.14.17.26.01.22-.17.55-.55.98-.33.34-.67.71-1.03,1.09-.36.38-.94.9-1.73,1.58-.35.3-.76.62-1.24.93s-.96.58-1.44.79c-.49.21-.93.33-1.33.35-.69.04-1.29-.17-1.79-.64s-.94-1.09-1.32-1.86c-.37-.77-.72-1.58-1.03-2.44l-2.96,2.86c-.6.56-1.12,1.1-1.58,1.62-.46.51-.85,1-1.19,1.44-.07.13-.2.2-.38.21Z"/>
    <path class="cls-1" d="M42.29,29.44c-.38.02-.6-.27-.63-.88-.05-.89.35-2.48,1.22-4.77.87-2.29,2.18-5.29,3.94-9.02-.77.05-1.49.19-2.15.42-.67.23-1.01.49-1.04.78-.02.08-.06.16-.12.24-.07.08-.17.12-.31.13-.32.02-.5-.13-.51-.46-.03-.52.35-.99,1.16-1.38.81-.39,1.96-.64,3.46-.73l1.88-3.59c.13-.23.27-.49.41-.77s.31-.59.49-.93c.19-.3.41-.45.67-.47.16,0,.29.03.37.11.09.09.13.18.14.28.02.3-.38,1.14-1.19,2.51-1.01,1.71-1.56,2.63-1.63,2.78.3-.02.76-.02,1.37,0,.61.01,1.33.05,2.17.1.3,0,.47.14.49.43.02.32-.15.5-.52.52-.14,0-.43,0-.86-.02-.43-.03-.89-.04-1.37-.05-.49-.01-.9,0-1.25.05l-.45.06c-3.67,7.47-5.44,12.09-5.31,13.85l.04.24v.06c.02.32-.14.5-.48.52Z"/>
    <path class="cls-1" d="M56.95,27.48c-.99.06-1.53-.63-1.62-2.06-.05-.77.08-1.71.37-2.83-2.27,3-4.11,4.55-5.5,4.63-1.15.07-1.77-.59-1.86-1.99-.03-.52.02-1.16.14-1.91.13-.75.31-1.53.56-2.33.24-.81.52-1.56.82-2.27.3-.71.61-1.29.93-1.73.11-.15.26-.23.44-.24.1,0,.2.02.31.09.1.06.16.17.17.31,0,.12-.05.3-.18.53-.82,1.56-1.39,2.9-1.7,4.04-.41,1.31-.58,2.42-.52,3.35.05.87.3,1.29.75,1.27.28-.02.65-.18,1.09-.49.45-.31.91-.69,1.38-1.13.47-.45.88-.86,1.22-1.25.95-1.13,1.79-2.33,2.52-3.6.33-.59.62-1.16.89-1.72.26-.55.5-1.13.7-1.73.09-.23.16-.4.23-.52.06-.11.17-.18.31-.18.43-.03.65.12.67.45.01.2-.05.35-.19.44-1.81,4.31-2.66,7.26-2.57,8.84.03.42.09.72.18.89.09.16.24.24.44.23.28-.02.71-.23,1.29-.63.57-.4,1.24-1,2.01-1.8l3.01-3.11c.15-.17.3-.26.44-.27.32-.02.5.12.51.43.02.26-.58,1.01-1.78,2.24-.51.54-.97.99-1.38,1.36s-.78.7-1.13.98c-.66.53-1.24.94-1.75,1.25-.51.3-.9.47-1.19.48Z"/>
    <path class="cls-1" d="M62.7,26.85c-.32.02-.5-.1-.51-.37,0-.12.02-.24.09-.37s.11-.23.15-.31l2.42-5.76c1.03-2.46,1.53-3.82,1.52-4.08-.02-.28.11-.43.4-.45.38-.02.59.16.61.54.01.2-.06.53-.21.99-.15.46-.35.99-.6,1.59-.42,1.08-.78,1.92-1.07,2.5.56-.74,1.14-1.45,1.73-2.12.59-.67,1.19-1.3,1.8-1.91,1.82-1.8,3.25-2.73,4.28-2.79.71-.04,1.08.27,1.12.94.04.65-.15.98-.58,1.01-.2.01-.37-.15-.49-.49-.08-.24-.22-.35-.45-.34-.34.02-.99.44-1.93,1.24-1.04.88-2.08,1.9-3.12,3.08-1.04,1.18-2.12,2.67-3.25,4.46l-1.39,2.22c-.08.11-.15.2-.21.27-.07.08-.17.12-.31.13Z"/>
    <path class="cls-1" d="M74.09,25.7c-1.17.07-1.79-.45-1.86-1.56-.05-.73.08-1.52.39-2.39.3-.86.73-1.71,1.29-2.55.56-.84,1.19-1.61,1.9-2.31s1.45-1.28,2.21-1.72c.76-.44,1.51-.69,2.24-.73,1.3-.08,1.98.52,2.06,1.79.05.83-.13,1.26-.53,1.28-.36.02-.56-.14-.58-.49,0-.14.02-.29.08-.45.06-.15.09-.32.08-.51-.04-.57-.44-.83-1.21-.78-1.24.08-2.73,1.11-4.47,3.11-.42.49-.82,1.07-1.2,1.72-.39.65-.7,1.31-.93,1.96-.24.66-.33,1.27-.3,1.83.03.55.35.8.96.76.53-.03,1.08-.23,1.66-.59.58-.36,1.08-.73,1.5-1.1.85-.72,1.7-1.69,2.56-2.9.13-.17.3-.39.51-.67.21-.28.44-.58.7-.92.1-.11.21-.17.35-.17.32-.02.5.13.51.46l-1.05,1.8c-.7,1.18-1.03,2.14-.98,2.86.03.53.3.77.81.74.42-.03.88-.17,1.38-.42.49-.25.89-.5,1.2-.74.62-.46,1.27-1.04,1.94-1.72.67-.68,1.31-1.36,1.91-2.05.08-.09.19-.13.36-.14.3-.02.46.09.48.33.01.22-.11.49-.38.79-.76.86-1.45,1.6-2.06,2.21-.61.62-1.2,1.12-1.76,1.52-.37.25-.83.51-1.38.79-.55.28-1.19.44-1.92.48-.99.06-1.52-.43-1.58-1.49-.02-.41,0-.74.09-1.01-1.73,1.87-3.39,2.86-4.97,2.96Z"/>
    <path class="cls-1" d="M88.25,25.54c-1.13.07-1.72-.27-1.77-1.02-.03-.47.11-.94.42-1.43.3-.49.68-.93,1.12-1.35.44-.41.86-.73,1.25-.96.12-.07.28-.14.49-.21s.38-.11.52-.12c.16,0,.25.05.26.17,0,.1-.1.22-.31.35-.9.5-1.59,1.08-2.07,1.73-.48.65-.7,1.17-.68,1.55.02.36.35.53.97.49.53-.03,1.09-.2,1.69-.5s1.17-.68,1.7-1.14c.53-.46.96-.94,1.3-1.45.33-.5.49-.98.46-1.43-.02-.3-.13-.57-.34-.8-.21-.23-.53-.39-.96-.49l-2.04-.49c-.52-.13-.89-.32-1.13-.57-.24-.25-.37-.54-.39-.86-.04-.61.16-1.17.58-1.68.43-.51.97-.93,1.64-1.26.67-.32,1.33-.51,1.98-.55s1.22.08,1.73.36c.5.29.77.69.81,1.22.02.3-.05.59-.21.87-.15.27-.34.42-.57.43-.34.02-.52-.11-.54-.39,0-.1.04-.23.14-.39.1-.16.15-.31.14-.45-.04-.61-.52-.88-1.45-.83-.5.03-1,.17-1.48.41s-.88.55-1.18.91-.44.75-.42,1.15c.02.4.45.7,1.27.9l1.98.49c.6.14,1.02.37,1.26.67.24.3.37.64.4,1.03.06.91-.44,1.89-1.5,2.92-1.7,1.71-3.4,2.62-5.08,2.72Z"/>
    <path class="cls-1" d="M110.16,33.06c-1.13.07-1.74-.47-1.81-1.63-.03-.47.05-1,.22-1.61.18-.61.38-1.22.62-1.82s.44-1.13.62-1.59c.49-1.31.87-2.33,1.15-3.05.28-.72.54-1.33.77-1.83-1.18,1.31-2.41,2.01-3.68,2.08-.71.04-1.28-.15-1.71-.58-.43-.43-.68-1.1-.73-2.01-.05-.89.05-1.82.32-2.79.27-.97.8-2.03,1.6-3.18.43-.61.98-1.21,1.66-1.79.67-.58,1.4-1.07,2.16-1.47s1.49-.62,2.15-.67c1.66-.1,2.55.76,2.66,2.58.02.32-.13.5-.46.52-.3.02-.48-.16-.52-.55-.03-.18-.06-.36-.08-.56s-.08-.38-.17-.55c-.16-.37-.53-.55-1.1-.51-.97.06-1.91.41-2.82,1.04-.9.64-1.74,1.4-2.49,2.3-.66.79-1.16,1.67-1.49,2.62-.33.95-.47,1.88-.41,2.77.08,1.29.58,1.91,1.51,1.86.67-.04,1.35-.37,2.04-.99.69-.62,1.38-1.39,2.05-2.32.67-.92,1.3-1.86,1.87-2.81l.83-1.36c.17-.28.33-.42.49-.43s.29.03.39.11c.1.09.15.18.15.28,0,.08-.02.17-.08.28-.05.11-.12.27-.21.5l-2.84,5.84c.48.15.91.22,1.32.19.59-.04,1.17-.23,1.75-.6.58-.36,1.22-.86,1.93-1.49.7-.61,1.21-1.1,1.56-1.47s.72-.75,1.12-1.16c.12-.09.23-.14.33-.14s.2.02.31.07c.1.05.16.14.17.26.01.22-.17.55-.55.98-.33.34-.67.71-1.03,1.09-.36.38-.94.9-1.73,1.58-.56.48-1.17.89-1.83,1.24-.66.34-1.34.54-2.05.58-.26.02-.54,0-.83-.04.48.78.75,1.78.82,3,.05.81-.01,1.63-.18,2.47-.17.83-.44,1.6-.79,2.3-.35.7-.78,1.28-1.29,1.73-.51.45-1.08.69-1.71.73ZM110.04,32.12c.41-.02.79-.22,1.17-.6.37-.38.72-.85,1.03-1.4.31-.56.55-1.13.72-1.72.17-.59.24-1.1.21-1.52-.05-.73-.14-1.4-.28-2.02-.14-.62-.34-1.25-.6-1.88-1.08,2.34-1.85,4.19-2.33,5.55-.48,1.36-.7,2.31-.66,2.86.03.52.28.77.75.74Z"/>
    <path class="cls-1" d="M129.5,23.04c-.99.06-1.53-.63-1.62-2.06-.05-.77.08-1.71.38-2.83-2.28,3-4.11,4.55-5.51,4.63-1.15.07-1.77-.59-1.86-1.99-.03-.52.02-1.16.14-1.91.13-.75.31-1.53.56-2.33.24-.81.52-1.56.82-2.27.3-.71.61-1.29.93-1.73.11-.15.26-.23.44-.24.1,0,.21.02.31.09s.16.17.17.31c0,.12-.05.3-.18.53-.82,1.55-1.39,2.9-1.7,4.04-.41,1.3-.58,2.42-.52,3.35.05.87.3,1.29.75,1.27.28-.02.65-.18,1.09-.49.45-.31.91-.69,1.38-1.13.47-.45.88-.86,1.22-1.25.95-1.13,1.79-2.33,2.52-3.6.33-.59.62-1.16.89-1.72.26-.55.5-1.13.7-1.73.09-.23.16-.4.23-.52.06-.11.17-.18.31-.18.43-.03.65.12.67.45.01.2-.05.35-.19.44-1.81,4.31-2.66,7.26-2.57,8.84.03.42.08.72.17.89.09.16.24.24.44.23.28-.02.71-.23,1.29-.63.57-.4,1.24-1,2.01-1.8l3.01-3.11c.15-.17.3-.26.44-.27.32-.02.5.12.51.43.02.26-.58,1.01-1.78,2.24-.51.54-.97.99-1.38,1.36s-.78.7-1.13.98c-.66.53-1.24.94-1.75,1.25s-.9.47-1.19.48Z"/>
    <path class="cls-1" d="M139.4,21.95c-.85.05-1.54-.2-2.06-.76-.52-.56-.81-1.26-.86-2.11-.09-1.46.3-2.98,1.18-4.58.24-.44.51-.88.84-1.31.32-.44.67-.86,1.05-1.27.57-.62,1.18-1.15,1.82-1.57.64-.43,1.28-.66,1.91-.7,1.03-.06,1.58.39,1.64,1.36.08,1.22-.57,2.36-1.92,3.44-1.26.97-2.53,1.5-3.8,1.57-.22.01-.42.01-.6,0-.17-.02-.33-.04-.48-.08-.18.4-.33.9-.46,1.52-.13.62-.17,1.15-.15,1.59.08,1.34.71,1.97,1.89,1.9.95-.06,1.84-.28,2.67-.67.83-.39,1.8-1.08,2.92-2.08.7-.61,1.21-1.1,1.56-1.47.34-.37.72-.75,1.12-1.17.12-.09.23-.13.33-.14s.2.02.31.07c.1.05.16.14.17.26.01.22-.17.55-.55.98-.32.34-.67.71-1.03,1.09-.36.37-.94.9-1.73,1.58-.85.74-1.79,1.34-2.82,1.79-1.03.45-2.01.7-2.94.76ZM138.95,15.06c.65-.04,1.26-.18,1.83-.42s1.11-.57,1.62-.98c1.12-.94,1.66-1.8,1.61-2.57-.02-.34-.24-.5-.67-.48-.81.05-1.72.6-2.73,1.66-.5.52-.9.99-1.21,1.4-.31.42-.59.87-.85,1.35.12.03.26.05.4.04Z"/>
  </g>
  <g>
    <path class="cls-1" d="M21.35,58.03c-.21,0-.44-.08-.71-.23-.26-.15-.47-.3-.62-.46-.3-.33-.51-.73-.62-1.19-.11-.43-.18-.9-.22-1.44-.03-.43-.04-.9-.04-1.4,0-.24,0-.48.02-.73-.35.41-.73.82-1.12,1.21-.63.63-1.29,1.16-1.97,1.57-.7.43-1.38.67-2.03.71-.84.05-1.5-.14-1.96-.58-.46-.43-.72-1.1-.77-1.98-.11-1.73.4-3.46,1.51-5.14.55-.82,1.19-1.61,1.9-2.37.71-.76,1.49-1.41,2.32-1.92.85-.52,1.71-.81,2.55-.86.55-.03,1.06.11,1.53.42,0,0,0-.02,0-.03.06-.19.16-.44.29-.74.41-1.05.88-2.2,1.41-3.39.53-1.21,1-2.18,1.42-2.96.53-.96,1.07-1.45,1.65-1.49.2-.02.38.05.52.17.19.17.29.44.31.83.06.93-.63,3.02-2.11,6.39-.1.2-.25.53-.47,1.02-.22.49-.48,1.05-.78,1.69-.3.64-.6,1.27-.91,1.9-.31.63-.58,1.19-.83,1.68-.23.46-.4.79-.52,1-.16.89-.28,1.75-.34,2.55-.07.81-.08,1.66-.03,2.5.02.31.05.6.1.86.04.22.11.39.2.5.08.08.17.15.26.2.11.05.24.11.39.15.34.06.57.3.59.66.03.52-.3.85-.88.89h0s-.03,0-.05,0ZM19.86,50.75l-.08.97c-.05.57-.07,1.09-.07,1.58s.01.95.04,1.37c.03.5.1.94.2,1.33.09.37.26.69.49.94.1.11.27.23.49.35.24.13.37.16.45.15h0c.35-.02.34-.16.34-.28,0-.06,0-.11-.16-.14-.22-.06-.38-.13-.51-.2-.16-.08-.3-.19-.43-.33-.18-.2-.28-.46-.34-.79-.05-.28-.09-.59-.1-.93-.05-.87-.04-1.74.03-2.59.07-.83.19-1.73.36-2.65l.03-.09c.11-.19.28-.52.52-1.01.24-.49.52-1.05.82-1.68.31-.63.61-1.26.9-1.89.3-.64.56-1.2.78-1.69.23-.5.38-.84.48-1.03,1.76-4.02,2.09-5.55,2.06-6.11-.02-.32-.1-.41-.12-.43-.01,0-.05-.03-.1-.03-.35.02-.76.43-1.18,1.19-.41.76-.87,1.72-1.39,2.91-.52,1.19-.99,2.33-1.4,3.38-.13.29-.21.52-.27.7-.06.2-.11.34-.15.43l-.15.37-.3-.27c-.44-.39-.91-.56-1.44-.53-.75.05-1.52.31-2.29.78-.78.49-1.52,1.1-2.2,1.83-.69.74-1.31,1.51-1.84,2.3-1.04,1.57-1.51,3.18-1.42,4.79.04.73.24,1.27.59,1.59.34.32.86.47,1.53.43.55-.03,1.15-.24,1.76-.62.64-.39,1.27-.9,1.87-1.49.61-.6,1.16-1.22,1.64-1.86l.59-.78ZM13.66,55.17c-.51,0-1.26-.24-1.35-1.63-.1-1.58.34-3.12,1.3-4.58.46-.65,1.01-1.34,1.65-2.05.65-.72,1.34-1.35,2.07-1.86.75-.53,1.47-.82,2.13-.86.7-.04,1.25.22,1.66.79l.09.12-.04.14c-.23.72-.42,1.42-.58,2.09-.16.68-.31,1.39-.43,2.11l-.04.1c-.34.56-.74,1.13-1.16,1.7-.42.55-.89,1.09-1.39,1.61-.56.59-1.18,1.12-1.83,1.56-.67.46-1.34.72-1.98.76h0s-.07,0-.1,0ZM19.59,44.76s-.07,0-.1,0c-.55.03-1.17.29-1.83.75-.69.49-1.36,1.08-1.97,1.77-.63.7-1.17,1.37-1.61,1.99-.89,1.35-1.29,2.77-1.2,4.22.07,1.14.62,1.11.85,1.09h0c.54-.03,1.1-.25,1.69-.66.62-.42,1.2-.92,1.74-1.49.49-.51.94-1.04,1.34-1.57.4-.53.78-1.07,1.1-1.6.12-.72.26-1.42.43-2.09.15-.63.34-1.3.55-1.98-.26-.3-.58-.45-.98-.45ZM22.29,45.09l-.53-.2c.33-1.25.74-2.49,1.22-3.7.48-1.23,1.11-2.41,1.86-3.52l.51.24c-.3,1.04-.72,2.17-1.24,3.36-.52,1.19-1.13,2.48-1.81,3.83Z"/>
    <path class="cls-1" d="M24.97,55.42c-.52,0-.91-.11-1.19-.33-.33-.26-.52-.66-.55-1.19-.03-.47.07-1.08.3-1.87.22-.76.51-1.59.88-2.48.37-.88.76-1.73,1.18-2.53.42-.81.85-1.49,1.26-2.02.47-.61.85-.9,1.21-.92.27-.02.48.04.64.18.14.13.23.31.24.54.01.18-.03.49-.48,1.34-.31.59-.65,1.21-1.02,1.84l-.04.06c-.15.23-.34.53-.58.9-.26.4-.51.78-.76,1.13-.24.34-.39.58-.46.7-.17.29-.34.78-.52,1.45-.19.68-.28,1.18-.26,1.51,0,.12.04.16.04.17,0,0,.04.01.17.01.03,0,.08,0,.12,0,.46-.03.98-.21,1.54-.55.59-.35,1.19-.79,1.8-1.32.61-.53,1.19-1.08,1.72-1.63.54-.56,1-1.04,1.38-1.45.13-.14.31-.22.55-.24.25-.02.44.04.58.16.08.07.19.21.2.44.02.3-.13.63-.45.99-.55.62-1.02,1.13-1.44,1.56-.44.45-.87.87-1.29,1.22-.65.53-1.38,1.04-2.18,1.5-.82.47-1.62.74-2.37.79-.09,0-.18,0-.26,0ZM28.16,44.66s-.03,0-.05,0c-.06,0-.3.07-.79.7-.39.5-.8,1.16-1.21,1.94-.41.78-.8,1.62-1.16,2.49-.36.86-.65,1.68-.86,2.42-.21.72-.3,1.28-.28,1.67.02.36.13.61.33.77.21.16.56.23,1.06.2h0c.66-.04,1.37-.28,2.11-.71.77-.45,1.48-.93,2.09-1.44.4-.34.82-.74,1.25-1.18.41-.43.88-.93,1.42-1.54.28-.31.31-.5.31-.58,0-.05-.04-.08-.17-.07-.08,0-.14.02-.16.05-.38.41-.85.9-1.39,1.46-.54.56-1.13,1.12-1.76,1.66-.63.55-1.26,1.01-1.88,1.38-.64.38-1.25.6-1.8.63-.35.02-.59-.03-.73-.17-.12-.13-.2-.31-.21-.54-.02-.4.07-.95.28-1.7.19-.73.38-1.25.58-1.59.08-.13.24-.38.49-.74.24-.35.49-.72.75-1.12.24-.37.43-.67.58-.9.4-.67.73-1.28,1.04-1.86.4-.75.41-.98.41-1.03,0-.04-.01-.12-.05-.15-.03-.03-.09-.04-.17-.04ZM29.56,42.81c-.21,0-.39-.06-.53-.18-.15-.13-.23-.33-.25-.58,0-.1.01-.28.2-.71.13-.29.28-.58.44-.89.18-.33.32-.53.43-.65.34-.43.61-.7.82-.83.22-.14.45-.21.65-.22.57-.04.94.27.98.81.01.22-.08.45-.29.71-.17.22-.37.42-.6.61-.4.29-.49.41-.51.44l-.59.95c-.03.11-.09.22-.18.31-.08.09-.24.21-.51.22-.03,0-.05,0-.08,0ZM31.44,39.31s-.04,0-.06,0c-.11,0-.25.05-.39.14-.11.06-.31.24-.68.71-.06.07-.17.22-.37.57-.16.29-.3.57-.42.84-.15.34-.15.44-.15.45,0,.09.03.15.06.18.03.03.1.04.19.03h0c.07,0,.11-.02.11-.03.03-.03.05-.07.06-.1l.04-.1.61-.98c.09-.15.29-.34.65-.6.19-.15.35-.32.5-.51.16-.2.17-.3.17-.32,0-.15-.04-.27-.3-.27Z"/>
    <path class="cls-1" d="M35.8,54.85c-1,0-1.83-.29-2.46-.87-.7-.64-1.09-1.53-1.16-2.66-.11-1.88.65-4,2.27-6.29.84-1.17,1.73-2.09,2.63-2.74.93-.66,1.83-1.03,2.69-1.08.8-.05,1.44.2,1.91.73.46.51.71,1.17.76,1.96.03.47,0,.96-.1,1.45-.11.62-.5.73-.72.75-.26.01-.47-.05-.63-.19-.17-.15-.27-.38-.28-.68-.01-.21,0-.47.06-.79.05-.28.07-.55.05-.81-.02-.33-.11-.56-.26-.7-.15-.13-.38-.19-.69-.17-.38.02-.84.19-1.38.51-.56.33-1.12.76-1.65,1.27-.54.51-1.01,1.09-1.4,1.72-1.21,1.87-1.77,3.52-1.69,4.9.05.76.25,1.32.6,1.67.35.34.85.48,1.53.44.92-.06,1.8-.25,2.62-.59.82-.33,1.79-1,2.87-1.97.67-.59,1.19-1.08,1.54-1.45.34-.37.72-.76,1.12-1.17.19-.15.35-.22.51-.23.15,0,.3.03.46.1.19.1.31.28.32.5.02.31-.18.68-.62,1.18l-1.04,1.09c-.37.38-.96.92-1.75,1.6-.86.76-1.81,1.35-2.82,1.77-1,.41-2,.65-2.96.71h0c-.11,0-.22.01-.33.01ZM39.98,41.78c-.05,0-.11,0-.16,0-.75.05-1.56.37-2.39.97-.86.61-1.7,1.49-2.5,2.6-1.54,2.19-2.27,4.18-2.16,5.93.06.98.38,1.73.98,2.27.59.54,1.36.77,2.36.71.9-.06,1.83-.28,2.78-.67.95-.39,1.85-.96,2.67-1.67.78-.67,1.36-1.2,1.71-1.57l1.03-1.08c.46-.52.47-.73.47-.76-.07-.06-.13-.07-.17-.07-.02,0-.08.01-.17.08-.37.38-.74.77-1.08,1.13-.36.39-.89.88-1.58,1.49-1.13,1.02-2.15,1.72-3.03,2.07-.87.36-1.81.57-2.8.63-.83.05-1.5-.15-1.96-.61-.46-.45-.71-1.13-.77-2.04-.09-1.51.5-3.28,1.78-5.25.41-.67.92-1.28,1.49-1.83.56-.54,1.15-.99,1.75-1.35.63-.37,1.16-.56,1.64-.59.46-.03.84.08,1.1.31.27.24.43.61.46,1.1.02.31,0,.62-.06.94-.05.27-.07.49-.06.65,0,.14.04.24.09.28.04.04.12.05.22.05.05,0,.14,0,.19-.28.09-.45.12-.89.1-1.31-.04-.66-.25-1.2-.62-1.61-.32-.36-.75-.54-1.29-.54Z"/>
    <path class="cls-1" d="M47.54,54.26c-.83,0-1.52-.29-2.05-.86-.57-.6-.88-1.37-.94-2.29-.09-1.5.32-3.1,1.22-4.74.25-.46.54-.91.85-1.34.32-.44.68-.88,1.07-1.29.58-.63,1.21-1.18,1.88-1.62.68-.45,1.37-.7,2.05-.74.59-.04,1.05.08,1.38.36.33.28.52.71.56,1.27.08,1.31-.6,2.55-2.03,3.68-1.3,1.01-2.64,1.56-3.96,1.64-.25.01-.46.01-.65-.01-.09,0-.18-.02-.27-.04-.13.35-.25.77-.35,1.25-.12.59-.17,1.1-.14,1.52.07,1.17.59,1.69,1.58,1.63.91-.06,1.77-.27,2.57-.64.8-.37,1.76-1.06,2.85-2.04.67-.59,1.19-1.08,1.54-1.45.34-.37.72-.76,1.12-1.17.19-.15.36-.22.51-.23.16,0,.31.03.46.11.19.09.31.28.32.5.02.3-.18.68-.62,1.18l-.21.23c-.26.28-.54.57-.83.87-.37.38-.94.91-1.75,1.6-.86.75-1.83,1.37-2.89,1.83-1.06.46-2.08.72-3.04.78h0c-.08,0-.15,0-.23,0ZM51.81,41.94c-.05,0-.11,0-.17,0-.58.04-1.17.25-1.77.65-.63.41-1.22.93-1.77,1.53-.37.4-.72.82-1.03,1.24-.3.41-.58.84-.81,1.28-.85,1.55-1.23,3.03-1.15,4.43.05.79.3,1.42.78,1.93.46.5,1.06.72,1.83.67.9-.05,1.85-.3,2.84-.73,1-.44,1.93-1.03,2.74-1.74.79-.68,1.36-1.2,1.71-1.57.29-.3.56-.59.82-.86l.21-.22c.46-.52.47-.73.47-.76-.07-.06-.14-.08-.17-.07-.02,0-.08.01-.17.08-.37.38-.74.77-1.08,1.13-.37.39-.9.89-1.58,1.49-1.13,1.01-2.13,1.73-2.99,2.13-.86.4-1.79.63-2.77.69-.94.06-2.07-.27-2.19-2.17-.03-.46.02-1.03.15-1.67.13-.63.29-1.16.48-1.58l.1-.21.23.05c.13.03.28.06.44.07.16.02.34.02.55,0,1.21-.07,2.44-.58,3.65-1.52,1.27-1.01,1.88-2.08,1.81-3.19-.02-.41-.14-.69-.35-.86-.19-.15-.46-.23-.82-.23ZM47.22,47.36c-.14,0-.26-.02-.39-.05l-.35-.09.17-.32c.26-.5.56-.97.87-1.39.31-.42.71-.88,1.23-1.43,1.07-1.12,2.03-1.69,2.92-1.75.57-.04.94.24.97.75.05.88-.51,1.79-1.71,2.81-.52.43-1.09.78-1.69,1.03-.6.25-1.25.4-1.93.44h0s-.07,0-.1,0ZM51.78,42.91s-.05,0-.08,0c-.73.04-1.59.57-2.54,1.57-.5.52-.89.97-1.19,1.37-.21.29-.42.59-.61.92.58-.04,1.13-.18,1.65-.39.55-.23,1.07-.54,1.54-.94,1.04-.87,1.55-1.66,1.51-2.33,0-.1-.01-.21-.29-.21Z"/>
    <path class="cls-1" d="M55.29,54c-.19,0-.35-.04-.48-.13-.11-.08-.24-.23-.26-.5,0-.15.03-.32.12-.52.07-.16.14-.29.19-.4l2.39-5.65c1.34-3.21,1.49-3.84,1.49-3.96-.01-.21.04-.39.16-.53.12-.13.29-.21.51-.22.55-.04.88.27.92.84,0,.12,0,.36-.23,1.04-.16.48-.36,1.03-.61,1.64-.07.19-.14.37-.21.54.13-.15.27-.31.4-.46.59-.67,1.21-1.32,1.82-1.92,1.89-1.87,3.35-2.8,4.46-2.87.44-.03.79.07,1.04.29.23.21.37.52.39.92.04.66-.39,2.07-1.32,4.32-1.1,2.69-1.3,3.68-1.28,4.04,0,.06.01.1.02.11,0-.01.06-.03.16-.07.15-.07.32-.11.5-.13.5-.03.82.24.85.72.01.2-.05.39-.18.54-.23.27-.66.41-1.35.45-.49.03-.85-.07-1.11-.31-.25-.23-.39-.55-.41-.95-.06-1.02.34-2.54,1.24-4.65,1.11-2.59,1.26-3.31,1.25-3.51,0-.08-.02-.1-.02-.1-.19.04-.72.21-1.89,1.21-1.01.86-2.02,1.86-3.02,2.97-.99,1.1-1.94,2.36-2.82,3.76l-1.94,3.07c-.15.26-.4.42-.69.44h0s-.06,0-.08,0ZM59.52,42.66s-.04,0-.06,0c-.07,0-.14.08-.13.15,0,.15.03.47-1.54,4.21l-2.4,5.66c-.06.12-.12.25-.19.4-.07.16-.07.23-.07.25,0,.03,0,.06.02.07,0,0,.06.04.19.02h0c.07,0,.16-.03.24-.16l1.95-3.08c.9-1.43,1.86-2.72,2.88-3.84,1.01-1.12,2.05-2.14,3.07-3.02,1-.86,1.74-1.29,2.25-1.32.16-.01.34.05.45.18.09.11.14.25.15.44.02.29-.1,1-1.29,3.78-.85,1.99-1.25,3.47-1.19,4.39.02.25.09.44.23.57.13.12.37.18.69.16.7-.04.9-.19.96-.26.03-.04.04-.07.04-.12,0-.14-.03-.2-.24-.19-.1,0-.21.03-.3.08-.17.08-.29.11-.38.12-.14,0-.57-.02-.6-.65-.02-.39.09-1.26,1.32-4.29,1.1-2.66,1.3-3.68,1.28-4.07-.01-.24-.08-.42-.2-.52-.13-.11-.34-.16-.62-.14-.95.06-2.33.97-4.09,2.71-.6.59-1.2,1.23-1.79,1.89-.59.66-1.16,1.37-1.71,2.1l-.49-.3c.29-.58.64-1.41,1.06-2.48.25-.6.45-1.14.6-1.61.2-.63.21-.8.2-.82-.02-.24-.09-.3-.25-.3Z"/>
  </g>
  <g>
    <path class="cls-1" d="M21.38,57.74c-.16,0-.36-.05-.61-.19-.24-.14-.43-.27-.56-.41-.26-.29-.45-.64-.55-1.06-.11-.42-.18-.88-.21-1.39-.03-.42-.04-.89-.04-1.38s.02-1.03.07-1.61c-.49.64-1.05,1.27-1.67,1.89-.62.62-1.26,1.13-1.92,1.53s-1.29.63-1.89.67c-1.52.09-2.33-.67-2.43-2.29-.1-1.68.39-3.33,1.47-4.97.54-.8,1.16-1.58,1.87-2.34s1.46-1.38,2.26-1.88c.8-.49,1.61-.77,2.42-.82.61-.04,1.16.16,1.65.6.04-.09.08-.22.14-.41.06-.18.15-.42.28-.71.42-1.08.89-2.21,1.41-3.39.52-1.18.99-2.16,1.41-2.93.48-.86.94-1.31,1.41-1.34.32-.02.5.22.53.73.05.87-.64,2.96-2.09,6.26-.09.19-.25.53-.47,1.02-.22.49-.48,1.05-.78,1.69-.3.64-.6,1.27-.9,1.9-.31.63-.58,1.19-.83,1.68-.24.49-.42.83-.53,1.02-.17.92-.29,1.8-.36,2.63-.07.83-.08,1.68-.03,2.54.02.32.05.62.1.89s.13.49.27.64c.11.11.23.2.35.27.13.06.27.12.44.17.25.04.38.18.39.4.02.36-.18.56-.61.58ZM13.74,54.88c.59-.04,1.2-.27,1.83-.71.63-.43,1.23-.94,1.78-1.52.5-.52.95-1.05,1.36-1.59.41-.54.8-1.1,1.15-1.67.12-.72.26-1.43.43-2.13.17-.7.37-1.4.59-2.11-.35-.49-.83-.71-1.41-.68-.61.04-1.27.3-1.98.81s-1.38,1.1-2.02,1.82c-.64.71-1.18,1.38-1.63,2.02-.93,1.42-1.35,2.89-1.26,4.4.06.95.44,1.4,1.15,1.36ZM22.03,44.96c.69-1.36,1.29-2.63,1.81-3.81.52-1.18.93-2.29,1.23-3.32-.75,1.1-1.35,2.26-1.83,3.47-.48,1.21-.88,2.43-1.21,3.67Z"/>
    <path class="cls-1" d="M25.22,55.13c-.57.04-.99-.05-1.25-.26-.27-.21-.41-.53-.44-.98-.03-.43.07-1.01.29-1.77.22-.75.51-1.57.87-2.45s.75-1.71,1.17-2.51c.42-.8.83-1.46,1.23-1.98.41-.52.74-.79,1-.81.36-.02.56.13.58.45.01.2-.13.6-.44,1.18-.31.59-.65,1.2-1.02,1.83-.15.23-.35.55-.61.95-.26.4-.51.78-.75,1.13-.24.35-.4.59-.48.72-.18.31-.37.83-.55,1.53-.2.7-.29,1.24-.27,1.6,0,.16.05.28.13.36s.25.11.51.09c.51-.03,1.06-.23,1.67-.59.61-.36,1.22-.81,1.84-1.35.62-.53,1.2-1.08,1.74-1.65s1.01-1.05,1.39-1.46c.08-.09.2-.13.36-.14.3-.02.46.09.48.34.01.22-.11.49-.38.78-.51.58-.99,1.1-1.43,1.55-.44.46-.86.86-1.27,1.21-.64.53-1.35,1.02-2.13,1.47-.79.45-1.53.7-2.24.75ZM29.62,42.52c-.34.02-.53-.14-.55-.48,0-.1.05-.29.18-.58.12-.28.27-.57.43-.87.17-.29.3-.5.39-.6.32-.4.57-.67.76-.78s.36-.17.52-.18c.42-.03.65.15.67.54,0,.14-.07.31-.23.51-.16.21-.35.39-.56.57-.31.22-.5.4-.58.52l-.61.98c-.02.08-.06.16-.12.24-.07.08-.17.12-.31.13Z"/>
    <path class="cls-1" d="M36.12,54.55c-1.07.07-1.93-.2-2.58-.79-.65-.59-1-1.41-1.07-2.46-.11-1.82.63-3.86,2.22-6.11.82-1.15,1.68-2.04,2.56-2.67.89-.63,1.73-.98,2.54-1.03.71-.04,1.27.17,1.68.63.41.46.64,1.06.69,1.79.03.45,0,.9-.1,1.38-.06.33-.21.5-.46.51-.39.02-.59-.18-.62-.6,0-.18,0-.42.06-.72.05-.3.07-.59.05-.88-.05-.81-.47-1.19-1.26-1.14-.43.03-.93.21-1.51.55-.58.34-1.14.78-1.7,1.31s-1.04,1.12-1.45,1.78c-1.24,1.93-1.82,3.62-1.73,5.07.1,1.68.91,2.47,2.43,2.38.95-.06,1.85-.26,2.71-.61.85-.35,1.84-1.02,2.95-2.02.7-.61,1.21-1.1,1.56-1.47.34-.37.72-.76,1.12-1.17.12-.09.23-.13.33-.14s.2.02.31.07.16.14.17.27c.01.22-.17.55-.55.98-.33.34-.67.71-1.03,1.09-.36.38-.94.9-1.73,1.58-.85.74-1.76,1.32-2.74,1.72-.98.41-1.94.64-2.87.69Z"/>
    <path class="cls-1" d="M47.75,53.96c-.85.05-1.53-.2-2.06-.76-.52-.56-.81-1.26-.86-2.11-.09-1.46.3-2.98,1.18-4.58.24-.44.51-.88.83-1.31.32-.44.67-.86,1.05-1.27.57-.63,1.18-1.15,1.82-1.57.64-.43,1.28-.66,1.91-.7,1.03-.06,1.58.39,1.64,1.36.08,1.22-.57,2.36-1.92,3.44-1.26.97-2.53,1.5-3.8,1.57-.22.01-.42.01-.59,0-.17-.02-.33-.05-.48-.08-.18.4-.33.9-.46,1.52-.12.62-.17,1.15-.15,1.59.08,1.34.71,1.97,1.88,1.9.95-.06,1.84-.28,2.67-.67.83-.39,1.8-1.08,2.92-2.08.69-.61,1.21-1.1,1.56-1.47.34-.37.71-.76,1.12-1.17.11-.09.22-.13.33-.14.1,0,.2.02.31.07.1.05.16.14.17.26.01.22-.17.55-.55.98-.32.34-.67.71-1.03,1.08-.36.38-.94.9-1.73,1.58-.85.74-1.79,1.34-2.82,1.79-1.03.45-2.01.7-2.94.76ZM47.3,47.08c.65-.04,1.26-.18,1.83-.42.57-.24,1.11-.56,1.62-.98,1.12-.94,1.66-1.8,1.61-2.57-.02-.34-.25-.5-.67-.48-.81.05-1.72.6-2.73,1.66-.5.52-.9.99-1.21,1.4-.31.42-.59.87-.85,1.35.12.03.26.05.4.04Z"/>
    <path class="cls-1" d="M55.35,53.71c-.32.02-.5-.1-.51-.37,0-.1.03-.23.1-.39.07-.15.13-.29.19-.39l2.4-5.66c1.03-2.46,1.53-3.82,1.52-4.08-.02-.28.11-.43.4-.45.38-.02.59.16.61.57,0,.14-.06.45-.22.93-.15.48-.35,1.02-.6,1.62-.42,1.08-.78,1.92-1.07,2.5.56-.74,1.14-1.45,1.73-2.12.59-.67,1.19-1.3,1.8-1.91,1.82-1.79,3.25-2.73,4.28-2.79.71-.04,1.08.27,1.12.93.04.61-.39,2.01-1.3,4.19-.9,2.21-1.33,3.6-1.3,4.16.02.26.11.39.3.38.06,0,.15-.04.28-.09.13-.06.27-.09.41-.1.34-.02.52.13.54.46.03.41-.4.63-1.27.69-.41.02-.7-.05-.9-.23-.19-.18-.3-.44-.32-.76-.06-.97.35-2.48,1.22-4.52.87-2.02,1.29-3.24,1.27-3.64-.02-.24-.11-.36-.3-.35-.44.03-1.14.45-2.09,1.25-1.02.88-2.04,1.88-3.05,2.99-1.01,1.12-1.96,2.38-2.85,3.8l-1.94,3.07c-.11.19-.27.29-.47.3Z"/>
  </g>
  <g>
    <path class="cls-1" d="M16.47,82.44c-1,0-1.82-.29-2.46-.87-.7-.64-1.09-1.53-1.16-2.66-.11-1.88.65-4,2.27-6.29.84-1.17,1.73-2.09,2.63-2.74.92-.66,1.83-1.02,2.69-1.08.81-.05,1.44.2,1.92.73.46.51.71,1.17.76,1.96.03.46,0,.95-.1,1.45-.11.62-.5.74-.72.75-.26.01-.47-.05-.63-.19-.17-.15-.27-.38-.29-.68-.01-.21,0-.46.07-.79.05-.27.07-.54.05-.8-.04-.65-.31-.91-.95-.87-.38.02-.84.19-1.38.51-.55.33-1.11.75-1.65,1.27-.54.52-1.01,1.1-1.4,1.73-1.21,1.87-1.77,3.52-1.69,4.9.05.76.25,1.32.6,1.67.35.34.85.49,1.53.44.92-.06,1.8-.26,2.62-.59.81-.33,1.78-.99,2.87-1.97.68-.6,1.19-1.08,1.54-1.45.34-.37.72-.75,1.12-1.17.2-.15.36-.22.52-.23.15,0,.31.03.46.11.19.1.31.27.32.5.02.31-.17.68-.62,1.19-.33.35-.68.72-1.04,1.09-.36.37-.93.9-1.75,1.6-.87.76-1.82,1.35-2.82,1.77-1.01.42-2,.66-2.96.71h0c-.11,0-.22.01-.33.01ZM20.64,69.37c-.05,0-.11,0-.16,0-.75.05-1.56.37-2.39.97-.85.61-1.69,1.49-2.5,2.61-1.54,2.18-2.27,4.18-2.16,5.92.06.99.38,1.73.97,2.27.58.53,1.38.77,2.37.71.89-.05,1.83-.28,2.78-.67.94-.39,1.84-.95,2.67-1.67.81-.7,1.37-1.21,1.71-1.57.36-.38.7-.74,1.03-1.08.45-.51.47-.71.47-.76-.08-.06-.14-.07-.17-.07-.02,0-.07.01-.17.08-.37.38-.74.77-1.08,1.13-.36.38-.89.88-1.58,1.49-1.14,1.02-2.16,1.72-3.03,2.07-.87.36-1.82.57-2.8.63-.83.05-1.5-.15-1.96-.61-.46-.45-.72-1.13-.77-2.04-.09-1.51.51-3.28,1.78-5.24.41-.66.91-1.28,1.49-1.83.57-.55,1.16-1,1.76-1.35.62-.36,1.17-.56,1.63-.59.97-.04,1.5.44,1.56,1.41.02.3,0,.62-.06.94-.05.27-.07.49-.06.65,0,.14.04.24.09.29.04.04.12.05.22.05.05,0,.14,0,.19-.28.09-.45.12-.89.1-1.31-.04-.67-.24-1.19-.62-1.61-.32-.36-.74-.54-1.29-.54Z"/>
    <path class="cls-1" d="M27.73,81.17c-.78,0-1.39-.22-1.84-.67-.49-.48-.76-1.23-.82-2.22-.05-.89.1-1.84.46-2.82.35-.98.86-1.91,1.49-2.76.63-.86,1.37-1.59,2.18-2.16.82-.58,1.7-.91,2.6-.97.85-.05,1.51.24,1.95.88.41.59.64,1.26.68,2,.06.94-.07,1.92-.39,2.92-.31.98-.77,1.91-1.37,2.76-.59.85-1.29,1.56-2.08,2.11-.8.56-1.67.87-2.59.93h0c-.09,0-.18,0-.27,0ZM31.98,70.14c-.05,0-.1,0-.15,0-.8.05-1.57.34-2.31.86-.76.54-1.45,1.22-2.05,2.03-.6.81-1.07,1.69-1.41,2.62-.33.91-.48,1.78-.43,2.59.05.84.27,1.47.66,1.85.38.38.93.54,1.67.49h0c.81-.05,1.59-.33,2.3-.83.73-.51,1.38-1.18,1.94-1.97.56-.8.99-1.68,1.29-2.61.3-.93.42-1.84.36-2.71-.04-.63-.23-1.21-.58-1.7-.3-.43-.72-.63-1.29-.63ZM27.75,80.2c-.48,0-.86-.15-1.14-.44-.3-.31-.47-.78-.5-1.39-.04-.68.1-1.47.43-2.35.32-.86.76-1.7,1.3-2.5.55-.81,1.15-1.49,1.79-2.02.67-.56,1.34-.87,1.99-.91.48-.03.9.11,1.24.4.34.3.53.73.56,1.27.05.81-.04,1.66-.26,2.51-.22.85-.57,1.66-1.03,2.41-.47.75-1.04,1.4-1.7,1.92-.65.52-1.4.87-2.21,1.03-.09.04-.19.05-.3.06h0c-.05,0-.1,0-.15,0ZM31.74,71.16s-.06,0-.1,0c-.52.03-1.08.29-1.66.78-.6.5-1.16,1.14-1.69,1.91-.52.76-.93,1.56-1.24,2.38-.3.8-.43,1.51-.4,2.12.03.47.15.82.35,1.03.19.2.46.28.85.26h0s.04,0,.06,0h.01s.1-.03.1-.03c.74-.14,1.42-.45,2.01-.93.61-.48,1.14-1.08,1.57-1.78.44-.7.76-1.45.97-2.25.21-.8.29-1.58.24-2.34-.02-.39-.14-.67-.37-.87-.2-.18-.44-.26-.72-.26Z"/>
    <path class="cls-1" d="M34.67,81.94c-.22,0-.4-.06-.53-.18-.14-.13-.23-.31-.24-.55,0-.08,0-.09.34-.91.21-.5.51-1.24.9-2.21l1.35-3.35c.54-1.33.93-2.4,1.15-3.18.29-1.01.31-1.33.31-1.42-.03-.48.24-.79.72-.82.5-.02.79.25.82.73.02.29-.04.73-.19,1.33-.14.57-.37,1.3-.71,2.22l-.6,1.62c3.39-4.58,6.03-6.87,8.05-6.99.51-.03.92.16,1.22.56.28.37.43.78.46,1.24.05.76-.26,1.91-.94,3.49.57-.65,1.14-1.3,1.72-1.95,1.04-1.17,2.08-2.33,3.13-3.47.33-.35.6-.51.87-.53.23-.02.58.04.87.42.21.26.33.56.35.89.02.26-.07.56-.26.92-.23.44-.43.97-.61,1.59-.19.63-.4,1.34-.63,2.13-.28.9-.45,1.64-.55,2.28-.1.64-.14,1.15-.11,1.53.02.42.14.72.33.89.2.17.38.25.55.24.38-.02.81-.15,1.26-.39.49-.25.87-.48,1.16-.71.62-.46,1.26-1.03,1.91-1.7.66-.67,1.3-1.36,1.9-2.04.13-.14.31-.22.56-.24.69-.04.77.45.78.6.02.3-.13.63-.45.99-.79.89-1.47,1.62-2.07,2.23-.62.62-1.23,1.15-1.8,1.56-.37.25-.82.51-1.39.8-.57.29-1.19.46-1.85.5-.67.04-1.24-.14-1.71-.52-.49-.4-.76-1.21-.84-2.5-.03-.5.02-1.06.15-1.74.13-.67.33-1.42.61-2.23l.89-2.53-3.1,3.53c-.47.53-.86.98-1.16,1.34-.3.37-.55.66-.74.9-.34.4-.65.81-.93,1.23-.27.4-.49.75-.68,1.04-.21.38-.49.48-.69.5-.51.03-.82-.22-.85-.66-.04-.68.44-2.18,1.46-4.58,1.25-2.94,1.44-3.79,1.43-4.03,0,0-.08-.01-.24-.01-.04,0-.09,0-.14,0-1.7.1-4.68,3.23-8.86,9.3-.35.56-.94,1.43-1.77,2.58-.07.1-.21.24-.51.26h0s-.05,0-.08,0ZM34.47,81.23c0,.05.02.09.04.11.03.03.1.04.2.03.06,0,.08-.02.08-.02.82-1.14,1.41-2,1.75-2.56,4.36-6.32,7.4-9.44,9.31-9.56.39-.03.65.03.82.18.1.09.16.21.17.35.02.31-.11,1.1-1.47,4.3-1.21,2.84-1.44,3.92-1.41,4.32,0,.08,0,.14.24.12.08,0,.16-.08.23-.21.2-.31.42-.66.7-1.07.29-.43.62-.86.96-1.27.19-.23.43-.53.74-.9.3-.36.69-.82,1.17-1.36l4.07-4.64.49.28-1.38,3.92c-.27.78-.46,1.5-.58,2.14-.12.62-.16,1.16-.14,1.6.09,1.38.39,1.9.63,2.09.36.3.79.43,1.31.39.58-.03,1.13-.18,1.62-.44.54-.28.98-.53,1.32-.77.55-.39,1.13-.89,1.72-1.49.6-.6,1.27-1.32,2.05-2.2.26-.3.31-.48.31-.58-.02-.06-.07-.08-.17-.07-.09,0-.14.03-.16.05-.61.69-1.25,1.38-1.93,2.06-.67.68-1.33,1.27-1.97,1.75-.32.25-.73.5-1.25.77-.52.27-1.03.42-1.49.45-.33.01-.64-.1-.95-.37-.32-.27-.5-.71-.53-1.29-.03-.42.01-.97.12-1.65.1-.66.29-1.43.57-2.36.23-.78.44-1.49.63-2.12.19-.65.41-1.22.65-1.69.17-.33.2-.52.2-.63-.01-.21-.09-.39-.23-.57-.15-.2-.3-.21-.38-.21-.04,0-.19.04-.49.35-1.04,1.14-2.09,2.29-3.12,3.46-1.03,1.17-2.05,2.33-3.06,3.49l-.47-.32c1.22-2.43,1.81-4.13,1.75-5.05-.02-.35-.13-.65-.34-.93-.19-.25-.43-.35-.73-.33-2.04.12-5.02,2.98-8.86,8.48l-.5-.26,1.33-3.61c.33-.91.56-1.61.7-2.16.16-.67.18-1,.18-1.16,0-.17-.04-.2-.21-.19-.08,0-.14.02-.16.05s-.03.09-.03.17c0,.17-.01.52-.33,1.61-.23.8-.62,1.89-1.17,3.24l-1.35,3.34c-.39.98-.69,1.72-.9,2.22-.16.37-.25.6-.29.7Z"/>
    <path class="cls-1" d="M61.67,79.1c-.78,0-1.4-.22-1.85-.67-.49-.48-.77-1.23-.82-2.22-.06-.88.1-1.83.46-2.82.35-.97.85-1.9,1.49-2.77.64-.86,1.37-1.59,2.18-2.16.83-.59,1.71-.91,2.61-.97.86-.04,1.51.24,1.94.87.41.59.64,1.26.68,2,.06.94-.07,1.92-.39,2.92-.31.99-.77,1.92-1.37,2.76-.59.85-1.29,1.56-2.08,2.11-.8.56-1.67.87-2.59.93h0c-.09,0-.18,0-.26,0ZM65.92,68.06s-.1,0-.15,0c-.79.05-1.57.34-2.31.86-.76.53-1.44,1.22-2.05,2.03-.6.82-1.08,1.7-1.41,2.62-.33.92-.48,1.79-.43,2.59.05.84.27,1.47.66,1.85.38.38.93.54,1.67.5.81-.05,1.58-.33,2.3-.83.73-.51,1.38-1.18,1.94-1.97.56-.8,1-1.68,1.29-2.61.29-.92.42-1.84.36-2.71-.04-.64-.23-1.19-.58-1.7-.3-.42-.72-.63-1.29-.63ZM61.69,78.13c-.44,0-.79-.12-1.07-.36-.35-.31-.54-.8-.58-1.47-.04-.69.1-1.48.43-2.35.32-.86.76-1.71,1.3-2.5.55-.81,1.15-1.49,1.79-2.02.67-.56,1.34-.87,1.99-.91.48-.02.9.11,1.23.4.34.3.53.73.56,1.27.05.81-.03,1.66-.26,2.51-.22.85-.57,1.66-1.03,2.41-.47.75-1.04,1.4-1.7,1.92-.66.52-1.4.87-2.2,1.03-.09.04-.19.05-.3.06h0c-.05,0-.1,0-.15,0ZM65.68,69.08s-.06,0-.1,0c-.52.03-1.08.29-1.66.78-.6.5-1.17,1.14-1.69,1.91-.51.76-.93,1.56-1.24,2.38-.3.8-.43,1.51-.4,2.12.03.51.16.87.39,1.07.19.17.45.23.8.21h0s.04,0,.06,0v-.02s.12-.02.12-.02c.74-.14,1.41-.45,2.01-.93.61-.48,1.14-1.08,1.57-1.78.43-.7.76-1.46.97-2.25.2-.8.29-1.58.24-2.34-.02-.39-.14-.67-.37-.87-.2-.18-.44-.26-.72-.26Z"/>
    <path class="cls-1" d="M79.36,80.89c-.21,0-.44-.08-.71-.23-.27-.15-.48-.3-.62-.46-.3-.33-.51-.73-.62-1.19-.11-.43-.18-.92-.21-1.44-.03-.43-.04-.9-.04-1.4,0-.23,0-.47.02-.73-.34.4-.72.81-1.12,1.21-.64.63-1.3,1.16-1.97,1.57-.7.43-1.38.67-2.03.71-1.68.1-2.62-.78-2.73-2.56-.1-1.74.4-3.47,1.51-5.14.55-.82,1.19-1.62,1.9-2.37.71-.77,1.49-1.41,2.32-1.93.84-.52,1.7-.81,2.55-.86.55-.04,1.07.11,1.53.42,0,0,0-.01,0-.02.06-.2.16-.44.29-.74.41-1.07.89-2.21,1.41-3.4.53-1.21,1-2.18,1.41-2.96.53-.96,1.07-1.45,1.65-1.49.22-.02.78.05.84,1,.06.92-.63,3.01-2.11,6.39-.09.18-.22.47-.41.89l-.06.14c-.22.49-.48,1.06-.78,1.69-.3.64-.6,1.27-.9,1.9l-.26.53c-.2.42-.39.8-.57,1.15-.23.46-.4.79-.51.99-.16.89-.28,1.74-.35,2.55-.07.8-.08,1.65-.03,2.5.02.33.05.61.1.86.04.22.11.39.2.5.08.08.17.15.26.2.11.05.24.11.39.15.34.06.57.3.59.66.01.25-.04.84-.87.89h0s-.03,0-.05,0ZM77.87,73.61l-.08.97c-.05.58-.07,1.1-.07,1.58s.01.95.04,1.37c.03.49.1.94.2,1.34.09.37.26.69.49.94.1.11.27.23.49.35.25.14.39.16.45.15h0c.35-.02.34-.15.33-.28,0-.06,0-.11-.15-.14-.22-.06-.37-.13-.51-.19-.16-.08-.3-.19-.44-.33-.17-.2-.29-.47-.34-.79-.05-.27-.08-.58-.1-.93-.05-.88-.05-1.75.03-2.59.07-.84.2-1.74.36-2.65l.03-.09c.11-.19.28-.52.52-1.01.17-.35.36-.73.57-1.15l.26-.53c.3-.63.61-1.26.9-1.89.3-.64.56-1.2.78-1.69l.06-.14c.19-.42.33-.72.41-.89,1.76-4.03,2.09-5.55,2.06-6.11-.03-.48-.18-.47-.23-.46-.35.02-.76.43-1.18,1.19-.41.76-.87,1.71-1.39,2.91-.52,1.18-.99,2.31-1.4,3.38-.12.29-.21.52-.27.7-.06.2-.11.34-.15.43l-.16.37-.3-.26c-.44-.39-.92-.56-1.44-.53-.76.05-1.53.31-2.28.78-.78.48-1.52,1.1-2.2,1.83-.69.74-1.31,1.51-1.84,2.3-1.04,1.57-1.51,3.18-1.42,4.79.09,1.46.77,2.11,2.12,2.02.55-.03,1.14-.24,1.76-.62.63-.39,1.26-.89,1.87-1.49.62-.62,1.16-1.23,1.64-1.86l.59-.77ZM71.66,78.03c-.33,0-.61-.1-.83-.29-.31-.27-.48-.71-.52-1.34-.1-1.57.34-3.11,1.3-4.58.47-.66,1.02-1.35,1.66-2.05.64-.72,1.34-1.34,2.07-1.86.75-.53,1.47-.82,2.12-.86.69-.04,1.25.22,1.66.79l.09.12-.04.14c-.22.71-.42,1.41-.58,2.09-.17.7-.31,1.41-.43,2.11l-.04.1c-.35.57-.74,1.14-1.16,1.7-.42.55-.89,1.09-1.39,1.62-.57.6-1.18,1.12-1.83,1.56-.67.46-1.34.72-1.98.76h0s-.07,0-.11,0ZM77.6,67.62s-.07,0-.1,0c-.55.03-1.17.29-1.83.75-.7.49-1.36,1.09-1.97,1.77-.62.69-1.16,1.36-1.61,1.99-.88,1.35-1.29,2.77-1.2,4.22.03.46.14.78.32.95.13.11.3.16.52.14h0c.53-.03,1.1-.25,1.69-.66.61-.42,1.2-.92,1.74-1.48.49-.51.94-1.04,1.35-1.57.4-.52.77-1.06,1.1-1.6.12-.69.26-1.4.43-2.09.16-.64.34-1.31.55-1.98-.26-.3-.58-.45-.98-.45ZM80.3,67.95l-.53-.2c.33-1.24.74-2.49,1.22-3.7.48-1.22,1.11-2.4,1.86-3.52l.51.24c-.3,1.03-.72,2.16-1.24,3.36-.51,1.16-1.12,2.45-1.81,3.83Z"/>
    <path class="cls-1" d="M82.99,78.28c-.52,0-.91-.11-1.19-.33-.33-.27-.52-.67-.55-1.19-.03-.46.07-1.07.3-1.86.22-.76.51-1.59.88-2.48.36-.87.76-1.72,1.18-2.53.42-.8.84-1.48,1.26-2.02.47-.6.86-.9,1.21-.92.51-.03.85.24.88.72.01.18-.03.49-.48,1.34-.31.59-.65,1.21-1.02,1.84-.15.24-.36.56-.62.96-.26.41-.51.78-.76,1.14-.23.34-.39.57-.46.69-.17.3-.35.79-.52,1.46-.19.67-.28,1.18-.26,1.51,0,.12.04.16.05.18,0,0,.04.01.17.01.03,0,.07,0,.12,0,.46-.03.97-.21,1.54-.55.59-.35,1.19-.79,1.79-1.32.6-.51,1.18-1.06,1.73-1.63.54-.56,1-1.04,1.38-1.45.12-.14.31-.22.55-.23.25-.01.44.04.58.16.08.07.19.21.2.45.02.3-.13.63-.45.99-.52.58-.99,1.1-1.44,1.56-.45.46-.89.87-1.29,1.22-.66.54-1.39,1.05-2.18,1.5-.82.48-1.62.74-2.37.79h0c-.09,0-.17,0-.25,0ZM86.18,67.52s-.04,0-.06,0c-.06,0-.3.06-.79.7-.4.52-.8,1.17-1.21,1.94-.42.8-.81,1.63-1.16,2.49-.36.86-.65,1.68-.86,2.41-.21.72-.3,1.28-.28,1.67.02.36.13.61.33.77.21.16.56.22,1.06.2.66-.04,1.37-.28,2.11-.71.76-.44,1.46-.92,2.1-1.44.38-.33.8-.73,1.24-1.18.44-.45.91-.97,1.42-1.54.28-.32.31-.5.31-.58,0-.05-.04-.08-.17-.07-.08,0-.14.02-.16.05-.39.42-.85.9-1.4,1.47-.56.58-1.15,1.14-1.76,1.66-.63.55-1.26,1.01-1.88,1.38-.65.38-1.25.6-1.8.63-.36.02-.59-.03-.73-.17-.13-.13-.2-.31-.21-.55-.02-.4.07-.96.28-1.69.19-.72.37-1.25.57-1.59.07-.13.24-.37.49-.73.24-.35.49-.72.75-1.12.26-.4.46-.72.61-.95.36-.62.7-1.23,1-1.81.4-.77.41-1,.41-1.03,0-.1-.01-.18-.22-.18ZM87.58,65.66c-.21,0-.39-.06-.53-.18-.15-.13-.23-.33-.25-.58,0-.11.01-.28.2-.71.13-.29.28-.58.44-.89.18-.31.31-.53.42-.65.34-.43.61-.71.83-.84.22-.14.44-.21.65-.22.58-.03.94.27.98.81.01.22-.08.45-.29.71-.17.22-.37.42-.6.61-.41.29-.5.42-.51.45l-.59.95c-.03.12-.09.22-.18.32-.07.09-.23.2-.51.22-.03,0-.05,0-.08,0ZM89.46,62.17s-.04,0-.07,0c-.11,0-.25.05-.39.14-.09.05-.29.21-.68.71-.07.08-.17.22-.37.57-.16.29-.3.57-.42.84-.15.34-.15.44-.15.44,0,.09.03.15.06.18.03.03.1.04.19.03h0c.08,0,.11-.02.11-.03.04-.04.05-.07.06-.1l.04-.1.61-.98c.09-.16.3-.35.65-.6.19-.16.35-.33.5-.51.13-.16.17-.27.17-.32,0-.16-.04-.27-.3-.27Z"/>
    <path class="cls-1" d="M100.22,79.61c-.21,0-.44-.08-.71-.23-.26-.15-.47-.3-.62-.46-.3-.33-.51-.73-.62-1.19-.11-.44-.18-.92-.21-1.44-.03-.43-.04-.9-.04-1.4,0-.23,0-.48.02-.73-.35.41-.72.81-1.12,1.21-.64.63-1.3,1.16-1.97,1.57-.7.43-1.38.67-2.03.71-.83.05-1.49-.14-1.96-.58-.46-.43-.72-1.1-.77-1.98-.11-1.73.4-3.46,1.51-5.14.55-.82,1.19-1.62,1.9-2.38.71-.76,1.49-1.41,2.32-1.92.84-.52,1.7-.81,2.55-.86.55-.03,1.07.11,1.53.42,0,0,0-.02,0-.03.06-.19.15-.44.28-.74.41-1.07.89-2.21,1.41-3.4.53-1.21,1-2.18,1.41-2.96.53-.96,1.07-1.45,1.65-1.49.24-.01.78.06.84,1,.06.93-.63,3.02-2.11,6.39-.1.2-.25.53-.47,1.02l-.78,1.69c-.3.64-.6,1.27-.91,1.91-.31.63-.58,1.19-.83,1.68-.23.46-.4.79-.51,1-.16.88-.27,1.74-.35,2.55-.07.8-.08,1.65-.03,2.5.02.31.05.6.1.86.04.22.1.39.2.5.08.08.17.15.26.2.11.05.24.11.39.15.34.06.57.3.59.66.03.52-.3.86-.87.89h0s-.03,0-.05,0ZM98.72,72.33l-.08.97c-.05.58-.07,1.1-.07,1.58s.01.95.04,1.37c.03.48.1.93.2,1.34.1.37.26.69.49.94.1.11.27.23.49.35.25.14.39.16.45.15h0c.35-.02.34-.15.33-.28,0-.06,0-.11-.15-.14-.22-.06-.37-.13-.51-.19-.16-.08-.31-.19-.44-.33-.17-.2-.29-.46-.34-.79-.05-.28-.08-.59-.1-.92-.05-.88-.05-1.75.03-2.59.08-.84.2-1.74.36-2.65l.03-.09c.11-.19.28-.52.52-1.01.25-.49.52-1.05.83-1.68.31-.63.61-1.26.9-1.89l.78-1.69c.22-.49.38-.84.47-1.02,1.76-4.03,2.09-5.55,2.06-6.11-.03-.48-.17-.46-.23-.46-.35.02-.76.43-1.18,1.19-.41.76-.87,1.71-1.39,2.91-.51,1.18-.99,2.31-1.4,3.38-.12.29-.21.52-.27.7-.07.2-.11.34-.15.43l-.15.37-.3-.27c-.44-.39-.9-.56-1.45-.53-.75.05-1.52.31-2.28.78-.78.49-1.52,1.1-2.2,1.83-.69.74-1.31,1.51-1.84,2.3-1.04,1.57-1.51,3.18-1.42,4.79.04.73.24,1.27.59,1.6.34.32.86.47,1.53.42.55-.03,1.14-.24,1.76-.62.63-.39,1.26-.89,1.87-1.49.62-.61,1.17-1.24,1.64-1.86l.59-.78ZM92.52,76.76c-.33,0-.61-.1-.83-.29-.31-.27-.48-.72-.52-1.34-.1-1.57.34-3.11,1.3-4.58.47-.66,1.02-1.35,1.66-2.05.64-.72,1.34-1.34,2.07-1.86.75-.53,1.47-.82,2.12-.86.69-.04,1.25.22,1.66.79l.09.12-.04.14c-.22.7-.42,1.4-.58,2.09-.17.69-.31,1.4-.43,2.11l-.04.1c-.35.57-.74,1.14-1.16,1.7-.42.55-.89,1.09-1.39,1.62-.56.6-1.18,1.12-1.82,1.56-.68.46-1.34.72-1.98.76-.04,0-.07,0-.11,0ZM98.46,66.35s-.07,0-.1,0c-.55.03-1.16.29-1.83.75-.7.49-1.36,1.09-1.97,1.77-.62.69-1.16,1.36-1.61,1.99-.88,1.35-1.29,2.77-1.2,4.22.03.46.14.78.32.95.12.11.3.16.52.15h0c.53-.03,1.1-.25,1.69-.66.61-.42,1.19-.92,1.73-1.48.49-.51.94-1.04,1.35-1.57.4-.52.77-1.06,1.1-1.6.12-.7.26-1.4.43-2.09.16-.65.34-1.32.55-1.98-.26-.3-.58-.45-.98-.45ZM101.16,66.68l-.53-.2c.33-1.24.74-2.49,1.22-3.7.48-1.22,1.11-2.41,1.86-3.52l.51.24c-.3,1.04-.72,2.17-1.24,3.36-.52,1.19-1.13,2.48-1.81,3.83Z"/>
    <path class="cls-1" d="M103.93,76.97c-.57,0-1.03-.15-1.35-.44-.35-.31-.55-.78-.59-1.4-.05-.76.09-1.6.4-2.5.31-.88.75-1.75,1.32-2.61.57-.85,1.22-1.64,1.94-2.36.73-.72,1.5-1.32,2.27-1.76.8-.46,1.6-.72,2.37-.77,1.45-.09,2.27.63,2.36,2.06.03.46,0,.81-.12,1.07-.13.31-.37.5-.68.52-.26.01-.48-.04-.63-.18-.15-.13-.23-.32-.25-.57-.01-.19.02-.38.1-.57.04-.11.06-.24.05-.38,0-.16-.06-.28-.15-.36-.14-.12-.4-.17-.76-.15-1.15.07-2.59,1.08-4.27,3.01-.4.47-.8,1.03-1.18,1.67-.37.63-.68,1.28-.91,1.91-.22.63-.32,1.19-.28,1.72.01.19.06.32.16.4.1.08.27.11.5.1.47-.03.98-.21,1.52-.55.57-.36,1.06-.72,1.47-1.07.83-.71,1.68-1.67,2.52-2.85.14-.18.3-.4.51-.68.21-.28.44-.58.71-.93.16-.18.35-.27.57-.29.23-.01.43.04.58.17.14.13.22.31.24.55v.09s-1.09,1.87-1.09,1.87c-.67,1.13-.99,2.04-.95,2.7.03.42.2.49.5.47.38-.02.81-.15,1.26-.39.48-.25.86-.48,1.16-.71.61-.46,1.25-1.03,1.91-1.7.64-.65,1.28-1.33,1.91-2.04.13-.14.31-.22.55-.24.25-.02.45.04.58.16.08.07.19.21.2.44.02.3-.13.63-.45.99-.76.86-1.45,1.61-2.07,2.22-.62.63-1.23,1.15-1.8,1.56-.37.25-.83.51-1.42.81-.59.29-1.27.47-2.03.51-1.13.07-1.82-.56-1.89-1.76,0-.08,0-.15,0-.22-1.57,1.53-3.1,2.35-4.57,2.44-.08,0-.15,0-.22,0ZM110.54,65.7c-.07,0-.14,0-.21,0-.68.04-1.39.27-2.12.69-.73.42-1.46.99-2.15,1.67-.69.68-1.31,1.45-1.86,2.27-.54.82-.97,1.65-1.26,2.48-.29.82-.42,1.59-.37,2.27.03.46.16.8.4,1.01.25.22.63.32,1.16.29h0c1.49-.09,3.1-1.05,4.77-2.87l.48.28c-.07.23-.1.54-.08.91.06.89.46,1.27,1.28,1.22.68-.04,1.29-.2,1.81-.45.56-.29,1-.54,1.35-.77.54-.38,1.12-.89,1.72-1.49.61-.61,1.29-1.35,2.05-2.2.27-.3.31-.48.31-.58,0-.05-.05-.08-.18-.07-.08,0-.13.02-.16.05-.63.71-1.28,1.41-1.93,2.06-.68.69-1.34,1.28-1.97,1.75-.32.25-.73.5-1.25.77-.53.27-1.03.42-1.49.45-.68.04-1.07-.33-1.11-1.01-.05-.8.29-1.79,1.02-3.03l1-1.71s-.02-.07-.04-.08c-.02-.02-.09-.03-.16-.03-.07,0-.11.03-.16.08-.25.33-.49.63-.69.91-.21.28-.38.5-.51.68-.86,1.21-1.74,2.21-2.61,2.94-.43.37-.94.75-1.54,1.12-.62.39-1.22.6-1.79.63-.38.02-.67-.05-.89-.23-.22-.18-.35-.45-.37-.81-.04-.61.06-1.24.31-1.95.24-.67.56-1.34.95-2.01.4-.67.81-1.26,1.23-1.76,1.82-2.08,3.35-3.13,4.67-3.21.52-.03.91.07,1.17.3.21.18.32.44.34.75.01.22-.02.43-.09.63-.05.12-.07.22-.06.32,0,.05.01.14.06.18.03.03.11.05.22.04.06,0,.13-.02.19-.16.05-.12.1-.36.07-.82-.07-1.05-.54-1.53-1.54-1.53Z"/>
    <path class="cls-1" d="M127.6,77.94c-.21,0-.44-.08-.71-.23-.27-.15-.47-.3-.62-.46-.3-.33-.51-.73-.62-1.19-.11-.43-.18-.92-.21-1.44-.03-.43-.04-.9-.04-1.4,0-.23,0-.47.02-.73-.34.41-.72.81-1.12,1.21-.64.63-1.3,1.16-1.97,1.57-.7.43-1.38.67-2.03.71-.84.05-1.5-.14-1.96-.58-.46-.43-.72-1.1-.77-1.98-.11-1.74.4-3.47,1.51-5.14.55-.82,1.18-1.62,1.9-2.38.72-.77,1.5-1.42,2.32-1.93.84-.52,1.7-.81,2.55-.86.55-.03,1.06.11,1.53.42,0,0,0-.01,0-.02.06-.2.16-.44.29-.74.41-1.05.88-2.2,1.41-3.4.54-1.22,1-2.19,1.42-2.96.53-.96,1.07-1.45,1.65-1.49.23-.01.78.05.84,1,.06.93-.63,3.02-2.11,6.39-.09.2-.25.53-.47,1.02-.22.49-.48,1.06-.78,1.69-.3.64-.6,1.27-.9,1.9l-.27.56c-.2.41-.39.79-.56,1.13-.23.46-.4.79-.51.99-.16.89-.28,1.74-.35,2.55-.07.8-.08,1.65-.03,2.5.02.33.05.61.1.86.04.22.11.39.2.5.08.08.17.15.26.2.11.05.24.11.39.15.34.06.57.31.59.66.01.25-.04.84-.87.89h0s-.04,0-.05,0ZM126.1,70.66l-.08.97c-.05.57-.07,1.1-.07,1.58s.01.95.04,1.37c.03.49.1.94.2,1.34.09.37.26.69.49.94.1.11.27.23.49.35.25.14.38.16.45.15h0c.35-.02.34-.15.33-.28,0-.06,0-.11-.16-.14-.21-.06-.37-.13-.51-.19-.16-.08-.3-.19-.44-.33-.18-.21-.29-.47-.34-.79-.05-.27-.08-.58-.1-.92-.05-.88-.05-1.75.03-2.59.07-.84.2-1.74.36-2.65l.03-.09c.11-.19.28-.52.52-1.01.17-.34.36-.72.55-1.12l.27-.56c.3-.63.6-1.26.9-1.89.3-.64.56-1.2.78-1.69.23-.5.38-.83.47-1.03,1.76-4.02,2.09-5.55,2.06-6.11-.03-.48-.18-.47-.23-.46-.35.02-.76.43-1.18,1.19-.41.75-.86,1.71-1.39,2.91-.52,1.19-.99,2.33-1.4,3.38-.12.29-.21.53-.27.71-.06.2-.11.34-.15.43l-.16.37-.3-.26c-.44-.39-.91-.56-1.44-.53-.76.05-1.53.31-2.29.78-.77.48-1.52,1.09-2.2,1.83-.69.74-1.31,1.51-1.84,2.3-1.04,1.57-1.51,3.18-1.42,4.79.04.73.24,1.27.59,1.6.34.32.86.46,1.53.43.55-.03,1.15-.24,1.76-.63.63-.39,1.26-.89,1.87-1.49.62-.62,1.16-1.23,1.64-1.86l.59-.77ZM119.9,75.08c-.33,0-.61-.1-.83-.29-.31-.27-.48-.71-.52-1.34-.1-1.57.34-3.11,1.3-4.58.47-.66,1.02-1.35,1.66-2.05.64-.72,1.34-1.34,2.07-1.86.75-.53,1.46-.82,2.12-.86.7-.04,1.25.22,1.66.79l.09.12-.04.14c-.22.71-.42,1.41-.58,2.09-.17.7-.31,1.41-.43,2.11l-.04.1c-.35.57-.74,1.14-1.16,1.7-.41.54-.88,1.08-1.39,1.62-.56.59-1.18,1.12-1.83,1.56-.67.46-1.34.72-1.98.76h0s-.07,0-.11,0ZM125.84,64.67s-.07,0-.1,0c-.55.03-1.17.29-1.83.76-.7.49-1.36,1.08-1.97,1.77-.62.69-1.16,1.36-1.61,1.99-.88,1.35-1.29,2.77-1.2,4.22.03.46.14.78.32.95.13.11.31.16.52.14h0c.53-.03,1.1-.25,1.69-.66.61-.42,1.2-.92,1.73-1.49.5-.52.95-1.05,1.35-1.57.4-.52.77-1.06,1.1-1.6.12-.69.26-1.4.43-2.09.16-.64.34-1.31.55-1.98-.26-.3-.58-.45-.98-.45ZM128.54,65l-.53-.2c.33-1.24.74-2.49,1.22-3.7.48-1.22,1.1-2.4,1.86-3.52l.51.24c-.3,1.03-.72,2.16-1.24,3.36-.52,1.19-1.14,2.48-1.81,3.83Z"/>
  </g>
  <g>
    <path class="cls-1" d="M16.78,82.14c-1.07.07-1.93-.2-2.58-.79-.65-.59-1-1.41-1.07-2.47-.11-1.82.63-3.86,2.22-6.11.82-1.15,1.68-2.04,2.56-2.67.89-.63,1.73-.97,2.54-1.02.71-.04,1.27.16,1.68.63.41.46.64,1.06.69,1.79.03.45,0,.9-.1,1.38-.06.33-.21.5-.46.52-.38.02-.59-.18-.61-.6-.01-.18,0-.42.06-.72.05-.3.07-.59.05-.87-.05-.81-.47-1.19-1.26-1.14-.42.03-.93.21-1.5.55-.58.34-1.15.78-1.7,1.31-.56.53-1.04,1.13-1.45,1.78-1.24,1.92-1.82,3.61-1.73,5.07.1,1.68.91,2.48,2.43,2.38.95-.06,1.85-.26,2.71-.61.85-.34,1.84-1.02,2.95-2.02.7-.61,1.21-1.1,1.56-1.47.34-.37.71-.75,1.12-1.17.12-.09.23-.13.33-.14s.2.02.31.07c.1.05.16.14.17.26.01.22-.17.55-.55.98-.32.35-.67.71-1.03,1.09-.36.38-.94.9-1.73,1.58-.85.74-1.76,1.31-2.74,1.72-.98.4-1.94.64-2.87.69Z"/>
    <path class="cls-1" d="M27.98,80.88c-1.64.1-2.51-.77-2.63-2.61-.05-.85.1-1.75.45-2.71.35-.95.83-1.85,1.45-2.69.62-.84,1.32-1.54,2.11-2.09.79-.56,1.61-.86,2.46-.91.75-.05,1.31.2,1.69.75.38.54.59,1.16.63,1.85.06.91-.07,1.85-.38,2.81-.31.96-.75,1.86-1.33,2.69-.58.83-1.25,1.51-2.01,2.04-.76.53-1.57.83-2.45.88ZM27.89,79.91c.12,0,.19-.02.21-.04.78-.15,1.49-.48,2.13-.98.64-.51,1.18-1.12,1.64-1.85.46-.73.79-1.51,1-2.33.21-.83.3-1.63.25-2.42-.03-.47-.18-.82-.46-1.07-.28-.25-.62-.36-1.03-.33-.59.04-1.19.32-1.82.84-.63.52-1.21,1.18-1.74,1.96-.53.78-.95,1.6-1.27,2.44-.31.84-.45,1.59-.41,2.23.07,1.09.57,1.61,1.5,1.55Z"/>
    <path class="cls-1" d="M34.73,81.65c-.35.02-.53-.13-.55-.45,0-.02.1-.28.32-.78.21-.5.51-1.24.9-2.22l1.35-3.34c.55-1.35.93-2.42,1.16-3.21.23-.78.33-1.29.32-1.51-.02-.32.13-.5.46-.52.32-.02.5.13.51.46.02.26-.05.68-.18,1.25-.14.57-.37,1.29-.7,2.19l-1.33,3.61c3.9-5.6,6.93-8.47,9.07-8.6.4-.03.73.12.97.44.24.32.38.68.4,1.09.06.97-.53,2.71-1.78,5.2,1.01-1.16,2.03-2.32,3.06-3.49,1.04-1.17,2.08-2.32,3.13-3.47.27-.28.49-.43.68-.44.24-.02.45.09.63.31.18.22.27.47.29.73.01.2-.06.46-.23.77-.24.46-.45,1.01-.63,1.64-.19.63-.4,1.34-.63,2.13-.27.89-.46,1.66-.56,2.32-.1.65-.14,1.19-.12,1.59.03.51.17.87.43,1.09.26.22.51.32.75.3.42-.03.88-.17,1.37-.42.49-.25.9-.5,1.21-.74.62-.47,1.27-1.04,1.94-1.72.67-.68,1.31-1.36,1.91-2.05.08-.09.2-.13.36-.14.3-.02.46.09.48.34.01.22-.11.48-.38.78-.76.86-1.45,1.6-2.06,2.21-.61.62-1.2,1.12-1.77,1.52-.37.25-.82.51-1.35.78-.53.28-1.11.43-1.74.47-.59.04-1.09-.11-1.51-.46-.42-.34-.66-1.11-.73-2.3-.03-.47.02-1.02.14-1.67s.32-1.38.6-2.19l1.38-3.92-4.08,4.64c-.48.54-.86.99-1.16,1.35-.3.37-.55.67-.74.9-.36.43-.67.85-.94,1.25-.27.4-.5.75-.68,1.05-.13.23-.28.35-.47.36-.34.02-.52-.11-.54-.39-.04-.63.44-2.11,1.44-4.45.99-2.34,1.48-3.73,1.45-4.17-.01-.2-.24-.29-.69-.26-1.8.11-4.83,3.25-9.08,9.42-.35.57-.94,1.43-1.76,2.57-.06.09-.15.13-.3.14Z"/>
    <path class="cls-1" d="M61.92,78.8c-1.64.1-2.52-.77-2.63-2.61-.05-.85.1-1.75.44-2.71.35-.95.83-1.85,1.45-2.69.62-.84,1.32-1.54,2.11-2.09.79-.56,1.61-.86,2.46-.91.75-.05,1.31.2,1.69.75.38.55.59,1.16.63,1.85.06.91-.07,1.85-.38,2.81s-.75,1.86-1.33,2.69c-.58.83-1.25,1.51-2.01,2.04-.76.53-1.57.83-2.44.88ZM61.83,77.83c.12,0,.19-.02.21-.05.78-.15,1.49-.48,2.13-.98.64-.51,1.18-1.12,1.64-1.85.45-.73.79-1.51,1-2.33.21-.83.3-1.64.25-2.43-.03-.47-.18-.82-.46-1.07s-.62-.36-1.03-.33c-.59.04-1.2.32-1.82.84-.63.53-1.21,1.18-1.74,1.96-.53.78-.95,1.6-1.27,2.44-.31.84-.45,1.59-.41,2.23.07,1.09.56,1.61,1.49,1.55Z"/>
    <path class="cls-1" d="M79.4,80.6c-.16,0-.36-.05-.61-.19-.24-.14-.43-.28-.56-.41-.26-.29-.45-.64-.55-1.06-.11-.42-.18-.88-.21-1.39-.03-.42-.04-.89-.04-1.38s.02-1.03.07-1.61c-.49.64-1.05,1.27-1.67,1.89-.62.62-1.26,1.13-1.92,1.53-.66.41-1.29.63-1.89.67-1.52.09-2.33-.67-2.43-2.29-.1-1.68.39-3.33,1.47-4.97.54-.81,1.16-1.58,1.87-2.34.7-.76,1.46-1.38,2.26-1.88.8-.49,1.61-.77,2.42-.82.61-.04,1.16.16,1.65.6.04-.08.08-.22.14-.4.06-.19.15-.43.28-.72.42-1.08.89-2.21,1.41-3.39.52-1.18.98-2.16,1.4-2.93.48-.86.94-1.31,1.41-1.34.32-.02.5.22.53.73.05.87-.64,2.96-2.09,6.25-.09.19-.25.53-.47,1.02-.22.49-.48,1.06-.78,1.69-.3.64-.6,1.27-.9,1.9-.31.63-.58,1.19-.83,1.68-.24.49-.42.83-.53,1.02-.17.92-.29,1.8-.36,2.63s-.08,1.68-.03,2.54c.02.32.05.62.1.89s.14.49.27.64c.11.11.23.21.35.27.13.06.27.12.44.17.25.04.38.18.39.4.02.36-.18.56-.6.58ZM71.75,77.75c.59-.04,1.2-.27,1.83-.71.63-.43,1.23-.94,1.78-1.52.5-.52.95-1.05,1.37-1.59.41-.54.8-1.1,1.15-1.67.12-.72.26-1.42.43-2.13.17-.7.37-1.4.59-2.11-.35-.49-.83-.71-1.41-.68-.61.04-1.27.31-1.98.81-.71.5-1.39,1.1-2.02,1.82-.64.71-1.18,1.38-1.63,2.02-.93,1.42-1.35,2.89-1.25,4.4.06.95.44,1.41,1.15,1.36ZM80.05,67.82c.69-1.36,1.29-2.63,1.81-3.81.52-1.18.93-2.28,1.23-3.32-.74,1.1-1.35,2.26-1.83,3.47s-.88,2.43-1.21,3.67Z"/>
    <path class="cls-1" d="M83.23,77.99c-.57.03-.98-.05-1.25-.26-.27-.21-.41-.53-.44-.98-.03-.43.07-1.01.29-1.77.22-.76.51-1.57.87-2.45.36-.88.75-1.71,1.17-2.51s.83-1.46,1.23-1.98c.41-.52.74-.79,1-.81.36-.02.56.13.58.45.01.2-.14.6-.45,1.18-.31.59-.65,1.2-1.02,1.83-.15.23-.35.55-.61.95-.26.4-.51.78-.75,1.13-.24.35-.4.59-.47.71-.18.32-.37.83-.55,1.53-.2.7-.29,1.23-.27,1.6,0,.16.05.28.13.36.08.08.25.11.51.09.5-.03,1.06-.23,1.67-.59.61-.36,1.22-.81,1.84-1.35.62-.53,1.2-1.08,1.74-1.64.54-.56,1.01-1.05,1.39-1.46.08-.09.19-.13.36-.14.3-.02.46.09.48.34.01.22-.11.48-.38.78-.51.58-.99,1.1-1.43,1.55-.44.45-.86.85-1.27,1.2-.64.52-1.35,1.02-2.13,1.47-.79.45-1.53.7-2.24.75ZM87.63,65.38c-.34.02-.53-.14-.55-.48,0-.1.05-.29.18-.57.12-.28.27-.57.43-.87.17-.3.3-.49.39-.6.32-.41.57-.67.76-.78.19-.11.36-.17.52-.18.42-.03.65.15.67.54,0,.14-.07.31-.23.52-.16.2-.35.39-.56.57-.31.22-.5.4-.58.52l-.61.98c-.02.08-.06.16-.12.23-.07.08-.17.12-.31.13Z"/>
    <path class="cls-1" d="M100.25,79.32c-.16,0-.36-.05-.61-.19-.24-.14-.43-.27-.56-.41-.26-.29-.45-.64-.55-1.06s-.18-.88-.21-1.39c-.03-.42-.04-.89-.04-1.38s.02-1.03.07-1.61c-.49.64-1.05,1.27-1.67,1.89-.62.62-1.26,1.13-1.92,1.53-.66.41-1.29.63-1.89.67-1.52.09-2.33-.67-2.43-2.29-.1-1.68.39-3.33,1.46-4.97.54-.81,1.16-1.58,1.87-2.34.7-.75,1.46-1.38,2.26-1.88.8-.49,1.61-.77,2.42-.82.61-.04,1.16.16,1.65.6.04-.09.08-.22.14-.4.06-.19.15-.43.28-.72.42-1.08.89-2.21,1.41-3.39.52-1.18.98-2.16,1.4-2.93.48-.86.95-1.31,1.41-1.34.32-.02.5.22.53.73.05.87-.64,2.96-2.09,6.25-.09.19-.25.53-.47,1.02-.23.49-.49,1.05-.78,1.69-.3.64-.6,1.27-.9,1.9-.31.63-.58,1.19-.83,1.68-.24.49-.42.83-.53,1.02-.17.92-.29,1.8-.36,2.63-.07.83-.08,1.68-.03,2.54.02.32.05.62.1.89.05.27.13.49.27.64.11.11.23.21.35.27.13.06.27.12.44.17.25.04.38.18.39.4.02.36-.18.56-.6.59ZM92.61,76.47c.59-.04,1.2-.27,1.83-.71.63-.43,1.23-.94,1.78-1.52.5-.52.95-1.05,1.37-1.59.41-.54.8-1.1,1.15-1.67.12-.72.26-1.43.43-2.13.17-.7.37-1.4.59-2.11-.36-.49-.83-.71-1.41-.68-.61.04-1.27.31-1.98.81-.71.5-1.39,1.1-2.02,1.82-.64.71-1.18,1.38-1.63,2.02-.93,1.42-1.35,2.89-1.25,4.4.06.95.44,1.41,1.15,1.36ZM100.9,66.55c.69-1.36,1.29-2.63,1.81-3.81.52-1.18.93-2.28,1.23-3.32-.75,1.1-1.36,2.26-1.83,3.47-.47,1.21-.88,2.43-1.21,3.67Z"/>
    <path class="cls-1" d="M104.14,76.68c-1.17.07-1.8-.45-1.86-1.56-.05-.73.09-1.52.39-2.39.3-.86.73-1.71,1.29-2.55.56-.84,1.19-1.61,1.9-2.31.71-.7,1.45-1.28,2.21-1.72.76-.44,1.51-.69,2.24-.73,1.29-.08,1.98.52,2.06,1.79.05.83-.13,1.26-.53,1.28-.36.02-.56-.14-.58-.48,0-.14.02-.29.08-.45.06-.16.09-.33.08-.51-.03-.56-.44-.83-1.21-.78-1.24.08-2.72,1.11-4.47,3.11-.42.49-.82,1.07-1.21,1.72-.39.65-.7,1.31-.93,1.96-.23.66-.33,1.27-.3,1.83.03.55.35.8.96.77.53-.03,1.08-.23,1.66-.59.58-.36,1.08-.73,1.5-1.1.85-.72,1.7-1.69,2.56-2.9.13-.17.3-.4.51-.67.21-.28.44-.58.7-.92.1-.11.21-.17.36-.17.32-.02.5.13.51.46l-1.05,1.8c-.7,1.18-1.03,2.14-.98,2.87.03.53.3.77.81.74.43-.03.88-.17,1.38-.42s.89-.5,1.2-.74c.62-.47,1.27-1.04,1.94-1.72.67-.68,1.31-1.36,1.92-2.05.08-.09.19-.13.35-.14.3-.02.47.09.48.34.01.22-.11.48-.38.78-.76.86-1.45,1.6-2.06,2.21-.61.62-1.2,1.13-1.77,1.53-.37.25-.83.51-1.38.79-.55.28-1.19.44-1.92.48-.99.06-1.52-.44-1.59-1.49-.02-.4,0-.74.09-1.01-1.73,1.88-3.39,2.86-4.97,2.96Z"/>
    <path class="cls-1" d="M127.63,77.65c-.16,0-.36-.05-.61-.19-.24-.14-.43-.28-.56-.41-.26-.29-.45-.64-.55-1.06-.11-.42-.18-.88-.21-1.39-.03-.42-.04-.89-.04-1.38s.02-1.03.07-1.61c-.49.64-1.05,1.27-1.67,1.89-.62.62-1.26,1.13-1.92,1.53-.66.41-1.29.63-1.89.67-1.52.09-2.32-.67-2.42-2.29-.1-1.68.38-3.33,1.46-4.96.54-.81,1.16-1.59,1.87-2.34.71-.75,1.46-1.38,2.26-1.88.8-.5,1.61-.77,2.42-.82.61-.04,1.16.16,1.65.6.04-.08.08-.22.14-.4.06-.19.15-.43.28-.72.42-1.08.89-2.21,1.41-3.39.52-1.18.99-2.16,1.41-2.93.48-.86.94-1.31,1.41-1.34.32-.02.5.22.53.73.05.87-.64,2.96-2.09,6.25-.09.19-.25.53-.47,1.02-.22.49-.48,1.06-.78,1.69-.3.64-.6,1.27-.9,1.9-.31.63-.58,1.19-.83,1.68-.24.49-.42.83-.53,1.02-.17.92-.29,1.8-.36,2.63s-.08,1.68-.03,2.54c.02.32.05.62.1.89.05.27.14.49.27.64.11.11.23.21.35.27.13.06.27.12.44.17.25.05.38.18.39.4.02.36-.18.56-.6.58ZM119.99,74.79c.59-.04,1.2-.27,1.83-.71.63-.43,1.23-.94,1.78-1.52.5-.52.95-1.05,1.37-1.59.41-.54.8-1.1,1.15-1.67.12-.72.26-1.42.43-2.13.17-.7.37-1.4.59-2.11-.35-.49-.83-.71-1.41-.68-.61.04-1.27.31-1.98.81-.71.5-1.39,1.1-2.02,1.81-.64.71-1.18,1.38-1.63,2.02-.93,1.42-1.35,2.89-1.25,4.4.06.95.44,1.41,1.15,1.36ZM128.28,64.87c.69-1.36,1.29-2.63,1.81-3.81.52-1.18.93-2.29,1.23-3.32-.74,1.1-1.35,2.26-1.83,3.47s-.88,2.43-1.21,3.67Z"/>
  </g>
  <g>
    <path class="cls-1" d="M23.27,118.1c-.93,0-1.98-.44-2.1-2.35-.08-1.27.12-2.53.59-3.75.14-.42.45-.5.63-.51.52-.04.85.24.88.72,0,.12-.02.25-.07.43l-.14.45c-.11.38-.2.78-.25,1.18-.06.41-.07.83-.04,1.29.04.63.16.82.2.88.1.11.2.16.33.15.46-.03,1.02-.29,1.66-.79.66-.5,1.34-1.3,2.02-2.37.49-.77,1.01-1.7,1.52-2.75.53-1.08,1.09-2.31,1.66-3.65.51-1.19,1-2.41,1.46-3.64-.1.13-.2.26-.3.39-.53.66-1.1,1.28-1.69,1.84-1.65,1.6-3.04,2.42-4.24,2.49-1.06.07-2.32-.31-2.45-2.45-.03-.57.04-1.27.21-2.07.16-.78.41-1.7.74-2.72.05-.17.05-.27.05-.31,0-.16.02-.32.09-.49.29-.74.79-1.59,1.5-2.53.21-.26.41-.4.62-.41.21-.02.37.04.51.16.18.15.27.4.29.75v.09s-.04.08-.04.08c-1.75,2.95-2.57,5.43-2.46,7.36.05.87.43.97.78.94.68-.04,1.64-.6,2.86-1.67.89-.77,1.72-1.65,2.45-2.6s1.4-1.95,1.99-2.97c.41-.71.73-1.31.96-1.82.3-.67.4-.93.42-1.04.14-.55.43-.68.65-.69.26-.01.47.03.63.15.12.09.26.26.28.57.01.21-.05.52-.19.98-.13.43-.29.93-.47,1.51-.27.83-.66,1.96-1.2,3.44-.52,1.44-1.19,3.17-1.98,5.13-.99,2.46-2,4.52-3,6.11-.75,1.22-1.6,2.26-2.53,3.11-.96.87-1.86,1.34-2.67,1.39h0c-.06,0-.13,0-.19,0ZM22.48,112.06s-.11-.07-.18.13c-.44,1.16-.63,2.34-.56,3.52.1,1.7,1.03,1.84,1.68,1.8h0c.68-.04,1.46-.46,2.32-1.24.89-.8,1.71-1.81,2.43-2.98.99-1.57,1.98-3.59,2.96-6.02.79-1.95,1.45-3.67,1.97-5.11.53-1.47.92-2.59,1.19-3.41.19-.58.34-1.08.47-1.5.16-.53.17-.72.16-.78,0-.07-.02-.12-.05-.14-.02-.01-.08-.04-.25-.04-.02,0-.09.07-.14.27-.06.21-.21.59-.45,1.13-.24.53-.56,1.14-.98,1.87-.6,1.04-1.28,2.06-2.03,3.03-.76.98-1.61,1.88-2.53,2.68-1.33,1.17-2.38,1.76-3.2,1.81-.48.03-1.3-.13-1.38-1.48-.12-2.03.71-4.59,2.49-7.61-.02-.19-.08-.25-.09-.27,0,0-.02-.02-.09-.02h0s-.07.02-.2.19c-.67.89-1.15,1.69-1.42,2.39-.04.1-.06.17-.05.24.01.14-.01.31-.08.51-.32,1.01-.57,1.91-.73,2.67-.16.75-.22,1.39-.2,1.92.09,1.38.68,1.99,1.84,1.92,1.04-.06,2.34-.85,3.88-2.33.57-.54,1.12-1.14,1.63-1.78.5-.63.99-1.3,1.45-1.97l.51.25c-.64,1.87-1.36,3.74-2.14,5.55-.57,1.35-1.14,2.59-1.67,3.68-.52,1.07-1.05,2.01-1.55,2.81-.72,1.13-1.45,1.97-2.16,2.51-.74.57-1.39.87-1.98.9-.28.03-.59-.1-.8-.34-.2-.22-.31-.61-.35-1.22-.03-.49-.02-.95.04-1.4.05-.44.14-.87.27-1.28l.14-.45c.04-.14.05-.2.05-.23,0-.1-.01-.18-.21-.18Z"/>
    <path class="cls-1" d="M48.07,106.91c-1,0-1.82-.29-2.46-.87-.7-.64-1.09-1.53-1.16-2.66-.11-1.88.65-3.99,2.27-6.29.84-1.16,1.72-2.09,2.63-2.74.93-.66,1.83-1.02,2.69-1.08.78-.05,1.44.2,1.91.72.46.51.71,1.17.76,1.96.03.46,0,.95-.1,1.45-.12.62-.5.74-.72.75-.53.03-.88-.28-.92-.87-.01-.22,0-.48.07-.79.05-.27.07-.54.05-.8-.04-.65-.32-.91-.96-.87-.38.02-.84.19-1.38.51-.56.33-1.11.75-1.65,1.27-.54.52-1.01,1.1-1.4,1.73-1.21,1.87-1.77,3.51-1.69,4.9.05.8.27,1.38.65,1.72.34.3.83.44,1.48.4.92-.06,1.8-.26,2.62-.59.81-.33,1.78-.99,2.87-1.97.68-.6,1.19-1.08,1.54-1.45.34-.37.72-.75,1.12-1.17.19-.15.36-.22.51-.23.16,0,.31.03.46.1.19.1.31.28.32.5.02.31-.18.69-.62,1.19l-.09.1c-.3.32-.61.65-.94,1-.36.38-.94.9-1.75,1.6-.87.76-1.82,1.36-2.82,1.77-1.01.41-2,.65-2.96.71h0c-.11,0-.22.01-.33.01ZM52.24,93.84c-.05,0-.11,0-.16,0-.75.05-1.56.37-2.39.97-.86.62-1.7,1.49-2.5,2.6-1.54,2.19-2.27,4.18-2.16,5.92.06.97.39,1.73.98,2.27.58.53,1.37.77,2.36.71.89-.05,1.83-.28,2.78-.67.94-.39,1.84-.95,2.67-1.67.8-.69,1.36-1.21,1.71-1.57.33-.34.64-.67.94-.99l.09-.09c.46-.52.47-.73.47-.76-.07-.06-.12-.08-.17-.07-.02,0-.07.01-.17.08-.37.38-.74.77-1.08,1.13-.35.38-.88.88-1.57,1.49-1.16,1.04-2.15,1.72-3.04,2.07-.87.36-1.81.57-2.8.63-.79.05-1.43-.13-1.89-.54-.5-.44-.79-1.15-.84-2.11-.09-1.51.5-3.28,1.78-5.24.41-.66.91-1.28,1.49-1.83.57-.55,1.16-1,1.76-1.35.61-.36,1.16-.56,1.63-.59.96-.04,1.5.44,1.56,1.41.02.31,0,.62-.06.94-.05.26-.07.49-.06.65.02.33.15.34.31.33.05,0,.14,0,.19-.28.09-.45.12-.89.09-1.3-.04-.67-.24-1.2-.62-1.61-.32-.36-.75-.54-1.29-.54Z"/>
    <path class="cls-1" d="M58.19,106.18c-.56,0-1-.14-1.33-.41-.37-.31-.58-.79-.62-1.43-.05-.76.09-1.6.4-2.5.31-.88.75-1.76,1.32-2.61.57-.85,1.22-1.64,1.94-2.35.73-.73,1.5-1.32,2.27-1.76.8-.46,1.6-.72,2.37-.77.73-.04,1.29.11,1.69.46.4.35.63.89.67,1.6.04.64-.05,1.08-.28,1.34-.13.15-.31.24-.52.25-.26.01-.47-.04-.63-.18-.15-.13-.23-.32-.25-.57-.01-.19.02-.38.1-.57.05-.11.07-.24.06-.39-.01-.18-.05-.57-.9-.51-1.15.07-2.59,1.08-4.27,3.01-.39.46-.79,1.03-1.17,1.67-.37.63-.68,1.27-.91,1.91-.22.62-.32,1.19-.29,1.72.01.19.06.32.16.39.1.08.28.12.5.1.47-.03.98-.21,1.52-.55.55-.34,1.05-.7,1.47-1.07.83-.71,1.68-1.67,2.52-2.85.14-.18.31-.4.51-.68.21-.28.44-.59.71-.93.16-.18.35-.27.57-.29.23-.02.43.04.58.17.14.13.22.31.24.55v.09s-1.09,1.87-1.09,1.87c-.67,1.13-.98,2.04-.94,2.7.02.37.17.5.5.48.38-.02.81-.16,1.26-.39.47-.24.86-.48,1.16-.71.61-.46,1.25-1.02,1.91-1.7.66-.67,1.3-1.36,1.9-2.04.13-.14.31-.22.55-.24.71-.05.77.45.78.6.02.31-.13.63-.45.99-.76.86-1.46,1.61-2.07,2.23-.61.62-1.22,1.14-1.8,1.56-.38.26-.85.52-1.42.81-.59.29-1.27.47-2.03.51-1.15.07-1.82-.55-1.89-1.76,0-.08,0-.15,0-.22-1.57,1.53-3.1,2.35-4.56,2.44h0c-.08,0-.15,0-.22,0ZM64.78,94.91c-.07,0-.13,0-.2,0-.68.04-1.39.27-2.11.69-.73.42-1.46.98-2.15,1.67-.69.69-1.32,1.45-1.86,2.27-.54.81-.97,1.65-1.26,2.48-.29.82-.41,1.59-.37,2.27.03.47.17.82.41,1.02.25.21.63.3,1.14.27,1.49-.09,3.1-1.06,4.78-2.87l.48.28c-.08.24-.1.54-.08.91.06.89.45,1.27,1.28,1.22.68-.04,1.29-.2,1.81-.45.54-.27,1-.53,1.35-.77.55-.39,1.13-.89,1.72-1.49.61-.61,1.29-1.35,2.05-2.2.28-.31.31-.5.31-.58-.01-.05-.04-.08-.18-.07-.08,0-.14.02-.16.05-.61.69-1.26,1.38-1.93,2.06-.69.7-1.33,1.27-1.97,1.75-.32.25-.74.51-1.24.77-.53.27-1.03.42-1.49.45-.65.05-1.07-.33-1.11-1.01-.05-.8.29-1.79,1.02-3.03l1-1.71s-.02-.07-.04-.08c-.03-.02-.09-.03-.16-.03-.07,0-.11.03-.16.08-.25.33-.49.63-.69.91-.21.28-.38.5-.51.68-.86,1.21-1.74,2.2-2.6,2.94-.44.39-.96.76-1.54,1.12-.62.39-1.22.6-1.79.63-.38.02-.67-.05-.89-.23-.23-.18-.35-.45-.37-.81-.04-.61.07-1.26.32-1.95.24-.67.56-1.35.95-2.01.4-.67.82-1.27,1.23-1.76,1.82-2.08,3.35-3.13,4.67-3.21,1.29-.07,1.48.63,1.51,1.05.01.23-.02.44-.1.63-.04.11-.06.22-.06.32,0,.05.01.14.06.18.03.03.11.05.21.04.06,0,.1-.02.13-.06.05-.06.17-.27.13-.92-.03-.55-.19-.96-.47-1.21-.25-.22-.61-.33-1.08-.33Z"/>
    <path class="cls-1" d="M75.02,105.66c-.89,0-1.61-.28-2.14-.83-.58-.59-.9-1.41-.97-2.43-.04-.71.03-1.57.22-2.58.33-1.67.94-3.66,1.82-5.89.7-1.71,1.46-3.39,2.26-5.02.82-1.65,1.74-3.3,2.73-4.9,2.21-3.57,3.14-4.03,3.64-4.06.81-.06.98.35,1,.59.02.31-.16.89-1.6,2.87l-1.97,2.71c-1.68,2.31-3.05,4.68-4.06,7.05-1.01,2.37-1.78,4.76-2.28,7.09-.13.65-.19,1.27-.15,1.82.11,1.81,1.04,1.97,1.72,1.92.4-.02.8-.17,1.2-.43.72-.43.78-.45.88-.46.21-.02.36.07.45.14.15.13.23.33.25.62.02.39-.11.72-.39.96-.73.49-1.51.76-2.35.81h0c-.09,0-.19,0-.28,0ZM82.72,80.52s-.07,0-.1,0c-.33.02-1.18.54-3.19,3.79-.99,1.59-1.9,3.22-2.71,4.85-.8,1.61-1.55,3.29-2.25,4.98-.87,2.2-1.47,4.15-1.79,5.79-.18.96-.25,1.78-.21,2.44.06.89.32,1.57.8,2.06.47.49,1.12.7,1.97.65h0c.73-.04,1.41-.28,2.03-.69.12-.1.18-.25.17-.47,0-.15-.04-.21-.06-.22-.03,0-.26.14-.64.37-.48.31-.98.49-1.47.52-.98.06-2.19-.32-2.33-2.46-.04-.61.02-1.27.16-1.98.51-2.37,1.28-4.8,2.31-7.2,1.03-2.41,2.41-4.82,4.12-7.16l1.97-2.71c1.4-1.93,1.49-2.4,1.49-2.5,0,0-.05-.06-.28-.06Z"/>
    <path class="cls-1" d="M80.47,104.84c-.52,0-.9-.11-1.19-.33-.33-.26-.52-.66-.55-1.19-.03-.46.07-1.07.3-1.86.23-.78.52-1.61.88-2.48.36-.86.75-1.71,1.18-2.53.44-.83.85-1.49,1.26-2.02.47-.6.86-.9,1.21-.92.27-.02.49.04.64.18.14.13.23.31.24.54.01.18-.03.49-.48,1.34-.31.59-.65,1.2-1.02,1.84l-.62.96c-.26.4-.51.78-.76,1.13-.23.34-.39.57-.46.69-.17.3-.35.79-.52,1.46-.19.67-.28,1.18-.26,1.51,0,.12.04.16.05.18,0,0,.04.01.17.01.03,0,.07,0,.12,0,.46-.03.97-.21,1.54-.55.58-.34,1.18-.79,1.79-1.32.6-.51,1.18-1.06,1.73-1.63.54-.56,1-1.04,1.38-1.45.08-.1.25-.22.55-.23.24-.01.44.04.58.16.08.07.19.21.2.44.02.3-.13.63-.45.99-.52.59-1,1.11-1.44,1.56-.44.45-.87.86-1.29,1.22-.65.54-1.38,1.04-2.18,1.5-.83.48-1.62.74-2.37.78h0c-.09,0-.18,0-.26,0ZM83.66,94.08s-.03,0-.05,0c-.06,0-.3.07-.79.7-.39.5-.8,1.15-1.21,1.94-.42.8-.81,1.64-1.16,2.49-.35.84-.64,1.66-.86,2.42-.21.72-.3,1.28-.28,1.67.02.36.13.61.33.77.21.16.56.23,1.06.2h0c.65-.04,1.36-.28,2.11-.71.77-.45,1.47-.93,2.09-1.44.4-.35.82-.75,1.24-1.18.43-.44.9-.96,1.42-1.54.28-.32.31-.5.31-.58,0-.05-.04-.07-.17-.07-.08,0-.14.02-.16.05-.39.42-.85.9-1.4,1.47-.56.58-1.15,1.14-1.76,1.66-.64.55-1.27,1.02-1.88,1.38-.65.38-1.25.6-1.8.63-.36.02-.59-.03-.73-.17-.13-.13-.2-.31-.21-.55-.02-.4.07-.95.28-1.69.19-.72.37-1.25.57-1.59.07-.13.24-.37.49-.73.24-.35.49-.72.75-1.12l.61-.95c.36-.62.69-1.22,1-1.81.4-.77.41-1,.41-1.03,0-.04-.01-.11-.05-.14-.03-.03-.09-.04-.17-.04ZM85.06,92.23c-.21,0-.39-.06-.52-.18-.15-.13-.23-.33-.25-.58,0-.11.01-.28.2-.71.13-.29.28-.58.44-.89.18-.32.32-.53.43-.65.33-.42.6-.7.82-.83.24-.14.45-.21.65-.23.58-.04.94.27.98.8.01.22-.08.45-.29.71-.17.21-.36.41-.6.61-.4.29-.5.42-.51.45l-.59.95c-.03.11-.09.22-.18.31-.08.09-.23.21-.51.22-.03,0-.05,0-.08,0ZM86.94,88.73s-.04,0-.07,0c-.11,0-.24.06-.39.14-.09.05-.29.22-.68.71-.07.08-.17.22-.37.56-.16.29-.3.57-.42.84-.15.34-.15.44-.15.44,0,.09.03.15.06.18s.09.04.19.03h0c.08,0,.11-.02.11-.03.03-.04.05-.07.06-.1l.04-.1.61-.98c.09-.16.3-.35.65-.6.19-.16.36-.33.5-.51.13-.16.17-.27.17-.32,0-.15-.04-.27-.3-.27Z"/>
    <path class="cls-1" d="M97.7,106.17c-.21,0-.44-.08-.71-.23-.26-.15-.47-.3-.62-.46-.3-.33-.51-.73-.62-1.19-.11-.44-.18-.92-.21-1.44-.03-.43-.04-.9-.04-1.4,0-.23,0-.47.02-.73-.35.41-.72.81-1.12,1.21-.64.63-1.3,1.16-1.97,1.58-.7.43-1.38.67-2.03.71-.83.05-1.5-.14-1.96-.58-.46-.43-.72-1.1-.77-1.98-.11-1.73.4-3.46,1.51-5.14.55-.83,1.19-1.63,1.9-2.38.72-.77,1.5-1.41,2.32-1.92.84-.52,1.7-.81,2.55-.86.55-.04,1.06.11,1.53.42,0,0,0-.02,0-.02.06-.2.16-.44.29-.74.41-1.07.89-2.21,1.41-3.4.51-1.17.99-2.17,1.41-2.96.53-.96,1.07-1.45,1.65-1.49.22-.01.78.05.83,1,.06.93-.63,3.01-2.11,6.39-.1.2-.25.54-.47,1.02-.21.47-.46,1-.74,1.61l-.04.09c-.3.64-.6,1.27-.91,1.9-.31.63-.58,1.19-.83,1.68-.23.46-.4.8-.51,1-.16.89-.28,1.75-.34,2.55-.07.8-.08,1.64-.03,2.5.02.31.05.6.1.86.04.22.1.39.2.5.08.08.17.15.26.2.11.05.24.11.39.15.34.06.57.3.59.66.02.25-.04.45-.18.6-.15.17-.38.27-.69.29h0s-.03,0-.05,0ZM96.2,98.9l-.08.97c-.05.57-.07,1.1-.07,1.58s.01.95.04,1.37c.03.48.1.93.2,1.33.1.37.26.69.49.94.11.11.27.23.49.35.25.14.39.15.45.16h0c.14,0,.25-.04.3-.09.03-.04.05-.1.04-.19,0-.06,0-.11-.15-.14-.22-.06-.38-.13-.51-.2-.16-.08-.3-.19-.44-.33-.17-.2-.29-.46-.34-.79-.05-.28-.08-.59-.1-.92-.05-.89-.05-1.76.03-2.59.07-.83.19-1.72.36-2.65l.03-.09c.11-.19.28-.52.52-1.01.25-.49.52-1.05.83-1.68.31-.63.61-1.26.9-1.89l.04-.09c.28-.6.53-1.13.74-1.6.23-.49.38-.84.47-1.03,1.76-4.03,2.09-5.55,2.06-6.11-.03-.47-.18-.46-.23-.46-.35.02-.76.43-1.18,1.19-.41.77-.88,1.75-1.39,2.91-.51,1.18-.99,2.31-1.4,3.38-.12.29-.21.52-.27.7-.06.2-.11.34-.15.43l-.15.37-.3-.27c-.44-.39-.9-.56-1.45-.53-.75.05-1.52.31-2.28.78-.78.48-1.52,1.1-2.2,1.83-.68.73-1.3,1.5-1.84,2.3-1.04,1.57-1.52,3.18-1.42,4.79.04.73.24,1.27.59,1.6.34.32.86.47,1.53.42.55-.03,1.14-.24,1.76-.62.63-.39,1.25-.89,1.87-1.49.61-.61,1.17-1.23,1.64-1.86l.59-.77ZM90,103.32c-.33,0-.61-.1-.83-.29-.3-.27-.48-.72-.52-1.34-.1-1.57.34-3.11,1.3-4.58.47-.66,1.02-1.35,1.66-2.05.65-.73,1.35-1.35,2.07-1.86.75-.53,1.46-.82,2.12-.86.69-.04,1.25.23,1.66.79l.09.12-.04.14c-.22.7-.42,1.4-.58,2.09-.16.68-.3,1.37-.43,2.11l-.04.1c-.36.58-.75,1.15-1.16,1.7-.41.53-.87,1.08-1.38,1.62-.57.6-1.19,1.12-1.83,1.56-.67.46-1.34.72-1.97.76h0s-.07,0-.11,0ZM95.94,92.91s-.07,0-.1,0c-.55.03-1.17.29-1.83.76-.69.48-1.35,1.08-1.97,1.77-.62.69-1.16,1.36-1.61,1.99-.88,1.35-1.29,2.77-1.2,4.22.03.46.14.78.32.95.13.11.31.16.52.15h0c.53-.03,1.1-.25,1.68-.66.61-.42,1.2-.92,1.74-1.48.5-.52.95-1.05,1.34-1.57.39-.51.76-1.05,1.1-1.6.12-.74.26-1.42.43-2.09.16-.65.34-1.32.55-1.98-.26-.3-.58-.45-.98-.45ZM98.64,93.24l-.53-.2c.33-1.23.74-2.48,1.22-3.7.48-1.22,1.1-2.4,1.86-3.52l.51.24c-.3,1.04-.72,2.17-1.24,3.36-.52,1.18-1.13,2.47-1.81,3.83Z"/>
    <path class="cls-1" d="M103.06,103.68c-.83,0-1.52-.29-2.05-.85-.57-.61-.88-1.38-.94-2.29-.09-1.5.32-3.1,1.22-4.74.23-.44.51-.88.85-1.35.32-.44.67-.87,1.07-1.3.59-.65,1.22-1.19,1.88-1.62.68-.45,1.37-.7,2.05-.74.58-.04,1.05.09,1.38.36.33.28.52.71.56,1.27.08,1.31-.6,2.55-2.03,3.68-1.3,1-2.64,1.55-3.97,1.63-.25.01-.46.01-.65-.01-.09,0-.18-.02-.27-.04-.13.34-.25.76-.35,1.25-.12.59-.17,1.1-.14,1.52.07,1.17.59,1.69,1.58,1.63.91-.05,1.77-.27,2.57-.64.8-.37,1.76-1.06,2.85-2.04.68-.6,1.19-1.08,1.54-1.45.34-.37.72-.75,1.12-1.17.2-.15.36-.22.51-.23.17,0,.31.03.46.1.19.1.31.28.32.5.02.31-.18.69-.62,1.19-.33.35-.67.72-1.04,1.09-.36.38-.94.9-1.75,1.6-.87.76-1.84,1.37-2.89,1.83-1.06.46-2.08.72-3.04.78h0c-.08,0-.15,0-.23,0ZM107.34,91.36c-.05,0-.11,0-.17,0-.58.04-1.17.26-1.77.65-.61.4-1.21.92-1.77,1.53-.38.41-.72.82-1.03,1.24-.32.45-.59.86-.81,1.28-.85,1.55-1.24,3.04-1.15,4.43.05.79.31,1.42.79,1.93.46.49,1.07.72,1.83.67.89-.05,1.85-.3,2.84-.73.99-.44,1.92-1.02,2.74-1.74.8-.69,1.37-1.2,1.71-1.57.36-.38.7-.74,1.03-1.08.46-.52.47-.73.47-.76-.07-.06-.12-.07-.17-.07-.02,0-.08.01-.17.08-.37.38-.74.77-1.08,1.13-.35.38-.88.88-1.57,1.49-1.13,1.01-2.14,1.73-2.99,2.13-.86.4-1.79.64-2.78.7-.93.06-2.07-.27-2.19-2.17-.03-.47.02-1.03.15-1.67.13-.65.29-1.17.48-1.58l.1-.21.23.05c.13.03.28.05.44.07.16.02.33.02.55,0,1.21-.07,2.44-.58,3.65-1.51,1.27-1.01,1.88-2.08,1.81-3.19-.02-.4-.14-.69-.35-.87-.19-.15-.46-.23-.82-.23ZM102.74,96.78c-.14,0-.27-.02-.39-.05l-.35-.09.17-.32c.26-.5.56-.96.87-1.38.32-.43.73-.9,1.24-1.43,1.07-1.12,2.03-1.69,2.92-1.75.31-.02.56.05.73.2.15.13.23.32.25.55.05.87-.51,1.79-1.71,2.8-.53.43-1.09.78-1.69,1.03-.6.25-1.25.4-1.93.44h0s-.07,0-.1,0ZM107.3,92.33s-.04,0-.07,0c-.73.04-1.59.57-2.54,1.57-.48.51-.88.97-1.19,1.37-.21.29-.41.59-.6.92.58-.04,1.14-.18,1.65-.39.54-.23,1.06-.54,1.54-.94,1.04-.87,1.55-1.66,1.51-2.33,0-.08-.02-.13-.05-.16-.04-.04-.13-.06-.24-.06Z"/>
    <path class="cls-1" d="M115.66,112.14c-.5,0-.9-.13-1.22-.39-.36-.29-.56-.71-.59-1.24-.04-.7.17-1.33.65-1.9.44-.52,1.05-1.06,1.86-1.64.61-.42,1.41-1,2.42-1.72.98-.7,2.03-1.48,3.11-2.3.56-.43,1.04-.81,1.41-1.13.34-.29.67-.59,1.01-.91l.02-.25c0-.09,0-.14,0-.17-.04-.68-.26-1.3-.65-1.84-.34-.48-.76-.75-1.28-.82-1.47,1.91-2.54,2.82-3.35,2.87-.31.02-.57-.06-.76-.23-.21-.18-.33-.47-.35-.85-.03-.56.16-1.1.57-1.6.39-.48.89-.89,1.49-1.22.55-.31,1.1-.5,1.62-.58,1.7-2.47,2.51-4.5,2.42-6.02-.04-.71-.35-1.01-1.05-.96-1.19.07-2.94,1.33-5.18,3.74-.16.19-.48.55-.95,1.09-.46.53-.98,1.14-1.55,1.81-.57.68-1.12,1.32-1.65,1.95-.14.16-.28.31-.42.46-.19.2-.41.32-.65.33-.2.01-.37-.04-.5-.15-.13-.12-.21-.29-.22-.52-.01-.26.07-.5.24-.72.08-.11.4-.48.65-.77l2.75-3.11c.46-.52.84-.95,1.14-1.29,1.22-1.38,2.36-2.43,3.4-3.16,1.07-.75,2.12-1.16,3.12-1.22,1.53-.09,2.37.72,2.47,2.33.12,1.92-.66,4.09-2.3,6.46.64.28,1.18.71,1.61,1.3.39.53.66,1.09.8,1.68.46-.42.81-.74,1.06-.96l.68-.62c.14-.13.27-.25.39-.37.12-.13.32-.33.58-.59.25-.25.64-.64,1.16-1.17l.06-.06c.19-.15.35-.22.51-.23.14,0,.3.03.46.1.2.1.31.28.33.5.02.31-.18.69-.62,1.19-.43.44-.92.94-1.49,1.51-.61.6-1.16,1.13-1.69,1.62-.53.49-.98.88-1.37,1.2-.23,1.65-1.06,3.41-2.47,5.23-.42.54-.89,1.07-1.41,1.59-.5.5-1.05,1.01-1.62,1.5-.67.54-1.4,1.03-2.19,1.49-.81.46-1.57.72-2.26.76h0c-.06,0-.12,0-.18,0ZM122.13,97.23h.15c.76.06,1.39.42,1.86,1.08.45.64.7,1.35.75,2.13,0,.03,0,.11,0,.21l-.03.52-.08.08c-.37.35-.74.68-1.11,1-.38.33-.86.72-1.44,1.15-1.09.83-2.14,1.61-3.13,2.31-1.01.72-1.82,1.3-2.43,1.72-.76.54-1.35,1.06-1.75,1.54-.38.45-.55.94-.51,1.49.02.37.15.64.38.83.24.2.58.28,1.01.26h0c.6-.04,1.28-.27,2.01-.69.77-.44,1.48-.92,2.11-1.43.55-.48,1.09-.97,1.58-1.46.5-.5.95-1.01,1.36-1.53,1.37-1.79,2.17-3.49,2.37-5.07v-.11s.1-.07.1-.07c.4-.32.87-.73,1.43-1.25.56-.51,1.11-1.04,1.68-1.6.56-.56,1.06-1.06,1.48-1.49.46-.52.47-.72.47-.76-.08-.06-.14-.08-.18-.07-.02,0-.08.01-.17.08l-.03.03c-.52.53-.91.92-1.16,1.18-.25.26-.45.45-.57.58-.13.14-.27.27-.42.4l-.67.62c-.28.25-.69.62-1.23,1.12l-.63.57-.06-.55c-.08-.68-.34-1.32-.79-1.93-.44-.61-1-1.01-1.69-1.23l-.38-.12.23-.32c1.71-2.38,2.52-4.53,2.41-6.4-.08-1.3-.67-1.87-1.86-1.79-.89.06-1.85.43-2.83,1.12-1,.7-2.1,1.72-3.27,3.04-.33.37-.71.8-1.17,1.32l-2.75,3.11c-.39.44-.58.67-.61.72-.1.13-.14.24-.13.36,0,.1.03.12.03.12,0,0,.03.01.08,0,.09,0,.18-.05.27-.15.14-.15.28-.3.41-.45.52-.62,1.08-1.26,1.64-1.94.57-.68,1.09-1.28,1.55-1.82.47-.54.78-.9.95-1.1,2.39-2.56,4.21-3.85,5.57-3.93,1-.06,1.59.47,1.66,1.5.1,1.68-.77,3.86-2.59,6.49l-.08.11h-.13c-.48.06-1,.24-1.53.54-.53.3-.98.66-1.32,1.08-.33.39-.47.79-.45,1.2,0,.15.04.35.16.45.07.07.19.09.35.08.44-.03,1.32-.53,3.03-2.77l.09-.12ZM115.98,111.15c-.34,0-.61-.08-.8-.25-.17-.15-.27-.37-.29-.64-.02-.31.12-.67.42-1.1.28-.4.82-.86,1.58-1.37l1.68-1.16c.48-.33.92-.65,1.34-.95.41-.3.84-.62,1.29-.97.43-.34.93-.74,1.5-1.2l.07-.05c.36-.3.64-.54.83-.7.19-.17.36-.31.5-.42l.75-.6-.29.91c-.34,1.05-1.01,2.23-2,3.53-.82,1.03-1.75,2.02-2.78,2.95-1.47,1.3-2.66,1.96-3.65,2.02h0s-.1,0-.14,0ZM123.57,103.52c-.13.11-.28.23-.44.37l-.07.06c-.57.46-1.08.86-1.5,1.2-.45.35-.89.69-1.31.98-.42.3-.87.62-1.34.95l-1.68,1.17c-.71.47-1.19.88-1.44,1.22-.28.39-.32.62-.32.74,0,.17.07.23.09.25.09.08.27.12.52.1h0c.84-.05,1.95-.68,3.3-1.88,1.01-.9,1.92-1.87,2.71-2.88.62-.81,1.11-1.58,1.47-2.29ZM118.87,100.03l-.06-.45c-.05-.42.15-.85.6-1.29.4-.4.96-.75,1.64-1.05l.78-.34-.41.74c-.18.32-.47.68-.91,1.12-.44.44-.85.77-1.25,1.03l-.38.24Z"/>
  </g>
  <g>
    <path class="cls-1" d="M23.44,117.8c-1.24.08-1.9-.62-1.99-2.07-.08-1.23.11-2.45.57-3.63.07-.21.19-.31.38-.33.36-.02.56.13.58.45,0,.08-.02.19-.06.32-.04.13-.09.29-.14.45-.12.39-.2.81-.26,1.23-.06.43-.07.88-.04,1.34.03.52.12.88.28,1.05.15.17.34.25.56.24.53-.03,1.13-.31,1.82-.85.69-.53,1.39-1.34,2.09-2.44.5-.78,1.01-1.71,1.54-2.78.52-1.07,1.08-2.29,1.67-3.67.78-1.81,1.49-3.65,2.13-5.52-.47.68-.95,1.34-1.46,1.98-.51.64-1.06,1.24-1.66,1.81-1.59,1.54-2.94,2.34-4.06,2.41-1.34.08-2.05-.65-2.15-2.19-.03-.54.03-1.21.2-1.99.16-.78.41-1.68.73-2.7.05-.16.07-.3.06-.42,0-.11.02-.23.07-.35.28-.73.77-1.55,1.46-2.47.15-.19.29-.29.41-.3.3-.02.47.2.5.64-1.79,3.01-2.62,5.52-2.49,7.53.05.85.41,1.25,1.08,1.21.75-.05,1.76-.63,3.03-1.74.91-.79,1.74-1.67,2.49-2.64s1.42-1.97,2.01-3c.4-.7.73-1.31.97-1.84.24-.53.39-.89.44-1.08.08-.31.22-.47.4-.48.39-.02.59.12.61.45,0,.16-.05.46-.17.88-.13.43-.29.93-.47,1.51-.27.85-.67,1.99-1.19,3.43-.52,1.43-1.18,3.14-1.97,5.12-.99,2.46-1.98,4.48-2.98,6.06-.74,1.2-1.57,2.22-2.48,3.05-.91.83-1.74,1.27-2.49,1.31Z"/>
    <path class="cls-1" d="M48.38,106.62c-1.07.07-1.93-.2-2.58-.79-.65-.59-1-1.41-1.07-2.47-.11-1.82.63-3.86,2.22-6.11.82-1.15,1.68-2.04,2.56-2.67.89-.63,1.73-.97,2.54-1.02.71-.04,1.27.17,1.68.63.42.46.64,1.06.69,1.79.03.44,0,.9-.1,1.37-.06.33-.21.5-.46.52-.38.02-.59-.18-.62-.6,0-.18,0-.42.06-.72.05-.3.07-.59.06-.87-.05-.81-.47-1.19-1.26-1.14-.42.03-.93.21-1.5.55-.58.34-1.15.77-1.7,1.3-.56.53-1.04,1.13-1.45,1.78-1.24,1.92-1.82,3.62-1.73,5.07.1,1.68.91,2.48,2.43,2.38.95-.06,1.85-.26,2.71-.61.85-.34,1.84-1.02,2.95-2.02.69-.61,1.21-1.1,1.55-1.47.34-.36.72-.75,1.12-1.17.11-.09.22-.13.32-.14s.2.02.31.07c.1.05.16.14.17.26.01.22-.17.55-.55.98-.32.34-.67.71-1.03,1.09-.36.38-.94.9-1.73,1.58-.85.74-1.76,1.32-2.74,1.72-.98.4-1.94.64-2.87.69Z"/>
    <path class="cls-1" d="M58.39,105.88c-1.17.07-1.8-.45-1.86-1.56-.05-.73.08-1.52.39-2.39.3-.86.73-1.71,1.29-2.55.56-.84,1.19-1.61,1.9-2.31.71-.7,1.45-1.28,2.21-1.72.76-.44,1.51-.69,2.24-.73,1.3-.08,1.98.52,2.06,1.79.05.83-.12,1.26-.53,1.28-.36.02-.55-.14-.58-.48,0-.14.02-.29.08-.45.06-.16.09-.33.08-.51-.04-.57-.44-.83-1.21-.78-1.23.08-2.72,1.11-4.47,3.11-.42.49-.82,1.07-1.2,1.72-.39.66-.7,1.31-.93,1.96-.24.66-.33,1.27-.3,1.83.03.54.35.8.96.76.53-.03,1.08-.23,1.65-.59.58-.36,1.08-.73,1.5-1.1.85-.72,1.7-1.69,2.56-2.9.13-.17.3-.4.51-.67s.44-.58.7-.93c.1-.11.21-.17.35-.17.32-.02.5.13.51.46l-1.05,1.8c-.7,1.18-1.03,2.14-.98,2.87.03.53.3.77.81.74.42-.03.88-.17,1.38-.42.49-.25.89-.5,1.2-.74.62-.47,1.27-1.04,1.94-1.72.67-.68,1.31-1.36,1.91-2.05.08-.09.19-.13.36-.14.3-.02.46.09.48.34.01.22-.11.49-.38.78-.76.86-1.45,1.6-2.06,2.21-.61.62-1.2,1.12-1.77,1.52-.37.25-.83.51-1.38.79-.55.28-1.19.44-1.92.48-.99.06-1.52-.43-1.59-1.49-.03-.41,0-.74.09-1.01-1.73,1.88-3.39,2.86-4.97,2.96Z"/>
    <path class="cls-1" d="M75.27,105.37c-.93.06-1.66-.19-2.19-.74-.53-.54-.83-1.29-.89-2.25-.04-.69.03-1.52.21-2.51.32-1.67.93-3.61,1.81-5.84.69-1.69,1.44-3.35,2.25-5,.81-1.65,1.72-3.27,2.72-4.88,1.59-2.57,2.73-3.88,3.42-3.93.45-.03.68.08.69.32.02.35-.49,1.24-1.54,2.69l-1.97,2.71c-1.7,2.34-3.07,4.71-4.09,7.11-1.02,2.4-1.79,4.78-2.29,7.15-.14.68-.19,1.31-.16,1.9.1,1.54.77,2.27,2.02,2.19.45-.03.89-.18,1.34-.48.45-.27.7-.41.74-.41.24-.02.37.15.4.49.02.3-.08.54-.29.72-.66.45-1.39.7-2.18.74Z"/>
    <path class="cls-1" d="M80.71,104.55c-.57.04-.98-.05-1.25-.26-.27-.21-.41-.53-.44-.98-.03-.42.07-1.01.29-1.77.22-.75.51-1.57.87-2.45.36-.88.75-1.71,1.17-2.51.42-.8.83-1.46,1.24-1.98.4-.52.74-.79,1-.81.36-.02.56.13.58.45.01.2-.14.6-.45,1.18-.31.59-.65,1.2-1.02,1.83-.15.23-.35.55-.61.95-.26.4-.51.78-.75,1.13-.24.35-.4.59-.47.71-.18.32-.37.83-.55,1.53-.2.7-.29,1.24-.27,1.6,0,.16.05.28.13.36.08.08.25.11.51.09.5-.03,1.06-.23,1.67-.59.61-.36,1.22-.81,1.84-1.35.62-.53,1.2-1.08,1.74-1.64.54-.56,1.01-1.05,1.39-1.46.08-.09.19-.13.36-.14.3-.02.46.09.48.33.01.22-.11.49-.38.79-.51.58-.99,1.1-1.43,1.55s-.86.86-1.27,1.21c-.64.52-1.35,1.02-2.13,1.47-.79.45-1.53.7-2.24.74ZM85.12,91.94c-.34.02-.52-.14-.55-.49,0-.1.05-.29.18-.57.12-.28.27-.57.43-.87.16-.29.3-.49.39-.6.32-.41.57-.67.76-.78.19-.11.36-.17.52-.18.43-.03.65.15.67.54,0,.14-.07.31-.23.52-.16.21-.35.39-.56.57-.31.22-.5.4-.58.52l-.61.98c-.02.08-.06.16-.12.24-.07.08-.17.12-.31.13Z"/>
    <path class="cls-1" d="M97.73,105.88c-.16,0-.36-.05-.61-.19-.24-.14-.43-.27-.56-.41-.26-.29-.45-.64-.55-1.06s-.18-.88-.21-1.39c-.03-.43-.04-.89-.04-1.39s.02-1.03.07-1.6c-.49.64-1.05,1.27-1.67,1.89-.62.62-1.26,1.13-1.92,1.53-.66.4-1.29.63-1.89.66-1.52.09-2.33-.67-2.43-2.29-.1-1.68.39-3.33,1.47-4.97.54-.8,1.16-1.59,1.87-2.34.7-.75,1.46-1.38,2.26-1.88.8-.5,1.61-.77,2.42-.82.61-.04,1.16.16,1.65.6.04-.09.08-.22.14-.41.06-.19.15-.43.28-.71.42-1.08.89-2.21,1.41-3.39.52-1.18.99-2.16,1.4-2.94.48-.86.95-1.3,1.41-1.33.32-.02.5.22.53.73.05.87-.64,2.95-2.09,6.25-.09.19-.25.53-.47,1.02s-.49,1.05-.78,1.69c-.3.64-.6,1.27-.9,1.9-.31.63-.58,1.19-.83,1.68-.24.49-.42.83-.53,1.02-.17.92-.29,1.8-.36,2.63-.07.83-.08,1.68-.03,2.55.02.32.05.62.1.89.05.27.13.48.27.64.11.11.22.21.35.27.13.06.27.12.44.17.25.04.38.18.39.4.02.36-.18.56-.6.59ZM90.09,103.03c.59-.04,1.2-.27,1.83-.71.63-.43,1.23-.94,1.78-1.52.5-.52.95-1.05,1.36-1.59s.8-1.1,1.15-1.67c.12-.72.26-1.43.43-2.13.17-.7.37-1.4.59-2.11-.36-.49-.83-.71-1.41-.68-.61.04-1.27.3-1.98.81-.71.5-1.38,1.1-2.02,1.81s-1.18,1.38-1.63,2.02c-.93,1.42-1.35,2.89-1.25,4.4.06.95.44,1.41,1.15,1.36ZM98.38,93.11c.69-1.36,1.29-2.64,1.81-3.82.52-1.18.93-2.29,1.23-3.32-.75,1.1-1.36,2.26-1.83,3.47-.48,1.21-.88,2.43-1.21,3.67Z"/>
    <path class="cls-1" d="M103.27,103.38c-.85.05-1.53-.2-2.06-.76-.52-.56-.81-1.26-.86-2.11-.09-1.46.31-2.98,1.18-4.58.24-.44.51-.88.83-1.31s.67-.86,1.05-1.27c.57-.62,1.18-1.15,1.82-1.57.64-.43,1.28-.66,1.91-.7,1.03-.06,1.58.39,1.64,1.36.08,1.22-.57,2.36-1.92,3.44-1.26.97-2.53,1.49-3.81,1.57-.22.01-.42.01-.59,0-.17-.02-.33-.04-.48-.08-.18.4-.33.91-.46,1.52-.13.62-.17,1.15-.15,1.59.08,1.33.71,1.97,1.88,1.9.95-.06,1.84-.28,2.67-.67.83-.39,1.8-1.08,2.92-2.08.69-.61,1.21-1.1,1.55-1.47.34-.36.72-.75,1.12-1.17.12-.09.22-.13.32-.14s.2.02.31.07c.1.05.16.14.17.26.01.22-.17.55-.55.98-.32.35-.67.71-1.03,1.09-.36.38-.94.9-1.73,1.58-.85.74-1.79,1.34-2.82,1.79-1.03.45-2.01.7-2.94.76ZM102.82,96.49c.65-.04,1.26-.18,1.83-.42.57-.24,1.11-.57,1.62-.98,1.12-.94,1.66-1.8,1.61-2.56-.02-.34-.24-.51-.67-.48-.81.05-1.72.6-2.73,1.66-.5.52-.9.99-1.21,1.4-.31.42-.59.87-.85,1.35.12.03.26.05.4.04Z"/>
    <path class="cls-1" d="M115.83,111.85c-.5.03-.91-.08-1.21-.32-.3-.24-.46-.59-.49-1.04-.04-.63.15-1.19.58-1.69s1.03-1.03,1.81-1.59c.6-.42,1.41-.99,2.42-1.71,1.01-.72,2.05-1.49,3.12-2.31.58-.44,1.06-.82,1.42-1.14.37-.32.73-.65,1.1-1,0-.14.02-.27.02-.37,0-.1,0-.17,0-.21-.04-.73-.28-1.39-.7-1.98s-.97-.91-1.64-.95c-1.43,1.88-2.51,2.84-3.24,2.88-.5.03-.78-.24-.81-.8-.03-.49.14-.95.51-1.4.37-.45.84-.84,1.41-1.15.57-.32,1.12-.5,1.64-.56,1.79-2.59,2.64-4.69,2.54-6.31-.05-.87-.5-1.28-1.35-1.23-1.28.08-3.07,1.36-5.37,3.83-.17.19-.49.56-.95,1.09-.47.53-.98,1.14-1.55,1.82s-1.12,1.32-1.65,1.94c-.13.15-.27.3-.41.45-.14.15-.3.23-.46.24-.26.02-.4-.12-.42-.4,0-.18.05-.36.18-.53.06-.08.27-.34.64-.75s.8-.91,1.3-1.47c.49-.56.98-1.11,1.45-1.65.48-.53.86-.98,1.17-1.32,1.18-1.33,2.28-2.36,3.32-3.08,1.03-.72,2.02-1.11,2.98-1.17,1.35-.08,2.08.6,2.17,2.06.12,1.94-.7,4.13-2.46,6.58.74.24,1.35.68,1.83,1.33.48.65.76,1.34.84,2.07.65-.59,1.13-1.02,1.44-1.31.31-.28.53-.49.68-.62.14-.13.28-.26.4-.39.12-.13.31-.32.57-.58.26-.26.67-.67,1.22-1.23.12-.09.23-.13.33-.14s.2.02.31.07.16.14.17.27c.01.22-.17.55-.55.98-.42.43-.91.93-1.48,1.49-.56.56-1.12,1.1-1.68,1.61-.56.51-1.04.93-1.45,1.26-.2,1.64-1.01,3.37-2.42,5.21-.41.53-.88,1.05-1.38,1.56-.51.51-1.04,1-1.6,1.49-.66.53-1.38,1.01-2.15,1.46-.78.44-1.49.69-2.13.72ZM116.1,110.85c.91-.06,2.07-.7,3.48-1.95,1.02-.92,1.94-1.89,2.75-2.91.98-1.28,1.63-2.43,1.95-3.44-.13.11-.3.25-.49.41s-.47.4-.84.7c-.6.48-1.12.9-1.57,1.26-.45.35-.88.68-1.29.98-.42.3-.87.62-1.34.95-.48.33-1.04.72-1.68,1.17-.74.49-1.25.92-1.51,1.29-.26.37-.38.68-.37.92.03.44.33.65.92.61ZM119.1,99.55c.39-.25.79-.58,1.2-.99.41-.41.7-.76.86-1.06-.65.29-1.17.62-1.55.99-.38.38-.56.73-.51,1.05Z"/>
  </g>
</svg>