<?xml version="1.0" encoding="UTF-8"?>
<svg id="BASE" xmlns="http://www.w3.org/2000/svg" viewBox="0 0 166.02 93.05">
  <defs>
    <style>
      .cls-1 {
        fill: #fff;
        stroke-width: 0px;
      }
    </style>
  </defs>
  <g>
    <path class="cls-1" d="M21.69,32.88h-.03c-1.04,0-1.87-.32-2.46-.94-.59-.62-.89-1.45-.89-2.46,0-1.7.82-3.56,2.42-5.53.82-1,1.67-1.78,2.53-2.31.87-.54,1.7-.81,2.47-.81h.02c.72,0,1.28.26,1.68.76.38.49.57,1.1.57,1.81,0,.42-.06.86-.18,1.3-.14.55-.49.66-.69.63-.49,0-.78-.31-.78-.84,0-.19.04-.42.11-.71.06-.24.09-.49.09-.72,0-.59-.24-.84-.81-.84h0c-.34,0-.76.13-1.27.38-.52.26-1.04.61-1.56,1.04-.51.43-.97.92-1.36,1.47-1.2,1.61-1.81,3.06-1.81,4.32,0,1.38.56,2.02,1.79,2.03.01,0,.02,0,.03,0,.82,0,1.61-.13,2.36-.37.76-.25,1.66-.79,2.7-1.61.64-.49,1.14-.9,1.47-1.21.33-.31.69-.64,1.08-.99.18-.12.33-.18.48-.18.14,0,.28.04.41.12.17.1.26.27.26.47,0,.28-.2.61-.63,1.03-.32.3-.65.6-1,.92-.34.31-.89.75-1.67,1.34-.83.63-1.72,1.11-2.65,1.42-.92.31-1.82.47-2.68.47ZM25.73,21.34c-.68,0-1.42.25-2.2.73-.81.5-1.62,1.24-2.4,2.2-1.52,1.88-2.29,3.63-2.3,5.21,0,.88.25,1.58.74,2.1.49.52,1.2.78,2.09.78h0c.82.02,1.66-.15,2.54-.44.87-.29,1.71-.75,2.5-1.35.77-.58,1.3-1.01,1.64-1.31.35-.32.68-.62.99-.92.45-.44.47-.63.47-.66-.06-.05-.11-.07-.16-.07-.02,0-.07.01-.15.07-.36.32-.71.65-1.04.96-.35.32-.85.74-1.51,1.24-1.08.85-2.05,1.42-2.86,1.69-.8.27-1.65.4-2.52.4h-.03c-1.06,0-2.32-.45-2.31-2.55,0-1.37.65-2.92,1.91-4.62.41-.58.9-1.1,1.45-1.56.55-.46,1.11-.83,1.66-1.11.58-.29,1.07-.43,1.5-.43h0c.86,0,1.33.49,1.32,1.36,0,.28-.04.56-.11.84-.06.24-.09.44-.09.58,0,.29.11.32.26.32.05,0,.13,0,.19-.24.11-.4.16-.79.16-1.17,0-.6-.15-1.1-.46-1.49-.3-.38-.72-.56-1.28-.57h-.01Z"/>
    <path class="cls-1" d="M31.81,32.4h-.02c-1.13,0-2.48-.49-2.47-2.77,0-.8.2-1.65.58-2.51.38-.86.88-1.66,1.5-2.41.62-.74,1.33-1.35,2.09-1.82.77-.47,1.58-.71,2.39-.71h.02c.77,0,1.34.3,1.7.9.33.55.5,1.17.5,1.84,0,.85-.18,1.73-.52,2.6-.34.87-.81,1.68-1.39,2.41-.59.74-1.26,1.33-2,1.78-.75.46-1.55.69-2.37.69ZM31.79,31.89s.01,0,.02,0c.73,0,1.43-.21,2.1-.61.68-.41,1.31-.97,1.86-1.66.55-.69.99-1.45,1.32-2.27.32-.82.48-1.63.49-2.42,0-.58-.14-1.09-.42-1.57-.26-.43-.67-.65-1.26-.65-.71-.02-1.43.21-2.13.64-.71.44-1.37,1.01-1.96,1.71-.59.7-1.07,1.47-1.43,2.28-.35.8-.53,1.58-.54,2.31,0,1.53.61,2.24,1.96,2.25h0ZM31.77,31.53h0c-.5,0-.88-.16-1.14-.47-.25-.29-.37-.73-.37-1.28,0-.62.18-1.33.53-2.09.34-.76.78-1.49,1.32-2.18.54-.69,1.12-1.27,1.73-1.72.64-.46,1.25-.7,1.84-.7h0c.44,0,.8.15,1.09.44.29.29.43.69.43,1.17,0,.74-.13,1.5-.38,2.25-.25.75-.61,1.46-1.07,2.11-.47.65-1.02,1.2-1.65,1.63-.62.43-1.31.7-2.05.8-.08.03-.18.04-.27.04ZM35.66,23.61c-.47,0-.99.2-1.53.6-.57.42-1.12.96-1.63,1.62-.51.65-.93,1.35-1.25,2.07-.32.7-.48,1.33-.48,1.88,0,.43.08.75.25.94.16.19.4.28.75.28.02,0,.04,0,.05,0h.01s.09-.03.09-.03c.67-.08,1.3-.32,1.86-.71.58-.4,1.09-.91,1.52-1.51.43-.6.77-1.27,1-1.97.23-.7.35-1.4.35-2.09,0-.35-.09-.61-.28-.81-.19-.19-.42-.28-.72-.28h0Z"/>
    <path class="cls-1" d="M37.81,33.5c-.24.01-.42-.06-.55-.19-.12-.12-.19-.29-.18-.51,0-.08,0-.09.36-.8.22-.44.54-1.08.94-1.94l1.41-2.93c.57-1.18.98-2.12,1.22-2.8.31-.87.36-1.16.36-1.26,0-.22.06-.39.19-.51.12-.12.32-.17.51-.18.21,0,.39.06.51.19s.19.3.18.52c0,.27-.08.65-.25,1.19-.16.51-.41,1.15-.77,1.96l-.64,1.43c3.32-3.92,5.83-5.83,7.65-5.83h.01c.45,0,.82.2,1.06.57.23.35.34.73.34,1.15,0,.69-.35,1.7-1.06,3.08.55-.55,1.1-1.1,1.66-1.66,1-.99,2.01-1.97,3.02-2.94.32-.29.57-.43.81-.43.21,0,.52.08.76.43.18.25.26.53.26.82,0,.23-.1.5-.29.82-.23.39-.45.86-.64,1.39-.2.56-.44,1.19-.7,1.88-.29.78-.5,1.46-.63,2.02-.13.56-.19,1.03-.19,1.37,0,.38.08.66.25.82.17.16.33.25.48.25h0c.34,0,.73-.09,1.15-.28.45-.19.81-.39,1.08-.57.58-.37,1.19-.85,1.82-1.41.63-.56,1.25-1.14,1.84-1.73.12-.12.29-.18.51-.18.62,0,.67.45.67.59,0,.28-.15.56-.46.87-.72.71-1.39,1.35-2,1.88-.6.53-1.17.96-1.72,1.29-.36.21-.8.42-1.3.64-.53.23-1.11.34-1.7.34-.6,0-1.1-.19-1.5-.57-.41-.38-.61-1.14-.61-2.3,0-.44.08-.96.23-1.56.15-.59.38-1.26.68-1.97l.95-2.23-3,2.99c-.46.45-.83.83-1.13,1.14-.29.31-.53.56-.71.76-.34.35-.64.71-.91,1.05-.26.34-.49.64-.67.9-.21.33-.47.41-.65.41-.45,0-.72-.24-.72-.65,0-.61.52-1.93,1.58-4.03,1.3-2.57,1.52-3.32,1.53-3.54-.02,0-.11-.03-.34-.03h0c-1.06,0-3.4,1.36-8.53,7.85-.35.49-.94,1.24-1.74,2.22-.07.09-.21.2-.47.2ZM37.59,32.84s.02.08.03.1c.03.03.09.04.17.04h0s.06,0,.07,0c.8-.97,1.38-1.71,1.73-2.2,4.29-5.43,7.21-8.06,8.94-8.06.25,0,.43.03.57.09.19.09.3.25.3.44,0,.29-.17.99-1.58,3.79-1.26,2.49-1.52,3.44-1.53,3.8,0,.07,0,.12.21.13.07,0,.14-.06.22-.18.19-.27.42-.57.69-.92.28-.36.59-.72.94-1.09.18-.2.42-.45.72-.77.29-.31.67-.7,1.14-1.15l3.94-3.93.42.28-1.47,3.45c-.29.69-.51,1.33-.66,1.9-.14.55-.22,1.04-.22,1.43,0,1.24.24,1.73.44,1.92.31.29.73.45,1.18.43.52,0,1.01-.1,1.46-.3.48-.21.9-.42,1.24-.61.51-.31,1.07-.73,1.64-1.24.6-.53,1.26-1.16,1.98-1.86.27-.27.31-.43.31-.5-.01-.05-.05-.07-.15-.07-.08,0-.13.02-.15.03-.6.59-1.22,1.18-1.86,1.74-.65.58-1.28,1.07-1.88,1.46-.3.21-.68.41-1.17.62-.49.21-.93.32-1.37.32-.29,0-.57-.13-.84-.39-.27-.26-.41-.66-.4-1.19,0-.38.07-.88.21-1.48.13-.59.35-1.29.65-2.09.26-.69.49-1.32.69-1.88.21-.57.44-1.06.69-1.48.18-.29.21-.46.21-.55,0-.18-.06-.36-.17-.52-.13-.18-.25-.21-.34-.21-.03,0-.17.02-.46.29-1.01.96-2.01,1.94-3.01,2.93-1,.99-1.99,1.98-2.96,2.97l-.41-.31c1.24-2.12,1.88-3.62,1.88-4.45,0-.32-.08-.6-.26-.86-.15-.23-.35-.34-.63-.34h0c-1.85,0-4.7,2.39-8.47,7.11l-.44-.27,1.41-3.18c.35-.79.6-1.42.75-1.9.19-.59.23-.89.23-1.03,0-.07-.01-.13-.03-.15s-.06-.04-.15-.03c-.07,0-.12.01-.14.03-.02.02-.03.08-.03.15,0,.15-.04.46-.39,1.43-.25.7-.66,1.63-1.24,2.85l-1.41,2.93c-.41.86-.72,1.51-.95,1.95-.16.32-.26.52-.3.61Z"/>
    <path class="cls-1" d="M58.69,40.23h0c-.52,0-.91-.2-1.18-.58-.25-.36-.37-.86-.36-1.53,0-1.66.71-4.2,2.17-7.77.24-.59.54-1.21.87-1.86.34-.64.73-1.33,1.17-2.04.46-.76.91-1.44,1.32-2.02.42-.57.79-1.03,1.11-1.39.14-.14.26-.23.38-.28.12-.05.22-.08.31-.08.51,0,1.09.15,1.72.44.63.29,1.19.66,1.68,1.09.46.38.83.85,1.12,1.39.29.55.44,1.13.44,1.72,0,.43-.09.87-.26,1.31-.09.24-.2.48-.33.72.33-.11.69-.26,1.1-.45.66-.31,1.35-.8,2.04-1.46.12-.12.28-.18.48-.18.62,0,.67.45.67.59,0,.14-.05.3-.16.48-.1.16-.25.34-.47.56-1.38,1.26-3.04,1.99-4.96,2.18-.26.27-.54.53-.85.78-.33.27-.67.52-1.03.74-1.1.66-2.06.99-2.85.99-.39,0-.71-.13-.97-.38-.25-.25-.37-.54-.37-.87,0-.96.81-1.69,2.39-2.16.53-.15,1.08-.27,1.62-.38.49-.1.98-.21,1.46-.32.33-.51.58-.97.74-1.35.16-.39.24-.72.24-.97,0-.87-.68-1.73-2.03-2.56-.55-.34-.89-.44-1.09-.46-1.45,1.61-2.85,3.88-4.16,6.75-1.38,3-2.09,5.39-2.09,7.1,0,.51.06.69.08.74.02.04.04.07.15.07.05,0,.07,0,.07,0,.06-.01.12-.02.17-.02.39,0,.61.27.61.7,0,.23-.1.75-.94.75ZM58.69,39.72h0c.42,0,.42-.15.42-.23,0-.18-.04-.18-.1-.18-.1.02-.17.03-.25.03-.28,0-.5-.13-.61-.36-.09-.19-.14-.5-.13-.97,0-1.79.73-4.25,2.14-7.32,1.35-2.97,2.81-5.31,4.33-6.97l.07-.08h.11c.39-.02.87.15,1.49.53,1.52.93,2.28,1.94,2.28,3,0,.33-.09.71-.29,1.17-.18.44-.46.95-.84,1.52l-.06.09-.1.02c-.52.13-1.04.24-1.58.35-.53.11-1.06.23-1.58.37-1.33.39-2.01.95-2.01,1.66,0,.19.07.35.22.5.15.15.34.23.58.23h.01c.7,0,1.56-.31,2.58-.91.33-.21.66-.45.97-.7.32-.27.61-.53.87-.81l.07-.07h.1c1.84-.18,3.44-.87,4.75-2.06.18-.18.31-.33.38-.45.08-.14.09-.2.09-.21,0-.04-.04-.07-.15-.07-.06,0-.1.01-.12.03-.74.69-1.47,1.21-2.18,1.55-.72.34-1.31.55-1.81.64l-.59.11.32-.5c.25-.39.45-.78.6-1.17.14-.38.22-.76.22-1.13,0-.5-.12-1-.37-1.47-.25-.48-.59-.9-1-1.25-.45-.41-.98-.74-1.56-1.01-.57-.26-1.08-.39-1.51-.39,0,0-.03,0-.1.03-.03.01-.1.05-.21.16-.3.33-.66.78-1.06,1.34-.41.56-.85,1.23-1.3,1.98-.44.7-.82,1.38-1.15,2.01-.33.63-.61,1.24-.85,1.81-1.41,3.46-2.12,6.01-2.13,7.58,0,.56.09.97.27,1.23.16.24.41.35.75.35h0ZM63,32.73h0c-.33,0-.53-.2-.53-.51,0-.74,1.08-1.05,1.43-1.15.53-.15.9-.25,1.16-.3.27-.05.56-.1.86-.14l.87-.1-.68.56c-1.34,1.1-2.36,1.64-3.11,1.64ZM64.96,31.33c-.23.05-.53.13-.92.25-.67.19-1.05.43-1.05.65v.25s.02-.26.02-.26h0c.34,0,.94-.17,1.95-.89Z"/>
    <path class="cls-1" d="M75.23,33.47h-.01c-.92,0-1.63-.3-2.13-.88-.49-.57-.73-1.32-.73-2.24,0-.64.12-1.42.35-2.31.39-1.49,1.06-3.24,1.99-5.2.73-1.49,1.51-2.97,2.34-4.39.82-1.43,1.75-2.86,2.75-4.25,2.19-3.08,3.06-3.44,3.52-3.44h0c.78,0,.86.42.86.59,0,.28-.19.79-1.61,2.49l-1.93,2.33c-1.65,1.98-3.02,4.04-4.07,6.11-1.05,2.08-1.88,4.18-2.47,6.26-.16.58-.24,1.13-.24,1.63,0,1.64.82,1.83,1.44,1.83.33,0,.73-.11,1.11-.32.7-.36.74-.36.82-.36.14,0,.59.06.59.73,0,.35-.14.64-.41.84-.68.4-1.4.59-2.15.59ZM75.22,32.95c.65-.02,1.29-.17,1.87-.51.11-.08.18-.22.18-.41,0-.16-.04-.2-.04-.2,0,0-.09.03-.6.29-.45.25-.9.38-1.35.38h0c-.9,0-1.96-.42-1.95-2.35,0-.55.09-1.14.26-1.77.6-2.11,1.44-4.24,2.5-6.35,1.07-2.11,2.46-4.2,4.14-6.21l1.93-2.32c1.38-1.66,1.49-2.08,1.49-2.16,0,0-.06-.07-.34-.07h0c-.3,0-1.1.42-3.1,3.23-.99,1.38-1.91,2.8-2.72,4.21-.82,1.41-1.6,2.87-2.32,4.35-.91,1.93-1.57,3.65-1.95,5.11-.22.85-.33,1.59-.33,2.18,0,.8.19,1.43.6,1.91.4.47.97.7,1.74.7h0Z"/>
    <path class="cls-1" d="M81.31,33.25h-.03c-.85,0-1.52-.3-2.01-.9-.47-.58-.71-1.29-.71-2.12,0-1.36.47-2.77,1.38-4.19.24-.39.53-.78.85-1.16.32-.38.67-.75,1.04-1.1.56-.54,1.16-.99,1.79-1.35.64-.36,1.26-.55,1.87-.55h.02c.53,0,.94.14,1.22.4.29.27.43.67.43,1.18,0,1.18-.69,2.26-2.05,3.19-1.23.82-2.45,1.24-3.64,1.24h-.02c-.24,0-.42-.02-.58-.05-.08-.01-.16-.03-.24-.05-.14.3-.27.67-.39,1.11-.14.52-.22.98-.22,1.36,0,1.06.42,1.55,1.33,1.56.8,0,1.61-.14,2.35-.43.75-.29,1.65-.85,2.69-1.67.64-.49,1.14-.9,1.47-1.21.33-.31.69-.64,1.08-.99.36-.24.61-.21.88-.05.17.1.26.27.26.47,0,.28-.2.61-.63,1.03-.32.3-.65.6-1,.92-.34.32-.89.75-1.67,1.34-.82.63-1.74,1.13-2.71,1.48-.97.35-1.89.52-2.76.52ZM85.49,22.4c-.51,0-1.06.16-1.61.48-.59.33-1.15.76-1.69,1.27-.36.34-.7.69-1,1.06-.31.37-.58.74-.81,1.11-.86,1.34-1.29,2.66-1.3,3.92,0,.71.19,1.3.59,1.79.39.47.92.71,1.61.71h0s.02,0,.03,0c.8,0,1.67-.17,2.58-.49.92-.33,1.79-.81,2.57-1.4.77-.58,1.3-1,1.63-1.31.35-.32.68-.62.99-.91.45-.44.47-.63.47-.66-.06-.05-.11-.07-.15-.07-.02,0-.07,0-.16.07-.35.32-.71.65-1.04.96-.35.32-.85.74-1.51,1.24-1.07.85-2.02,1.43-2.82,1.74-.8.31-1.66.49-2.54.46-.85,0-1.85-.37-1.84-2.08,0-.42.08-.93.24-1.49.15-.56.33-1.03.52-1.4l.1-.19.2.06c.12.04.25.07.39.09.14.03.29.05.51.04,1.09,0,2.21-.39,3.35-1.15,1.2-.83,1.82-1.77,1.82-2.77,0-.36-.09-.63-.26-.8-.18-.17-.48-.26-.87-.26,0,0-.01,0-.02,0ZM81.32,27.02h-.03c-.16,0-.31-.02-.44-.07l-.3-.11.17-.27c.27-.43.56-.83.87-1.19.31-.36.71-.77,1.19-1.21,1.03-.94,1.92-1.4,2.73-1.4h0c.52,0,.83.28.83.73,0,.79-.56,1.58-1.71,2.42-.5.36-1.04.64-1.58.82-.54.19-1.13.28-1.72.28ZM85.49,23.28c-.66,0-1.46.43-2.38,1.26-.47.43-.85.82-1.15,1.17-.21.25-.41.51-.6.79.52,0,1.03-.09,1.51-.25.5-.17.99-.42,1.45-.75.99-.72,1.49-1.4,1.5-2.01,0-.1,0-.21-.32-.21h0Z"/>
    <path class="cls-1" d="M88.18,33.72h-.01c-.45,0-.72-.27-.72-.7,0-.08,0-.09.36-.8.22-.44.54-1.08.94-1.94l1.41-2.93c.57-1.18.98-2.12,1.22-2.8.33-.9.36-1.18.36-1.26,0-.22.06-.39.19-.51.12-.12.32-.18.51-.18.21,0,.39.06.51.19s.19.3.18.52c0,.27-.08.66-.25,1.19-.16.51-.41,1.15-.77,1.96l-.64,1.43c3.32-3.92,5.83-5.83,7.65-5.83h.01c.45,0,.82.2,1.06.57.23.34.34.73.34,1.15,0,.69-.35,1.7-1.05,3.08.55-.55,1.1-1.1,1.66-1.66,1-.99,2.01-1.97,3.02-2.94.32-.29.57-.43.81-.43.21,0,.52.08.76.43.18.26.26.53.26.82,0,.23-.1.5-.29.82-.23.39-.45.86-.64,1.39-.2.56-.44,1.19-.7,1.88-.29.77-.5,1.45-.63,2.02-.13.56-.19,1.03-.19,1.37,0,.38.08.66.25.82.17.16.33.25.48.25.34,0,.73-.09,1.16-.28.44-.19.81-.39,1.08-.57.58-.37,1.19-.85,1.82-1.41.65-.58,1.26-1.16,1.84-1.73.12-.12.29-.18.51-.18.62,0,.67.45.67.59,0,.28-.15.56-.46.87-.73.73-1.4,1.36-2,1.88-.6.53-1.17.96-1.72,1.29-.36.21-.79.42-1.3.64-.52.23-1.08.34-1.67.34h-.03c-.6,0-1.1-.19-1.5-.57-.41-.38-.61-1.14-.61-2.3,0-.44.08-.96.23-1.56.15-.59.38-1.26.68-1.97l.95-2.23-3,3c-.46.45-.83.83-1.13,1.14-.29.31-.53.56-.72.76-.34.36-.65.71-.91,1.05-.26.34-.49.64-.67.9-.21.33-.47.4-.65.4h0c-.24,0-.43-.06-.55-.19-.08-.08-.17-.22-.17-.45,0-.61.52-1.93,1.58-4.03,1.3-2.57,1.52-3.32,1.53-3.54-.01,0-.11-.03-.34-.03h0c-1.06,0-3.4,1.36-8.53,7.85-.35.49-.94,1.24-1.74,2.22-.07.09-.21.2-.47.2ZM87.97,33.07c0,.09.03.14.21.14h0c.06.01.07,0,.07,0,.8-.97,1.38-1.71,1.73-2.2,4.29-5.43,7.21-8.06,8.94-8.06h0c.24,0,.42.03.56.09.19.09.3.25.3.44,0,.29-.17.99-1.58,3.79-1.26,2.49-1.52,3.44-1.53,3.8,0,.04,0,.07.02.08.02.02.09.05.19.04.07,0,.14-.06.22-.18.19-.27.42-.57.69-.92.27-.35.59-.72.94-1.09.18-.2.42-.45.72-.76.29-.31.67-.7,1.14-1.15l3.94-3.94.42.28-1.47,3.45c-.29.69-.51,1.33-.66,1.9-.14.55-.22,1.04-.22,1.43,0,1.24.24,1.73.44,1.92.31.29.69.43,1.15.43,0,0,.02,0,.03,0,.52,0,1.01-.1,1.46-.3.48-.21.9-.42,1.24-.61.51-.31,1.06-.73,1.64-1.24.58-.52,1.25-1.14,1.98-1.86.27-.27.31-.43.31-.5,0-.04-.04-.07-.15-.07-.08,0-.13.02-.14.03-.58.58-1.21,1.16-1.86,1.74-.65.58-1.28,1.07-1.88,1.46-.3.21-.68.41-1.17.62-.49.21-.95.32-1.37.32-.29,0-.57-.13-.84-.39-.27-.26-.41-.66-.41-1.19,0-.38.07-.88.21-1.48.13-.59.35-1.3.65-2.09.26-.69.49-1.32.69-1.88.21-.56.44-1.06.69-1.48.18-.29.21-.46.21-.55,0-.18-.06-.36-.17-.53-.13-.18-.24-.2-.34-.21-.03,0-.17.02-.46.29-1.01.96-2.01,1.94-3.01,2.93-1,.99-1.99,1.98-2.96,2.97l-.41-.31c1.24-2.12,1.88-3.62,1.88-4.45,0-.31-.08-.6-.26-.86-.15-.23-.35-.34-.63-.34h0c-1.85,0-4.7,2.39-8.47,7.11l-.44-.27,1.41-3.18c.35-.79.6-1.42.75-1.9.19-.59.23-.89.23-1.03,0-.07-.01-.13-.03-.15-.02-.02-.08-.03-.14-.03-.09,0-.13.01-.15.03-.02.02-.03.08-.03.15,0,.15-.04.46-.39,1.43-.25.7-.66,1.63-1.24,2.85l-1.41,2.93c-.41.86-.72,1.51-.95,1.95-.16.32-.26.53-.3.61Z"/>
    <path class="cls-1" d="M113.18,33.39h-.03c-.85,0-1.52-.31-2.01-.9-.47-.58-.71-1.29-.71-2.12,0-1.36.47-2.77,1.38-4.19.24-.39.53-.78.85-1.16.32-.38.67-.75,1.04-1.1.56-.54,1.16-.99,1.79-1.35.64-.36,1.27-.55,1.88-.55h0c1.07,0,1.66.57,1.65,1.58,0,1.18-.69,2.26-2.05,3.19-1.23.83-2.44,1.23-3.67,1.24-.23,0-.42-.02-.58-.05-.08-.01-.16-.03-.24-.05-.14.3-.27.67-.39,1.11-.14.52-.22.98-.22,1.36,0,.57.12.98.37,1.23.22.22.53.32.99.32.81,0,1.59-.14,2.32-.43.74-.29,1.64-.85,2.69-1.66.64-.49,1.14-.9,1.47-1.21.33-.31.69-.64,1.08-.99.35-.24.62-.22.89-.05.16.1.26.26.26.47,0,.28-.19.6-.63,1.03-.32.3-.65.6-1,.92-.35.32-.9.76-1.67,1.34-.82.63-1.74,1.13-2.71,1.48-.97.35-1.9.52-2.76.52ZM113.16,32.87s.02,0,.03,0c.8,0,1.67-.17,2.58-.49.92-.33,1.79-.81,2.57-1.4.75-.56,1.3-1,1.64-1.31.35-.32.68-.62.99-.91.44-.43.47-.62.47-.66-.12-.11-.18-.09-.31,0-.36.32-.71.65-1.04.96-.35.32-.85.74-1.51,1.24-1.08.85-2.03,1.43-2.82,1.74-.8.31-1.65.47-2.54.46-.57,0-1.01-.16-1.32-.48-.35-.35-.52-.89-.52-1.6,0-.42.08-.93.24-1.49.15-.56.33-1.03.52-1.4l.1-.19.2.06c.12.03.25.07.4.09.14.03.29.03.51.04,1.09,0,2.22-.39,3.35-1.15,1.2-.83,1.82-1.77,1.82-2.77,0-.73-.35-1.06-1.14-1.06h0c-.52,0-1.06.16-1.62.48-.59.33-1.15.76-1.69,1.27-.36.34-.69.69-1,1.06-.31.37-.58.74-.81,1.11-.86,1.34-1.29,2.66-1.3,3.92,0,.71.19,1.3.59,1.79.39.47.91.7,1.61.71h0ZM113.19,27.16h-.03c-.15,0-.3-.02-.44-.07l-.31-.11.17-.28c.26-.43.55-.83.87-1.19.31-.37.71-.77,1.19-1.21,1.03-.94,1.92-1.4,2.73-1.4h0c.52,0,.83.28.83.73,0,.79-.56,1.58-1.71,2.42-.5.36-1.03.64-1.58.82-.55.19-1.13.28-1.73.28ZM117.37,23.42c-.66,0-1.46.43-2.38,1.27-.46.43-.85.82-1.15,1.17-.21.25-.41.51-.6.79.52,0,1.03-.09,1.51-.25.5-.17.99-.42,1.45-.75.99-.73,1.49-1.4,1.5-2.01,0-.1,0-.23-.32-.21Z"/>
    <path class="cls-1" d="M120.02,33.61h0c-.44,0-.7-.23-.7-.62,0-.13.05-.29.14-.47.08-.14.14-.26.2-.35l2.48-4.94c1.4-2.82,1.57-3.37,1.58-3.48,0-.39.25-.64.65-.64.49,0,.78.31.78.81,0,.11-.03.32-.27.92-.16.42-.38.89-.64,1.44-.08.17-.15.33-.23.48.13-.13.26-.26.39-.39.55-.55,1.14-1.1,1.75-1.63,1.81-1.56,3.17-2.32,4.18-2.32h0c.79,0,1.22.42,1.22,1.17,0,.59-.48,1.84-1.44,3.81-1.15,2.36-1.39,3.24-1.39,3.56,0,.05,0,.09,0,.11,0-.01.06-.02.15-.06.14-.06.32-.08.46-.08.23,0,.41.07.54.19.12.12.19.29.18.51,0,.53-.48.8-1.42.8h-.02c-.44,0-.77-.12-.98-.35-.21-.22-.32-.52-.31-.88,0-.93.46-2.27,1.39-4.12,1.16-2.26,1.33-2.91,1.33-3.09,0-.07-.01-.09-.01-.09-.21.02-.72.19-1.77.98-.95.71-1.93,1.55-2.9,2.49-.96.94-1.89,2.02-2.76,3.22l-1.93,2.65c-.15.23-.38.35-.65.35ZM124.37,23.64c-.12,0-.13.02-.13.12,0,.14,0,.42-1.63,3.71l-2.49,4.96c-.06.11-.13.22-.2.35-.08.14-.08.2-.08.22,0,.06,0,.1.18.1.1,0,.16-.04.22-.13l1.94-2.66c.89-1.23,1.83-2.33,2.82-3.29.98-.96,1.98-1.81,2.95-2.53.96-.72,1.63-1.06,2.1-1.06h0c.25,0,.51.16.5.59,0,.26-.15.89-1.39,3.32-.88,1.74-1.33,3.05-1.33,3.88,0,.23.06.4.17.52.12.12.33.19.63.18.29,0,.9-.03.9-.29,0-.07-.01-.12-.03-.14-.03-.03-.08-.03-.18-.04-.09,0-.18.02-.27.05-.17.06-.27.08-.36.08-.17,0-.28-.07-.34-.14-.11-.11-.16-.27-.16-.48,0-.35.15-1.13,1.44-3.78,1.15-2.34,1.39-3.24,1.39-3.59,0-.46-.2-.64-.7-.65h0c-.86,0-2.16.74-3.84,2.2-.6.52-1.18,1.06-1.72,1.6-.57.57-1.13,1.17-1.67,1.79l-.42-.3c.29-.5.66-1.23,1.1-2.17.26-.54.47-1,.63-1.41.22-.54.23-.69.23-.73,0-.25-.08-.29-.26-.29Z"/>
    <path class="cls-1" d="M131.74,34.87h0c-.2,0-.38-.07-.51-.2-.18-.18-.27-.47-.27-.89,0-.85.46-2.26,1.4-4.32.87-1.92,2.18-4.45,3.87-7.51-.51.03-.99.11-1.45.23-.74.2-.79.41-.79.43-.04.14-.1.25-.2.35-.08.08-.26.17-.48.17-.21,0-.39-.06-.51-.19-.12-.12-.18-.3-.18-.52,0-.59.44-1.06,1.29-1.41.76-.31,1.8-.47,3.11-.47l1.83-3c.13-.2.27-.42.41-.67.15-.25.32-.52.5-.81.24-.34.53-.5.85-.5h0c.27,0,.44.12.52.21.12.13.18.28.17.44,0,.24-.15.71-1.26,2.33-.75,1.09-1.16,1.69-1.38,2.02.22.01.48.03.79.06.55.05,1.2.12,1.96.22.4.03.64.28.64.67,0,.21-.06.38-.19.5-.13.13-.32.2-.56.2h0c-.13,0-.4-.03-.8-.07-.38-.05-.79-.09-1.23-.13-.42-.04-.79-.05-1.09-.03l-.27.02c-3.66,6.37-5.51,10.38-5.5,11.91l.03.21v.07c0,.21-.06.38-.19.5-.13.13-.31.19-.53.19ZM136.66,21.42h.46s-.21.39-.21.39c-1.8,3.24-3.17,5.88-4.07,7.87-.9,1.96-1.35,3.35-1.35,4.11,0,.35.07.47.12.52.02.02.06.05.14.05h0c.11-.02.15-.01.17-.04.02-.02.03-.07.03-.14l-.02-.24c-.01-1.69,1.83-5.71,5.63-12.32l.07-.12.55-.04c.33-.02.72,0,1.17.03.44.04.86.08,1.24.13.37.05.59.06.74.07.09,0,.16-.02.19-.05.03-.03.03-.1.03-.13,0-.09,0-.14-.17-.15-.76-.1-1.41-.17-1.95-.21-.54-.05-.95-.07-1.21-.07h-.45s.22-.39.22-.39c.03-.05.12-.2,1.64-2.42,1.09-1.59,1.17-1.97,1.17-2.05,0-.03-.02-.07-.04-.09-.03-.03-.1-.04-.14-.04-.06,0-.22.01-.41.27-.17.28-.34.55-.49.79-.15.25-.29.48-.42.68l-1.98,3.24h-.15c-1.28-.02-2.34.14-3.06.43-.64.26-.97.58-.97.94,0,.07.01.13.03.15.02.02.09.04.15.03.06,0,.09-.01.1-.02.03-.03.05-.06.06-.09.05-.34.43-.62,1.16-.83.62-.17,1.3-.26,2.01-.26Z"/>
    <path class="cls-1" d="M139.48,32.87h-.02c-.82,0-1.44-.24-1.86-.72-.41-.47-.62-1.15-.61-2.05,0-.8.2-1.65.58-2.52.38-.86.88-1.67,1.5-2.4.62-.74,1.32-1.35,2.09-1.81.78-.47,1.58-.72,2.39-.72h.02c.77,0,1.34.31,1.7.9.33.55.5,1.17.5,1.84,0,.85-.18,1.73-.52,2.6-.34.87-.81,1.68-1.39,2.41-.59.74-1.26,1.33-2,1.78-.75.45-1.55.68-2.37.68ZM143.55,23.17c-.71,0-1.42.22-2.12.64-.72.44-1.38,1.01-1.96,1.71-.59.7-1.07,1.47-1.43,2.28-.35.8-.53,1.58-.54,2.31,0,.76.16,1.34.48,1.7.32.36.8.54,1.47.54h0s.01,0,.02,0c.73,0,1.43-.21,2.1-.61.68-.41,1.31-.97,1.86-1.66.55-.69.99-1.45,1.32-2.27.32-.82.48-1.63.49-2.42,0-.58-.14-1.09-.42-1.57-.26-.43-.67-.65-1.26-.65,0,0-.01,0-.02,0ZM139.46,32h-.03c-.5,0-.88-.16-1.14-.47-.25-.29-.37-.73-.37-1.28,0-.62.18-1.32.53-2.09.34-.75.78-1.49,1.32-2.18.54-.69,1.13-1.27,1.73-1.72.64-.47,1.24-.71,1.85-.7.44,0,.8.15,1.09.44.29.29.43.68.43,1.17,0,.74-.13,1.49-.38,2.25-.25.75-.61,1.46-1.07,2.11-.47.65-1.02,1.2-1.65,1.63-.62.43-1.31.7-2.05.8-.07.03-.15.04-.25.04ZM143.33,24.08c-.47,0-.98.2-1.53.6-.57.42-1.12.96-1.63,1.62-.51.66-.93,1.35-1.25,2.07-.32.7-.48,1.34-.48,1.88,0,.43.08.75.25.94.16.19.4.28.75.28h0s.04,0,.05,0h.01s.09-.02.09-.02c.67-.08,1.3-.32,1.86-.71.58-.4,1.09-.91,1.52-1.51.43-.6.77-1.27,1-1.97.23-.7.35-1.4.35-2.09,0-.35-.09-.62-.28-.81-.19-.19-.45-.29-.73-.28Z"/>
    <path class="cls-1" d="M146.89,33.95h-.02c-.57,0-.99-.1-1.29-.3-.33-.22-.5-.56-.5-.98,0-.48.17-.95.51-1.41.31-.44.7-.84,1.13-1.2.43-.35.85-.63,1.23-.82.12-.06.29-.12.5-.18.23-.06.41-.09.56-.09.15,0,.27.04.36.13.05.05.12.15.11.29,0,.26-.25.43-.44.53-.82.39-1.45.85-1.89,1.37-.53.63-.64.99-.65,1.19,0,.07.02.09.04.11.04.04.15.11.56.12.43,0,.92-.11,1.44-.33.53-.22,1.05-.53,1.54-.89.48-.36.89-.76,1.2-1.18.29-.39.45-.76.45-1.11,0-.22-.07-.41-.2-.58-.14-.18-.37-.31-.7-.41l-1.81-.56c-.5-.16-.88-.38-1.11-.66-.24-.28-.36-.61-.36-.96,0-.61.24-1.17.7-1.66.44-.46.99-.83,1.65-1.1.65-.26,1.28-.4,1.9-.4h.01c.63,0,1.2.16,1.68.47.51.34.77.79.77,1.36,0,.32-.1.63-.28.91-.21.31-.46.47-.75.47-.46,0-.73-.24-.72-.65,0-.15.07-.32.2-.5.07-.09.1-.17.1-.24,0-.19-.06-.31-.2-.4-.17-.11-.44-.17-.8-.17h-.01c-.41,0-.83.09-1.25.26-.42.18-.76.41-1.03.69-.25.26-.37.54-.37.84,0,.31.57.53.91.64l1.76.56c.59.19.99.44,1.23.78.23.33.35.7.34,1.1,0,.9-.55,1.82-1.61,2.74-1.67,1.47-3.31,2.21-4.88,2.21ZM148.63,29.55s-.03,0-.04.01c-.17.05-.31.1-.41.15-.35.17-.73.43-1.13.76-.4.33-.76.7-1.04,1.1-.27.37-.41.74-.41,1.11,0,.25.08.42.27.55.21.14.55.21,1.01.21h0s.01,0,.02,0c1.44,0,2.97-.7,4.54-2.08.95-.82,1.43-1.61,1.43-2.35,0-.29-.08-.56-.25-.8-.17-.24-.49-.43-.96-.58l-1.76-.56c-.31-.1-1.28-.39-1.28-1.13,0-.43.18-.83.52-1.19.32-.33.72-.61,1.2-.81.48-.2.96-.3,1.45-.3h.01c.48,0,.83.08,1.09.25.28.19.43.48.43.84,0,.18-.07.37-.2.55-.1.13-.1.19-.1.19,0,.07,0,.12.21.12.04,0,.16,0,.32-.24.13-.2.19-.4.19-.63,0-.39-.17-.69-.54-.93-.39-.26-.86-.39-1.4-.39h-.01c-.55,0-1.12.12-1.7.36-.59.24-1.08.57-1.46.97-.37.39-.55.82-.55,1.3,0,.23.08.44.24.63.17.2.46.37.87.5l1.81.56c.43.12.76.32.96.58.21.27.31.57.31.9,0,.46-.19.93-.55,1.42-.35.46-.79.89-1.31,1.28-.52.39-1.08.72-1.65.96-.59.25-1.14.37-1.64.37h-.01c-.43,0-.73-.09-.92-.28-.13-.13-.19-.29-.19-.48,0-.42.25-.91.77-1.52.45-.54,1.09-1.02,1.88-1.41Z"/>
  </g>
  <g>
    <path class="cls-1" d="M21.66,32.62c-.97,0-1.73-.29-2.28-.86-.55-.57-.82-1.33-.81-2.28,0-1.65.79-3.44,2.36-5.37.81-.98,1.63-1.74,2.47-2.25.84-.52,1.62-.78,2.35-.77.64,0,1.13.23,1.48.66.34.44.52.99.51,1.65,0,.4-.06.81-.17,1.23-.08.29-.22.44-.44.44-.35,0-.52-.19-.52-.58,0-.16.03-.38.1-.65.07-.26.1-.53.1-.78,0-.73-.35-1.1-1.07-1.1-.38,0-.85.13-1.39.4-.54.27-1.08.63-1.61,1.08-.53.45-1,.95-1.41,1.52-1.23,1.66-1.85,3.15-1.86,4.47,0,1.52.68,2.28,2.05,2.29.86,0,1.68-.13,2.47-.39.79-.26,1.71-.81,2.78-1.65.66-.51,1.16-.92,1.49-1.23s.69-.64,1.08-.98c.11-.07.21-.11.3-.11.09,0,.18.03.27.08.09.05.14.14.14.25,0,.2-.18.48-.55.85-.31.29-.64.6-.99.92-.35.32-.9.76-1.65,1.32-.81.62-1.67,1.08-2.57,1.39-.91.31-1.78.46-2.62.46Z"/>
    <path class="cls-1" d="M31.79,32.15c-1.48,0-2.22-.84-2.21-2.51,0-.77.19-1.57.56-2.41.37-.84.86-1.62,1.47-2.34.61-.72,1.28-1.31,2.03-1.76.74-.45,1.5-.68,2.27-.68.68,0,1.17.26,1.48.77.31.51.46,1.08.46,1.7,0,.82-.17,1.66-.51,2.51-.33.85-.78,1.63-1.35,2.34-.57.71-1.21,1.29-1.93,1.72s-1.47.65-2.25.65ZM31.77,31.27c.11,0,.17,0,.19-.03.71-.09,1.37-.34,1.98-.76s1.13-.94,1.59-1.57c.45-.63.8-1.31,1.04-2.04s.36-1.45.37-2.17c0-.42-.12-.75-.35-.99-.24-.24-.54-.36-.9-.36-.53,0-1.09.21-1.69.65-.6.44-1.16.99-1.68,1.67-.53.68-.95,1.38-1.29,2.12-.33.74-.5,1.4-.5,1.99,0,.99.41,1.48,1.26,1.49Z"/>
    <path class="cls-1" d="M37.8,33.24c-.31,0-.47-.15-.47-.44,0-.02.11-.25.33-.68.22-.44.54-1.08.94-1.94l1.41-2.93c.57-1.19.98-2.13,1.23-2.82.25-.7.38-1.14.38-1.34,0-.29.15-.44.44-.44.29,0,.44.15.44.44,0,.24-.08.61-.24,1.11-.16.5-.41,1.15-.76,1.93l-1.41,3.18c3.85-4.82,6.74-7.22,8.68-7.21.37,0,.65.16.85.46.2.3.3.64.3,1,0,.88-.64,2.4-1.92,4.58.97-.98,1.96-1.97,2.96-2.97,1-.99,2.01-1.97,3.02-2.94.26-.24.47-.36.63-.36.22,0,.4.11.55.32.15.21.22.43.22.67,0,.18-.08.41-.25.69-.24.4-.46.88-.66,1.44-.2.56-.44,1.19-.7,1.88-.3.79-.51,1.47-.64,2.06-.13.58-.2,1.06-.2,1.42,0,.46.11.79.33,1,.22.21.44.32.66.32.38,0,.81-.1,1.26-.3.46-.2.83-.4,1.13-.6.59-.38,1.2-.86,1.85-1.43.64-.57,1.26-1.15,1.85-1.74.07-.07.18-.11.33-.11.27,0,.41.11.41.33,0,.2-.13.43-.39.68-.74.73-1.4,1.35-1.99,1.87-.59.52-1.15.94-1.68,1.27-.35.2-.77.41-1.27.63s-1.03.33-1.59.32c-.53,0-.97-.17-1.33-.5-.36-.33-.53-1.03-.53-2.11,0-.42.08-.92.23-1.5.15-.58.37-1.22.67-1.93l1.47-3.45-3.94,3.94c-.46.46-.84.84-1.13,1.15-.29.31-.53.57-.72.77-.35.36-.66.72-.92,1.07-.27.35-.49.65-.68.9-.13.2-.28.3-.44.3-.31,0-.47-.13-.46-.39,0-.57.52-1.87,1.55-3.92,1.03-2.04,1.55-3.27,1.55-3.67,0-.18-.2-.28-.6-.28-1.63,0-4.54,2.64-8.74,7.95-.35.49-.93,1.23-1.74,2.21-.06.07-.15.11-.27.11Z"/>
    <path class="cls-1" d="M58.69,39.98c-.86,0-1.29-.62-1.28-1.84,0-1.61.72-4.17,2.15-7.68.24-.58.53-1.19.86-1.84.33-.64.72-1.31,1.16-2.03.46-.77.9-1.43,1.31-2,.41-.56.78-1.02,1.09-1.37.11-.11.21-.18.29-.22.08-.04.15-.06.21-.06.48,0,1.01.14,1.62.42.6.28,1.14.63,1.62,1.05.44.37.79.81,1.06,1.32.27.51.41,1.05.4,1.59,0,.4-.08.81-.24,1.22-.16.41-.37.82-.62,1.22.48-.09,1.06-.3,1.75-.62.69-.33,1.39-.83,2.11-1.5.07-.07.18-.11.3-.11.28,0,.41.11.41.33,0,.09-.04.21-.13.34-.08.14-.23.3-.43.51-1.36,1.24-2.99,1.94-4.9,2.12-.28.29-.57.57-.9.83s-.66.51-1,.72c-1.06.63-1.97.95-2.72.95-.31,0-.57-.1-.77-.31-.2-.2-.3-.43-.3-.69,0-.84.74-1.48,2.2-1.91.53-.14,1.06-.27,1.59-.38.53-.11,1.05-.22,1.57-.35.37-.56.64-1.06.82-1.48.18-.42.26-.78.27-1.07,0-.97-.72-1.9-2.16-2.78-.57-.35-1.01-.52-1.34-.5-1.51,1.64-2.94,3.94-4.29,6.9-1.4,3.05-2.11,5.45-2.12,7.21,0,.42.03.71.11.85.07.14.2.22.38.22.06,0,.1,0,.14-.01s.07-.01.11-.01c.24,0,.36.15.35.44,0,.33-.23.49-.69.49ZM63,32.47c.68,0,1.66-.52,2.94-1.58-.29.03-.57.08-.84.13-.27.05-.64.15-1.14.29-.82.23-1.24.53-1.24.9,0,.17.09.25.27.25Z"/>
    <path class="cls-1" d="M75.22,33.21c-.84,0-1.49-.27-1.93-.79-.45-.52-.67-1.21-.66-2.08,0-.62.12-1.37.34-2.25.39-1.48,1.05-3.2,1.97-5.15.72-1.48,1.5-2.94,2.33-4.37.83-1.43,1.74-2.84,2.74-4.23,1.58-2.23,2.69-3.34,3.31-3.34.4,0,.6.11.6.33,0,.31-.52,1.09-1.55,2.33l-1.93,2.33c-1.67,2.01-3.04,4.06-4.1,6.16s-1.89,4.2-2.48,6.3c-.17.6-.25,1.17-.25,1.7,0,1.39.56,2.09,1.69,2.09.4,0,.81-.11,1.24-.35.42-.22.65-.33.69-.33.22,0,.33.16.33.47,0,.28-.1.48-.3.63-.62.36-1.29.54-2.01.54Z"/>
    <path class="cls-1" d="M81.28,32.99c-.77,0-1.37-.27-1.81-.8-.44-.53-.65-1.18-.65-1.95,0-1.32.45-2.67,1.34-4.06.24-.38.52-.76.83-1.13.31-.38.65-.73,1.02-1.08.55-.53,1.13-.97,1.74-1.31.6-.34,1.19-.52,1.76-.51.93,0,1.4.45,1.39,1.32,0,1.1-.65,2.09-1.93,2.98-1.19.8-2.37,1.2-3.52,1.19-.2,0-.38-.01-.54-.04-.15-.03-.3-.06-.42-.1-.18.35-.35.8-.5,1.34-.15.55-.22,1.03-.23,1.43,0,1.21.52,1.81,1.59,1.82.86,0,1.67-.14,2.45-.44.77-.3,1.69-.87,2.75-1.7.66-.51,1.16-.92,1.49-1.23s.69-.64,1.08-.98c.11-.07.21-.11.3-.11s.18.03.27.08c.09.05.14.14.14.25,0,.2-.18.48-.55.85-.31.29-.64.6-.99.92-.35.32-.9.76-1.65,1.32-.81.62-1.69,1.1-2.64,1.44-.95.34-1.85.51-2.69.51ZM81.28,26.76c.59,0,1.14-.09,1.68-.27.53-.18,1.04-.44,1.51-.79,1.07-.78,1.6-1.52,1.6-2.22,0-.31-.19-.47-.57-.47-.73,0-1.59.44-2.56,1.33-.48.44-.87.83-1.17,1.19-.3.36-.58.74-.84,1.16.11.04.23.06.36.06Z"/>
    <path class="cls-1" d="M88.17,33.46c-.31,0-.47-.15-.47-.44,0-.02.11-.25.33-.68.22-.44.54-1.08.94-1.94l1.41-2.93c.57-1.19.98-2.13,1.23-2.82.25-.7.38-1.14.38-1.34,0-.29.15-.44.44-.44.29,0,.44.15.44.44,0,.24-.08.61-.24,1.11-.16.5-.41,1.15-.76,1.93l-1.41,3.18c3.85-4.82,6.74-7.22,8.68-7.21.37,0,.65.15.85.46.2.3.3.64.3,1,0,.88-.64,2.4-1.92,4.58.97-.98,1.96-1.97,2.96-2.97,1-.99,2.01-1.97,3.02-2.94.26-.24.47-.36.63-.36.22,0,.4.11.55.32.15.21.22.44.22.67,0,.18-.08.41-.25.68-.24.4-.46.88-.66,1.44-.2.56-.44,1.19-.7,1.88-.3.78-.51,1.47-.64,2.06-.13.58-.2,1.06-.2,1.42,0,.46.11.79.33,1s.44.32.66.32c.38,0,.81-.1,1.26-.3.46-.2.83-.4,1.13-.6.59-.38,1.2-.86,1.85-1.43.64-.57,1.26-1.15,1.85-1.74.07-.07.18-.11.33-.11.28,0,.41.11.41.33,0,.2-.13.43-.39.68-.74.73-1.4,1.35-1.99,1.87-.59.52-1.15.94-1.68,1.27-.35.2-.77.41-1.27.63-.5.22-1.03.33-1.59.32-.53,0-.97-.17-1.33-.5-.36-.33-.53-1.03-.53-2.11,0-.42.08-.92.23-1.5.15-.58.37-1.22.67-1.93l1.47-3.45-3.94,3.94c-.46.46-.84.84-1.13,1.15-.29.31-.53.57-.72.76-.35.37-.66.72-.92,1.07-.27.35-.49.65-.68.9-.13.2-.28.3-.44.3-.31,0-.47-.13-.46-.38,0-.57.52-1.87,1.55-3.92,1.03-2.04,1.55-3.27,1.55-3.67,0-.18-.2-.28-.6-.28-1.63,0-4.54,2.64-8.74,7.95-.35.49-.93,1.23-1.74,2.21-.06.07-.15.11-.28.11Z"/>
    <path class="cls-1" d="M113.16,33.13c-.77,0-1.37-.27-1.81-.8-.44-.53-.65-1.18-.65-1.95,0-1.32.45-2.67,1.34-4.06.24-.38.52-.76.83-1.13.31-.37.65-.73,1.02-1.08.55-.53,1.13-.97,1.74-1.31.6-.34,1.19-.52,1.76-.51.93,0,1.4.45,1.39,1.32,0,1.1-.65,2.09-1.93,2.98-1.19.8-2.37,1.2-3.52,1.19-.2,0-.38-.01-.54-.04-.15-.03-.3-.06-.42-.1-.18.35-.35.8-.5,1.34-.15.55-.22,1.02-.23,1.43,0,1.21.52,1.81,1.59,1.82.86,0,1.67-.14,2.45-.44.77-.3,1.69-.87,2.75-1.7.66-.51,1.16-.92,1.49-1.23.33-.31.69-.64,1.08-.98.11-.07.21-.11.3-.11s.18.03.27.08c.09.05.14.14.14.25,0,.2-.18.48-.55.85-.31.29-.64.6-.99.92-.35.32-.9.76-1.65,1.32-.81.62-1.69,1.1-2.64,1.44-.95.34-1.85.51-2.69.51ZM113.16,26.9c.59,0,1.14-.09,1.68-.27.53-.18,1.04-.44,1.51-.79,1.07-.78,1.6-1.52,1.6-2.22,0-.31-.19-.47-.57-.47-.73,0-1.59.44-2.56,1.34-.48.44-.87.83-1.17,1.19-.3.36-.58.75-.84,1.16.11.04.23.06.36.06Z"/>
    <path class="cls-1" d="M120.02,33.35c-.29,0-.44-.12-.44-.36,0-.09.04-.21.11-.34.07-.14.14-.25.19-.34l2.49-4.96c1.07-2.16,1.61-3.35,1.61-3.59,0-.26.13-.38.39-.38.35,0,.52.19.52.55,0,.13-.08.4-.25.82-.17.42-.38.9-.64,1.43-.44.95-.81,1.68-1.11,2.19.55-.64,1.11-1.24,1.68-1.8.57-.57,1.15-1.1,1.74-1.61,1.75-1.51,3.08-2.26,4.02-2.26.64,0,.96.31.96.91,0,.55-.48,1.78-1.42,3.7-.94,1.94-1.41,3.16-1.42,3.67,0,.24.08.36.25.36.05,0,.14-.02.26-.07.12-.05.24-.07.37-.07.31,0,.47.15.46.44,0,.37-.4.55-1.18.54-.37,0-.63-.09-.79-.26-.16-.17-.25-.41-.24-.7,0-.88.46-2.21,1.36-4,.91-1.77,1.36-2.84,1.36-3.21,0-.22-.08-.33-.25-.33-.4,0-1.05.33-1.95,1.01-.97.73-1.95,1.57-2.92,2.51-.97.95-1.9,2.03-2.79,3.26l-1.93,2.65c-.11.16-.26.24-.44.24Z"/>
    <path class="cls-1" d="M131.74,34.61c-.35,0-.52-.28-.52-.83,0-.81.46-2.21,1.38-4.22.92-2.01,2.28-4.64,4.08-7.89-.7,0-1.35.08-1.96.25-.61.17-.94.38-.98.64-.02.07-.06.14-.12.21-.06.06-.16.1-.29.09-.29,0-.44-.15-.44-.44,0-.48.38-.87,1.13-1.17.75-.31,1.8-.46,3.16-.45l1.91-3.12c.13-.2.27-.42.41-.67.15-.24.31-.51.5-.81.18-.25.4-.38.63-.38.15,0,.26.04.33.13.07.08.11.17.11.26,0,.27-.41,1-1.22,2.19-1.01,1.48-1.56,2.28-1.63,2.41.28,0,.69.03,1.24.08s1.2.12,1.95.21c.27.02.41.16.41.41,0,.29-.17.44-.5.44-.13,0-.38-.03-.77-.07-.38-.05-.8-.09-1.24-.13-.44-.04-.81-.05-1.13-.03l-.41.03c-3.74,6.52-5.61,10.57-5.6,12.16l.03.22v.06c0,.29-.16.44-.47.44Z"/>
    <path class="cls-1" d="M139.46,32.61c-1.48,0-2.22-.84-2.21-2.51,0-.77.19-1.57.56-2.41.37-.84.86-1.62,1.47-2.34.61-.72,1.28-1.31,2.03-1.76.74-.45,1.5-.68,2.27-.68.68,0,1.17.26,1.48.78.31.51.46,1.08.46,1.7,0,.82-.17,1.66-.51,2.51-.33.85-.78,1.63-1.35,2.34-.57.71-1.21,1.29-1.93,1.72s-1.47.65-2.25.65ZM139.44,31.74c.11,0,.17,0,.19-.03.71-.09,1.37-.34,1.98-.76s1.13-.94,1.59-1.57.8-1.31,1.04-2.04c.24-.73.36-1.45.37-2.17,0-.42-.12-.75-.35-.99-.24-.24-.54-.36-.9-.36-.53,0-1.09.21-1.69.65-.6.44-1.16.99-1.68,1.67-.52.68-.95,1.38-1.29,2.12s-.5,1.4-.5,1.99c0,.99.41,1.48,1.26,1.49Z"/>
    <path class="cls-1" d="M146.87,33.69c-1.03,0-1.54-.34-1.53-1.02,0-.42.15-.84.46-1.26.3-.42.67-.8,1.09-1.15.42-.35.82-.61,1.18-.79.11-.05.26-.11.45-.16.19-.05.35-.08.48-.08.15,0,.22.06.22.16,0,.09-.1.19-.3.3-.84.4-1.5.88-1.97,1.44-.47.55-.7,1.01-.71,1.35,0,.33.28.5.85.5.48,0,.99-.12,1.55-.35.56-.24,1.09-.55,1.6-.93.5-.38.92-.79,1.25-1.23.33-.44.5-.86.5-1.26,0-.28-.08-.52-.26-.74-.17-.22-.45-.39-.84-.5l-1.81-.56c-.46-.15-.79-.34-.99-.58-.2-.24-.3-.5-.3-.8,0-.55.21-1.04.63-1.48.41-.44.93-.78,1.55-1.04s1.23-.38,1.81-.38c.59,0,1.1.15,1.54.43.44.29.66.67.65,1.14,0,.27-.08.53-.24.77s-.34.36-.54.36c-.31,0-.47-.13-.47-.39,0-.09.05-.21.15-.34.1-.14.15-.27.15-.4,0-.55-.42-.83-1.26-.83-.46,0-.91.09-1.36.28-.45.19-.82.44-1.12.75-.29.31-.44.65-.44,1.01s.36.66,1.09.88l1.75.56c.53.17.9.39,1.1.68.2.28.3.6.3.95,0,.82-.51,1.67-1.52,2.55-1.64,1.44-3.21,2.15-4.73,2.15Z"/>
  </g>
  <g>
    <path class="cls-1" d="M21.18,57.03h-.01c-.92,0-1.63-.3-2.13-.88-.49-.57-.73-1.32-.73-2.25,0-.64.12-1.42.35-2.31.39-1.49,1.06-3.24,1.99-5.2.72-1.49,1.51-2.96,2.34-4.39.83-1.43,1.75-2.86,2.75-4.25,2.19-3.08,3.06-3.44,3.52-3.44h0c.78,0,.86.42.86.59,0,.28-.19.79-1.61,2.49l-1.93,2.33c-1.65,1.98-3.02,4.04-4.07,6.11-1.05,2.08-1.88,4.18-2.47,6.26-.16.58-.24,1.13-.24,1.63,0,1.64.82,1.83,1.44,1.83h0c.35,0,.72-.11,1.1-.32.71-.36.74-.36.83-.36h0c.19,0,.31.08.39.16.13.13.19.31.19.57,0,.36-.14.64-.41.84-.68.4-1.4.59-2.15.59ZM21.17,56.51h0c.66,0,1.29-.17,1.87-.5.11-.09.18-.22.18-.41,0-.14-.03-.19-.04-.2-.02,0-.15.06-.6.29-.45.25-.9.38-1.35.38h0c-.9,0-1.96-.42-1.95-2.35,0-.55.09-1.14.26-1.77.6-2.11,1.44-4.24,2.5-6.35,1.07-2.11,2.46-4.2,4.14-6.21l1.93-2.32c1.38-1.66,1.49-2.08,1.49-2.16,0,0-.06-.07-.34-.07h0c-.3,0-1.1.42-3.1,3.23-.99,1.38-1.9,2.79-2.72,4.21-.82,1.42-1.6,2.88-2.32,4.35-.91,1.93-1.57,3.65-1.95,5.11-.22.85-.33,1.58-.33,2.18,0,.79.2,1.44.6,1.91.4.47.97.7,1.74.7h0Z"/>
    <path class="cls-1" d="M27.5,57.06h-.02c-.92,0-1.63-.3-2.13-.88-.49-.57-.73-1.32-.73-2.24,0-.64.12-1.42.35-2.31.39-1.49,1.06-3.24,1.99-5.2.72-1.49,1.51-2.96,2.34-4.39.83-1.44,1.76-2.87,2.75-4.25,2.19-3.08,3.06-3.44,3.51-3.44h0c.75,0,.86.37.86.59,0,.28-.19.79-1.61,2.49l-1.93,2.33c-1.66,1.98-3.03,4.04-4.07,6.11-1.05,2.07-1.88,4.18-2.47,6.26-.16.58-.24,1.13-.24,1.63,0,.69.14,1.19.43,1.48.23.23.56.36,1.01.35.35,0,.72-.11,1.1-.32.7-.36.74-.36.82-.36.14,0,.59.06.59.73,0,.35-.14.64-.41.84-.68.4-1.39.59-2.14.59ZM35.56,34.85c-.3,0-1.1.42-3.09,3.23-.99,1.37-1.9,2.79-2.72,4.21-.82,1.42-1.6,2.88-2.32,4.35-.91,1.93-1.57,3.65-1.95,5.11-.22.85-.33,1.58-.33,2.18,0,.8.19,1.43.6,1.91.4.47.97.7,1.74.7h0s.01,0,.02,0c.66,0,1.28-.17,1.86-.5.11-.08.18-.22.18-.41,0-.16-.04-.2-.04-.2h0s-.13.05-.6.29c-.45.25-.9.38-1.35.38h0c-.58,0-1.04-.17-1.37-.5-.39-.4-.59-1.02-.58-1.85,0-.55.09-1.14.26-1.77.6-2.11,1.44-4.25,2.5-6.35,1.06-2.11,2.46-4.19,4.14-6.21l1.93-2.33c1.38-1.66,1.49-2.08,1.49-2.16,0,0-.06-.07-.34-.07h0Z"/>
    <path class="cls-1" d="M33.6,56.84h-.03c-.85,0-1.52-.31-2.01-.9-.47-.58-.71-1.29-.71-2.12,0-1.36.47-2.77,1.38-4.2.25-.39.53-.78.85-1.16.32-.38.67-.75,1.04-1.1.57-.54,1.17-1,1.79-1.35.63-.36,1.27-.55,1.88-.55h0c.53,0,.94.14,1.23.41.29.27.43.67.43,1.18,0,1.18-.69,2.26-2.05,3.19-1.23.82-2.45,1.24-3.64,1.24-.21,0-.43-.01-.6-.05-.08-.01-.16-.03-.24-.05-.14.3-.27.67-.39,1.11-.14.52-.22.98-.22,1.36,0,.57.12.98.37,1.24.22.22.55.33.98.32.81,0,1.59-.14,2.32-.43.74-.29,1.65-.85,2.69-1.67.66-.51,1.15-.91,1.47-1.21.33-.31.69-.64,1.08-.99.35-.24.61-.22.88-.05.17.1.26.27.26.47,0,.28-.2.6-.63,1.03-.32.3-.65.61-1,.92-.35.32-.9.76-1.67,1.34-.82.63-1.73,1.13-2.71,1.48-.97.35-1.9.52-2.76.52ZM33.58,56.32s.02,0,.03,0c.8,0,1.67-.17,2.58-.49.92-.33,1.79-.81,2.57-1.41.76-.57,1.3-1,1.64-1.31.35-.32.68-.62.99-.91.44-.43.47-.61.47-.66-.12-.11-.18-.09-.31,0-.36.32-.71.65-1.04.96-.34.32-.83.72-1.51,1.25-1.08.85-2.03,1.43-2.82,1.74-.79.31-1.63.46-2.51.46h-.03c-.56,0-1.01-.16-1.32-.48-.35-.35-.52-.89-.52-1.6,0-.43.08-.93.24-1.49.15-.56.33-1.03.52-1.4l.1-.19.2.06c.12.03.25.07.4.09.15.03.32.03.51.04,1.09,0,2.22-.39,3.35-1.15,1.2-.83,1.82-1.77,1.82-2.77,0-.36-.09-.63-.27-.8-.18-.17-.51-.28-.88-.26-.52,0-1.07.16-1.62.48-.58.33-1.15.76-1.69,1.27-.36.34-.69.69-1,1.06-.3.36-.57.73-.81,1.11-.86,1.34-1.29,2.66-1.3,3.92,0,.71.19,1.3.59,1.79.39.47.91.7,1.61.71h0ZM33.59,50.6h-.02c-.15,0-.3-.02-.44-.07l-.31-.11.17-.28c.27-.43.56-.84.87-1.2.31-.36.71-.77,1.19-1.21,1.03-.94,1.92-1.4,2.73-1.4h0c.28,0,.5.08.64.22.13.13.19.3.19.51,0,.79-.56,1.58-1.71,2.42-.5.36-1.03.64-1.58.82-.55.19-1.13.28-1.74.28ZM37.78,46.86c-.66,0-1.46.43-2.38,1.27-.46.43-.85.82-1.15,1.17-.21.24-.41.51-.6.79.53,0,1.04-.09,1.51-.25.5-.17.99-.42,1.45-.75.99-.73,1.49-1.4,1.49-2.01,0-.07-.01-.12-.04-.14-.04-.04-.12-.05-.28-.07Z"/>
    <path class="cls-1" d="M40.44,57.06h0c-.44,0-.7-.23-.7-.62,0-.13.05-.29.14-.47.08-.14.14-.26.2-.35l2.48-4.94c1.4-2.81,1.57-3.37,1.58-3.48,0-.39.25-.64.65-.64.49,0,.78.31.78.81,0,.11-.03.32-.27.92-.17.42-.38.89-.65,1.44-.08.17-.15.33-.23.48.13-.13.26-.26.39-.39.55-.55,1.14-1.1,1.75-1.63,1.81-1.56,3.17-2.32,4.18-2.32h0c.4,0,.71.11.92.32.2.2.3.49.3.85,0,.59-.48,1.84-1.44,3.81-1.15,2.35-1.39,3.23-1.39,3.56,0,.05,0,.09,0,.11,0-.01.06-.02.15-.06.14-.06.3-.09.46-.09.45,0,.72.27.72.7,0,.54-.5.81-1.44.8-.44,0-.77-.12-.98-.35-.21-.22-.32-.52-.31-.88,0-.93.46-2.27,1.39-4.12,1.16-2.26,1.33-2.91,1.33-3.09,0-.07-.01-.09-.01-.09-.21.02-.71.19-1.77.98-.96.72-1.93,1.55-2.9,2.49-.96.94-1.89,2.02-2.76,3.22l-1.93,2.65c-.15.23-.38.35-.65.35ZM44.79,47.08c-.12,0-.13.02-.13.12,0,.14,0,.42-1.64,3.7l-2.49,4.96c-.06.11-.13.22-.2.35-.08.14-.08.2-.08.22,0,.06,0,.1.18.1h0c.1,0,.16-.04.23-.13l1.94-2.66c.89-1.23,1.83-2.33,2.82-3.29.98-.95,1.97-1.81,2.95-2.53.97-.72,1.63-1.06,2.11-1.06h0c.25,0,.51.16.5.59,0,.26-.15.89-1.39,3.32-.88,1.75-1.33,3.05-1.33,3.89,0,.23.06.4.17.52.12.12.35.18.63.18.29,0,.9-.03.9-.29,0-.13-.02-.18-.21-.18-.09,0-.19.02-.28.05-.16.06-.27.08-.35.08-.17,0-.28-.07-.34-.14-.11-.11-.16-.27-.16-.48,0-.56.47-1.79,1.44-3.78,1.15-2.34,1.39-3.24,1.39-3.59,0-.22-.05-.38-.15-.48-.11-.11-.29-.17-.55-.17h0c-.87,0-2.16.74-3.84,2.2-.6.52-1.18,1.06-1.72,1.6-.56.55-1.12,1.15-1.67,1.79l-.42-.3c.29-.5.66-1.24,1.1-2.17.26-.54.47-1,.63-1.41.22-.54.23-.69.23-.73,0-.25-.08-.29-.26-.29Z"/>
    <path class="cls-1" d="M54.57,56.3h-.02c-.82,0-1.44-.24-1.86-.72-.41-.47-.62-1.15-.61-2.05,0-.8.2-1.65.58-2.52.38-.86.88-1.67,1.5-2.4.62-.74,1.32-1.35,2.09-1.81.77-.47,1.58-.72,2.39-.72h.02c.77,0,1.34.31,1.7.9.33.55.5,1.17.5,1.84,0,.85-.18,1.73-.52,2.6-.34.87-.81,1.68-1.39,2.41-.59.73-1.26,1.33-2,1.78-.75.45-1.55.69-2.37.69ZM58.64,46.6c-.71,0-1.42.21-2.11.64-.72.44-1.38,1.01-1.96,1.71-.59.7-1.07,1.47-1.43,2.28-.35.8-.53,1.58-.54,2.31,0,.76.16,1.34.48,1.7.32.36.8.54,1.47.54h.02c.73,0,1.43-.2,2.1-.61.69-.42,1.31-.98,1.86-1.66.55-.69.99-1.45,1.32-2.27.32-.82.48-1.63.49-2.42,0-.57-.14-1.1-.42-1.57-.26-.43-.67-.65-1.26-.65h-.02ZM54.53,55.42h0c-.5,0-.88-.16-1.14-.47-.25-.3-.37-.73-.37-1.28,0-.62.18-1.32.53-2.09.34-.76.78-1.49,1.32-2.18.54-.69,1.12-1.27,1.73-1.72.64-.46,1.25-.7,1.83-.7.44,0,.81.14,1.1.44.29.29.43.68.43,1.17,0,.74-.13,1.49-.38,2.25-.25.75-.61,1.46-1.07,2.11-.47.65-1.02,1.2-1.65,1.63-.62.43-1.31.7-2.05.8-.08.03-.17.04-.27.04ZM58.42,47.5c-.47,0-.98.2-1.53.6-.57.42-1.12.96-1.63,1.62-.51.65-.93,1.35-1.25,2.07-.32.7-.48,1.34-.48,1.88,0,.43.08.75.25.95.16.19.4.28.75.28.02,0,.04,0,.06,0h.01s.09-.02.09-.02c.67-.08,1.3-.33,1.86-.72.58-.4,1.09-.9,1.52-1.51.43-.6.77-1.27,1-1.97.23-.7.35-1.4.35-2.09,0-.35-.09-.62-.28-.81-.19-.19-.42-.28-.72-.28,0,0,0,0-.01,0Z"/>
    <path class="cls-1" d="M62.01,57.37h-.02c-.57,0-.99-.1-1.29-.3-.33-.22-.5-.56-.5-.98,0-.47.17-.95.51-1.41.32-.44.7-.84,1.13-1.2.43-.35.84-.63,1.23-.82.12-.06.28-.12.5-.18.23-.06.41-.09.55-.09.36,0,.48.23.48.43,0,.26-.25.43-.44.53-.82.39-1.45.85-1.89,1.37-.53.63-.64.99-.65,1.19,0,.16.2.24.59.24h0c.43,0,.92-.11,1.44-.33.53-.22,1.05-.53,1.54-.89.48-.37.89-.76,1.2-1.18.29-.39.45-.76.45-1.11,0-.22-.07-.41-.2-.58-.14-.17-.37-.31-.7-.41l-1.81-.56c-.5-.16-.88-.38-1.11-.66-.24-.28-.36-.61-.36-.96,0-.61.24-1.17.7-1.66.44-.46.99-.83,1.65-1.1.65-.26,1.28-.4,1.9-.4h.01c.63,0,1.2.16,1.68.47.51.34.77.79.77,1.36,0,.32-.1.63-.28.91-.26.39-.55.47-.75.47-.45,0-.72-.24-.72-.65,0-.15.07-.32.2-.5.07-.09.1-.17.1-.24,0-.19-.06-.31-.2-.4-.17-.11-.43-.16-.82-.17-.41,0-.83.09-1.25.26-.42.18-.76.41-1.03.69-.25.26-.37.54-.37.84,0,.31.57.53.91.64l1.76.56c.59.19.99.44,1.23.78.23.33.35.7.34,1.1,0,.9-.55,1.82-1.61,2.74-1.67,1.47-3.31,2.21-4.88,2.21ZM63.75,52.97s-.03,0-.04.01c-.17.05-.31.1-.4.14-.35.18-.74.43-1.13.76-.4.33-.75.7-1.04,1.1-.27.38-.41.74-.41,1.11,0,.25.08.42.27.55.21.14.55.21,1.01.21h0s.01,0,.02,0c1.44,0,2.97-.7,4.54-2.08.95-.82,1.43-1.61,1.43-2.35,0-.29-.08-.56-.25-.8-.17-.24-.49-.43-.96-.58l-1.76-.56c-.31-.1-1.28-.39-1.28-1.13,0-.43.18-.83.52-1.19.32-.33.72-.61,1.2-.81.48-.2.96-.3,1.45-.3h.01c.48,0,.83.08,1.09.25.28.19.43.48.43.84,0,.18-.07.37-.2.55-.1.13-.1.19-.1.19,0,.07,0,.12.21.12.04,0,.16,0,.32-.24.13-.2.19-.4.19-.63,0-.39-.17-.69-.54-.93-.39-.26-.86-.39-1.4-.39h-.01c-.55,0-1.12.12-1.7.36-.59.24-1.08.57-1.46.97-.37.39-.55.82-.55,1.3,0,.23.08.44.24.63.17.2.46.37.87.5l1.81.56c.43.12.76.32.96.58.21.27.31.57.31.9,0,.46-.19.93-.55,1.42-.34.46-.78.89-1.3,1.28-.52.39-1.08.72-1.65.96-.59.25-1.14.37-1.64.37h-.01c-.97,0-1.11-.48-1.11-.76,0-.42.25-.91.77-1.52.45-.54,1.09-1.02,1.88-1.41Z"/>
    <path class="cls-1" d="M86.61,59.02h0c-.2,0-.42-.08-.68-.25-.23-.15-.4-.3-.53-.45-.25-.32-.41-.69-.49-1.11-.07-.4-.11-.84-.11-1.31,0-.39.02-.81.05-1.27.01-.21.03-.43.06-.65-.34.35-.7.69-1.08,1.02-.61.53-1.23.97-1.87,1.3-.66.35-1.27.51-1.87.52-.76,0-1.34-.22-1.73-.64-.39-.42-.58-1.03-.58-1.83,0-1.57.57-3.1,1.66-4.54.55-.71,1.17-1.39,1.85-2.03.69-.65,1.43-1.19,2.2-1.6.78-.42,1.57-.63,2.34-.63h.01c.5,0,.95.16,1.35.47,0,0,0-.01,0-.02.07-.17.17-.39.3-.65.43-.93.93-1.93,1.47-2.97.54-1.04,1.03-1.91,1.45-2.58.54-.84,1.05-1.24,1.57-1.24h0c.21,0,.7.1.69.95,0,.84-.75,2.68-2.28,5.63-.1.17-.26.46-.49.89-.23.43-.5.92-.8,1.48-.3.56-.61,1.11-.93,1.66-.31.55-.6,1.04-.84,1.47-.23.4-.41.69-.52.87-.2.79-.35,1.56-.46,2.28-.11.72-.17,1.48-.17,2.25,0,.28,0,.54.04.78.02.2.07.36.15.46.06.08.14.15.22.19.1.06.21.11.34.16.31.08.5.31.5.63,0,.23-.08.75-.83.75ZM85.64,52.37l-.13.87c-.07.5-.13.97-.16,1.42-.03.44-.04.85-.05,1.23,0,.44.03.85.1,1.21.06.34.19.63.38.88.09.1.23.22.42.34.22.14.34.16.39.16h0c.31,0,.31-.12.31-.23,0-.05,0-.1-.13-.13-.19-.07-.33-.14-.45-.21-.14-.08-.26-.19-.37-.32-.14-.19-.23-.43-.26-.73-.03-.26-.04-.54-.04-.84,0-.8.06-1.58.18-2.33.11-.75.28-1.55.48-2.37l.04-.08c.11-.16.29-.45.53-.87.25-.43.53-.92.84-1.46.31-.55.62-1.1.92-1.65s.57-1.05.8-1.48c.23-.43.39-.73.49-.9,1.82-3.52,2.21-4.87,2.21-5.38,0-.43-.12-.43-.18-.43h0c-.32,0-.71.35-1.13,1-.41.66-.89,1.51-1.43,2.54-.54,1.03-1.03,2.03-1.46,2.96-.13.25-.22.46-.29.62-.07.17-.12.3-.16.38l-.16.32-.25-.26c-.37-.38-.79-.56-1.27-.56h0c-.68,0-1.39.19-2.09.56-.73.39-1.44.9-2.09,1.52-.66.62-1.26,1.28-1.79,1.96-1.03,1.35-1.55,2.78-1.56,4.23,0,.66.14,1.16.44,1.47.29.31.74.47,1.35.47.52.02,1.05-.15,1.62-.46.6-.32,1.19-.73,1.77-1.24.59-.51,1.12-1.04,1.59-1.57l.58-.67ZM79.9,56h0c-.45,0-1.22-.21-1.21-1.55,0-1.42.49-2.79,1.44-4.05.46-.57,1-1.16,1.61-1.75.62-.61,1.29-1.13,1.97-1.55.7-.43,1.36-.65,1.96-.65h0c.62,0,1.11.28,1.45.81l.07.11-.05.12c-.24.61-.45,1.23-.65,1.85-.19.61-.36,1.24-.51,1.87l-.04.09c-.35.5-.74.99-1.15,1.46-.41.47-.86.93-1.34,1.37-.54.5-1.13.94-1.74,1.3-.63.37-1.24.57-1.82.57ZM79.89,55.48h0c.48,0,1-.17,1.55-.49.58-.34,1.13-.76,1.65-1.24.47-.43.91-.88,1.31-1.33.38-.44.75-.91,1.09-1.38.15-.63.32-1.25.51-1.86.18-.58.39-1.17.61-1.75-.24-.31-.55-.47-.94-.47h0c-.5,0-1.07.19-1.69.57-.65.4-1.29.89-1.88,1.48-.6.58-1.13,1.15-1.57,1.7-.88,1.16-1.33,2.42-1.33,3.73,0,1.03.49,1.03.7,1.03h0ZM88.17,47.42l-.47-.21c.37-1.09.81-2.19,1.31-3.26.5-1.07,1.14-2.1,1.88-3.06l.45.25c-.33.92-.78,1.91-1.32,2.95-.53,1.02-1.14,2.12-1.86,3.34Z"/>
    <path class="cls-1" d="M91.77,57.09h-.03c-.85,0-1.52-.31-2.01-.9-.47-.58-.71-1.29-.71-2.12,0-1.36.47-2.77,1.38-4.2.25-.39.53-.78.85-1.16.32-.38.67-.75,1.04-1.1.57-.54,1.17-1,1.79-1.35.63-.36,1.27-.55,1.88-.55h0c.53,0,.94.14,1.23.41.29.27.43.67.43,1.18,0,1.18-.69,2.26-2.05,3.19-1.23.82-2.45,1.24-3.64,1.24-.22,0-.43-.01-.6-.05-.08-.01-.16-.03-.24-.05-.14.3-.27.67-.39,1.11-.14.52-.22.98-.22,1.36,0,1.06.42,1.55,1.33,1.56,0,0,.02,0,.03,0,.81,0,1.59-.14,2.32-.43.74-.29,1.65-.85,2.69-1.67.66-.51,1.15-.91,1.47-1.21.33-.31.69-.64,1.08-.99.18-.12.33-.17.47-.17.11,0,.28.04.41.12.17.1.26.27.26.47,0,.28-.2.6-.63,1.03-.32.3-.65.61-1,.92-.35.32-.9.76-1.67,1.34-.82.63-1.74,1.13-2.71,1.48-.97.35-1.89.53-2.76.53ZM91.75,56.57c.82.02,1.68-.16,2.61-.49.92-.33,1.79-.81,2.57-1.4.76-.57,1.3-1,1.64-1.31.35-.32.68-.62.99-.91.44-.43.47-.61.47-.66-.06-.06-.11-.07-.15-.07h0s-.07,0-.16.06c-.36.32-.71.65-1.04.96-.34.32-.83.72-1.51,1.25-1.08.85-2.03,1.43-2.82,1.74-.8.31-1.65.46-2.54.46-.85,0-1.85-.37-1.84-2.08,0-.43.08-.93.24-1.49.15-.56.33-1.03.52-1.4l.1-.19.2.06c.12.03.25.07.4.09.15.03.31.04.51.04,1.09,0,2.22-.39,3.35-1.15,1.2-.83,1.82-1.77,1.82-2.77,0-.36-.09-.63-.27-.8-.18-.17-.49-.26-.88-.26-.52,0-1.07.16-1.62.48-.58.33-1.15.76-1.69,1.27-.36.34-.69.69-1,1.06-.3.36-.57.73-.81,1.11-.86,1.34-1.29,2.66-1.3,3.92,0,.71.19,1.3.59,1.79.39.47.91.7,1.61.71h0ZM91.76,50.86c-.14,0-.31-.02-.46-.07l-.31-.11.17-.28c.27-.43.56-.84.87-1.2.31-.36.71-.77,1.19-1.21,1.03-.94,1.92-1.4,2.73-1.4h0c.28,0,.5.08.64.22.13.13.19.3.19.51,0,.79-.56,1.58-1.71,2.42-.5.36-1.04.64-1.58.82-.55.19-1.13.28-1.74.28ZM95.96,47.11c-.66,0-1.46.43-2.38,1.27-.46.43-.85.82-1.15,1.17-.21.24-.41.51-.6.79.53,0,1.04-.09,1.51-.25.5-.17.99-.42,1.45-.75.99-.73,1.49-1.4,1.49-2.01,0-.07-.01-.12-.04-.14-.04-.04-.16-.06-.28-.07Z"/>
  </g>
  <g>
    <path class="cls-1" d="M21.17,56.77c-.84,0-1.49-.27-1.93-.79-.45-.52-.67-1.22-.66-2.08,0-.62.12-1.37.34-2.25.39-1.48,1.05-3.2,1.97-5.15.72-1.48,1.5-2.93,2.33-4.37.83-1.43,1.74-2.84,2.74-4.23,1.58-2.23,2.69-3.34,3.31-3.34.4,0,.6.11.6.33,0,.31-.52,1.09-1.55,2.33l-1.93,2.33c-1.67,2.01-3.04,4.06-4.1,6.16s-1.89,4.2-2.48,6.3c-.17.6-.25,1.17-.25,1.7,0,1.39.56,2.09,1.69,2.09.4,0,.81-.11,1.24-.35.42-.22.65-.33.69-.33.22,0,.33.16.33.47,0,.28-.1.48-.31.63-.62.36-1.29.54-2.01.54Z"/>
    <path class="cls-1" d="M27.48,56.8c-.84,0-1.49-.27-1.93-.79-.45-.52-.67-1.21-.66-2.08,0-.62.12-1.37.34-2.25.39-1.48,1.05-3.2,1.97-5.15.72-1.48,1.5-2.93,2.33-4.37.83-1.43,1.74-2.84,2.74-4.23,1.58-2.23,2.69-3.34,3.31-3.34.4,0,.6.11.6.33,0,.31-.52,1.09-1.55,2.33l-1.93,2.33c-1.67,2.01-3.04,4.06-4.1,6.16-1.06,2.1-1.89,4.2-2.48,6.3-.17.6-.25,1.17-.25,1.7,0,1.39.56,2.09,1.69,2.09.4,0,.81-.11,1.24-.35.42-.22.65-.33.69-.33.22,0,.33.16.33.47,0,.28-.1.48-.3.63-.62.36-1.29.54-2.01.54Z"/>
    <path class="cls-1" d="M33.57,56.58c-.77,0-1.37-.27-1.81-.8-.44-.53-.65-1.18-.65-1.95,0-1.32.45-2.67,1.34-4.06.24-.38.52-.76.83-1.13.31-.37.65-.73,1.02-1.08.55-.53,1.13-.97,1.74-1.31.6-.35,1.19-.52,1.76-.51.93,0,1.4.45,1.39,1.32,0,1.1-.65,2.09-1.93,2.98-1.19.8-2.37,1.2-3.52,1.19-.2,0-.38-.01-.54-.04-.16-.03-.3-.06-.42-.1-.18.35-.35.8-.5,1.34-.15.55-.22,1.02-.23,1.43,0,1.21.52,1.82,1.58,1.82.86,0,1.68-.14,2.45-.44.77-.3,1.69-.87,2.75-1.7.66-.51,1.16-.92,1.49-1.23.33-.31.69-.64,1.08-.98.11-.07.21-.11.3-.11s.18.03.27.08c.09.06.14.14.14.25,0,.2-.19.48-.55.85-.31.29-.64.6-.99.92-.35.32-.9.76-1.65,1.32-.81.62-1.69,1.1-2.64,1.44-.95.34-1.85.51-2.69.51ZM33.57,50.35c.59,0,1.14-.09,1.68-.27.53-.18,1.04-.44,1.51-.79,1.06-.78,1.6-1.52,1.6-2.22,0-.31-.19-.47-.57-.47-.73,0-1.59.44-2.56,1.34-.48.44-.87.83-1.17,1.19-.3.36-.58.75-.84,1.16.11.04.23.06.36.06Z"/>
    <path class="cls-1" d="M40.44,56.8c-.29,0-.44-.12-.44-.36,0-.09.04-.21.11-.34.07-.14.14-.25.19-.34l2.49-4.96c1.07-2.15,1.61-3.35,1.61-3.59,0-.26.13-.38.39-.38.35,0,.52.19.52.55,0,.13-.08.4-.25.82-.17.42-.38.9-.64,1.42-.44.95-.81,1.68-1.11,2.19.55-.64,1.11-1.24,1.68-1.8.57-.57,1.15-1.1,1.74-1.61,1.75-1.51,3.08-2.26,4.02-2.26.64,0,.96.31.96.91,0,.55-.48,1.78-1.42,3.7-.94,1.94-1.41,3.16-1.42,3.67,0,.24.08.36.25.36.05,0,.14-.02.26-.07.12-.05.24-.07.37-.07.31,0,.47.15.46.44,0,.37-.4.55-1.18.54-.37,0-.63-.09-.79-.26-.16-.18-.25-.41-.24-.7,0-.88.46-2.21,1.36-4,.91-1.77,1.36-2.84,1.36-3.2,0-.22-.08-.33-.25-.33-.4,0-1.05.33-1.95,1.01-.97.73-1.95,1.57-2.92,2.51-.97.95-1.9,2.03-2.79,3.26l-1.93,2.65c-.11.16-.26.24-.44.24Z"/>
    <path class="cls-1" d="M54.55,56.04c-1.48,0-2.22-.84-2.21-2.51,0-.77.19-1.57.56-2.41.37-.84.86-1.62,1.47-2.34.61-.72,1.28-1.31,2.03-1.76.74-.46,1.5-.68,2.27-.68.68,0,1.17.26,1.48.78.31.51.46,1.08.46,1.7,0,.82-.17,1.66-.5,2.51-.33.85-.78,1.63-1.35,2.34-.57.71-1.21,1.29-1.93,1.72-.72.43-1.47.65-2.25.65ZM54.53,55.16c.11,0,.17,0,.19-.03.71-.09,1.37-.34,1.98-.76.61-.42,1.13-.94,1.59-1.57s.8-1.31,1.04-2.04c.24-.73.36-1.45.37-2.17,0-.42-.12-.75-.35-.99-.24-.24-.54-.36-.9-.36-.53,0-1.09.21-1.69.65-.6.44-1.16,1-1.68,1.67-.53.68-.95,1.38-1.29,2.12-.33.74-.5,1.4-.5,1.99,0,.99.41,1.49,1.26,1.49Z"/>
    <path class="cls-1" d="M61.99,57.11c-1.03,0-1.54-.34-1.53-1.02,0-.42.15-.84.46-1.26s.67-.8,1.09-1.15c.42-.35.82-.61,1.18-.79.11-.05.26-.11.45-.16.19-.05.35-.08.48-.08.15,0,.22.06.22.17,0,.09-.1.19-.3.3-.84.4-1.5.88-1.97,1.44-.47.55-.7,1.01-.71,1.35,0,.33.28.5.85.5.48,0,.99-.12,1.55-.35.56-.24,1.09-.55,1.6-.93.5-.38.92-.79,1.25-1.23.33-.44.5-.86.5-1.26,0-.28-.08-.52-.26-.74-.17-.22-.45-.39-.84-.5l-1.81-.56c-.46-.15-.79-.34-.99-.58-.2-.24-.3-.5-.3-.8,0-.55.21-1.04.63-1.48.41-.44.93-.78,1.55-1.04.62-.25,1.23-.38,1.81-.38.59,0,1.1.15,1.54.43.44.29.66.67.65,1.14,0,.27-.08.53-.24.77s-.34.36-.54.36c-.31,0-.47-.13-.46-.39,0-.09.05-.21.15-.34.1-.14.15-.27.15-.4,0-.55-.42-.83-1.26-.83-.46,0-.91.09-1.36.28-.45.19-.82.44-1.12.75-.29.31-.44.65-.44,1.01s.36.66,1.09.88l1.75.56c.53.17.9.39,1.1.68.2.28.3.6.3.95,0,.82-.51,1.67-1.52,2.55-1.64,1.44-3.21,2.16-4.73,2.15Z"/>
    <path class="cls-1" d="M86.61,58.76c-.15,0-.33-.07-.53-.21-.21-.14-.37-.27-.48-.4-.22-.28-.36-.61-.43-.99-.07-.38-.11-.81-.1-1.26,0-.38.02-.8.05-1.25.03-.45.08-.93.16-1.44-.48.55-1.02,1.08-1.61,1.6-.6.52-1.2.94-1.82,1.27-.61.33-1.2.49-1.75.49-1.37,0-2.06-.74-2.05-2.21,0-1.52.54-2.98,1.61-4.39.53-.69,1.14-1.36,1.82-1.99.68-.64,1.4-1.16,2.15-1.56.75-.4,1.49-.6,2.23-.6.55,0,1.03.22,1.45.64.04-.07.09-.19.15-.36s.16-.37.29-.63c.44-.95.93-1.94,1.47-2.97s1.01-1.89,1.44-2.56c.48-.75.93-1.12,1.35-1.12.29,0,.44.23.44.69,0,.79-.75,2.63-2.25,5.51-.09.16-.25.46-.49.89-.23.43-.5.92-.8,1.48-.3.56-.61,1.11-.93,1.66-.31.55-.59,1.03-.84,1.46-.25.43-.43.73-.54.89-.2.82-.36,1.6-.48,2.34s-.17,1.5-.17,2.29c0,.29.01.56.04.81.03.25.09.44.2.59.09.11.19.2.3.26.11.06.24.13.38.18.22.06.33.18.33.39,0,.33-.19.49-.58.49ZM79.89,55.74c.53,0,1.09-.17,1.69-.53.6-.35,1.16-.78,1.69-1.27.48-.44.92-.89,1.32-1.35.4-.46.78-.94,1.13-1.44.15-.64.32-1.27.52-1.89.19-.62.41-1.24.65-1.86-.29-.46-.7-.69-1.23-.69-.55,0-1.16.2-1.83.61-.67.41-1.31.91-1.93,1.51-.62.6-1.14,1.18-1.59,1.72-.92,1.22-1.38,2.52-1.39,3.89,0,.86.31,1.29.96,1.29ZM87.95,47.29c.7-1.19,1.32-2.3,1.85-3.33.54-1.03.97-2,1.3-2.92-.74.95-1.35,1.95-1.85,3.01-.5,1.06-.93,2.14-1.3,3.24Z"/>
    <path class="cls-1" d="M91.75,56.83c-.77,0-1.37-.27-1.81-.8-.44-.53-.65-1.18-.65-1.95,0-1.32.45-2.67,1.34-4.06.24-.38.52-.76.83-1.13.31-.37.65-.73,1.02-1.08.55-.53,1.13-.97,1.74-1.31.6-.35,1.19-.52,1.76-.51.93,0,1.4.45,1.39,1.32,0,1.1-.65,2.09-1.93,2.98-1.19.8-2.37,1.2-3.52,1.19-.2,0-.38-.01-.54-.04-.16-.03-.3-.06-.42-.1-.18.35-.35.8-.5,1.34-.15.55-.22,1.02-.23,1.43,0,1.21.52,1.81,1.58,1.82.86,0,1.68-.14,2.45-.44.77-.3,1.69-.87,2.75-1.7.66-.51,1.16-.92,1.49-1.23.33-.31.69-.64,1.08-.98.11-.07.21-.11.3-.11.09,0,.18.03.27.08.09.06.14.14.14.25,0,.2-.19.48-.55.85-.31.29-.64.6-.99.92-.35.32-.9.76-1.65,1.32-.81.62-1.69,1.1-2.64,1.44-.95.34-1.85.51-2.69.51ZM91.75,50.6c.59,0,1.14-.09,1.68-.27.53-.18,1.04-.45,1.51-.79,1.06-.78,1.6-1.52,1.6-2.22,0-.31-.19-.47-.57-.47-.73,0-1.59.44-2.56,1.34-.48.44-.87.83-1.17,1.19-.3.36-.58.75-.84,1.16.11.04.23.06.36.06Z"/>
  </g>
  <g>
    <path class="cls-1" d="M16.59,87.64h0c-.52,0-.91-.2-1.18-.58-.25-.36-.37-.86-.36-1.53,0-1.66.72-4.2,2.17-7.77.24-.59.54-1.21.87-1.86.34-.66.74-1.35,1.17-2.04.45-.76.9-1.44,1.32-2.02.41-.56.79-1.03,1.11-1.39.15-.15.27-.23.38-.28.12-.05.22-.08.32-.07.5,0,1.08.15,1.72.44.63.29,1.19.66,1.68,1.09.46.39.84.86,1.12,1.39.29.55.44,1.13.44,1.72,0,.43-.09.87-.26,1.31-.09.24-.2.48-.33.72.33-.11.69-.26,1.1-.45.66-.32,1.35-.81,2.04-1.46.08-.08.23-.18.48-.18.62,0,.67.45.67.59,0,.14-.05.3-.16.48-.09.16-.25.34-.47.56-1.38,1.26-3.05,1.99-4.96,2.18-.26.26-.54.53-.85.79-.33.27-.68.52-1.03.74-1.1.66-2.06.99-2.85.99h0c-.38,0-.7-.13-.95-.38-.25-.25-.38-.55-.37-.87,0-.96.81-1.69,2.39-2.16.57-.15,1.1-.28,1.62-.38.49-.1.98-.21,1.46-.32.33-.52.58-.97.74-1.35.16-.39.24-.72.24-.97,0-.87-.68-1.73-2.03-2.56-.55-.34-.89-.44-1.09-.46-1.45,1.61-2.85,3.88-4.16,6.75-1.38,3-2.09,5.39-2.09,7.1,0,.51.06.69.08.74.02.04.05.07.15.07.05,0,.07,0,.07,0,.06-.01.12-.02.17-.02.39,0,.61.27.61.7,0,.23-.1.75-.94.75ZM16.59,87.12h0c.42,0,.42-.15.42-.23,0-.18-.04-.18-.1-.18-.1.02-.17.03-.25.03-.28,0-.5-.13-.61-.36-.09-.19-.14-.5-.13-.97,0-1.79.73-4.25,2.14-7.32,1.35-2.97,2.81-5.32,4.33-6.97l.07-.08h.11c.39-.02.87.15,1.49.53,1.52.93,2.28,1.94,2.28,3,0,.33-.09.71-.29,1.17-.18.43-.46.93-.84,1.52l-.06.09-.1.02c-.52.13-1.04.25-1.58.35-.51.1-1.02.22-1.58.37-1.33.39-2.01.95-2.01,1.66,0,.19.07.35.22.51.15.15.34.24.59.23.7,0,1.57-.31,2.58-.91.33-.21.66-.44.97-.7.32-.26.61-.54.87-.81l.07-.07h.1c1.84-.18,3.43-.87,4.75-2.06.18-.18.31-.33.38-.45.08-.14.09-.2.09-.21,0-.04-.04-.07-.15-.07-.06,0-.1.01-.12.03-.73.69-1.47,1.21-2.18,1.55-.7.33-1.31.55-1.81.64l-.59.11.33-.51c.24-.38.45-.77.6-1.17.14-.38.22-.76.22-1.13,0-.5-.12-1-.37-1.47-.25-.48-.59-.9-1-1.25-.45-.41-.98-.74-1.56-1.01-.57-.26-1.08-.39-1.51-.39h0s-.04,0-.1.03c-.03.01-.1.05-.21.17-.3.33-.66.79-1.06,1.34-.41.57-.85,1.23-1.3,1.98-.43.69-.82,1.37-1.15,2.01-.33.63-.61,1.24-.85,1.81-1.41,3.46-2.12,6.01-2.13,7.58,0,.56.09.97.27,1.23.16.24.41.35.75.35h0ZM20.91,80.14c-.14-.01-.31-.05-.4-.15-.06-.06-.14-.18-.14-.37,0-.74,1.08-1.05,1.43-1.15.52-.15.9-.25,1.16-.3.27-.05.56-.1.86-.14l.88-.11-.69.57c-1.34,1.1-2.36,1.64-3.1,1.64ZM22.86,78.73c-.23.05-.53.14-.92.25-.67.19-1.05.43-1.05.65h.02s0-.01,0-.01c.34,0,.94-.17,1.95-.89Z"/>
    <path class="cls-1" d="M32.95,80.63h-.03c-.85,0-1.52-.3-2.01-.9-.47-.58-.71-1.29-.71-2.12,0-1.36.47-2.77,1.38-4.19.24-.39.53-.78.85-1.16.32-.38.67-.75,1.04-1.1.56-.54,1.16-.99,1.78-1.35.64-.36,1.27-.55,1.87-.55h.02c.53,0,.94.14,1.22.4.29.27.43.67.43,1.18,0,1.18-.69,2.26-2.05,3.19-1.23.82-2.45,1.24-3.64,1.24h-.02c-.24,0-.42-.02-.58-.05-.08-.01-.16-.03-.24-.05-.14.3-.27.67-.39,1.11-.14.52-.22.98-.22,1.36,0,1.06.42,1.55,1.33,1.56.8,0,1.61-.14,2.35-.43.75-.29,1.65-.85,2.69-1.67.64-.49,1.14-.9,1.47-1.21.33-.31.69-.64,1.08-.99.36-.24.61-.22.88-.05.17.1.26.27.26.47,0,.28-.2.61-.63,1.03-.32.3-.65.6-1,.92-.34.31-.89.75-1.67,1.34-.82.63-1.73,1.13-2.71,1.48-.96.35-1.89.52-2.76.52ZM37.13,69.77c-.51,0-1.06.16-1.61.48-.59.33-1.15.76-1.69,1.27-.36.34-.7.69-1,1.06-.31.37-.58.74-.81,1.11-.86,1.34-1.29,2.66-1.3,3.92,0,.71.19,1.3.59,1.79.39.47.92.71,1.61.71h0s.02,0,.03,0c.8,0,1.67-.17,2.58-.49.92-.34,1.79-.81,2.57-1.41.77-.58,1.31-1.01,1.63-1.31.35-.32.68-.62.99-.91.45-.44.47-.63.47-.66-.06-.05-.11-.07-.15-.07-.02,0-.07,0-.16.07-.35.32-.71.65-1.04.96-.35.32-.85.74-1.51,1.24-1.07.84-2.02,1.43-2.82,1.74-.8.31-1.66.46-2.54.46-.85,0-1.85-.37-1.84-2.08,0-.42.08-.93.24-1.49.15-.56.33-1.03.52-1.4l.1-.19.2.06c.12.04.25.07.39.09.14.03.29.05.51.04,1.09,0,2.21-.39,3.35-1.15,1.2-.83,1.82-1.77,1.82-2.77,0-.36-.09-.63-.26-.8-.18-.17-.48-.26-.87-.26,0,0-.01,0-.02,0ZM32.95,74.39c-.18,0-.33-.02-.48-.07l-.3-.11.17-.27c.27-.43.56-.83.87-1.19.31-.36.71-.77,1.19-1.21,1.03-.94,1.92-1.4,2.73-1.4h0c.28,0,.5.08.64.22.13.13.19.3.19.51,0,.79-.56,1.58-1.71,2.42-.5.36-1.04.64-1.58.82-.54.19-1.13.28-1.73.28ZM37.13,70.65c-.66,0-1.46.43-2.38,1.26-.47.43-.85.82-1.15,1.17-.21.25-.41.51-.6.79.52,0,1.03-.09,1.51-.25.5-.17.99-.42,1.45-.75.99-.73,1.49-1.4,1.49-2.01,0-.07-.01-.12-.04-.14-.04-.04-.14-.05-.29-.07Z"/>
    <path class="cls-1" d="M39.82,80.85c-.23,0-.42-.06-.54-.19-.08-.08-.16-.21-.16-.43,0-.15.04-.31.13-.46.06-.1.11-.19.15-.26l2.52-5.04c1.4-2.82,1.57-3.37,1.58-3.48,0-.19.06-.35.17-.47.12-.11.26-.18.47-.17.49,0,.78.3.78.78,0,.22-.09.54-.27.97-.17.41-.39.88-.65,1.41-.08.17-.15.33-.23.48.13-.13.26-.26.39-.39.57-.56,1.16-1.11,1.75-1.63,1.81-1.56,3.18-2.32,4.18-2.32h0c.79,0,1.22.42,1.22,1.17,0,.35-.06.61-.19.8-.14.22-.37.33-.65.33h0c-.21,0-.5-.11-.66-.66-.03-.14-.08-.14-.14-.14h0c-.12,0-.51.09-1.66.96-.98.72-1.97,1.58-2.96,2.57-.98.98-2.05,2.26-3.16,3.8l-1.38,1.92c-.09.11-.16.19-.23.26-.08.08-.22.17-.46.17ZM44.13,70.88c-.07,0-.09.01-.1.02,0,0-.02.04-.02.11,0,.13,0,.42-1.64,3.7l-2.52,5.04c-.04.08-.09.18-.16.29-.04.07-.06.13-.06.19,0,.04,0,.06.01.07,0,0,.03.03.17.03h0c.07.02.1-.01.1-.02.06-.06.12-.13.19-.21l1.37-1.9c1.13-1.56,2.21-2.86,3.21-3.86,1.01-1.01,2.02-1.89,3.02-2.62,1.25-.94,1.71-1.06,1.97-1.06h0c.32,0,.55.2.63.53.06.2.11.28.16.27.13,0,.18-.05.21-.1.05-.07.1-.22.1-.52,0-.46-.2-.65-.7-.65h0c-.86,0-2.16.74-3.84,2.2-.58.51-1.16,1.05-1.72,1.6-.56.55-1.12,1.15-1.67,1.79l-.42-.3c.29-.49.65-1.2,1.1-2.17.26-.53.47-.99.63-1.39.2-.48.23-.69.23-.78,0-.21-.06-.26-.26-.26h0Z"/>
    <path class="cls-1" d="M50.32,81.11h-.02c-1.48,0-1.79-.7-1.79-1.28,0-.47.17-.95.51-1.41.32-.44.7-.84,1.14-1.2.43-.35.84-.63,1.23-.82.13-.06.3-.12.5-.18.22-.06.4-.09.55-.09.33,0,.48.21.48.43,0,.26-.25.43-.44.53-.82.39-1.45.85-1.89,1.37-.53.63-.64.99-.64,1.19,0,.07.02.09.04.11.04.04.19.12.57.12.43,0,.91-.11,1.43-.33.53-.22,1.05-.52,1.54-.89.48-.37.89-.76,1.2-1.18.29-.39.45-.76.45-1.11,0-.22-.07-.41-.2-.58-.14-.18-.37-.31-.7-.41l-1.82-.56c-.5-.16-.87-.38-1.11-.66-.24-.29-.36-.61-.36-.97,0-.61.24-1.17.7-1.66.43-.46.99-.83,1.64-1.1.65-.26,1.28-.4,1.89-.4h.03c.63,0,1.19.16,1.67.47.51.34.77.8.77,1.36,0,.32-.1.63-.28.91-.26.39-.57.49-.76.47-.45,0-.72-.24-.72-.65,0-.15.07-.32.2-.5.07-.09.1-.17.1-.24,0-.19-.06-.31-.2-.4-.17-.11-.43-.16-.82-.17-.41,0-.83.09-1.25.26-.41.18-.76.41-1.03.69-.25.26-.37.54-.37.84,0,.31.57.53.91.63l1.76.56c.59.18.99.44,1.23.77.23.33.35.7.34,1.1,0,.9-.55,1.82-1.61,2.74-1.67,1.47-3.31,2.21-4.88,2.21ZM50.3,80.6s.01,0,.02,0c1.44,0,2.96-.7,4.54-2.09.95-.82,1.43-1.61,1.43-2.35,0-.29-.08-.56-.25-.8-.16-.23-.49-.43-.96-.58l-1.76-.56c-.85-.26-1.28-.64-1.28-1.13,0-.43.18-.83.52-1.19.31-.33.72-.61,1.2-.81.48-.2.97-.3,1.45-.3h.01c.48,0,.83.08,1.09.25.28.19.43.48.43.84,0,.18-.07.37-.2.55-.1.13-.1.19-.1.19,0,.07,0,.12.21.12h0c.11,0,.21-.08.32-.24.13-.19.19-.41.19-.63,0-.39-.17-.69-.54-.93-.39-.26-.86-.39-1.39-.39,0,0-.01,0-.02,0-.54,0-1.11.12-1.69.36-.59.24-1.08.57-1.46.98-.37.39-.55.82-.55,1.3,0,.23.08.44.24.63.17.2.46.37.87.5l1.81.56c.43.13.76.32.96.58.21.27.31.57.31.9,0,.46-.19.94-.55,1.42-.34.46-.78.89-1.3,1.28-.52.4-1.08.72-1.65.96-.58.25-1.13.37-1.63.37-.44.01-.75-.09-.94-.28-.13-.13-.19-.29-.19-.48,0-.41.25-.91.77-1.52.45-.54,1.09-1.01,1.88-1.41-.01,0-.03,0-.04.01-.21.06-.34.11-.41.15-.35.18-.74.43-1.13.76-.4.33-.76.7-1.05,1.1-.27.38-.41.74-.41,1.11,0,.21,0,.76,1.28.76h0Z"/>
    <path class="cls-1" d="M60.51,80.12h-.02c-1.13,0-2.48-.49-2.47-2.77,0-.8.2-1.65.58-2.51.37-.85.88-1.66,1.5-2.41.63-.74,1.33-1.35,2.09-1.82.77-.47,1.58-.71,2.38-.71h.02c.77,0,1.34.3,1.7.9.33.55.5,1.17.5,1.84,0,.85-.18,1.73-.52,2.6-.34.87-.81,1.68-1.39,2.41-.59.73-1.26,1.33-2,1.78-.75.46-1.55.69-2.37.69ZM60.49,79.6h.02c.72,0,1.43-.21,2.1-.61.68-.42,1.31-.98,1.86-1.66.55-.69.99-1.45,1.32-2.27.32-.82.48-1.63.49-2.42,0-.58-.13-1.09-.42-1.57-.26-.44-.68-.64-1.27-.65-.71,0-1.42.21-2.12.64-.71.43-1.37,1.01-1.96,1.71-.59.7-1.07,1.47-1.43,2.28-.35.8-.53,1.58-.54,2.31,0,1.53.61,2.24,1.96,2.25h0ZM60.47,79.24h0c-.5,0-.88-.16-1.14-.47-.25-.3-.37-.73-.37-1.28,0-.62.18-1.32.53-2.09.34-.76.78-1.49,1.32-2.18.54-.69,1.12-1.27,1.73-1.72.64-.46,1.25-.7,1.84-.7h0c.44,0,.8.15,1.09.44.29.29.43.69.43,1.17,0,.74-.13,1.49-.38,2.25-.25.75-.61,1.46-1.07,2.11-.47.65-1.02,1.2-1.65,1.63-.63.43-1.31.7-2.05.8-.08.03-.18.04-.27.04ZM64.36,71.32c-.47,0-.99.2-1.53.6-.57.42-1.12.96-1.63,1.62-.51.65-.93,1.35-1.25,2.07-.32.7-.48,1.34-.48,1.88,0,.43.08.75.25.95.16.19.4.28.75.28.02,0,.04,0,.05,0h.01s.09-.03.09-.03c.67-.08,1.29-.32,1.86-.72.58-.4,1.09-.91,1.52-1.51.43-.6.77-1.27,1-1.97.23-.7.35-1.41.35-2.09,0-.35-.09-.61-.28-.81-.19-.19-.42-.3-.73-.28Z"/>
    <path class="cls-1" d="M66.5,80.96h0c-.23,0-.41-.06-.53-.19-.08-.08-.16-.21-.16-.43,0-.13.05-.29.14-.46.08-.14.14-.26.2-.35l2.48-4.94c1.4-2.81,1.57-3.37,1.58-3.48,0-.19.06-.35.17-.47.12-.11.27-.16.47-.17.49,0,.78.31.78.81,0,.11-.03.32-.27.92-.17.42-.38.91-.65,1.44-.08.17-.15.33-.23.48.13-.13.26-.26.39-.39.57-.57,1.16-1.11,1.75-1.62,1.81-1.56,3.18-2.32,4.18-2.32h0c.79,0,1.22.42,1.22,1.17,0,.59-.48,1.84-1.44,3.81-1.15,2.36-1.39,3.24-1.39,3.56,0,.06,0,.09.01.11,0-.01.05-.02.14-.06.14-.06.3-.08.46-.08.45,0,.72.26.72.7,0,.53-.48.8-1.42.8h-.02c-.45,0-.77-.12-.98-.35-.21-.22-.31-.52-.31-.88,0-.93.46-2.27,1.39-4.12,1.16-2.26,1.33-2.91,1.33-3.09,0-.07-.01-.09-.01-.09-.21.02-.72.19-1.77.98-.96.72-1.94,1.56-2.9,2.49-.96.93-1.89,2.01-2.76,3.22l-1.93,2.65c-.15.23-.38.35-.64.35ZM70.85,70.99c-.07,0-.09.01-.1.02,0,0-.02.04-.02.11,0,.14,0,.42-1.64,3.7l-2.49,4.96c-.06.11-.13.22-.2.35-.07.14-.08.2-.08.22,0,.04,0,.06.01.07,0,0,.03.03.17.03h0c.07,0,.15-.01.22-.13l1.94-2.66c.89-1.23,1.84-2.34,2.82-3.29.97-.95,1.96-1.8,2.95-2.53.96-.72,1.63-1.06,2.11-1.06h0c.18,0,.29.07.35.14.1.1.16.26.16.45,0,.26-.15.89-1.39,3.32-.88,1.75-1.33,3.05-1.33,3.89,0,.23.06.4.17.52.12.12.32.18.63.18.29,0,.9-.03.9-.29,0-.13-.02-.18-.21-.18-.1,0-.19.02-.28.05-.17.06-.29.09-.36.08h0c-.16,0-.27-.07-.34-.14-.11-.11-.16-.27-.16-.48,0-.56.47-1.79,1.44-3.79,1.15-2.33,1.39-3.24,1.39-3.59,0-.46-.2-.65-.7-.65h0c-.86,0-2.15.74-3.84,2.2-.58.5-1.16,1.04-1.72,1.6-.55.55-1.11,1.15-1.67,1.79l-.42-.3c.29-.49.66-1.22,1.1-2.17.26-.53.47-1,.63-1.41.22-.55.23-.71.23-.73,0-.25-.08-.29-.26-.29h0Z"/>
    <path class="cls-1" d="M79.56,80.61h-.02c-.61,0-1.08-.16-1.4-.48-.3-.3-.45-.74-.45-1.3,0-.69.18-1.44.51-2.23.33-.77.78-1.54,1.35-2.27.56-.73,1.2-1.41,1.88-2.01.7-.61,1.43-1.1,2.15-1.45.74-.37,1.47-.55,2.17-.55h.01c.65,0,1.16.18,1.5.51.34.34.51.84.51,1.48,0,.58-.11.97-.33,1.19-.13.13-.29.19-.48.19h0c-.47,0-.75-.28-.75-.73,0-.17.04-.34.12-.51.05-.1.07-.22.07-.34,0-.23-.09-.32-.15-.37-.13-.09-.35-.13-.64-.14-1.04,0-2.39.83-4.02,2.46-.39.4-.78.89-1.16,1.44-.38.55-.69,1.11-.93,1.67-.23.54-.35,1.06-.36,1.53,0,.29.09.48.56.48h0c.43,0,.9-.14,1.4-.4.52-.28.99-.58,1.38-.88.79-.59,1.61-1.4,2.44-2.42.13-.15.3-.35.5-.58.2-.24.43-.5.69-.79.15-.15.33-.23.52-.23.44,0,.7.27.7.7v.08s-1.09,1.63-1.09,1.63c-.67.98-1.01,1.77-1.01,2.38,0,.38.15.47.43.46.34,0,.73-.09,1.15-.28.45-.19.81-.39,1.08-.58.58-.38,1.19-.85,1.82-1.41.62-.56,1.24-1.14,1.84-1.72.12-.12.29-.18.5-.18.2,0,.4.06.52.18.07.07.16.2.16.41,0,.28-.15.56-.46.87-.72.72-1.39,1.35-2,1.88-.59.52-1.17.96-1.72,1.3-.36.21-.81.42-1.33.64-.54.23-1.16.34-1.83.34h-.03c-1.03,0-1.6-.61-1.6-1.69,0-.07,0-.14,0-.2-1.5,1.28-2.92,1.92-4.24,1.92ZM85.75,70.84c-.61,0-1.27.17-1.94.5-.68.34-1.37.8-2.04,1.38-.66.57-1.27,1.22-1.81,1.93-.54.7-.97,1.43-1.28,2.16-.31.72-.47,1.4-.47,2.03,0,.42.1.73.3.93.21.21.56.32,1.03.33h0s.01,0,.02,0c1.35,0,2.84-.77,4.45-2.3l.42.28c-.08.21-.12.48-.12.81,0,.81.33,1.17,1.08,1.17,0,0,.02,0,.03,0,.6,0,1.15-.1,1.63-.3.5-.21.92-.42,1.26-.61.52-.32,1.07-.74,1.64-1.24.6-.53,1.26-1.15,1.97-1.86.2-.2.31-.38.31-.5-.01-.05-.07-.07-.16-.07-.08,0-.12.02-.14.03-.6.6-1.23,1.18-1.86,1.75-.65.58-1.28,1.07-1.88,1.46-.3.2-.68.41-1.17.62-.49.21-.94.32-1.36.32h-.01c-.6,0-.94-.36-.94-.98,0-.72.36-1.59,1.1-2.67l1-1.49c-.01-.09-.05-.11-.18-.11-.06,0-.1.02-.15.06-.25.28-.47.54-.67.78-.2.24-.37.43-.5.58-.85,1.05-1.7,1.89-2.52,2.5-.41.32-.9.63-1.45.92-.57.31-1.13.47-1.64.47h0c-.69,0-1.08-.37-1.08-1.01,0-.55.14-1.13.4-1.74.25-.59.58-1.18.98-1.75.4-.58.81-1.09,1.22-1.51,1.76-1.77,3.2-2.62,4.4-2.62.41,0,.71.08.93.25.17.12.36.36.36.79,0,.2-.04.39-.12.56-.05.1-.07.2-.07.29,0,.14.02.21.24.21h0c.05,0,.08-.01.12-.04.05-.05.17-.24.18-.82,0-.5-.12-.88-.36-1.11-.24-.24-.62-.36-1.13-.36h0Z"/>
    <path class="cls-1" d="M94.79,81.14h-.02c-.92,0-1.63-.3-2.13-.88-.49-.57-.73-1.33-.73-2.25,0-.64.12-1.42.35-2.31.39-1.49,1.06-3.24,1.99-5.2.72-1.48,1.51-2.96,2.34-4.39.83-1.44,1.76-2.87,2.75-4.25,2.19-3.08,3.06-3.44,3.51-3.44h0c.75,0,.86.37.86.59,0,.28-.19.79-1.61,2.49l-1.93,2.33c-1.66,1.98-3.03,4.04-4.07,6.11-1.05,2.07-1.88,4.17-2.47,6.26-.16.58-.24,1.13-.24,1.63,0,.69.14,1.19.43,1.48.23.23.56.35,1,.35h0c.35,0,.73-.11,1.1-.32.7-.36.74-.36.82-.36.14,0,.59.06.59.73,0,.35-.14.64-.41.84-.68.4-1.39.59-2.14.59ZM102.86,58.94c-.3,0-1.1.42-3.09,3.23-.99,1.37-1.9,2.79-2.72,4.21-.82,1.42-1.6,2.88-2.32,4.35-.91,1.93-1.57,3.64-1.95,5.11-.22.85-.33,1.58-.33,2.18,0,.79.2,1.43.6,1.91.4.47.97.7,1.74.7h0s.01,0,.02,0c.66,0,1.28-.17,1.85-.5.11-.08.18-.22.18-.41,0-.16-.04-.2-.04-.2,0,0-.07.02-.6.29-.45.25-.9.35-1.36.38-.58,0-1.04-.17-1.37-.5-.39-.39-.59-1.02-.58-1.85,0-.55.09-1.14.26-1.77.6-2.11,1.44-4.25,2.5-6.35,1.06-2.11,2.46-4.19,4.14-6.21l1.93-2.32c1.38-1.66,1.49-2.08,1.49-2.16,0,0-.06-.07-.34-.07h0Z"/>
    <path class="cls-1" d="M99.74,80.73h-.02c-.58,0-1-.12-1.28-.37-.29-.26-.43-.63-.43-1.1,0-.42.13-.96.38-1.66.24-.68.56-1.41.94-2.18.38-.76.79-1.51,1.22-2.21.43-.7.85-1.29,1.26-1.75.46-.52.82-.76,1.14-.76.23,0,.41.06.54.18.1.09.21.25.21.52,0,.15-.05.44-.51,1.17-.32.51-.66,1.05-1.03,1.6l-.07.09c-.14.19-.32.44-.55.74-.26.35-.51.67-.75.98-.23.29-.39.49-.46.6-.17.26-.36.69-.55,1.28-.21.6-.32,1.05-.32,1.35,0,.11.02.15.03.16,0,0,.06.02.26.02.45,0,.89-.13,1.42-.4.55-.28,1.12-.64,1.7-1.08.57-.43,1.12-.89,1.65-1.36.52-.47.97-.88,1.33-1.23.08-.08.25-.17.51-.18.22,0,.39.06.51.18.07.07.16.2.16.41,0,.27-.15.56-.46.87-.5.5-.96.94-1.39,1.32-.42.38-.83.72-1.23,1.02-.61.44-1.3.85-2.05,1.22-.76.38-1.49.57-2.16.57ZM102.94,71.21c-.05,0-.28.04-.75.58-.39.44-.79,1-1.2,1.67-.42.69-.82,1.42-1.19,2.17-.37.75-.68,1.47-.92,2.13-.23.63-.35,1.14-.35,1.49,0,.33.08.56.25.71.18.16.49.24.94.24h0s.01,0,.02,0c.59,0,1.24-.17,1.93-.51.72-.36,1.39-.75,1.97-1.18.38-.29.78-.62,1.19-.99.42-.38.88-.82,1.37-1.3.2-.2.31-.38.31-.5-.01-.05-.06-.07-.16-.07-.07,0-.12.01-.14.03-.37.35-.82.76-1.34,1.24-.54.49-1.11.96-1.69,1.39-.6.46-1.2.84-1.77,1.13-.6.31-1.15.46-1.64.46-.31,0-.54-.06-.66-.2-.11-.12-.16-.29-.16-.5,0-.36.12-.86.35-1.51.21-.64.41-1.1.61-1.4.07-.11.24-.32.48-.63.24-.3.48-.62.74-.96.23-.3.41-.55.55-.74l.06-.08c.36-.53.7-1.06,1.01-1.57.41-.67.43-.87.43-.91,0-.05,0-.11-.04-.14-.01-.01-.06-.04-.2-.05ZM104.43,69.63h0c-.45,0-.72-.27-.72-.73,0-.1.03-.25.22-.63.13-.25.28-.51.45-.77.18-.28.32-.46.42-.56.33-.37.59-.6.8-.7.49-.26.96-.19,1.2.04.15.14.23.33.23.58,0,.19-.1.4-.3.62-.17.18-.36.36-.58.52-.38.24-.47.34-.49.37l-.59.82c-.04.1-.1.19-.18.27-.11.11-.27.17-.47.17ZM106.2,66.59c-.1,0-.23.04-.36.11-.1.05-.29.2-.66.6-.06.06-.17.19-.36.49-.16.25-.3.49-.43.73-.16.3-.17.39-.17.39,0,.16.04.2.21.2.07,0,.1-.01.11-.02.03-.03.05-.06.06-.09l.04-.08.61-.85c.09-.14.29-.29.62-.51.17-.13.34-.27.48-.43.16-.18.17-.26.17-.28,0-.1-.02-.16-.06-.2-.05-.04-.14-.06-.26-.06Z"/>
    <path class="cls-1" d="M114.98,82.93h0c-.2,0-.42-.09-.67-.25-.23-.15-.41-.3-.53-.45-.25-.31-.41-.68-.49-1.11-.07-.4-.11-.84-.11-1.31,0-.39.02-.81.05-1.27.01-.21.03-.43.06-.65-.34.35-.7.69-1.08,1.02-.61.53-1.24.97-1.87,1.3-.65.34-1.27.52-1.86.52h0c-1.52,0-2.31-.86-2.31-2.47,0-1.57.57-3.1,1.66-4.54.55-.71,1.17-1.39,1.85-2.03.69-.65,1.44-1.19,2.2-1.6.78-.41,1.56-.62,2.33-.62.51.01.97.15,1.37.47,0,0,0-.01,0-.02.07-.17.17-.39.3-.65.43-.93.93-1.93,1.47-2.97.54-1.04,1.03-1.91,1.45-2.58.54-.84,1.05-1.24,1.57-1.24h0c.18,0,.34.06.46.18.16.16.24.41.24.77,0,.84-.75,2.68-2.28,5.63-.1.17-.26.47-.49.89-.23.43-.5.92-.8,1.48-.3.56-.61,1.11-.93,1.66-.31.55-.6,1.04-.84,1.47-.23.4-.41.69-.52.87-.2.8-.35,1.56-.46,2.28-.11.72-.17,1.48-.17,2.25,0,.28,0,.54.04.78.02.2.07.36.15.47.06.07.14.14.22.19.1.06.21.11.34.16.31.08.5.31.5.63,0,.47-.31.75-.83.75ZM114.97,82.42h0c.31,0,.31-.12.31-.23,0-.05,0-.1-.13-.13-.19-.07-.33-.14-.45-.21-.13-.08-.26-.18-.37-.32-.15-.2-.23-.44-.26-.73-.03-.26-.04-.54-.04-.84,0-.8.06-1.58.18-2.33.11-.74.27-1.54.48-2.37l.04-.08c.11-.16.29-.45.53-.87.25-.43.53-.92.84-1.46.31-.55.62-1.1.92-1.65s.57-1.05.8-1.48c.23-.43.39-.73.49-.9,1.82-3.52,2.21-4.87,2.21-5.38,0-.29-.06-.38-.08-.4,0,0-.04-.03-.09-.03-.32,0-.71.35-1.13,1-.41.66-.89,1.51-1.43,2.54-.54,1.03-1.03,2.03-1.46,2.96-.13.25-.22.46-.29.62-.07.17-.12.3-.16.38l-.16.32-.25-.25c-.38-.38-.8-.56-1.29-.56-.68,0-1.38.19-2.09.56-.73.39-1.43.9-2.09,1.52-.66.62-1.27,1.28-1.79,1.97-1.03,1.35-1.55,2.77-1.56,4.23,0,1.32.56,1.94,1.79,1.95h0c.5,0,1.04-.15,1.61-.46.6-.32,1.19-.73,1.77-1.24.59-.51,1.12-1.04,1.59-1.57l.58-.66-.13.87c-.07.5-.13.97-.16,1.42-.03.44-.04.85-.05,1.23,0,.44.03.85.1,1.21.06.34.19.64.38.88.09.1.23.22.42.34.22.14.34.17.39.17ZM108.27,79.91h0c-.34,0-.62-.11-.83-.31-.26-.26-.39-.67-.39-1.24,0-1.42.49-2.79,1.44-4.05.45-.56.99-1.15,1.61-1.75.63-.61,1.29-1.14,1.97-1.55.7-.43,1.36-.65,1.96-.65h0c.62,0,1.11.28,1.45.81l.07.11-.05.12c-.24.62-.46,1.24-.65,1.85-.19.61-.36,1.24-.51,1.87l-.04.09c-.35.5-.74.99-1.15,1.46-.41.47-.86.93-1.34,1.37-.55.5-1.13.94-1.74,1.3-.63.37-1.24.57-1.82.57ZM114.03,70.88c-.5,0-1.07.19-1.69.57-.65.39-1.28.89-1.88,1.48-.6.59-1.13,1.16-1.57,1.7-.88,1.16-1.33,2.42-1.33,3.73,0,.42.08.71.24.87.11.11.26.16.46.16h0c.48,0,1-.17,1.55-.49.58-.34,1.13-.76,1.65-1.24.47-.43.91-.88,1.3-1.33.39-.44.75-.91,1.09-1.38.15-.63.32-1.26.51-1.86.18-.57.39-1.16.61-1.75-.24-.31-.55-.47-.94-.47h0ZM116.53,71.34l-.47-.21c.37-1.09.81-2.19,1.32-3.26.5-1.07,1.14-2.1,1.88-3.06l.45.25c-.34.93-.78,1.92-1.32,2.95-.52,1.01-1.15,2.14-1.86,3.34Z"/>
    <path class="cls-1" d="M118.65,80.78h-.02c-1.21,0-1.85-.62-1.84-1.78,0-.69.18-1.44.51-2.23.33-.77.78-1.54,1.35-2.27.56-.73,1.19-1.4,1.88-2.01.7-.61,1.42-1.1,2.15-1.45.74-.37,1.47-.55,2.16-.55h.02c.66,0,1.16.18,1.5.52.34.34.5.84.5,1.48,0,1.14-.44,1.38-.81,1.38-.47,0-.75-.28-.75-.73,0-.17.04-.34.12-.51.05-.1.07-.22.07-.34,0-.23-.09-.32-.15-.37-.13-.09-.33-.16-.63-.15-1.04,0-2.39.83-4.02,2.46-.39.4-.78.89-1.16,1.44-.38.55-.69,1.11-.93,1.67-.23.54-.35,1.05-.36,1.53,0,.17.04.29.12.36.09.08.24.12.44.12h0c.43,0,.9-.13,1.4-.4.53-.28.99-.58,1.38-.88.79-.59,1.61-1.4,2.44-2.42.13-.15.3-.34.5-.58.2-.24.43-.5.69-.8.15-.15.33-.22.53-.22.44,0,.7.27.69.7v.08s-1.09,1.62-1.09,1.62c-.67.98-1.01,1.78-1.01,2.38,0,.34.11.45.43.46.34,0,.73-.09,1.15-.27.45-.2.81-.39,1.08-.58.57-.37,1.18-.85,1.82-1.41.65-.58,1.27-1.16,1.84-1.73.12-.12.29-.18.51-.18.62,0,.67.45.67.59,0,.28-.15.56-.47.87-.74.73-1.41,1.36-2,1.88-.6.53-1.17.96-1.72,1.3-.36.21-.81.42-1.33.64-.54.23-1.16.34-1.84.34h-.02c-1.03,0-1.6-.61-1.6-1.7,0-.07,0-.13,0-.2-1.5,1.28-2.92,1.92-4.24,1.92ZM118.63,80.26h.01c1.35,0,2.85-.77,4.46-2.3l.42.28c-.08.21-.12.48-.12.81,0,.81.33,1.17,1.08,1.17h.02c.61,0,1.17-.1,1.64-.3.5-.21.92-.42,1.26-.61.51-.31,1.06-.73,1.64-1.24.58-.51,1.24-1.14,1.97-1.86.27-.27.31-.43.31-.5,0-.04-.04-.07-.15-.07-.08,0-.13.02-.14.03-.58.58-1.2,1.16-1.86,1.75-.66.59-1.29,1.08-1.88,1.46-.29.2-.68.41-1.16.62-.49.21-.95.32-1.36.32h-.01c-.6,0-.94-.36-.94-.98,0-.72.36-1.59,1.1-2.67l1-1.49c-.01-.09-.05-.11-.18-.11-.06.01-.1.02-.15.06-.25.28-.47.54-.68.78-.2.24-.37.43-.5.58-.85,1.05-1.7,1.89-2.52,2.5-.41.31-.9.62-1.45.92-.58.31-1.13.46-1.64.46h0c-.34,0-.61-.09-.79-.26-.19-.18-.29-.43-.29-.75,0-.55.14-1.13.4-1.73.25-.58.58-1.18.98-1.75.4-.58.81-1.09,1.22-1.51,1.75-1.76,3.19-2.62,4.39-2.62h0c.41,0,.71.08.94.25.17.12.36.36.36.79,0,.2-.04.39-.12.56-.05.1-.07.19-.07.29,0,.14.02.21.24.21.25,0,.29-.54.29-.87,0-.5-.12-.87-.35-1.11-.24-.24-.62-.39-1.16-.37-.61,0-1.26.17-1.93.5-.69.34-1.37.8-2.04,1.38-.66.58-1.27,1.23-1.81,1.93-.54.7-.97,1.43-1.28,2.16-.31.72-.47,1.4-.47,2.03,0,.86.41,1.25,1.33,1.26h0Z"/>
    <path class="cls-1" d="M139.74,83.04c-.18,0-.42-.08-.68-.25-.23-.16-.41-.3-.53-.45-.25-.32-.41-.69-.49-1.11-.07-.4-.11-.84-.11-1.31,0-.39.02-.81.05-1.27.01-.21.03-.43.06-.65-.33.34-.7.69-1.08,1.02-.61.53-1.24.97-1.87,1.3-.65.34-1.27.52-1.86.52h0c-.76,0-1.34-.22-1.73-.64-.39-.42-.58-1.03-.58-1.83,0-1.57.57-3.1,1.66-4.54.54-.7,1.16-1.38,1.85-2.03.69-.65,1.43-1.18,2.2-1.59.79-.42,1.56-.63,2.35-.63.5,0,.95.16,1.35.47,0,0,0-.01,0-.02.07-.17.17-.39.3-.65.43-.92.93-1.93,1.47-2.98.54-1.03,1.02-1.9,1.45-2.58.54-.84,1.05-1.24,1.57-1.24h0c.21,0,.7.1.69.95,0,.84-.75,2.68-2.28,5.63-.1.17-.26.47-.49.89-.23.43-.5.92-.8,1.48-.3.56-.61,1.11-.93,1.66l-.05.09c-.29.51-.56.97-.79,1.38-.23.41-.41.69-.52.87-.2.79-.35,1.56-.46,2.28-.11.72-.17,1.48-.17,2.25,0,.28,0,.54.04.78.02.2.07.36.15.46.06.08.14.14.23.2.09.05.21.11.34.16.3.07.49.3.49.63,0,.47-.31.75-.83.75ZM138.77,76.4l-.13.87c-.07.49-.13.97-.16,1.42-.03.44-.04.85-.05,1.23,0,.44.03.85.1,1.21.06.34.19.64.38.88.09.1.23.22.42.35.22.14.34.16.39.16h0c.31,0,.31-.12.31-.23,0-.05,0-.1-.13-.13-.19-.07-.33-.14-.45-.21-.14-.08-.26-.19-.37-.32-.15-.2-.23-.43-.26-.73-.03-.26-.04-.54-.04-.84,0-.8.06-1.58.18-2.33.11-.75.27-1.54.48-2.37l.04-.08c.11-.16.29-.45.53-.88.24-.4.5-.86.79-1.37l.05-.09c.31-.55.62-1.1.92-1.65.3-.56.57-1.05.8-1.48.23-.43.4-.73.49-.9,1.82-3.52,2.21-4.87,2.21-5.38,0-.43-.12-.43-.18-.43h0c-.32,0-.71.35-1.13,1-.42.66-.9,1.52-1.43,2.54-.54,1.04-1.03,2.04-1.46,2.96-.13.25-.22.46-.29.62-.07.17-.12.3-.16.38l-.16.32-.25-.25c-.37-.38-.79-.56-1.27-.56h-.02c-.68,0-1.38.19-2.09.56-.73.39-1.43.9-2.09,1.52-.67.63-1.27,1.29-1.79,1.97-1.03,1.35-1.55,2.77-1.56,4.23,0,.66.14,1.16.44,1.47.29.31.74.47,1.35.47h0c.5,0,1.04-.15,1.61-.46.59-.31,1.19-.73,1.77-1.23.6-.52,1.13-1.05,1.59-1.57l.58-.67ZM133.03,80.02h0c-.45,0-1.22-.21-1.21-1.56,0-1.42.49-2.79,1.44-4.05.46-.57,1-1.15,1.61-1.75.62-.61,1.29-1.13,1.97-1.55.71-.43,1.38-.66,1.97-.65.62,0,1.11.28,1.45.81l.07.11-.05.12c-.24.61-.45,1.23-.65,1.85-.19.62-.36,1.25-.51,1.87l-.04.09c-.35.5-.74.99-1.15,1.46-.41.47-.86.93-1.34,1.37-.54.5-1.12.94-1.74,1.3-.63.38-1.24.57-1.82.57ZM133.02,79.5h0c.48,0,1-.17,1.55-.49.58-.35,1.14-.76,1.65-1.24.47-.43.91-.88,1.3-1.33.39-.44.75-.9,1.09-1.38.15-.62.32-1.25.51-1.86.18-.58.39-1.17.61-1.75-.24-.31-.55-.47-.94-.47,0,0,0,0-.01,0-.5,0-1.06.19-1.68.57-.65.4-1.29.9-1.88,1.48-.6.59-1.13,1.16-1.57,1.7-.88,1.16-1.33,2.42-1.33,3.73,0,1.03.49,1.03.7,1.04h0ZM141.3,71.44l-.47-.21c.37-1.09.81-2.19,1.32-3.26.51-1.07,1.14-2.1,1.88-3.06l.45.25c-.34.92-.78,1.92-1.32,2.95-.54,1.03-1.16,2.16-1.86,3.34Z"/>
  </g>
  <g>
    <path class="cls-1" d="M16.58,87.38c-.86,0-1.29-.62-1.28-1.84,0-1.61.72-4.17,2.15-7.68.24-.58.53-1.2.86-1.84.33-.64.72-1.32,1.16-2.03.46-.77.9-1.43,1.31-2,.41-.56.78-1.02,1.09-1.37.11-.11.21-.18.29-.22.08-.04.15-.06.21-.05.48,0,1.01.14,1.62.42.6.28,1.14.63,1.61,1.05.44.37.79.81,1.07,1.32.27.51.41,1.05.4,1.59,0,.4-.08.81-.24,1.22-.16.41-.37.82-.62,1.22.48-.09,1.06-.3,1.75-.62.69-.33,1.39-.83,2.11-1.5.07-.07.17-.11.3-.11.27,0,.41.11.41.33,0,.09-.04.21-.13.34-.08.14-.23.3-.43.51-1.36,1.24-2.99,1.95-4.9,2.12-.28.29-.57.57-.9.83-.32.26-.66.5-1.01.72-1.06.64-1.97.95-2.72.95-.31,0-.57-.1-.77-.31-.2-.2-.3-.43-.3-.69,0-.84.74-1.48,2.2-1.91.53-.14,1.06-.27,1.59-.38.53-.11,1.05-.22,1.57-.35.37-.56.64-1.06.82-1.48.18-.42.26-.78.27-1.07,0-.97-.72-1.9-2.16-2.78-.57-.35-1.01-.52-1.34-.5-1.51,1.64-2.94,3.94-4.29,6.9-1.4,3.05-2.11,5.45-2.12,7.21,0,.42.03.71.11.85.07.14.2.22.38.22.06,0,.1,0,.14-.01s.07-.01.11-.01c.24,0,.36.15.35.44,0,.33-.23.49-.69.49ZM20.9,79.88c.68,0,1.66-.52,2.94-1.58-.29.04-.57.08-.84.13s-.65.15-1.14.3c-.82.23-1.24.53-1.24.9,0,.17.09.25.27.25Z"/>
    <path class="cls-1" d="M32.92,80.37c-.77,0-1.37-.27-1.81-.8-.44-.53-.65-1.18-.65-1.95,0-1.32.45-2.67,1.34-4.06.24-.38.52-.76.83-1.13.31-.38.65-.73,1.02-1.08.55-.53,1.13-.97,1.74-1.31s1.19-.52,1.76-.51c.93,0,1.4.45,1.39,1.32,0,1.1-.65,2.09-1.93,2.98-1.19.8-2.37,1.2-3.52,1.19-.2,0-.38-.01-.54-.04-.16-.03-.3-.06-.42-.1-.18.35-.35.8-.5,1.34-.15.55-.22,1.03-.23,1.43,0,1.21.52,1.81,1.58,1.82.86,0,1.68-.14,2.45-.44.77-.3,1.69-.87,2.75-1.71.66-.51,1.16-.92,1.49-1.23.33-.31.69-.64,1.08-.98.11-.07.21-.11.3-.11s.18.03.27.08c.09.05.14.14.14.25,0,.2-.19.48-.55.85-.31.29-.64.6-.99.92-.35.32-.9.76-1.65,1.32-.81.62-1.69,1.1-2.64,1.44-.95.34-1.85.51-2.69.51ZM32.92,74.14c.59,0,1.14-.09,1.68-.27.53-.18,1.04-.44,1.51-.79,1.06-.78,1.6-1.52,1.6-2.22,0-.31-.19-.47-.57-.47-.73,0-1.59.44-2.56,1.33-.48.44-.87.83-1.17,1.19-.3.36-.58.74-.84,1.16.11.04.23.06.36.06Z"/>
    <path class="cls-1" d="M39.81,80.59c-.29,0-.44-.12-.44-.36,0-.11.03-.22.1-.33.07-.11.12-.2.15-.27l2.52-5.04c1.07-2.16,1.61-3.35,1.61-3.59,0-.26.13-.38.39-.38.35,0,.52.18.52.52,0,.18-.08.48-.25.88-.17.4-.38.87-.64,1.4-.44.95-.81,1.68-1.11,2.19.55-.64,1.11-1.24,1.68-1.8s1.15-1.1,1.74-1.61c1.75-1.51,3.08-2.26,4.02-2.26.64,0,.96.31.96.91,0,.59-.2.88-.58.88-.18,0-.32-.16-.41-.47-.05-.22-.18-.33-.38-.33-.31,0-.92.33-1.82,1.01-.99.73-1.99,1.59-2.99,2.6-1,1-2.06,2.28-3.19,3.83l-1.38,1.92c-.07.09-.14.17-.21.23s-.16.1-.29.09Z"/>
    <path class="cls-1" d="M50.3,80.86c-1.03,0-1.54-.35-1.53-1.02,0-.42.15-.84.46-1.26.3-.42.67-.8,1.09-1.15.42-.35.82-.61,1.18-.79.11-.05.26-.11.45-.16.19-.05.35-.08.48-.08.15,0,.22.06.22.17,0,.09-.1.19-.3.3-.84.4-1.5.88-1.97,1.43-.47.56-.7,1.01-.71,1.35,0,.33.28.5.85.5.48,0,.99-.11,1.55-.35.56-.23,1.09-.54,1.6-.93.5-.38.92-.79,1.25-1.23.33-.44.5-.86.5-1.26,0-.28-.09-.52-.26-.74-.17-.22-.45-.39-.84-.5l-1.81-.56c-.46-.15-.79-.34-.99-.58-.2-.24-.3-.51-.3-.8,0-.55.21-1.04.63-1.48.41-.44.93-.78,1.55-1.04.62-.25,1.23-.38,1.81-.38.58,0,1.1.15,1.53.43.44.29.66.67.65,1.14,0,.27-.08.53-.24.77-.16.24-.34.36-.54.35-.31,0-.47-.13-.46-.39,0-.09.05-.21.15-.34.1-.14.15-.27.15-.4,0-.55-.42-.83-1.26-.83-.46,0-.91.09-1.36.28-.45.19-.82.44-1.11.75-.29.31-.44.65-.44,1.01s.36.66,1.09.88l1.75.56c.53.17.9.39,1.1.68.2.29.3.6.3.95,0,.82-.51,1.67-1.52,2.55-1.64,1.44-3.21,2.16-4.73,2.15Z"/>
    <path class="cls-1" d="M60.49,79.86c-1.48,0-2.22-.84-2.21-2.51,0-.77.19-1.57.56-2.41.37-.84.86-1.62,1.46-2.34.61-.72,1.28-1.31,2.03-1.76.74-.45,1.5-.68,2.27-.68.68,0,1.17.26,1.48.77.31.51.46,1.08.46,1.7,0,.82-.17,1.66-.5,2.51-.33.85-.78,1.63-1.35,2.34-.57.71-1.21,1.29-1.93,1.72-.72.43-1.47.65-2.25.65ZM60.47,78.98c.11,0,.17,0,.19-.03.71-.09,1.37-.34,1.98-.76s1.13-.94,1.59-1.57.8-1.31,1.04-2.04c.24-.73.36-1.45.37-2.17,0-.42-.12-.75-.35-.99-.24-.24-.54-.36-.9-.36-.53,0-1.09.21-1.69.65-.6.44-1.16.99-1.68,1.67-.53.68-.95,1.38-1.29,2.12-.33.74-.5,1.4-.5,1.99,0,.99.41,1.49,1.26,1.49Z"/>
    <path class="cls-1" d="M66.5,80.71c-.29,0-.44-.12-.44-.36,0-.09.04-.21.11-.34.07-.14.14-.25.19-.34l2.49-4.96c1.07-2.15,1.61-3.35,1.61-3.59,0-.26.13-.38.39-.38.35,0,.52.18.52.55,0,.13-.08.4-.25.82-.17.42-.38.9-.64,1.42-.44.95-.81,1.68-1.11,2.19.55-.64,1.11-1.24,1.68-1.8.57-.56,1.15-1.1,1.74-1.61,1.75-1.51,3.08-2.26,4.02-2.26.64,0,.96.31.96.91,0,.55-.48,1.78-1.42,3.7-.94,1.94-1.41,3.16-1.42,3.67,0,.24.08.36.25.36.05,0,.14-.02.26-.07.12-.05.24-.07.37-.07.31,0,.47.15.46.44,0,.37-.4.55-1.18.54-.37,0-.63-.09-.79-.26-.16-.17-.25-.41-.24-.7,0-.88.46-2.21,1.36-4,.91-1.77,1.36-2.84,1.36-3.21,0-.22-.08-.33-.25-.33-.4,0-1.05.33-1.95,1.01-.97.73-1.95,1.57-2.92,2.51-.97.95-1.9,2.03-2.79,3.25l-1.93,2.65c-.11.16-.26.25-.44.24Z"/>
    <path class="cls-1" d="M79.54,80.35c-1.06,0-1.59-.51-1.59-1.52,0-.66.17-1.37.49-2.13.32-.76.76-1.5,1.31-2.22s1.17-1.38,1.85-1.97c.68-.59,1.38-1.07,2.09-1.42.72-.35,1.4-.53,2.06-.53,1.17,0,1.75.59,1.75,1.74,0,.75-.19,1.13-.55,1.12-.33,0-.49-.16-.49-.47,0-.13.03-.26.1-.4.07-.14.1-.29.1-.45,0-.51-.34-.77-1.04-.77-1.12,0-2.52.84-4.21,2.54-.4.42-.8.91-1.19,1.48-.39.57-.7,1.14-.95,1.71-.25.58-.38,1.12-.38,1.63,0,.49.27.74.82.75.48,0,.98-.14,1.53-.43.54-.29,1.01-.59,1.42-.9.81-.6,1.63-1.42,2.48-2.46.13-.15.29-.34.5-.58.2-.24.43-.5.69-.79.09-.09.2-.14.33-.14.29,0,.44.15.44.44l-1.05,1.56c-.7,1.02-1.05,1.86-1.05,2.52,0,.48.23.72.68.72.38,0,.81-.1,1.26-.3.46-.2.83-.4,1.13-.6.59-.38,1.2-.86,1.85-1.44.64-.57,1.26-1.15,1.85-1.73.07-.07.18-.11.33-.11.27,0,.41.11.41.33,0,.2-.13.43-.39.68-.73.73-1.4,1.35-1.98,1.87-.59.52-1.15.94-1.68,1.27-.35.2-.78.41-1.29.63-.51.21-1.1.32-1.76.32-.9,0-1.34-.48-1.34-1.43,0-.37.05-.67.14-.91-1.67,1.59-3.22,2.38-4.65,2.37Z"/>
    <path class="cls-1" d="M94.77,80.88c-.84,0-1.49-.27-1.93-.79-.45-.52-.67-1.22-.66-2.08,0-.62.12-1.37.34-2.25.39-1.48,1.05-3.2,1.97-5.15.72-1.48,1.5-2.94,2.33-4.37.83-1.43,1.74-2.84,2.74-4.23,1.58-2.23,2.69-3.34,3.31-3.34.4,0,.6.11.6.33,0,.31-.52,1.09-1.55,2.33l-1.93,2.33c-1.67,2.01-3.04,4.06-4.1,6.16-1.06,2.1-1.89,4.2-2.48,6.3-.17.6-.25,1.17-.25,1.7,0,1.39.56,2.09,1.69,2.09.4,0,.82-.11,1.24-.35.42-.22.65-.33.69-.33.22,0,.33.16.33.47,0,.28-.1.48-.3.63-.62.36-1.29.54-2.01.54Z"/>
    <path class="cls-1" d="M99.72,80.47c-.51,0-.88-.1-1.11-.31-.23-.2-.34-.51-.34-.91,0-.38.12-.91.36-1.58.24-.67.55-1.39.93-2.15.38-.77.78-1.5,1.2-2.19.42-.69.83-1.26,1.23-1.71.4-.45.71-.67.95-.67.33,0,.49.15.49.44,0,.18-.16.53-.47,1.04-.31.51-.65,1.04-1.02,1.59-.15.2-.35.48-.61.82-.26.35-.51.67-.74.97-.24.3-.4.51-.47.62-.18.28-.38.72-.58,1.34-.22.62-.33,1.1-.34,1.42,0,.15.03.26.09.33.06.07.22.11.45.11.46,0,.97-.14,1.54-.43.57-.29,1.15-.66,1.73-1.1.59-.44,1.14-.9,1.67-1.38s.97-.88,1.34-1.23c.07-.07.18-.11.33-.11.27,0,.41.11.41.33,0,.2-.13.43-.39.68-.5.49-.96.93-1.38,1.31-.42.38-.83.72-1.21,1.01-.61.44-1.28.84-2.01,1.2-.73.36-1.42.54-2.06.54ZM104.43,69.37c-.31,0-.47-.16-.46-.47,0-.09.07-.26.19-.51.13-.25.28-.5.44-.75.17-.25.29-.43.39-.52.31-.35.56-.57.73-.66.17-.09.33-.14.48-.14.38,0,.58.18.57.52,0,.13-.08.28-.24.45s-.34.33-.54.48c-.29.18-.48.33-.55.44l-.61.85c-.02.07-.06.14-.12.2-.07.06-.16.1-.29.1Z"/>
    <path class="cls-1" d="M114.97,82.68c-.15,0-.32-.07-.53-.21-.21-.14-.37-.27-.48-.4-.22-.27-.36-.61-.43-.99-.07-.38-.11-.81-.1-1.26,0-.38.02-.8.05-1.25.03-.45.08-.93.16-1.44-.48.55-1.02,1.08-1.61,1.6-.6.52-1.2.94-1.82,1.27-.61.33-1.2.49-1.75.49-1.37,0-2.06-.74-2.05-2.21,0-1.52.54-2.98,1.61-4.39.53-.69,1.14-1.36,1.82-2,.68-.64,1.4-1.16,2.15-1.56.75-.4,1.49-.6,2.23-.59.55,0,1.03.21,1.45.64.04-.07.09-.19.15-.36.07-.16.16-.38.29-.63.44-.95.93-1.94,1.47-2.97s1.01-1.89,1.44-2.56c.48-.75.93-1.12,1.35-1.12.29,0,.44.23.44.69,0,.79-.75,2.62-2.25,5.51-.09.16-.25.46-.49.89s-.5.92-.8,1.48c-.3.56-.61,1.11-.93,1.66-.31.55-.59,1.03-.84,1.46-.25.43-.43.73-.54.89-.2.82-.36,1.61-.48,2.34-.11.74-.17,1.5-.17,2.29,0,.29.01.56.04.81.03.25.09.44.2.59.09.11.19.2.3.26.11.06.24.13.38.18.22.06.33.18.33.39,0,.33-.19.49-.58.49ZM108.26,79.65c.53,0,1.09-.17,1.69-.53.6-.35,1.16-.78,1.69-1.27.48-.44.92-.89,1.32-1.35s.78-.94,1.13-1.44c.15-.64.32-1.27.52-1.89s.41-1.24.65-1.86c-.29-.46-.7-.69-1.23-.69-.55,0-1.16.2-1.83.61-.67.41-1.31.91-1.93,1.51-.62.6-1.14,1.18-1.59,1.72-.92,1.22-1.38,2.52-1.39,3.89,0,.86.31,1.29.96,1.29ZM116.31,71.21c.7-1.19,1.32-2.3,1.85-3.33.54-1.03.97-2,1.3-2.92-.74.95-1.35,1.95-1.85,3.01-.5,1.06-.93,2.14-1.3,3.24Z"/>
    <path class="cls-1" d="M118.63,80.52c-1.06,0-1.59-.51-1.59-1.52,0-.66.17-1.37.49-2.13.32-.76.76-1.5,1.31-2.22.55-.72,1.17-1.38,1.85-1.97.68-.59,1.38-1.06,2.09-1.42.72-.36,1.4-.53,2.06-.53,1.17,0,1.75.58,1.75,1.74,0,.75-.19,1.12-.55,1.12-.33,0-.49-.16-.49-.47,0-.13.03-.26.1-.4.07-.14.1-.29.1-.45,0-.51-.34-.77-1.04-.77-1.12,0-2.52.84-4.21,2.54-.4.42-.8.91-1.19,1.48-.39.57-.7,1.14-.95,1.71-.25.58-.38,1.12-.38,1.63,0,.49.27.74.82.75.48,0,.98-.14,1.53-.43.54-.29,1.01-.59,1.42-.9.81-.6,1.63-1.42,2.48-2.46.13-.15.29-.34.5-.58.2-.24.43-.5.69-.79.09-.09.2-.14.33-.14.29,0,.44.15.44.44l-1.05,1.56c-.7,1.02-1.05,1.86-1.05,2.52,0,.48.23.71.68.72.38,0,.81-.1,1.26-.29.46-.2.83-.4,1.13-.6.59-.38,1.2-.86,1.85-1.43.64-.57,1.26-1.15,1.85-1.74.07-.07.18-.11.33-.11.27,0,.41.11.41.33,0,.2-.13.43-.39.68-.73.73-1.4,1.35-1.98,1.87-.59.52-1.15.94-1.68,1.27-.35.2-.78.41-1.29.63-.51.22-1.1.32-1.76.32-.9,0-1.34-.48-1.34-1.44,0-.37.05-.67.14-.9-1.67,1.59-3.22,2.38-4.65,2.37Z"/>
    <path class="cls-1" d="M139.73,82.78c-.15,0-.32-.07-.53-.21-.21-.14-.37-.27-.48-.4-.22-.28-.36-.61-.43-.99-.07-.38-.11-.81-.1-1.26,0-.38.02-.8.05-1.25.03-.45.08-.93.16-1.44-.48.55-1.02,1.08-1.61,1.6-.6.52-1.2.94-1.82,1.27-.61.33-1.2.49-1.75.49-1.37,0-2.06-.74-2.05-2.21,0-1.52.54-2.98,1.61-4.39.53-.69,1.14-1.36,1.82-2,.68-.64,1.4-1.15,2.15-1.55.75-.4,1.49-.6,2.23-.6.55,0,1.03.22,1.45.64.04-.07.09-.19.15-.36s.16-.38.29-.63c.44-.95.93-1.94,1.47-2.97.54-1.03,1.01-1.88,1.44-2.56.48-.75.93-1.12,1.35-1.12.29,0,.44.23.44.69,0,.79-.75,2.62-2.25,5.51-.09.16-.25.46-.49.89-.23.43-.5.92-.8,1.48-.3.56-.61,1.11-.93,1.66-.31.55-.59,1.04-.84,1.46-.25.43-.43.73-.54.89-.2.82-.36,1.6-.48,2.34-.11.74-.17,1.5-.17,2.29,0,.29.01.56.04.81s.09.45.2.59c.09.11.19.2.3.26.11.06.24.12.38.18.22.05.33.18.33.38,0,.33-.19.49-.58.49ZM133.02,79.76c.53,0,1.09-.18,1.69-.53.6-.35,1.16-.78,1.69-1.27.48-.44.92-.89,1.32-1.35s.78-.94,1.13-1.44c.15-.64.32-1.27.52-1.89.19-.62.41-1.24.65-1.86-.29-.46-.7-.69-1.23-.69-.55,0-1.16.2-1.83.61-.67.41-1.31.91-1.93,1.51-.62.6-1.14,1.18-1.59,1.72-.92,1.22-1.38,2.52-1.39,3.89,0,.86.31,1.29.96,1.3ZM141.07,71.31c.7-1.19,1.32-2.3,1.85-3.33s.97-2,1.3-2.92c-.74.95-1.35,1.95-1.85,3.01-.5,1.06-.93,2.14-1.3,3.24Z"/>
  </g>
</svg>