<?xml version="1.0" encoding="UTF-8" standalone="no"?>
<svg
   viewBox="0 0 425.83 203.96"
   version="1.1"
   id="svg24"
   sodipodi:docname="LOGOTIPO_INVIERNO.svg"
   xml:space="preserve"
   width="425.82999"
   height="203.96001"
   inkscape:version="1.3.2 (091e20e, 2023-11-25)"
   xmlns:inkscape="http://www.inkscape.org/namespaces/inkscape"
   xmlns:sodipodi="http://sodipodi.sourceforge.net/DTD/sodipodi-0.dtd"
   xmlns="http://www.w3.org/2000/svg"
   xmlns:svg="http://www.w3.org/2000/svg"><sodipodi:namedview
     id="namedview24"
     pagecolor="#505050"
     bordercolor="#ffffff"
     borderopacity="1"
     inkscape:showpageshadow="0"
     inkscape:pageopacity="0"
     inkscape:pagecheckerboard="1"
     inkscape:deskcolor="#505050"
     inkscape:zoom="1.3206765"
     inkscape:cx="198.00458"
     inkscape:cy="105.24909"
     inkscape:window-width="1312"
     inkscape:window-height="431"
     inkscape:window-x="0"
     inkscape:window-y="25"
     inkscape:window-maximized="0"
     inkscape:current-layer="svg24" /><defs
     id="defs8"><style
       id="style1">
      .cls-1 {
        fill: none;
      }

      .cls-2 {
        isolation: isolate;
      }

      .cls-3 {
        fill: #fff;
      }
    </style><filter
       id="drop-shadow-8"
       filterUnits="userSpaceOnUse"><feOffset
         dx="2.83"
         dy="2.83"
         id="feOffset1" /><feGaussianBlur
         result="blur"
         stdDeviation="2.83"
         id="feGaussianBlur1" /><feFlood
         flood-color="#221f20"
         flood-opacity=".35"
         id="feFlood1" /><feComposite
         in2="blur"
         operator="in"
         id="feComposite1" /><feComposite
         in="SourceGraphic"
         id="feComposite2" /></filter><clipPath
       id="clippath"><path
         class="cls-1"
         d="m -61.44,-109.12 c -11.16,0 -20.2,9.05 -20.2,20.21 0,8.06 4.73,14.99 11.55,18.24 V 34.24 h 17.32 V -70.68 c 6.82,-3.25 11.55,-10.18 11.55,-18.24 0,-11.16 -9.05,-20.21 -20.21,-20.21 z"
         id="path2" /></clipPath><filter
       id="drop-shadow-10"
       filterUnits="userSpaceOnUse"><feOffset
         dx="2.83"
         dy="2.83"
         id="feOffset2" /><feGaussianBlur
         result="blur-2"
         stdDeviation="2.83"
         id="feGaussianBlur2" /><feFlood
         flood-color="#221f20"
         flood-opacity=".35"
         id="feFlood2" /><feComposite
         in2="blur-2"
         operator="in"
         id="feComposite3" /><feComposite
         in="SourceGraphic"
         id="feComposite4" /></filter><clipPath
       id="clippath-2"><path
         class="cls-1"
         d="m 227.68,-104.22 c -7.5,1.32 -12.38,9.22 -10.9,17.64 -1.48,-8.42 -8.77,-14.17 -16.27,-12.85 -7.5,1.32 -12.38,9.22 -10.9,17.64 0,0 3.03,21.77 33.36,30.32 25.59,-18.4 20.98,-39.9 20.98,-39.9 -1.34,-7.61 -7.42,-13.04 -14.11,-13.04 -0.72,0 -1.44,0.06 -2.16,0.19"
         id="path4" /></clipPath><filter
       id="drop-shadow-12"
       filterUnits="userSpaceOnUse"><feOffset
         dx="2.83"
         dy="2.83"
         id="feOffset4" /><feGaussianBlur
         result="blur-3"
         stdDeviation="2.83"
         id="feGaussianBlur4" /><feFlood
         flood-color="#221f20"
         flood-opacity=".35"
         id="feFlood4" /><feComposite
         in2="blur-3"
         operator="in"
         id="feComposite5" /><feComposite
         in="SourceGraphic"
         id="feComposite6" /></filter><clipPath
       id="clippath-4"><rect
         class="cls-1"
         x="87.040001"
         y="-106.29"
         width="56.689999"
         height="56.689999"
         id="rect6" /></clipPath><clipPath
       id="clippath-5"><path
         class="cls-1"
         d="m 87.33,-77.94 c 0,15.5 12.56,28.06 28.06,28.06 15.5,0 28.06,-12.56 28.06,-28.06 0,-15.5 -12.56,-28.06 -28.06,-28.06 -15.5,0 -28.06,12.56 -28.06,28.06"
         id="path6" /></clipPath><filter
       id="drop-shadow-13"
       filterUnits="userSpaceOnUse"><feOffset
         dx="2.83"
         dy="2.83"
         id="feOffset6" /><feGaussianBlur
         result="blur-4"
         stdDeviation="2.83"
         id="feGaussianBlur6" /><feFlood
         flood-color="#221f20"
         flood-opacity=".35"
         id="feFlood6" /><feComposite
         in2="blur-4"
         operator="in"
         id="feComposite7" /><feComposite
         in="SourceGraphic"
         id="feComposite8" /></filter><clipPath
       id="clippath-7"><path
         class="cls-1"
         d="m -13.67,-78.37 c 0,19.57 15.86,35.43 35.43,35.43 19.57,0 35.43,-15.86 35.43,-35.43 0,-19.57 -15.86,-35.43 -35.43,-35.43 -19.57,0 -35.43,15.86 -35.43,35.43"
         id="path8" /></clipPath><style
       id="style1-9">
      .cls-1 {
        fill: none;
      }

      .cls-2 {
        isolation: isolate;
      }

      .cls-3 {
        fill: #fff;
      }
    </style><filter
       id="drop-shadow-8-3"
       filterUnits="userSpaceOnUse"><feOffset
         dx="2.83"
         dy="2.83"
         id="feOffset1-8" /><feGaussianBlur
         result="blur"
         stdDeviation="2.83"
         id="feGaussianBlur1-0" /><feFlood
         flood-color="#221f20"
         flood-opacity=".35"
         id="feFlood1-2" /><feComposite
         in2="blur"
         operator="in"
         id="feComposite1-4" /><feComposite
         in="SourceGraphic"
         id="feComposite2-8" /></filter><clipPath
       id="clippath-3"><path
         class="cls-1"
         d="m 17.96,135.96 c -11.16,0 -20.2,9.05 -20.2,20.21 0,8.06 4.73,14.99 11.55,18.24 V 279.33 H 26.63 V 174.41 c 6.82,-3.25 11.55,-10.18 11.55,-18.24 0,-11.16 -9.05,-20.21 -20.21,-20.21 z"
         id="path2-9" /></clipPath><filter
       id="drop-shadow-10-0"
       filterUnits="userSpaceOnUse"><feOffset
         dx="2.83"
         dy="2.83"
         id="feOffset2-5" /><feGaussianBlur
         result="blur-2"
         stdDeviation="2.83"
         id="feGaussianBlur2-2" /><feFlood
         flood-color="#221f20"
         flood-opacity=".35"
         id="feFlood2-2" /><feComposite
         in2="blur-2"
         operator="in"
         id="feComposite3-7" /><feComposite
         in="SourceGraphic"
         id="feComposite4-3" /></filter><clipPath
       id="clippath-2-7"><path
         class="cls-1"
         d="m 307.08,140.86 c -7.5,1.32 -12.38,9.22 -10.9,17.64 -1.48,-8.42 -8.77,-14.17 -16.27,-12.85 -7.5,1.32 -12.38,9.22 -10.9,17.64 0,0 3.03,21.77 33.36,30.32 25.59,-18.4 20.98,-39.9 20.98,-39.9 -1.34,-7.61 -7.42,-13.04 -14.11,-13.04 -0.72,0 -1.44,0.06 -2.16,0.19"
         id="path4-9" /></clipPath><filter
       id="drop-shadow-12-0"
       filterUnits="userSpaceOnUse"><feOffset
         dx="2.83"
         dy="2.83"
         id="feOffset4-2" /><feGaussianBlur
         result="blur-3"
         stdDeviation="2.83"
         id="feGaussianBlur4-3" /><feFlood
         flood-color="#221f20"
         flood-opacity=".35"
         id="feFlood4-9" /><feComposite
         in2="blur-3"
         operator="in"
         id="feComposite5-9" /><feComposite
         in="SourceGraphic"
         id="feComposite6-7" /></filter><clipPath
       id="clippath-4-0"><rect
         class="cls-1"
         x="166.44"
         y="138.78999"
         width="56.689999"
         height="56.689999"
         id="rect6-3" /></clipPath><clipPath
       id="clippath-5-9"><path
         class="cls-1"
         d="m 166.72,167.14 c 0,15.5 12.56,28.06 28.06,28.06 15.5,0 28.06,-12.56 28.06,-28.06 0,-15.5 -12.56,-28.06 -28.06,-28.06 -15.5,0 -28.06,12.56 -28.06,28.06"
         id="path6-8" /></clipPath><filter
       id="drop-shadow-13-6"
       filterUnits="userSpaceOnUse"><feOffset
         dx="2.83"
         dy="2.83"
         id="feOffset6-5" /><feGaussianBlur
         result="blur-4"
         stdDeviation="2.83"
         id="feGaussianBlur6-7" /><feFlood
         flood-color="#221f20"
         flood-opacity=".35"
         id="feFlood6-6" /><feComposite
         in2="blur-4"
         operator="in"
         id="feComposite7-2" /><feComposite
         in="SourceGraphic"
         id="feComposite8-7" /></filter><clipPath
       id="clippath-7-0"><path
         class="cls-1"
         d="m 65.72,166.71 c 0,19.57 15.86,35.43 35.43,35.43 19.57,0 35.43,-15.86 35.43,-35.43 0,-19.57 -15.86,-35.43 -35.43,-35.43 -19.57,0 -35.43,15.86 -35.43,35.43"
         id="path8-3" /></clipPath></defs><g
     class="cls-2"
     id="g24"
     transform="translate(3.2649933)"><g
       id="BASE"><g
         id="g23"><g
           id="g17"><path
             class="cls-3"
             d="m 269.38,24.99 c -6.97,0 -14.22,3.31 -18.42,10.2 h -0.4 v -8.57 h -15.73 v 61.5 h 16.59 V 55.87 c 0,-12.47 3.88,-17.57 12.86,-17.57 7.7,0 10.62,4.97 10.62,15.11 v 34.71 h 16.61 V 50.3 c 0,-15.23 -4.43,-25.32 -22.12,-25.32 m -63.93,0.01 c -7.05,0 -14.3,3.31 -18.5,10.2 h -0.35 v -8.57 h -15.78 v 61.5 h 16.61 V 55.87 c 0,-12.47 3.85,-17.57 12.83,-17.57 7.73,0 10.65,4.97 10.65,15.11 v 34.71 h 16.61 V 50.3 c 0,-15.23 -4.51,-25.32 -22.07,-25.32 m 202.92,62.54 c -2.42,0 -4.3,-1.86 -4.3,-4.39 0,-2.4 1.89,-4.34 4.3,-4.34 2.41,0 4.35,1.94 4.35,4.34 0,2.53 -1.89,4.39 -4.35,4.39 m 0,-9.43 c -2.82,0 -5.24,2.18 -5.24,5.04 0,2.86 2.42,5.15 5.24,5.15 2.82,0 5.24,-2.18 5.24,-5.15 0,-2.97 -2.39,-5.04 -5.24,-5.04 m -0.07,4.74 h -1.01 v -1.92 h 1.28 l 1.36,0.94 z m 2.56,-0.93 c 0,-1.14 -0.71,-1.75 -2.16,-1.75 h -2.34 v 6 h 0.93 v -2.56 h 1.01 l 1.66,2.56 h 1 l -1.71,-2.67 c 0.91,-0.11 1.61,-0.56 1.61,-1.59 M 312.5,50.8 c 0.2,-4.77 3.22,-13.15 13.79,-13.15 8.03,0 11.63,4.58 13.14,13.15 z m 14.21,-25.81 c -18.35,0 -30.86,14.02 -30.86,32.44 0,18.42 11.83,32.33 30.86,32.33 13.69,0 23.63,-6.14 28.31,-20.69 H 340.4 c -1.08,3.83 -6.44,7.97 -13.09,7.97 -9.26,0 -14.37,-4.86 -14.82,-15.54 h 43.54 C 357.19,42.56 347.3,24.99 326.71,24.99 m 71.71,1.63 -13.16,42.13 h -0.28 L 371.31,26.62 h -17.77 l 21.27,57.68 c 1.89,4.86 0,10.95 -5.74,11.55 -3.25,0.14 -6.52,-0.36 -9.69,-0.6 v 13.91 c 3.4,0.39 6.79,0.64 10.19,0.64 11.45,0 17.14,-4.04 20.79,-13.94 L 415.58,26.63 H 398.42 Z M 146.49,67.28 c -0.5,4.64 -2.92,11.19 -13.16,11.19 -5.46,0 -10.22,-1.57 -10.22,-7.84 0,-5.35 2.95,-7.39 7.2,-8.59 0.8,-0.06 1.71,-0.24 2.77,-0.33 h 13.41 z m -9.71,-42.29 c -13.57,0 -27.46,4.75 -28.39,20.57 h 16.59 c 0.58,-6.69 4.68,-9.27 11,-9.27 5.38,0 10.01,0.92 10.67,6.82 v 8.57 h -12.79 c 0,0 -7.15,-0.05 -12.56,1.64 -7.98,2.46 -14.8,6.72 -14.8,18.01 0,12.67 9.14,18.45 20.59,18.45 7,0 14.32,-1.8 19.55,-6.83 v 5.19 h 16.61 V 41.16 C 162.42,27.57 148.45,25 136.77,25 M 84.71,88.13 h 16.56 V 26.62 H 84.71 v 61.5 z M 42.85,62.83 H 42.6 L 23.3,3.24 H 3.72 l 28.09,84.8 H 53.35 L 82.14,3.24 H 62.41 L 42.86,62.83 Z M 93.21,3.98 c -4.56,0 -8.25,3.63 -8.25,8.07 0,4.44 3.7,8.05 8.25,8.05 4.55,0 8.28,-3.58 8.28,-8.05 0,-4.47 -3.7,-8.07 -8.28,-8.07"
             id="path9" /><path
             class="cls-3"
             d="m 181.81,93.14 c 0,0.25 -0.19,0.38 -0.55,0.38 h -1.2 c -1.32,0 -2.14,0.24 -2.45,0.72 -0.46,0.69 -1.14,2.15 -2.03,4.38 l -9.28,23.25 c -0.06,0.18 -0.14,0.39 -0.23,0.63 0,0.54 0.62,0.89 1.85,1.04 0.4,0 0.88,0.02 1.43,0.04 0.4,0.03 0.6,0.14 0.6,0.32 0,0.21 -0.22,0.32 -0.65,0.32 -2.22,-0.03 -5.4,-0.04 -9.56,-0.04 -1.45,0 -2.29,-0.02 -2.52,-0.05 -0.23,-0.03 -0.35,-0.12 -0.35,-0.27 0,-0.21 0.42,-0.32 1.25,-0.32 1.14,-0.03 1.89,-0.1 2.26,-0.22 0.58,-0.21 1.02,-0.54 1.29,-0.99 0.28,-0.66 0.6,-1.44 0.97,-2.34 l 9.01,-22.09 c 0.89,-2.19 1.34,-3.39 1.34,-3.61 0,-0.51 -0.48,-0.77 -1.43,-0.77 h -1.85 c -0.34,0 -0.51,-0.13 -0.51,-0.39 0,-0.22 0.17,-0.34 0.51,-0.34 h 11.68 c 0.28,0 0.42,0.11 0.42,0.34"
             id="path10" /><path
             class="cls-3"
             d="m 195.85,108.21 c 0,0.73 -0.4,1.98 -1.2,3.76 l -3.74,8.3 c -0.43,0.97 -0.65,1.62 -0.65,1.95 0,0.64 0.36,0.95 1.08,0.95 0.88,0 2.16,-0.69 3.85,-2.08 0.16,-0.09 0.28,-0.14 0.38,-0.14 0.19,0 0.28,0.07 0.28,0.22 0,0.36 -0.51,0.89 -1.54,1.58 -1.4,0.93 -2.89,1.4 -4.48,1.4 -0.97,0 -1.76,-0.2 -2.38,-0.61 -0.62,-0.41 -0.93,-0.93 -0.93,-1.56 0,-0.51 0.29,-1.42 0.88,-2.72 l 3.69,-8.12 c 0.89,-1.97 1.34,-3.3 1.34,-3.99 0,-1.03 -0.54,-1.54 -1.62,-1.54 -1.42,0 -3.08,0.99 -4.99,2.98 -1.45,1.51 -2.77,3.61 -3.97,6.32 l -3.79,8.58 c -0.15,0.45 -0.36,0.68 -0.6,0.68 h -3.14 c -0.22,0 -0.32,-0.08 -0.32,-0.23 0,-0.06 0.05,-0.15 0.14,-0.27 l 0.32,-0.67 7.07,-16.53 c 0.09,-0.15 0.17,-0.28 0.23,-0.4 -0.03,-0.21 -0.42,-0.33 -1.15,-0.36 -0.92,-0.03 -1.39,-0.19 -1.39,-0.49 0,-0.21 0.17,-0.32 0.51,-0.32 0.22,0 0.55,0.03 1.02,0.09 0.46,0.06 0.82,0.09 1.06,0.09 1.66,0 2.76,-0.12 3.28,-0.36 0.22,-0.09 0.35,-0.14 0.42,-0.14 0.19,0 0.28,0.09 0.28,0.27 0,0.09 -0.02,0.17 -0.05,0.23 l -1.71,4.24 c 0.25,-0.27 0.6,-0.66 1.06,-1.15 2.28,-2.39 4.48,-3.59 6.61,-3.59 1.23,0 2.23,0.34 3,1.02 0.77,0.68 1.15,1.55 1.15,2.61"
             id="path11" /><path
             class="cls-3"
             d="m 217.05,107.24 c 0,2.23 -0.44,4.53 -1.32,6.91 -0.88,2.38 -2.07,4.48 -3.58,6.32 -2.31,2.8 -4.68,4.2 -7.11,4.2 -1.32,0 -2.42,-0.36 -3.28,-1.06 -0.86,-0.71 -1.29,-1.62 -1.29,-2.73 0,-1.38 0.6,-3.46 1.8,-6.23 l 2.68,-6.18 c 0.37,-0.84 0.55,-1.4 0.55,-1.67 0,-0.63 -0.37,-0.95 -1.11,-0.95 -0.62,0 -1.44,0.45 -2.47,1.34 -1.03,0.9 -1.78,1.8 -2.24,2.71 -0.22,0.46 -0.45,0.68 -0.69,0.68 -0.28,0 -0.42,-0.1 -0.42,-0.32 0,-0.66 0.85,-1.78 2.54,-3.34 1.6,-1.47 3.17,-2.21 4.71,-2.21 0.95,0 1.72,0.24 2.31,0.72 0.59,0.48 0.88,1.11 0.88,1.89 0,0.84 -0.29,1.92 -0.88,3.24 l -2.59,5.85 c -0.86,1.95 -1.29,3.6 -1.29,4.95 0,1.56 0.66,2.34 1.99,2.34 1.94,0 4.06,-1.73 6.35,-5.19 2.29,-3.46 3.44,-6.68 3.44,-9.66 0,-0.99 -0.22,-1.49 -0.65,-1.49 -0.03,0 -0.18,0.04 -0.44,0.11 -0.26,0.08 -0.48,0.11 -0.67,0.11 -0.83,0 -1.25,-0.37 -1.25,-1.13 0,-0.48 0.19,-0.9 0.58,-1.24 0.39,-0.35 0.84,-0.52 1.36,-0.52 1.39,0 2.08,0.84 2.08,2.53"
             id="path12" /><path
             class="cls-3"
             d="m 232.29,96.54 c 0,1.26 -0.6,1.9 -1.8,1.9 -0.62,0 -1.12,-0.19 -1.52,-0.56 -0.4,-0.38 -0.6,-0.85 -0.6,-1.42 0,-1.23 0.71,-1.85 2.12,-1.85 1.2,0 1.8,0.65 1.8,1.94 m -3.18,8.44 c 0,0.09 -0.08,0.27 -0.23,0.54 -0.22,0.36 -0.57,1.1 -1.06,2.21 l -5.31,11.84 c -0.71,1.59 -1.06,2.58 -1.06,2.97 0,0.81 0.43,1.22 1.29,1.22 0.58,0 1.25,-0.2 2.01,-0.6 0.75,-0.4 1.33,-0.88 1.73,-1.44 0.28,-0.36 0.49,-0.53 0.65,-0.53 0.19,0 0.28,0.09 0.28,0.27 0,0.36 -0.43,0.89 -1.29,1.6 -1.29,1.07 -2.76,1.61 -4.39,1.61 -1.08,0 -1.96,-0.27 -2.66,-0.81 -0.69,-0.54 -1.04,-1.23 -1.04,-2.07 0,-0.75 0.38,-1.97 1.15,-3.65 l 4.8,-10.45 c 0.15,-0.51 0.34,-0.9 0.55,-1.17 0.09,-0.12 0.14,-0.22 0.14,-0.31 0,-0.27 -0.68,-0.45 -2.03,-0.54 -0.25,-0.06 -0.37,-0.17 -0.37,-0.32 0,-0.27 0.12,-0.41 0.37,-0.41 0.03,0 0.26,0.03 0.69,0.09 0.43,0.06 1.12,0.09 2.08,0.09 1.29,0 2.2,-0.1 2.73,-0.32 0.31,-0.12 0.52,-0.18 0.65,-0.18 0.22,0 0.32,0.12 0.32,0.36"
             id="path13" /><path
             class="cls-3"
             d="m 244.26,107.02 c 0,-0.93 -0.48,-1.4 -1.43,-1.4 -0.95,0 -1.96,0.36 -2.91,1.08 -1.73,1.32 -3.31,3.29 -4.76,5.91 0.37,0.03 0.79,0.05 1.25,0.05 1.72,0 3.4,-0.51 5.03,-1.53 1.88,-1.14 2.82,-2.51 2.82,-4.11 m 3.27,0.75 c 0,1.62 -0.89,2.96 -2.68,4.02 -1.79,1.06 -4.05,1.59 -6.79,1.59 -0.99,0 -2.08,-0.06 -3.28,-0.18 -1.14,2.31 -1.71,4.45 -1.71,6.43 0,2.67 1.22,4 3.65,4 1.88,0 3.71,-0.95 5.5,-2.85 0.4,-0.41 0.66,-0.62 0.79,-0.62 0.15,0 0.23,0.07 0.23,0.22 0,0.68 -0.72,1.53 -2.17,2.55 -1.66,1.16 -3.39,1.74 -5.17,1.74 -2,0 -3.65,-0.57 -4.94,-1.71 -1.29,-1.14 -1.94,-2.58 -1.94,-4.32 0,-3.36 1.88,-6.62 5.63,-9.77 3.29,-2.76 6.24,-4.14 8.82,-4.14 2.58,0 4.06,1.02 4.06,3.05"
             id="path14" /><path
             class="cls-3"
             d="m 264.62,106.79 c 0,0.6 -0.2,1.12 -0.6,1.56 -0.4,0.44 -0.86,0.66 -1.39,0.66 -0.49,0 -0.74,-0.17 -0.74,-0.5 l 0.09,-0.45 c 0.06,-0.18 0.09,-0.35 0.09,-0.5 0,-0.72 -0.37,-1.08 -1.11,-1.08 -0.89,0 -2.14,0.84 -3.74,2.53 -1.6,1.69 -3.11,4.05 -4.53,7.09 l -3.32,7.13 c -0.31,0.69 -0.57,1.04 -0.79,1.04 -0.62,-0.09 -1.09,-0.14 -1.43,-0.14 -0.52,0 -0.94,0.05 -1.25,0.14 h -0.28 c -0.28,0 -0.42,-0.06 -0.42,-0.18 0,-0.03 0.05,-0.09 0.14,-0.18 l 0.23,-0.45 7.81,-17.38 c 0,-0.24 -0.2,-0.36 -0.6,-0.36 h -0.19 c -0.12,0.03 -0.32,0.05 -0.6,0.05 h -0.46 c -0.46,0 -0.69,-0.11 -0.69,-0.32 0,-0.18 0.8,-0.3 2.4,-0.36 1.6,-0.06 2.68,-0.2 3.23,-0.41 0.24,-0.06 0.38,-0.09 0.41,-0.09 0.19,0 0.28,0.09 0.28,0.27 0,0.15 -0.2,0.71 -0.6,1.67 l -1.71,4.06 c 2.83,-3.85 5.33,-5.78 7.48,-5.78 1.51,0 2.26,0.66 2.26,1.99"
             id="path15" /><path
             class="cls-3"
             d="m 282.96,108.21 c 0,0.73 -0.4,1.98 -1.2,3.76 l -3.74,8.3 c -0.43,0.97 -0.65,1.62 -0.65,1.95 0,0.64 0.36,0.95 1.08,0.95 0.88,0 2.16,-0.69 3.85,-2.08 0.16,-0.09 0.28,-0.14 0.38,-0.14 0.19,0 0.28,0.07 0.28,0.22 0,0.36 -0.51,0.89 -1.54,1.58 -1.4,0.93 -2.89,1.4 -4.48,1.4 -0.96,0 -1.76,-0.2 -2.38,-0.61 -0.62,-0.41 -0.93,-0.93 -0.93,-1.56 0,-0.51 0.29,-1.42 0.88,-2.72 l 3.69,-8.12 c 0.89,-1.97 1.34,-3.3 1.34,-3.99 0,-1.03 -0.54,-1.54 -1.62,-1.54 -1.42,0 -3.08,0.99 -4.99,2.98 -1.45,1.51 -2.77,3.61 -3.97,6.32 l -3.79,8.58 c -0.15,0.45 -0.35,0.68 -0.6,0.68 h -3.14 c -0.21,0 -0.32,-0.08 -0.32,-0.23 0,-0.06 0.05,-0.15 0.14,-0.27 l 0.32,-0.67 7.07,-16.53 c 0.09,-0.15 0.17,-0.28 0.23,-0.4 -0.03,-0.21 -0.42,-0.33 -1.15,-0.36 -0.92,-0.03 -1.39,-0.19 -1.39,-0.49 0,-0.21 0.17,-0.32 0.51,-0.32 0.22,0 0.55,0.03 1.02,0.09 0.46,0.06 0.81,0.09 1.06,0.09 1.66,0 2.75,-0.12 3.28,-0.36 0.21,-0.09 0.35,-0.14 0.42,-0.14 0.19,0 0.28,0.09 0.28,0.27 0,0.09 -0.02,0.17 -0.05,0.23 l -1.71,4.24 c 0.25,-0.27 0.6,-0.66 1.06,-1.15 2.28,-2.39 4.48,-3.59 6.6,-3.59 1.23,0 2.23,0.34 3,1.02 0.77,0.68 1.15,1.55 1.15,2.61"
             id="path16" /><path
             class="cls-3"
             d="m 301.11,109.05 c 0,-2.29 -1.05,-3.43 -3.14,-3.43 -2.56,0 -4.77,1.79 -6.65,5.37 -1.79,3.43 -2.68,6.65 -2.68,9.66 0,2.26 1.03,3.39 3.09,3.39 2.59,0 4.74,-1.63 6.47,-4.88 1.94,-3.67 2.91,-7.04 2.91,-10.11 m 3.55,2.93 c 0,3.52 -1.65,6.7 -4.94,9.52 -2.59,2.23 -5.28,3.34 -8.08,3.34 -1.91,0 -3.48,-0.65 -4.71,-1.94 -1.23,-1.29 -1.85,-2.97 -1.85,-5.01 0,-1.74 0.51,-3.54 1.52,-5.37 1.02,-1.83 2.37,-3.4 4.07,-4.69 2.65,-2.02 5.2,-3.02 7.67,-3.02 1.88,0 3.4,0.66 4.57,1.99 1.17,1.32 1.75,3.05 1.75,5.19"
             id="path17" /></g><g
           id="g22"><path
             class="cls-3"
             d="m 317.47,121.65 h -8.64 v -1.21 l 4.57,-5.07 c 0.68,-0.77 1.14,-1.39 1.4,-1.87 0.26,-0.48 0.39,-0.98 0.39,-1.49 0,-0.69 -0.21,-1.25 -0.63,-1.69 -0.42,-0.44 -0.97,-0.66 -1.67,-0.66 -0.83,0 -1.48,0.24 -1.94,0.71 -0.46,0.47 -0.69,1.13 -0.69,1.98 h -1.68 c 0,-1.21 0.39,-2.2 1.17,-2.94 0.78,-0.75 1.83,-1.12 3.14,-1.12 1.23,0 2.2,0.32 2.91,0.96 0.71,0.64 1.07,1.5 1.07,2.57 0,1.3 -0.83,2.85 -2.48,4.64 l -3.53,3.83 h 6.62 v 1.37 z"
             id="path18" /><path
             class="cls-3"
             d="m 326.33,117.22 h 1.83 v 1.37 h -1.83 v 3.06 h -1.69 v -3.06 h -6.01 v -0.99 l 5.91,-9.14 h 1.79 z m -5.79,0 h 4.11 v -6.47 l -0.2,0.36 z"
             id="path19" /><path
             class="cls-3"
             d="m 333.33,116.73 h -4.42 v -1.37 h 4.42 z"
             id="path20" /><path
             class="cls-3"
             d="m 343.44,121.65 h -8.64 v -1.21 l 4.57,-5.07 c 0.68,-0.77 1.14,-1.39 1.4,-1.87 0.26,-0.48 0.39,-0.98 0.39,-1.49 0,-0.69 -0.21,-1.25 -0.63,-1.69 -0.42,-0.44 -0.97,-0.66 -1.67,-0.66 -0.83,0 -1.48,0.24 -1.94,0.71 -0.46,0.47 -0.69,1.13 -0.69,1.98 h -1.68 c 0,-1.21 0.39,-2.2 1.17,-2.94 0.78,-0.75 1.83,-1.12 3.14,-1.12 1.23,0 2.2,0.32 2.91,0.96 0.71,0.64 1.07,1.5 1.07,2.57 0,1.3 -0.83,2.85 -2.48,4.64 l -3.53,3.83 h 6.62 v 1.37 z"
             id="path21" /><path
             class="cls-3"
             d="m 345.98,115.03 0.67,-6.58 h 6.76 V 110 h -5.34 l -0.4,3.6 c 0.65,-0.38 1.38,-0.57 2.2,-0.57 1.2,0 2.16,0.4 2.86,1.19 0.71,0.79 1.06,1.87 1.06,3.22 0,1.35 -0.37,2.43 -1.1,3.21 -0.73,0.78 -1.76,1.17 -3.08,1.17 -1.17,0 -2.12,-0.32 -2.85,-0.97 -0.74,-0.65 -1.16,-1.54 -1.26,-2.68 h 1.59 c 0.1,0.76 0.37,1.32 0.81,1.71 0.44,0.38 1.01,0.58 1.72,0.58 0.78,0 1.39,-0.27 1.83,-0.8 0.44,-0.53 0.67,-1.27 0.67,-2.2 0,-0.88 -0.24,-1.59 -0.72,-2.12 -0.48,-0.54 -1.12,-0.8 -1.92,-0.8 -0.73,0 -1.31,0.16 -1.72,0.48 l -0.44,0.36 -1.34,-0.34 z"
             id="path22" /></g></g></g></g><g
     id="g54"
     style="isolation:isolate"
     transform="matrix(1.2061063,0,0,1.2061063,73.965517,151.32501)"><path
       class="cls-3"
       d="m 8.45,12.41 c 0,-4.72 3.23,-9.32 8.31,-9.32 2.3,0 3.91,0.78 4.63,1.24 L 21.08,6.11 H 20.96 C 20.34,4.19 19.01,3.37 16.7,3.37 c -4.36,0 -6.95,4.98 -6.95,9.24 0,3.04 1.44,5.24 4.15,5.24 1.97,0 3.85,-0.72 4.09,-1.88 l 0.47,-2.16 c 0.31,-1.42 0.41,-2.14 -0.84,-2.24 l 0.02,-0.12 h 3.17 l -0.02,0.12 c -0.64,0.08 -0.82,0.76 -1.15,2.24 L 19,16.69 c -1.32,0.76 -3.15,1.44 -5.2,1.44 -3.29,0 -5.35,-2.24 -5.35,-5.72 z"
       id="path9-9" /><path
       class="cls-3"
       d="m 22.39,12.85 c -0.14,0.62 -0.23,1.24 -0.23,1.88 0,1.84 0.7,2.64 1.89,2.64 1.34,0 2.8,-0.98 4.03,-2.46 l 0.12,0.08 c -1.46,2.14 -3.02,3.14 -4.57,3.14 -1.55,0 -2.59,-0.98 -2.59,-3.16 0,-3.32 2.51,-7.8 6.31,-7.8 1.42,0 1.97,0.6 1.97,1.42 0,1.84 -2.76,2.98 -6.95,4.26 z m 0.09,-0.36 c 3.72,-1.24 5.72,-2.08 5.72,-3.84 0,-0.64 -0.27,-1.2 -1.15,-1.2 -1.79,0 -3.78,2.32 -4.57,5.04 z"
       id="path10-9" /><path
       class="cls-3"
       d="m 39.66,15.13 c -1.03,1.88 -2.14,3 -2.9,3 -0.76,0 -0.84,-0.68 -0.56,-1.88 l 1.25,-5.28 c 0.37,-1.56 0.62,-2.92 -0.56,-2.92 -2.06,0 -4.94,4.62 -6.09,9.84 h -1.03 l 1.87,-8.6 c 0.12,-0.56 0.25,-1.12 -0.12,-1.12 -0.31,0 -0.88,0.6 -1.71,1.64 l -0.1,-0.08 c 0.95,-1.72 1.91,-2.56 2.53,-2.56 0.7,0 0.74,0.72 0.49,1.88 l -1.13,5.12 c 1.58,-4.16 3.97,-7 5.9,-7 1.75,0 1.44,1.86 0.95,3.94 l -1.15,4.9 c -0.12,0.56 -0.27,1.12 0.08,1.12 0.31,0 1.01,-0.56 2.16,-2.08 l 0.1,0.08 z"
       id="path11-1" /><path
       class="cls-3"
       d="m 41.53,12.85 c -0.14,0.62 -0.23,1.24 -0.23,1.88 0,1.84 0.7,2.64 1.89,2.64 1.34,0 2.8,-0.98 4.03,-2.46 l 0.12,0.08 c -1.46,2.14 -3.02,3.14 -4.57,3.14 -1.55,0 -2.59,-0.98 -2.59,-3.16 0,-3.32 2.51,-7.8 6.31,-7.8 1.42,0 1.97,0.6 1.97,1.42 0,1.84 -2.76,2.98 -6.95,4.26 z m 0.09,-0.36 c 3.72,-1.24 5.72,-2.08 5.72,-3.84 0,-0.64 -0.27,-1.2 -1.15,-1.2 -1.79,0 -3.78,2.32 -4.57,5.04 z"
       id="path12-7" /><path
       class="cls-3"
       d="m 56.29,7.33 -0.58,1.24 h -0.12 c -0.25,-0.12 -0.45,-0.16 -0.7,-0.16 -2.12,0 -3.95,5 -4.94,9.48 h -1.03 l 1.87,-8.6 c 0.12,-0.56 0.25,-1.12 -0.12,-1.12 -0.31,0 -0.88,0.6 -1.71,1.64 l -0.1,-0.08 c 0.95,-1.72 1.91,-2.56 2.53,-2.56 0.7,0 0.74,0.72 0.49,1.88 l -0.93,4.2 c 1.13,-3.32 2.74,-6.08 4.5,-6.08 0.27,0 0.56,0.02 0.82,0.16 z"
       id="path13-2" /><path
       class="cls-3"
       d="m 64.4,15.13 c -1.03,1.88 -2.12,3 -2.94,3 -0.82,0 -0.68,-1.08 -0.49,-1.88 l 0.64,-2.9 c -1.28,3.08 -3.31,4.78 -5.02,4.78 -1.27,0 -2.02,-0.98 -2.02,-2.82 0,-3.58 2.78,-8.14 6.44,-8.14 0.88,0 1.58,0.26 1.97,0.84 l 0.86,-0.72 h 0.12 l -1.91,8.72 c -0.06,0.28 -0.23,1.02 0.14,1.02 0.41,0 1.3,-0.92 2.1,-1.98 l 0.1,0.08 z m -2.18,-4.6 c 0.06,-0.28 0.1,-0.54 0.1,-0.94 0,-1.2 -0.35,-2.14 -1.6,-2.14 -2.61,0 -5,4.12 -5,7.46 0,1.6 0.56,2.5 1.52,2.5 1.71,0 4.13,-2.9 4.98,-6.88 z"
       id="path14-3" /><path
       class="cls-3"
       d="m 64.94,14.97 c 0,-3.4 2.65,-7.8 6.01,-7.8 1.48,0 2.22,0.86 2.22,1.98 l -0.9,0.9 h -0.12 c 0.21,-1.84 -0.33,-2.6 -1.34,-2.6 -2.26,0 -4.75,3.78 -4.75,7.28 0,1.84 0.7,2.64 1.89,2.64 1.36,0 2.55,-0.98 3.78,-2.46 l 0.12,0.08 c -1.46,2.14 -2.76,3.14 -4.32,3.14 -1.56,0 -2.59,-0.98 -2.59,-3.16 z"
       id="path15-6" /><path
       class="cls-3"
       d="m 73.9,16.25 1.52,-6.96 c 0.12,-0.56 0.25,-1.12 -0.12,-1.12 -0.31,0 -0.88,0.6 -1.71,1.64 l -0.1,-0.08 c 0.95,-1.72 1.91,-2.56 2.53,-2.56 0.7,0 0.74,0.72 0.49,1.88 l -1.52,6.96 c -0.06,0.28 -0.23,1.02 0.14,1.02 0.41,0 1.3,-0.92 2.1,-1.98 l 0.1,0.08 c -1.03,1.88 -2.12,3 -2.94,3 -0.82,0 -0.68,-1.08 -0.49,-1.88 z m 1.89,-11.8 c 0,-0.48 0.41,-0.88 0.91,-0.88 0.5,0 0.9,0.4 0.9,0.88 0,0.48 -0.41,0.88 -0.9,0.88 -0.49,0 -0.91,-0.4 -0.91,-0.88 z"
       id="path16-5" /><path
       class="cls-3"
       d="m 77.93,14.13 c 0,-3.28 2.34,-6.96 5.39,-6.96 2.14,0 3.5,1.52 3.5,4 0,3.28 -2.35,6.96 -5.39,6.96 -2.14,0 -3.5,-1.52 -3.5,-4 z m 7.77,-3.36 c 0,-1.96 -0.78,-3.32 -2.43,-3.32 -2.59,0 -4.24,4.08 -4.24,7.08 0,1.96 0.78,3.32 2.43,3.32 2.59,0 4.24,-4.08 4.24,-7.08 z M 82.82,6.11 c 0.76,-1 2.63,-3.82 2.86,-4.04 0.12,-0.12 0.27,-0.2 0.43,-0.2 0.29,0 0.51,0.18 0.51,0.48 0,0.22 -0.14,0.38 -0.27,0.5 -0.53,0.5 -2.65,2.52 -3.48,3.32 L 82.81,6.11 Z"
       id="path17-5" /><path
       class="cls-3"
       d="m 97.59,15.13 c -1.03,1.88 -2.14,3 -2.9,3 -0.76,0 -0.84,-0.68 -0.56,-1.88 l 1.25,-5.28 C 95.75,9.41 96,8.05 94.82,8.05 c -2.06,0 -4.94,4.62 -6.09,9.84 H 87.7 l 1.87,-8.6 c 0.12,-0.56 0.25,-1.12 -0.12,-1.12 -0.31,0 -0.88,0.6 -1.71,1.64 l -0.1,-0.08 c 0.95,-1.72 1.91,-2.56 2.53,-2.56 0.7,0 0.74,0.72 0.49,1.88 l -1.13,5.12 c 1.58,-4.16 3.97,-7 5.9,-7 1.75,0 1.44,1.86 0.95,3.94 l -1.15,4.9 c -0.12,0.56 -0.27,1.12 0.08,1.12 0.31,0 1.01,-0.56 2.16,-2.08 l 0.1,0.08 z"
       id="path18-8" /><path
       class="cls-3"
       d="m 105.57,8.05 -1.65,7.48 c -0.16,0.76 -0.21,1.6 0.43,1.6 0.64,0 1.81,-0.94 3.15,-2.68 l 0.1,0.08 c -1.17,2.14 -2.92,3.6 -3.99,3.6 -0.97,0 -1.05,-1.16 -0.78,-2.36 l 1.71,-7.72 h -1.09 l 0.04,-0.16 0.31,-0.12 c 0.84,-0.32 1.56,-1.08 2.3,-2.8 h 0.12 l -0.53,2.44 h 3.74 l -0.39,0.64 h -3.48 z"
       id="path19-1" /><path
       class="cls-3"
       d="m 116.15,7.33 -0.58,1.24 h -0.12 C 115.2,8.45 115,8.41 114.75,8.41 c -2.12,0 -3.95,5 -4.94,9.48 h -1.03 l 1.87,-8.6 c 0.12,-0.56 0.25,-1.12 -0.12,-1.12 -0.31,0 -0.88,0.6 -1.71,1.64 l -0.1,-0.08 c 0.95,-1.72 1.91,-2.56 2.53,-2.56 0.7,0 0.74,0.72 0.49,1.88 l -0.93,4.2 c 1.13,-3.32 2.74,-6.08 4.5,-6.08 0.27,0 0.56,0.02 0.82,0.16 z"
       id="path20-4" /><path
       class="cls-3"
       d="m 124.26,15.13 c -1.03,1.88 -2.12,3 -2.94,3 -0.82,0 -0.68,-1.08 -0.49,-1.88 l 0.64,-2.9 c -1.28,3.08 -3.31,4.78 -5.02,4.78 -1.27,0 -2.02,-0.98 -2.02,-2.82 0,-3.58 2.78,-8.14 6.44,-8.14 0.88,0 1.58,0.26 1.97,0.84 l 0.86,-0.72 h 0.12 l -1.91,8.72 c -0.06,0.28 -0.23,1.02 0.14,1.02 0.41,0 1.3,-0.92 2.1,-1.98 l 0.1,0.08 z m -2.18,-4.6 c 0.06,-0.28 0.1,-0.54 0.1,-0.94 0,-1.2 -0.35,-2.14 -1.6,-2.14 -2.61,0 -5,4.12 -5,7.46 0,1.6 0.55,2.5 1.52,2.5 1.71,0 4.13,-2.9 4.98,-6.88 z"
       id="path21-7" /><path
       class="cls-3"
       d="m 124.12,17.05 0.49,-1.32 h 0.12 c 0.29,1.12 1.34,2.04 2.65,2.04 1.31,0 2.2,-1.06 2.2,-2.28 0,-1.08 -0.7,-1.62 -1.69,-2.4 l -0.58,-0.46 c -0.74,-0.6 -1.42,-1.16 -1.42,-2.46 0,-1.64 1.34,-3 3.15,-3 1.15,0 2.06,0.52 2.51,0.88 l -0.35,1.28 h -0.12 c -0.33,-0.9 -1.11,-1.8 -2.39,-1.8 -1.28,0 -1.93,1.14 -1.93,2.12 0,0.98 0.58,1.54 1.3,2.12 l 0.58,0.46 c 1.15,0.92 1.83,1.54 1.83,2.78 0,1.76 -1.54,3.12 -3.56,3.12 -1.23,0 -2.34,-0.52 -2.8,-1.08 z"
       id="path22-1" /><path
       class="cls-3"
       d="m 145.86,7.29 -0.43,0.92 -2.32,-0.22 c 0.49,0.5 0.78,1.22 0.78,2.1 0,2.18 -1.73,4.16 -4.03,4.18 -1.23,0.38 -1.6,0.58 -1.6,1.02 0,0.24 0.14,0.44 0.6,0.56 l 2.12,0.56 c 2.04,0.54 3.33,1 3.33,2.36 0,2.2 -2.82,3.92 -5.88,3.92 -2.37,0 -3.6,-1.02 -3.6,-2.56 0,-1.28 0.9,-2.52 2.82,-3.1 l 0.29,-0.06 0.08,0.02 c -1.56,0.68 -2.24,1.72 -2.24,2.74 0,1.32 1.17,2.36 3.48,2.36 2.47,0 4.32,-1.2 4.32,-2.6 0,-1.24 -1.44,-1.66 -2.67,-1.98 l -2.51,-0.66 c -0.82,-0.22 -1.15,-0.62 -1.15,-1.14 0,-0.86 0.88,-1.24 2.02,-1.48 -1.44,-0.24 -2.37,-1.32 -2.37,-2.9 0,-2.16 1.73,-4.16 4.07,-4.16 0.76,0 1.4,0.2 1.91,0.6 l 3,-0.48 z m -3.06,2.44 c 0,-1.4 -0.6,-2.28 -1.79,-2.28 -2,0 -3.02,2.4 -3.02,4.24 0,1.42 0.62,2.3 1.81,2.3 1.95,0 3,-2.42 3,-4.26 z"
       id="path23" /><path
       class="cls-3"
       d="m 146.1,12.85 c -0.14,0.62 -0.23,1.24 -0.23,1.88 0,1.84 0.7,2.64 1.89,2.64 1.34,0 2.8,-0.98 4.03,-2.46 l 0.12,0.08 c -1.46,2.14 -3.02,3.14 -4.57,3.14 -1.55,0 -2.59,-0.98 -2.59,-3.16 0,-3.32 2.51,-7.8 6.31,-7.8 1.42,0 1.97,0.6 1.97,1.42 0,1.84 -2.76,2.98 -6.95,4.26 z m 0.09,-0.36 c 3.72,-1.24 5.72,-2.08 5.72,-3.84 0,-0.64 -0.27,-1.2 -1.15,-1.2 -1.79,0 -3.79,2.32 -4.57,5.04 z"
       id="path24" /><path
       class="cls-3"
       d="m 163.37,15.13 c -1.03,1.88 -2.14,3 -2.9,3 -0.76,0 -0.84,-0.68 -0.56,-1.88 l 1.25,-5.28 c 0.37,-1.56 0.62,-2.92 -0.56,-2.92 -2.06,0 -4.94,4.62 -6.09,9.84 h -1.03 l 1.87,-8.6 c 0.12,-0.56 0.25,-1.12 -0.12,-1.12 -0.31,0 -0.88,0.6 -1.71,1.64 l -0.1,-0.08 c 0.95,-1.72 1.91,-2.56 2.53,-2.56 0.7,0 0.74,0.72 0.49,1.88 l -1.13,5.12 c 1.58,-4.16 3.97,-7 5.9,-7 1.75,0 1.44,1.86 0.95,3.94 l -1.15,4.9 c -0.12,0.56 -0.27,1.12 0.08,1.12 0.31,0 1.01,-0.56 2.16,-2.08 l 0.1,0.08 z"
       id="path25" /><path
       class="cls-3"
       d="m 165.24,12.85 c -0.14,0.62 -0.23,1.24 -0.23,1.88 0,1.84 0.7,2.64 1.89,2.64 1.34,0 2.8,-0.98 4.03,-2.46 l 0.12,0.08 c -1.46,2.14 -3.02,3.14 -4.57,3.14 -1.55,0 -2.59,-0.98 -2.59,-3.16 0,-3.32 2.51,-7.8 6.31,-7.8 1.42,0 1.97,0.6 1.97,1.42 0,1.84 -2.76,2.98 -6.95,4.26 z m 0.09,-0.36 c 3.72,-1.24 5.72,-2.08 5.72,-3.84 0,-0.64 -0.27,-1.2 -1.15,-1.2 -1.79,0 -3.79,2.32 -4.57,5.04 z"
       id="path26" /><path
       class="cls-3"
       d="m 180,7.33 -0.58,1.24 h -0.12 c -0.25,-0.12 -0.45,-0.16 -0.7,-0.16 -2.12,0 -3.95,5 -4.94,9.48 h -1.03 l 1.87,-8.6 c 0.12,-0.56 0.25,-1.12 -0.12,-1.12 -0.31,0 -0.88,0.6 -1.71,1.64 l -0.1,-0.08 c 0.95,-1.72 1.91,-2.56 2.53,-2.56 0.7,0 0.74,0.72 0.49,1.88 l -0.93,4.2 c 1.13,-3.32 2.74,-6.08 4.5,-6.08 0.27,0 0.55,0.02 0.82,0.16 z"
       id="path27" /><path
       class="cls-3"
       d="m 188.11,15.13 c -1.03,1.88 -2.12,3 -2.94,3 -0.82,0 -0.68,-1.08 -0.49,-1.88 l 0.64,-2.9 c -1.28,3.08 -3.31,4.78 -5.02,4.78 -1.28,0 -2.02,-0.98 -2.02,-2.82 0,-3.58 2.78,-8.14 6.44,-8.14 0.88,0 1.58,0.26 1.97,0.84 l 0.86,-0.72 h 0.12 l -1.91,8.72 c -0.06,0.28 -0.23,1.02 0.14,1.02 0.41,0 1.3,-0.92 2.1,-1.98 l 0.1,0.08 z m -2.18,-4.6 c 0.06,-0.28 0.1,-0.54 0.1,-0.94 0,-1.2 -0.35,-2.14 -1.6,-2.14 -2.61,0 -5,4.12 -5,7.46 0,1.6 0.56,2.5 1.52,2.5 1.71,0 4.13,-2.9 4.98,-6.88 z"
       id="path28" /><path
       class="cls-3"
       d="m 188.65,14.97 c 0,-3.4 2.65,-7.8 6.01,-7.8 1.48,0 2.22,0.86 2.22,1.98 l -0.91,0.9 h -0.12 c 0.21,-1.84 -0.33,-2.6 -1.34,-2.6 -2.26,0 -4.75,3.78 -4.75,7.28 0,1.84 0.7,2.64 1.89,2.64 1.36,0 2.55,-0.98 3.78,-2.46 l 0.12,0.08 c -1.46,2.14 -2.76,3.14 -4.32,3.14 -1.56,0 -2.59,-0.98 -2.59,-3.16 z"
       id="path29" /><path
       class="cls-3"
       d="m 197.61,16.25 1.52,-6.96 c 0.12,-0.56 0.25,-1.12 -0.12,-1.12 -0.31,0 -0.88,0.6 -1.71,1.64 l -0.1,-0.08 c 0.95,-1.72 1.91,-2.56 2.53,-2.56 0.7,0 0.74,0.72 0.49,1.88 l -1.52,6.96 c -0.06,0.28 -0.23,1.02 0.14,1.02 0.41,0 1.29,-0.92 2.1,-1.98 l 0.1,0.08 c -1.03,1.88 -2.12,3 -2.94,3 -0.82,0 -0.68,-1.08 -0.49,-1.88 z m 1.89,-11.8 c 0,-0.48 0.41,-0.88 0.9,-0.88 0.49,0 0.91,0.4 0.91,0.88 0,0.48 -0.41,0.88 -0.91,0.88 -0.5,0 -0.9,-0.4 -0.9,-0.88 z"
       id="path30" /><path
       class="cls-3"
       d="m 201.64,14.13 c 0,-3.28 2.34,-6.96 5.39,-6.96 2.14,0 3.5,1.52 3.5,4 0,3.28 -2.34,6.96 -5.39,6.96 -2.14,0 -3.5,-1.52 -3.5,-4 z m 7.77,-3.36 c 0,-1.96 -0.78,-3.32 -2.43,-3.32 -2.59,0 -4.24,4.08 -4.24,7.08 0,1.96 0.78,3.32 2.43,3.32 2.59,0 4.24,-4.08 4.24,-7.08 z m -2.88,-4.66 c 0.76,-1 2.63,-3.82 2.86,-4.04 0.12,-0.12 0.27,-0.2 0.43,-0.2 0.29,0 0.51,0.18 0.51,0.48 0,0.22 -0.14,0.38 -0.27,0.5 -0.54,0.5 -2.65,2.52 -3.48,3.32 l -0.06,-0.06 z"
       id="path31" /><path
       class="cls-3"
       d="m 221.3,15.13 c -1.03,1.88 -2.14,3 -2.9,3 -0.76,0 -0.84,-0.68 -0.56,-1.88 l 1.25,-5.28 c 0.37,-1.56 0.62,-2.92 -0.56,-2.92 -2.06,0 -4.94,4.62 -6.09,9.84 h -1.03 l 1.87,-8.6 c 0.12,-0.56 0.25,-1.12 -0.12,-1.12 -0.31,0 -0.88,0.6 -1.71,1.64 l -0.1,-0.08 c 0.95,-1.72 1.91,-2.56 2.53,-2.56 0.7,0 0.74,0.72 0.49,1.88 l -1.13,5.12 c 1.58,-4.16 3.97,-7 5.9,-7 1.75,0 1.44,1.86 0.95,3.94 l -1.15,4.9 c -0.12,0.56 -0.27,1.12 0.08,1.12 0.31,0 1.01,-0.56 2.16,-2.08 l 0.1,0.08 z"
       id="path32" /><path
       class="cls-3"
       d="m 18.89,25.33 h -0.12 c -0.56,-2.28 -1.11,-2.68 -3.21,-2.68 h -0.6 l -2.57,11.74 c -0.33,1.48 -0.43,2.38 0.97,2.38 l -0.02,0.12 H 8.55 l 0.02,-0.12 c 1.4,0 1.69,-0.9 2.02,-2.38 l 2.55,-11.74 h -0.62 c -2.06,0 -2.8,0.4 -4.34,2.68 H 8.06 l 0.9,-3 h 10.31 l -0.37,3 z"
       id="path33" /><path
       class="cls-3"
       d="m 26.9,34.07 c -1.03,1.92 -2.18,3.06 -3.17,3.06 -0.99,0 -0.99,-0.94 -0.74,-2.12 l 1.05,-4.7 c -1.52,3.96 -3.7,6.82 -5.78,6.82 -1.71,0 -1.56,-1.76 -1.07,-3.84 l 1.13,-4.82 c 0.1,-0.48 0.25,-1.02 -0.08,-1.02 -0.31,0 -0.84,0.52 -1.58,1.46 l -0.1,-0.08 c 0.91,-1.72 1.93,-2.66 2.74,-2.66 0.99,0 1.05,0.92 0.76,2.12 l -1.21,5.16 c -0.31,1.3 -0.53,2.5 0.43,2.5 1.6,0 4.38,-4.06 5.55,-9.32 l 1.62,-0.26 h 0.1 l -1.85,8.46 c -0.1,0.48 -0.23,1.02 0.12,1.02 0.31,0 0.97,-0.54 1.97,-1.86 l 0.1,0.08 z"
       id="path34" /><path
       class="cls-3"
       d="m 41.71,34.07 c -1.05,1.92 -2.2,3.06 -3.17,3.06 -0.97,0 -1.03,-0.92 -0.74,-2.12 l 1.19,-5.16 c 0.33,-1.3 0.53,-2.5 -0.43,-2.5 -1.77,0 -4.48,4.46 -5.59,9.54 H 31.3 l 2.84,-13.08 c 0.27,-1.26 0.04,-1.72 -0.64,-1.88 l 0.04,-0.12 2.74,-0.56 h 0.08 l -2.55,11.74 c 1.5,-3.96 3.7,-6.82 5.78,-6.82 1.69,0 1.56,1.76 1.07,3.84 l -1.13,4.82 c -0.12,0.48 -0.25,1.02 0.08,1.02 0.31,0 0.97,-0.54 2,-1.86 z"
       id="path35" /><path
       class="cls-3"
       d="m 42.3,33.03 c 0,-3.3 2.39,-6.86 5.57,-6.86 2.26,0 3.72,1.58 3.72,4.12 0,3.36 -2.39,6.84 -5.55,6.84 -2.24,0 -3.74,-1.56 -3.74,-4.1 z m 7.61,-3.54 c 0,-1.8 -0.62,-3.04 -2,-3.04 -2.41,0 -3.91,4.44 -3.91,7.36 0,1.78 0.62,3.04 2,3.04 2.43,0 3.91,-4.44 3.91,-7.36 z"
       id="path36" /><path
       class="cls-3"
       d="m 62.08,26.27 -0.49,1.02 -2.26,-0.2 c 0.49,0.5 0.76,1.18 0.76,2 0,2.24 -1.79,4.16 -4.18,4.18 -1.15,0.32 -1.52,0.52 -1.52,0.92 0,0.28 0.21,0.44 0.62,0.56 l 2.14,0.56 c 1.83,0.5 3.31,1 3.31,2.42 0,2.22 -3.06,3.96 -6.27,3.96 -2.39,0 -3.48,-1 -3.48,-2.38 0,-1.3 1.03,-2.44 2.84,-2.94 l 0.33,-0.06 0.08,0.02 c -1.34,0.64 -1.91,1.58 -1.91,2.5 0,1.24 1.05,2.2 3.27,2.2 2.22,0 4.03,-1.04 4.03,-2.36 0,-1.14 -1.32,-1.54 -2.57,-1.86 L 54.25,36.15 C 53.53,35.95 53,35.57 53,34.89 c 0,-0.96 1.01,-1.42 2.18,-1.68 -1.52,-0.24 -2.49,-1.32 -2.49,-2.88 0,-2.22 1.81,-4.16 4.22,-4.16 0.78,0 1.48,0.2 2,0.54 l 3.19,-0.44 z m -3.54,2.2 c 0,-1.24 -0.49,-2.02 -1.52,-2.02 -1.79,0 -2.8,2.68 -2.8,4.5 0,1.26 0.51,2.04 1.56,2.04 1.77,0 2.76,-2.7 2.76,-4.52 z"
       id="path37" /><path
       class="cls-3"
       d="m 71.13,34.07 c -1.03,1.92 -2.16,3.06 -3.15,3.06 -1.05,0 -0.95,-1.22 -0.74,-2.12 l 0.51,-2.32 c -1.19,2.86 -3.04,4.44 -4.71,4.44 -1.34,0 -2.12,-1.04 -2.12,-2.96 0,-3.6 2.76,-8 6.56,-8 0.95,0 1.69,0.26 2.12,0.82 l 1.11,-0.7 h 0.1 l -1.85,8.54 c -0.06,0.26 -0.23,0.94 0.12,0.94 0.39,0 1.19,-0.8 1.93,-1.78 l 0.1,0.08 z m -2.69,-4.54 c 0.06,-0.34 0.1,-0.66 0.1,-1.08 0,-1.12 -0.31,-2 -1.38,-2 -2.28,0 -4.48,4.12 -4.48,7.38 0,1.5 0.49,2.32 1.32,2.32 1.5,0 3.66,-2.9 4.44,-6.62 z"
       id="path38" /><path
       class="cls-3"
       d="m 79.73,26.33 -0.78,1.72 h -0.12 c -0.25,-0.12 -0.45,-0.16 -0.7,-0.16 -2.12,0 -3.74,4.52 -4.73,9 h -1.65 l 1.83,-8.42 c 0.1,-0.5 0.23,-1.02 -0.12,-1.02 -0.29,0 -0.82,0.52 -1.56,1.46 l -0.1,-0.08 c 0.91,-1.72 1.95,-2.66 2.8,-2.66 0.95,0 0.95,0.94 0.7,2.12 l -0.86,3.86 c 1.09,-3.28 2.61,-5.98 4.44,-5.98 0.29,0 0.58,0.02 0.86,0.16 z"
       id="path39" /><path
       class="cls-3"
       d="m 85.12,31.79 c -0.12,0.54 -0.19,1.12 -0.19,1.68 0,1.86 0.68,2.68 1.83,2.68 1.25,0 2.61,-0.94 3.81,-2.34 l 0.12,0.08 c -1.5,2.26 -3.09,3.26 -4.69,3.26 -1.6,0 -2.82,-1.06 -2.82,-3.3 0,-3.18 2.32,-7.68 6.4,-7.68 1.54,0 2.24,0.62 2.24,1.54 0,1.82 -2.61,2.88 -6.71,4.08 z m 0.08,-0.34 c 3.37,-1.16 5.08,-2.16 5.08,-3.82 0,-0.64 -0.25,-1.16 -1.03,-1.16 -1.6,0 -3.39,2.32 -4.05,4.98 z"
       id="path40" /><path
       class="cls-3"
       d="m 91,36.07 0.53,-1.58 h 0.12 c 0.35,1.24 1.5,2.26 2.82,2.26 1.15,0 1.95,-0.9 1.95,-2 0,-1.02 -0.72,-1.6 -1.71,-2.4 l -0.58,-0.46 c -0.74,-0.58 -1.44,-1.18 -1.44,-2.54 0,-1.76 1.4,-3.18 3.35,-3.18 1.09,0 2.04,0.46 2.63,0.82 l -0.39,1.52 h -0.12 c -0.37,-0.98 -1.3,-1.96 -2.53,-1.96 -1.09,0 -1.75,0.96 -1.75,1.86 0,0.98 0.64,1.54 1.32,2.1 l 0.58,0.46 c 1.11,0.88 1.85,1.52 1.85,2.88 0,1.88 -1.58,3.28 -3.74,3.28 -1.21,0 -2.35,-0.46 -2.9,-1.06 z"
       id="path41" /><path
       class="cls-3"
       d="m 113.73,34.07 c -1.03,1.92 -2.18,3.06 -3.15,3.06 -0.97,0 -1.05,-0.92 -0.76,-2.12 l 1.21,-5.16 c 0.31,-1.3 0.53,-2.5 -0.43,-2.5 -1.77,0 -4.48,4.46 -5.62,9.54 h -1.65 l 1.83,-8.42 c 0.1,-0.48 0.23,-1.02 -0.12,-1.02 -0.29,0 -0.82,0.52 -1.56,1.46 l -0.1,-0.08 c 0.91,-1.72 1.95,-2.66 2.8,-2.66 0.95,0 0.95,0.94 0.7,2.12 l -1.07,4.78 c 1.5,-4 3.7,-6.9 5.8,-6.9 1.71,0 1.58,1.76 1.09,3.84 l -1.15,4.82 c -0.1,0.48 -0.25,1.02 0.1,1.02 0.29,0 0.97,-0.54 1.97,-1.86 l 0.1,0.08 z"
       id="path42" /><path
       class="cls-3"
       d="m 124.69,34.07 c -1.03,1.92 -2.18,3.06 -3.17,3.06 -0.99,0 -0.99,-0.94 -0.74,-2.12 l 1.05,-4.7 c -1.52,3.96 -3.7,6.82 -5.78,6.82 -1.71,0 -1.56,-1.76 -1.07,-3.84 l 1.13,-4.82 c 0.1,-0.48 0.25,-1.02 -0.08,-1.02 -0.31,0 -0.84,0.52 -1.58,1.46 l -0.1,-0.08 c 0.91,-1.72 1.93,-2.66 2.74,-2.66 0.99,0 1.05,0.92 0.76,2.12 l -1.21,5.16 c -0.31,1.3 -0.53,2.5 0.43,2.5 1.6,0 4.38,-4.06 5.55,-9.32 l 1.62,-0.26 h 0.1 l -1.85,8.46 c -0.1,0.48 -0.23,1.02 0.12,1.02 0.31,0 0.97,-0.54 1.97,-1.86 l 0.1,0.08 z"
       id="path43" /><path
       class="cls-3"
       d="m 127.18,31.79 c -0.12,0.54 -0.18,1.12 -0.18,1.68 0,1.86 0.68,2.68 1.83,2.68 1.25,0 2.61,-0.94 3.81,-2.34 l 0.12,0.08 c -1.5,2.26 -3.08,3.26 -4.69,3.26 -1.61,0 -2.82,-1.06 -2.82,-3.3 0,-3.18 2.33,-7.68 6.4,-7.68 1.54,0 2.24,0.62 2.24,1.54 0,1.82 -2.61,2.88 -6.71,4.08 z m 0.09,-0.34 c 3.37,-1.16 5.08,-2.16 5.08,-3.82 0,-0.64 -0.25,-1.16 -1.03,-1.16 -1.6,0 -3.39,2.32 -4.05,4.98 z"
       id="path44" /><path
       class="cls-3"
       d="m 133.07,36.07 0.53,-1.58 h 0.12 c 0.35,1.24 1.5,2.26 2.82,2.26 1.15,0 1.95,-0.9 1.95,-2 0,-1.02 -0.72,-1.6 -1.71,-2.4 l -0.58,-0.46 c -0.74,-0.58 -1.44,-1.18 -1.44,-2.54 0,-1.76 1.4,-3.18 3.35,-3.18 1.09,0 2.04,0.46 2.63,0.82 l -0.39,1.52 h -0.12 c -0.37,-0.98 -1.3,-1.96 -2.53,-1.96 -1.09,0 -1.75,0.96 -1.75,1.86 0,0.98 0.64,1.54 1.32,2.1 l 0.58,0.46 c 1.11,0.88 1.85,1.52 1.85,2.88 0,1.88 -1.58,3.28 -3.74,3.28 -1.21,0 -2.34,-0.46 -2.9,-1.06 z"
       id="path45" /><path
       class="cls-3"
       d="m 144.44,27.13 -1.58,7.3 c -0.14,0.72 -0.18,1.48 0.41,1.48 0.59,0 1.69,-0.82 3.02,-2.56 l 0.1,0.08 c -1.19,2.16 -2.88,3.7 -4.2,3.7 -1.09,0 -1.36,-1.08 -1.05,-2.54 l 1.65,-7.46 h -1.09 l 0.06,-0.2 0.31,-0.12 c 1.01,-0.42 1.95,-1.16 2.98,-3.02 h 0.12 l -0.55,2.62 h 3.46 l -0.45,0.72 z"
       id="path46" /><path
       class="cls-3"
       d="m 155.3,26.33 -0.78,1.72 h -0.12 c -0.25,-0.12 -0.45,-0.16 -0.7,-0.16 -2.12,0 -3.74,4.52 -4.73,9 h -1.65 l 1.83,-8.42 c 0.1,-0.5 0.23,-1.02 -0.12,-1.02 -0.29,0 -0.82,0.52 -1.56,1.46 l -0.1,-0.08 c 0.9,-1.72 1.95,-2.66 2.8,-2.66 0.95,0 0.95,0.94 0.7,2.12 l -0.86,3.86 c 1.09,-3.28 2.61,-5.98 4.44,-5.98 0.29,0 0.58,0.02 0.86,0.16 z"
       id="path47" /><path
       class="cls-3"
       d="m 163.91,34.07 c -1.03,1.92 -2.16,3.06 -3.15,3.06 -1.05,0 -0.95,-1.22 -0.74,-2.12 l 0.51,-2.32 c -1.19,2.86 -3.04,4.44 -4.71,4.44 -1.34,0 -2.12,-1.04 -2.12,-2.96 0,-3.6 2.76,-8 6.56,-8 0.95,0 1.69,0.26 2.12,0.82 l 1.11,-0.7 h 0.1 l -1.85,8.54 c -0.06,0.26 -0.23,0.94 0.12,0.94 0.39,0 1.19,-0.8 1.93,-1.78 l 0.1,0.08 z m -2.69,-4.54 c 0.06,-0.34 0.1,-0.66 0.1,-1.08 0,-1.12 -0.31,-2 -1.38,-2 -2.28,0 -4.48,4.12 -4.48,7.38 0,1.5 0.49,2.32 1.32,2.32 1.5,0 3.66,-2.9 4.44,-6.62 z"
       id="path48" /><path
       class="cls-3"
       d="m 178.33,30.09 c 0,3.42 -2.59,7.04 -6.31,7.04 -0.64,0 -1.21,-0.1 -1.67,-0.34 l -0.56,2.58 c -0.27,1.26 -0.37,1.96 0.47,1.96 l -0.02,0.12 h -3.5 l 0.02,-0.12 c 0.86,0 1.09,-0.76 1.34,-1.96 l 2.49,-11.38 c -0.62,0.3 -1.3,0.66 -2.02,1.08 l -0.08,-0.12 c 0.74,-0.62 1.48,-1.14 2.22,-1.56 l 0.37,-1.68 1.77,-1.04 h 0.1 l -0.41,1.9 c 0.78,-0.26 1.52,-0.4 2.24,-0.4 2.43,0 3.54,1.68 3.54,3.92 z m -1.72,0.28 c 0,-2.02 -0.76,-3.38 -2.57,-3.38 -0.49,0 -1.03,0.1 -1.62,0.28 L 171,33.83 c -0.06,0.34 -0.12,0.72 -0.12,1.16 0,1.06 0.31,1.86 1.5,1.86 2.28,0 4.24,-3.3 4.24,-6.48 z"
       id="path49" /><path
       class="cls-3"
       d="m 189,34.07 c -1.03,1.92 -2.16,3.06 -3.15,3.06 -1.05,0 -0.95,-1.22 -0.74,-2.12 l 0.51,-2.32 c -1.19,2.86 -3.04,4.44 -4.71,4.44 -1.34,0 -2.12,-1.04 -2.12,-2.96 0,-3.6 2.76,-8 6.56,-8 0.95,0 1.69,0.26 2.12,0.82 l 1.11,-0.7 h 0.1 l -1.85,8.54 c -0.06,0.26 -0.23,0.94 0.12,0.94 0.39,0 1.19,-0.8 1.93,-1.78 l 0.1,0.08 z m -2.69,-4.54 c 0.06,-0.34 0.1,-0.66 0.1,-1.08 0,-1.12 -0.31,-2 -1.38,-2 -2.28,0 -4.48,4.12 -4.48,7.38 0,1.5 0.49,2.32 1.32,2.32 1.5,0 3.66,-2.9 4.44,-6.62 z"
       id="path50" /><path
       class="cls-3"
       d="m 188.93,36.07 0.53,-1.58 h 0.12 c 0.35,1.24 1.5,2.26 2.82,2.26 1.15,0 1.95,-0.9 1.95,-2 0,-1.02 -0.72,-1.6 -1.71,-2.4 l -0.58,-0.46 c -0.74,-0.58 -1.44,-1.18 -1.44,-2.54 0,-1.76 1.4,-3.18 3.35,-3.18 1.09,0 2.04,0.46 2.63,0.82 l -0.39,1.52 h -0.12 c -0.37,-0.98 -1.3,-1.96 -2.53,-1.96 -1.09,0 -1.75,0.96 -1.75,1.86 0,0.98 0.64,1.54 1.32,2.1 l 0.58,0.46 c 1.11,0.88 1.85,1.52 1.85,2.88 0,1.88 -1.58,3.28 -3.74,3.28 -1.21,0 -2.34,-0.46 -2.9,-1.06 z"
       id="path51" /><path
       class="cls-3"
       d="m 197.35,35.01 1.44,-6.54 c 0.1,-0.48 0.23,-1.02 -0.12,-1.02 -0.29,0 -0.82,0.52 -1.56,1.46 l -0.1,-0.08 c 0.9,-1.72 1.95,-2.66 2.8,-2.66 0.95,0 0.95,0.94 0.7,2.12 l -1.42,6.54 c -0.06,0.28 -0.23,0.94 0.12,0.94 0.39,0 1.19,-0.8 1.95,-1.78 l 0.1,0.08 c -1.05,1.92 -2.18,3.06 -3.17,3.06 -1.05,0 -0.95,-1.22 -0.74,-2.12 z m 1.97,-11.62 c 0,-0.62 0.51,-1.12 1.17,-1.12 0.66,0 1.15,0.5 1.15,1.12 0,0.62 -0.51,1.12 -1.15,1.12 -0.64,0 -1.17,-0.5 -1.17,-1.12 z"
       id="path52" /><path
       class="cls-3"
       d="m 201.84,33.03 c 0,-3.3 2.39,-6.86 5.57,-6.86 2.26,0 3.72,1.58 3.72,4.12 0,3.36 -2.39,6.84 -5.55,6.84 -2.24,0 -3.74,-1.56 -3.74,-4.1 z m 7.61,-3.54 c 0,-1.8 -0.62,-3.04 -2,-3.04 -2.41,0 -3.91,4.44 -3.91,7.36 0,1.78 0.62,3.04 2,3.04 2.43,0 3.91,-4.44 3.91,-7.36 z M 207,25.11 c 0.72,-1.06 2.32,-3.76 2.63,-4.06 0.16,-0.14 0.37,-0.24 0.56,-0.24 0.39,0 0.72,0.28 0.72,0.66 0,0.26 -0.19,0.46 -0.31,0.6 -0.54,0.52 -2.61,2.32 -3.52,3.1 z"
       id="path53" /><path
       class="cls-3"
       d="m 222.35,34.07 c -1.03,1.92 -2.18,3.06 -3.15,3.06 -0.97,0 -1.05,-0.92 -0.76,-2.12 l 1.21,-5.16 c 0.31,-1.3 0.53,-2.5 -0.43,-2.5 -1.77,0 -4.48,4.46 -5.62,9.54 h -1.65 l 1.83,-8.42 c 0.1,-0.48 0.23,-1.02 -0.12,-1.02 -0.29,0 -0.82,0.52 -1.56,1.46 L 212,28.83 c 0.9,-1.72 1.95,-2.66 2.8,-2.66 0.95,0 0.95,0.94 0.7,2.12 l -1.07,4.78 c 1.5,-4 3.7,-6.9 5.8,-6.9 1.71,0 1.58,1.76 1.09,3.84 l -1.15,4.82 c -0.1,0.48 -0.25,1.02 0.1,1.02 0.29,0 0.97,-0.54 1.97,-1.86 l 0.1,0.08 z"
       id="path54" /></g></svg>
