<?xml version="1.0" encoding="UTF-8"?>
<svg xmlns="http://www.w3.org/2000/svg" xmlns:xlink="http://www.w3.org/1999/xlink" viewBox="0 0 425.83 134.96">
  <defs>
    <style>
      .cls-1 {
        fill: none;
      }

      .cls-1, .cls-2 {
        stroke-width: 0px;
      }

      .cls-2 {
        fill: #a8a7a7;
      }

      .cls-3 {
        isolation: isolate;
      }
    </style>
    <filter id="drop-shadow-8" filterUnits="userSpaceOnUse">
      <feOffset dx="2.83" dy="2.83"/>
      <feGaussianBlur result="blur" stdDeviation="2.83"/>
      <feFlood flood-color="#221f20" flood-opacity=".35"/>
      <feComposite in2="blur" operator="in"/>
      <feComposite in="SourceGraphic"/>
    </filter>
    <clipPath id="clippath">
      <path class="cls-1" d="M-61.44-109.12c-11.16,0-20.2,9.05-20.2,20.21,0,8.06,4.73,14.99,11.55,18.24V34.24h17.32v-104.92c6.82-3.25,11.55-10.18,11.55-18.24,0-11.16-9.05-20.21-20.21-20.21Z"/>
    </clipPath>
    <filter id="drop-shadow-10" filterUnits="userSpaceOnUse">
      <feOffset dx="2.83" dy="2.83"/>
      <feGaussianBlur result="blur-2" stdDeviation="2.83"/>
      <feFlood flood-color="#221f20" flood-opacity=".35"/>
      <feComposite in2="blur-2" operator="in"/>
      <feComposite in="SourceGraphic"/>
    </filter>
    <clipPath id="clippath-2">
      <path class="cls-1" d="M227.68-104.22c-7.5,1.32-12.38,9.22-10.9,17.64-1.48-8.42-8.77-14.17-16.27-12.85-7.5,1.32-12.38,9.22-10.9,17.64,0,0,3.03,21.77,33.36,30.32,25.59-18.4,20.98-39.9,20.98-39.9-1.34-7.61-7.42-13.04-14.11-13.04-.72,0-1.44.06-2.16.19"/>
    </clipPath>
    <filter id="drop-shadow-12" filterUnits="userSpaceOnUse">
      <feOffset dx="2.83" dy="2.83"/>
      <feGaussianBlur result="blur-3" stdDeviation="2.83"/>
      <feFlood flood-color="#221f20" flood-opacity=".35"/>
      <feComposite in2="blur-3" operator="in"/>
      <feComposite in="SourceGraphic"/>
    </filter>
    <clipPath id="clippath-4">
      <rect class="cls-1" x="87.04" y="-106.29" width="56.69" height="56.69"/>
    </clipPath>
    <clipPath id="clippath-5">
      <path class="cls-1" d="M87.33-77.94c0,15.5,12.56,28.06,28.06,28.06s28.06-12.56,28.06-28.06-12.56-28.06-28.06-28.06-28.06,12.56-28.06,28.06"/>
    </clipPath>
    <filter id="drop-shadow-13" filterUnits="userSpaceOnUse">
      <feOffset dx="2.83" dy="2.83"/>
      <feGaussianBlur result="blur-4" stdDeviation="2.83"/>
      <feFlood flood-color="#221f20" flood-opacity=".35"/>
      <feComposite in2="blur-4" operator="in"/>
      <feComposite in="SourceGraphic"/>
    </filter>
    <clipPath id="clippath-7">
      <path class="cls-1" d="M-13.67-78.37c0,19.57,15.86,35.43,35.43,35.43s35.43-15.86,35.43-35.43-15.86-35.43-35.43-35.43-35.43,15.86-35.43,35.43"/>
    </clipPath>
  </defs>
  <g class="cls-3">
    <g id="Capa_1" data-name="Capa 1">
      <g>
        <g>
          <path class="cls-2" d="M269.38,24.99c-6.97,0-14.22,3.31-18.42,10.2h-.4v-8.57h-15.73v61.5h16.59v-32.25c0-12.47,3.88-17.57,12.86-17.57,7.7,0,10.62,4.97,10.62,15.11v34.71h16.61v-37.82c0-15.23-4.43-25.32-22.12-25.32M205.46,24.99c-7.05,0-14.3,3.31-18.5,10.2h-.35v-8.57h-15.78v61.5h16.61v-32.25c0-12.47,3.85-17.57,12.83-17.57,7.73,0,10.65,4.97,10.65,15.11v34.71h16.61v-37.82c0-15.23-4.51-25.32-22.07-25.32M408.38,87.52c-2.42,0-4.3-1.86-4.3-4.39,0-2.4,1.89-4.34,4.3-4.34s4.35,1.94,4.35,4.34c0,2.53-1.89,4.39-4.35,4.39M408.38,78.09c-2.82,0-5.24,2.18-5.24,5.04s2.42,5.15,5.24,5.15,5.24-2.18,5.24-5.15-2.39-5.04-5.24-5.04M408.31,82.83h-1.01v-1.92h1.28l1.36.94-1.63.98ZM410.87,81.9c0-1.14-.71-1.75-2.16-1.75h-2.34v6h.93v-2.56h1.01l1.66,2.56h1l-1.71-2.67c.91-.11,1.61-.56,1.61-1.59M312.5,50.8c.2-4.77,3.22-13.15,13.79-13.15,8.03,0,11.63,4.58,13.14,13.15h-26.93ZM326.71,24.99c-18.35,0-30.86,14.02-30.86,32.44s11.83,32.33,30.86,32.33c13.69,0,23.63-6.14,28.31-20.69h-14.62c-1.08,3.83-6.44,7.97-13.09,7.97-9.26,0-14.37-4.86-14.82-15.54h43.54c1.16-18.94-8.73-36.51-29.32-36.51M398.42,26.62l-13.16,42.13h-.28l-13.67-42.13h-17.77l21.27,57.68c1.89,4.86,0,10.95-5.74,11.55-3.25.14-6.52-.36-9.69-.6v13.91c3.4.39,6.79.64,10.19.64,11.45,0,17.14-4.04,20.79-13.94l25.22-69.23h-17.16ZM146.49,67.28c-.5,4.64-2.92,11.19-13.16,11.19-5.46,0-10.22-1.57-10.22-7.84,0-5.35,2.95-7.39,7.2-8.59.8-.06,1.71-.24,2.77-.33h13.41v5.57ZM136.78,24.99c-13.57,0-27.46,4.75-28.39,20.57h16.59c.58-6.69,4.68-9.27,11-9.27,5.38,0,10.01.92,10.67,6.82v8.57h-12.79s-7.15-.05-12.56,1.64c-7.98,2.46-14.8,6.72-14.8,18.01,0,12.67,9.14,18.45,20.59,18.45,7,0,14.32-1.8,19.55-6.83v5.19h16.61v-46.98c-.83-13.59-14.8-16.16-26.48-16.16M84.71,88.13h16.56V26.62h-16.56v61.5ZM42.85,62.83h-.25L23.3,3.24H3.72l28.09,84.8h21.54L82.14,3.24h-19.73l-19.55,59.59ZM93.21,3.98c-4.56,0-8.25,3.63-8.25,8.07s3.7,8.05,8.25,8.05,8.28-3.58,8.28-8.05-3.7-8.07-8.28-8.07"/>
          <path class="cls-2" d="M181.81,93.14c0,.25-.19.38-.55.38h-1.2c-1.32,0-2.14.24-2.45.72-.46.69-1.14,2.15-2.03,4.38l-9.28,23.25c-.06.18-.14.39-.23.63,0,.54.62.89,1.85,1.04.4,0,.88.02,1.43.04.4.03.6.14.6.32,0,.21-.22.32-.65.32-2.22-.03-5.4-.04-9.56-.04-1.45,0-2.29-.02-2.52-.05-.23-.03-.35-.12-.35-.27,0-.21.42-.32,1.25-.32,1.14-.03,1.89-.1,2.26-.22.58-.21,1.02-.54,1.29-.99.28-.66.6-1.44.97-2.34l9.01-22.09c.89-2.19,1.34-3.39,1.34-3.61,0-.51-.48-.77-1.43-.77h-1.85c-.34,0-.51-.13-.51-.39,0-.22.17-.34.51-.34h11.68c.28,0,.42.11.42.34"/>
          <path class="cls-2" d="M195.85,108.21c0,.73-.4,1.98-1.2,3.76l-3.74,8.3c-.43.97-.65,1.62-.65,1.95,0,.64.36.95,1.08.95.88,0,2.16-.69,3.85-2.08.16-.09.28-.14.38-.14.19,0,.28.07.28.22,0,.36-.51.89-1.54,1.58-1.4.93-2.89,1.4-4.48,1.4-.97,0-1.76-.2-2.38-.61-.62-.41-.93-.93-.93-1.56,0-.51.29-1.42.88-2.72l3.69-8.12c.89-1.97,1.34-3.3,1.34-3.99,0-1.03-.54-1.54-1.62-1.54-1.42,0-3.08.99-4.99,2.98-1.45,1.51-2.77,3.61-3.97,6.32l-3.79,8.58c-.15.45-.36.68-.6.68h-3.14c-.22,0-.32-.08-.32-.23,0-.06.05-.15.14-.27l.32-.67,7.07-16.53c.09-.15.17-.28.23-.4-.03-.21-.42-.33-1.15-.36-.92-.03-1.39-.19-1.39-.49,0-.21.17-.32.51-.32.22,0,.55.03,1.02.09.46.06.82.09,1.06.09,1.66,0,2.76-.12,3.28-.36.22-.09.35-.14.42-.14.19,0,.28.09.28.27,0,.09-.02.17-.05.23l-1.71,4.24c.25-.27.6-.66,1.06-1.15,2.28-2.39,4.48-3.59,6.61-3.59,1.23,0,2.23.34,3,1.02.77.68,1.15,1.55,1.15,2.61"/>
          <path class="cls-2" d="M217.05,107.24c0,2.23-.44,4.53-1.32,6.91-.88,2.38-2.07,4.48-3.58,6.32-2.31,2.8-4.68,4.2-7.11,4.2-1.32,0-2.42-.36-3.28-1.06-.86-.71-1.29-1.62-1.29-2.73,0-1.38.6-3.46,1.8-6.23l2.68-6.18c.37-.84.55-1.4.55-1.67,0-.63-.37-.95-1.11-.95-.62,0-1.44.45-2.47,1.34-1.03.9-1.78,1.8-2.24,2.71-.22.46-.45.68-.69.68-.28,0-.42-.1-.42-.32,0-.66.85-1.78,2.54-3.34,1.6-1.47,3.17-2.21,4.71-2.21.95,0,1.72.24,2.31.72.59.48.88,1.11.88,1.89,0,.84-.29,1.92-.88,3.24l-2.59,5.85c-.86,1.95-1.29,3.6-1.29,4.95,0,1.56.66,2.34,1.99,2.34,1.94,0,4.06-1.73,6.35-5.19,2.29-3.46,3.44-6.68,3.44-9.66,0-.99-.22-1.49-.65-1.49-.03,0-.18.04-.44.11-.26.08-.48.11-.67.11-.83,0-1.25-.37-1.25-1.13,0-.48.19-.9.58-1.24.39-.35.84-.52,1.36-.52,1.39,0,2.08.84,2.08,2.53"/>
          <path class="cls-2" d="M232.29,96.54c0,1.26-.6,1.9-1.8,1.9-.62,0-1.12-.19-1.52-.56-.4-.38-.6-.85-.6-1.42,0-1.23.71-1.85,2.12-1.85,1.2,0,1.8.65,1.8,1.94M229.11,104.99c0,.09-.08.27-.23.54-.22.36-.57,1.1-1.06,2.21l-5.31,11.84c-.71,1.59-1.06,2.58-1.06,2.97,0,.81.43,1.22,1.29,1.22.58,0,1.25-.2,2.01-.6.75-.4,1.33-.88,1.73-1.44.28-.36.49-.53.65-.53.19,0,.28.09.28.27,0,.36-.43.89-1.29,1.6-1.29,1.07-2.76,1.61-4.39,1.61-1.08,0-1.96-.27-2.66-.81-.69-.54-1.04-1.23-1.04-2.07,0-.75.38-1.97,1.15-3.65l4.8-10.45c.15-.51.34-.9.55-1.17.09-.12.14-.22.14-.31,0-.27-.68-.45-2.03-.54-.25-.06-.37-.17-.37-.32,0-.27.12-.41.37-.41.03,0,.26.03.69.09.43.06,1.12.09,2.08.09,1.29,0,2.2-.1,2.73-.32.31-.12.52-.18.65-.18.22,0,.32.12.32.36"/>
          <path class="cls-2" d="M244.26,107.02c0-.93-.48-1.4-1.43-1.4s-1.96.36-2.91,1.08c-1.73,1.32-3.31,3.29-4.76,5.91.37.03.79.05,1.25.05,1.72,0,3.4-.51,5.03-1.53,1.88-1.14,2.82-2.51,2.82-4.11M247.53,107.77c0,1.62-.89,2.96-2.68,4.02-1.79,1.06-4.05,1.59-6.79,1.59-.99,0-2.08-.06-3.28-.18-1.14,2.31-1.71,4.45-1.71,6.43,0,2.67,1.22,4,3.65,4,1.88,0,3.71-.95,5.5-2.85.4-.41.66-.62.79-.62.15,0,.23.07.23.22,0,.68-.72,1.53-2.17,2.55-1.66,1.16-3.39,1.74-5.17,1.74-2,0-3.65-.57-4.94-1.71-1.29-1.14-1.94-2.58-1.94-4.32,0-3.36,1.88-6.62,5.63-9.77,3.29-2.76,6.24-4.14,8.82-4.14s4.06,1.02,4.06,3.05"/>
          <path class="cls-2" d="M264.62,106.79c0,.6-.2,1.12-.6,1.56-.4.44-.86.66-1.39.66-.49,0-.74-.17-.74-.5l.09-.45c.06-.18.09-.35.09-.5,0-.72-.37-1.08-1.11-1.08-.89,0-2.14.84-3.74,2.53-1.6,1.69-3.11,4.05-4.53,7.09l-3.32,7.13c-.31.69-.57,1.04-.79,1.04-.62-.09-1.09-.14-1.43-.14-.52,0-.94.05-1.25.14h-.28c-.28,0-.42-.06-.42-.18,0-.03.05-.09.14-.18l.23-.45,7.81-17.38c0-.24-.2-.36-.6-.36h-.19c-.12.03-.32.05-.6.05h-.46c-.46,0-.69-.11-.69-.32,0-.18.8-.3,2.4-.36,1.6-.06,2.68-.2,3.23-.41.24-.06.38-.09.41-.09.19,0,.28.09.28.27,0,.15-.2.71-.6,1.67l-1.71,4.06c2.83-3.85,5.33-5.78,7.48-5.78,1.51,0,2.26.66,2.26,1.99"/>
          <path class="cls-2" d="M282.96,108.21c0,.73-.4,1.98-1.2,3.76l-3.74,8.3c-.43.97-.65,1.62-.65,1.95,0,.64.36.95,1.08.95.88,0,2.16-.69,3.85-2.08.16-.09.28-.14.38-.14.19,0,.28.07.28.22,0,.36-.51.89-1.54,1.58-1.4.93-2.89,1.4-4.48,1.4-.96,0-1.76-.2-2.38-.61-.62-.41-.93-.93-.93-1.56,0-.51.29-1.42.88-2.72l3.69-8.12c.89-1.97,1.34-3.3,1.34-3.99,0-1.03-.54-1.54-1.62-1.54-1.42,0-3.08.99-4.99,2.98-1.45,1.51-2.77,3.61-3.97,6.32l-3.79,8.58c-.15.45-.35.68-.6.68h-3.14c-.21,0-.32-.08-.32-.23,0-.06.05-.15.14-.27l.32-.67,7.07-16.53c.09-.15.17-.28.23-.4-.03-.21-.42-.33-1.15-.36-.92-.03-1.39-.19-1.39-.49,0-.21.17-.32.51-.32.22,0,.55.03,1.02.09.46.06.81.09,1.06.09,1.66,0,2.75-.12,3.28-.36.21-.09.35-.14.42-.14.19,0,.28.09.28.27,0,.09-.02.17-.05.23l-1.71,4.24c.25-.27.6-.66,1.06-1.15,2.28-2.39,4.48-3.59,6.6-3.59,1.23,0,2.23.34,3,1.02.77.68,1.15,1.55,1.15,2.61"/>
          <path class="cls-2" d="M301.11,109.05c0-2.29-1.05-3.43-3.14-3.43-2.56,0-4.77,1.79-6.65,5.37-1.79,3.43-2.68,6.65-2.68,9.66,0,2.26,1.03,3.39,3.09,3.39,2.59,0,4.74-1.63,6.47-4.88,1.94-3.67,2.91-7.04,2.91-10.11M304.66,111.98c0,3.52-1.65,6.7-4.94,9.52-2.59,2.23-5.28,3.34-8.08,3.34-1.91,0-3.48-.65-4.71-1.94-1.23-1.29-1.85-2.97-1.85-5.01,0-1.74.51-3.54,1.52-5.37,1.02-1.83,2.37-3.4,4.07-4.69,2.65-2.02,5.2-3.02,7.67-3.02,1.88,0,3.4.66,4.57,1.99,1.17,1.32,1.75,3.05,1.75,5.19"/>
        </g>
        <g>
          <path class="cls-2" d="M317.47,121.65h-8.64v-1.21l4.57-5.07c.68-.77,1.14-1.39,1.4-1.87.26-.48.39-.98.39-1.49,0-.69-.21-1.25-.63-1.69-.42-.44-.97-.66-1.67-.66-.83,0-1.48.24-1.94.71-.46.47-.69,1.13-.69,1.98h-1.68c0-1.21.39-2.2,1.17-2.94.78-.75,1.83-1.12,3.14-1.12,1.23,0,2.2.32,2.91.96.71.64,1.07,1.5,1.07,2.57,0,1.3-.83,2.85-2.48,4.64l-3.53,3.83h6.62v1.37Z"/>
          <path class="cls-2" d="M326.33,117.22h1.83v1.37h-1.83v3.06h-1.69v-3.06h-6.01v-.99l5.91-9.14h1.79v8.76ZM320.54,117.22h4.11v-6.47l-.2.36-3.91,6.11Z"/>
          <path class="cls-2" d="M333.33,116.73h-4.42v-1.37h4.42v1.37Z"/>
          <path class="cls-2" d="M343.44,121.65h-8.64v-1.21l4.57-5.07c.68-.77,1.14-1.39,1.4-1.87.26-.48.39-.98.39-1.49,0-.69-.21-1.25-.63-1.69s-.97-.66-1.67-.66c-.83,0-1.48.24-1.94.71s-.69,1.13-.69,1.98h-1.68c0-1.21.39-2.2,1.17-2.94.78-.75,1.83-1.12,3.14-1.12,1.23,0,2.2.32,2.91.96.71.64,1.07,1.5,1.07,2.57,0,1.3-.83,2.85-2.48,4.64l-3.53,3.83h6.62v1.37Z"/>
          <path class="cls-2" d="M345.98,115.03l.67-6.58h6.76v1.55h-5.34l-.4,3.6c.65-.38,1.38-.57,2.2-.57,1.2,0,2.16.4,2.86,1.19.71.79,1.06,1.87,1.06,3.22s-.37,2.43-1.1,3.21c-.73.78-1.76,1.17-3.08,1.17-1.17,0-2.12-.32-2.85-.97-.74-.65-1.16-1.54-1.26-2.68h1.59c.1.76.37,1.32.81,1.71.44.38,1.01.58,1.72.58.78,0,1.39-.27,1.83-.8.44-.53.67-1.27.67-2.2,0-.88-.24-1.59-.72-2.12-.48-.54-1.12-.8-1.92-.8-.73,0-1.31.16-1.72.48l-.44.36-1.34-.34Z"/>
        </g>
      </g>
    </g>
  </g>
</svg>