<?xml version="1.0" encoding="UTF-8"?>
<svg id="DISEÑO" xmlns="http://www.w3.org/2000/svg" viewBox="0 0 262.58 209.48">
  <defs>
    <style>
      .cls-1 {
        fill: #fff;
        stroke-width: 0px;
      }
    </style>
  </defs>
  <g>
    <path class="cls-1" d="M62.86,72.37v-.46c5.27,0,5.58-3.87,5.58-9.6V26.05c0-5.73-.31-9.6-5.58-9.6v-.46h19.83v.46c-5.27,0-5.58,3.87-5.58,9.6v36.25c0,5.73.31,9.6,5.58,9.6v.46h-19.83Z"/>
    <path class="cls-1" d="M118.7,15.98h14.56v.46c-5.27,0-6.04,5.89-6.04,14.25v42.6h-.46l-33.77-50.58v35.09c0,8.06,1.55,14.1,7.13,14.1v.46h-15.34v-.46c5.27,0,6.82-6.04,6.82-14.1V24.97c0-5.58-2.63-7.9-6.82-8.52v-.46h13.94l27.11,40.97v-26.26c0-8.37-1.24-14.25-7.13-14.25v-.46Z"/>
  </g>
  <g>
    <path class="cls-1" d="M49.69,76h13.01v.46c-3.72.62-5.65,5.65-8.98,14.95l-15.1,41.9h-.62l-17.04-47.4c-2.25-6.35-3.8-9.14-7.05-9.45v-.46h19.83v.46c-4.34.31-5.81,2.87-4.26,7.36l12.55,35.86,10.22-28.74c3.25-9.14,2.71-13.86-2.56-14.48v-.46Z"/>
    <path class="cls-1" d="M63.01,132.39v-.46c5.27,0,5.58-3.87,5.58-9.6v-36.25c0-5.73-.31-9.6-5.58-9.6v-.46h19.83v.46c-5.27,0-5.58,3.87-5.58,9.6v36.25c0,5.73.31,9.6,5.58,9.6v.46h-19.83Z"/>
    <path class="cls-1" d="M127.22,118.68l-1.86,13.71h-39.73v-.46c5.27,0,5.58-3.87,5.58-9.6v-36.25c0-5.73-.31-9.6-5.58-9.6v-.46h38.57l1.01,12.24h-.46c-4.26-9.06-7.13-11-15.65-11h-9.22v25.17h7.05c7.2,0,9.06-1.94,10.61-7.67h.46v17.2h-.46c-1.55-5.73-3.41-8.29-10.61-8.29h-7.05v23.86c0,2.32.7,3.64,3.1,3.64h7.2c8.06,0,11.62-1.7,16.58-12.47h.46Z"/>
    <path class="cls-1" d="M176.09,131.93v.46c-1.24.16-5.11.31-7.44.31-5.58,0-6.97-2.48-16.58-23.55-1.32-2.79-2.63-3.41-5.11-3.41h-3.18v16.58c0,5.73.31,9.6,5.58,9.6v.46h-19.83v-.46c5.27,0,5.58-3.87,5.58-9.6v-36.25c0-5.73-.31-9.6-5.58-9.6v-.46h20.91c12.39,0,19.21,5.73,19.21,14.72,0,7.59-5.65,12.39-12.62,14.25v.16c2.25,1.32,4.18,4.42,6.04,7.98,7.75,14.87,9.29,17.58,13.01,18.82ZM143.79,104.51h5.27c7.67,0,11.62-4.73,11.62-13.17s-3.64-14.1-11.54-14.1h-2.4c-1.86,0-2.94.93-2.94,2.79v24.48Z"/>
  </g>
  <g>
    <path class="cls-1" d="M141.63,136.03h14.56v.46c-5.27,0-6.04,5.89-6.04,14.25v42.6h-.46l-33.77-50.58v35.09c0,8.06,1.55,14.1,7.13,14.1v.46h-15.34v-.46c5.27,0,6.82-6.04,6.82-14.1v-32.84c0-5.58-2.63-7.9-6.82-8.52v-.46h13.94l27.11,40.97v-26.26c0-8.37-1.24-14.25-7.13-14.25v-.46Z"/>
    <path class="cls-1" d="M157.89,164.38c0-17.35,10.22-29.28,25.56-29.28s25.4,11.31,25.4,28.97-10.22,29.28-25.56,29.28-25.41-11.31-25.41-28.97ZM199.25,164.22c0-15.65-5.42-28.04-15.96-28.04s-15.8,11.93-15.8,28.04,5.42,28.04,15.96,28.04,15.8-11.93,15.8-28.04Z"/>
  </g>
  <path class="cls-1" d="M187.38,121.12c.5-.04,1.05-.21,1.65-.53-1.01-.3-1.66-.45-1.95-.43-.52.04-.77.21-.75.53.02.33.37.48,1.05.43M198.4,121.62c-2.29.16-4.91-.08-7.87-.72v.03c-1.12.75-2.13,1.16-3.02,1.22-.52.04-1.01-.06-1.47-.3-.58-.27-.89-.66-.93-1.16-.03-.44.15-.81.53-1.11.29-.23.67-.36,1.13-.4.36-.03,1.53.2,3.51.69l.17-.11.14-.1c6.31-4.89,10.32-9.2,12.02-12.93.77-1.67,1.12-3.01,1.05-4.03-.11-1.52-1.1-2.21-2.97-2.08-1.23.09-2.49.54-3.77,1.34-1.19.73-2.21,1.65-3.08,2.73-.16.2-.35.47-.58.81-.23.34-.49.75-.78,1.23-.07.15-.19.23-.36.25-.33.02-.5-.14-.53-.5,0-.1.02-.2.1-.29.92-1.72,2.2-3.2,3.83-4.42,1.75-1.32,3.47-2.04,5.19-2.16,1.04-.08,1.9.11,2.57.57.75.51,1.17,1.31,1.25,2.39.1,1.33-.27,2.89-1.09,4.66-1.78,3.86-5.71,8.16-11.79,12.91,2.53.45,4.72.6,6.57.47,3.33-.24,4.92-1.03,4.77-2.39l-.04-.19c-.03-.4.12-.61.45-.63.29-.02.45.21.49.69.15,2.06-1.68,3.23-5.47,3.5"/>
  <path class="cls-1" d="M215.67,112.64c1.62-4.62,3.16-8.25,4.62-10.89-.57.63-1.31,1.38-2.21,2.25-.9.87-1.95,1.86-3.17,2.98-1.24,1.12-2.31,2.11-3.21,2.98-.9.87-1.63,1.6-2.17,2.18,2.02.4,4.07.57,6.14.5M214.08,120.42c-.46.03-.7-.09-.72-.36-.03-.46.64-2.59,2.01-6.4-1.01.03-2.03,0-3.07-.09-1.04-.09-2.1-.23-3.18-.43-.52.35-.93.54-1.24.56-.21.02-.47-.02-.76-.1-.34-.14-.52-.31-.53-.5-.02-.29.12-.55.41-.77.29-.22.59-.34.87-.36.04,0,.09,0,.16,0,.07,0,.15.02.25.03,1.31-1.22,2.92-2.77,4.85-4.64,1.93-1.87,4.18-4.07,6.74-6.6.25-.31.56-.7.95-1.15.38-.46.82-.97,1.33-1.53.02-.02.07-.04.17-.04.13-.01.29.05.48.18.18.13.28.27.29.42.01.21-.15.52-.48.95-.1.15-.21.3-.32.45-.1.14-.22.29-.35.45-.23.35-.76,1.5-1.61,3.45-.63,1.45-1.23,2.89-1.79,4.32-.57,1.43-1.11,2.86-1.62,4.28.5-.01.97-.07,1.41-.16.44-.09.86-.21,1.25-.34,1.15-.42,1.7-1.02,1.64-1.81l-.02-.22c-.03-.4.12-.61.45-.63.31-.02.48.24.52.78.15,2.04-1.71,3.2-5.59,3.48-.26.71-.51,1.44-.74,2.19-.24.75-.46,1.52-.68,2.31-.04.23-.09.5-.16.81-.07.31-.15.66-.26,1.04-.06.26-.28.4-.67.42"/>
  <path class="cls-1" d="M214.14,130.45c-.28.07-.44-.02-.49-.26-.02-.09,0-.18.05-.27.07-.1.26-.37.58-.82.32-.45.76-1.05,1.31-1.82l9.53-13.09,2.62-3.66c.07-.1.17-.16.29-.19.29-.07.46.01.52.25.02.07-.01.16-.08.26-.18.26-.58.82-1.19,1.68-.62.86-1.46,2.02-2.51,3.47l-10.36,14.26h.03c-.07.09-.17.15-.29.18"/>
  <path class="cls-1" d="M215.25,147.36c.49-.04,1.03-.21,1.62-.52-.99-.3-1.63-.44-1.91-.42-.51.04-.76.21-.73.52.02.33.37.47,1.03.42M226.07,147.84c-2.25.16-4.83-.07-7.73-.71v.03c-1.1.74-2.09,1.14-2.96,1.2-.51.04-.99-.06-1.45-.3-.57-.27-.87-.65-.91-1.14-.03-.43.14-.79.52-1.09.29-.23.66-.36,1.11-.39.36-.03,1.51.2,3.44.68l.16-.1.13-.1c6.2-4.81,10.13-9.04,11.81-12.7.76-1.64,1.1-2.96,1.03-3.96-.11-1.49-1.08-2.17-2.91-2.04-1.21.09-2.44.53-3.7,1.32-1.17.72-2.18,1.62-3.03,2.69-.16.2-.35.46-.57.8-.22.34-.48.74-.77,1.21-.07.15-.18.23-.35.24-.32.02-.49-.14-.52-.49,0-.1.02-.2.09-.28.9-1.69,2.16-3.14,3.77-4.34,1.71-1.3,3.41-2.01,5.1-2.13,1.02-.07,1.86.11,2.52.56.74.5,1.15,1.28,1.23,2.35.09,1.31-.26,2.84-1.07,4.58-1.74,3.79-5.6,8.02-11.58,12.68,2.49.44,4.63.59,6.45.46,3.27-.24,4.83-1.02,4.68-2.34l-.04-.18c-.03-.39.12-.59.44-.62.28-.02.44.21.48.67.15,2.03-1.65,3.17-5.37,3.44"/>
  <path class="cls-1" d="M248.08,127.96c-.53.04-1.22,0-2.06-.1-.85-.1-1.84-.28-2.98-.53-.56.37-.88.56-.96.56-.17.01-.37-.04-.6-.14-.23-.11-.35-.24-.36-.41-.02-.29.14-.54.49-.78.33-.19.62-.29.89-.31.19-.01.5.04.92.15,1.97.46,3.39.65,4.27.59,3.2-.23,4.72-1.01,4.57-2.33l-.04-.18c-.03-.39.12-.6.44-.62.26-.02.41.11.43.4v-.03c.02.06.04.17.05.34.08,1.12-.51,2-1.78,2.63-.9.41-2,.67-3.28.76M238.12,147.28c-3.05.22-4.64-.68-4.79-2.71-.02-.24.01-.52.1-.84.08-.31.21-.59.38-.81.17-.23.36-.35.57-.36.19-.01.29.08.31.29,0,.1-.07.33-.24.66-.17.34-.24.69-.21,1.03.1,1.37,1.31,1.97,3.64,1.8.66-.05,1.32-.15,1.98-.3.65-.15,1.3-.35,1.92-.6,1.66-.66,3.09-1.53,4.26-2.62,1.48-1.4,2.22-2.9,2.22-4.48l-.02-.24c-.08-1.12-.44-2.01-1.08-2.65-.64-.64-1.46-.93-2.49-.85-1.06.08-2.23.58-3.51,1.52-1.28.94-2.03,1.41-2.24,1.43-.53.04-.81-.13-.83-.5-.02-.2.12-.41.41-.62l-.03-.03c1.18-3.42,2.44-6.04,3.77-7.86.1-.13.21-.2.33-.21.32-.02.49.15.52.52,0,.12-.03.24-.12.35-.14.22-.31.49-.53.81-.21.32-.46.7-.73,1.13-.3.52-.63,1.18-.97,1.98-.34.81-.71,1.76-1.11,2.86l.25-.05c1.6-1.35,3.23-2.08,4.92-2.21,1.31-.09,2.37.23,3.18.97.81.74,1.27,1.82,1.37,3.23.18,2.56-1.1,4.79-3.85,6.7-2.3,1.58-4.77,2.47-7.4,2.66"/>
</svg>