<?xml version="1.0" encoding="UTF-8"?>
<svg xmlns="http://www.w3.org/2000/svg" xmlns:xlink="http://www.w3.org/1999/xlink" viewBox="0 0 130.26 140.8">
  <defs>
    <style>
      .cls-1 {
        fill: none;
      }

      .cls-1, .cls-2 {
        stroke-width: 0px;
      }

      .cls-2 {
        fill: #5d514d;
      }

      .cls-3 {
        isolation: isolate;
      }
    </style>
    <filter id="drop-shadow-8" filterUnits="userSpaceOnUse">
      <feOffset dx="2.83" dy="2.83"/>
      <feGaussianBlur result="blur" stdDeviation="2.83"/>
      <feFlood flood-color="#221f20" flood-opacity=".35"/>
      <feComposite in2="blur" operator="in"/>
      <feComposite in="SourceGraphic"/>
    </filter>
    <clipPath id="clippath">
      <path class="cls-1" d="M193.4,142.36c-11.16,0-20.2,9.05-20.2,20.21,0,8.06,4.73,14.99,11.55,18.24v104.92h17.32v-104.92c6.82-3.25,11.55-10.18,11.55-18.24,0-11.16-9.05-20.21-20.21-20.21Z"/>
    </clipPath>
    <filter id="drop-shadow-9" filterUnits="userSpaceOnUse">
      <feOffset dx="2.83" dy="2.83"/>
      <feGaussianBlur result="blur-2" stdDeviation="2.83"/>
      <feFlood flood-color="#221f20" flood-opacity=".35"/>
      <feComposite in2="blur-2" operator="in"/>
      <feComposite in="SourceGraphic"/>
    </filter>
    <clipPath id="clippath-2">
      <path class="cls-1" d="M-402.25,544.21c-7.5,1.32-12.38,9.22-10.9,17.64-1.48-8.42-8.77-14.17-16.27-12.85-7.5,1.32-12.38,9.22-10.9,17.64,0,0,3.03,21.77,33.36,30.32,25.59-18.4,20.98-39.9,20.98-39.9-1.34-7.61-7.42-13.04-14.11-13.04-.72,0-1.44.06-2.16.19"/>
    </clipPath>
    <filter id="drop-shadow-10" filterUnits="userSpaceOnUse">
      <feOffset dx="2.83" dy="2.83"/>
      <feGaussianBlur result="blur-3" stdDeviation="2.83"/>
      <feFlood flood-color="#221f20" flood-opacity=".35"/>
      <feComposite in2="blur-3" operator="in"/>
      <feComposite in="SourceGraphic"/>
    </filter>
    <clipPath id="clippath-4">
      <path class="cls-1" d="M482.51,147.26c-7.5,1.32-12.38,9.22-10.9,17.64-1.48-8.42-8.77-14.17-16.27-12.85-7.5,1.32-12.38,9.22-10.9,17.64,0,0,3.03,21.77,33.36,30.32,25.59-18.4,20.98-39.9,20.98-39.9-1.34-7.61-7.42-13.04-14.11-13.04-.72,0-1.44.06-2.16.19"/>
    </clipPath>
    <filter id="drop-shadow-11" filterUnits="userSpaceOnUse">
      <feOffset dx="2.83" dy="2.83"/>
      <feGaussianBlur result="blur-4" stdDeviation="2.83"/>
      <feFlood flood-color="#221f20" flood-opacity=".35"/>
      <feComposite in2="blur-4" operator="in"/>
      <feComposite in="SourceGraphic"/>
    </filter>
    <clipPath id="clippath-6">
      <rect class="cls-1" x="-365.73" y="461.35" width="56.69" height="56.69"/>
    </clipPath>
    <clipPath id="clippath-7">
      <path class="cls-1" d="M-365.45,489.7c0,15.5,12.56,28.06,28.06,28.06s28.06-12.56,28.06-28.06-12.56-28.06-28.06-28.06-28.06,12.56-28.06,28.06"/>
    </clipPath>
    <filter id="drop-shadow-12" filterUnits="userSpaceOnUse">
      <feOffset dx="2.83" dy="2.83"/>
      <feGaussianBlur result="blur-5" stdDeviation="2.83"/>
      <feFlood flood-color="#221f20" flood-opacity=".35"/>
      <feComposite in2="blur-5" operator="in"/>
      <feComposite in="SourceGraphic"/>
    </filter>
    <clipPath id="clippath-9">
      <rect class="cls-1" x="341.87" y="145.19" width="56.69" height="56.69"/>
    </clipPath>
    <clipPath id="clippath-10">
      <path class="cls-1" d="M342.16,173.54c0,15.5,12.56,28.06,28.06,28.06s28.06-12.56,28.06-28.06-12.56-28.06-28.06-28.06-28.06,12.56-28.06,28.06"/>
    </clipPath>
    <filter id="drop-shadow-13" filterUnits="userSpaceOnUse">
      <feOffset dx="2.83" dy="2.83"/>
      <feGaussianBlur result="blur-6" stdDeviation="2.83"/>
      <feFlood flood-color="#221f20" flood-opacity=".35"/>
      <feComposite in2="blur-6" operator="in"/>
      <feComposite in="SourceGraphic"/>
    </filter>
    <clipPath id="clippath-12">
      <path class="cls-1" d="M-448.81,487.64c0,19.57,15.86,35.43,35.43,35.43s35.43-15.86,35.43-35.43-15.86-35.43-35.43-35.43-35.43,15.86-35.43,35.43"/>
    </clipPath>
    <filter id="drop-shadow-14" filterUnits="userSpaceOnUse">
      <feOffset dx="2.83" dy="2.83"/>
      <feGaussianBlur result="blur-7" stdDeviation="2.83"/>
      <feFlood flood-color="#221f20" flood-opacity=".35"/>
      <feComposite in2="blur-7" operator="in"/>
      <feComposite in="SourceGraphic"/>
    </filter>
    <clipPath id="clippath-14">
      <path class="cls-1" d="M241.16,173.11c0,19.57,15.86,35.43,35.43,35.43s35.43-15.86,35.43-35.43-15.86-35.43-35.43-35.43-35.43,15.86-35.43,35.43"/>
    </clipPath>
  </defs>
  <g class="cls-3">
    <g id="Capa_1" data-name="Capa 1">
      <g>
        <g>
          <path class="cls-2" d="M4.22,45.61v-.35c4.03,0,4.27-2.91,4.27-7.22V10.79c0-4.31-.24-7.22-4.27-7.22v-.35h15.18v.35c-4.03,0-4.27,2.91-4.27,7.22v27.26c0,4.31.24,7.22,4.27,7.22v.35H4.22Z"/>
          <path class="cls-2" d="M46.98,3.22h11.15v.35c-4.03,0-4.63,4.42-4.63,10.72v32.03h-.36L27.29,8.28v26.38c0,6.06,1.19,10.6,5.46,10.6v.35h-11.74v-.35c4.03,0,5.22-4.54,5.22-10.6V9.97c0-4.19-2.02-5.94-5.22-6.41v-.35h10.68l20.76,30.81V14.28c0-6.29-.95-10.72-5.46-10.72v-.35Z"/>
        </g>
        <g>
          <path class="cls-2" d="M30.44,49.35h9.96v.35c-2.85.47-4.33,4.25-6.88,11.24l-11.56,31.51h-.47l-13.05-35.64c-1.72-4.78-2.91-6.87-5.4-7.11v-.35h15.18v.35c-3.32.23-4.45,2.16-3.26,5.53l9.61,26.96,7.83-21.61c2.49-6.87,2.08-10.42-1.96-10.89v-.35Z"/>
          <path class="cls-2" d="M40.64,91.75v-.35c4.03,0,4.27-2.91,4.27-7.22v-27.25c0-4.31-.24-7.22-4.27-7.22v-.35h15.18v.35c-4.03,0-4.27,2.91-4.27,7.22v27.25c0,4.31.24,7.22,4.27,7.22v.35h-15.18Z"/>
          <path class="cls-2" d="M89.8,81.44l-1.42,10.31h-30.42v-.35c4.03,0,4.27-2.91,4.27-7.22v-27.25c0-4.31-.24-7.22-4.27-7.22v-.35h29.53l.77,9.2h-.36c-3.26-6.81-5.46-8.27-11.98-8.27h-7.06v18.93h5.4c5.51,0,6.94-1.46,8.12-5.76h.36v12.93h-.36c-1.19-4.31-2.61-6.23-8.12-6.23h-5.4v17.94c0,1.75.53,2.74,2.37,2.74h5.51c6.17,0,8.9-1.28,12.69-9.38h.36Z"/>
        </g>
        <path class="cls-2" d="M127.22,91.4v.35c-.95.12-3.91.23-5.69.23-4.27,0-5.34-1.86-12.69-17.7-1.01-2.1-2.02-2.56-3.91-2.56h-2.43v12.46c0,4.31.24,7.22,4.27,7.22v.35h-15.18v-.35c4.03,0,4.27-2.91,4.27-7.22v-27.25c0-4.31-.24-7.22-4.27-7.22v-.35h16.01c9.49,0,14.71,4.31,14.71,11.06,0,5.71-4.33,9.32-9.67,10.72v.12c1.72.99,3.2,3.32,4.63,6,5.93,11.18,7.12,13.22,9.96,14.15ZM102.49,70.78h4.03c5.87,0,8.9-3.55,8.9-9.9s-2.79-10.6-8.84-10.6h-1.84c-1.42,0-2.25.7-2.25,2.1v18.4Z"/>
        <g>
          <path class="cls-2" d="M54.04,94.49h11.15v.35c-4.03,0-4.63,4.43-4.63,10.72v32.03h-.36l-25.86-38.03v26.38c0,6.06,1.19,10.6,5.46,10.6v.35h-11.74v-.35c4.03,0,5.22-4.54,5.22-10.6v-24.69c0-4.19-2.02-5.94-5.22-6.41v-.35h10.68l20.76,30.81v-19.74c0-6.29-.95-10.72-5.46-10.72v-.35Z"/>
          <path class="cls-2" d="M67.56,115.8c0-13.05,7.83-22.01,19.57-22.01s19.45,8.5,19.45,21.78-7.83,22.01-19.57,22.01-19.45-8.5-19.45-21.78ZM99.23,115.68c0-11.76-4.15-21.08-12.22-21.08s-12.1,8.97-12.1,21.08,4.15,21.08,12.22,21.08,12.1-8.97,12.1-21.08Z"/>
        </g>
      </g>
    </g>
  </g>
</svg>