<?xml version="1.0" encoding="UTF-8"?>
<svg xmlns="http://www.w3.org/2000/svg" xmlns:xlink="http://www.w3.org/1999/xlink" viewBox="0 0 147.72 48.67">
  <defs>
    <style>
      .cls-1 {
        stroke: #fff;
        stroke-linecap: round;
        stroke-linejoin: round;
        stroke-width: .28px;
      }

      .cls-1, .cls-2 {
        fill: none;
      }

      .cls-2, .cls-3, .cls-4, .cls-5, .cls-6, .cls-7, .cls-8 {
        stroke-width: 0px;
      }

      .cls-3 {
        fill: #dabbb8;
      }

      .cls-4 {
        fill: #788b82;
      }

      .cls-5 {
        fill: #5d514d;
      }

      .cls-6 {
        fill: #a2937d;
      }

      .cls-9 {
        isolation: isolate;
      }

      .cls-7 {
        fill: #7c959d;
      }

      .cls-8 {
        fill: #ece5dd;
      }
    </style>
    <filter id="drop-shadow-8" filterUnits="userSpaceOnUse">
      <feOffset dx="2.83" dy="2.83"/>
      <feGaussianBlur result="blur" stdDeviation="2.83"/>
      <feFlood flood-color="#221f20" flood-opacity=".35"/>
      <feComposite in2="blur" operator="in"/>
      <feComposite in="SourceGraphic"/>
    </filter>
    <clipPath id="clippath">
      <path class="cls-2" d="M22.04,71.47c-11.16,0-20.2,9.05-20.2,20.21,0,8.06,4.73,14.99,11.55,18.24v104.92h17.32v-104.92c6.82-3.25,11.55-10.18,11.55-18.24,0-11.16-9.05-20.21-20.21-20.21Z"/>
    </clipPath>
    <filter id="drop-shadow-10" filterUnits="userSpaceOnUse">
      <feOffset dx="2.83" dy="2.83"/>
      <feGaussianBlur result="blur-2" stdDeviation="2.83"/>
      <feFlood flood-color="#221f20" flood-opacity=".35"/>
      <feComposite in2="blur-2" operator="in"/>
      <feComposite in="SourceGraphic"/>
    </filter>
    <clipPath id="clippath-2">
      <path class="cls-2" d="M311.16,76.37c-7.5,1.32-12.38,9.22-10.9,17.64-1.48-8.42-8.77-14.17-16.27-12.85-7.5,1.32-12.38,9.22-10.9,17.64,0,0,3.03,21.77,33.36,30.32,25.59-18.4,20.98-39.9,20.98-39.9-1.34-7.61-7.42-13.04-14.11-13.04-.72,0-1.44.06-2.16.19"/>
    </clipPath>
    <filter id="drop-shadow-12" filterUnits="userSpaceOnUse">
      <feOffset dx="2.83" dy="2.83"/>
      <feGaussianBlur result="blur-3" stdDeviation="2.83"/>
      <feFlood flood-color="#221f20" flood-opacity=".35"/>
      <feComposite in2="blur-3" operator="in"/>
      <feComposite in="SourceGraphic"/>
    </filter>
    <clipPath id="clippath-4">
      <rect class="cls-2" x="170.52" y="74.3" width="56.69" height="56.69"/>
    </clipPath>
    <clipPath id="clippath-5">
      <path class="cls-2" d="M170.8,102.65c0,15.5,12.56,28.06,28.06,28.06s28.06-12.56,28.06-28.06-12.56-28.06-28.06-28.06-28.06,12.56-28.06,28.06"/>
    </clipPath>
    <filter id="drop-shadow-13" filterUnits="userSpaceOnUse">
      <feOffset dx="2.83" dy="2.83"/>
      <feGaussianBlur result="blur-4" stdDeviation="2.83"/>
      <feFlood flood-color="#221f20" flood-opacity=".35"/>
      <feComposite in2="blur-4" operator="in"/>
      <feComposite in="SourceGraphic"/>
    </filter>
    <clipPath id="clippath-7">
      <path class="cls-2" d="M69.8,102.22c0,19.57,15.86,35.43,35.43,35.43s35.43-15.86,35.43-35.43-15.86-35.43-35.43-35.43-35.43,15.86-35.43,35.43"/>
    </clipPath>
  </defs>
  <g class="cls-9">
    <g id="Capa_1" data-name="Capa 1">
      <g>
        <path class="cls-7" d="M24.99,44.04c10.88,0,19.7-8.82,19.7-19.7S35.87,4.63,24.99,4.63,5.29,13.45,5.29,24.33s8.82,19.7,19.7,19.7"/>
        <circle class="cls-1" cx="24.99" cy="24.33" r="19.7"/>
        <path class="cls-4" d="M45.06,44.04c10.88,0,19.7-8.82,19.7-19.7S55.94,4.63,45.06,4.63s-19.7,8.82-19.7,19.7,8.82,19.7,19.7,19.7"/>
        <circle class="cls-1" cx="45.06" cy="24.33" r="19.7"/>
        <path class="cls-8" d="M64.34,44.04c10.88,0,19.7-8.82,19.7-19.7s-8.82-19.7-19.7-19.7-19.7,8.82-19.7,19.7,8.82,19.7,19.7,19.7"/>
        <circle class="cls-1" cx="64.34" cy="24.33" r="19.7"/>
        <path class="cls-3" d="M83.47,44.04c10.88,0,19.7-8.82,19.7-19.7s-8.82-19.7-19.7-19.7-19.7,8.82-19.7,19.7,8.82,19.7,19.7,19.7"/>
        <circle class="cls-1" cx="83.47" cy="24.33" r="19.7"/>
        <path class="cls-6" d="M103.32,44.04c10.88,0,19.7-8.82,19.7-19.7s-8.82-19.7-19.7-19.7-19.7,8.82-19.7,19.7,8.82,19.7,19.7,19.7"/>
        <circle class="cls-1" cx="103.32" cy="24.33" r="19.7"/>
        <path class="cls-5" d="M122.73,44.04c10.88,0,19.7-8.82,19.7-19.7s-8.82-19.7-19.7-19.7-19.7,8.82-19.7,19.7,8.82,19.7,19.7,19.7"/>
        <circle class="cls-1" cx="122.73" cy="24.33" r="19.7"/>
      </g>
    </g>
  </g>
</svg>