<?xml version="1.0" encoding="UTF-8"?>
<svg id="_íconos" data-name="íconos" xmlns="http://www.w3.org/2000/svg" viewBox="0 0 230.02 92.61">
  <defs>
    <style>
      .cls-1 {
        fill: #706f6f;
        stroke-width: 0px;
      }
    </style>
  </defs>
  <path class="cls-1" d="m27.9,47.45c-1.08-2.72-2.24-5.6-3.47-8.63-1.23-3.02-2.49-6.1-3.79-9.26-1.3-3.15-2.54-6.14-3.72-8.97.46.07.9.12,1.33.17.43.05.84.08,1.23.08s.8-.03,1.23-.08c.43-.05.87-.1,1.33-.17.72,2.17,1.52,4.44,2.39,6.82.87,2.38,1.79,4.81,2.76,7.27.97,2.46,1.96,4.96,2.99,7.49,1.01,2.53,2.05,5.05,3.1,7.54.59-1.35,1.23-2.85,1.92-4.51.69-1.66,1.38-3.38,2.09-5.17.71-1.79,1.4-3.62,2.1-5.48.68-1.85,1.35-3.64,1.99-5.34.64-1.71,1.23-3.3,1.75-4.78.52-1.49.97-2.76,1.33-3.85.73.16,1.33.25,1.83.25s1.1-.08,1.82-.25c-2.56,5.71-5.02,11.38-7.39,17-2.36,5.62-4.63,11.23-6.8,16.85-.53-.06-1.07-.1-1.62-.1-.66,0-1.2.04-1.63.1-.76-1.94-1.67-4.27-2.76-7"/>
  <path class="cls-1" d="m58.57,26.97c-.08-2.09-.17-4.22-.27-6.38.43.07.84.12,1.23.17.4.05.79.07,1.18.07s.79-.03,1.18-.07c.4-.05.81-.1,1.24-.17-.1,2.17-.19,4.3-.27,6.38-.08,2.08-.13,4.21-.13,6.38v8.47c0,2.17.04,4.31.13,6.41.08,2.1.17,4.18.27,6.21-.76-.06-1.57-.1-2.42-.1s-1.66.04-2.42.1c.1-2.03.19-4.11.27-6.21.08-2.1.12-4.23.12-6.41v-8.47c0-2.17-.04-4.3-.12-6.38"/>
  <path class="cls-1" d="m104.53,54.44c-.46-.06-.9-.1-1.31-.1h-2.61c-.41,0-.85.04-1.31.1-.23-.76-.54-1.67-.93-2.74-.39-1.07-.83-2.18-1.31-3.35-.48-1.17-.97-2.35-1.45-3.56-.49-1.2-.96-2.33-1.38-3.42-1.06-.03-2.13-.06-3.21-.08-1.09-.01-2.17-.02-3.25-.02-1.02,0-2.02,0-3.01.02-.99.01-1.99.04-3,.08-1.05,2.56-2.01,5-2.86,7.32-.86,2.32-1.5,4.23-1.93,5.74-.56-.06-1.17-.1-1.82-.1s-1.27.04-1.82.1c2.66-5.75,5.25-11.47,7.79-17.15,2.53-5.68,5.08-11.46,7.64-17.34h.94c.79,1.91,1.64,3.97,2.56,6.18.92,2.21,1.85,4.46,2.81,6.73.95,2.26,1.9,4.51,2.85,6.75.96,2.23,1.85,4.31,2.69,6.24.84,1.92,1.6,3.64,2.27,5.15.67,1.51,1.22,2.66,1.65,3.45m-21.83-15.33c.86,0,1.74.02,2.66.05.92.03,1.81.05,2.66.05.92,0,1.84-.01,2.76-.03.92-.01,1.84-.04,2.76-.07l-5.47-12.52-5.37,12.52Z"/>
  <path class="cls-1" d="m115,26.97c-.08-2.09-.17-4.22-.27-6.38.43.07.84.12,1.23.17.39.05.79.07,1.18.07s.79-.03,1.18-.07c.4-.05.81-.1,1.23-.17-.1,2.17-.19,4.3-.27,6.38-.08,2.08-.12,4.21-.12,6.38,0,4.13.02,7.73.05,10.77.03,3.04.06,5.76.1,8.16,2.34,0,4.57-.03,6.7-.08,2.13-.05,4.44-.23,6.9-.56-.17.59-.24,1.08-.24,1.48,0,.36.08.81.24,1.33-1.51-.06-3.02-.1-4.53-.1h-9.09c-1.46,0-2.98.04-4.56.1.1-2.03.19-4.11.27-6.21.08-2.1.12-4.23.12-6.41v-8.47c0-2.17-.04-4.3-.12-6.38"/>
  <path class="cls-1" d="m144.57,26.97c-.08-2.09-.17-4.22-.28-6.38.43.07.84.12,1.23.17.4.05.79.07,1.18.07s.79-.03,1.19-.07c.4-.05.81-.1,1.23-.17-.1,2.17-.19,4.3-.27,6.38-.08,2.08-.12,4.21-.12,6.38v8.47c0,2.17.04,4.31.12,6.41.08,2.1.17,4.18.27,6.21-.76-.06-1.56-.1-2.42-.1s-1.66.04-2.41.1c.1-2.03.19-4.11.28-6.21.08-2.1.12-4.23.12-6.41v-8.47c0-2.17-.04-4.3-.12-6.38"/>
  <path class="cls-1" d="m170.02,23.16c-.85,0-1.75,0-2.69.02-.93.01-1.87.05-2.81.09-.93.06-1.84.11-2.71.18-.87.06-1.65.15-2.34.25.16-.59.25-1.12.25-1.58,0-.37-.08-.87-.25-1.53,2.17.07,4.29.12,6.36.17,2.07.05,4.19.07,6.36.07s4.29-.02,6.36-.07c2.07-.05,4.19-.1,6.36-.17-.17.65-.24,1.19-.24,1.58,0,.43.08.94.24,1.53-.69-.1-1.47-.19-2.34-.25-.87-.06-1.77-.12-2.71-.18-.94-.04-1.88-.08-2.81-.09-.94-.02-1.83-.02-2.68-.02-.1,3.38-.15,6.78-.15,10.2v8.47c0,2.17.04,4.31.13,6.41.08,2.1.17,4.17.27,6.21-.76-.06-1.56-.1-2.42-.1s-1.66.04-2.42.1c.1-2.04.19-4.11.27-6.21.08-2.1.12-4.23.12-6.41v-8.47c0-3.41-.05-6.82-.15-10.2"/>
  <path class="cls-1" d="m195.52,26.9c-.08-2.1-.17-4.2-.27-6.3,1.48.07,2.95.12,4.41.17,1.46.05,2.93.07,4.41.07s2.94-.02,4.38-.07c1.44-.05,2.91-.1,4.38-.17-.1.49-.14.98-.14,1.48s.05.99.14,1.48c-1.05-.06-2.01-.13-2.88-.19-.87-.06-1.79-.13-2.76-.19-.97-.07-2.03-.12-3.18-.18-1.15-.05-2.53-.07-4.14-.07-.03,1.05-.07,2.05-.12,3-.05.96-.08,2.04-.08,3.26,0,1.28,0,2.53.03,3.74.02,1.22.03,2.13.03,2.76,1.44,0,2.74-.02,3.89-.05,1.15-.04,2.2-.08,3.15-.12.96-.05,1.84-.1,2.64-.15.81-.05,1.57-.11,2.29-.18-.1.5-.15,1-.15,1.53,0,.49.05.98.15,1.48-.86-.11-1.84-.18-2.98-.25-1.14-.07-2.27-.11-3.41-.12-1.13-.02-2.2-.03-3.2-.05-1-.01-1.8-.03-2.39-.03,0,.3-.01.62-.03.96-.02.35-.03.78-.03,1.3v4.88c0,1.87,0,3.42.03,4.63.02,1.21.04,2.13.08,2.76h3.45c1.25,0,2.47-.03,3.67-.08,1.2-.05,2.33-.11,3.4-.2,1.07-.08,2-.21,2.79-.37-.07.23-.11.48-.12.76-.01.29-.02.54-.02.77,0,.52.05.95.14,1.28-1.48-.06-2.95-.1-4.41-.1h-8.94c-1.48,0-2.97.04-4.48.1.09-2.1.19-4.2.27-6.28.08-2.09.13-4.21.13-6.38v-8.48c0-2.17-.04-4.3-.13-6.41m14.51-17.1c.33,0,.69.13,1.06.39.38.26.57.66.57,1.18,0,.59-.2,1.06-.59,1.4-.4.34-.79.65-1.19.91l-7.25,4.63h-2.07l7.25-7.34c.79-.79,1.52-1.18,2.21-1.18"/>
  <path class="cls-1" d="m64.93,70.79c-.04-.89-.07-1.8-.12-2.73.34.03.68.05,1.02.07.34.02.69.03,1.02.03.17,0,.37,0,.61-.02.24-.01.48-.03.72-.03.25,0,.48-.02.71-.03.23-.01.42-.02.57-.02.21,0,.47,0,.78.02.31.01.64.06.98.13.35.07.69.18,1.02.32.34.14.64.35.92.61.27.27.49.6.66,1,.17.4.25.9.25,1.49,0,.93-.2,1.68-.6,2.26-.4.58-.9,1.03-1.48,1.35-.59.32-1.2.54-1.86.65-.65.11-1.23.17-1.74.17-.32,0-.62,0-.88,0-.27,0-.54-.03-.82-.05v1.16c0,.93.02,1.84.05,2.74.03.9.07,1.78.11,2.66-.32-.03-.67-.04-1.03-.04s-.71.01-1.03.04c.04-.87.08-1.76.12-2.66.03-.9.05-1.81.05-2.74v-3.63c0-.93-.02-1.84-.05-2.73m3.28,4.48c.44,0,.88-.05,1.35-.15.46-.1.89-.28,1.27-.54.39-.26.7-.62.95-1.07.25-.46.37-1.04.37-1.76,0-.6-.08-1.1-.25-1.48-.17-.38-.4-.67-.71-.88-.3-.21-.67-.35-1.11-.43-.44-.08-.93-.12-1.48-.12h-1.9v6.26c.48.12.98.17,1.5.17"/>
  <path class="cls-1" d="m78.76,70.79c-.04-.89-.07-1.8-.12-2.73.41.03.81.05,1.2.08.39.02.8.03,1.2.03s.81-.02,1.2-.05c.39-.03.8-.05,1.2-.05.59,0,1.15.06,1.69.17.54.11,1,.3,1.4.56.4.26.72.6.95,1.02.23.42.35.95.35,1.58,0,.67-.15,1.25-.45,1.74-.3.48-.67.88-1.11,1.2-.43.32-.9.56-1.4.74-.5.18-.95.29-1.36.35.17.21.4.51.69.89.3.38.63.8.99,1.25.37.46.75.94,1.14,1.44.39.5.77.98,1.14,1.43.37.46.71.88,1.03,1.26.32.38.58.67.78.87-.21-.03-.42-.04-.63-.04h-1.24c-.21,0-.42.01-.61.04-.21-.3-.53-.74-.96-1.33-.43-.59-.9-1.22-1.42-1.9-.52-.67-1.05-1.35-1.59-2.01-.54-.67-1.04-1.23-1.49-1.7h-.8v1.54c0,.93.02,1.84.05,2.74.03.9.07,1.78.11,2.66-.32-.03-.67-.04-1.03-.04s-.71.01-1.03.04c.04-.87.08-1.76.12-2.66.04-.9.05-1.82.05-2.74v-3.63c0-.93-.02-1.84-.05-2.73m2.42,4.01c.23.02.49.02.77.02.44,0,.89-.05,1.36-.15.47-.1.9-.27,1.3-.52.4-.25.72-.58.98-.99.26-.41.39-.94.39-1.57,0-.55-.1-1-.3-1.36-.21-.36-.47-.64-.79-.85-.32-.21-.67-.35-1.05-.43-.38-.08-.75-.12-1.12-.12-.49,0-.9.01-1.22.03-.32.02-.6.05-.82.07-.03.77-.06,1.54-.08,2.3-.03.76-.04,1.52-.04,2.28v1.2c.2.04.41.07.64.08"/>
  <path class="cls-1" d="m93.2,72.13c.39-.93.93-1.72,1.63-2.37.69-.64,1.53-1.14,2.5-1.48.97-.34,2.03-.5,3.18-.5s2.24.17,3.2.5c.97.34,1.8.83,2.5,1.48.7.65,1.24,1.44,1.62,2.37.39.94.58,2,.58,3.19s-.19,2.26-.58,3.2c-.39.93-.93,1.72-1.62,2.37-.7.65-1.53,1.13-2.5,1.44-.97.32-2.04.48-3.2.48s-2.21-.16-3.18-.48c-.97-.31-1.8-.8-2.5-1.44-.7-.65-1.24-1.44-1.63-2.37-.39-.94-.58-2-.58-3.2s.19-2.26.58-3.19m12.7.17c-.3-.85-.71-1.55-1.23-2.11-.53-.55-1.15-.97-1.86-1.23-.71-.26-1.48-.4-2.31-.4s-1.58.13-2.29.4c-.71.27-1.33.68-1.86,1.23s-.94,1.26-1.23,2.11c-.3.85-.44,1.86-.44,3.03s.15,2.17.44,3.03c.3.85.71,1.55,1.23,2.11.53.56,1.14.97,1.86,1.23.71.27,1.47.4,2.29.4s1.6-.13,2.31-.4c.71-.26,1.33-.67,1.86-1.23.53-.55.94-1.25,1.23-2.11s.44-1.86.44-3.03-.15-2.18-.44-3.03"/>
  <path class="cls-1" d="m115.56,69.15c-.37,0-.75,0-1.15.01-.4,0-.8.02-1.2.04-.4.02-.79.05-1.16.07-.37.03-.71.06-1,.1.07-.25.1-.48.1-.67,0-.16-.04-.37-.1-.65.93.03,1.83.05,2.72.08.89.02,1.79.03,2.72.03s1.83-.01,2.72-.03c.89-.02,1.79-.05,2.72-.08-.07.28-.11.51-.11.68,0,.18.03.4.11.65-.3-.04-.63-.08-1-.1-.37-.03-.76-.05-1.17-.07-.4-.02-.8-.03-1.2-.04-.4-.01-.78-.01-1.15-.01-.04,1.45-.06,2.9-.06,4.37v3.63c0,.93.02,1.84.05,2.74.03.9.08,1.78.11,2.66-.32-.03-.67-.04-1.03-.04s-.71.01-1.03.04c.04-.87.08-1.76.12-2.66.03-.9.05-1.81.05-2.74v-3.63c0-1.46-.02-2.92-.06-4.37"/>
  <path class="cls-1" d="m126.47,70.75c-.04-.9-.07-1.8-.12-2.7.64.03,1.26.05,1.89.07.63.02,1.25.03,1.89.03s1.26-.01,1.87-.03c.62-.02,1.25-.05,1.88-.07-.04.21-.06.42-.06.63s.02.42.06.63c-.45-.03-.86-.06-1.23-.09-.37-.03-.77-.06-1.18-.08-.41-.03-.87-.05-1.36-.07-.49-.02-1.08-.03-1.77-.03-.01.45-.03.88-.06,1.29-.02.4-.03.87-.03,1.39,0,.55,0,1.08.01,1.6,0,.52.01.91.01,1.18.62,0,1.17-.01,1.66-.02.49-.02.94-.03,1.35-.06.41-.02.79-.04,1.13-.06.35-.02.67-.05.98-.07-.04.21-.06.43-.06.65s.02.42.06.63c-.37-.04-.79-.08-1.28-.11-.48-.03-.97-.04-1.46-.05-.48,0-.94-.01-1.37-.02-.43-.01-.77-.01-1.02-.01,0,.13,0,.27-.01.41,0,.15-.01.33-.01.56v2.09c0,.8,0,1.46.01,1.98,0,.52.02.92.03,1.18h1.47c.54,0,1.06,0,1.57-.03.51-.02,1-.05,1.45-.08.46-.03.86-.09,1.2-.16-.03.1-.05.21-.06.33,0,.12,0,.23,0,.33,0,.23.02.41.06.55-.64-.03-1.26-.04-1.89-.04h-3.83c-.63,0-1.27.01-1.92.04.04-.9.08-1.8.12-2.69.03-.9.05-1.81.05-2.73v-3.63c0-.93-.02-1.84-.05-2.74"/>
  <path class="cls-1" d="m149.47,82.04c-.27.13-.6.26-.99.36-.39.1-.82.2-1.3.28-.48.08-.98.13-1.5.13-1.11,0-2.14-.16-3.08-.47-.94-.32-1.76-.8-2.44-1.44-.68-.65-1.22-1.44-1.6-2.37-.39-.94-.58-2-.58-3.2s.19-2.26.58-3.19c.39-.93.93-1.72,1.62-2.37.7-.65,1.53-1.14,2.5-1.48.97-.34,2.04-.5,3.21-.5.93,0,1.77.09,2.54.28.76.19,1.44.42,2.03.69-.12.19-.21.46-.28.8-.08.34-.13.62-.17.84l-.13.04c-.14-.17-.34-.36-.59-.57-.25-.21-.55-.41-.88-.61-.34-.2-.71-.36-1.14-.49-.42-.13-.88-.2-1.39-.2-.83,0-1.6.14-2.31.4-.72.27-1.33.68-1.86,1.23-.53.55-.94,1.26-1.23,2.11-.29.85-.44,1.86-.44,3.03s.15,2.17.44,3.03c.3.85.71,1.56,1.23,2.11.53.56,1.14.97,1.86,1.23.71.27,1.48.4,2.31.4.5,0,.97-.06,1.4-.19.43-.12.82-.28,1.18-.45.36-.18.68-.37.97-.57.29-.21.53-.38.73-.54l.08.08-.19,1.24c-.13.11-.32.23-.6.37"/>
  <path class="cls-1" d="m158.21,69.15c-.37,0-.75,0-1.15.01-.4,0-.8.02-1.2.04-.4.02-.78.05-1.16.07-.37.03-.71.06-1,.1.07-.25.11-.48.11-.67,0-.16-.04-.37-.11-.65.93.03,1.84.05,2.72.08.89.02,1.79.03,2.72.03s1.84-.01,2.72-.03c.89-.02,1.79-.05,2.72-.08-.07.28-.11.51-.11.68,0,.18.03.4.11.65-.3-.04-.64-.08-1-.1-.37-.03-.76-.05-1.16-.07-.4-.02-.8-.03-1.2-.04-.4-.01-.79-.01-1.15-.01-.04,1.45-.06,2.9-.06,4.37v3.63c0,.93.02,1.84.05,2.74.03.9.07,1.78.11,2.66-.32-.03-.66-.04-1.03-.04s-.71.01-1.03.04c.04-.87.08-1.76.12-2.66.03-.9.05-1.81.05-2.74v-3.63c0-1.46-.02-2.92-.06-4.37"/>
  <rect class="cls-1" x="16.91" y="73.77" width="41.21" height="1.37"/>
  <rect class="cls-1" x="171.23" y="73.77" width="41.88" height="1.36"/>
</svg>