<?xml version="1.0" encoding="UTF-8"?>
<svg id="_íconos" data-name="íconos" xmlns="http://www.w3.org/2000/svg" viewBox="0 0 230.02 92.61">
  <defs>
    <style>
      .cls-1 {
        fill: #71706f;
        stroke-width: 0px;
      }
    </style>
  </defs>
  <g>
    <path class="cls-1" d="m27.88,47.45c-1.08-2.72-2.24-5.58-3.46-8.6-1.23-3.01-2.49-6.1-3.79-9.24-1.29-3.15-2.53-6.13-3.72-8.95.46.07.9.12,1.33.17.42.05.83.07,1.23.07s.81-.02,1.23-.07c.42-.05.87-.1,1.32-.17.72,2.16,1.52,4.43,2.39,6.81.87,2.38,1.78,4.8,2.75,7.25.97,2.46,1.96,4.95,2.98,7.47,1.02,2.52,2.05,5.03,3.1,7.52.59-1.34,1.23-2.84,1.92-4.5.69-1.65,1.38-3.38,2.09-5.16.7-1.79,1.4-3.6,2.09-5.46.69-1.85,1.35-3.63,1.99-5.33.64-1.71,1.22-3.29,1.75-4.77.52-1.47.96-2.75,1.32-3.83.72.17,1.33.24,1.82.24s1.1-.07,1.81-.24c-2.56,5.7-5.02,11.36-7.37,16.96-2.37,5.6-4.62,11.21-6.79,16.81-.53-.07-1.07-.1-1.62-.1-.66,0-1.2.03-1.63.1-.75-1.93-1.67-4.27-2.75-6.98"/>
    <path class="cls-1" d="m58.48,27.02c-.08-2.08-.17-4.2-.27-6.36.43.06.84.12,1.23.17.4.05.79.07,1.18.07s.78-.02,1.18-.07c.39-.05.8-.1,1.23-.17-.1,2.16-.19,4.29-.27,6.36-.09,2.09-.12,4.21-.12,6.37v8.45c0,2.17.04,4.3.12,6.4.08,2.09.17,4.16.27,6.19-.75-.07-1.56-.1-2.41-.1s-1.65.03-2.41.1c.1-2.03.19-4.1.27-6.19.08-2.1.12-4.23.12-6.4v-8.45c0-2.16-.04-4.28-.12-6.37"/>
    <path class="cls-1" d="m82.55,39.14c.85,0,1.74.02,2.65.05.92.04,1.81.05,2.66.05.92,0,1.84-.01,2.75-.02.92-.01,1.84-.04,2.75-.08l-5.46-12.49-5.36,12.49Zm21.79,15.29c-.46-.07-.9-.1-1.3-.1h-2.61c-.41,0-.84.03-1.3.1-.23-.75-.54-1.66-.93-2.73-.39-1.06-.83-2.18-1.3-3.34-.47-1.16-.96-2.34-1.45-3.54-.49-1.2-.95-2.34-1.38-3.42-1.05-.03-2.11-.05-3.19-.07-1.08-.02-2.16-.03-3.25-.03-1.02,0-2.02.01-3,.03-.98.02-1.98.04-3,.07-1.05,2.56-2.01,4.99-2.85,7.3-.85,2.31-1.49,4.22-1.92,5.73-.55-.07-1.16-.1-1.82-.1s-1.26.03-1.81.1c2.66-5.73,5.25-11.44,7.77-17.11,2.52-5.67,5.06-11.44,7.62-17.3h.94c.79,1.9,1.64,3.95,2.56,6.17.92,2.21,1.85,4.45,2.8,6.71.95,2.26,1.9,4.51,2.85,6.74.95,2.23,1.85,4.3,2.68,6.22.83,1.92,1.59,3.63,2.26,5.14.67,1.51,1.22,2.65,1.65,3.44"/>
    <path class="cls-1" d="m114.78,27.02c-.08-2.08-.17-4.2-.27-6.36.42.06.83.12,1.22.17.39.05.79.07,1.18.07s.79-.02,1.19-.07c.39-.05.8-.1,1.23-.17-.1,2.16-.19,4.29-.27,6.36-.09,2.09-.13,4.21-.13,6.37,0,4.13.02,7.71.05,10.74.02,3.03.06,5.74.09,8.13,2.33,0,4.56-.02,6.68-.07,2.13-.05,4.43-.23,6.89-.57-.17.59-.25,1.08-.25,1.48,0,.36.08.81.25,1.32-1.51-.07-3.01-.1-4.52-.1h-9.07c-1.46,0-2.98.03-4.55.1.1-2.03.19-4.1.27-6.19.08-2.1.12-4.23.12-6.4v-8.45c0-2.16-.04-4.28-.12-6.37"/>
    <path class="cls-1" d="m144.28,27.02c-.09-2.08-.17-4.2-.27-6.36.43.06.84.12,1.23.17.4.05.79.07,1.18.07s.79-.02,1.18-.07c.39-.05.8-.1,1.22-.17-.1,2.16-.19,4.29-.27,6.36-.09,2.09-.12,4.21-.12,6.37v8.45c0,2.17.04,4.3.12,6.4.08,2.09.17,4.16.27,6.19-.75-.07-1.56-.1-2.41-.1s-1.65.03-2.41.1c.1-2.03.19-4.1.27-6.19.08-2.1.12-4.23.12-6.4v-8.45c0-2.16-.04-4.28-.12-6.37"/>
    <path class="cls-1" d="m169.67,23.21c-.85,0-1.75,0-2.68.03-.93.02-1.87.05-2.81.1-.92.05-1.83.1-2.7.17-.87.07-1.65.15-2.34.24.17-.59.25-1.11.25-1.57,0-.35-.08-.87-.25-1.52,2.17.07,4.28.13,6.35.17,2.07.05,4.18.07,6.34.07s4.28-.02,6.34-.07c2.07-.05,4.19-.1,6.35-.17-.17.65-.25,1.18-.25,1.57,0,.43.08.93.25,1.52-.69-.09-1.47-.17-2.34-.24-.87-.07-1.77-.12-2.71-.17-.93-.05-1.86-.08-2.8-.1-.93-.02-1.82-.03-2.68-.03-.1,3.38-.15,6.77-.15,10.18v8.45c0,2.17.04,4.3.13,6.4.07,2.1.17,4.16.27,6.19-.76-.07-1.56-.1-2.41-.1s-1.65.03-2.41.1c.1-2.03.18-4.09.27-6.19.08-2.1.12-4.23.12-6.4v-8.45c0-3.41-.05-6.8-.15-10.18"/>
    <path class="cls-1" d="m209.59,9.89c.33,0,.68.13,1.05.39.38.26.57.65.57,1.18,0,.59-.2,1.06-.59,1.4-.4.35-.79.65-1.18.91l-7.22,4.62h-2.07l7.22-7.32c.79-.79,1.53-1.18,2.21-1.18m-14.47,17.06c-.09-2.1-.18-4.2-.28-6.29,1.47.06,2.94.12,4.4.17,1.46.05,2.93.07,4.4.07s2.93-.02,4.38-.07c1.44-.05,2.89-.1,4.38-.17-.1.48-.16.98-.16,1.47s.05.98.16,1.47c-1.06-.07-2.02-.13-2.88-.19-.88-.07-1.79-.13-2.76-.2-.96-.07-2.02-.12-3.17-.17-1.14-.05-2.52-.08-4.13-.08-.03,1.05-.07,2.05-.13,3-.05.95-.07,2.03-.07,3.24,0,1.28,0,2.53.02,3.73.02,1.22.02,2.13.02,2.76,1.45,0,2.74-.01,3.88-.05,1.14-.03,2.2-.07,3.15-.12.95-.05,1.83-.1,2.63-.15.8-.05,1.56-.1,2.28-.17-.09.49-.15,1-.15,1.52,0,.49.06.98.15,1.48-.85-.1-1.84-.18-2.97-.25-1.13-.06-2.26-.11-3.39-.13-1.13-.01-2.2-.03-3.2-.05-1-.02-1.8-.03-2.38-.03,0,.3,0,.61-.02.96-.02.34-.02.78-.02,1.3v4.87c0,1.87,0,3.41.02,4.62.02,1.21.04,2.13.07,2.75h3.44c1.24,0,2.47-.02,3.66-.07,1.21-.05,2.33-.12,3.4-.2,1.06-.08,1.99-.2,2.77-.37-.07.23-.1.49-.12.77-.02.27-.02.53-.02.76,0,.52.05.95.15,1.28-1.47-.07-2.94-.1-4.39-.1h-8.93c-1.48,0-2.96.03-4.48.1.1-2.1.19-4.19.28-6.26.08-2.08.11-4.21.11-6.37v-8.46c0-2.16-.03-4.29-.11-6.39"/>
  </g>
  <g>
    <rect class="cls-1" x="16.91" y="73.71" width="58.1" height="1.37"/>
    <rect class="cls-1" x="154.16" y="73.71" width="58.95" height="1.37"/>
    <g>
      <path class="cls-1" d="m92.04,80c1.34-3.24,2.27-5.57,2.81-6.99.6-1.6,1.23-3.37,1.88-5.33.38.04.67.05.86.05s.48-.02.86-.05c-.71,1.41-1.67,3.68-2.9,6.79-.94,2.36-1.7,4.23-2.28,5.62-.43,1.02-.74,1.82-.96,2.39-.34-.04-.58-.05-.74-.05-.18,0-.43.02-.77.05-.27-.75-.53-1.48-.79-2.16-.17-.44-.72-1.81-1.67-4.12-1.9-4.59-3.1-7.43-3.62-8.52.55.04.96.05,1.23.05s.67-.02,1.22-.05c.22.74.5,1.57.85,2.49.28.73.9,2.28,1.86,4.65.91,2.26,1.63,3.99,2.15,5.19Z"/>
      <path class="cls-1" d="m100.58,82.59c.11-1.67.17-4.09.17-7.24v-.68l-.02-2.77c0-1.74-.02-2.78-.03-3.12,0-.34-.04-.74-.11-1.22.95.11,2.25.17,3.91.17,1.18,0,2.47-.06,3.86-.17-.03.32-.05.55-.05.7s.02.39.05.7c-1.15-.11-2.55-.17-4.19-.17-.55,0-1.05.02-1.52.06-.04,1.32-.06,2.89-.06,4.73v.62c.59,0,1.08.01,1.44.01,1.51,0,2.77-.05,3.78-.16-.04.31-.06.54-.06.7s.02.39.06.69c-.93-.1-2.67-.16-5.22-.18v.79c0,2.02.02,3.77.06,5.27.5,0,.87.01,1.11.01,1.43,0,2.96-.06,4.61-.17-.04.31-.05.55-.05.71,0,.15.02.38.05.69-2.02-.11-3.47-.17-4.36-.17-.99,0-2.13.06-3.43.17Z"/>
      <path class="cls-1" d="m111.61,82.59c.08-.89.13-2.75.15-5.57v-2.38s.01-1.63.01-1.63c0-2.42-.05-4.2-.16-5.33.48.04.84.05,1.08.05s.6-.02,1.08-.05c-.07,1.13-.12,2.78-.14,4.96-.02,1.56-.03,2.52-.03,2.89,0,2.25.02,4.19.07,5.83.54.01.94.02,1.19.02,2.1,0,3.66-.06,4.67-.18-.04.31-.06.55-.06.71,0,.15.02.38.06.69-1.28-.11-2.21-.17-2.79-.17-2.19,0-3.9.06-5.13.17Z"/>
      <path class="cls-1" d="m120.85,82.47c1.05-1.95,2.99-6.16,5.82-12.64l.9-2.11h.4c.38.93.98,2.32,1.79,4.17.45,1.06,1.16,2.71,2.12,4.95,1.04,2.44,1.91,4.31,2.59,5.63-.52-.04-.91-.05-1.17-.05s-.65.02-1.18.05c-.19-.47-.54-1.38-1.06-2.74-.22-.57-.62-1.51-1.2-2.82-.95-.11-1.89-.17-2.82-.17-.78,0-1.6.06-2.46.17-.83,1.97-1.53,3.82-2.1,5.56-.36-.04-.64-.05-.82-.05s-.46.02-.83.05Zm4.36-6.96c1.02.11,1.77.16,2.27.16s1.11-.05,1.79-.15c-.25-.66-.9-2.2-1.96-4.62l-.49,1.08c-.86,1.87-1.39,3.04-1.6,3.53Z"/>
      <path class="cls-1" d="m143.78,68.45c-.19.5-.36,1.04-.52,1.59l-.25.03c-.27-.46-.54-.79-.8-1.02-.56-.46-1.2-.69-1.93-.69-.78,0-1.42.26-1.94.78-.42.42-.63.99-.63,1.7,0,.95.37,1.67,1.12,2.16.37.25.78.45,1.22.63l1.9.73c1.66.65,2.5,1.84,2.5,3.58,0,1.26-.45,2.35-1.36,3.28-1,1-2.27,1.5-3.82,1.5-1.05,0-1.95-.24-2.7-.72-.2-.13-.45-.33-.74-.58.16-.49.27-.98.34-1.47l.27-.05c.51.64.97,1.08,1.37,1.32.61.37,1.26.56,1.96.56.89,0,1.62-.29,2.18-.86.56-.56.84-1.28.84-2.15s-.29-1.51-.87-1.98c-.41-.34-.88-.62-1.39-.83l-1.81-.74c-1.76-.72-2.65-1.98-2.65-3.77,0-1.2.43-2.18,1.28-2.94.81-.72,1.87-1.08,3.18-1.08.99,0,1.86.21,2.61.62.18.1.39.23.64.41Z"/>
    </g>
  </g>
</svg>