<svg width="843" height="830" viewBox="0 0 843 830" fill="none" xmlns="http://www.w3.org/2000/svg">
<path d="M155.677 197.861C64.6688 232.968 24.2124 304.02 29.416 354.924C33.171 391.656 36.8717 418.716 50.7971 440.529C64.7307 462.355 88.8531 478.863 133.278 494.679C155.342 502.534 172.008 520.681 187.141 543.61C194.705 555.072 201.877 567.714 209.147 580.843C210.573 583.419 212.003 586.013 213.44 588.621C219.327 599.303 225.337 610.21 231.72 620.968C263.488 674.515 304.553 724.528 386.024 725.69C467.434 726.853 557.807 677.915 631.92 611.969C706.029 546.026 764.001 462.969 780.531 395.739C797.084 328.416 768.481 267.276 716.509 234.523C664.53 201.766 589.164 197.382 512.111 243.507C435.44 289.403 374.898 267.145 319.22 238.773C312.14 235.165 305.135 231.457 298.185 227.777C277.829 216.999 257.941 206.47 237.987 199.442C211.199 190.008 184.215 186.852 155.677 197.861Z" fill="#F1EEE0" stroke="#F2E7E8"/>
</svg>
