<svg width="188" height="74" viewBox="0 0 188 74" fill="none" xmlns="http://www.w3.org/2000/svg">
<path fill-rule="evenodd" clip-rule="evenodd" d="M22 8C22 3.58172 25.5817 0 30 0H180C184.418 0 188 3.58172 188 8V29C188 33.4183 184.418 37 180 37H149.5C145.358 37 142 40.3579 142 44.5V44.5C142 48.6421 145.358 52 149.5 52H161C165.418 52 169 55.5817 169 60V66C169 70.4183 165.418 74 161 74H142H8C3.58172 74 0 70.4183 0 66V52V41C0 36.5817 3.58172 33 8 33H14C18.4183 33 22 29.4183 22 25V8Z" fill="white"/>
<path d="M45.392 15.312C45.264 14.816 45.088 14.36 44.864 13.944C44.64 13.528 44.352 13.168 44 12.864C43.648 12.56 43.232 12.328 42.752 12.168C42.288 11.992 41.744 11.904 41.12 11.904C40.208 11.904 39.416 12.088 38.744 12.456C38.088 12.824 37.552 13.32 37.136 13.944C36.72 14.552 36.408 15.248 36.2 16.032C36.008 16.816 35.912 17.616 35.912 18.432C35.912 19.248 36.008 20.048 36.2 20.832C36.408 21.616 36.72 22.32 37.136 22.944C37.552 23.552 38.088 24.04 38.744 24.408C39.416 24.776 40.208 24.96 41.12 24.96C41.792 24.96 42.384 24.848 42.896 24.624C43.408 24.384 43.848 24.064 44.216 23.664C44.584 23.248 44.872 22.768 45.08 22.224C45.288 21.68 45.424 21.096 45.488 20.472H48.416C48.352 21.496 48.128 22.432 47.744 23.28C47.376 24.128 46.872 24.864 46.232 25.488C45.592 26.096 44.84 26.568 43.976 26.904C43.112 27.24 42.16 27.408 41.12 27.408C39.84 27.408 38.688 27.176 37.664 26.712C36.656 26.232 35.8 25.584 35.096 24.768C34.392 23.952 33.848 23 33.464 21.912C33.096 20.824 32.912 19.664 32.912 18.432C32.912 17.216 33.096 16.064 33.464 14.976C33.848 13.888 34.392 12.936 35.096 12.12C35.8 11.304 36.656 10.656 37.664 10.176C38.688 9.696 39.84 9.456 41.12 9.456C42.08 9.456 42.984 9.592 43.832 9.864C44.68 10.12 45.424 10.504 46.064 11.016C46.72 11.512 47.248 12.12 47.648 12.84C48.048 13.56 48.296 14.384 48.392 15.312H45.392ZM58.4403 11.904C57.5283 11.904 56.7363 12.088 56.0643 12.456C55.4083 12.824 54.8723 13.32 54.4563 13.944C54.0403 14.552 53.7283 15.248 53.5203 16.032C53.3283 16.816 53.2323 17.616 53.2323 18.432C53.2323 19.248 53.3283 20.048 53.5203 20.832C53.7283 21.616 54.0403 22.32 54.4563 22.944C54.8723 23.552 55.4083 24.04 56.0643 24.408C56.7363 24.776 57.5283 24.96 58.4403 24.96C59.3523 24.96 60.1363 24.776 60.7923 24.408C61.4643 24.04 62.0083 23.552 62.4243 22.944C62.8403 22.32 63.1443 21.616 63.3363 20.832C63.5443 20.048 63.6483 19.248 63.6483 18.432C63.6483 17.616 63.5443 16.816 63.3363 16.032C63.1443 15.248 62.8403 14.552 62.4243 13.944C62.0083 13.32 61.4643 12.824 60.7923 12.456C60.1363 12.088 59.3523 11.904 58.4403 11.904ZM58.4403 9.456C59.7203 9.456 60.8643 9.696 61.8723 10.176C62.8963 10.656 63.7603 11.304 64.4643 12.12C65.1683 12.936 65.7043 13.888 66.0723 14.976C66.4563 16.064 66.6483 17.216 66.6483 18.432C66.6483 19.664 66.4563 20.824 66.0723 21.912C65.7043 23 65.1683 23.952 64.4643 24.768C63.7603 25.584 62.8963 26.232 61.8723 26.712C60.8643 27.176 59.7203 27.408 58.4403 27.408C57.1603 27.408 56.0083 27.176 54.9843 26.712C53.9763 26.232 53.1203 25.584 52.4163 24.768C51.7123 23.952 51.1683 23 50.7843 21.912C50.4163 20.824 50.2323 19.664 50.2323 18.432C50.2323 17.216 50.4163 16.064 50.7843 14.976C51.1683 13.888 51.7123 12.936 52.4163 12.12C53.1203 11.304 53.9763 10.656 54.9843 10.176C56.0083 9.696 57.1603 9.456 58.4403 9.456ZM80.9467 15.312C80.8187 14.816 80.6427 14.36 80.4187 13.944C80.1947 13.528 79.9067 13.168 79.5547 12.864C79.2027 12.56 78.7867 12.328 78.3067 12.168C77.8427 11.992 77.2987 11.904 76.6747 11.904C75.7627 11.904 74.9707 12.088 74.2987 12.456C73.6427 12.824 73.1067 13.32 72.6907 13.944C72.2747 14.552 71.9627 15.248 71.7547 16.032C71.5627 16.816 71.4667 17.616 71.4667 18.432C71.4667 19.248 71.5627 20.048 71.7547 20.832C71.9627 21.616 72.2747 22.32 72.6907 22.944C73.1067 23.552 73.6427 24.04 74.2987 24.408C74.9707 24.776 75.7627 24.96 76.6747 24.96C77.3467 24.96 77.9387 24.848 78.4507 24.624C78.9627 24.384 79.4027 24.064 79.7707 23.664C80.1387 23.248 80.4267 22.768 80.6347 22.224C80.8427 21.68 80.9787 21.096 81.0427 20.472H83.9707C83.9067 21.496 83.6827 22.432 83.2987 23.28C82.9307 24.128 82.4267 24.864 81.7867 25.488C81.1467 26.096 80.3947 26.568 79.5307 26.904C78.6667 27.24 77.7147 27.408 76.6747 27.408C75.3947 27.408 74.2427 27.176 73.2187 26.712C72.2107 26.232 71.3547 25.584 70.6507 24.768C69.9467 23.952 69.4027 23 69.0187 21.912C68.6507 20.824 68.4667 19.664 68.4667 18.432C68.4667 17.216 68.6507 16.064 69.0187 14.976C69.4027 13.888 69.9467 12.936 70.6507 12.12C71.3547 11.304 72.2107 10.656 73.2187 10.176C74.2427 9.696 75.3947 9.456 76.6747 9.456C77.6347 9.456 78.5387 9.592 79.3867 9.864C80.2347 10.12 80.9787 10.504 81.6187 11.016C82.2747 11.512 82.8027 12.12 83.2027 12.84C83.6027 13.56 83.8507 14.384 83.9467 15.312H80.9467ZM86.699 9.864H89.699V27H86.699V9.864ZM93.2587 9.864H96.4267L104.251 22.488H104.299V9.864H107.155V27H103.987L96.1867 14.4H96.1147V27H93.2587V9.864ZM115.283 9.864H118.475L125.075 27H121.859L120.251 22.464H113.411L111.803 27H108.707L115.283 9.864ZM114.227 20.184H119.459L116.891 12.816H116.819L114.227 20.184ZM126.587 9.864H129.755L137.579 22.488H137.627V9.864H140.483V27H137.315L129.515 14.4H129.443V27H126.587V9.864ZM144.027 9.864H151.131C152.443 9.864 153.579 10.088 154.539 10.536C155.499 10.984 156.283 11.6 156.891 12.384C157.499 13.152 157.947 14.056 158.235 15.096C158.539 16.136 158.691 17.248 158.691 18.432C158.691 19.616 158.539 20.728 158.235 21.768C157.947 22.808 157.499 23.72 156.891 24.504C156.283 25.272 155.499 25.88 154.539 26.328C153.579 26.776 152.443 27 151.131 27H144.027V9.864ZM147.027 24.552H149.979C151.147 24.552 152.099 24.4 152.835 24.096C153.587 23.776 154.171 23.344 154.587 22.8C155.019 22.24 155.307 21.592 155.451 20.856C155.611 20.104 155.691 19.296 155.691 18.432C155.691 17.568 155.611 16.768 155.451 16.032C155.307 15.28 155.019 14.632 154.587 14.088C154.171 13.528 153.587 13.096 152.835 12.792C152.099 12.472 151.147 12.312 149.979 12.312H147.027V24.552ZM168.643 11.904C167.731 11.904 166.939 12.088 166.267 12.456C165.611 12.824 165.075 13.32 164.659 13.944C164.243 14.552 163.931 15.248 163.723 16.032C163.531 16.816 163.435 17.616 163.435 18.432C163.435 19.248 163.531 20.048 163.723 20.832C163.931 21.616 164.243 22.32 164.659 22.944C165.075 23.552 165.611 24.04 166.267 24.408C166.939 24.776 167.731 24.96 168.643 24.96C169.555 24.96 170.339 24.776 170.995 24.408C171.667 24.04 172.211 23.552 172.627 22.944C173.043 22.32 173.347 21.616 173.539 20.832C173.747 20.048 173.851 19.248 173.851 18.432C173.851 17.616 173.747 16.816 173.539 16.032C173.347 15.248 173.043 14.552 172.627 13.944C172.211 13.32 171.667 12.824 170.995 12.456C170.339 12.088 169.555 11.904 168.643 11.904ZM168.643 9.456C169.923 9.456 171.067 9.696 172.075 10.176C173.099 10.656 173.963 11.304 174.667 12.12C175.371 12.936 175.907 13.888 176.275 14.976C176.659 16.064 176.851 17.216 176.851 18.432C176.851 19.664 176.659 20.824 176.275 21.912C175.907 23 175.371 23.952 174.667 24.768C173.963 25.584 173.099 26.232 172.075 26.712C171.067 27.176 169.923 27.408 168.643 27.408C167.363 27.408 166.211 27.176 165.187 26.712C164.179 26.232 163.323 25.584 162.619 24.768C161.915 23.952 161.371 23 160.987 21.912C160.619 20.824 160.435 19.664 160.435 18.432C160.435 17.216 160.619 16.064 160.987 14.976C161.371 13.888 161.915 12.936 162.619 12.12C163.323 11.304 164.179 10.656 165.187 10.176C166.211 9.696 167.363 9.456 168.643 9.456Z" fill="#010101"/>
<path d="M13.008 42.004H19.35V42.816H13.96V46.428H18.748V47.24H13.96V52H13.008V42.004ZM23.0335 43.768H22.3195L23.7895 41.794H24.8815L23.0335 43.768ZM20.2755 46.988C20.3035 46.568 20.3922 46.204 20.5415 45.896C20.6909 45.588 20.8915 45.336 21.1435 45.14C21.4049 44.944 21.7082 44.7993 22.0535 44.706C22.3989 44.6127 22.7815 44.566 23.2015 44.566C23.5189 44.566 23.8362 44.5987 24.1535 44.664C24.4709 44.72 24.7555 44.832 25.0075 45C25.2595 45.168 25.4649 45.406 25.6235 45.714C25.7822 46.0127 25.8615 46.4047 25.8615 46.89V50.726C25.8615 51.0807 26.0342 51.258 26.3795 51.258C26.4822 51.258 26.5755 51.2393 26.6595 51.202V51.944C26.5569 51.9627 26.4635 51.9767 26.3795 51.986C26.3049 51.9953 26.2069 52 26.0855 52C25.8615 52 25.6795 51.972 25.5395 51.916C25.4089 51.8507 25.3062 51.762 25.2315 51.65C25.1569 51.538 25.1055 51.4073 25.0775 51.258C25.0589 51.0993 25.0495 50.9267 25.0495 50.74H25.0215C24.8629 50.9733 24.6995 51.1833 24.5315 51.37C24.3729 51.5473 24.1909 51.6967 23.9855 51.818C23.7895 51.9393 23.5609 52.0327 23.2995 52.098C23.0475 52.1633 22.7442 52.196 22.3895 52.196C22.0535 52.196 21.7362 52.154 21.4375 52.07C21.1482 51.9953 20.8915 51.874 20.6675 51.706C20.4529 51.5287 20.2802 51.3093 20.1495 51.048C20.0282 50.7773 19.9675 50.46 19.9675 50.096C19.9675 49.592 20.0795 49.2 20.3035 48.92C20.5275 48.6307 20.8215 48.4113 21.1855 48.262C21.5589 48.1127 21.9742 48.01 22.4315 47.954C22.8982 47.8887 23.3695 47.828 23.8455 47.772C24.0322 47.7533 24.1955 47.73 24.3355 47.702C24.4755 47.674 24.5922 47.6273 24.6855 47.562C24.7789 47.4873 24.8489 47.3893 24.8955 47.268C24.9515 47.1467 24.9795 46.988 24.9795 46.792C24.9795 46.4933 24.9282 46.2507 24.8255 46.064C24.7322 45.868 24.5969 45.714 24.4195 45.602C24.2515 45.49 24.0509 45.4153 23.8175 45.378C23.5935 45.3313 23.3509 45.308 23.0895 45.308C22.5295 45.308 22.0722 45.4433 21.7175 45.714C21.3629 45.9753 21.1762 46.4 21.1575 46.988H20.2755ZM24.9795 48.052H24.9515C24.8955 48.1547 24.7882 48.2293 24.6295 48.276C24.4709 48.3227 24.3309 48.3553 24.2095 48.374C23.8362 48.4393 23.4489 48.5 23.0475 48.556C22.6555 48.6027 22.2962 48.6773 21.9695 48.78C21.6429 48.8827 21.3722 49.032 21.1575 49.228C20.9522 49.4147 20.8495 49.6853 20.8495 50.04C20.8495 50.264 20.8915 50.4647 20.9755 50.642C21.0689 50.81 21.1902 50.9593 21.3395 51.09C21.4889 51.2113 21.6615 51.3047 21.8575 51.37C22.0535 51.4353 22.2542 51.468 22.4595 51.468C22.7955 51.468 23.1175 51.4167 23.4255 51.314C23.7335 51.2113 23.9995 51.062 24.2235 50.866C24.4569 50.67 24.6389 50.432 24.7695 50.152C24.9095 49.872 24.9795 49.5547 24.9795 49.2V48.052ZM32.7153 47.044C32.594 46.5027 32.37 46.078 32.0433 45.77C31.7166 45.462 31.2593 45.308 30.6713 45.308C30.2513 45.308 29.8826 45.3967 29.5653 45.574C29.248 45.7513 28.982 45.9847 28.7673 46.274C28.562 46.5633 28.4033 46.8947 28.2913 47.268C28.1886 47.632 28.1373 48.0053 28.1373 48.388C28.1373 48.7707 28.1886 49.1487 28.2913 49.522C28.4033 49.886 28.562 50.2127 28.7673 50.502C28.982 50.7913 29.248 51.0247 29.5653 51.202C29.8826 51.3793 30.2513 51.468 30.6713 51.468C30.942 51.468 31.1986 51.4167 31.4413 51.314C31.684 51.2113 31.8986 51.0713 32.0853 50.894C32.272 50.7073 32.426 50.488 32.5473 50.236C32.6686 49.984 32.7433 49.7087 32.7713 49.41H33.6533C33.532 50.2873 33.21 50.9733 32.6873 51.468C32.1646 51.9533 31.4926 52.196 30.6713 52.196C30.1206 52.196 29.6306 52.098 29.2013 51.902C28.7813 51.6967 28.4266 51.4213 28.1373 51.076C27.848 50.7307 27.6286 50.3293 27.4793 49.872C27.33 49.4053 27.2553 48.9107 27.2553 48.388C27.2553 47.8653 27.33 47.3753 27.4793 46.918C27.6286 46.4513 27.848 46.0453 28.1373 45.7C28.4266 45.3547 28.7813 45.0793 29.2013 44.874C29.6306 44.6687 30.1206 44.566 30.6713 44.566C31.446 44.566 32.0993 44.7713 32.6313 45.182C33.1726 45.5927 33.4946 46.2133 33.5973 47.044H32.7153ZM34.8931 42.004H35.7751V43.418H34.8931V42.004ZM34.8931 44.776H35.7751V52H34.8931V44.776ZM37.477 42.004H38.359V52H37.477V42.004ZM43.1315 44.776H44.0695L46.4495 50.936L48.6755 44.776H49.5575L46.4215 53.092C46.2908 53.4 46.1695 53.652 46.0575 53.848C45.9455 54.0533 45.8195 54.212 45.6795 54.324C45.5488 54.4453 45.3902 54.5293 45.2035 54.576C45.0262 54.632 44.7975 54.66 44.5175 54.66C44.3402 54.6507 44.2002 54.6413 44.0975 54.632C44.0042 54.632 43.9202 54.618 43.8455 54.59V53.848C43.9482 53.8667 44.0462 53.8807 44.1395 53.89C44.2422 53.9087 44.3448 53.918 44.4475 53.918C44.6435 53.918 44.8022 53.89 44.9235 53.834C45.0542 53.778 45.1662 53.6987 45.2595 53.596C45.3528 53.5027 45.4322 53.386 45.4975 53.246C45.5628 53.106 45.6328 52.952 45.7075 52.784L46.0155 51.972L43.1315 44.776ZM54.3205 44.776H55.1325V46.148H55.1605C55.3658 45.644 55.6971 45.2567 56.1545 44.986C56.6211 44.706 57.1485 44.566 57.7365 44.566C58.2871 44.566 58.7631 44.6687 59.1645 44.874C59.5751 45.0793 59.9158 45.3593 60.1865 45.714C60.4571 46.0593 60.6578 46.4653 60.7885 46.932C60.9191 47.3893 60.9845 47.8747 60.9845 48.388C60.9845 48.9013 60.9191 49.3913 60.7885 49.858C60.6578 50.3153 60.4571 50.7213 60.1865 51.076C59.9158 51.4213 59.5751 51.6967 59.1645 51.902C58.7631 52.098 58.2871 52.196 57.7365 52.196C57.4751 52.196 57.2138 52.1633 56.9525 52.098C56.6911 52.0327 56.4485 51.9347 56.2245 51.804C56.0005 51.6733 55.7998 51.51 55.6225 51.314C55.4545 51.118 55.3238 50.8893 55.2305 50.628H55.2025V54.66H54.3205V44.776ZM60.1025 48.388C60.1025 48.0147 60.0558 47.646 59.9625 47.282C59.8785 46.9087 59.7385 46.5773 59.5425 46.288C59.3558 45.9987 59.1131 45.7653 58.8145 45.588C58.5158 45.4013 58.1565 45.308 57.7365 45.308C57.2511 45.308 56.8451 45.392 56.5185 45.56C56.1918 45.728 55.9305 45.952 55.7345 46.232C55.5385 46.512 55.3985 46.8387 55.3145 47.212C55.2398 47.5853 55.2025 47.9773 55.2025 48.388C55.2025 48.7613 55.2445 49.1347 55.3285 49.508C55.4218 49.872 55.5665 50.1987 55.7625 50.488C55.9678 50.7773 56.2291 51.0153 56.5465 51.202C56.8731 51.3793 57.2698 51.468 57.7365 51.468C58.1565 51.468 58.5158 51.3793 58.8145 51.202C59.1131 51.0153 59.3558 50.7773 59.5425 50.488C59.7385 50.1987 59.8785 49.872 59.9625 49.508C60.0558 49.1347 60.1025 48.7613 60.1025 48.388ZM62.3595 44.776H63.1715V46.47H63.1995C63.4235 45.882 63.7689 45.4293 64.2355 45.112C64.7115 44.7947 65.2762 44.65 65.9295 44.678V45.56C65.5282 45.5413 65.1642 45.5973 64.8375 45.728C64.5109 45.8493 64.2262 46.0267 63.9835 46.26C63.7502 46.4933 63.5682 46.7733 63.4375 47.1C63.3069 47.4173 63.2415 47.7673 63.2415 48.15V52H62.3595V44.776ZM69.4495 43.768H68.7355L70.2055 41.794H71.2975L69.4495 43.768ZM66.6915 46.988C66.7195 46.568 66.8082 46.204 66.9575 45.896C67.1069 45.588 67.3075 45.336 67.5595 45.14C67.8209 44.944 68.1242 44.7993 68.4695 44.706C68.8149 44.6127 69.1975 44.566 69.6175 44.566C69.9349 44.566 70.2522 44.5987 70.5695 44.664C70.8869 44.72 71.1715 44.832 71.4235 45C71.6755 45.168 71.8809 45.406 72.0395 45.714C72.1982 46.0127 72.2775 46.4047 72.2775 46.89V50.726C72.2775 51.0807 72.4502 51.258 72.7955 51.258C72.8982 51.258 72.9915 51.2393 73.0755 51.202V51.944C72.9729 51.9627 72.8795 51.9767 72.7955 51.986C72.7209 51.9953 72.6229 52 72.5015 52C72.2775 52 72.0955 51.972 71.9555 51.916C71.8249 51.8507 71.7222 51.762 71.6475 51.65C71.5729 51.538 71.5215 51.4073 71.4935 51.258C71.4749 51.0993 71.4655 50.9267 71.4655 50.74H71.4375C71.2789 50.9733 71.1155 51.1833 70.9475 51.37C70.7889 51.5473 70.6069 51.6967 70.4015 51.818C70.2055 51.9393 69.9769 52.0327 69.7155 52.098C69.4635 52.1633 69.1602 52.196 68.8055 52.196C68.4695 52.196 68.1522 52.154 67.8535 52.07C67.5642 51.9953 67.3075 51.874 67.0835 51.706C66.8689 51.5287 66.6962 51.3093 66.5655 51.048C66.4442 50.7773 66.3835 50.46 66.3835 50.096C66.3835 49.592 66.4955 49.2 66.7195 48.92C66.9435 48.6307 67.2375 48.4113 67.6015 48.262C67.9749 48.1127 68.3902 48.01 68.8475 47.954C69.3142 47.8887 69.7855 47.828 70.2615 47.772C70.4482 47.7533 70.6115 47.73 70.7515 47.702C70.8915 47.674 71.0082 47.6273 71.1015 47.562C71.1949 47.4873 71.2649 47.3893 71.3115 47.268C71.3675 47.1467 71.3955 46.988 71.3955 46.792C71.3955 46.4933 71.3442 46.2507 71.2415 46.064C71.1482 45.868 71.0129 45.714 70.8355 45.602C70.6675 45.49 70.4669 45.4153 70.2335 45.378C70.0095 45.3313 69.7669 45.308 69.5055 45.308C68.9455 45.308 68.4882 45.4433 68.1335 45.714C67.7789 45.9753 67.5922 46.4 67.5735 46.988H66.6915ZM71.3955 48.052H71.3675C71.3115 48.1547 71.2042 48.2293 71.0455 48.276C70.8869 48.3227 70.7469 48.3553 70.6255 48.374C70.2522 48.4393 69.8649 48.5 69.4635 48.556C69.0715 48.6027 68.7122 48.6773 68.3855 48.78C68.0589 48.8827 67.7882 49.032 67.5735 49.228C67.3682 49.4147 67.2655 49.6853 67.2655 50.04C67.2655 50.264 67.3075 50.4647 67.3915 50.642C67.4849 50.81 67.6062 50.9593 67.7555 51.09C67.9049 51.2113 68.0775 51.3047 68.2735 51.37C68.4695 51.4353 68.6702 51.468 68.8755 51.468C69.2115 51.468 69.5335 51.4167 69.8415 51.314C70.1495 51.2113 70.4155 51.062 70.6395 50.866C70.8729 50.67 71.0549 50.432 71.1855 50.152C71.3255 49.872 71.3955 49.5547 71.3955 49.2V48.052ZM79.1313 47.044C79.01 46.5027 78.786 46.078 78.4593 45.77C78.1326 45.462 77.6753 45.308 77.0873 45.308C76.6673 45.308 76.2986 45.3967 75.9813 45.574C75.664 45.7513 75.398 45.9847 75.1833 46.274C74.978 46.5633 74.8193 46.8947 74.7073 47.268C74.6046 47.632 74.5533 48.0053 74.5533 48.388C74.5533 48.7707 74.6046 49.1487 74.7073 49.522C74.8193 49.886 74.978 50.2127 75.1833 50.502C75.398 50.7913 75.664 51.0247 75.9813 51.202C76.2986 51.3793 76.6673 51.468 77.0873 51.468C77.358 51.468 77.6146 51.4167 77.8573 51.314C78.1 51.2113 78.3146 51.0713 78.5013 50.894C78.688 50.7073 78.842 50.488 78.9633 50.236C79.0846 49.984 79.1593 49.7087 79.1873 49.41H80.0693C79.948 50.2873 79.626 50.9733 79.1033 51.468C78.5806 51.9533 77.9086 52.196 77.0873 52.196C76.5366 52.196 76.0466 52.098 75.6173 51.902C75.1973 51.6967 74.8426 51.4213 74.5533 51.076C74.264 50.7307 74.0446 50.3293 73.8953 49.872C73.746 49.4053 73.6713 48.9107 73.6713 48.388C73.6713 47.8653 73.746 47.3753 73.8953 46.918C74.0446 46.4513 74.264 46.0453 74.5533 45.7C74.8426 45.3547 75.1973 45.0793 75.6173 44.874C76.0466 44.6687 76.5366 44.566 77.0873 44.566C77.862 44.566 78.5153 44.7713 79.0473 45.182C79.5886 45.5927 79.9106 46.2133 80.0133 47.044H79.1313ZM82.6951 44.776H84.1651V45.518H82.6951V50.39C82.6951 50.6793 82.7324 50.908 82.8071 51.076C82.8911 51.2347 83.0917 51.3233 83.4091 51.342C83.6611 51.342 83.9131 51.328 84.1651 51.3V52.042C84.0344 52.042 83.9037 52.0467 83.7731 52.056C83.6424 52.0653 83.5117 52.07 83.3811 52.07C82.7931 52.07 82.3824 51.958 82.1491 51.734C81.9157 51.5007 81.8037 51.076 81.8131 50.46V45.518H80.5531V44.776H81.8131V42.606H82.6951V44.776ZM85.4517 42.004H86.3337V43.418H85.4517V42.004ZM85.4517 44.776H86.3337V52H85.4517V44.776ZM93.1176 47.044C92.9963 46.5027 92.7723 46.078 92.4456 45.77C92.119 45.462 91.6616 45.308 91.0736 45.308C90.6536 45.308 90.285 45.3967 89.9676 45.574C89.6503 45.7513 89.3843 45.9847 89.1696 46.274C88.9643 46.5633 88.8056 46.8947 88.6936 47.268C88.591 47.632 88.5396 48.0053 88.5396 48.388C88.5396 48.7707 88.591 49.1487 88.6936 49.522C88.8056 49.886 88.9643 50.2127 89.1696 50.502C89.3843 50.7913 89.6503 51.0247 89.9676 51.202C90.285 51.3793 90.6536 51.468 91.0736 51.468C91.3443 51.468 91.601 51.4167 91.8436 51.314C92.0863 51.2113 92.301 51.0713 92.4876 50.894C92.6743 50.7073 92.8283 50.488 92.9496 50.236C93.071 49.984 93.1456 49.7087 93.1736 49.41H94.0556C93.9343 50.2873 93.6123 50.9733 93.0896 51.468C92.567 51.9533 91.895 52.196 91.0736 52.196C90.523 52.196 90.033 52.098 89.6036 51.902C89.1836 51.6967 88.829 51.4213 88.5396 51.076C88.2503 50.7307 88.031 50.3293 87.8816 49.872C87.7323 49.4053 87.6576 48.9107 87.6576 48.388C87.6576 47.8653 87.7323 47.3753 87.8816 46.918C88.031 46.4513 88.2503 46.0453 88.5396 45.7C88.829 45.3547 89.1836 45.0793 89.6036 44.874C90.033 44.6687 90.523 44.566 91.0736 44.566C91.8483 44.566 92.5016 44.7713 93.0336 45.182C93.575 45.5927 93.897 46.2133 93.9996 47.044H93.1176ZM98.3334 45.308C97.9134 45.308 97.5447 45.3967 97.2274 45.574C96.9101 45.7513 96.6441 45.9847 96.4294 46.274C96.2241 46.5633 96.0654 46.8947 95.9534 47.268C95.8507 47.632 95.7994 48.0053 95.7994 48.388C95.7994 48.7707 95.8507 49.1487 95.9534 49.522C96.0654 49.886 96.2241 50.2127 96.4294 50.502C96.6441 50.7913 96.9101 51.0247 97.2274 51.202C97.5447 51.3793 97.9134 51.468 98.3334 51.468C98.7534 51.468 99.1221 51.3793 99.4394 51.202C99.7567 51.0247 100.018 50.7913 100.223 50.502C100.438 50.2127 100.597 49.886 100.699 49.522C100.811 49.1487 100.867 48.7707 100.867 48.388C100.867 48.0053 100.811 47.632 100.699 47.268C100.597 46.8947 100.438 46.5633 100.223 46.274C100.018 45.9847 99.7567 45.7513 99.4394 45.574C99.1221 45.3967 98.7534 45.308 98.3334 45.308ZM98.3334 44.566C98.8841 44.566 99.3694 44.6687 99.7894 44.874C100.219 45.0793 100.578 45.3547 100.867 45.7C101.157 46.0453 101.376 46.4513 101.525 46.918C101.675 47.3753 101.749 47.8653 101.749 48.388C101.749 48.9107 101.675 49.4053 101.525 49.872C101.376 50.3293 101.157 50.7307 100.867 51.076C100.578 51.4213 100.219 51.6967 99.7894 51.902C99.3694 52.098 98.8841 52.196 98.3334 52.196C97.7827 52.196 97.2927 52.098 96.8634 51.902C96.4434 51.6967 96.0887 51.4213 95.7994 51.076C95.5101 50.7307 95.2907 50.3293 95.1414 49.872C94.9921 49.4053 94.9174 48.9107 94.9174 48.388C94.9174 47.8653 94.9921 47.3753 95.1414 46.918C95.2907 46.4513 95.5101 46.0453 95.7994 45.7C96.0887 45.3547 96.4434 45.0793 96.8634 44.874C97.2927 44.6687 97.7827 44.566 98.3334 44.566ZM106.957 44.776H107.769V46.148H107.797C108.003 45.644 108.334 45.2567 108.791 44.986C109.258 44.706 109.785 44.566 110.373 44.566C110.924 44.566 111.4 44.6687 111.801 44.874C112.212 45.0793 112.553 45.3593 112.823 45.714C113.094 46.0593 113.295 46.4653 113.425 46.932C113.556 47.3893 113.621 47.8747 113.621 48.388C113.621 48.9013 113.556 49.3913 113.425 49.858C113.295 50.3153 113.094 50.7213 112.823 51.076C112.553 51.4213 112.212 51.6967 111.801 51.902C111.4 52.098 110.924 52.196 110.373 52.196C110.112 52.196 109.851 52.1633 109.589 52.098C109.328 52.0327 109.085 51.9347 108.861 51.804C108.637 51.6733 108.437 51.51 108.259 51.314C108.091 51.118 107.961 50.8893 107.867 50.628H107.839V54.66H106.957V44.776ZM112.739 48.388C112.739 48.0147 112.693 47.646 112.599 47.282C112.515 46.9087 112.375 46.5773 112.179 46.288C111.993 45.9987 111.75 45.7653 111.451 45.588C111.153 45.4013 110.793 45.308 110.373 45.308C109.888 45.308 109.482 45.392 109.155 45.56C108.829 45.728 108.567 45.952 108.371 46.232C108.175 46.512 108.035 46.8387 107.951 47.212C107.877 47.5853 107.839 47.9773 107.839 48.388C107.839 48.7613 107.881 49.1347 107.965 49.508C108.059 49.872 108.203 50.1987 108.399 50.488C108.605 50.7773 108.866 51.0153 109.183 51.202C109.51 51.3793 109.907 51.468 110.373 51.468C110.793 51.468 111.153 51.3793 111.451 51.202C111.75 51.0153 111.993 50.7773 112.179 50.488C112.375 50.1987 112.515 49.872 112.599 49.508C112.693 49.1347 112.739 48.7613 112.739 48.388ZM114.912 46.988C114.94 46.568 115.029 46.204 115.178 45.896C115.328 45.588 115.528 45.336 115.78 45.14C116.042 44.944 116.345 44.7993 116.69 44.706C117.036 44.6127 117.418 44.566 117.838 44.566C118.156 44.566 118.473 44.5987 118.79 44.664C119.108 44.72 119.392 44.832 119.644 45C119.896 45.168 120.102 45.406 120.26 45.714C120.419 46.0127 120.498 46.4047 120.498 46.89V50.726C120.498 51.0807 120.671 51.258 121.016 51.258C121.119 51.258 121.212 51.2393 121.296 51.202V51.944C121.194 51.9627 121.1 51.9767 121.016 51.986C120.942 51.9953 120.844 52 120.722 52C120.498 52 120.316 51.972 120.176 51.916C120.046 51.8507 119.943 51.762 119.868 51.65C119.794 51.538 119.742 51.4073 119.714 51.258C119.696 51.0993 119.686 50.9267 119.686 50.74H119.658C119.5 50.9733 119.336 51.1833 119.168 51.37C119.01 51.5473 118.828 51.6967 118.622 51.818C118.426 51.9393 118.198 52.0327 117.936 52.098C117.684 52.1633 117.381 52.196 117.026 52.196C116.69 52.196 116.373 52.154 116.074 52.07C115.785 51.9953 115.528 51.874 115.304 51.706C115.09 51.5287 114.917 51.3093 114.786 51.048C114.665 50.7773 114.604 50.46 114.604 50.096C114.604 49.592 114.716 49.2 114.94 48.92C115.164 48.6307 115.458 48.4113 115.822 48.262C116.196 48.1127 116.611 48.01 117.068 47.954C117.535 47.8887 118.006 47.828 118.482 47.772C118.669 47.7533 118.832 47.73 118.972 47.702C119.112 47.674 119.229 47.6273 119.322 47.562C119.416 47.4873 119.486 47.3893 119.532 47.268C119.588 47.1467 119.616 46.988 119.616 46.792C119.616 46.4933 119.565 46.2507 119.462 46.064C119.369 45.868 119.234 45.714 119.056 45.602C118.888 45.49 118.688 45.4153 118.454 45.378C118.23 45.3313 117.988 45.308 117.726 45.308C117.166 45.308 116.709 45.4433 116.354 45.714C116 45.9753 115.813 46.4 115.794 46.988H114.912ZM119.616 48.052H119.588C119.532 48.1547 119.425 48.2293 119.266 48.276C119.108 48.3227 118.968 48.3553 118.846 48.374C118.473 48.4393 118.086 48.5 117.684 48.556C117.292 48.6027 116.933 48.6773 116.606 48.78C116.28 48.8827 116.009 49.032 115.794 49.228C115.589 49.4147 115.486 49.6853 115.486 50.04C115.486 50.264 115.528 50.4647 115.612 50.642C115.706 50.81 115.827 50.9593 115.976 51.09C116.126 51.2113 116.298 51.3047 116.494 51.37C116.69 51.4353 116.891 51.468 117.096 51.468C117.432 51.468 117.754 51.4167 118.062 51.314C118.37 51.2113 118.636 51.062 118.86 50.866C119.094 50.67 119.276 50.432 119.406 50.152C119.546 49.872 119.616 49.5547 119.616 49.2V48.052ZM122.256 44.776H123.068V46.47H123.096C123.32 45.882 123.665 45.4293 124.132 45.112C124.608 44.7947 125.173 44.65 125.826 44.678V45.56C125.425 45.5413 125.061 45.5973 124.734 45.728C124.407 45.8493 124.123 46.0267 123.88 46.26C123.647 46.4933 123.465 46.7733 123.334 47.1C123.203 47.4173 123.138 47.7673 123.138 48.15V52H122.256V44.776ZM126.588 46.988C126.616 46.568 126.705 46.204 126.854 45.896C127.003 45.588 127.204 45.336 127.456 45.14C127.717 44.944 128.021 44.7993 128.366 44.706C128.711 44.6127 129.094 44.566 129.514 44.566C129.831 44.566 130.149 44.5987 130.466 44.664C130.783 44.72 131.068 44.832 131.32 45C131.572 45.168 131.777 45.406 131.936 45.714C132.095 46.0127 132.174 46.4047 132.174 46.89V50.726C132.174 51.0807 132.347 51.258 132.692 51.258C132.795 51.258 132.888 51.2393 132.972 51.202V51.944C132.869 51.9627 132.776 51.9767 132.692 51.986C132.617 51.9953 132.519 52 132.398 52C132.174 52 131.992 51.972 131.852 51.916C131.721 51.8507 131.619 51.762 131.544 51.65C131.469 51.538 131.418 51.4073 131.39 51.258C131.371 51.0993 131.362 50.9267 131.362 50.74H131.334C131.175 50.9733 131.012 51.1833 130.844 51.37C130.685 51.5473 130.503 51.6967 130.298 51.818C130.102 51.9393 129.873 52.0327 129.612 52.098C129.36 52.1633 129.057 52.196 128.702 52.196C128.366 52.196 128.049 52.154 127.75 52.07C127.461 51.9953 127.204 51.874 126.98 51.706C126.765 51.5287 126.593 51.3093 126.462 51.048C126.341 50.7773 126.28 50.46 126.28 50.096C126.28 49.592 126.392 49.2 126.616 48.92C126.84 48.6307 127.134 48.4113 127.498 48.262C127.871 48.1127 128.287 48.01 128.744 47.954C129.211 47.8887 129.682 47.828 130.158 47.772C130.345 47.7533 130.508 47.73 130.648 47.702C130.788 47.674 130.905 47.6273 130.998 47.562C131.091 47.4873 131.161 47.3893 131.208 47.268C131.264 47.1467 131.292 46.988 131.292 46.792C131.292 46.4933 131.241 46.2507 131.138 46.064C131.045 45.868 130.909 45.714 130.732 45.602C130.564 45.49 130.363 45.4153 130.13 45.378C129.906 45.3313 129.663 45.308 129.402 45.308C128.842 45.308 128.385 45.4433 128.03 45.714C127.675 45.9753 127.489 46.4 127.47 46.988H126.588ZM131.292 48.052H131.264C131.208 48.1547 131.101 48.2293 130.942 48.276C130.783 48.3227 130.643 48.3553 130.522 48.374C130.149 48.4393 129.761 48.5 129.36 48.556C128.968 48.6027 128.609 48.6773 128.282 48.78C127.955 48.8827 127.685 49.032 127.47 49.228C127.265 49.4147 127.162 49.6853 127.162 50.04C127.162 50.264 127.204 50.4647 127.288 50.642C127.381 50.81 127.503 50.9593 127.652 51.09C127.801 51.2113 127.974 51.3047 128.17 51.37C128.366 51.4353 128.567 51.468 128.772 51.468C129.108 51.468 129.43 51.4167 129.738 51.314C130.046 51.2113 130.312 51.062 130.536 50.866C130.769 50.67 130.951 50.432 131.082 50.152C131.222 49.872 131.292 49.5547 131.292 49.2V48.052ZM17.936 62.044C17.8147 61.5027 17.5907 61.078 17.264 60.77C16.9373 60.462 16.48 60.308 15.892 60.308C15.472 60.308 15.1033 60.3967 14.786 60.574C14.4687 60.7513 14.2027 60.9847 13.988 61.274C13.7827 61.5633 13.624 61.8947 13.512 62.268C13.4093 62.632 13.358 63.0053 13.358 63.388C13.358 63.7707 13.4093 64.1487 13.512 64.522C13.624 64.886 13.7827 65.2127 13.988 65.502C14.2027 65.7913 14.4687 66.0247 14.786 66.202C15.1033 66.3793 15.472 66.468 15.892 66.468C16.1627 66.468 16.4193 66.4167 16.662 66.314C16.9047 66.2113 17.1193 66.0713 17.306 65.894C17.4927 65.7073 17.6467 65.488 17.768 65.236C17.8893 64.984 17.964 64.7087 17.992 64.41H18.874C18.7527 65.2873 18.4307 65.9733 17.908 66.468C17.3853 66.9533 16.7133 67.196 15.892 67.196C15.3413 67.196 14.8513 67.098 14.422 66.902C14.002 66.6967 13.6473 66.4213 13.358 66.076C13.0687 65.7307 12.8493 65.3293 12.7 64.872C12.5507 64.4053 12.476 63.9107 12.476 63.388C12.476 62.8653 12.5507 62.3753 12.7 61.918C12.8493 61.4513 13.0687 61.0453 13.358 60.7C13.6473 60.3547 14.002 60.0793 14.422 59.874C14.8513 59.6687 15.3413 59.566 15.892 59.566C16.6667 59.566 17.32 59.7713 17.852 60.182C18.3933 60.5927 18.7153 61.2133 18.818 62.044H17.936ZM20.0998 59.776H20.9118V61.47H20.9398C21.1638 60.882 21.5091 60.4293 21.9758 60.112C22.4518 59.7947 23.0164 59.65 23.6698 59.678V60.56C23.2684 60.5413 22.9044 60.5973 22.5778 60.728C22.2511 60.8493 21.9664 61.0267 21.7238 61.26C21.4904 61.4933 21.3084 61.7733 21.1778 62.1C21.0471 62.4173 20.9818 62.7673 20.9818 63.15V67H20.0998V59.776ZM29.4637 62.884C29.4544 62.548 29.3937 62.226 29.2817 61.918C29.179 61.61 29.0297 61.3393 28.8337 61.106C28.6377 60.8633 28.3997 60.672 28.1197 60.532C27.8397 60.3827 27.5224 60.308 27.1677 60.308C26.8037 60.308 26.4817 60.3827 26.2017 60.532C25.9217 60.672 25.6837 60.8633 25.4877 61.106C25.2917 61.3393 25.133 61.6147 25.0117 61.932C24.8997 62.24 24.825 62.5573 24.7877 62.884H29.4637ZM24.7877 63.626C24.7877 63.9433 24.8297 64.2747 24.9137 64.62C25.007 64.956 25.1517 65.2593 25.3477 65.53C25.5437 65.8007 25.791 66.0247 26.0897 66.202C26.3884 66.3793 26.7477 66.468 27.1677 66.468C27.8117 66.468 28.3157 66.3 28.6797 65.964C29.0437 65.628 29.2957 65.18 29.4357 64.62H30.3177C30.131 65.4413 29.7857 66.076 29.2817 66.524C28.787 66.972 28.0824 67.196 27.1677 67.196C26.5984 67.196 26.1037 67.098 25.6837 66.902C25.273 66.6967 24.937 66.4213 24.6757 66.076C24.4144 65.7213 24.2184 65.3153 24.0877 64.858C23.9664 64.3913 23.9057 63.9013 23.9057 63.388C23.9057 62.912 23.9664 62.4453 24.0877 61.988C24.2184 61.5307 24.4144 61.1247 24.6757 60.77C24.937 60.406 25.273 60.1167 25.6837 59.902C26.1037 59.678 26.5984 59.566 27.1677 59.566C27.7464 59.566 28.241 59.6827 28.6517 59.916C29.0624 60.1493 29.3937 60.4573 29.6457 60.84C29.907 61.2133 30.0937 61.6473 30.2057 62.142C30.3177 62.6273 30.3644 63.122 30.3457 63.626H24.7877ZM31.4455 61.988C31.4735 61.568 31.5621 61.204 31.7115 60.896C31.8608 60.588 32.0615 60.336 32.3135 60.14C32.5748 59.944 32.8781 59.7993 33.2235 59.706C33.5688 59.6127 33.9515 59.566 34.3715 59.566C34.6888 59.566 35.0061 59.5987 35.3235 59.664C35.6408 59.72 35.9255 59.832 36.1775 60C36.4295 60.168 36.6348 60.406 36.7935 60.714C36.9521 61.0127 37.0315 61.4047 37.0315 61.89V65.726C37.0315 66.0807 37.2041 66.258 37.5495 66.258C37.6521 66.258 37.7455 66.2393 37.8295 66.202V66.944C37.7268 66.9627 37.6335 66.9767 37.5495 66.986C37.4748 66.9953 37.3768 67 37.2555 67C37.0315 67 36.8495 66.972 36.7095 66.916C36.5788 66.8507 36.4761 66.762 36.4015 66.65C36.3268 66.538 36.2755 66.4073 36.2475 66.258C36.2288 66.0993 36.2195 65.9267 36.2195 65.74H36.1915C36.0328 65.9733 35.8695 66.1833 35.7015 66.37C35.5428 66.5473 35.3608 66.6967 35.1555 66.818C34.9595 66.9393 34.7308 67.0327 34.4695 67.098C34.2175 67.1633 33.9141 67.196 33.5595 67.196C33.2235 67.196 32.9061 67.154 32.6075 67.07C32.3181 66.9953 32.0615 66.874 31.8375 66.706C31.6228 66.5287 31.4501 66.3093 31.3195 66.048C31.1981 65.7773 31.1375 65.46 31.1375 65.096C31.1375 64.592 31.2495 64.2 31.4735 63.92C31.6975 63.6307 31.9915 63.4113 32.3555 63.262C32.7288 63.1127 33.1441 63.01 33.6015 62.954C34.0681 62.8887 34.5395 62.828 35.0155 62.772C35.2021 62.7533 35.3655 62.73 35.5055 62.702C35.6455 62.674 35.7621 62.6273 35.8555 62.562C35.9488 62.4873 36.0188 62.3893 36.0655 62.268C36.1215 62.1467 36.1495 61.988 36.1495 61.792C36.1495 61.4933 36.0981 61.2507 35.9955 61.064C35.9021 60.868 35.7668 60.714 35.5895 60.602C35.4215 60.49 35.2208 60.4153 34.9875 60.378C34.7635 60.3313 34.5208 60.308 34.2595 60.308C33.6995 60.308 33.2421 60.4433 32.8875 60.714C32.5328 60.9753 32.3461 61.4 32.3275 61.988H31.4455ZM36.1495 63.052H36.1215C36.0655 63.1547 35.9581 63.2293 35.7995 63.276C35.6408 63.3227 35.5008 63.3553 35.3795 63.374C35.0061 63.4393 34.6188 63.5 34.2175 63.556C33.8255 63.6027 33.4661 63.6773 33.1395 63.78C32.8128 63.8827 32.5421 64.032 32.3275 64.228C32.1221 64.4147 32.0195 64.6853 32.0195 65.04C32.0195 65.264 32.0615 65.4647 32.1455 65.642C32.2388 65.81 32.3601 65.9593 32.5095 66.09C32.6588 66.2113 32.8315 66.3047 33.0275 66.37C33.2235 66.4353 33.4241 66.468 33.6295 66.468C33.9655 66.468 34.2875 66.4167 34.5955 66.314C34.9035 66.2113 35.1695 66.062 35.3935 65.866C35.6268 65.67 35.8088 65.432 35.9395 65.152C36.0795 64.872 36.1495 64.5547 36.1495 64.2V63.052ZM38.7892 59.776H39.6012V61.47H39.6292C39.8532 60.882 40.1986 60.4293 40.6652 60.112C41.1412 59.7947 41.7059 59.65 42.3592 59.678V60.56C41.9579 60.5413 41.5939 60.5973 41.2672 60.728C40.9406 60.8493 40.6559 61.0267 40.4132 61.26C40.1799 61.4933 39.9979 61.7733 39.8672 62.1C39.7366 62.4173 39.6712 62.7673 39.6712 63.15V67H38.7892V59.776ZM53.4577 67H52.6457V65.628H52.6177C52.5244 65.8613 52.3844 66.076 52.1977 66.272C52.0204 66.468 51.8151 66.636 51.5817 66.776C51.3484 66.9067 51.0964 67.0093 50.8257 67.084C50.5644 67.1587 50.3031 67.196 50.0417 67.196C49.4911 67.196 49.0104 67.098 48.5997 66.902C48.1984 66.6967 47.8624 66.4213 47.5917 66.076C47.3211 65.7213 47.1204 65.3153 46.9897 64.858C46.8591 64.3913 46.7937 63.9013 46.7937 63.388C46.7937 62.8747 46.8591 62.3893 46.9897 61.932C47.1204 61.4653 47.3211 61.0593 47.5917 60.714C47.8624 60.3593 48.1984 60.0793 48.5997 59.874C49.0104 59.6687 49.4911 59.566 50.0417 59.566C50.3124 59.566 50.5737 59.5987 50.8257 59.664C51.0871 59.7293 51.3297 59.832 51.5537 59.972C51.7777 60.1027 51.9737 60.266 52.1417 60.462C52.3191 60.658 52.4544 60.8867 52.5477 61.148H52.5757V57.004H53.4577V67ZM47.6757 63.388C47.6757 63.7613 47.7177 64.1347 47.8017 64.508C47.8951 64.872 48.0351 65.1987 48.2217 65.488C48.4177 65.7773 48.6651 66.0153 48.9637 66.202C49.2624 66.3793 49.6217 66.468 50.0417 66.468C50.5084 66.468 50.9004 66.3793 51.2177 66.202C51.5444 66.0153 51.8057 65.7773 52.0017 65.488C52.2071 65.1987 52.3517 64.872 52.4357 64.508C52.5291 64.1347 52.5757 63.7613 52.5757 63.388C52.5757 63.0147 52.5291 62.646 52.4357 62.282C52.3517 61.9087 52.2071 61.5773 52.0017 61.288C51.8057 60.9987 51.5444 60.7653 51.2177 60.588C50.9004 60.4013 50.5084 60.308 50.0417 60.308C49.6217 60.308 49.2624 60.4013 48.9637 60.588C48.6651 60.7653 48.4177 60.9987 48.2217 61.288C48.0351 61.5773 47.8951 61.9087 47.8017 62.282C47.7177 62.646 47.6757 63.0147 47.6757 63.388ZM60.3348 62.884C60.3254 62.548 60.2648 62.226 60.1528 61.918C60.0501 61.61 59.9008 61.3393 59.7048 61.106C59.5088 60.8633 59.2708 60.672 58.9908 60.532C58.7108 60.3827 58.3934 60.308 58.0388 60.308C57.6748 60.308 57.3528 60.3827 57.0728 60.532C56.7928 60.672 56.5548 60.8633 56.3588 61.106C56.1628 61.3393 56.0041 61.6147 55.8828 61.932C55.7708 62.24 55.6961 62.5573 55.6588 62.884H60.3348ZM55.6588 63.626C55.6588 63.9433 55.7008 64.2747 55.7848 64.62C55.8781 64.956 56.0228 65.2593 56.2188 65.53C56.4148 65.8007 56.6621 66.0247 56.9608 66.202C57.2594 66.3793 57.6188 66.468 58.0388 66.468C58.6828 66.468 59.1868 66.3 59.5508 65.964C59.9148 65.628 60.1668 65.18 60.3068 64.62H61.1888C61.0021 65.4413 60.6568 66.076 60.1528 66.524C59.6581 66.972 58.9534 67.196 58.0388 67.196C57.4694 67.196 56.9748 67.098 56.5548 66.902C56.1441 66.6967 55.8081 66.4213 55.5468 66.076C55.2854 65.7213 55.0894 65.3153 54.9588 64.858C54.8374 64.3913 54.7768 63.9013 54.7768 63.388C54.7768 62.912 54.8374 62.4453 54.9588 61.988C55.0894 61.5307 55.2854 61.1247 55.5468 60.77C55.8081 60.406 56.1441 60.1167 56.5548 59.902C56.9748 59.678 57.4694 59.566 58.0388 59.566C58.6174 59.566 59.1121 59.6827 59.5228 59.916C59.9334 60.1493 60.2648 60.4573 60.5168 60.84C60.7781 61.2133 60.9648 61.6473 61.0768 62.142C61.1888 62.6273 61.2354 63.122 61.2168 63.626H55.6588ZM62.4145 57.004H63.2965V67H62.4145V57.004ZM64.9985 57.004H65.8805V58.418H64.9985V57.004ZM64.9985 59.776H65.8805V67H64.9985V59.776ZM72.6645 62.044C72.5432 61.5027 72.3192 61.078 71.9925 60.77C71.6658 60.462 71.2085 60.308 70.6205 60.308C70.2005 60.308 69.8318 60.3967 69.5145 60.574C69.1972 60.7513 68.9312 60.9847 68.7165 61.274C68.5112 61.5633 68.3525 61.8947 68.2405 62.268C68.1378 62.632 68.0865 63.0053 68.0865 63.388C68.0865 63.7707 68.1378 64.1487 68.2405 64.522C68.3525 64.886 68.5112 65.2127 68.7165 65.502C68.9312 65.7913 69.1972 66.0247 69.5145 66.202C69.8318 66.3793 70.2005 66.468 70.6205 66.468C70.8912 66.468 71.1478 66.4167 71.3905 66.314C71.6332 66.2113 71.8478 66.0713 72.0345 65.894C72.2212 65.7073 72.3752 65.488 72.4965 65.236C72.6178 64.984 72.6925 64.7087 72.7205 64.41H73.6025C73.4812 65.2873 73.1592 65.9733 72.6365 66.468C72.1138 66.9533 71.4418 67.196 70.6205 67.196C70.0698 67.196 69.5798 67.098 69.1505 66.902C68.7305 66.6967 68.3758 66.4213 68.0865 66.076C67.7972 65.7307 67.5778 65.3293 67.4285 64.872C67.2792 64.4053 67.2045 63.9107 67.2045 63.388C67.2045 62.8653 67.2792 62.3753 67.4285 61.918C67.5778 61.4513 67.7972 61.0453 68.0865 60.7C68.3758 60.3547 68.7305 60.0793 69.1505 59.874C69.5798 59.6687 70.0698 59.566 70.6205 59.566C71.3952 59.566 72.0485 59.7713 72.5805 60.182C73.1218 60.5927 73.4438 61.2133 73.5465 62.044H72.6645ZM74.8423 57.004H75.7243V58.418H74.8423V57.004ZM74.8423 59.776H75.7243V67H74.8423V59.776ZM80.4643 60.308C80.0443 60.308 79.6756 60.3967 79.3583 60.574C79.0409 60.7513 78.7749 60.9847 78.5603 61.274C78.3549 61.5633 78.1963 61.8947 78.0843 62.268C77.9816 62.632 77.9303 63.0053 77.9303 63.388C77.9303 63.7707 77.9816 64.1487 78.0843 64.522C78.1963 64.886 78.3549 65.2127 78.5603 65.502C78.7749 65.7913 79.0409 66.0247 79.3583 66.202C79.6756 66.3793 80.0443 66.468 80.4643 66.468C80.8843 66.468 81.2529 66.3793 81.5703 66.202C81.8876 66.0247 82.1489 65.7913 82.3543 65.502C82.5689 65.2127 82.7276 64.886 82.8303 64.522C82.9423 64.1487 82.9983 63.7707 82.9983 63.388C82.9983 63.0053 82.9423 62.632 82.8303 62.268C82.7276 61.8947 82.5689 61.5633 82.3543 61.274C82.1489 60.9847 81.8876 60.7513 81.5703 60.574C81.2529 60.3967 80.8843 60.308 80.4643 60.308ZM80.4643 59.566C81.0149 59.566 81.5003 59.6687 81.9203 59.874C82.3496 60.0793 82.7089 60.3547 82.9983 60.7C83.2876 61.0453 83.5069 61.4513 83.6563 61.918C83.8056 62.3753 83.8803 62.8653 83.8803 63.388C83.8803 63.9107 83.8056 64.4053 83.6563 64.872C83.5069 65.3293 83.2876 65.7307 82.9983 66.076C82.7089 66.4213 82.3496 66.6967 81.9203 66.902C81.5003 67.098 81.0149 67.196 80.4643 67.196C79.9136 67.196 79.4236 67.098 78.9943 66.902C78.5743 66.6967 78.2196 66.4213 77.9303 66.076C77.6409 65.7307 77.4216 65.3293 77.2723 64.872C77.1229 64.4053 77.0483 63.9107 77.0483 63.388C77.0483 62.8653 77.1229 62.3753 77.2723 61.918C77.4216 61.4513 77.6409 61.0453 77.9303 60.7C78.2196 60.3547 78.5743 60.0793 78.9943 59.874C79.4236 59.6687 79.9136 59.566 80.4643 59.566ZM89.5176 61.89C89.5082 61.6193 89.4522 61.386 89.3496 61.19C89.2469 60.9847 89.1069 60.8167 88.9296 60.686C88.7616 60.5553 88.5656 60.462 88.3416 60.406C88.1176 60.3407 87.8796 60.308 87.6276 60.308C87.4316 60.308 87.2309 60.3313 87.0256 60.378C86.8296 60.4153 86.6476 60.4853 86.4796 60.588C86.3116 60.6813 86.1762 60.8073 86.0736 60.966C85.9709 61.1247 85.9196 61.3207 85.9196 61.554C85.9196 61.75 85.9662 61.918 86.0596 62.058C86.1622 62.1887 86.2882 62.3007 86.4376 62.394C86.5869 62.4873 86.7502 62.5667 86.9276 62.632C87.1049 62.688 87.2682 62.7347 87.4176 62.772L88.5936 63.038C88.8456 63.0753 89.0929 63.1453 89.3356 63.248C89.5876 63.3413 89.8069 63.4673 89.9936 63.626C90.1896 63.7847 90.3482 63.9807 90.4696 64.214C90.5909 64.4473 90.6516 64.7227 90.6516 65.04C90.6516 65.432 90.5629 65.768 90.3856 66.048C90.2082 66.3187 89.9796 66.5427 89.6996 66.72C89.4289 66.888 89.1209 67.0093 88.7756 67.084C88.4302 67.1587 88.0896 67.196 87.7536 67.196C86.9042 67.196 86.2136 66.9953 85.6816 66.594C85.1589 66.1927 84.8602 65.5487 84.7856 64.662H85.6676C85.7049 65.2593 85.9196 65.712 86.3116 66.02C86.7129 66.3187 87.2076 66.468 87.7956 66.468C88.0102 66.468 88.2296 66.4447 88.4536 66.398C88.6869 66.3513 88.9016 66.272 89.0976 66.16C89.2936 66.048 89.4522 65.908 89.5736 65.74C89.7042 65.5627 89.7696 65.348 89.7696 65.096C89.7696 64.8813 89.7229 64.704 89.6296 64.564C89.5456 64.4147 89.4289 64.2933 89.2796 64.2C89.1302 64.0973 88.9576 64.0133 88.7616 63.948C88.5749 63.8827 88.3836 63.8267 88.1876 63.78L87.0536 63.528C86.7642 63.4533 86.4982 63.3693 86.2556 63.276C86.0129 63.1733 85.7982 63.052 85.6116 62.912C85.4342 62.7627 85.2942 62.5853 85.1916 62.38C85.0889 62.1653 85.0376 61.904 85.0376 61.596C85.0376 61.232 85.1169 60.9193 85.2756 60.658C85.4436 60.3967 85.6582 60.1867 85.9196 60.028C86.1809 59.8693 86.4702 59.7527 86.7876 59.678C87.1142 59.6033 87.4362 59.566 87.7536 59.566C88.1176 59.566 88.4536 59.6127 88.7616 59.706C89.0789 59.7993 89.3542 59.944 89.5876 60.14C89.8302 60.336 90.0216 60.5787 90.1616 60.868C90.3016 61.1573 90.3809 61.498 90.3996 61.89H89.5176ZM91.8478 61.988C91.8758 61.568 91.9645 61.204 92.1138 60.896C92.2631 60.588 92.4638 60.336 92.7158 60.14C92.9771 59.944 93.2805 59.7993 93.6258 59.706C93.9711 59.6127 94.3538 59.566 94.7738 59.566C95.0911 59.566 95.4085 59.5987 95.7258 59.664C96.0431 59.72 96.3278 59.832 96.5798 60C96.8318 60.168 97.0371 60.406 97.1958 60.714C97.3545 61.0127 97.4338 61.4047 97.4338 61.89V65.726C97.4338 66.0807 97.6065 66.258 97.9518 66.258C98.0545 66.258 98.1478 66.2393 98.2318 66.202V66.944C98.1291 66.9627 98.0358 66.9767 97.9518 66.986C97.8771 66.9953 97.7791 67 97.6578 67C97.4338 67 97.2518 66.972 97.1118 66.916C96.9811 66.8507 96.8785 66.762 96.8038 66.65C96.7291 66.538 96.6778 66.4073 96.6498 66.258C96.6311 66.0993 96.6218 65.9267 96.6218 65.74H96.5938C96.4351 65.9733 96.2718 66.1833 96.1038 66.37C95.9451 66.5473 95.7631 66.6967 95.5578 66.818C95.3618 66.9393 95.1331 67.0327 94.8718 67.098C94.6198 67.1633 94.3165 67.196 93.9618 67.196C93.6258 67.196 93.3085 67.154 93.0098 67.07C92.7205 66.9953 92.4638 66.874 92.2398 66.706C92.0251 66.5287 91.8525 66.3093 91.7218 66.048C91.6005 65.7773 91.5398 65.46 91.5398 65.096C91.5398 64.592 91.6518 64.2 91.8758 63.92C92.0998 63.6307 92.3938 63.4113 92.7578 63.262C93.1311 63.1127 93.5465 63.01 94.0038 62.954C94.4705 62.8887 94.9418 62.828 95.4178 62.772C95.6045 62.7533 95.7678 62.73 95.9078 62.702C96.0478 62.674 96.1645 62.6273 96.2578 62.562C96.3511 62.4873 96.4211 62.3893 96.4678 62.268C96.5238 62.1467 96.5518 61.988 96.5518 61.792C96.5518 61.4933 96.5005 61.2507 96.3978 61.064C96.3045 60.868 96.1691 60.714 95.9918 60.602C95.8238 60.49 95.6231 60.4153 95.3898 60.378C95.1658 60.3313 94.9231 60.308 94.6618 60.308C94.1018 60.308 93.6445 60.4433 93.2898 60.714C92.9351 60.9753 92.7485 61.4 92.7298 61.988H91.8478ZM96.5518 63.052H96.5238C96.4678 63.1547 96.3605 63.2293 96.2018 63.276C96.0431 63.3227 95.9031 63.3553 95.7818 63.374C95.4085 63.4393 95.0211 63.5 94.6198 63.556C94.2278 63.6027 93.8685 63.6773 93.5418 63.78C93.2151 63.8827 92.9445 64.032 92.7298 64.228C92.5245 64.4147 92.4218 64.6853 92.4218 65.04C92.4218 65.264 92.4638 65.4647 92.5478 65.642C92.6411 65.81 92.7625 65.9593 92.9118 66.09C93.0611 66.2113 93.2338 66.3047 93.4298 66.37C93.6258 66.4353 93.8265 66.468 94.0318 66.468C94.3678 66.468 94.6898 66.4167 94.9978 66.314C95.3058 66.2113 95.5718 66.062 95.7958 65.866C96.0291 65.67 96.2111 65.432 96.3418 65.152C96.4818 64.872 96.5518 64.5547 96.5518 64.2V63.052ZM103.518 61.89C103.508 61.6193 103.452 61.386 103.35 61.19C103.247 60.9847 103.107 60.8167 102.93 60.686C102.762 60.5553 102.566 60.462 102.342 60.406C102.118 60.3407 101.88 60.308 101.628 60.308C101.432 60.308 101.231 60.3313 101.026 60.378C100.83 60.4153 100.648 60.4853 100.48 60.588C100.312 60.6813 100.176 60.8073 100.074 60.966C99.9709 61.1247 99.9196 61.3207 99.9196 61.554C99.9196 61.75 99.9662 61.918 100.06 62.058C100.162 62.1887 100.288 62.3007 100.438 62.394C100.587 62.4873 100.75 62.5667 100.928 62.632C101.105 62.688 101.268 62.7347 101.418 62.772L102.594 63.038C102.846 63.0753 103.093 63.1453 103.336 63.248C103.588 63.3413 103.807 63.4673 103.994 63.626C104.19 63.7847 104.348 63.9807 104.47 64.214C104.591 64.4473 104.652 64.7227 104.652 65.04C104.652 65.432 104.563 65.768 104.386 66.048C104.208 66.3187 103.98 66.5427 103.7 66.72C103.429 66.888 103.121 67.0093 102.776 67.084C102.43 67.1587 102.09 67.196 101.754 67.196C100.904 67.196 100.214 66.9953 99.6816 66.594C99.1589 66.1927 98.8602 65.5487 98.7856 64.662H99.6676C99.7049 65.2593 99.9196 65.712 100.312 66.02C100.713 66.3187 101.208 66.468 101.796 66.468C102.01 66.468 102.23 66.4447 102.454 66.398C102.687 66.3513 102.902 66.272 103.098 66.16C103.294 66.048 103.452 65.908 103.574 65.74C103.704 65.5627 103.77 65.348 103.77 65.096C103.77 64.8813 103.723 64.704 103.63 64.564C103.546 64.4147 103.429 64.2933 103.28 64.2C103.13 64.0973 102.958 64.0133 102.762 63.948C102.575 63.8827 102.384 63.8267 102.188 63.78L101.054 63.528C100.764 63.4533 100.498 63.3693 100.256 63.276C100.013 63.1733 99.7982 63.052 99.6116 62.912C99.4342 62.7627 99.2942 62.5853 99.1916 62.38C99.0889 62.1653 99.0376 61.904 99.0376 61.596C99.0376 61.232 99.1169 60.9193 99.2756 60.658C99.4436 60.3967 99.6582 60.1867 99.9196 60.028C100.181 59.8693 100.47 59.7527 100.788 59.678C101.114 59.6033 101.436 59.566 101.754 59.566C102.118 59.566 102.454 59.6127 102.762 59.706C103.079 59.7993 103.354 59.944 103.588 60.14C103.83 60.336 104.022 60.5787 104.162 60.868C104.302 61.1573 104.381 61.498 104.4 61.89H103.518ZM109.828 59.776H110.64V61.47H110.668C110.892 60.882 111.238 60.4293 111.704 60.112C112.18 59.7947 112.745 59.65 113.398 59.678V60.56C112.997 60.5413 112.633 60.5973 112.306 60.728C111.98 60.8493 111.695 61.0267 111.452 61.26C111.219 61.4933 111.037 61.7733 110.906 62.1C110.776 62.4173 110.71 62.7673 110.71 63.15V67H109.828V59.776ZM119.192 62.884C119.183 62.548 119.122 62.226 119.01 61.918C118.908 61.61 118.758 61.3393 118.562 61.106C118.366 60.8633 118.128 60.672 117.848 60.532C117.568 60.3827 117.251 60.308 116.896 60.308C116.532 60.308 116.21 60.3827 115.93 60.532C115.65 60.672 115.412 60.8633 115.216 61.106C115.02 61.3393 114.862 61.6147 114.74 61.932C114.628 62.24 114.554 62.5573 114.516 62.884H119.192ZM114.516 63.626C114.516 63.9433 114.558 64.2747 114.642 64.62C114.736 64.956 114.88 65.2593 115.076 65.53C115.272 65.8007 115.52 66.0247 115.818 66.202C116.117 66.3793 116.476 66.468 116.896 66.468C117.54 66.468 118.044 66.3 118.408 65.964C118.772 65.628 119.024 65.18 119.164 64.62H120.046C119.86 65.4413 119.514 66.076 119.01 66.524C118.516 66.972 117.811 67.196 116.896 67.196C116.327 67.196 115.832 67.098 115.412 66.902C115.002 66.6967 114.666 66.4213 114.404 66.076C114.143 65.7213 113.947 65.3153 113.816 64.858C113.695 64.3913 113.634 63.9013 113.634 63.388C113.634 62.912 113.695 62.4453 113.816 61.988C113.947 61.5307 114.143 61.1247 114.404 60.77C114.666 60.406 115.002 60.1167 115.412 59.902C115.832 59.678 116.327 59.566 116.896 59.566C117.475 59.566 117.97 59.6827 118.38 59.916C118.791 60.1493 119.122 60.4573 119.374 60.84C119.636 61.2133 119.822 61.6473 119.934 62.142C120.046 62.6273 120.093 63.122 120.074 63.626H114.516ZM126.354 62.044C126.233 61.5027 126.009 61.078 125.682 60.77C125.355 60.462 124.898 60.308 124.31 60.308C123.89 60.308 123.521 60.3967 123.204 60.574C122.887 60.7513 122.621 60.9847 122.406 61.274C122.201 61.5633 122.042 61.8947 121.93 62.268C121.827 62.632 121.776 63.0053 121.776 63.388C121.776 63.7707 121.827 64.1487 121.93 64.522C122.042 64.886 122.201 65.2127 122.406 65.502C122.621 65.7913 122.887 66.0247 123.204 66.202C123.521 66.3793 123.89 66.468 124.31 66.468C124.581 66.468 124.837 66.4167 125.08 66.314C125.323 66.2113 125.537 66.0713 125.724 65.894C125.911 65.7073 126.065 65.488 126.186 65.236C126.307 64.984 126.382 64.7087 126.41 64.41H127.292C127.171 65.2873 126.849 65.9733 126.326 66.468C125.803 66.9533 125.131 67.196 124.31 67.196C123.759 67.196 123.269 67.098 122.84 66.902C122.42 66.6967 122.065 66.4213 121.776 66.076C121.487 65.7307 121.267 65.3293 121.118 64.872C120.969 64.4053 120.894 63.9107 120.894 63.388C120.894 62.8653 120.969 62.3753 121.118 61.918C121.267 61.4513 121.487 61.0453 121.776 60.7C122.065 60.3547 122.42 60.0793 122.84 59.874C123.269 59.6687 123.759 59.566 124.31 59.566C125.085 59.566 125.738 59.7713 126.27 60.182C126.811 60.5927 127.133 61.2133 127.236 62.044H126.354ZM133.712 62.884C133.702 62.548 133.642 62.226 133.53 61.918C133.427 61.61 133.278 61.3393 133.082 61.106C132.886 60.8633 132.648 60.672 132.368 60.532C132.088 60.3827 131.77 60.308 131.416 60.308C131.052 60.308 130.73 60.3827 130.45 60.532C130.17 60.672 129.932 60.8633 129.736 61.106C129.54 61.3393 129.381 61.6147 129.26 61.932C129.148 62.24 129.073 62.5573 129.036 62.884H133.712ZM129.036 63.626C129.036 63.9433 129.078 64.2747 129.162 64.62C129.255 64.956 129.4 65.2593 129.596 65.53C129.792 65.8007 130.039 66.0247 130.338 66.202C130.636 66.3793 130.996 66.468 131.416 66.468C132.06 66.468 132.564 66.3 132.928 65.964C133.292 65.628 133.544 65.18 133.684 64.62H134.566C134.379 65.4413 134.034 66.076 133.53 66.524C133.035 66.972 132.33 67.196 131.416 67.196C130.846 67.196 130.352 67.098 129.932 66.902C129.521 66.6967 129.185 66.4213 128.924 66.076C128.662 65.7213 128.466 65.3153 128.336 64.858C128.214 64.3913 128.154 63.9013 128.154 63.388C128.154 62.912 128.214 62.4453 128.336 61.988C128.466 61.5307 128.662 61.1247 128.924 60.77C129.185 60.406 129.521 60.1167 129.932 59.902C130.352 59.678 130.846 59.566 131.416 59.566C131.994 59.566 132.489 59.6827 132.9 59.916C133.31 60.1493 133.642 60.4573 133.894 60.84C134.155 61.2133 134.342 61.6473 134.454 62.142C134.566 62.6273 134.612 63.122 134.594 63.626H129.036ZM137.178 59.776H138.648V60.518H137.178V65.39C137.178 65.6793 137.215 65.908 137.29 66.076C137.374 66.2347 137.574 66.3233 137.892 66.342C138.144 66.342 138.396 66.328 138.648 66.3V67.042C138.517 67.042 138.386 67.0467 138.256 67.056C138.125 67.0653 137.994 67.07 137.864 67.07C137.276 67.07 136.865 66.958 136.632 66.734C136.398 66.5007 136.286 66.076 136.296 65.46V60.518H135.036V59.776H136.296V57.606H137.178V59.776ZM139.836 61.988C139.864 61.568 139.953 61.204 140.102 60.896C140.251 60.588 140.452 60.336 140.704 60.14C140.965 59.944 141.269 59.7993 141.614 59.706C141.959 59.6127 142.342 59.566 142.762 59.566C143.079 59.566 143.397 59.5987 143.714 59.664C144.031 59.72 144.316 59.832 144.568 60C144.82 60.168 145.025 60.406 145.184 60.714C145.343 61.0127 145.422 61.4047 145.422 61.89V65.726C145.422 66.0807 145.595 66.258 145.94 66.258C146.043 66.258 146.136 66.2393 146.22 66.202V66.944C146.117 66.9627 146.024 66.9767 145.94 66.986C145.865 66.9953 145.767 67 145.646 67C145.422 67 145.24 66.972 145.1 66.916C144.969 66.8507 144.867 66.762 144.792 66.65C144.717 66.538 144.666 66.4073 144.638 66.258C144.619 66.0993 144.61 65.9267 144.61 65.74H144.582C144.423 65.9733 144.26 66.1833 144.092 66.37C143.933 66.5473 143.751 66.6967 143.546 66.818C143.35 66.9393 143.121 67.0327 142.86 67.098C142.608 67.1633 142.305 67.196 141.95 67.196C141.614 67.196 141.297 67.154 140.998 67.07C140.709 66.9953 140.452 66.874 140.228 66.706C140.013 66.5287 139.841 66.3093 139.71 66.048C139.589 65.7773 139.528 65.46 139.528 65.096C139.528 64.592 139.64 64.2 139.864 63.92C140.088 63.6307 140.382 63.4113 140.746 63.262C141.119 63.1127 141.535 63.01 141.992 62.954C142.459 62.8887 142.93 62.828 143.406 62.772C143.593 62.7533 143.756 62.73 143.896 62.702C144.036 62.674 144.153 62.6273 144.246 62.562C144.339 62.4873 144.409 62.3893 144.456 62.268C144.512 62.1467 144.54 61.988 144.54 61.792C144.54 61.4933 144.489 61.2507 144.386 61.064C144.293 60.868 144.157 60.714 143.98 60.602C143.812 60.49 143.611 60.4153 143.378 60.378C143.154 60.3313 142.911 60.308 142.65 60.308C142.09 60.308 141.633 60.4433 141.278 60.714C140.923 60.9753 140.737 61.4 140.718 61.988H139.836ZM144.54 63.052H144.512C144.456 63.1547 144.349 63.2293 144.19 63.276C144.031 63.3227 143.891 63.3553 143.77 63.374C143.397 63.4393 143.009 63.5 142.608 63.556C142.216 63.6027 141.857 63.6773 141.53 63.78C141.203 63.8827 140.933 64.032 140.718 64.228C140.513 64.4147 140.41 64.6853 140.41 65.04C140.41 65.264 140.452 65.4647 140.536 65.642C140.629 65.81 140.751 65.9593 140.9 66.09C141.049 66.2113 141.222 66.3047 141.418 66.37C141.614 66.4353 141.815 66.468 142.02 66.468C142.356 66.468 142.678 66.4167 142.986 66.314C143.294 66.2113 143.56 66.062 143.784 65.866C144.017 65.67 144.199 65.432 144.33 65.152C144.47 64.872 144.54 64.5547 144.54 64.2V63.052ZM151.506 61.89C151.497 61.6193 151.441 61.386 151.338 61.19C151.235 60.9847 151.095 60.8167 150.918 60.686C150.75 60.5553 150.554 60.462 150.33 60.406C150.106 60.3407 149.868 60.308 149.616 60.308C149.42 60.308 149.219 60.3313 149.014 60.378C148.818 60.4153 148.636 60.4853 148.468 60.588C148.3 60.6813 148.165 60.8073 148.062 60.966C147.959 61.1247 147.908 61.3207 147.908 61.554C147.908 61.75 147.955 61.918 148.048 62.058C148.151 62.1887 148.277 62.3007 148.426 62.394C148.575 62.4873 148.739 62.5667 148.916 62.632C149.093 62.688 149.257 62.7347 149.406 62.772L150.582 63.038C150.834 63.0753 151.081 63.1453 151.324 63.248C151.576 63.3413 151.795 63.4673 151.982 63.626C152.178 63.7847 152.337 63.9807 152.458 64.214C152.579 64.4473 152.64 64.7227 152.64 65.04C152.64 65.432 152.551 65.768 152.374 66.048C152.197 66.3187 151.968 66.5427 151.688 66.72C151.417 66.888 151.109 67.0093 150.764 67.084C150.419 67.1587 150.078 67.196 149.742 67.196C148.893 67.196 148.202 66.9953 147.67 66.594C147.147 66.1927 146.849 65.5487 146.774 64.662H147.656C147.693 65.2593 147.908 65.712 148.3 66.02C148.701 66.3187 149.196 66.468 149.784 66.468C149.999 66.468 150.218 66.4447 150.442 66.398C150.675 66.3513 150.89 66.272 151.086 66.16C151.282 66.048 151.441 65.908 151.562 65.74C151.693 65.5627 151.758 65.348 151.758 65.096C151.758 64.8813 151.711 64.704 151.618 64.564C151.534 64.4147 151.417 64.2933 151.268 64.2C151.119 64.0973 150.946 64.0133 150.75 63.948C150.563 63.8827 150.372 63.8267 150.176 63.78L149.042 63.528C148.753 63.4533 148.487 63.3693 148.244 63.276C148.001 63.1733 147.787 63.052 147.6 62.912C147.423 62.7627 147.283 62.5853 147.18 62.38C147.077 62.1653 147.026 61.904 147.026 61.596C147.026 61.232 147.105 60.9193 147.264 60.658C147.432 60.3967 147.647 60.1867 147.908 60.028C148.169 59.8693 148.459 59.7527 148.776 59.678C149.103 59.6033 149.425 59.566 149.742 59.566C150.106 59.566 150.442 59.6127 150.75 59.706C151.067 59.7993 151.343 59.944 151.576 60.14C151.819 60.336 152.01 60.5787 152.15 60.868C152.29 61.1573 152.369 61.498 152.388 61.89H151.506Z" fill="#010101"/>
</svg>
