<svg width="215" height="75" viewBox="0 0 215 75" fill="none" xmlns="http://www.w3.org/2000/svg">
<path fill-rule="evenodd" clip-rule="evenodd" d="M173 8.84009C173 4.42181 169.418 0.840088 165 0.840088H8C3.58172 0.840088 0 4.42181 0 8.84009V29.8401C0 34.2584 3.58172 37.8401 8 37.8401H38C42.4183 37.8401 46 41.4218 46 45.8401V66.8401C46 71.2584 49.5817 74.8401 54 74.8401H207C211.418 74.8401 215 71.2584 215 66.8401V35.8401C215 31.4218 211.418 27.8401 207 27.8401H181C176.582 27.8401 173 24.2584 173 19.8401V8.84009Z" fill="white"/>
<path d="M11.824 10.7041H18.928C20.24 10.7041 21.376 10.9281 22.336 11.3761C23.296 11.8241 24.08 12.4401 24.688 13.2241C25.296 13.9921 25.744 14.8961 26.032 15.9361C26.336 16.9761 26.488 18.0881 26.488 19.2721C26.488 20.4561 26.336 21.5681 26.032 22.6081C25.744 23.6481 25.296 24.5601 24.688 25.3441C24.08 26.1121 23.296 26.7201 22.336 27.1681C21.376 27.6161 20.24 27.8401 18.928 27.8401H11.824V10.7041ZM14.824 25.3921H17.776C18.944 25.3921 19.896 25.2401 20.632 24.9361C21.384 24.6161 21.968 24.1841 22.384 23.6401C22.816 23.0801 23.104 22.4321 23.248 21.6961C23.408 20.9441 23.488 20.1361 23.488 19.2721C23.488 18.4081 23.408 17.6081 23.248 16.8721C23.104 16.1201 22.816 15.4721 22.384 14.9281C21.968 14.3681 21.384 13.9361 20.632 13.6321C19.896 13.3121 18.944 13.1521 17.776 13.1521H14.824V25.3921ZM29.1443 10.7041H41.4803V13.2961H32.1443V17.7841H40.7843V20.2321H32.1443V25.2481H41.6483V27.8401H29.1443V10.7041ZM55.8295 16.1521C55.7015 15.6561 55.5255 15.2001 55.3015 14.7841C55.0775 14.3681 54.7895 14.0081 54.4375 13.7041C54.0855 13.4001 53.6695 13.1681 53.1895 13.0081C52.7255 12.8321 52.1815 12.7441 51.5575 12.7441C50.6455 12.7441 49.8535 12.9281 49.1815 13.2961C48.5255 13.6641 47.9895 14.1601 47.5735 14.7841C47.1575 15.3921 46.8455 16.0881 46.6375 16.8721C46.4455 17.6561 46.3495 18.4561 46.3495 19.2721C46.3495 20.0881 46.4455 20.8881 46.6375 21.6721C46.8455 22.4561 47.1575 23.1601 47.5735 23.7841C47.9895 24.3921 48.5255 24.8801 49.1815 25.2481C49.8535 25.6161 50.6455 25.8001 51.5575 25.8001C52.2295 25.8001 52.8215 25.6881 53.3335 25.4641C53.8455 25.2241 54.2855 24.9041 54.6535 24.5041C55.0215 24.0881 55.3095 23.6081 55.5175 23.0641C55.7255 22.5201 55.8615 21.9361 55.9255 21.3121H58.8535C58.7895 22.3361 58.5655 23.2721 58.1815 24.1201C57.8135 24.9681 57.3095 25.7041 56.6695 26.3281C56.0295 26.9361 55.2775 27.4081 54.4135 27.7441C53.5495 28.0801 52.5975 28.2481 51.5575 28.2481C50.2775 28.2481 49.1255 28.0161 48.1015 27.5521C47.0935 27.0721 46.2375 26.4241 45.5335 25.6081C44.8295 24.7921 44.2855 23.8401 43.9015 22.7521C43.5335 21.6641 43.3495 20.5041 43.3495 19.2721C43.3495 18.0561 43.5335 16.9041 43.9015 15.8161C44.2855 14.7281 44.8295 13.7761 45.5335 12.9601C46.2375 12.1441 47.0935 11.4961 48.1015 11.0161C49.1255 10.5361 50.2775 10.2961 51.5575 10.2961C52.5175 10.2961 53.4215 10.4321 54.2695 10.7041C55.1175 10.9601 55.8615 11.3441 56.5015 11.8561C57.1575 12.3521 57.6855 12.9601 58.0855 13.6801C58.4855 14.4001 58.7335 15.2241 58.8295 16.1521H55.8295ZM68.8778 12.7441C67.9658 12.7441 67.1738 12.9281 66.5018 13.2961C65.8458 13.6641 65.3098 14.1601 64.8938 14.7841C64.4778 15.3921 64.1658 16.0881 63.9578 16.8721C63.7658 17.6561 63.6698 18.4561 63.6698 19.2721C63.6698 20.0881 63.7658 20.8881 63.9578 21.6721C64.1658 22.4561 64.4778 23.1601 64.8938 23.7841C65.3098 24.3921 65.8458 24.8801 66.5018 25.2481C67.1738 25.6161 67.9658 25.8001 68.8778 25.8001C69.7898 25.8001 70.5738 25.6161 71.2298 25.2481C71.9018 24.8801 72.4458 24.3921 72.8618 23.7841C73.2778 23.1601 73.5818 22.4561 73.7738 21.6721C73.9818 20.8881 74.0858 20.0881 74.0858 19.2721C74.0858 18.4561 73.9818 17.6561 73.7738 16.8721C73.5818 16.0881 73.2778 15.3921 72.8618 14.7841C72.4458 14.1601 71.9018 13.6641 71.2298 13.2961C70.5738 12.9281 69.7898 12.7441 68.8778 12.7441ZM68.8778 10.2961C70.1578 10.2961 71.3018 10.5361 72.3098 11.0161C73.3338 11.4961 74.1978 12.1441 74.9018 12.9601C75.6058 13.7761 76.1418 14.7281 76.5098 15.8161C76.8938 16.9041 77.0858 18.0561 77.0858 19.2721C77.0858 20.5041 76.8938 21.6641 76.5098 22.7521C76.1418 23.8401 75.6058 24.7921 74.9018 25.6081C74.1978 26.4241 73.3338 27.0721 72.3098 27.5521C71.3018 28.0161 70.1578 28.2481 68.8778 28.2481C67.5978 28.2481 66.4458 28.0161 65.4218 27.5521C64.4138 27.0721 63.5578 26.4241 62.8538 25.6081C62.1498 24.7921 61.6058 23.8401 61.2218 22.7521C60.8538 21.6641 60.6698 20.5041 60.6698 19.2721C60.6698 18.0561 60.8538 16.9041 61.2218 15.8161C61.6058 14.7281 62.1498 13.7761 62.8538 12.9601C63.5578 12.1441 64.4138 11.4961 65.4218 11.0161C66.4458 10.5361 67.5978 10.2961 68.8778 10.2961ZM79.8162 10.7041H88.0002C89.8882 10.7041 91.3042 11.1121 92.2482 11.9281C93.1922 12.7441 93.6642 13.8801 93.6642 15.3361C93.6642 16.1521 93.5442 16.8321 93.3042 17.3761C93.0642 17.9041 92.7842 18.3361 92.4642 18.6721C92.1442 18.9921 91.8242 19.2241 91.5042 19.3681C91.2002 19.5121 90.9762 19.6081 90.8322 19.6561V19.7041C91.0882 19.7361 91.3602 19.8161 91.6482 19.9441C91.9522 20.0721 92.2322 20.2801 92.4882 20.5681C92.7442 20.8401 92.9522 21.2001 93.1122 21.6481C93.2882 22.0961 93.3762 22.6561 93.3762 23.3281C93.3762 24.3361 93.4482 25.2561 93.5922 26.0881C93.7522 26.9041 93.9922 27.4881 94.3122 27.8401H91.0962C90.8722 27.4721 90.7362 27.0641 90.6882 26.6161C90.6562 26.1681 90.6402 25.7361 90.6402 25.3201C90.6402 24.5361 90.5922 23.8641 90.4962 23.3041C90.4002 22.7281 90.2242 22.2561 89.9682 21.8881C89.7122 21.5041 89.3602 21.2241 88.9122 21.0481C88.4802 20.8721 87.9202 20.7841 87.2322 20.7841H82.8162V27.8401H79.8162V10.7041ZM82.8162 18.5041H87.7362C88.6962 18.5041 89.4242 18.2801 89.9202 17.8321C90.4162 17.3681 90.6642 16.6801 90.6642 15.7681C90.6642 15.2241 90.5842 14.7841 90.4242 14.4481C90.2642 14.0961 90.0402 13.8241 89.7522 13.6321C89.4802 13.4401 89.1602 13.3121 88.7922 13.2481C88.4402 13.1841 88.0722 13.1521 87.6882 13.1521H82.8162V18.5041ZM101.299 10.7041H104.491L111.091 27.8401H107.875L106.267 23.3041H99.4266L97.8186 27.8401H94.7226L101.299 10.7041ZM100.243 21.0241H105.475L102.907 13.6561H102.835L100.243 21.0241ZM112.602 10.7041H115.77L123.594 23.3281H123.642V10.7041H126.498V27.8401H123.33L115.53 15.2401H115.458V27.8401H112.602V10.7041ZM130.043 10.7041H137.147C138.459 10.7041 139.595 10.9281 140.555 11.3761C141.515 11.8241 142.299 12.4401 142.907 13.2241C143.515 13.9921 143.963 14.8961 144.251 15.9361C144.555 16.9761 144.707 18.0881 144.707 19.2721C144.707 20.4561 144.555 21.5681 144.251 22.6081C143.963 23.6481 143.515 24.5601 142.907 25.3441C142.299 26.1121 141.515 26.7201 140.555 27.1681C139.595 27.6161 138.459 27.8401 137.147 27.8401H130.043V10.7041ZM133.043 25.3921H135.995C137.163 25.3921 138.115 25.2401 138.851 24.9361C139.603 24.6161 140.187 24.1841 140.603 23.6401C141.035 23.0801 141.323 22.4321 141.467 21.6961C141.627 20.9441 141.707 20.1361 141.707 19.2721C141.707 18.4081 141.627 17.6081 141.467 16.8721C141.323 16.1201 141.035 15.4721 140.603 14.9281C140.187 14.3681 139.603 13.9361 138.851 13.6321C138.115 13.3121 137.163 13.1521 135.995 13.1521H133.043V25.3921ZM154.659 12.7441C153.747 12.7441 152.955 12.9281 152.283 13.2961C151.627 13.6641 151.091 14.1601 150.675 14.7841C150.259 15.3921 149.947 16.0881 149.739 16.8721C149.547 17.6561 149.451 18.4561 149.451 19.2721C149.451 20.0881 149.547 20.8881 149.739 21.6721C149.947 22.4561 150.259 23.1601 150.675 23.7841C151.091 24.3921 151.627 24.8801 152.283 25.2481C152.955 25.6161 153.747 25.8001 154.659 25.8001C155.571 25.8001 156.355 25.6161 157.011 25.2481C157.683 24.8801 158.227 24.3921 158.643 23.7841C159.059 23.1601 159.363 22.4561 159.555 21.6721C159.763 20.8881 159.867 20.0881 159.867 19.2721C159.867 18.4561 159.763 17.6561 159.555 16.8721C159.363 16.0881 159.059 15.3921 158.643 14.7841C158.227 14.1601 157.683 13.6641 157.011 13.2961C156.355 12.9281 155.571 12.7441 154.659 12.7441ZM154.659 10.2961C155.939 10.2961 157.083 10.5361 158.091 11.0161C159.115 11.4961 159.979 12.1441 160.683 12.9601C161.387 13.7761 161.923 14.7281 162.291 15.8161C162.675 16.9041 162.867 18.0561 162.867 19.2721C162.867 20.5041 162.675 21.6641 162.291 22.7521C161.923 23.8401 161.387 24.7921 160.683 25.6081C159.979 26.4241 159.115 27.0721 158.091 27.5521C157.083 28.0161 155.939 28.2481 154.659 28.2481C153.379 28.2481 152.227 28.0161 151.203 27.5521C150.195 27.0721 149.339 26.4241 148.635 25.6081C147.931 24.7921 147.387 23.8401 147.003 22.7521C146.635 21.6641 146.451 20.5041 146.451 19.2721C146.451 18.0561 146.635 16.9041 147.003 15.8161C147.387 14.7281 147.931 13.7761 148.635 12.9601C149.339 12.1441 150.195 11.4961 151.203 11.0161C152.227 10.5361 153.379 10.2961 154.659 10.2961Z" fill="#010101"/>
<path d="M60.96 44.7441H64.236C64.8987 44.7441 65.4353 44.5761 65.846 44.2401C66.2567 43.9041 66.462 43.3908 66.462 42.7001C66.462 42.0094 66.2567 41.4961 65.846 41.1601C65.4353 40.8241 64.8987 40.6561 64.236 40.6561H60.96V44.7441ZM60.008 39.8441H64.446C64.894 39.8441 65.3 39.9094 65.664 40.0401C66.028 40.1614 66.3407 40.3481 66.602 40.6001C66.8633 40.8428 67.064 41.1414 67.204 41.4961C67.344 41.8508 67.414 42.2521 67.414 42.7001C67.414 43.1481 67.344 43.5494 67.204 43.9041C67.064 44.2588 66.8633 44.5621 66.602 44.8141C66.3407 45.0568 66.028 45.2434 65.664 45.3741C65.3 45.4954 64.894 45.5561 64.446 45.5561H60.96V49.8401H60.008V39.8441ZM68.5744 44.8281C68.6024 44.4081 68.691 44.0441 68.8404 43.7361C68.9897 43.4281 69.1904 43.1761 69.4424 42.9801C69.7037 42.7841 70.007 42.6394 70.3524 42.5461C70.6977 42.4528 71.0804 42.4061 71.5004 42.4061C71.8177 42.4061 72.135 42.4388 72.4524 42.5041C72.7697 42.5601 73.0544 42.6721 73.3064 42.8401C73.5584 43.0081 73.7637 43.2461 73.9224 43.5541C74.081 43.8528 74.1604 44.2448 74.1604 44.7301V48.5661C74.1604 48.9208 74.333 49.0981 74.6784 49.0981C74.781 49.0981 74.8744 49.0794 74.9584 49.0421V49.7841C74.8557 49.8028 74.7624 49.8168 74.6784 49.8261C74.6037 49.8354 74.5057 49.8401 74.3844 49.8401C74.1604 49.8401 73.9784 49.8121 73.8384 49.7561C73.7077 49.6908 73.605 49.6021 73.5304 49.4901C73.4557 49.3781 73.4044 49.2474 73.3764 49.0981C73.3577 48.9394 73.3484 48.7668 73.3484 48.5801H73.3204C73.1617 48.8134 72.9984 49.0234 72.8304 49.2101C72.6717 49.3874 72.4897 49.5368 72.2844 49.6581C72.0884 49.7794 71.8597 49.8728 71.5984 49.9381C71.3464 50.0034 71.043 50.0361 70.6884 50.0361C70.3524 50.0361 70.035 49.9941 69.7364 49.9101C69.447 49.8354 69.1904 49.7141 68.9664 49.5461C68.7517 49.3688 68.579 49.1494 68.4484 48.8881C68.327 48.6174 68.2664 48.3001 68.2664 47.9361C68.2664 47.4321 68.3784 47.0401 68.6024 46.7601C68.8264 46.4708 69.1204 46.2514 69.4844 46.1021C69.8577 45.9528 70.273 45.8501 70.7304 45.7941C71.197 45.7288 71.6684 45.6681 72.1444 45.6121C72.331 45.5934 72.4944 45.5701 72.6344 45.5421C72.7744 45.5141 72.891 45.4674 72.9844 45.4021C73.0777 45.3274 73.1477 45.2294 73.1944 45.1081C73.2504 44.9868 73.2784 44.8281 73.2784 44.6321C73.2784 44.3334 73.227 44.0908 73.1244 43.9041C73.031 43.7081 72.8957 43.5541 72.7184 43.4421C72.5504 43.3301 72.3497 43.2554 72.1164 43.2181C71.8924 43.1714 71.6497 43.1481 71.3884 43.1481C70.8284 43.1481 70.371 43.2834 70.0164 43.5541C69.6617 43.8154 69.475 44.2401 69.4564 44.8281H68.5744ZM73.2784 45.8921H73.2504C73.1944 45.9948 73.087 46.0694 72.9284 46.1161C72.7697 46.1628 72.6297 46.1954 72.5084 46.2141C72.135 46.2794 71.7477 46.3401 71.3464 46.3961C70.9544 46.4428 70.595 46.5174 70.2684 46.6201C69.9417 46.7228 69.671 46.8721 69.4564 47.0681C69.251 47.2548 69.1484 47.5254 69.1484 47.8801C69.1484 48.1041 69.1904 48.3048 69.2744 48.4821C69.3677 48.6501 69.489 48.7994 69.6384 48.9301C69.7877 49.0514 69.9604 49.1448 70.1564 49.2101C70.3524 49.2754 70.553 49.3081 70.7584 49.3081C71.0944 49.3081 71.4164 49.2568 71.7244 49.1541C72.0324 49.0514 72.2984 48.9021 72.5224 48.7061C72.7557 48.5101 72.9377 48.2721 73.0684 47.9921C73.2084 47.7121 73.2784 47.3948 73.2784 47.0401V45.8921ZM75.9181 42.6161H76.7301V44.3101H76.7581C76.9821 43.7221 77.3275 43.2694 77.7941 42.9521C78.2701 42.6348 78.8348 42.4901 79.4881 42.5181V43.4001C79.0868 43.3814 78.7228 43.4374 78.3961 43.5681C78.0695 43.6894 77.7848 43.8668 77.5421 44.1001C77.3088 44.3334 77.1268 44.6134 76.9961 44.9401C76.8655 45.2574 76.8001 45.6074 76.8001 45.9901V49.8401H75.9181V42.6161ZM80.2501 44.8281C80.2781 44.4081 80.3668 44.0441 80.5161 43.7361C80.6655 43.4281 80.8661 43.1761 81.1181 42.9801C81.3795 42.7841 81.6828 42.6394 82.0281 42.5461C82.3735 42.4528 82.7561 42.4061 83.1761 42.4061C83.4935 42.4061 83.8108 42.4388 84.1281 42.5041C84.4455 42.5601 84.7301 42.6721 84.9821 42.8401C85.2341 43.0081 85.4395 43.2461 85.5981 43.5541C85.7568 43.8528 85.8361 44.2448 85.8361 44.7301V48.5661C85.8361 48.9208 86.0088 49.0981 86.3541 49.0981C86.4568 49.0981 86.5501 49.0794 86.6341 49.0421V49.7841C86.5315 49.8028 86.4381 49.8168 86.3541 49.8261C86.2795 49.8354 86.1815 49.8401 86.0601 49.8401C85.8361 49.8401 85.6541 49.8121 85.5141 49.7561C85.3835 49.6908 85.2808 49.6021 85.2061 49.4901C85.1315 49.3781 85.0801 49.2474 85.0521 49.0981C85.0335 48.9394 85.0241 48.7668 85.0241 48.5801H84.9961C84.8375 48.8134 84.6741 49.0234 84.5061 49.2101C84.3475 49.3874 84.1655 49.5368 83.9601 49.6581C83.7641 49.7794 83.5355 49.8728 83.2741 49.9381C83.0221 50.0034 82.7188 50.0361 82.3641 50.0361C82.0281 50.0361 81.7108 49.9941 81.4121 49.9101C81.1228 49.8354 80.8661 49.7141 80.6421 49.5461C80.4275 49.3688 80.2548 49.1494 80.1241 48.8881C80.0028 48.6174 79.9421 48.3001 79.9421 47.9361C79.9421 47.4321 80.0541 47.0401 80.2781 46.7601C80.5021 46.4708 80.7961 46.2514 81.1601 46.1021C81.5335 45.9528 81.9488 45.8501 82.4061 45.7941C82.8728 45.7288 83.3441 45.6681 83.8201 45.6121C84.0068 45.5934 84.1701 45.5701 84.3101 45.5421C84.4501 45.5141 84.5668 45.4674 84.6601 45.4021C84.7535 45.3274 84.8235 45.2294 84.8701 45.1081C84.9261 44.9868 84.9541 44.8281 84.9541 44.6321C84.9541 44.3334 84.9028 44.0908 84.8001 43.9041C84.7068 43.7081 84.5715 43.5541 84.3941 43.4421C84.2261 43.3301 84.0255 43.2554 83.7921 43.2181C83.5681 43.1714 83.3255 43.1481 83.0641 43.1481C82.5041 43.1481 82.0468 43.2834 81.6921 43.5541C81.3375 43.8154 81.1508 44.2401 81.1321 44.8281H80.2501ZM84.9541 45.8921H84.9261C84.8701 45.9948 84.7628 46.0694 84.6041 46.1161C84.4455 46.1628 84.3055 46.1954 84.1841 46.2141C83.8108 46.2794 83.4235 46.3401 83.0221 46.3961C82.6301 46.4428 82.2708 46.5174 81.9441 46.6201C81.6175 46.7228 81.3468 46.8721 81.1321 47.0681C80.9268 47.2548 80.8241 47.5254 80.8241 47.8801C80.8241 48.1041 80.8661 48.3048 80.9501 48.4821C81.0435 48.6501 81.1648 48.7994 81.3141 48.9301C81.4635 49.0514 81.6361 49.1448 81.8321 49.2101C82.0281 49.2754 82.2288 49.3081 82.4341 49.3081C82.7701 49.3081 83.0921 49.2568 83.4001 49.1541C83.7081 49.0514 83.9741 48.9021 84.1981 48.7061C84.4315 48.5101 84.6135 48.2721 84.7441 47.9921C84.8841 47.7121 84.9541 47.3948 84.9541 47.0401V45.8921ZM91.4904 42.6161H92.3024V44.3101H92.3304C92.5544 43.7221 92.8997 43.2694 93.3664 42.9521C93.8424 42.6348 94.4071 42.4901 95.0604 42.5181V43.4001C94.6591 43.3814 94.2951 43.4374 93.9684 43.5681C93.6417 43.6894 93.3571 43.8668 93.1144 44.1001C92.8811 44.3334 92.6991 44.6134 92.5684 44.9401C92.4377 45.2574 92.3724 45.6074 92.3724 45.9901V49.8401H91.4904V42.6161ZM100.854 45.7241C100.845 45.3881 100.784 45.0661 100.672 44.7581C100.57 44.4501 100.42 44.1794 100.224 43.9461C100.028 43.7034 99.7903 43.5121 99.5103 43.3721C99.2303 43.2228 98.913 43.1481 98.5583 43.1481C98.1943 43.1481 97.8723 43.2228 97.5923 43.3721C97.3123 43.5121 97.0743 43.7034 96.8783 43.9461C96.6823 44.1794 96.5236 44.4548 96.4023 44.7721C96.2903 45.0801 96.2156 45.3974 96.1783 45.7241H100.854ZM96.1783 46.4661C96.1783 46.7834 96.2203 47.1148 96.3043 47.4601C96.3976 47.7961 96.5423 48.0994 96.7383 48.3701C96.9343 48.6408 97.1816 48.8648 97.4803 49.0421C97.779 49.2194 98.1383 49.3081 98.5583 49.3081C99.2023 49.3081 99.7063 49.1401 100.07 48.8041C100.434 48.4681 100.686 48.0201 100.826 47.4601H101.708C101.522 48.2814 101.176 48.9161 100.672 49.3641C100.178 49.8121 99.473 50.0361 98.5583 50.0361C97.989 50.0361 97.4943 49.9381 97.0743 49.7421C96.6636 49.5368 96.3276 49.2614 96.0663 48.9161C95.805 48.5614 95.609 48.1554 95.4783 47.6981C95.357 47.2314 95.2963 46.7414 95.2963 46.2281C95.2963 45.7521 95.357 45.2854 95.4783 44.8281C95.609 44.3708 95.805 43.9648 96.0663 43.6101C96.3276 43.2461 96.6636 42.9568 97.0743 42.7421C97.4943 42.5181 97.989 42.4061 98.5583 42.4061C99.137 42.4061 99.6316 42.5228 100.042 42.7561C100.453 42.9894 100.784 43.2974 101.036 43.6801C101.298 44.0534 101.484 44.4874 101.596 44.9821C101.708 45.4674 101.755 45.9621 101.736 46.4661H96.1783ZM106.56 39.8441H107.442V49.8401H106.56V39.8441ZM103.396 43.3581H102.164V42.6161H103.396V41.9581C103.396 41.6501 103.419 41.3654 103.466 41.1041C103.513 40.8428 103.601 40.6188 103.732 40.4321C103.863 40.2454 104.04 40.1008 104.264 39.9981C104.497 39.8954 104.791 39.8441 105.146 39.8441C105.277 39.8441 105.398 39.8488 105.51 39.8581C105.622 39.8674 105.748 39.8814 105.888 39.9001V40.6561C105.767 40.6374 105.655 40.6234 105.552 40.6141C105.449 40.5954 105.347 40.5861 105.244 40.5861C105.001 40.5861 104.815 40.6234 104.684 40.6981C104.553 40.7728 104.455 40.8754 104.39 41.0061C104.334 41.1274 104.301 41.2721 104.292 41.4401C104.283 41.6081 104.278 41.7901 104.278 41.9861V42.6161H105.706V43.3581H104.278V49.8401H103.396V43.3581ZM114.335 45.7241C114.325 45.3881 114.265 45.0661 114.153 44.7581C114.05 44.4501 113.901 44.1794 113.705 43.9461C113.509 43.7034 113.271 43.5121 112.991 43.3721C112.711 43.2228 112.393 43.1481 112.039 43.1481C111.675 43.1481 111.353 43.2228 111.073 43.3721C110.793 43.5121 110.555 43.7034 110.359 43.9461C110.163 44.1794 110.004 44.4548 109.883 44.7721C109.771 45.0801 109.696 45.3974 109.659 45.7241H114.335ZM109.659 46.4661C109.659 46.7834 109.701 47.1148 109.785 47.4601C109.878 47.7961 110.023 48.0994 110.219 48.3701C110.415 48.6408 110.662 48.8648 110.961 49.0421C111.259 49.2194 111.619 49.3081 112.039 49.3081C112.683 49.3081 113.187 49.1401 113.551 48.8041C113.915 48.4681 114.167 48.0201 114.307 47.4601H115.189C115.002 48.2814 114.657 48.9161 114.153 49.3641C113.658 49.8121 112.953 50.0361 112.039 50.0361C111.469 50.0361 110.975 49.9381 110.555 49.7421C110.144 49.5368 109.808 49.2614 109.547 48.9161C109.285 48.5614 109.089 48.1554 108.959 47.6981C108.837 47.2314 108.777 46.7414 108.777 46.2281C108.777 45.7521 108.837 45.2854 108.959 44.8281C109.089 44.3708 109.285 43.9648 109.547 43.6101C109.808 43.2461 110.144 42.9568 110.555 42.7421C110.975 42.5181 111.469 42.4061 112.039 42.4061C112.617 42.4061 113.112 42.5228 113.523 42.7561C113.933 42.9894 114.265 43.2974 114.517 43.6801C114.778 44.0534 114.965 44.4874 115.077 44.9821C115.189 45.4674 115.235 45.9621 115.217 46.4661H109.659ZM116.415 39.8441H117.297V41.2581H116.415V39.8441ZM116.415 42.6161H117.297V50.4981C117.297 50.7688 117.273 51.0254 117.227 51.2681C117.189 51.5108 117.11 51.7208 116.989 51.8981C116.877 52.0848 116.718 52.2294 116.513 52.3321C116.317 52.4441 116.065 52.5001 115.757 52.5001C115.654 52.5001 115.556 52.4954 115.463 52.4861C115.36 52.4768 115.257 52.4721 115.155 52.4721V51.7441C115.229 51.7534 115.309 51.7581 115.393 51.7581C115.477 51.7674 115.551 51.7674 115.617 51.7581C115.962 51.7581 116.181 51.6554 116.275 51.4501C116.368 51.2541 116.415 51.0068 116.415 50.7081V42.6161ZM118.901 44.8281C118.929 44.4081 119.017 44.0441 119.167 43.7361C119.316 43.4281 119.517 43.1761 119.769 42.9801C120.03 42.7841 120.333 42.6394 120.679 42.5461C121.024 42.4528 121.407 42.4061 121.827 42.4061C122.144 42.4061 122.461 42.4388 122.779 42.5041C123.096 42.5601 123.381 42.6721 123.633 42.8401C123.885 43.0081 124.09 43.2461 124.249 43.5541C124.407 43.8528 124.487 44.2448 124.487 44.7301V48.5661C124.487 48.9208 124.659 49.0981 125.005 49.0981C125.107 49.0981 125.201 49.0794 125.285 49.0421V49.7841C125.182 49.8028 125.089 49.8168 125.005 49.8261C124.93 49.8354 124.832 49.8401 124.711 49.8401C124.487 49.8401 124.305 49.8121 124.165 49.7561C124.034 49.6908 123.931 49.6021 123.857 49.4901C123.782 49.3781 123.731 49.2474 123.703 49.0981C123.684 48.9394 123.675 48.7668 123.675 48.5801H123.647C123.488 48.8134 123.325 49.0234 123.157 49.2101C122.998 49.3874 122.816 49.5368 122.611 49.6581C122.415 49.7794 122.186 49.8728 121.925 49.9381C121.673 50.0034 121.369 50.0361 121.015 50.0361C120.679 50.0361 120.361 49.9941 120.063 49.9101C119.773 49.8354 119.517 49.7141 119.293 49.5461C119.078 49.3688 118.905 49.1494 118.775 48.8881C118.653 48.6174 118.593 48.3001 118.593 47.9361C118.593 47.4321 118.705 47.0401 118.929 46.7601C119.153 46.4708 119.447 46.2514 119.811 46.1021C120.184 45.9528 120.599 45.8501 121.057 45.7941C121.523 45.7288 121.995 45.6681 122.471 45.6121C122.657 45.5934 122.821 45.5701 122.961 45.5421C123.101 45.5141 123.217 45.4674 123.311 45.4021C123.404 45.3274 123.474 45.2294 123.521 45.1081C123.577 44.9868 123.605 44.8281 123.605 44.6321C123.605 44.3334 123.553 44.0908 123.451 43.9041C123.357 43.7081 123.222 43.5541 123.045 43.4421C122.877 43.3301 122.676 43.2554 122.443 43.2181C122.219 43.1714 121.976 43.1481 121.715 43.1481C121.155 43.1481 120.697 43.2834 120.343 43.5541C119.988 43.8154 119.801 44.2401 119.783 44.8281H118.901ZM123.605 45.8921H123.577C123.521 45.9948 123.413 46.0694 123.255 46.1161C123.096 46.1628 122.956 46.1954 122.835 46.2141C122.461 46.2794 122.074 46.3401 121.673 46.3961C121.281 46.4428 120.921 46.5174 120.595 46.6201C120.268 46.7228 119.997 46.8721 119.783 47.0681C119.577 47.2548 119.475 47.5254 119.475 47.8801C119.475 48.1041 119.517 48.3048 119.601 48.4821C119.694 48.6501 119.815 48.7994 119.965 48.9301C120.114 49.0514 120.287 49.1448 120.483 49.2101C120.679 49.2754 120.879 49.3081 121.085 49.3081C121.421 49.3081 121.743 49.2568 122.051 49.1541C122.359 49.0514 122.625 48.9021 122.849 48.7061C123.082 48.5101 123.264 48.2721 123.395 47.9921C123.535 47.7121 123.605 47.3948 123.605 47.0401V45.8921ZM126.244 42.6161H127.056V44.3101H127.084C127.308 43.7221 127.654 43.2694 128.12 42.9521C128.596 42.6348 129.161 42.4901 129.814 42.5181V43.4001C129.413 43.3814 129.049 43.4374 128.722 43.5681C128.396 43.6894 128.111 43.8668 127.868 44.1001C127.635 44.3334 127.453 44.6134 127.322 44.9401C127.192 45.2574 127.126 45.6074 127.126 45.9901V49.8401H126.244V42.6161ZM134.557 42.6161H135.369V43.8341H135.411C135.644 43.3861 135.947 43.0361 136.321 42.7841C136.703 42.5321 137.189 42.4061 137.777 42.4061C138.253 42.4061 138.682 42.5228 139.065 42.7561C139.457 42.9894 139.718 43.3441 139.849 43.8201C140.063 43.3441 140.381 42.9894 140.801 42.7561C141.221 42.5228 141.669 42.4061 142.145 42.4061C143.741 42.4061 144.539 43.2508 144.539 44.9401V49.8401H143.657V44.9821C143.657 44.3848 143.531 43.9321 143.279 43.6241C143.027 43.3068 142.583 43.1481 141.949 43.1481C141.566 43.1481 141.249 43.2228 140.997 43.3721C140.745 43.5121 140.544 43.7034 140.395 43.9461C140.245 44.1888 140.138 44.4688 140.073 44.7861C140.017 45.0941 139.989 45.4161 139.989 45.7521V49.8401H139.107V44.9401C139.107 44.6974 139.079 44.4688 139.023 44.2541C138.976 44.0301 138.892 43.8388 138.771 43.6801C138.659 43.5121 138.505 43.3814 138.309 43.2881C138.113 43.1948 137.875 43.1481 137.595 43.1481C137.221 43.1481 136.895 43.2181 136.615 43.3581C136.344 43.4888 136.12 43.6754 135.943 43.9181C135.775 44.1514 135.649 44.4314 135.565 44.7581C135.481 45.0754 135.439 45.4254 135.439 45.8081V49.8401H134.557V42.6161ZM146.233 39.8441H147.115V41.2581H146.233V39.8441ZM146.233 42.6161H147.115V49.8401H146.233V42.6161ZM157.893 45.7241C157.884 45.3881 157.823 45.0661 157.711 44.7581C157.609 44.4501 157.459 44.1794 157.263 43.9461C157.067 43.7034 156.829 43.5121 156.549 43.3721C156.269 43.2228 155.952 43.1481 155.597 43.1481C155.233 43.1481 154.911 43.2228 154.631 43.3721C154.351 43.5121 154.113 43.7034 153.917 43.9461C153.721 44.1794 153.563 44.4548 153.441 44.7721C153.329 45.0801 153.255 45.3974 153.217 45.7241H157.893ZM153.217 46.4661C153.217 46.7834 153.259 47.1148 153.343 47.4601C153.437 47.7961 153.581 48.0994 153.777 48.3701C153.973 48.6408 154.221 48.8648 154.519 49.0421C154.818 49.2194 155.177 49.3081 155.597 49.3081C156.241 49.3081 156.745 49.1401 157.109 48.8041C157.473 48.4681 157.725 48.0201 157.865 47.4601H158.747C158.561 48.2814 158.215 48.9161 157.711 49.3641C157.217 49.8121 156.512 50.0361 155.597 50.0361C155.028 50.0361 154.533 49.9381 154.113 49.7421C153.703 49.5368 153.367 49.2614 153.105 48.9161C152.844 48.5614 152.648 48.1554 152.517 47.6981C152.396 47.2314 152.335 46.7414 152.335 46.2281C152.335 45.7521 152.396 45.2854 152.517 44.8281C152.648 44.3708 152.844 43.9648 153.105 43.6101C153.367 43.2461 153.703 42.9568 154.113 42.7421C154.533 42.5181 155.028 42.4061 155.597 42.4061C156.176 42.4061 156.671 42.5228 157.081 42.7561C157.492 42.9894 157.823 43.2974 158.075 43.6801C158.337 44.0534 158.523 44.4874 158.635 44.9821C158.747 45.4674 158.794 45.9621 158.775 46.4661H153.217ZM164.285 44.7301C164.276 44.4594 164.22 44.2261 164.117 44.0301C164.014 43.8248 163.874 43.6568 163.697 43.5261C163.529 43.3954 163.333 43.3021 163.109 43.2461C162.885 43.1808 162.647 43.1481 162.395 43.1481C162.199 43.1481 161.998 43.1714 161.793 43.2181C161.597 43.2554 161.415 43.3254 161.247 43.4281C161.079 43.5214 160.944 43.6474 160.841 43.8061C160.738 43.9648 160.687 44.1608 160.687 44.3941C160.687 44.5901 160.734 44.7581 160.827 44.8981C160.93 45.0288 161.056 45.1408 161.205 45.2341C161.354 45.3274 161.518 45.4068 161.695 45.4721C161.872 45.5281 162.036 45.5748 162.185 45.6121L163.361 45.8781C163.613 45.9154 163.86 45.9854 164.103 46.0881C164.355 46.1814 164.574 46.3074 164.761 46.4661C164.957 46.6248 165.116 46.8208 165.237 47.0541C165.358 47.2874 165.419 47.5628 165.419 47.8801C165.419 48.2721 165.33 48.6081 165.153 48.8881C164.976 49.1588 164.747 49.3828 164.467 49.5601C164.196 49.7281 163.888 49.8494 163.543 49.9241C163.198 49.9988 162.857 50.0361 162.521 50.0361C161.672 50.0361 160.981 49.8354 160.449 49.4341C159.926 49.0328 159.628 48.3888 159.553 47.5021H160.435C160.472 48.0994 160.687 48.5521 161.079 48.8601C161.48 49.1588 161.975 49.3081 162.563 49.3081C162.778 49.3081 162.997 49.2848 163.221 49.2381C163.454 49.1914 163.669 49.1121 163.865 49.0001C164.061 48.8881 164.22 48.7481 164.341 48.5801C164.472 48.4028 164.537 48.1881 164.537 47.9361C164.537 47.7214 164.49 47.5441 164.397 47.4041C164.313 47.2548 164.196 47.1334 164.047 47.0401C163.898 46.9374 163.725 46.8534 163.529 46.7881C163.342 46.7228 163.151 46.6668 162.955 46.6201L161.821 46.3681C161.532 46.2934 161.266 46.2094 161.023 46.1161C160.78 46.0134 160.566 45.8921 160.379 45.7521C160.202 45.6028 160.062 45.4254 159.959 45.2201C159.856 45.0054 159.805 44.7441 159.805 44.4361C159.805 44.0721 159.884 43.7594 160.043 43.4981C160.211 43.2368 160.426 43.0268 160.687 42.8681C160.948 42.7094 161.238 42.5928 161.555 42.5181C161.882 42.4434 162.204 42.4061 162.521 42.4061C162.885 42.4061 163.221 42.4528 163.529 42.5461C163.846 42.6394 164.122 42.7841 164.355 42.9801C164.598 43.1761 164.789 43.4188 164.929 43.7081C165.069 43.9974 165.148 44.3381 165.167 44.7301H164.285ZM168.099 42.6161H169.569V43.3581H168.099V48.2301C168.099 48.5194 168.137 48.7481 168.211 48.9161C168.295 49.0748 168.496 49.1634 168.813 49.1821C169.065 49.1821 169.317 49.1681 169.569 49.1401V49.8821C169.439 49.8821 169.308 49.8868 169.177 49.8961C169.047 49.9054 168.916 49.9101 168.785 49.9101C168.197 49.9101 167.787 49.7981 167.553 49.5741C167.32 49.3408 167.208 48.9161 167.217 48.3001V43.3581H165.957V42.6161H167.217V40.4461H168.099V42.6161ZM170.856 39.8441H171.738V41.2581H170.856V39.8441ZM170.856 42.6161H171.738V49.8401H170.856V42.6161ZM173.44 39.8441H174.322V49.8401H173.44V39.8441ZM179.062 43.1481C178.642 43.1481 178.273 43.2368 177.956 43.4141C177.639 43.5914 177.373 43.8248 177.158 44.1141C176.953 44.4034 176.794 44.7348 176.682 45.1081C176.579 45.4721 176.528 45.8454 176.528 46.2281C176.528 46.6108 176.579 46.9888 176.682 47.3621C176.794 47.7261 176.953 48.0528 177.158 48.3421C177.373 48.6314 177.639 48.8648 177.956 49.0421C178.273 49.2194 178.642 49.3081 179.062 49.3081C179.482 49.3081 179.851 49.2194 180.168 49.0421C180.485 48.8648 180.747 48.6314 180.952 48.3421C181.167 48.0528 181.325 47.7261 181.428 47.3621C181.54 46.9888 181.596 46.6108 181.596 46.2281C181.596 45.8454 181.54 45.4721 181.428 45.1081C181.325 44.7348 181.167 44.4034 180.952 44.1141C180.747 43.8248 180.485 43.5914 180.168 43.4141C179.851 43.2368 179.482 43.1481 179.062 43.1481ZM179.062 42.4061C179.613 42.4061 180.098 42.5088 180.518 42.7141C180.947 42.9194 181.307 43.1948 181.596 43.5401C181.885 43.8854 182.105 44.2914 182.254 44.7581C182.403 45.2154 182.478 45.7054 182.478 46.2281C182.478 46.7508 182.403 47.2454 182.254 47.7121C182.105 48.1694 181.885 48.5708 181.596 48.9161C181.307 49.2614 180.947 49.5368 180.518 49.7421C180.098 49.9381 179.613 50.0361 179.062 50.0361C178.511 50.0361 178.021 49.9381 177.592 49.7421C177.172 49.5368 176.817 49.2614 176.528 48.9161C176.239 48.5708 176.019 48.1694 175.87 47.7121C175.721 47.2454 175.646 46.7508 175.646 46.2281C175.646 45.7054 175.721 45.2154 175.87 44.7581C176.019 44.2914 176.239 43.8854 176.528 43.5401C176.817 43.1948 177.172 42.9194 177.592 42.7141C178.021 42.5088 178.511 42.4061 179.062 42.4061ZM192.88 45.7241C192.87 45.3881 192.81 45.0661 192.698 44.7581C192.595 44.4501 192.446 44.1794 192.25 43.9461C192.054 43.7034 191.816 43.5121 191.536 43.3721C191.256 43.2228 190.938 43.1481 190.584 43.1481C190.22 43.1481 189.898 43.2228 189.618 43.3721C189.338 43.5121 189.1 43.7034 188.904 43.9461C188.708 44.1794 188.549 44.4548 188.428 44.7721C188.316 45.0801 188.241 45.3974 188.204 45.7241H192.88ZM188.204 46.4661C188.204 46.7834 188.246 47.1148 188.33 47.4601C188.423 47.7961 188.568 48.0994 188.764 48.3701C188.96 48.6408 189.207 48.8648 189.506 49.0421C189.804 49.2194 190.164 49.3081 190.584 49.3081C191.228 49.3081 191.732 49.1401 192.096 48.8041C192.46 48.4681 192.712 48.0201 192.852 47.4601H193.734C193.547 48.2814 193.202 48.9161 192.698 49.3641C192.203 49.8121 191.498 50.0361 190.584 50.0361C190.014 50.0361 189.52 49.9381 189.1 49.7421C188.689 49.5368 188.353 49.2614 188.092 48.9161C187.83 48.5614 187.634 48.1554 187.504 47.6981C187.382 47.2314 187.322 46.7414 187.322 46.2281C187.322 45.7521 187.382 45.2854 187.504 44.8281C187.634 44.3708 187.83 43.9648 188.092 43.6101C188.353 43.2461 188.689 42.9568 189.1 42.7421C189.52 42.5181 190.014 42.4061 190.584 42.4061C191.162 42.4061 191.657 42.5228 192.068 42.7561C192.478 42.9894 192.81 43.2974 193.062 43.6801C193.323 44.0534 193.51 44.4874 193.622 44.9821C193.734 45.4674 193.78 45.9621 193.762 46.4661H188.204ZM194.931 42.6161H195.813V43.8621H195.841C196.009 43.4234 196.308 43.0734 196.737 42.8121C197.167 42.5414 197.638 42.4061 198.151 42.4061C198.655 42.4061 199.075 42.4714 199.411 42.6021C199.757 42.7328 200.032 42.9194 200.237 43.1621C200.443 43.3954 200.587 43.6848 200.671 44.0301C200.755 44.3754 200.797 44.7628 200.797 45.1921V49.8401H199.915V45.3321C199.915 45.0241 199.887 44.7394 199.831 44.4781C199.775 44.2074 199.677 43.9741 199.537 43.7781C199.397 43.5821 199.206 43.4281 198.963 43.3161C198.73 43.2041 198.436 43.1481 198.081 43.1481C197.727 43.1481 197.409 43.2134 197.129 43.3441C196.859 43.4654 196.625 43.6381 196.429 43.8621C196.243 44.0768 196.093 44.3381 195.981 44.6461C195.879 44.9448 195.823 45.2714 195.813 45.6261V49.8401H194.931V42.6161ZM64.936 59.8841C64.8147 59.3428 64.5907 58.9181 64.264 58.6101C63.9373 58.3021 63.48 58.1481 62.892 58.1481C62.472 58.1481 62.1033 58.2368 61.786 58.4141C61.4687 58.5914 61.2027 58.8248 60.988 59.1141C60.7827 59.4034 60.624 59.7348 60.512 60.1081C60.4093 60.4721 60.358 60.8454 60.358 61.2281C60.358 61.6108 60.4093 61.9888 60.512 62.3621C60.624 62.7261 60.7827 63.0528 60.988 63.3421C61.2027 63.6314 61.4687 63.8648 61.786 64.0421C62.1033 64.2194 62.472 64.3081 62.892 64.3081C63.1627 64.3081 63.4193 64.2568 63.662 64.1541C63.9047 64.0514 64.1193 63.9114 64.306 63.7341C64.4927 63.5474 64.6467 63.3281 64.768 63.0761C64.8893 62.8241 64.964 62.5488 64.992 62.2501H65.874C65.7527 63.1274 65.4307 63.8134 64.908 64.3081C64.3853 64.7934 63.7133 65.0361 62.892 65.0361C62.3413 65.0361 61.8513 64.9381 61.422 64.7421C61.002 64.5368 60.6473 64.2614 60.358 63.9161C60.0687 63.5708 59.8493 63.1694 59.7 62.7121C59.5507 62.2454 59.476 61.7508 59.476 61.2281C59.476 60.7054 59.5507 60.2154 59.7 59.7581C59.8493 59.2914 60.0687 58.8854 60.358 58.5401C60.6473 58.1948 61.002 57.9194 61.422 57.7141C61.8513 57.5088 62.3413 57.4061 62.892 57.4061C63.6667 57.4061 64.32 57.6114 64.852 58.0221C65.3933 58.4328 65.7153 59.0534 65.818 59.8841H64.936ZM67.0158 59.8281C67.0438 59.4081 67.1324 59.0441 67.2818 58.7361C67.4311 58.4281 67.6318 58.1761 67.8838 57.9801C68.1451 57.7841 68.4484 57.6394 68.7938 57.5461C69.1391 57.4528 69.5218 57.4061 69.9418 57.4061C70.2591 57.4061 70.5764 57.4388 70.8938 57.5041C71.2111 57.5601 71.4958 57.6721 71.7478 57.8401C71.9998 58.0081 72.2051 58.2461 72.3638 58.5541C72.5224 58.8528 72.6018 59.2448 72.6018 59.7301V63.5661C72.6018 63.9208 72.7744 64.0981 73.1198 64.0981C73.2224 64.0981 73.3158 64.0794 73.3998 64.0421V64.7841C73.2971 64.8028 73.2038 64.8168 73.1198 64.8261C73.0451 64.8354 72.9471 64.8401 72.8258 64.8401C72.6018 64.8401 72.4198 64.8121 72.2798 64.7561C72.1491 64.6908 72.0464 64.6021 71.9718 64.4901C71.8971 64.3781 71.8458 64.2474 71.8178 64.0981C71.7991 63.9394 71.7898 63.7668 71.7898 63.5801H71.7618C71.6031 63.8134 71.4398 64.0234 71.2718 64.2101C71.1131 64.3874 70.9311 64.5368 70.7258 64.6581C70.5298 64.7794 70.3011 64.8728 70.0398 64.9381C69.7878 65.0034 69.4844 65.0361 69.1298 65.0361C68.7938 65.0361 68.4764 64.9941 68.1778 64.9101C67.8884 64.8354 67.6318 64.7141 67.4078 64.5461C67.1931 64.3688 67.0204 64.1494 66.8898 63.8881C66.7684 63.6174 66.7078 63.3001 66.7078 62.9361C66.7078 62.4321 66.8198 62.0401 67.0438 61.7601C67.2678 61.4708 67.5618 61.2514 67.9258 61.1021C68.2991 60.9528 68.7144 60.8501 69.1718 60.7941C69.6384 60.7288 70.1098 60.6681 70.5858 60.6121C70.7724 60.5934 70.9358 60.5701 71.0758 60.5421C71.2158 60.5141 71.3324 60.4674 71.4258 60.4021C71.5191 60.3274 71.5891 60.2294 71.6358 60.1081C71.6918 59.9868 71.7198 59.8281 71.7198 59.6321C71.7198 59.3334 71.6684 59.0908 71.5658 58.9041C71.4724 58.7081 71.3371 58.5541 71.1598 58.4421C70.9918 58.3301 70.7911 58.2554 70.5578 58.2181C70.3338 58.1714 70.0911 58.1481 69.8298 58.1481C69.2698 58.1481 68.8124 58.2834 68.4578 58.5541C68.1031 58.8154 67.9164 59.2401 67.8978 59.8281H67.0158ZM71.7198 60.8921H71.6918C71.6358 60.9948 71.5284 61.0694 71.3698 61.1161C71.2111 61.1628 71.0711 61.1954 70.9498 61.2141C70.5764 61.2794 70.1891 61.3401 69.7878 61.3961C69.3958 61.4428 69.0364 61.5174 68.7098 61.6201C68.3831 61.7228 68.1124 61.8721 67.8978 62.0681C67.6924 62.2548 67.5898 62.5254 67.5898 62.8801C67.5898 63.1041 67.6318 63.3048 67.7158 63.4821C67.8091 63.6501 67.9304 63.7994 68.0798 63.9301C68.2291 64.0514 68.4018 64.1448 68.5978 64.2101C68.7938 64.2754 68.9944 64.3081 69.1998 64.3081C69.5358 64.3081 69.8578 64.2568 70.1658 64.1541C70.4738 64.0514 70.7398 63.9021 70.9638 63.7061C71.1971 63.5101 71.3791 63.2721 71.5098 62.9921C71.6498 62.7121 71.7198 62.3948 71.7198 62.0401V60.8921ZM80.7155 64.8401H79.9035V63.4681H79.8755C79.7822 63.7014 79.6422 63.9161 79.4555 64.1121C79.2782 64.3081 79.0729 64.4761 78.8395 64.6161C78.6062 64.7468 78.3542 64.8494 78.0835 64.9241C77.8222 64.9988 77.5609 65.0361 77.2995 65.0361C76.7489 65.0361 76.2682 64.9381 75.8575 64.7421C75.4562 64.5368 75.1202 64.2614 74.8495 63.9161C74.5789 63.5614 74.3782 63.1554 74.2475 62.6981C74.1169 62.2314 74.0515 61.7414 74.0515 61.2281C74.0515 60.7148 74.1169 60.2294 74.2475 59.7721C74.3782 59.3054 74.5789 58.8994 74.8495 58.5541C75.1202 58.1994 75.4562 57.9194 75.8575 57.7141C76.2682 57.5088 76.7489 57.4061 77.2995 57.4061C77.5702 57.4061 77.8315 57.4388 78.0835 57.5041C78.3449 57.5694 78.5875 57.6721 78.8115 57.8121C79.0355 57.9428 79.2315 58.1061 79.3995 58.3021C79.5769 58.4981 79.7122 58.7268 79.8055 58.9881H79.8335V54.8441H80.7155V64.8401ZM74.9335 61.2281C74.9335 61.6014 74.9755 61.9748 75.0595 62.3481C75.1529 62.7121 75.2929 63.0388 75.4795 63.3281C75.6755 63.6174 75.9229 63.8554 76.2215 64.0421C76.5202 64.2194 76.8795 64.3081 77.2995 64.3081C77.7662 64.3081 78.1582 64.2194 78.4755 64.0421C78.8022 63.8554 79.0635 63.6174 79.2595 63.3281C79.4649 63.0388 79.6095 62.7121 79.6935 62.3481C79.7869 61.9748 79.8335 61.6014 79.8335 61.2281C79.8335 60.8548 79.7869 60.4861 79.6935 60.1221C79.6095 59.7488 79.4649 59.4174 79.2595 59.1281C79.0635 58.8388 78.8022 58.6054 78.4755 58.4281C78.1582 58.2414 77.7662 58.1481 77.2995 58.1481C76.8795 58.1481 76.5202 58.2414 76.2215 58.4281C75.9229 58.6054 75.6755 58.8388 75.4795 59.1281C75.2929 59.4174 75.1529 59.7488 75.0595 60.1221C74.9755 60.4861 74.9335 60.8548 74.9335 61.2281ZM82.3146 59.8281C82.3426 59.4081 82.4313 59.0441 82.5806 58.7361C82.7299 58.4281 82.9306 58.1761 83.1826 57.9801C83.4439 57.7841 83.7473 57.6394 84.0926 57.5461C84.4379 57.4528 84.8206 57.4061 85.2406 57.4061C85.5579 57.4061 85.8753 57.4388 86.1926 57.5041C86.5099 57.5601 86.7946 57.6721 87.0466 57.8401C87.2986 58.0081 87.5039 58.2461 87.6626 58.5541C87.8213 58.8528 87.9006 59.2448 87.9006 59.7301V63.5661C87.9006 63.9208 88.0733 64.0981 88.4186 64.0981C88.5213 64.0981 88.6146 64.0794 88.6986 64.0421V64.7841C88.5959 64.8028 88.5026 64.8168 88.4186 64.8261C88.3439 64.8354 88.2459 64.8401 88.1246 64.8401C87.9006 64.8401 87.7186 64.8121 87.5786 64.7561C87.4479 64.6908 87.3453 64.6021 87.2706 64.4901C87.1959 64.3781 87.1446 64.2474 87.1166 64.0981C87.0979 63.9394 87.0886 63.7668 87.0886 63.5801H87.0606C86.9019 63.8134 86.7386 64.0234 86.5706 64.2101C86.4119 64.3874 86.2299 64.5368 86.0246 64.6581C85.8286 64.7794 85.5999 64.8728 85.3386 64.9381C85.0866 65.0034 84.7833 65.0361 84.4286 65.0361C84.0926 65.0361 83.7753 64.9941 83.4766 64.9101C83.1873 64.8354 82.9306 64.7141 82.7066 64.5461C82.4919 64.3688 82.3193 64.1494 82.1886 63.8881C82.0673 63.6174 82.0066 63.3001 82.0066 62.9361C82.0066 62.4321 82.1186 62.0401 82.3426 61.7601C82.5666 61.4708 82.8606 61.2514 83.2246 61.1021C83.5979 60.9528 84.0133 60.8501 84.4706 60.7941C84.9373 60.7288 85.4086 60.6681 85.8846 60.6121C86.0713 60.5934 86.2346 60.5701 86.3746 60.5421C86.5146 60.5141 86.6313 60.4674 86.7246 60.4021C86.8179 60.3274 86.8879 60.2294 86.9346 60.1081C86.9906 59.9868 87.0186 59.8281 87.0186 59.6321C87.0186 59.3334 86.9673 59.0908 86.8646 58.9041C86.7713 58.7081 86.6359 58.5541 86.4586 58.4421C86.2906 58.3301 86.0899 58.2554 85.8566 58.2181C85.6326 58.1714 85.3899 58.1481 85.1286 58.1481C84.5686 58.1481 84.1113 58.2834 83.7566 58.5541C83.4019 58.8154 83.2153 59.2401 83.1966 59.8281H82.3146ZM87.0186 60.8921H86.9906C86.9346 60.9948 86.8273 61.0694 86.6686 61.1161C86.5099 61.1628 86.3699 61.1954 86.2486 61.2141C85.8753 61.2794 85.4879 61.3401 85.0866 61.3961C84.6946 61.4428 84.3353 61.5174 84.0086 61.6201C83.6819 61.7228 83.4113 61.8721 83.1966 62.0681C82.9913 62.2548 82.8886 62.5254 82.8886 62.8801C82.8886 63.1041 82.9306 63.3048 83.0146 63.4821C83.1079 63.6501 83.2293 63.7994 83.3786 63.9301C83.5279 64.0514 83.7006 64.1448 83.8966 64.2101C84.0926 64.2754 84.2933 64.3081 84.4986 64.3081C84.8346 64.3081 85.1566 64.2568 85.4646 64.1541C85.7726 64.0514 86.0386 63.9021 86.2626 63.7061C86.4959 63.5101 86.6779 63.2721 86.8086 62.9921C86.9486 62.7121 87.0186 62.3948 87.0186 62.0401V60.8921ZM98.7488 60.7241C98.7395 60.3881 98.6788 60.0661 98.5668 59.7581C98.4642 59.4501 98.3148 59.1794 98.1188 58.9461C97.9228 58.7034 97.6848 58.5121 97.4048 58.3721C97.1248 58.2228 96.8075 58.1481 96.4528 58.1481C96.0888 58.1481 95.7668 58.2228 95.4868 58.3721C95.2068 58.5121 94.9688 58.7034 94.7728 58.9461C94.5768 59.1794 94.4182 59.4548 94.2968 59.7721C94.1848 60.0801 94.1102 60.3974 94.0728 60.7241H98.7488ZM94.0728 61.4661C94.0728 61.7834 94.1148 62.1148 94.1988 62.4601C94.2922 62.7961 94.4368 63.0994 94.6328 63.3701C94.8288 63.6408 95.0762 63.8648 95.3748 64.0421C95.6735 64.2194 96.0328 64.3081 96.4528 64.3081C97.0968 64.3081 97.6008 64.1401 97.9648 63.8041C98.3288 63.4681 98.5808 63.0201 98.7208 62.4601H99.6028C99.4162 63.2814 99.0708 63.9161 98.5668 64.3641C98.0722 64.8121 97.3675 65.0361 96.4528 65.0361C95.8835 65.0361 95.3888 64.9381 94.9688 64.7421C94.5582 64.5368 94.2222 64.2614 93.9608 63.9161C93.6995 63.5614 93.5035 63.1554 93.3728 62.6981C93.2515 62.2314 93.1908 61.7414 93.1908 61.2281C93.1908 60.7521 93.2515 60.2854 93.3728 59.8281C93.5035 59.3708 93.6995 58.9648 93.9608 58.6101C94.2222 58.2461 94.5582 57.9568 94.9688 57.7421C95.3888 57.5181 95.8835 57.4061 96.4528 57.4061C97.0315 57.4061 97.5262 57.5228 97.9368 57.7561C98.3475 57.9894 98.6788 58.2974 98.9308 58.6801C99.1922 59.0534 99.3788 59.4874 99.4908 59.9821C99.6028 60.4674 99.6495 60.9621 99.6308 61.4661H94.0728ZM105.141 59.7301C105.131 59.4594 105.075 59.2261 104.973 59.0301C104.87 58.8248 104.73 58.6568 104.553 58.5261C104.385 58.3954 104.189 58.3021 103.965 58.2461C103.741 58.1808 103.503 58.1481 103.251 58.1481C103.055 58.1481 102.854 58.1714 102.649 58.2181C102.453 58.2554 102.271 58.3254 102.103 58.4281C101.935 58.5214 101.799 58.6474 101.697 58.8061C101.594 58.9648 101.543 59.1608 101.543 59.3941C101.543 59.5901 101.589 59.7581 101.683 59.8981C101.785 60.0288 101.911 60.1408 102.061 60.2341C102.21 60.3274 102.373 60.4068 102.551 60.4721C102.728 60.5281 102.891 60.5748 103.041 60.6121L104.217 60.8781C104.469 60.9154 104.716 60.9854 104.959 61.0881C105.211 61.1814 105.43 61.3074 105.617 61.4661C105.813 61.6248 105.971 61.8208 106.093 62.0541C106.214 62.2874 106.275 62.5628 106.275 62.8801C106.275 63.2721 106.186 63.6081 106.009 63.8881C105.831 64.1588 105.603 64.3828 105.323 64.5601C105.052 64.7281 104.744 64.8494 104.399 64.9241C104.053 64.9988 103.713 65.0361 103.377 65.0361C102.527 65.0361 101.837 64.8354 101.305 64.4341C100.782 64.0328 100.483 63.3888 100.409 62.5021H101.291C101.328 63.0994 101.543 63.5521 101.935 63.8601C102.336 64.1588 102.831 64.3081 103.419 64.3081C103.633 64.3081 103.853 64.2848 104.077 64.2381C104.31 64.1914 104.525 64.1121 104.721 64.0001C104.917 63.8881 105.075 63.7481 105.197 63.5801C105.327 63.4028 105.393 63.1881 105.393 62.9361C105.393 62.7214 105.346 62.5441 105.253 62.4041C105.169 62.2548 105.052 62.1334 104.903 62.0401C104.753 61.9374 104.581 61.8534 104.385 61.7881C104.198 61.7228 104.007 61.6668 103.811 61.6201L102.677 61.3681C102.387 61.2934 102.121 61.2094 101.879 61.1161C101.636 61.0134 101.421 60.8921 101.235 60.7521C101.057 60.6028 100.917 60.4254 100.815 60.2201C100.712 60.0054 100.661 59.7441 100.661 59.4361C100.661 59.0721 100.74 58.7594 100.899 58.4981C101.067 58.2368 101.281 58.0268 101.543 57.8681C101.804 57.7094 102.093 57.5928 102.411 57.5181C102.737 57.4434 103.059 57.4061 103.377 57.4061C103.741 57.4061 104.077 57.4528 104.385 57.5461C104.702 57.6394 104.977 57.7841 105.211 57.9801C105.453 58.1761 105.645 58.4188 105.785 58.7081C105.925 58.9974 106.004 59.3381 106.023 59.7301H105.141ZM107.555 57.6161H108.367V58.9881H108.395C108.6 58.4841 108.932 58.0968 109.389 57.8261C109.856 57.5461 110.383 57.4061 110.971 57.4061C111.522 57.4061 111.998 57.5088 112.399 57.7141C112.81 57.9194 113.15 58.1994 113.421 58.5541C113.692 58.8994 113.892 59.3054 114.023 59.7721C114.154 60.2294 114.219 60.7148 114.219 61.2281C114.219 61.7414 114.154 62.2314 114.023 62.6981C113.892 63.1554 113.692 63.5614 113.421 63.9161C113.15 64.2614 112.81 64.5368 112.399 64.7421C111.998 64.9381 111.522 65.0361 110.971 65.0361C110.71 65.0361 110.448 65.0034 110.187 64.9381C109.926 64.8728 109.683 64.7748 109.459 64.6441C109.235 64.5134 109.034 64.3501 108.857 64.1541C108.689 63.9581 108.558 63.7294 108.465 63.4681H108.437V67.5001H107.555V57.6161ZM113.337 61.2281C113.337 60.8548 113.29 60.4861 113.197 60.1221C113.113 59.7488 112.973 59.4174 112.777 59.1281C112.59 58.8388 112.348 58.6054 112.049 58.4281C111.75 58.2414 111.391 58.1481 110.971 58.1481C110.486 58.1481 110.08 58.2321 109.753 58.4001C109.426 58.5681 109.165 58.7921 108.969 59.0721C108.773 59.3521 108.633 59.6788 108.549 60.0521C108.474 60.4254 108.437 60.8174 108.437 61.2281C108.437 61.6014 108.479 61.9748 108.563 62.3481C108.656 62.7121 108.801 63.0388 108.997 63.3281C109.202 63.6174 109.464 63.8554 109.781 64.0421C110.108 64.2194 110.504 64.3081 110.971 64.3081C111.391 64.3081 111.75 64.2194 112.049 64.0421C112.348 63.8554 112.59 63.6174 112.777 63.3281C112.973 63.0388 113.113 62.7121 113.197 62.3481C113.29 61.9748 113.337 61.6014 113.337 61.2281ZM115.51 59.8281C115.538 59.4081 115.627 59.0441 115.776 58.7361C115.925 58.4281 116.126 58.1761 116.378 57.9801C116.639 57.7841 116.943 57.6394 117.288 57.5461C117.633 57.4528 118.016 57.4061 118.436 57.4061C118.753 57.4061 119.071 57.4388 119.388 57.5041C119.705 57.5601 119.99 57.6721 120.242 57.8401C120.494 58.0081 120.699 58.2461 120.858 58.5541C121.017 58.8528 121.096 59.2448 121.096 59.7301V63.5661C121.096 63.9208 121.269 64.0981 121.614 64.0981C121.717 64.0981 121.81 64.0794 121.894 64.0421V64.7841C121.791 64.8028 121.698 64.8168 121.614 64.8261C121.539 64.8354 121.441 64.8401 121.32 64.8401C121.096 64.8401 120.914 64.8121 120.774 64.7561C120.643 64.6908 120.541 64.6021 120.466 64.4901C120.391 64.3781 120.34 64.2474 120.312 64.0981C120.293 63.9394 120.284 63.7668 120.284 63.5801H120.256C120.097 63.8134 119.934 64.0234 119.766 64.2101C119.607 64.3874 119.425 64.5368 119.22 64.6581C119.024 64.7794 118.795 64.8728 118.534 64.9381C118.282 65.0034 117.979 65.0361 117.624 65.0361C117.288 65.0361 116.971 64.9941 116.672 64.9101C116.383 64.8354 116.126 64.7141 115.902 64.5461C115.687 64.3688 115.515 64.1494 115.384 63.8881C115.263 63.6174 115.202 63.3001 115.202 62.9361C115.202 62.4321 115.314 62.0401 115.538 61.7601C115.762 61.4708 116.056 61.2514 116.42 61.1021C116.793 60.9528 117.209 60.8501 117.666 60.7941C118.133 60.7288 118.604 60.6681 119.08 60.6121C119.267 60.5934 119.43 60.5701 119.57 60.5421C119.71 60.5141 119.827 60.4674 119.92 60.4021C120.013 60.3274 120.083 60.2294 120.13 60.1081C120.186 59.9868 120.214 59.8281 120.214 59.6321C120.214 59.3334 120.163 59.0908 120.06 58.9041C119.967 58.7081 119.831 58.5541 119.654 58.4421C119.486 58.3301 119.285 58.2554 119.052 58.2181C118.828 58.1714 118.585 58.1481 118.324 58.1481C117.764 58.1481 117.307 58.2834 116.952 58.5541C116.597 58.8154 116.411 59.2401 116.392 59.8281H115.51ZM120.214 60.8921H120.186C120.13 60.9948 120.023 61.0694 119.864 61.1161C119.705 61.1628 119.565 61.1954 119.444 61.2141C119.071 61.2794 118.683 61.3401 118.282 61.3961C117.89 61.4428 117.531 61.5174 117.204 61.6201C116.877 61.7228 116.607 61.8721 116.392 62.0681C116.187 62.2548 116.084 62.5254 116.084 62.8801C116.084 63.1041 116.126 63.3048 116.21 63.4821C116.303 63.6501 116.425 63.7994 116.574 63.9301C116.723 64.0514 116.896 64.1448 117.092 64.2101C117.288 64.2754 117.489 64.3081 117.694 64.3081C118.03 64.3081 118.352 64.2568 118.66 64.1541C118.968 64.0514 119.234 63.9021 119.458 63.7061C119.691 63.5101 119.873 63.2721 120.004 62.9921C120.144 62.7121 120.214 62.3948 120.214 62.0401V60.8921ZM127.95 59.8841C127.828 59.3428 127.604 58.9181 127.278 58.6101C126.951 58.3021 126.494 58.1481 125.906 58.1481C125.486 58.1481 125.117 58.2368 124.8 58.4141C124.482 58.5914 124.216 58.8248 124.002 59.1141C123.796 59.4034 123.638 59.7348 123.526 60.1081C123.423 60.4721 123.372 60.8454 123.372 61.2281C123.372 61.6108 123.423 61.9888 123.526 62.3621C123.638 62.7261 123.796 63.0528 124.002 63.3421C124.216 63.6314 124.482 63.8648 124.8 64.0421C125.117 64.2194 125.486 64.3081 125.906 64.3081C126.176 64.3081 126.433 64.2568 126.676 64.1541C126.918 64.0514 127.133 63.9114 127.32 63.7341C127.506 63.5474 127.66 63.3281 127.782 63.0761C127.903 62.8241 127.978 62.5488 128.006 62.2501H128.888C128.766 63.1274 128.444 63.8134 127.922 64.3081C127.399 64.7934 126.727 65.0361 125.906 65.0361C125.355 65.0361 124.865 64.9381 124.436 64.7421C124.016 64.5368 123.661 64.2614 123.372 63.9161C123.082 63.5708 122.863 63.1694 122.714 62.7121C122.564 62.2454 122.49 61.7508 122.49 61.2281C122.49 60.7054 122.564 60.2154 122.714 59.7581C122.863 59.2914 123.082 58.8854 123.372 58.5401C123.661 58.1948 124.016 57.9194 124.436 57.7141C124.865 57.5088 125.355 57.4061 125.906 57.4061C126.68 57.4061 127.334 57.6114 127.866 58.0221C128.407 58.4328 128.729 59.0534 128.832 59.8841H127.95ZM130.127 54.8441H131.009V56.2581H130.127V54.8441ZM130.127 57.6161H131.009V64.8401H130.127V57.6161ZM135.749 58.1481C135.329 58.1481 134.961 58.2368 134.643 58.4141C134.326 58.5914 134.06 58.8248 133.845 59.1141C133.64 59.4034 133.481 59.7348 133.369 60.1081C133.267 60.4721 133.215 60.8454 133.215 61.2281C133.215 61.6108 133.267 61.9888 133.369 62.3621C133.481 62.7261 133.64 63.0528 133.845 63.3421C134.06 63.6314 134.326 63.8648 134.643 64.0421C134.961 64.2194 135.329 64.3081 135.749 64.3081C136.169 64.3081 136.538 64.2194 136.855 64.0421C137.173 63.8648 137.434 63.6314 137.639 63.3421C137.854 63.0528 138.013 62.7261 138.115 62.3621C138.227 61.9888 138.283 61.6108 138.283 61.2281C138.283 60.8454 138.227 60.4721 138.115 60.1081C138.013 59.7348 137.854 59.4034 137.639 59.1141C137.434 58.8248 137.173 58.5914 136.855 58.4141C136.538 58.2368 136.169 58.1481 135.749 58.1481ZM135.749 57.4061C136.3 57.4061 136.785 57.5088 137.205 57.7141C137.635 57.9194 137.994 58.1948 138.283 58.5401C138.573 58.8854 138.792 59.2914 138.941 59.7581C139.091 60.2154 139.165 60.7054 139.165 61.2281C139.165 61.7508 139.091 62.2454 138.941 62.7121C138.792 63.1694 138.573 63.5708 138.283 63.9161C137.994 64.2614 137.635 64.5368 137.205 64.7421C136.785 64.9381 136.3 65.0361 135.749 65.0361C135.199 65.0361 134.709 64.9381 134.279 64.7421C133.859 64.5368 133.505 64.2614 133.215 63.9161C132.926 63.5708 132.707 63.1694 132.557 62.7121C132.408 62.2454 132.333 61.7508 132.333 61.2281C132.333 60.7054 132.408 60.2154 132.557 59.7581C132.707 59.2914 132.926 58.8854 133.215 58.5401C133.505 58.1948 133.859 57.9194 134.279 57.7141C134.709 57.5088 135.199 57.4061 135.749 57.4061ZM150.729 64.8401H149.917V63.4681H149.889C149.796 63.7014 149.656 63.9161 149.469 64.1121C149.292 64.3081 149.087 64.4761 148.853 64.6161C148.62 64.7468 148.368 64.8494 148.097 64.9241C147.836 64.9988 147.575 65.0361 147.313 65.0361C146.763 65.0361 146.282 64.9381 145.871 64.7421C145.47 64.5368 145.134 64.2614 144.863 63.9161C144.593 63.5614 144.392 63.1554 144.261 62.6981C144.131 62.2314 144.065 61.7414 144.065 61.2281C144.065 60.7148 144.131 60.2294 144.261 59.7721C144.392 59.3054 144.593 58.8994 144.863 58.5541C145.134 58.1994 145.47 57.9194 145.871 57.7141C146.282 57.5088 146.763 57.4061 147.313 57.4061C147.584 57.4061 147.845 57.4388 148.097 57.5041C148.359 57.5694 148.601 57.6721 148.825 57.8121C149.049 57.9428 149.245 58.1061 149.413 58.3021C149.591 58.4981 149.726 58.7268 149.819 58.9881H149.847V54.8441H150.729V64.8401ZM144.947 61.2281C144.947 61.6014 144.989 61.9748 145.073 62.3481C145.167 62.7121 145.307 63.0388 145.493 63.3281C145.689 63.6174 145.937 63.8554 146.235 64.0421C146.534 64.2194 146.893 64.3081 147.313 64.3081C147.78 64.3081 148.172 64.2194 148.489 64.0421C148.816 63.8554 149.077 63.6174 149.273 63.3281C149.479 63.0388 149.623 62.7121 149.707 62.3481C149.801 61.9748 149.847 61.6014 149.847 61.2281C149.847 60.8548 149.801 60.4861 149.707 60.1221C149.623 59.7488 149.479 59.4174 149.273 59.1281C149.077 58.8388 148.816 58.6054 148.489 58.4281C148.172 58.2414 147.78 58.1481 147.313 58.1481C146.893 58.1481 146.534 58.2414 146.235 58.4281C145.937 58.6054 145.689 58.8388 145.493 59.1281C145.307 59.4174 145.167 59.7488 145.073 60.1221C144.989 60.4861 144.947 60.8548 144.947 61.2281ZM157.606 60.7241C157.597 60.3881 157.536 60.0661 157.424 59.7581C157.322 59.4501 157.172 59.1794 156.976 58.9461C156.78 58.7034 156.542 58.5121 156.262 58.3721C155.982 58.2228 155.665 58.1481 155.31 58.1481C154.946 58.1481 154.624 58.2228 154.344 58.3721C154.064 58.5121 153.826 58.7034 153.63 58.9461C153.434 59.1794 153.276 59.4548 153.154 59.7721C153.042 60.0801 152.968 60.3974 152.93 60.7241H157.606ZM152.93 61.4661C152.93 61.7834 152.972 62.1148 153.056 62.4601C153.15 62.7961 153.294 63.0994 153.49 63.3701C153.686 63.6408 153.934 63.8648 154.232 64.0421C154.531 64.2194 154.89 64.3081 155.31 64.3081C155.954 64.3081 156.458 64.1401 156.822 63.8041C157.186 63.4681 157.438 63.0201 157.578 62.4601H158.46C158.274 63.2814 157.928 63.9161 157.424 64.3641C156.93 64.8121 156.225 65.0361 155.31 65.0361C154.741 65.0361 154.246 64.9381 153.826 64.7421C153.416 64.5368 153.08 64.2614 152.818 63.9161C152.557 63.5614 152.361 63.1554 152.23 62.6981C152.109 62.2314 152.048 61.7414 152.048 61.2281C152.048 60.7521 152.109 60.2854 152.23 59.8281C152.361 59.3708 152.557 58.9648 152.818 58.6101C153.08 58.2461 153.416 57.9568 153.826 57.7421C154.246 57.5181 154.741 57.4061 155.31 57.4061C155.889 57.4061 156.384 57.5228 156.794 57.7561C157.205 57.9894 157.536 58.2974 157.788 58.6801C158.05 59.0534 158.236 59.4874 158.348 59.9821C158.46 60.4674 158.507 60.9621 158.488 61.4661H152.93ZM159.686 54.8441H160.568V64.8401H159.686V54.8441ZM166.139 54.8441H167.021V58.8621H167.049C167.217 58.4234 167.515 58.0734 167.945 57.8121C168.374 57.5414 168.845 57.4061 169.359 57.4061C169.863 57.4061 170.283 57.4714 170.619 57.6021C170.964 57.7328 171.239 57.9194 171.445 58.1621C171.65 58.3954 171.795 58.6848 171.879 59.0301C171.963 59.3754 172.005 59.7628 172.005 60.1921V64.8401H171.123V60.3321C171.123 60.0241 171.095 59.7394 171.039 59.4781C170.983 59.2074 170.885 58.9741 170.745 58.7781C170.605 58.5821 170.413 58.4281 170.171 58.3161C169.937 58.2041 169.643 58.1481 169.289 58.1481C168.934 58.1481 168.617 58.2134 168.337 58.3441C168.066 58.4654 167.833 58.6381 167.637 58.8621C167.45 59.0768 167.301 59.3381 167.189 59.6461C167.086 59.9448 167.03 60.2714 167.021 60.6261V64.8401H166.139V54.8441ZM176.724 58.1481C176.304 58.1481 175.935 58.2368 175.618 58.4141C175.301 58.5914 175.035 58.8248 174.82 59.1141C174.615 59.4034 174.456 59.7348 174.344 60.1081C174.241 60.4721 174.19 60.8454 174.19 61.2281C174.19 61.6108 174.241 61.9888 174.344 62.3621C174.456 62.7261 174.615 63.0528 174.82 63.3421C175.035 63.6314 175.301 63.8648 175.618 64.0421C175.935 64.2194 176.304 64.3081 176.724 64.3081C177.144 64.3081 177.513 64.2194 177.83 64.0421C178.147 63.8648 178.409 63.6314 178.614 63.3421C178.829 63.0528 178.987 62.7261 179.09 62.3621C179.202 61.9888 179.258 61.6108 179.258 61.2281C179.258 60.8454 179.202 60.4721 179.09 60.1081C178.987 59.7348 178.829 59.4034 178.614 59.1141C178.409 58.8248 178.147 58.5914 177.83 58.4141C177.513 58.2368 177.144 58.1481 176.724 58.1481ZM176.724 57.4061C177.275 57.4061 177.76 57.5088 178.18 57.7141C178.609 57.9194 178.969 58.1948 179.258 58.5401C179.547 58.8854 179.767 59.2914 179.916 59.7581C180.065 60.2154 180.14 60.7054 180.14 61.2281C180.14 61.7508 180.065 62.2454 179.916 62.7121C179.767 63.1694 179.547 63.5708 179.258 63.9161C178.969 64.2614 178.609 64.5368 178.18 64.7421C177.76 64.9381 177.275 65.0361 176.724 65.0361C176.173 65.0361 175.683 64.9381 175.254 64.7421C174.834 64.5368 174.479 64.2614 174.19 63.9161C173.901 63.5708 173.681 63.1694 173.532 62.7121C173.383 62.2454 173.308 61.7508 173.308 61.2281C173.308 60.7054 173.383 60.2154 173.532 59.7581C173.681 59.2914 173.901 58.8854 174.19 58.5401C174.479 58.1948 174.834 57.9194 175.254 57.7141C175.683 57.5088 176.173 57.4061 176.724 57.4061ZM187.555 64.2521C187.555 64.7841 187.495 65.2648 187.373 65.6941C187.261 66.1234 187.079 66.4874 186.827 66.7861C186.575 67.0848 186.244 67.3134 185.833 67.4721C185.432 67.6308 184.937 67.7101 184.349 67.7101C183.985 67.7101 183.631 67.6681 183.285 67.5841C182.94 67.5001 182.627 67.3694 182.347 67.1921C182.077 67.0148 181.848 66.7861 181.661 66.5061C181.484 66.2354 181.381 65.9088 181.353 65.5261H182.235C182.282 65.7968 182.371 66.0208 182.501 66.1981C182.641 66.3848 182.805 66.5341 182.991 66.6461C183.187 66.7581 183.402 66.8374 183.635 66.8841C183.869 66.9401 184.107 66.9681 184.349 66.9681C185.171 66.9681 185.763 66.7348 186.127 66.2681C186.491 65.8014 186.673 65.1294 186.673 64.2521V63.2721H186.645C186.44 63.7201 186.137 64.0794 185.735 64.3501C185.343 64.6208 184.881 64.7561 184.349 64.7561C183.771 64.7561 183.276 64.6628 182.865 64.4761C182.455 64.2801 182.114 64.0141 181.843 63.6781C181.582 63.3421 181.391 62.9501 181.269 62.5021C181.148 62.0448 181.087 61.5594 181.087 61.0461C181.087 60.5514 181.157 60.0848 181.297 59.6461C181.447 59.1981 181.657 58.8108 181.927 58.4841C182.207 58.1481 182.548 57.8868 182.949 57.7001C183.36 57.5041 183.827 57.4061 184.349 57.4061C184.62 57.4061 184.872 57.4434 185.105 57.5181C185.348 57.5928 185.567 57.7001 185.763 57.8401C185.959 57.9708 186.132 58.1248 186.281 58.3021C186.44 58.4794 186.561 58.6661 186.645 58.8621H186.673V57.6161H187.555V64.2521ZM184.349 64.0141C184.732 64.0141 185.068 63.9348 185.357 63.7761C185.647 63.6081 185.889 63.3934 186.085 63.1321C186.281 62.8614 186.426 62.5534 186.519 62.2081C186.622 61.8628 186.673 61.5081 186.673 61.1441C186.673 60.7894 186.631 60.4348 186.547 60.0801C186.463 59.7254 186.328 59.4034 186.141 59.1141C185.955 58.8248 185.712 58.5914 185.413 58.4141C185.124 58.2368 184.769 58.1481 184.349 58.1481C183.929 58.1481 183.57 58.2368 183.271 58.4141C182.973 58.5821 182.725 58.8061 182.529 59.0861C182.333 59.3661 182.189 59.6881 182.095 60.0521C182.011 60.4068 181.969 60.7708 181.969 61.1441C181.969 61.5081 182.016 61.8628 182.109 62.2081C182.203 62.5534 182.347 62.8614 182.543 63.1321C182.739 63.3934 182.987 63.6081 183.285 63.7761C183.584 63.9348 183.939 64.0141 184.349 64.0141ZM189.147 59.8281C189.175 59.4081 189.263 59.0441 189.413 58.7361C189.562 58.4281 189.763 58.1761 190.015 57.9801C190.276 57.7841 190.579 57.6394 190.925 57.5461C191.27 57.4528 191.653 57.4061 192.073 57.4061C192.39 57.4061 192.707 57.4388 193.025 57.5041C193.342 57.5601 193.627 57.6721 193.879 57.8401C194.131 58.0081 194.336 58.2461 194.495 58.5541C194.653 58.8528 194.733 59.2448 194.733 59.7301V63.5661C194.733 63.9208 194.905 64.0981 195.251 64.0981C195.353 64.0981 195.447 64.0794 195.531 64.0421V64.7841C195.428 64.8028 195.335 64.8168 195.251 64.8261C195.176 64.8354 195.078 64.8401 194.957 64.8401C194.733 64.8401 194.551 64.8121 194.411 64.7561C194.28 64.6908 194.177 64.6021 194.103 64.4901C194.028 64.3781 193.977 64.2474 193.949 64.0981C193.93 63.9394 193.921 63.7668 193.921 63.5801H193.893C193.734 63.8134 193.571 64.0234 193.403 64.2101C193.244 64.3874 193.062 64.5368 192.857 64.6581C192.661 64.7794 192.432 64.8728 192.171 64.9381C191.919 65.0034 191.615 65.0361 191.261 65.0361C190.925 65.0361 190.607 64.9941 190.309 64.9101C190.019 64.8354 189.763 64.7141 189.539 64.5461C189.324 64.3688 189.151 64.1494 189.021 63.8881C188.899 63.6174 188.839 63.3001 188.839 62.9361C188.839 62.4321 188.951 62.0401 189.175 61.7601C189.399 61.4708 189.693 61.2514 190.057 61.1021C190.43 60.9528 190.845 60.8501 191.303 60.7941C191.769 60.7288 192.241 60.6681 192.717 60.6121C192.903 60.5934 193.067 60.5701 193.207 60.5421C193.347 60.5141 193.463 60.4674 193.557 60.4021C193.65 60.3274 193.72 60.2294 193.767 60.1081C193.823 59.9868 193.851 59.8281 193.851 59.6321C193.851 59.3334 193.799 59.0908 193.697 58.9041C193.603 58.7081 193.468 58.5541 193.291 58.4421C193.123 58.3301 192.922 58.2554 192.689 58.2181C192.465 58.1714 192.222 58.1481 191.961 58.1481C191.401 58.1481 190.943 58.2834 190.589 58.5541C190.234 58.8154 190.047 59.2401 190.029 59.8281H189.147ZM193.851 60.8921H193.823C193.767 60.9948 193.659 61.0694 193.501 61.1161C193.342 61.1628 193.202 61.1954 193.081 61.2141C192.707 61.2794 192.32 61.3401 191.919 61.3961C191.527 61.4428 191.167 61.5174 190.841 61.6201C190.514 61.7228 190.243 61.8721 190.029 62.0681C189.823 62.2548 189.721 62.5254 189.721 62.8801C189.721 63.1041 189.763 63.3048 189.847 63.4821C189.94 63.6501 190.061 63.7994 190.211 63.9301C190.36 64.0514 190.533 64.1448 190.729 64.2101C190.925 64.2754 191.125 64.3081 191.331 64.3081C191.667 64.3081 191.989 64.2568 192.297 64.1541C192.605 64.0514 192.871 63.9021 193.095 63.7061C193.328 63.5101 193.51 63.2721 193.641 62.9921C193.781 62.7121 193.851 62.3948 193.851 62.0401V60.8921ZM196.49 57.6161H197.302V59.3101H197.33C197.554 58.7221 197.9 58.2694 198.366 57.9521C198.842 57.6348 199.407 57.4901 200.06 57.5181V58.4001C199.659 58.3814 199.295 58.4374 198.968 58.5681C198.642 58.6894 198.357 58.8668 198.114 59.1001C197.881 59.3334 197.699 59.6134 197.568 59.9401C197.438 60.2574 197.372 60.6074 197.372 60.9901V64.8401H196.49V57.6161ZM200.139 64.8401V63.3561H201.315V64.8401H200.139Z" fill="#010101"/>
</svg>
