<svg width="209" height="74" viewBox="0 0 209 74" fill="none" xmlns="http://www.w3.org/2000/svg">
<path fill-rule="evenodd" clip-rule="evenodd" d="M0 8C0 3.58172 3.58172 0 8 0H180C184.418 0 188 3.58172 188 8V25C188 29.4183 191.582 33 196 33H201C205.418 33 209 36.5817 209 41V52C209 56.4183 205.418 60 201 60H169C165.134 60 162 63.134 162 67V67C162 70.866 158.866 74 155 74H54C49.5817 74 46 70.4183 46 66V60V45C46 40.5817 42.4183 37 38 37H8C3.58172 37 0 33.4183 0 29V8Z" fill="white"/>
<path d="M16.408 9.864H19.6L26.2 27H22.984L21.376 22.464H14.536L12.928 27H9.832L16.408 9.864ZM15.352 20.184H20.584L18.016 12.816H17.944L15.352 20.184ZM27.7838 9.864H32.0078L36.7358 23.28H36.7838L41.3918 9.864H45.5678V27H42.7118V13.776H42.6638L37.9118 27H35.4398L30.6878 13.776H30.6398V27H27.7838V9.864ZM48.9679 9.864H51.9679V19.848C51.9679 20.424 51.9919 21.008 52.0399 21.6C52.1039 22.192 52.2639 22.728 52.5199 23.208C52.7919 23.672 53.1919 24.056 53.7199 24.36C54.2639 24.664 55.0239 24.816 55.9999 24.816C56.9759 24.816 57.7279 24.664 58.2559 24.36C58.7999 24.056 59.1999 23.672 59.4559 23.208C59.7279 22.728 59.8879 22.192 59.9359 21.6C59.9999 21.008 60.0319 20.424 60.0319 19.848V9.864H63.0319V20.832C63.0319 21.936 62.8639 22.896 62.5279 23.712C62.1919 24.528 61.7119 25.216 61.0879 25.776C60.4799 26.32 59.7439 26.728 58.8799 27C58.0159 27.272 57.0559 27.408 55.9999 27.408C54.9439 27.408 53.9839 27.272 53.1199 27C52.2559 26.728 51.5119 26.32 50.8879 25.776C50.2799 25.216 49.8079 24.528 49.4719 23.712C49.1359 22.896 48.9679 21.936 48.9679 20.832V9.864ZM66.4803 9.864H78.8163V12.456H69.4803V16.944H78.1203V19.392H69.4803V24.408H78.9843V27H66.4803V9.864ZM84.5974 17.04H89.4934C90.2134 17.04 90.8134 16.84 91.2934 16.44C91.7734 16.024 92.0134 15.432 92.0134 14.664C92.0134 13.8 91.7974 13.192 91.3654 12.84C90.9334 12.488 90.3094 12.312 89.4934 12.312H84.5974V17.04ZM81.5974 9.864H89.9254C91.4614 9.864 92.6934 10.216 93.6214 10.92C94.5494 11.624 95.0134 12.688 95.0134 14.112C95.0134 14.976 94.7974 15.72 94.3654 16.344C93.9494 16.952 93.3494 17.424 92.5654 17.76V17.808C93.6214 18.032 94.4214 18.536 94.9654 19.32C95.5094 20.088 95.7814 21.056 95.7814 22.224C95.7814 22.896 95.6614 23.528 95.4214 24.12C95.1814 24.696 94.8054 25.2 94.2934 25.632C93.7814 26.048 93.1254 26.384 92.3254 26.64C91.5254 26.88 90.5734 27 89.4694 27H81.5974V9.864ZM84.5974 24.552H89.9014C90.8134 24.552 91.5174 24.32 92.0134 23.856C92.5254 23.376 92.7814 22.704 92.7814 21.84C92.7814 20.992 92.5254 20.344 92.0134 19.896C91.5174 19.432 90.8134 19.2 89.9014 19.2H84.5974V24.552ZM98.4959 9.864H101.496V24.408H110.208V27H98.4959V9.864ZM116.861 9.864H120.053L126.653 27H123.437L121.829 22.464H114.989L113.381 27H110.285L116.861 9.864ZM115.805 20.184H121.037L118.469 12.816H118.397L115.805 20.184ZM128.165 9.864H131.333L139.157 22.488H139.205V9.864H142.061V27H138.893L131.093 14.4H131.021V27H128.165V9.864ZM145.605 9.864H152.709C154.021 9.864 155.157 10.088 156.117 10.536C157.077 10.984 157.861 11.6 158.469 12.384C159.077 13.152 159.525 14.056 159.813 15.096C160.117 16.136 160.269 17.248 160.269 18.432C160.269 19.616 160.117 20.728 159.813 21.768C159.525 22.808 159.077 23.72 158.469 24.504C157.861 25.272 157.077 25.88 156.117 26.328C155.157 26.776 154.021 27 152.709 27H145.605V9.864ZM148.605 24.552H151.557C152.725 24.552 153.677 24.4 154.413 24.096C155.165 23.776 155.749 23.344 156.165 22.8C156.597 22.24 156.885 21.592 157.029 20.856C157.189 20.104 157.269 19.296 157.269 18.432C157.269 17.568 157.189 16.768 157.029 16.032C156.885 15.28 156.597 14.632 156.165 14.088C155.749 13.528 155.165 13.096 154.413 12.792C153.677 12.472 152.725 12.312 151.557 12.312H148.605V24.552ZM170.222 11.904C169.31 11.904 168.518 12.088 167.846 12.456C167.19 12.824 166.654 13.32 166.238 13.944C165.822 14.552 165.51 15.248 165.302 16.032C165.11 16.816 165.014 17.616 165.014 18.432C165.014 19.248 165.11 20.048 165.302 20.832C165.51 21.616 165.822 22.32 166.238 22.944C166.654 23.552 167.19 24.04 167.846 24.408C168.518 24.776 169.31 24.96 170.222 24.96C171.134 24.96 171.918 24.776 172.574 24.408C173.246 24.04 173.79 23.552 174.206 22.944C174.622 22.32 174.926 21.616 175.118 20.832C175.326 20.048 175.43 19.248 175.43 18.432C175.43 17.616 175.326 16.816 175.118 16.032C174.926 15.248 174.622 14.552 174.206 13.944C173.79 13.32 173.246 12.824 172.574 12.456C171.918 12.088 171.134 11.904 170.222 11.904ZM170.222 9.456C171.502 9.456 172.646 9.696 173.654 10.176C174.678 10.656 175.542 11.304 176.246 12.12C176.95 12.936 177.486 13.888 177.854 14.976C178.238 16.064 178.43 17.216 178.43 18.432C178.43 19.664 178.238 20.824 177.854 21.912C177.486 23 176.95 23.952 176.246 24.768C175.542 25.584 174.678 26.232 173.654 26.712C172.646 27.176 171.502 27.408 170.222 27.408C168.942 27.408 167.79 27.176 166.766 26.712C165.758 26.232 164.902 25.584 164.198 24.768C163.494 23.952 162.95 23 162.566 21.912C162.198 20.824 162.014 19.664 162.014 18.432C162.014 17.216 162.198 16.064 162.566 14.976C162.95 13.888 163.494 12.936 164.198 12.12C164.902 11.304 165.758 10.656 166.766 10.176C167.79 9.696 168.942 9.456 170.222 9.456Z" fill="#010101"/>
<path d="M60.008 41.004H63.466C64.9873 41.0413 66.1307 41.4707 66.896 42.292C67.6707 43.104 68.058 44.3407 68.058 46.002C68.058 47.6633 67.6707 48.9047 66.896 49.726C66.1307 50.538 64.9873 50.9627 63.466 51H60.008V41.004ZM60.96 50.188H62.99C63.7087 50.188 64.3247 50.1133 64.838 49.964C65.3607 49.8053 65.79 49.558 66.126 49.222C66.462 48.886 66.7093 48.452 66.868 47.92C67.0267 47.388 67.106 46.7487 67.106 46.002C67.106 45.2553 67.0267 44.616 66.868 44.084C66.7093 43.552 66.462 43.118 66.126 42.782C65.79 42.446 65.3607 42.2033 64.838 42.054C64.3247 41.8953 63.7087 41.816 62.99 41.816H60.96V50.188ZM69.34 45.988C69.368 45.568 69.4567 45.204 69.606 44.896C69.7553 44.588 69.956 44.336 70.208 44.14C70.4693 43.944 70.7727 43.7993 71.118 43.706C71.4633 43.6127 71.846 43.566 72.266 43.566C72.5833 43.566 72.9007 43.5987 73.218 43.664C73.5353 43.72 73.82 43.832 74.072 44C74.324 44.168 74.5293 44.406 74.688 44.714C74.8467 45.0127 74.926 45.4047 74.926 45.89V49.726C74.926 50.0807 75.0987 50.258 75.444 50.258C75.5467 50.258 75.64 50.2393 75.724 50.202V50.944C75.6213 50.9627 75.528 50.9767 75.444 50.986C75.3693 50.9953 75.2713 51 75.15 51C74.926 51 74.744 50.972 74.604 50.916C74.4733 50.8507 74.3707 50.762 74.296 50.65C74.2213 50.538 74.17 50.4073 74.142 50.258C74.1233 50.0993 74.114 49.9267 74.114 49.74H74.086C73.9273 49.9733 73.764 50.1833 73.596 50.37C73.4373 50.5473 73.2553 50.6967 73.05 50.818C72.854 50.9393 72.6253 51.0327 72.364 51.098C72.112 51.1633 71.8087 51.196 71.454 51.196C71.118 51.196 70.8007 51.154 70.502 51.07C70.2127 50.9953 69.956 50.874 69.732 50.706C69.5173 50.5287 69.3447 50.3093 69.214 50.048C69.0927 49.7773 69.032 49.46 69.032 49.096C69.032 48.592 69.144 48.2 69.368 47.92C69.592 47.6307 69.886 47.4113 70.25 47.262C70.6233 47.1127 71.0387 47.01 71.496 46.954C71.9627 46.8887 72.434 46.828 72.91 46.772C73.0967 46.7533 73.26 46.73 73.4 46.702C73.54 46.674 73.6567 46.6273 73.75 46.562C73.8433 46.4873 73.9133 46.3893 73.96 46.268C74.016 46.1467 74.044 45.988 74.044 45.792C74.044 45.4933 73.9927 45.2507 73.89 45.064C73.7967 44.868 73.6613 44.714 73.484 44.602C73.316 44.49 73.1153 44.4153 72.882 44.378C72.658 44.3313 72.4153 44.308 72.154 44.308C71.594 44.308 71.1367 44.4433 70.782 44.714C70.4273 44.9753 70.2407 45.4 70.222 45.988H69.34ZM74.044 47.052H74.016C73.96 47.1547 73.8527 47.2293 73.694 47.276C73.5353 47.3227 73.3953 47.3553 73.274 47.374C72.9007 47.4393 72.5133 47.5 72.112 47.556C71.72 47.6027 71.3607 47.6773 71.034 47.78C70.7073 47.8827 70.4367 48.032 70.222 48.228C70.0167 48.4147 69.914 48.6853 69.914 49.04C69.914 49.264 69.956 49.4647 70.04 49.642C70.1333 49.81 70.2547 49.9593 70.404 50.09C70.5533 50.2113 70.726 50.3047 70.922 50.37C71.118 50.4353 71.3187 50.468 71.524 50.468C71.86 50.468 72.182 50.4167 72.49 50.314C72.798 50.2113 73.064 50.062 73.288 49.866C73.5213 49.67 73.7033 49.432 73.834 49.152C73.974 48.872 74.044 48.5547 74.044 48.2V47.052ZM76.6698 43.776H77.5518V45.022H77.5798C77.7478 44.5833 78.0464 44.2333 78.4758 43.972C78.9051 43.7013 79.3764 43.566 79.8898 43.566C80.3938 43.566 80.8138 43.6313 81.1498 43.762C81.4951 43.8927 81.7704 44.0793 81.9758 44.322C82.1811 44.5553 82.3258 44.8447 82.4098 45.19C82.4938 45.5353 82.5358 45.9227 82.5358 46.352V51H81.6538V46.492C81.6538 46.184 81.6258 45.8993 81.5698 45.638C81.5138 45.3673 81.4158 45.134 81.2758 44.938C81.1358 44.742 80.9444 44.588 80.7018 44.476C80.4684 44.364 80.1744 44.308 79.8198 44.308C79.4651 44.308 79.1478 44.3733 78.8678 44.504C78.5971 44.6253 78.3638 44.798 78.1678 45.022C77.9811 45.2367 77.8318 45.498 77.7198 45.806C77.6171 46.1047 77.5611 46.4313 77.5518 46.786V51H76.6698V43.776ZM90.5593 51H89.7473V49.628H89.7193C89.6259 49.8613 89.4859 50.076 89.2993 50.272C89.1219 50.468 88.9166 50.636 88.6833 50.776C88.4499 50.9067 88.1979 51.0093 87.9273 51.084C87.6659 51.1587 87.4046 51.196 87.1433 51.196C86.5926 51.196 86.1119 51.098 85.7013 50.902C85.2999 50.6967 84.9639 50.4213 84.6933 50.076C84.4226 49.7213 84.2219 49.3153 84.0913 48.858C83.9606 48.3913 83.8953 47.9013 83.8953 47.388C83.8953 46.8747 83.9606 46.3893 84.0913 45.932C84.2219 45.4653 84.4226 45.0593 84.6933 44.714C84.9639 44.3593 85.2999 44.0793 85.7013 43.874C86.1119 43.6687 86.5926 43.566 87.1433 43.566C87.4139 43.566 87.6753 43.5987 87.9273 43.664C88.1886 43.7293 88.4313 43.832 88.6553 43.972C88.8793 44.1027 89.0753 44.266 89.2433 44.462C89.4206 44.658 89.5559 44.8867 89.6493 45.148H89.6773V41.004H90.5593V51ZM84.7773 47.388C84.7773 47.7613 84.8193 48.1347 84.9033 48.508C84.9966 48.872 85.1366 49.1987 85.3233 49.488C85.5193 49.7773 85.7666 50.0153 86.0653 50.202C86.3639 50.3793 86.7233 50.468 87.1433 50.468C87.6099 50.468 88.0019 50.3793 88.3193 50.202C88.6459 50.0153 88.9073 49.7773 89.1033 49.488C89.3086 49.1987 89.4533 48.872 89.5373 48.508C89.6306 48.1347 89.6773 47.7613 89.6773 47.388C89.6773 47.0147 89.6306 46.646 89.5373 46.282C89.4533 45.9087 89.3086 45.5773 89.1033 45.288C88.9073 44.9987 88.6459 44.7653 88.3193 44.588C88.0019 44.4013 87.6099 44.308 87.1433 44.308C86.7233 44.308 86.3639 44.4013 86.0653 44.588C85.7666 44.7653 85.5193 44.9987 85.3233 45.288C85.1366 45.5773 84.9966 45.9087 84.9033 46.282C84.8193 46.646 84.7773 47.0147 84.7773 47.388ZM95.2943 44.308C94.8743 44.308 94.5057 44.3967 94.1883 44.574C93.871 44.7513 93.605 44.9847 93.3903 45.274C93.185 45.5633 93.0263 45.8947 92.9143 46.268C92.8117 46.632 92.7603 47.0053 92.7603 47.388C92.7603 47.7707 92.8117 48.1487 92.9143 48.522C93.0263 48.886 93.185 49.2127 93.3903 49.502C93.605 49.7913 93.871 50.0247 94.1883 50.202C94.5057 50.3793 94.8743 50.468 95.2943 50.468C95.7143 50.468 96.083 50.3793 96.4003 50.202C96.7177 50.0247 96.979 49.7913 97.1843 49.502C97.399 49.2127 97.5577 48.886 97.6603 48.522C97.7723 48.1487 97.8283 47.7707 97.8283 47.388C97.8283 47.0053 97.7723 46.632 97.6603 46.268C97.5577 45.8947 97.399 45.5633 97.1843 45.274C96.979 44.9847 96.7177 44.7513 96.4003 44.574C96.083 44.3967 95.7143 44.308 95.2943 44.308ZM95.2943 43.566C95.845 43.566 96.3303 43.6687 96.7503 43.874C97.1797 44.0793 97.539 44.3547 97.8283 44.7C98.1177 45.0453 98.337 45.4513 98.4863 45.918C98.6357 46.3753 98.7103 46.8653 98.7103 47.388C98.7103 47.9107 98.6357 48.4053 98.4863 48.872C98.337 49.3293 98.1177 49.7307 97.8283 50.076C97.539 50.4213 97.1797 50.6967 96.7503 50.902C96.3303 51.098 95.845 51.196 95.2943 51.196C94.7437 51.196 94.2537 51.098 93.8243 50.902C93.4043 50.6967 93.0497 50.4213 92.7603 50.076C92.471 49.7307 92.2517 49.3293 92.1023 48.872C91.953 48.4053 91.8783 47.9107 91.8783 47.388C91.8783 46.8653 91.953 46.3753 92.1023 45.918C92.2517 45.4513 92.471 45.0453 92.7603 44.7C93.0497 44.3547 93.4043 44.0793 93.8243 43.874C94.2537 43.6687 94.7437 43.566 95.2943 43.566ZM109.77 51H108.958V49.698H108.93C108.697 50.1833 108.356 50.5567 107.908 50.818C107.469 51.07 106.979 51.196 106.438 51.196C105.981 51.196 105.589 51.1307 105.262 51C104.945 50.8787 104.683 50.7013 104.478 50.468C104.282 50.2347 104.137 49.95 104.044 49.614C103.951 49.278 103.904 48.8953 103.904 48.466V43.776H104.786V48.48C104.805 49.1333 104.954 49.628 105.234 49.964C105.523 50.3 106.018 50.468 106.718 50.468C107.101 50.468 107.427 50.3887 107.698 50.23C107.969 50.062 108.193 49.8427 108.37 49.572C108.547 49.3013 108.678 48.9933 108.762 48.648C108.846 48.2933 108.888 47.934 108.888 47.57V43.776H109.77V51ZM111.424 43.776H112.306V45.022H112.334C112.502 44.5833 112.8 44.2333 113.23 43.972C113.659 43.7013 114.13 43.566 114.644 43.566C115.148 43.566 115.568 43.6313 115.904 43.762C116.249 43.8927 116.524 44.0793 116.73 44.322C116.935 44.5553 117.08 44.8447 117.164 45.19C117.248 45.5353 117.29 45.9227 117.29 46.352V51H116.408V46.492C116.408 46.184 116.38 45.8993 116.324 45.638C116.268 45.3673 116.17 45.134 116.03 44.938C115.89 44.742 115.698 44.588 115.456 44.476C115.222 44.364 114.928 44.308 114.574 44.308C114.219 44.308 113.902 44.3733 113.622 44.504C113.351 44.6253 113.118 44.798 112.922 45.022C112.735 45.2367 112.586 45.498 112.474 45.806C112.371 46.1047 112.315 46.4313 112.306 46.786V51H111.424V43.776ZM128.706 51H127.894V49.698H127.866C127.632 50.1833 127.292 50.5567 126.844 50.818C126.405 51.07 125.915 51.196 125.374 51.196C124.916 51.196 124.524 51.1307 124.198 51C123.88 50.8787 123.619 50.7013 123.414 50.468C123.218 50.2347 123.073 49.95 122.98 49.614C122.886 49.278 122.84 48.8953 122.84 48.466V43.776H123.722V48.48C123.74 49.1333 123.89 49.628 124.17 49.964C124.459 50.3 124.954 50.468 125.654 50.468C126.036 50.468 126.363 50.3887 126.634 50.23C126.904 50.062 127.128 49.8427 127.306 49.572C127.483 49.3013 127.614 48.9933 127.698 48.648C127.782 48.2933 127.824 47.934 127.824 47.57V43.776H128.706V51ZM134.699 45.89C134.69 45.6193 134.634 45.386 134.531 45.19C134.429 44.9847 134.289 44.8167 134.111 44.686C133.943 44.5553 133.747 44.462 133.523 44.406C133.299 44.3407 133.061 44.308 132.809 44.308C132.613 44.308 132.413 44.3313 132.207 44.378C132.011 44.4153 131.829 44.4853 131.661 44.588C131.493 44.6813 131.358 44.8073 131.255 44.966C131.153 45.1247 131.101 45.3207 131.101 45.554C131.101 45.75 131.148 45.918 131.241 46.058C131.344 46.1887 131.47 46.3007 131.619 46.394C131.769 46.4873 131.932 46.5667 132.109 46.632C132.287 46.688 132.45 46.7347 132.599 46.772L133.775 47.038C134.027 47.0753 134.275 47.1453 134.517 47.248C134.769 47.3413 134.989 47.4673 135.175 47.626C135.371 47.7847 135.53 47.9807 135.651 48.214C135.773 48.4473 135.833 48.7227 135.833 49.04C135.833 49.432 135.745 49.768 135.567 50.048C135.39 50.3187 135.161 50.5427 134.881 50.72C134.611 50.888 134.303 51.0093 133.957 51.084C133.612 51.1587 133.271 51.196 132.935 51.196C132.086 51.196 131.395 50.9953 130.863 50.594C130.341 50.1927 130.042 49.5487 129.967 48.662H130.849C130.887 49.2593 131.101 49.712 131.493 50.02C131.895 50.3187 132.389 50.468 132.977 50.468C133.192 50.468 133.411 50.4447 133.635 50.398C133.869 50.3513 134.083 50.272 134.279 50.16C134.475 50.048 134.634 49.908 134.755 49.74C134.886 49.5627 134.951 49.348 134.951 49.096C134.951 48.8813 134.905 48.704 134.811 48.564C134.727 48.4147 134.611 48.2933 134.461 48.2C134.312 48.0973 134.139 48.0133 133.943 47.948C133.757 47.8827 133.565 47.8267 133.369 47.78L132.235 47.528C131.946 47.4533 131.68 47.3693 131.437 47.276C131.195 47.1733 130.98 47.052 130.793 46.912C130.616 46.7627 130.476 46.5853 130.373 46.38C130.271 46.1653 130.219 45.904 130.219 45.596C130.219 45.232 130.299 44.9193 130.457 44.658C130.625 44.3967 130.84 44.1867 131.101 44.028C131.363 43.8693 131.652 43.7527 131.969 43.678C132.296 43.6033 132.618 43.566 132.935 43.566C133.299 43.566 133.635 43.6127 133.943 43.706C134.261 43.7993 134.536 43.944 134.769 44.14C135.012 44.336 135.203 44.5787 135.343 44.868C135.483 45.1573 135.563 45.498 135.581 45.89H134.699ZM140.165 44.308C139.745 44.308 139.377 44.3967 139.059 44.574C138.742 44.7513 138.476 44.9847 138.261 45.274C138.056 45.5633 137.897 45.8947 137.785 46.268C137.683 46.632 137.631 47.0053 137.631 47.388C137.631 47.7707 137.683 48.1487 137.785 48.522C137.897 48.886 138.056 49.2127 138.261 49.502C138.476 49.7913 138.742 50.0247 139.059 50.202C139.377 50.3793 139.745 50.468 140.165 50.468C140.585 50.468 140.954 50.3793 141.271 50.202C141.589 50.0247 141.85 49.7913 142.055 49.502C142.27 49.2127 142.429 48.886 142.531 48.522C142.643 48.1487 142.699 47.7707 142.699 47.388C142.699 47.0053 142.643 46.632 142.531 46.268C142.429 45.8947 142.27 45.5633 142.055 45.274C141.85 44.9847 141.589 44.7513 141.271 44.574C140.954 44.3967 140.585 44.308 140.165 44.308ZM140.165 43.566C140.716 43.566 141.201 43.6687 141.621 43.874C142.051 44.0793 142.41 44.3547 142.699 44.7C142.989 45.0453 143.208 45.4513 143.357 45.918C143.507 46.3753 143.581 46.8653 143.581 47.388C143.581 47.9107 143.507 48.4053 143.357 48.872C143.208 49.3293 142.989 49.7307 142.699 50.076C142.41 50.4213 142.051 50.6967 141.621 50.902C141.201 51.098 140.716 51.196 140.165 51.196C139.615 51.196 139.125 51.098 138.695 50.902C138.275 50.6967 137.921 50.4213 137.631 50.076C137.342 49.7307 137.123 49.3293 136.973 48.872C136.824 48.4053 136.749 47.9107 136.749 47.388C136.749 46.8653 136.824 46.3753 136.973 45.918C137.123 45.4513 137.342 45.0453 137.631 44.7C137.921 44.3547 138.275 44.0793 138.695 43.874C139.125 43.6687 139.615 43.566 140.165 43.566ZM155.145 51H154.333V49.628H154.305C154.212 49.8613 154.072 50.076 153.885 50.272C153.708 50.468 153.503 50.636 153.269 50.776C153.036 50.9067 152.784 51.0093 152.513 51.084C152.252 51.1587 151.991 51.196 151.729 51.196C151.179 51.196 150.698 51.098 150.287 50.902C149.886 50.6967 149.55 50.4213 149.279 50.076C149.009 49.7213 148.808 49.3153 148.677 48.858C148.547 48.3913 148.481 47.9013 148.481 47.388C148.481 46.8747 148.547 46.3893 148.677 45.932C148.808 45.4653 149.009 45.0593 149.279 44.714C149.55 44.3593 149.886 44.0793 150.287 43.874C150.698 43.6687 151.179 43.566 151.729 43.566C152 43.566 152.261 43.5987 152.513 43.664C152.775 43.7293 153.017 43.832 153.241 43.972C153.465 44.1027 153.661 44.266 153.829 44.462C154.007 44.658 154.142 44.8867 154.235 45.148H154.263V41.004H155.145V51ZM149.363 47.388C149.363 47.7613 149.405 48.1347 149.489 48.508C149.583 48.872 149.723 49.1987 149.909 49.488C150.105 49.7773 150.353 50.0153 150.651 50.202C150.95 50.3793 151.309 50.468 151.729 50.468C152.196 50.468 152.588 50.3793 152.905 50.202C153.232 50.0153 153.493 49.7773 153.689 49.488C153.895 49.1987 154.039 48.872 154.123 48.508C154.217 48.1347 154.263 47.7613 154.263 47.388C154.263 47.0147 154.217 46.646 154.123 46.282C154.039 45.9087 153.895 45.5773 153.689 45.288C153.493 44.9987 153.232 44.7653 152.905 44.588C152.588 44.4013 152.196 44.308 151.729 44.308C151.309 44.308 150.95 44.4013 150.651 44.588C150.353 44.7653 150.105 44.9987 149.909 45.288C149.723 45.5773 149.583 45.9087 149.489 46.282C149.405 46.646 149.363 47.0147 149.363 47.388ZM156.842 41.004H157.724V42.418H156.842V41.004ZM156.842 43.776H157.724V51H156.842V43.776ZM162.198 44.518H160.77V51H159.888V44.518H158.656V43.776H159.888V43.118C159.888 42.81 159.912 42.5253 159.958 42.264C160.005 42.0027 160.094 41.7787 160.224 41.592C160.355 41.4053 160.532 41.2607 160.756 41.158C160.99 41.0553 161.284 41.004 161.638 41.004C161.769 41.004 161.89 41.0087 162.002 41.018C162.114 41.0273 162.24 41.0413 162.38 41.06V41.816C162.259 41.7973 162.147 41.7833 162.044 41.774C161.942 41.7553 161.839 41.746 161.736 41.746C161.494 41.746 161.307 41.7833 161.176 41.858C161.046 41.9327 160.948 42.0353 160.882 42.166C160.826 42.2873 160.794 42.432 160.784 42.6C160.775 42.768 160.77 42.95 160.77 43.146V43.776H162.198V44.518ZM168.229 46.884C168.22 46.548 168.159 46.226 168.047 45.918C167.945 45.61 167.795 45.3393 167.599 45.106C167.403 44.8633 167.165 44.672 166.885 44.532C166.605 44.3827 166.288 44.308 165.933 44.308C165.569 44.308 165.247 44.3827 164.967 44.532C164.687 44.672 164.449 44.8633 164.253 45.106C164.057 45.3393 163.899 45.6147 163.777 45.932C163.665 46.24 163.591 46.5573 163.553 46.884H168.229ZM163.553 47.626C163.553 47.9433 163.595 48.2747 163.679 48.62C163.773 48.956 163.917 49.2593 164.113 49.53C164.309 49.8007 164.557 50.0247 164.855 50.202C165.154 50.3793 165.513 50.468 165.933 50.468C166.577 50.468 167.081 50.3 167.445 49.964C167.809 49.628 168.061 49.18 168.201 48.62H169.083C168.897 49.4413 168.551 50.076 168.047 50.524C167.553 50.972 166.848 51.196 165.933 51.196C165.364 51.196 164.869 51.098 164.449 50.902C164.039 50.6967 163.703 50.4213 163.441 50.076C163.18 49.7213 162.984 49.3153 162.853 48.858C162.732 48.3913 162.671 47.9013 162.671 47.388C162.671 46.912 162.732 46.4453 162.853 45.988C162.984 45.5307 163.18 45.1247 163.441 44.77C163.703 44.406 164.039 44.1167 164.449 43.902C164.869 43.678 165.364 43.566 165.933 43.566C166.512 43.566 167.007 43.6827 167.417 43.916C167.828 44.1493 168.159 44.4573 168.411 44.84C168.673 45.2133 168.859 45.6473 168.971 46.142C169.083 46.6273 169.13 47.122 169.111 47.626H163.553ZM170.295 43.776H171.107V45.47H171.135C171.359 44.882 171.704 44.4293 172.171 44.112C172.647 43.7947 173.212 43.65 173.865 43.678V44.56C173.464 44.5413 173.1 44.5973 172.773 44.728C172.446 44.8493 172.162 45.0267 171.919 45.26C171.686 45.4933 171.504 45.7733 171.373 46.1C171.242 46.4173 171.177 46.7673 171.177 47.15V51H170.295V43.776ZM179.659 46.884C179.65 46.548 179.589 46.226 179.477 45.918C179.374 45.61 179.225 45.3393 179.029 45.106C178.833 44.8633 178.595 44.672 178.315 44.532C178.035 44.3827 177.718 44.308 177.363 44.308C176.999 44.308 176.677 44.3827 176.397 44.532C176.117 44.672 175.879 44.8633 175.683 45.106C175.487 45.3393 175.328 45.6147 175.207 45.932C175.095 46.24 175.02 46.5573 174.983 46.884H179.659ZM174.983 47.626C174.983 47.9433 175.025 48.2747 175.109 48.62C175.202 48.956 175.347 49.2593 175.543 49.53C175.739 49.8007 175.986 50.0247 176.285 50.202C176.584 50.3793 176.943 50.468 177.363 50.468C178.007 50.468 178.511 50.3 178.875 49.964C179.239 49.628 179.491 49.18 179.631 48.62H180.513C180.326 49.4413 179.981 50.076 179.477 50.524C178.982 50.972 178.278 51.196 177.363 51.196C176.794 51.196 176.299 51.098 175.879 50.902C175.468 50.6967 175.132 50.4213 174.871 50.076C174.61 49.7213 174.414 49.3153 174.283 48.858C174.162 48.3913 174.101 47.9013 174.101 47.388C174.101 46.912 174.162 46.4453 174.283 45.988C174.414 45.5307 174.61 45.1247 174.871 44.77C175.132 44.406 175.468 44.1167 175.879 43.902C176.299 43.678 176.794 43.566 177.363 43.566C177.942 43.566 178.436 43.6827 178.847 43.916C179.258 44.1493 179.589 44.4573 179.841 44.84C180.102 45.2133 180.289 45.6473 180.401 46.142C180.513 46.6273 180.56 47.122 180.541 47.626H174.983ZM181.711 43.776H182.593V45.022H182.621C182.789 44.5833 183.087 44.2333 183.517 43.972C183.946 43.7013 184.417 43.566 184.931 43.566C185.435 43.566 185.855 43.6313 186.191 43.762C186.536 43.8927 186.811 44.0793 187.017 44.322C187.222 44.5553 187.367 44.8447 187.451 45.19C187.535 45.5353 187.577 45.9227 187.577 46.352V51H186.695V46.492C186.695 46.184 186.667 45.8993 186.611 45.638C186.555 45.3673 186.457 45.134 186.317 44.938C186.177 44.742 185.985 44.588 185.743 44.476C185.509 44.364 185.215 44.308 184.861 44.308C184.506 44.308 184.189 44.3733 183.909 44.504C183.638 44.6253 183.405 44.798 183.209 45.022C183.022 45.2367 182.873 45.498 182.761 45.806C182.658 46.1047 182.602 46.4313 182.593 46.786V51H181.711V43.776ZM190.644 43.776H192.114V44.518H190.644V49.39C190.644 49.6793 190.682 49.908 190.756 50.076C190.84 50.2347 191.041 50.3233 191.358 50.342C191.61 50.342 191.862 50.328 192.114 50.3V51.042C191.984 51.042 191.853 51.0467 191.722 51.056C191.592 51.0653 191.461 51.07 191.33 51.07C190.742 51.07 190.332 50.958 190.098 50.734C189.865 50.5007 189.753 50.076 189.762 49.46V44.518H188.502V43.776H189.762V41.606H190.644V43.776ZM198.581 46.884C198.572 46.548 198.511 46.226 198.399 45.918C198.296 45.61 198.147 45.3393 197.951 45.106C197.755 44.8633 197.517 44.672 197.237 44.532C196.957 44.3827 196.64 44.308 196.285 44.308C195.921 44.308 195.599 44.3827 195.319 44.532C195.039 44.672 194.801 44.8633 194.605 45.106C194.409 45.3393 194.25 45.6147 194.129 45.932C194.017 46.24 193.942 46.5573 193.905 46.884H198.581ZM193.905 47.626C193.905 47.9433 193.947 48.2747 194.031 48.62C194.124 48.956 194.269 49.2593 194.465 49.53C194.661 49.8007 194.908 50.0247 195.207 50.202C195.506 50.3793 195.865 50.468 196.285 50.468C196.929 50.468 197.433 50.3 197.797 49.964C198.161 49.628 198.413 49.18 198.553 48.62H199.435C199.248 49.4413 198.903 50.076 198.399 50.524C197.904 50.972 197.2 51.196 196.285 51.196C195.716 51.196 195.221 51.098 194.801 50.902C194.39 50.6967 194.054 50.4213 193.793 50.076C193.532 49.7213 193.336 49.3153 193.205 48.858C193.084 48.3913 193.023 47.9013 193.023 47.388C193.023 46.912 193.084 46.4453 193.205 45.988C193.336 45.5307 193.532 45.1247 193.793 44.77C194.054 44.406 194.39 44.1167 194.801 43.902C195.221 43.678 195.716 43.566 196.285 43.566C196.864 43.566 197.358 43.6827 197.769 43.916C198.18 44.1493 198.511 44.4573 198.763 44.84C199.024 45.2133 199.211 45.6473 199.323 46.142C199.435 46.6273 199.482 47.122 199.463 47.626H193.905ZM59.756 60.988C59.784 60.568 59.8727 60.204 60.022 59.896C60.1713 59.588 60.372 59.336 60.624 59.14C60.8853 58.944 61.1887 58.7993 61.534 58.706C61.8793 58.6127 62.262 58.566 62.682 58.566C62.9993 58.566 63.3167 58.5987 63.634 58.664C63.9513 58.72 64.236 58.832 64.488 59C64.74 59.168 64.9453 59.406 65.104 59.714C65.2627 60.0127 65.342 60.4047 65.342 60.89V64.726C65.342 65.0807 65.5147 65.258 65.86 65.258C65.9627 65.258 66.056 65.2393 66.14 65.202V65.944C66.0373 65.9627 65.944 65.9767 65.86 65.986C65.7853 65.9953 65.6873 66 65.566 66C65.342 66 65.16 65.972 65.02 65.916C64.8893 65.8507 64.7867 65.762 64.712 65.65C64.6373 65.538 64.586 65.4073 64.558 65.258C64.5393 65.0993 64.53 64.9267 64.53 64.74H64.502C64.3433 64.9733 64.18 65.1833 64.012 65.37C63.8533 65.5473 63.6713 65.6967 63.466 65.818C63.27 65.9393 63.0413 66.0327 62.78 66.098C62.528 66.1633 62.2247 66.196 61.87 66.196C61.534 66.196 61.2167 66.154 60.918 66.07C60.6287 65.9953 60.372 65.874 60.148 65.706C59.9333 65.5287 59.7607 65.3093 59.63 65.048C59.5087 64.7773 59.448 64.46 59.448 64.096C59.448 63.592 59.56 63.2 59.784 62.92C60.008 62.6307 60.302 62.4113 60.666 62.262C61.0393 62.1127 61.4547 62.01 61.912 61.954C62.3787 61.8887 62.85 61.828 63.326 61.772C63.5127 61.7533 63.676 61.73 63.816 61.702C63.956 61.674 64.0727 61.6273 64.166 61.562C64.2593 61.4873 64.3293 61.3893 64.376 61.268C64.432 61.1467 64.46 60.988 64.46 60.792C64.46 60.4933 64.4087 60.2507 64.306 60.064C64.2127 59.868 64.0773 59.714 63.9 59.602C63.732 59.49 63.5313 59.4153 63.298 59.378C63.074 59.3313 62.8313 59.308 62.57 59.308C62.01 59.308 61.5527 59.4433 61.198 59.714C60.8433 59.9753 60.6567 60.4 60.638 60.988H59.756ZM64.46 62.052H64.432C64.376 62.1547 64.2687 62.2293 64.11 62.276C63.9513 62.3227 63.8113 62.3553 63.69 62.374C63.3167 62.4393 62.9293 62.5 62.528 62.556C62.136 62.6027 61.7767 62.6773 61.45 62.78C61.1233 62.8827 60.8527 63.032 60.638 63.228C60.4327 63.4147 60.33 63.6853 60.33 64.04C60.33 64.264 60.372 64.4647 60.456 64.642C60.5493 64.81 60.6707 64.9593 60.82 65.09C60.9693 65.2113 61.142 65.3047 61.338 65.37C61.534 65.4353 61.7347 65.468 61.94 65.468C62.276 65.468 62.598 65.4167 62.906 65.314C63.214 65.2113 63.48 65.062 63.704 64.866C63.9373 64.67 64.1193 64.432 64.25 64.152C64.39 63.872 64.46 63.5547 64.46 63.2V62.052ZM76.0923 61.044C75.9709 60.5027 75.7469 60.078 75.4203 59.77C75.0936 59.462 74.6363 59.308 74.0483 59.308C73.6283 59.308 73.2596 59.3967 72.9423 59.574C72.6249 59.7513 72.3589 59.9847 72.1443 60.274C71.9389 60.5633 71.7803 60.8947 71.6683 61.268C71.5656 61.632 71.5143 62.0053 71.5143 62.388C71.5143 62.7707 71.5656 63.1487 71.6683 63.522C71.7803 63.886 71.9389 64.2127 72.1443 64.502C72.3589 64.7913 72.6249 65.0247 72.9423 65.202C73.2596 65.3793 73.6283 65.468 74.0483 65.468C74.3189 65.468 74.5756 65.4167 74.8183 65.314C75.0609 65.2113 75.2756 65.0713 75.4623 64.894C75.6489 64.7073 75.8029 64.488 75.9243 64.236C76.0456 63.984 76.1203 63.7087 76.1483 63.41H77.0303C76.9089 64.2873 76.5869 64.9733 76.0643 65.468C75.5416 65.9533 74.8696 66.196 74.0483 66.196C73.4976 66.196 73.0076 66.098 72.5783 65.902C72.1583 65.6967 71.8036 65.4213 71.5143 65.076C71.2249 64.7307 71.0056 64.3293 70.8563 63.872C70.7069 63.4053 70.6323 62.9107 70.6323 62.388C70.6323 61.8653 70.7069 61.3753 70.8563 60.918C71.0056 60.4513 71.2249 60.0453 71.5143 59.7C71.8036 59.3547 72.1583 59.0793 72.5783 58.874C73.0076 58.6687 73.4976 58.566 74.0483 58.566C74.8229 58.566 75.4763 58.7713 76.0083 59.182C76.5496 59.5927 76.8716 60.2133 76.9743 61.044H76.0923ZM78.172 60.988C78.2 60.568 78.2887 60.204 78.438 59.896C78.5873 59.588 78.788 59.336 79.04 59.14C79.3013 58.944 79.6047 58.7993 79.95 58.706C80.2953 58.6127 80.678 58.566 81.098 58.566C81.4153 58.566 81.7327 58.5987 82.05 58.664C82.3673 58.72 82.652 58.832 82.904 59C83.156 59.168 83.3613 59.406 83.52 59.714C83.6787 60.0127 83.758 60.4047 83.758 60.89V64.726C83.758 65.0807 83.9307 65.258 84.276 65.258C84.3787 65.258 84.472 65.2393 84.556 65.202V65.944C84.4533 65.9627 84.36 65.9767 84.276 65.986C84.2013 65.9953 84.1033 66 83.982 66C83.758 66 83.576 65.972 83.436 65.916C83.3053 65.8507 83.2027 65.762 83.128 65.65C83.0533 65.538 83.002 65.4073 82.974 65.258C82.9553 65.0993 82.946 64.9267 82.946 64.74H82.918C82.7593 64.9733 82.596 65.1833 82.428 65.37C82.2693 65.5473 82.0873 65.6967 81.882 65.818C81.686 65.9393 81.4573 66.0327 81.196 66.098C80.944 66.1633 80.6407 66.196 80.286 66.196C79.95 66.196 79.6327 66.154 79.334 66.07C79.0447 65.9953 78.788 65.874 78.564 65.706C78.3493 65.5287 78.1767 65.3093 78.046 65.048C77.9247 64.7773 77.864 64.46 77.864 64.096C77.864 63.592 77.976 63.2 78.2 62.92C78.424 62.6307 78.718 62.4113 79.082 62.262C79.4553 62.1127 79.8707 62.01 80.328 61.954C80.7947 61.8887 81.266 61.828 81.742 61.772C81.9287 61.7533 82.092 61.73 82.232 61.702C82.372 61.674 82.4887 61.6273 82.582 61.562C82.6753 61.4873 82.7453 61.3893 82.792 61.268C82.848 61.1467 82.876 60.988 82.876 60.792C82.876 60.4933 82.8247 60.2507 82.722 60.064C82.6287 59.868 82.4933 59.714 82.316 59.602C82.148 59.49 81.9473 59.4153 81.714 59.378C81.49 59.3313 81.2473 59.308 80.986 59.308C80.426 59.308 79.9687 59.4433 79.614 59.714C79.2593 59.9753 79.0727 60.4 79.054 60.988H78.172ZM82.876 62.052H82.848C82.792 62.1547 82.6847 62.2293 82.526 62.276C82.3673 62.3227 82.2273 62.3553 82.106 62.374C81.7327 62.4393 81.3453 62.5 80.944 62.556C80.552 62.6027 80.1927 62.6773 79.866 62.78C79.5393 62.8827 79.2687 63.032 79.054 63.228C78.8487 63.4147 78.746 63.6853 78.746 64.04C78.746 64.264 78.788 64.4647 78.872 64.642C78.9653 64.81 79.0867 64.9593 79.236 65.09C79.3853 65.2113 79.558 65.3047 79.754 65.37C79.95 65.4353 80.1507 65.468 80.356 65.468C80.692 65.468 81.014 65.4167 81.322 65.314C81.63 65.2113 81.896 65.062 82.12 64.866C82.3533 64.67 82.5353 64.432 82.666 64.152C82.806 63.872 82.876 63.5547 82.876 63.2V62.052ZM91.8718 66H91.0598V64.628H91.0318C90.9384 64.8613 90.7984 65.076 90.6118 65.272C90.4344 65.468 90.2291 65.636 89.9958 65.776C89.7624 65.9067 89.5104 66.0093 89.2398 66.084C88.9784 66.1587 88.7171 66.196 88.4558 66.196C87.9051 66.196 87.4244 66.098 87.0138 65.902C86.6124 65.6967 86.2764 65.4213 86.0058 65.076C85.7351 64.7213 85.5344 64.3153 85.4038 63.858C85.2731 63.3913 85.2078 62.9013 85.2078 62.388C85.2078 61.8747 85.2731 61.3893 85.4038 60.932C85.5344 60.4653 85.7351 60.0593 86.0058 59.714C86.2764 59.3593 86.6124 59.0793 87.0138 58.874C87.4244 58.6687 87.9051 58.566 88.4558 58.566C88.7264 58.566 88.9878 58.5987 89.2398 58.664C89.5011 58.7293 89.7438 58.832 89.9678 58.972C90.1918 59.1027 90.3878 59.266 90.5558 59.462C90.7331 59.658 90.8684 59.8867 90.9618 60.148H90.9898V56.004H91.8718V66ZM86.0898 62.388C86.0898 62.7613 86.1318 63.1347 86.2158 63.508C86.3091 63.872 86.4491 64.1987 86.6358 64.488C86.8318 64.7773 87.0791 65.0153 87.3778 65.202C87.6764 65.3793 88.0358 65.468 88.4558 65.468C88.9224 65.468 89.3144 65.3793 89.6318 65.202C89.9584 65.0153 90.2198 64.7773 90.4158 64.488C90.6211 64.1987 90.7658 63.872 90.8498 63.508C90.9431 63.1347 90.9898 62.7613 90.9898 62.388C90.9898 62.0147 90.9431 61.646 90.8498 61.282C90.7658 60.9087 90.6211 60.5773 90.4158 60.288C90.2198 59.9987 89.9584 59.7653 89.6318 59.588C89.3144 59.4013 88.9224 59.308 88.4558 59.308C88.0358 59.308 87.6764 59.4013 87.3778 59.588C87.0791 59.7653 86.8318 59.9987 86.6358 60.288C86.4491 60.5773 86.3091 60.9087 86.2158 61.282C86.1318 61.646 86.0898 62.0147 86.0898 62.388ZM93.4708 60.988C93.4988 60.568 93.5875 60.204 93.7368 59.896C93.8862 59.588 94.0868 59.336 94.3388 59.14C94.6002 58.944 94.9035 58.7993 95.2488 58.706C95.5942 58.6127 95.9768 58.566 96.3968 58.566C96.7142 58.566 97.0315 58.5987 97.3488 58.664C97.6662 58.72 97.9508 58.832 98.2028 59C98.4548 59.168 98.6602 59.406 98.8188 59.714C98.9775 60.0127 99.0568 60.4047 99.0568 60.89V64.726C99.0568 65.0807 99.2295 65.258 99.5748 65.258C99.6775 65.258 99.7708 65.2393 99.8548 65.202V65.944C99.7522 65.9627 99.6588 65.9767 99.5748 65.986C99.5002 65.9953 99.4022 66 99.2808 66C99.0568 66 98.8748 65.972 98.7348 65.916C98.6042 65.8507 98.5015 65.762 98.4268 65.65C98.3522 65.538 98.3008 65.4073 98.2728 65.258C98.2542 65.0993 98.2448 64.9267 98.2448 64.74H98.2168C98.0582 64.9733 97.8948 65.1833 97.7268 65.37C97.5682 65.5473 97.3862 65.6967 97.1808 65.818C96.9848 65.9393 96.7562 66.0327 96.4948 66.098C96.2428 66.1633 95.9395 66.196 95.5848 66.196C95.2488 66.196 94.9315 66.154 94.6328 66.07C94.3435 65.9953 94.0868 65.874 93.8628 65.706C93.6482 65.5287 93.4755 65.3093 93.3448 65.048C93.2235 64.7773 93.1628 64.46 93.1628 64.096C93.1628 63.592 93.2748 63.2 93.4988 62.92C93.7228 62.6307 94.0168 62.4113 94.3808 62.262C94.7542 62.1127 95.1695 62.01 95.6268 61.954C96.0935 61.8887 96.5648 61.828 97.0408 61.772C97.2275 61.7533 97.3908 61.73 97.5308 61.702C97.6708 61.674 97.7875 61.6273 97.8808 61.562C97.9742 61.4873 98.0442 61.3893 98.0908 61.268C98.1468 61.1467 98.1748 60.988 98.1748 60.792C98.1748 60.4933 98.1235 60.2507 98.0208 60.064C97.9275 59.868 97.7922 59.714 97.6148 59.602C97.4468 59.49 97.2462 59.4153 97.0128 59.378C96.7888 59.3313 96.5462 59.308 96.2848 59.308C95.7248 59.308 95.2675 59.4433 94.9128 59.714C94.5582 59.9753 94.3715 60.4 94.3528 60.988H93.4708ZM98.1748 62.052H98.1468C98.0908 62.1547 97.9835 62.2293 97.8248 62.276C97.6662 62.3227 97.5262 62.3553 97.4048 62.374C97.0315 62.4393 96.6442 62.5 96.2428 62.556C95.8508 62.6027 95.4915 62.6773 95.1648 62.78C94.8382 62.8827 94.5675 63.032 94.3528 63.228C94.1475 63.4147 94.0448 63.6853 94.0448 64.04C94.0448 64.264 94.0868 64.4647 94.1708 64.642C94.2642 64.81 94.3855 64.9593 94.5348 65.09C94.6842 65.2113 94.8568 65.3047 95.0528 65.37C95.2488 65.4353 95.4495 65.468 95.6548 65.468C95.9908 65.468 96.3128 65.4167 96.6208 65.314C96.9288 65.2113 97.1948 65.062 97.4188 64.866C97.6522 64.67 97.8342 64.432 97.9648 64.152C98.1048 63.872 98.1748 63.5547 98.1748 63.2V62.052ZM109.905 61.884C109.896 61.548 109.835 61.226 109.723 60.918C109.62 60.61 109.471 60.3393 109.275 60.106C109.079 59.8633 108.841 59.672 108.561 59.532C108.281 59.3827 107.964 59.308 107.609 59.308C107.245 59.308 106.923 59.3827 106.643 59.532C106.363 59.672 106.125 59.8633 105.929 60.106C105.733 60.3393 105.574 60.6147 105.453 60.932C105.341 61.24 105.266 61.5573 105.229 61.884H109.905ZM105.229 62.626C105.229 62.9433 105.271 63.2747 105.355 63.62C105.448 63.956 105.593 64.2593 105.789 64.53C105.985 64.8007 106.232 65.0247 106.531 65.202C106.83 65.3793 107.189 65.468 107.609 65.468C108.253 65.468 108.757 65.3 109.121 64.964C109.485 64.628 109.737 64.18 109.877 63.62H110.759C110.572 64.4413 110.227 65.076 109.723 65.524C109.228 65.972 108.524 66.196 107.609 66.196C107.04 66.196 106.545 66.098 106.125 65.902C105.714 65.6967 105.378 65.4213 105.117 65.076C104.856 64.7213 104.66 64.3153 104.529 63.858C104.408 63.3913 104.347 62.9013 104.347 62.388C104.347 61.912 104.408 61.4453 104.529 60.988C104.66 60.5307 104.856 60.1247 105.117 59.77C105.378 59.406 105.714 59.1167 106.125 58.902C106.545 58.678 107.04 58.566 107.609 58.566C108.188 58.566 108.682 58.6827 109.093 58.916C109.504 59.1493 109.835 59.4573 110.087 59.84C110.348 60.2133 110.535 60.6473 110.647 61.142C110.759 61.6273 110.806 62.122 110.787 62.626H105.229ZM116.297 60.89C116.288 60.6193 116.232 60.386 116.129 60.19C116.026 59.9847 115.886 59.8167 115.709 59.686C115.541 59.5553 115.345 59.462 115.121 59.406C114.897 59.3407 114.659 59.308 114.407 59.308C114.211 59.308 114.01 59.3313 113.805 59.378C113.609 59.4153 113.427 59.4853 113.259 59.588C113.091 59.6813 112.956 59.8073 112.853 59.966C112.75 60.1247 112.699 60.3207 112.699 60.554C112.699 60.75 112.746 60.918 112.839 61.058C112.942 61.1887 113.068 61.3007 113.217 61.394C113.366 61.4873 113.53 61.5667 113.707 61.632C113.884 61.688 114.048 61.7347 114.197 61.772L115.373 62.038C115.625 62.0753 115.872 62.1453 116.115 62.248C116.367 62.3413 116.586 62.4673 116.773 62.626C116.969 62.7847 117.128 62.9807 117.249 63.214C117.37 63.4473 117.431 63.7227 117.431 64.04C117.431 64.432 117.342 64.768 117.165 65.048C116.988 65.3187 116.759 65.5427 116.479 65.72C116.208 65.888 115.9 66.0093 115.555 66.084C115.21 66.1587 114.869 66.196 114.533 66.196C113.684 66.196 112.993 65.9953 112.461 65.594C111.938 65.1927 111.64 64.5487 111.565 63.662H112.447C112.484 64.2593 112.699 64.712 113.091 65.02C113.492 65.3187 113.987 65.468 114.575 65.468C114.79 65.468 115.009 65.4447 115.233 65.398C115.466 65.3513 115.681 65.272 115.877 65.16C116.073 65.048 116.232 64.908 116.353 64.74C116.484 64.5627 116.549 64.348 116.549 64.096C116.549 63.8813 116.502 63.704 116.409 63.564C116.325 63.4147 116.208 63.2933 116.059 63.2C115.91 63.0973 115.737 63.0133 115.541 62.948C115.354 62.8827 115.163 62.8267 114.967 62.78L113.833 62.528C113.544 62.4533 113.278 62.3693 113.035 62.276C112.792 62.1733 112.578 62.052 112.391 61.912C112.214 61.7627 112.074 61.5853 111.971 61.38C111.868 61.1653 111.817 60.904 111.817 60.596C111.817 60.232 111.896 59.9193 112.055 59.658C112.223 59.3967 112.438 59.1867 112.699 59.028C112.96 58.8693 113.25 58.7527 113.567 58.678C113.894 58.6033 114.216 58.566 114.533 58.566C114.897 58.566 115.233 58.6127 115.541 58.706C115.858 58.7993 116.134 58.944 116.367 59.14C116.61 59.336 116.801 59.5787 116.941 59.868C117.081 60.1573 117.16 60.498 117.179 60.89H116.297ZM118.711 58.776H119.523V60.148H119.551C119.756 59.644 120.088 59.2567 120.545 58.986C121.012 58.706 121.539 58.566 122.127 58.566C122.678 58.566 123.154 58.6687 123.555 58.874C123.966 59.0793 124.306 59.3593 124.577 59.714C124.848 60.0593 125.048 60.4653 125.179 60.932C125.31 61.3893 125.375 61.8747 125.375 62.388C125.375 62.9013 125.31 63.3913 125.179 63.858C125.048 64.3153 124.848 64.7213 124.577 65.076C124.306 65.4213 123.966 65.6967 123.555 65.902C123.154 66.098 122.678 66.196 122.127 66.196C121.866 66.196 121.604 66.1633 121.343 66.098C121.082 66.0327 120.839 65.9347 120.615 65.804C120.391 65.6733 120.19 65.51 120.013 65.314C119.845 65.118 119.714 64.8893 119.621 64.628H119.593V68.66H118.711V58.776ZM124.493 62.388C124.493 62.0147 124.446 61.646 124.353 61.282C124.269 60.9087 124.129 60.5773 123.933 60.288C123.746 59.9987 123.504 59.7653 123.205 59.588C122.906 59.4013 122.547 59.308 122.127 59.308C121.642 59.308 121.236 59.392 120.909 59.56C120.582 59.728 120.321 59.952 120.125 60.232C119.929 60.512 119.789 60.8387 119.705 61.212C119.63 61.5853 119.593 61.9773 119.593 62.388C119.593 62.7613 119.635 63.1347 119.719 63.508C119.812 63.872 119.957 64.1987 120.153 64.488C120.358 64.7773 120.62 65.0153 120.937 65.202C121.264 65.3793 121.66 65.468 122.127 65.468C122.547 65.468 122.906 65.3793 123.205 65.202C123.504 65.0153 123.746 64.7773 123.933 64.488C124.129 64.1987 124.269 63.872 124.353 63.508C124.446 63.1347 124.493 62.7613 124.493 62.388ZM126.666 60.988C126.694 60.568 126.783 60.204 126.932 59.896C127.081 59.588 127.282 59.336 127.534 59.14C127.795 58.944 128.099 58.7993 128.444 58.706C128.789 58.6127 129.172 58.566 129.592 58.566C129.909 58.566 130.227 58.5987 130.544 58.664C130.861 58.72 131.146 58.832 131.398 59C131.65 59.168 131.855 59.406 132.014 59.714C132.173 60.0127 132.252 60.4047 132.252 60.89V64.726C132.252 65.0807 132.425 65.258 132.77 65.258C132.873 65.258 132.966 65.2393 133.05 65.202V65.944C132.947 65.9627 132.854 65.9767 132.77 65.986C132.695 65.9953 132.597 66 132.476 66C132.252 66 132.07 65.972 131.93 65.916C131.799 65.8507 131.697 65.762 131.622 65.65C131.547 65.538 131.496 65.4073 131.468 65.258C131.449 65.0993 131.44 64.9267 131.44 64.74H131.412C131.253 64.9733 131.09 65.1833 130.922 65.37C130.763 65.5473 130.581 65.6967 130.376 65.818C130.18 65.9393 129.951 66.0327 129.69 66.098C129.438 66.1633 129.135 66.196 128.78 66.196C128.444 66.196 128.127 66.154 127.828 66.07C127.539 65.9953 127.282 65.874 127.058 65.706C126.843 65.5287 126.671 65.3093 126.54 65.048C126.419 64.7773 126.358 64.46 126.358 64.096C126.358 63.592 126.47 63.2 126.694 62.92C126.918 62.6307 127.212 62.4113 127.576 62.262C127.949 62.1127 128.365 62.01 128.822 61.954C129.289 61.8887 129.76 61.828 130.236 61.772C130.423 61.7533 130.586 61.73 130.726 61.702C130.866 61.674 130.983 61.6273 131.076 61.562C131.169 61.4873 131.239 61.3893 131.286 61.268C131.342 61.1467 131.37 60.988 131.37 60.792C131.37 60.4933 131.319 60.2507 131.216 60.064C131.123 59.868 130.987 59.714 130.81 59.602C130.642 59.49 130.441 59.4153 130.208 59.378C129.984 59.3313 129.741 59.308 129.48 59.308C128.92 59.308 128.463 59.4433 128.108 59.714C127.753 59.9753 127.567 60.4 127.548 60.988H126.666ZM131.37 62.052H131.342C131.286 62.1547 131.179 62.2293 131.02 62.276C130.861 62.3227 130.721 62.3553 130.6 62.374C130.227 62.4393 129.839 62.5 129.438 62.556C129.046 62.6027 128.687 62.6773 128.36 62.78C128.033 62.8827 127.763 63.032 127.548 63.228C127.343 63.4147 127.24 63.6853 127.24 64.04C127.24 64.264 127.282 64.4647 127.366 64.642C127.459 64.81 127.581 64.9593 127.73 65.09C127.879 65.2113 128.052 65.3047 128.248 65.37C128.444 65.4353 128.645 65.468 128.85 65.468C129.186 65.468 129.508 65.4167 129.816 65.314C130.124 65.2113 130.39 65.062 130.614 64.866C130.847 64.67 131.029 64.432 131.16 64.152C131.3 63.872 131.37 63.5547 131.37 63.2V62.052ZM139.106 61.044C138.985 60.5027 138.761 60.078 138.434 59.77C138.107 59.462 137.65 59.308 137.062 59.308C136.642 59.308 136.273 59.3967 135.956 59.574C135.639 59.7513 135.373 59.9847 135.158 60.274C134.953 60.5633 134.794 60.8947 134.682 61.268C134.579 61.632 134.528 62.0053 134.528 62.388C134.528 62.7707 134.579 63.1487 134.682 63.522C134.794 63.886 134.953 64.2127 135.158 64.502C135.373 64.7913 135.639 65.0247 135.956 65.202C136.273 65.3793 136.642 65.468 137.062 65.468C137.333 65.468 137.589 65.4167 137.832 65.314C138.075 65.2113 138.289 65.0713 138.476 64.894C138.663 64.7073 138.817 64.488 138.938 64.236C139.059 63.984 139.134 63.7087 139.162 63.41H140.044C139.923 64.2873 139.601 64.9733 139.078 65.468C138.555 65.9533 137.883 66.196 137.062 66.196C136.511 66.196 136.021 66.098 135.592 65.902C135.172 65.6967 134.817 65.4213 134.528 65.076C134.239 64.7307 134.019 64.3293 133.87 63.872C133.721 63.4053 133.646 62.9107 133.646 62.388C133.646 61.8653 133.721 61.3753 133.87 60.918C134.019 60.4513 134.239 60.0453 134.528 59.7C134.817 59.3547 135.172 59.0793 135.592 58.874C136.021 58.6687 136.511 58.566 137.062 58.566C137.837 58.566 138.49 58.7713 139.022 59.182C139.563 59.5927 139.885 60.2133 139.988 61.044H139.106ZM141.284 56.004H142.166V57.418H141.284V56.004ZM141.284 58.776H142.166V66H141.284V58.776ZM146.906 59.308C146.486 59.308 146.117 59.3967 145.8 59.574C145.482 59.7513 145.216 59.9847 145.002 60.274C144.796 60.5633 144.638 60.8947 144.526 61.268C144.423 61.632 144.372 62.0053 144.372 62.388C144.372 62.7707 144.423 63.1487 144.526 63.522C144.638 63.886 144.796 64.2127 145.002 64.502C145.216 64.7913 145.482 65.0247 145.8 65.202C146.117 65.3793 146.486 65.468 146.906 65.468C147.326 65.468 147.694 65.3793 148.012 65.202C148.329 65.0247 148.59 64.7913 148.796 64.502C149.01 64.2127 149.169 63.886 149.272 63.522C149.384 63.1487 149.44 62.7707 149.44 62.388C149.44 62.0053 149.384 61.632 149.272 61.268C149.169 60.8947 149.01 60.5633 148.796 60.274C148.59 59.9847 148.329 59.7513 148.012 59.574C147.694 59.3967 147.326 59.308 146.906 59.308ZM146.906 58.566C147.456 58.566 147.942 58.6687 148.362 58.874C148.791 59.0793 149.15 59.3547 149.44 59.7C149.729 60.0453 149.948 60.4513 150.098 60.918C150.247 61.3753 150.322 61.8653 150.322 62.388C150.322 62.9107 150.247 63.4053 150.098 63.872C149.948 64.3293 149.729 64.7307 149.44 65.076C149.15 65.4213 148.791 65.6967 148.362 65.902C147.942 66.098 147.456 66.196 146.906 66.196C146.355 66.196 145.865 66.098 145.436 65.902C145.016 65.6967 144.661 65.4213 144.372 65.076C144.082 64.7307 143.863 64.3293 143.714 63.872C143.564 63.4053 143.49 62.9107 143.49 62.388C143.49 61.8653 143.564 61.3753 143.714 60.918C143.863 60.4513 144.082 60.0453 144.372 59.7C144.661 59.3547 145.016 59.0793 145.436 58.874C145.865 58.6687 146.355 58.566 146.906 58.566Z" fill="#010101"/>
</svg>
