<svg width="226" height="74" viewBox="0 0 226 74" fill="none" xmlns="http://www.w3.org/2000/svg">
<path fill-rule="evenodd" clip-rule="evenodd" d="M203 8C203 3.58172 199.418 0 195 0H8C3.58172 0 0 3.58172 0 8V29C0 33.4183 3.58172 37 8 37H38C42.4183 37 46 40.5817 46 45V66C46 70.4183 49.5817 74 54 74H218C222.418 74 226 70.4183 226 66V35C226 30.5817 222.418 27 218 27H211C206.582 27 203 23.4183 203 19V8Z" fill="white"/>
<path d="M22.12 11.904C21.208 11.904 20.416 12.088 19.744 12.456C19.088 12.824 18.552 13.32 18.136 13.944C17.72 14.552 17.408 15.248 17.2 16.032C17.008 16.816 16.912 17.616 16.912 18.432C16.912 19.248 17.008 20.048 17.2 20.832C17.408 21.616 17.72 22.32 18.136 22.944C18.552 23.552 19.088 24.04 19.744 24.408C20.416 24.776 21.208 24.96 22.12 24.96C23.032 24.96 23.816 24.776 24.472 24.408C25.144 24.04 25.688 23.552 26.104 22.944C26.52 22.32 26.824 21.616 27.016 20.832C27.224 20.048 27.328 19.248 27.328 18.432C27.328 17.616 27.224 16.816 27.016 16.032C26.824 15.248 26.52 14.552 26.104 13.944C25.688 13.32 25.144 12.824 24.472 12.456C23.816 12.088 23.032 11.904 22.12 11.904ZM22.12 9.456C23.4 9.456 24.544 9.696 25.552 10.176C26.576 10.656 27.44 11.304 28.144 12.12C28.848 12.936 29.384 13.888 29.752 14.976C30.136 16.064 30.328 17.216 30.328 18.432C30.328 19.664 30.136 20.824 29.752 21.912C29.384 23 28.848 23.952 28.144 24.768C27.44 25.584 26.576 26.232 25.552 26.712C24.544 27.176 23.4 27.408 22.12 27.408C20.84 27.408 19.688 27.176 18.664 26.712C17.656 26.232 16.8 25.584 16.096 24.768C15.392 23.952 14.848 23 14.464 21.912C14.096 20.824 13.912 19.664 13.912 18.432C13.912 17.216 14.096 16.064 14.464 14.976C14.848 13.888 15.392 12.936 16.096 12.12C16.8 11.304 17.656 10.656 18.664 10.176C19.688 9.696 20.84 9.456 22.12 9.456ZM33.0584 9.864H41.2424C43.1304 9.864 44.5464 10.272 45.4904 11.088C46.4344 11.904 46.9064 13.04 46.9064 14.496C46.9064 15.312 46.7864 15.992 46.5464 16.536C46.3064 17.064 46.0264 17.496 45.7064 17.832C45.3864 18.152 45.0664 18.384 44.7464 18.528C44.4424 18.672 44.2184 18.768 44.0744 18.816V18.864C44.3304 18.896 44.6024 18.976 44.8904 19.104C45.1944 19.232 45.4744 19.44 45.7304 19.728C45.9864 20 46.1944 20.36 46.3544 20.808C46.5304 21.256 46.6184 21.816 46.6184 22.488C46.6184 23.496 46.6904 24.416 46.8344 25.248C46.9944 26.064 47.2344 26.648 47.5544 27H44.3384C44.1144 26.632 43.9784 26.224 43.9304 25.776C43.8984 25.328 43.8824 24.896 43.8824 24.48C43.8824 23.696 43.8344 23.024 43.7384 22.464C43.6424 21.888 43.4664 21.416 43.2104 21.048C42.9544 20.664 42.6024 20.384 42.1544 20.208C41.7224 20.032 41.1624 19.944 40.4744 19.944H36.0584V27H33.0584V9.864ZM36.0584 17.664H40.9784C41.9384 17.664 42.6664 17.44 43.1624 16.992C43.6584 16.528 43.9064 15.84 43.9064 14.928C43.9064 14.384 43.8264 13.944 43.6664 13.608C43.5064 13.256 43.2824 12.984 42.9944 12.792C42.7224 12.6 42.4024 12.472 42.0344 12.408C41.6824 12.344 41.3144 12.312 40.9304 12.312H36.0584V17.664ZM64.9088 27H62.9888L62.5328 24.984C61.7328 25.896 60.9328 26.528 60.1328 26.88C59.3328 27.232 58.4128 27.408 57.3728 27.408C56.0928 27.408 54.9408 27.176 53.9168 26.712C52.9088 26.232 52.0528 25.584 51.3488 24.768C50.6448 23.952 50.1008 23 49.7168 21.912C49.3488 20.824 49.1648 19.664 49.1648 18.432C49.1648 17.216 49.3488 16.064 49.7168 14.976C50.1008 13.888 50.6448 12.936 51.3488 12.12C52.0528 11.304 52.9088 10.656 53.9168 10.176C54.9408 9.696 56.0928 9.456 57.3728 9.456C58.3008 9.456 59.1808 9.584 60.0128 9.84C60.8608 10.08 61.6128 10.448 62.2688 10.944C62.9248 11.424 63.4688 12.032 63.9008 12.768C64.3328 13.504 64.6048 14.352 64.7168 15.312H61.7888C61.7088 14.752 61.5328 14.264 61.2608 13.848C61.0048 13.416 60.6768 13.056 60.2768 12.768C59.8768 12.48 59.4288 12.264 58.9328 12.12C58.4368 11.976 57.9168 11.904 57.3728 11.904C56.4608 11.904 55.6688 12.088 54.9968 12.456C54.3408 12.824 53.8048 13.32 53.3888 13.944C52.9728 14.552 52.6608 15.248 52.4528 16.032C52.2608 16.816 52.1648 17.616 52.1648 18.432C52.1648 19.248 52.2608 20.048 52.4528 20.832C52.6608 21.616 52.9728 22.32 53.3888 22.944C53.8048 23.552 54.3408 24.04 54.9968 24.408C55.6688 24.776 56.4608 24.96 57.3728 24.96C58.1408 24.976 58.8208 24.88 59.4128 24.672C60.0048 24.448 60.5008 24.136 60.9008 23.736C61.3168 23.32 61.6288 22.816 61.8368 22.224C62.0448 21.632 62.1568 20.976 62.1728 20.256H57.6128V17.976H64.9088V27ZM72.7518 9.864H75.9438L82.5438 27H79.3278L77.7198 22.464H70.8798L69.2718 27H66.1757L72.7518 9.864ZM71.6958 20.184H76.9278L74.3598 12.816H74.2878L71.6958 20.184ZM84.0556 9.864H87.2236L95.0476 22.488H95.0956V9.864H97.9516V27H94.7836L86.9836 14.4H86.9116V27H84.0556V9.864ZM101.496 9.864H104.496V27H101.496V9.864ZM107.672 9.864H120.704V12.144L110.72 24.408H120.944V27H106.904V24.552L116.888 12.456H107.672V9.864ZM127.877 9.864H131.069L137.669 27H134.453L132.845 22.464H126.005L124.397 27H121.301L127.877 9.864ZM126.821 20.184H132.053L129.485 12.816H129.413L126.821 20.184ZM139.181 9.864H142.349L150.173 22.488H150.221V9.864H153.077V27H149.909L142.109 14.4H142.037V27H139.181V9.864ZM156.621 9.864H163.725C165.037 9.864 166.173 10.088 167.133 10.536C168.093 10.984 168.877 11.6 169.485 12.384C170.093 13.152 170.541 14.056 170.829 15.096C171.133 16.136 171.285 17.248 171.285 18.432C171.285 19.616 171.133 20.728 170.829 21.768C170.541 22.808 170.093 23.72 169.485 24.504C168.877 25.272 168.093 25.88 167.133 26.328C166.173 26.776 165.037 27 163.725 27H156.621V9.864ZM159.621 24.552H162.573C163.741 24.552 164.693 24.4 165.429 24.096C166.181 23.776 166.765 23.344 167.181 22.8C167.613 22.24 167.901 21.592 168.045 20.856C168.205 20.104 168.285 19.296 168.285 18.432C168.285 17.568 168.205 16.768 168.045 16.032C167.901 15.28 167.613 14.632 167.181 14.088C166.765 13.528 166.181 13.096 165.429 12.792C164.693 12.472 163.741 12.312 162.573 12.312H159.621V24.552ZM181.237 11.904C180.325 11.904 179.533 12.088 178.861 12.456C178.205 12.824 177.669 13.32 177.253 13.944C176.837 14.552 176.525 15.248 176.317 16.032C176.125 16.816 176.029 17.616 176.029 18.432C176.029 19.248 176.125 20.048 176.317 20.832C176.525 21.616 176.837 22.32 177.253 22.944C177.669 23.552 178.205 24.04 178.861 24.408C179.533 24.776 180.325 24.96 181.237 24.96C182.149 24.96 182.933 24.776 183.589 24.408C184.261 24.04 184.805 23.552 185.221 22.944C185.637 22.32 185.941 21.616 186.133 20.832C186.341 20.048 186.445 19.248 186.445 18.432C186.445 17.616 186.341 16.816 186.133 16.032C185.941 15.248 185.637 14.552 185.221 13.944C184.805 13.32 184.261 12.824 183.589 12.456C182.933 12.088 182.149 11.904 181.237 11.904ZM181.237 9.456C182.517 9.456 183.661 9.696 184.669 10.176C185.693 10.656 186.557 11.304 187.261 12.12C187.965 12.936 188.501 13.888 188.869 14.976C189.253 16.064 189.445 17.216 189.445 18.432C189.445 19.664 189.253 20.824 188.869 21.912C188.501 23 187.965 23.952 187.261 24.768C186.557 25.584 185.693 26.232 184.669 26.712C183.661 27.176 182.517 27.408 181.237 27.408C179.957 27.408 178.805 27.176 177.781 26.712C176.773 26.232 175.917 25.584 175.213 24.768C174.509 23.952 173.965 23 173.581 21.912C173.213 20.824 173.029 19.664 173.029 18.432C173.029 17.216 173.213 16.064 173.581 14.976C173.965 13.888 174.509 12.936 175.213 12.12C175.917 11.304 176.773 10.656 177.781 10.176C178.805 9.696 179.957 9.456 181.237 9.456Z" fill="#010101"/>
<path d="M61.422 45.08H65.356L63.424 39.956L61.422 45.08ZM62.934 39.004H63.998L67.918 49H66.896L65.678 45.892H61.128L59.924 49H58.916L62.934 39.004ZM68.6584 41.776H69.4704V43.148H69.4984C69.7037 42.644 70.035 42.2567 70.4924 41.986C70.959 41.706 71.4864 41.566 72.0744 41.566C72.625 41.566 73.101 41.6687 73.5024 41.874C73.913 42.0793 74.2537 42.3593 74.5244 42.714C74.795 43.0593 74.9957 43.4653 75.1264 43.932C75.257 44.3893 75.3224 44.8747 75.3224 45.388C75.3224 45.9013 75.257 46.3913 75.1264 46.858C74.9957 47.3153 74.795 47.7213 74.5244 48.076C74.2537 48.4213 73.913 48.6967 73.5024 48.902C73.101 49.098 72.625 49.196 72.0744 49.196C71.813 49.196 71.5517 49.1633 71.2904 49.098C71.029 49.0327 70.7864 48.9347 70.5624 48.804C70.3384 48.6733 70.1377 48.51 69.9604 48.314C69.7924 48.118 69.6617 47.8893 69.5684 47.628H69.5404V51.66H68.6584V41.776ZM74.4404 45.388C74.4404 45.0147 74.3937 44.646 74.3004 44.282C74.2164 43.9087 74.0764 43.5773 73.8804 43.288C73.6937 42.9987 73.451 42.7653 73.1524 42.588C72.8537 42.4013 72.4944 42.308 72.0744 42.308C71.589 42.308 71.183 42.392 70.8564 42.56C70.5297 42.728 70.2684 42.952 70.0724 43.232C69.8764 43.512 69.7364 43.8387 69.6524 44.212C69.5777 44.5853 69.5404 44.9773 69.5404 45.388C69.5404 45.7613 69.5824 46.1347 69.6664 46.508C69.7597 46.872 69.9044 47.1987 70.1004 47.488C70.3057 47.7773 70.567 48.0153 70.8844 48.202C71.211 48.3793 71.6077 48.468 72.0744 48.468C72.4944 48.468 72.8537 48.3793 73.1524 48.202C73.451 48.0153 73.6937 47.7773 73.8804 47.488C74.0764 47.1987 74.2164 46.872 74.3004 46.508C74.3937 46.1347 74.4404 45.7613 74.4404 45.388ZM76.6974 41.776H77.5094V43.47H77.5374C77.7614 42.882 78.1068 42.4293 78.5734 42.112C79.0494 41.7947 79.6141 41.65 80.2674 41.678V42.56C79.8661 42.5413 79.5021 42.5973 79.1754 42.728C78.8488 42.8493 78.5641 43.0267 78.3214 43.26C78.0881 43.4933 77.9061 43.7733 77.7754 44.1C77.6448 44.4173 77.5794 44.7673 77.5794 45.15V49H76.6974V41.776ZM83.9193 42.308C83.4993 42.308 83.1307 42.3967 82.8133 42.574C82.496 42.7513 82.23 42.9847 82.0153 43.274C81.81 43.5633 81.6513 43.8947 81.5393 44.268C81.4367 44.632 81.3853 45.0053 81.3853 45.388C81.3853 45.7707 81.4367 46.1487 81.5393 46.522C81.6513 46.886 81.81 47.2127 82.0153 47.502C82.23 47.7913 82.496 48.0247 82.8133 48.202C83.1307 48.3793 83.4993 48.468 83.9193 48.468C84.3393 48.468 84.708 48.3793 85.0253 48.202C85.3427 48.0247 85.604 47.7913 85.8093 47.502C86.024 47.2127 86.1827 46.886 86.2853 46.522C86.3973 46.1487 86.4533 45.7707 86.4533 45.388C86.4533 45.0053 86.3973 44.632 86.2853 44.268C86.1827 43.8947 86.024 43.5633 85.8093 43.274C85.604 42.9847 85.3427 42.7513 85.0253 42.574C84.708 42.3967 84.3393 42.308 83.9193 42.308ZM83.9193 41.566C84.47 41.566 84.9553 41.6687 85.3753 41.874C85.8047 42.0793 86.164 42.3547 86.4533 42.7C86.7427 43.0453 86.962 43.4513 87.1113 43.918C87.2607 44.3753 87.3353 44.8653 87.3353 45.388C87.3353 45.9107 87.2607 46.4053 87.1113 46.872C86.962 47.3293 86.7427 47.7307 86.4533 48.076C86.164 48.4213 85.8047 48.6967 85.3753 48.902C84.9553 49.098 84.47 49.196 83.9193 49.196C83.3687 49.196 82.8787 49.098 82.4493 48.902C82.0293 48.6967 81.6747 48.4213 81.3853 48.076C81.096 47.7307 80.8767 47.3293 80.7273 46.872C80.578 46.4053 80.5033 45.9107 80.5033 45.388C80.5033 44.8653 80.578 44.3753 80.7273 43.918C80.8767 43.4513 81.096 43.0453 81.3853 42.7C81.6747 42.3547 82.0293 42.0793 82.4493 41.874C82.8787 41.6687 83.3687 41.566 83.9193 41.566ZM87.8346 41.776H88.8146L91.0826 48.118H91.1106L93.3506 41.776H94.2606L91.5586 49H90.6206L87.8346 41.776ZM100.321 44.884C100.312 44.548 100.251 44.226 100.139 43.918C100.036 43.61 99.8871 43.3393 99.6911 43.106C99.4951 42.8633 99.2571 42.672 98.9771 42.532C98.6971 42.3827 98.3798 42.308 98.0251 42.308C97.6611 42.308 97.3391 42.3827 97.0591 42.532C96.7791 42.672 96.5411 42.8633 96.3451 43.106C96.1491 43.3393 95.9904 43.6147 95.8691 43.932C95.7571 44.24 95.6824 44.5573 95.6451 44.884H100.321ZM95.6451 45.626C95.6451 45.9433 95.6871 46.2747 95.7711 46.62C95.8644 46.956 96.0091 47.2593 96.2051 47.53C96.4011 47.8007 96.6484 48.0247 96.9471 48.202C97.2458 48.3793 97.6051 48.468 98.0251 48.468C98.6691 48.468 99.1731 48.3 99.5371 47.964C99.9011 47.628 100.153 47.18 100.293 46.62H101.175C100.988 47.4413 100.643 48.076 100.139 48.524C99.6444 48.972 98.9398 49.196 98.0251 49.196C97.4558 49.196 96.9611 49.098 96.5411 48.902C96.1304 48.6967 95.7944 48.4213 95.5331 48.076C95.2718 47.7213 95.0758 47.3153 94.9451 46.858C94.8238 46.3913 94.7631 45.9013 94.7631 45.388C94.7631 44.912 94.8238 44.4453 94.9451 43.988C95.0758 43.5307 95.2718 43.1247 95.5331 42.77C95.7944 42.406 96.1304 42.1167 96.5411 41.902C96.9611 41.678 97.4558 41.566 98.0251 41.566C98.6038 41.566 99.0984 41.6827 99.5091 41.916C99.9198 42.1493 100.251 42.4573 100.503 42.84C100.764 43.2133 100.951 43.6473 101.063 44.142C101.175 44.6273 101.222 45.122 101.203 45.626H95.6451ZM107.483 44.044C107.362 43.5027 107.138 43.078 106.811 42.77C106.484 42.462 106.027 42.308 105.439 42.308C105.019 42.308 104.65 42.3967 104.333 42.574C104.016 42.7513 103.75 42.9847 103.535 43.274C103.33 43.5633 103.171 43.8947 103.059 44.268C102.956 44.632 102.905 45.0053 102.905 45.388C102.905 45.7707 102.956 46.1487 103.059 46.522C103.171 46.886 103.33 47.2127 103.535 47.502C103.75 47.7913 104.016 48.0247 104.333 48.202C104.65 48.3793 105.019 48.468 105.439 48.468C105.71 48.468 105.966 48.4167 106.209 48.314C106.452 48.2113 106.666 48.0713 106.853 47.894C107.04 47.7073 107.194 47.488 107.315 47.236C107.436 46.984 107.511 46.7087 107.539 46.41H108.421C108.3 47.2873 107.978 47.9733 107.455 48.468C106.932 48.9533 106.26 49.196 105.439 49.196C104.888 49.196 104.398 49.098 103.969 48.902C103.549 48.6967 103.194 48.4213 102.905 48.076C102.616 47.7307 102.396 47.3293 102.247 46.872C102.098 46.4053 102.023 45.9107 102.023 45.388C102.023 44.8653 102.098 44.3753 102.247 43.918C102.396 43.4513 102.616 43.0453 102.905 42.7C103.194 42.3547 103.549 42.0793 103.969 41.874C104.398 41.6687 104.888 41.566 105.439 41.566C106.214 41.566 106.867 41.7713 107.399 42.182C107.94 42.5927 108.262 43.2133 108.365 44.044H107.483ZM109.633 39.004H110.515V43.022H110.543C110.711 42.5833 111.009 42.2333 111.439 41.972C111.868 41.7013 112.339 41.566 112.853 41.566C113.357 41.566 113.777 41.6313 114.113 41.762C114.458 41.8927 114.733 42.0793 114.939 42.322C115.144 42.5553 115.289 42.8447 115.373 43.19C115.457 43.5353 115.499 43.9227 115.499 44.352V49H114.617V44.492C114.617 44.184 114.589 43.8993 114.533 43.638C114.477 43.3673 114.379 43.134 114.239 42.938C114.099 42.742 113.907 42.588 113.665 42.476C113.431 42.364 113.137 42.308 112.783 42.308C112.428 42.308 112.111 42.3733 111.831 42.504C111.56 42.6253 111.327 42.798 111.131 43.022C110.944 43.2367 110.795 43.498 110.683 43.806C110.58 44.1047 110.524 44.4313 110.515 44.786V49H109.633V39.004ZM117.082 43.988C117.11 43.568 117.199 43.204 117.348 42.896C117.498 42.588 117.698 42.336 117.95 42.14C118.212 41.944 118.515 41.7993 118.86 41.706C119.206 41.6127 119.588 41.566 120.008 41.566C120.326 41.566 120.643 41.5987 120.96 41.664C121.278 41.72 121.562 41.832 121.814 42C122.066 42.168 122.272 42.406 122.43 42.714C122.589 43.0127 122.668 43.4047 122.668 43.89V47.726C122.668 48.0807 122.841 48.258 123.186 48.258C123.289 48.258 123.382 48.2393 123.466 48.202V48.944C123.364 48.9627 123.27 48.9767 123.186 48.986C123.112 48.9953 123.014 49 122.892 49C122.668 49 122.486 48.972 122.346 48.916C122.216 48.8507 122.113 48.762 122.038 48.65C121.964 48.538 121.912 48.4073 121.884 48.258C121.866 48.0993 121.856 47.9267 121.856 47.74H121.828C121.67 47.9733 121.506 48.1833 121.338 48.37C121.18 48.5473 120.998 48.6967 120.792 48.818C120.596 48.9393 120.368 49.0327 120.106 49.098C119.854 49.1633 119.551 49.196 119.196 49.196C118.86 49.196 118.543 49.154 118.244 49.07C117.955 48.9953 117.698 48.874 117.474 48.706C117.26 48.5287 117.087 48.3093 116.956 48.048C116.835 47.7773 116.774 47.46 116.774 47.096C116.774 46.592 116.886 46.2 117.11 45.92C117.334 45.6307 117.628 45.4113 117.992 45.262C118.366 45.1127 118.781 45.01 119.238 44.954C119.705 44.8887 120.176 44.828 120.652 44.772C120.839 44.7533 121.002 44.73 121.142 44.702C121.282 44.674 121.399 44.6273 121.492 44.562C121.586 44.4873 121.656 44.3893 121.702 44.268C121.758 44.1467 121.786 43.988 121.786 43.792C121.786 43.4933 121.735 43.2507 121.632 43.064C121.539 42.868 121.404 42.714 121.226 42.602C121.058 42.49 120.858 42.4153 120.624 42.378C120.4 42.3313 120.158 42.308 119.896 42.308C119.336 42.308 118.879 42.4433 118.524 42.714C118.17 42.9753 117.983 43.4 117.964 43.988H117.082ZM121.786 45.052H121.758C121.702 45.1547 121.595 45.2293 121.436 45.276C121.278 45.3227 121.138 45.3553 121.016 45.374C120.643 45.4393 120.256 45.5 119.854 45.556C119.462 45.6027 119.103 45.6773 118.776 45.78C118.45 45.8827 118.179 46.032 117.964 46.228C117.759 46.4147 117.656 46.6853 117.656 47.04C117.656 47.264 117.698 47.4647 117.782 47.642C117.876 47.81 117.997 47.9593 118.146 48.09C118.296 48.2113 118.468 48.3047 118.664 48.37C118.86 48.4353 119.061 48.468 119.266 48.468C119.602 48.468 119.924 48.4167 120.232 48.314C120.54 48.2113 120.806 48.062 121.03 47.866C121.264 47.67 121.446 47.432 121.576 47.152C121.716 46.872 121.786 46.5547 121.786 46.2V45.052ZM124.412 41.776H125.294V43.022H125.322C125.49 42.5833 125.789 42.2333 126.218 41.972C126.647 41.7013 127.119 41.566 127.632 41.566C128.136 41.566 128.556 41.6313 128.892 41.762C129.237 41.8927 129.513 42.0793 129.718 42.322C129.923 42.5553 130.068 42.8447 130.152 43.19C130.236 43.5353 130.278 43.9227 130.278 44.352V49H129.396V44.492C129.396 44.184 129.368 43.8993 129.312 43.638C129.256 43.3673 129.158 43.134 129.018 42.938C128.878 42.742 128.687 42.588 128.444 42.476C128.211 42.364 127.917 42.308 127.562 42.308C127.207 42.308 126.89 42.3733 126.61 42.504C126.339 42.6253 126.106 42.798 125.91 43.022C125.723 43.2367 125.574 43.498 125.462 43.806C125.359 44.1047 125.303 44.4313 125.294 44.786V49H124.412V41.776ZM138.301 49H137.489V47.628H137.461C137.368 47.8613 137.228 48.076 137.041 48.272C136.864 48.468 136.659 48.636 136.425 48.776C136.192 48.9067 135.94 49.0093 135.669 49.084C135.408 49.1587 135.147 49.196 134.885 49.196C134.335 49.196 133.854 49.098 133.443 48.902C133.042 48.6967 132.706 48.4213 132.435 48.076C132.165 47.7213 131.964 47.3153 131.833 46.858C131.703 46.3913 131.637 45.9013 131.637 45.388C131.637 44.8747 131.703 44.3893 131.833 43.932C131.964 43.4653 132.165 43.0593 132.435 42.714C132.706 42.3593 133.042 42.0793 133.443 41.874C133.854 41.6687 134.335 41.566 134.885 41.566C135.156 41.566 135.417 41.5987 135.669 41.664C135.931 41.7293 136.173 41.832 136.397 41.972C136.621 42.1027 136.817 42.266 136.985 42.462C137.163 42.658 137.298 42.8867 137.391 43.148H137.419V39.004H138.301V49ZM132.519 45.388C132.519 45.7613 132.561 46.1347 132.645 46.508C132.739 46.872 132.879 47.1987 133.065 47.488C133.261 47.7773 133.509 48.0153 133.807 48.202C134.106 48.3793 134.465 48.468 134.885 48.468C135.352 48.468 135.744 48.3793 136.061 48.202C136.388 48.0153 136.649 47.7773 136.845 47.488C137.051 47.1987 137.195 46.872 137.279 46.508C137.373 46.1347 137.419 45.7613 137.419 45.388C137.419 45.0147 137.373 44.646 137.279 44.282C137.195 43.9087 137.051 43.5773 136.845 43.288C136.649 42.9987 136.388 42.7653 136.061 42.588C135.744 42.4013 135.352 42.308 134.885 42.308C134.465 42.308 134.106 42.4013 133.807 42.588C133.509 42.7653 133.261 42.9987 133.065 43.288C132.879 43.5773 132.739 43.9087 132.645 44.282C132.561 44.646 132.519 45.0147 132.519 45.388ZM143.037 42.308C142.617 42.308 142.248 42.3967 141.931 42.574C141.613 42.7513 141.347 42.9847 141.133 43.274C140.927 43.5633 140.769 43.8947 140.657 44.268C140.554 44.632 140.503 45.0053 140.503 45.388C140.503 45.7707 140.554 46.1487 140.657 46.522C140.769 46.886 140.927 47.2127 141.133 47.502C141.347 47.7913 141.613 48.0247 141.931 48.202C142.248 48.3793 142.617 48.468 143.037 48.468C143.457 48.468 143.825 48.3793 144.143 48.202C144.46 48.0247 144.721 47.7913 144.927 47.502C145.141 47.2127 145.3 46.886 145.403 46.522C145.515 46.1487 145.571 45.7707 145.571 45.388C145.571 45.0053 145.515 44.632 145.403 44.268C145.3 43.8947 145.141 43.5633 144.927 43.274C144.721 42.9847 144.46 42.7513 144.143 42.574C143.825 42.3967 143.457 42.308 143.037 42.308ZM143.037 41.566C143.587 41.566 144.073 41.6687 144.493 41.874C144.922 42.0793 145.281 42.3547 145.571 42.7C145.86 43.0453 146.079 43.4513 146.229 43.918C146.378 44.3753 146.453 44.8653 146.453 45.388C146.453 45.9107 146.378 46.4053 146.229 46.872C146.079 47.3293 145.86 47.7307 145.571 48.076C145.281 48.4213 144.922 48.6967 144.493 48.902C144.073 49.098 143.587 49.196 143.037 49.196C142.486 49.196 141.996 49.098 141.567 48.902C141.147 48.6967 140.792 48.4213 140.503 48.076C140.213 47.7307 139.994 47.3293 139.845 46.872C139.695 46.4053 139.621 45.9107 139.621 45.388C139.621 44.8653 139.695 44.3753 139.845 43.918C139.994 43.4513 140.213 43.0453 140.503 42.7C140.792 42.3547 141.147 42.0793 141.567 41.874C141.996 41.6687 142.486 41.566 143.037 41.566ZM151.576 43.988C151.604 43.568 151.693 43.204 151.842 42.896C151.992 42.588 152.192 42.336 152.444 42.14C152.706 41.944 153.009 41.7993 153.354 41.706C153.7 41.6127 154.082 41.566 154.502 41.566C154.82 41.566 155.137 41.5987 155.454 41.664C155.772 41.72 156.056 41.832 156.308 42C156.56 42.168 156.766 42.406 156.924 42.714C157.083 43.0127 157.162 43.4047 157.162 43.89V47.726C157.162 48.0807 157.335 48.258 157.68 48.258C157.783 48.258 157.876 48.2393 157.96 48.202V48.944C157.858 48.9627 157.764 48.9767 157.68 48.986C157.606 48.9953 157.508 49 157.386 49C157.162 49 156.98 48.972 156.84 48.916C156.71 48.8507 156.607 48.762 156.532 48.65C156.458 48.538 156.406 48.4073 156.378 48.258C156.36 48.0993 156.35 47.9267 156.35 47.74H156.322C156.164 47.9733 156 48.1833 155.832 48.37C155.674 48.5473 155.492 48.6967 155.286 48.818C155.09 48.9393 154.862 49.0327 154.6 49.098C154.348 49.1633 154.045 49.196 153.69 49.196C153.354 49.196 153.037 49.154 152.738 49.07C152.449 48.9953 152.192 48.874 151.968 48.706C151.754 48.5287 151.581 48.3093 151.45 48.048C151.329 47.7773 151.268 47.46 151.268 47.096C151.268 46.592 151.38 46.2 151.604 45.92C151.828 45.6307 152.122 45.4113 152.486 45.262C152.86 45.1127 153.275 45.01 153.732 44.954C154.199 44.8887 154.67 44.828 155.146 44.772C155.333 44.7533 155.496 44.73 155.636 44.702C155.776 44.674 155.893 44.6273 155.986 44.562C156.08 44.4873 156.15 44.3893 156.196 44.268C156.252 44.1467 156.28 43.988 156.28 43.792C156.28 43.4933 156.229 43.2507 156.126 43.064C156.033 42.868 155.898 42.714 155.72 42.602C155.552 42.49 155.352 42.4153 155.118 42.378C154.894 42.3313 154.652 42.308 154.39 42.308C153.83 42.308 153.373 42.4433 153.018 42.714C152.664 42.9753 152.477 43.4 152.458 43.988H151.576ZM156.28 45.052H156.252C156.196 45.1547 156.089 45.2293 155.93 45.276C155.772 45.3227 155.632 45.3553 155.51 45.374C155.137 45.4393 154.75 45.5 154.348 45.556C153.956 45.6027 153.597 45.6773 153.27 45.78C152.944 45.8827 152.673 46.032 152.458 46.228C152.253 46.4147 152.15 46.6853 152.15 47.04C152.15 47.264 152.192 47.4647 152.276 47.642C152.37 47.81 152.491 47.9593 152.64 48.09C152.79 48.2113 152.962 48.3047 153.158 48.37C153.354 48.4353 153.555 48.468 153.76 48.468C154.096 48.468 154.418 48.4167 154.726 48.314C155.034 48.2113 155.3 48.062 155.524 47.866C155.758 47.67 155.94 47.432 156.07 47.152C156.21 46.872 156.28 46.5547 156.28 46.2V45.052ZM158.934 39.004H159.816V49H158.934V39.004ZM165.401 41.776H166.213V42.994H166.255C166.488 42.546 166.791 42.196 167.165 41.944C167.547 41.692 168.033 41.566 168.621 41.566C169.097 41.566 169.526 41.6827 169.909 41.916C170.301 42.1493 170.562 42.504 170.693 42.98C170.907 42.504 171.225 42.1493 171.645 41.916C172.065 41.6827 172.513 41.566 172.989 41.566C174.585 41.566 175.383 42.4107 175.383 44.1V49H174.501V44.142C174.501 43.5447 174.375 43.092 174.123 42.784C173.871 42.4667 173.427 42.308 172.793 42.308C172.41 42.308 172.093 42.3827 171.841 42.532C171.589 42.672 171.388 42.8633 171.239 43.106C171.089 43.3487 170.982 43.6287 170.917 43.946C170.861 44.254 170.833 44.576 170.833 44.912V49H169.951V44.1C169.951 43.8573 169.923 43.6287 169.867 43.414C169.82 43.19 169.736 42.9987 169.615 42.84C169.503 42.672 169.349 42.5413 169.153 42.448C168.957 42.3547 168.719 42.308 168.439 42.308C168.065 42.308 167.739 42.378 167.459 42.518C167.188 42.6487 166.964 42.8353 166.787 43.078C166.619 43.3113 166.493 43.5913 166.409 43.918C166.325 44.2353 166.283 44.5853 166.283 44.968V49H165.401V41.776ZM179.737 40.768H179.023L180.493 38.794H181.585L179.737 40.768ZM176.979 43.988C177.007 43.568 177.095 43.204 177.245 42.896C177.394 42.588 177.595 42.336 177.847 42.14C178.108 41.944 178.411 41.7993 178.757 41.706C179.102 41.6127 179.485 41.566 179.905 41.566C180.222 41.566 180.539 41.5987 180.857 41.664C181.174 41.72 181.459 41.832 181.711 42C181.963 42.168 182.168 42.406 182.327 42.714C182.485 43.0127 182.565 43.4047 182.565 43.89V47.726C182.565 48.0807 182.737 48.258 183.083 48.258C183.185 48.258 183.279 48.2393 183.363 48.202V48.944C183.26 48.9627 183.167 48.9767 183.083 48.986C183.008 48.9953 182.91 49 182.789 49C182.565 49 182.383 48.972 182.243 48.916C182.112 48.8507 182.009 48.762 181.935 48.65C181.86 48.538 181.809 48.4073 181.781 48.258C181.762 48.0993 181.753 47.9267 181.753 47.74H181.725C181.566 47.9733 181.403 48.1833 181.235 48.37C181.076 48.5473 180.894 48.6967 180.689 48.818C180.493 48.9393 180.264 49.0327 180.003 49.098C179.751 49.1633 179.447 49.196 179.093 49.196C178.757 49.196 178.439 49.154 178.141 49.07C177.851 48.9953 177.595 48.874 177.371 48.706C177.156 48.5287 176.983 48.3093 176.853 48.048C176.731 47.7773 176.671 47.46 176.671 47.096C176.671 46.592 176.783 46.2 177.007 45.92C177.231 45.6307 177.525 45.4113 177.889 45.262C178.262 45.1127 178.677 45.01 179.135 44.954C179.601 44.8887 180.073 44.828 180.549 44.772C180.735 44.7533 180.899 44.73 181.039 44.702C181.179 44.674 181.295 44.6273 181.389 44.562C181.482 44.4873 181.552 44.3893 181.599 44.268C181.655 44.1467 181.683 43.988 181.683 43.792C181.683 43.4933 181.631 43.2507 181.529 43.064C181.435 42.868 181.3 42.714 181.123 42.602C180.955 42.49 180.754 42.4153 180.521 42.378C180.297 42.3313 180.054 42.308 179.793 42.308C179.233 42.308 178.775 42.4433 178.421 42.714C178.066 42.9753 177.879 43.4 177.861 43.988H176.979ZM181.683 45.052H181.655C181.599 45.1547 181.491 45.2293 181.333 45.276C181.174 45.3227 181.034 45.3553 180.913 45.374C180.539 45.4393 180.152 45.5 179.751 45.556C179.359 45.6027 178.999 45.6773 178.673 45.78C178.346 45.8827 178.075 46.032 177.861 46.228C177.655 46.4147 177.553 46.6853 177.553 47.04C177.553 47.264 177.595 47.4647 177.679 47.642C177.772 47.81 177.893 47.9593 178.043 48.09C178.192 48.2113 178.365 48.3047 178.561 48.37C178.757 48.4353 178.957 48.468 179.163 48.468C179.499 48.468 179.821 48.4167 180.129 48.314C180.437 48.2113 180.703 48.062 180.927 47.866C181.16 47.67 181.342 47.432 181.473 47.152C181.613 46.872 181.683 46.5547 181.683 46.2V45.052ZM186.296 45.248L183.706 41.776H184.812L186.87 44.52L188.886 41.776H189.992L187.388 45.234L190.202 49H189.082L186.814 45.962L184.588 49H183.496L186.296 45.248ZM191.077 39.004H191.959V40.418H191.077V39.004ZM191.077 41.776H191.959V49H191.077V41.776ZM193.647 41.776H194.459V42.994H194.501C194.734 42.546 195.037 42.196 195.411 41.944C195.793 41.692 196.279 41.566 196.867 41.566C197.343 41.566 197.772 41.6827 198.155 41.916C198.547 42.1493 198.808 42.504 198.939 42.98C199.153 42.504 199.471 42.1493 199.891 41.916C200.311 41.6827 200.759 41.566 201.235 41.566C202.831 41.566 203.629 42.4107 203.629 44.1V49H202.747V44.142C202.747 43.5447 202.621 43.092 202.369 42.784C202.117 42.4667 201.673 42.308 201.039 42.308C200.656 42.308 200.339 42.3827 200.087 42.532C199.835 42.672 199.634 42.8633 199.485 43.106C199.335 43.3487 199.228 43.6287 199.163 43.946C199.107 44.254 199.079 44.576 199.079 44.912V49H198.197V44.1C198.197 43.8573 198.169 43.6287 198.113 43.414C198.066 43.19 197.982 42.9987 197.861 42.84C197.749 42.672 197.595 42.5413 197.399 42.448C197.203 42.3547 196.965 42.308 196.685 42.308C196.311 42.308 195.985 42.378 195.705 42.518C195.434 42.6487 195.21 42.8353 195.033 43.078C194.865 43.3113 194.739 43.5913 194.655 43.918C194.571 44.2353 194.529 44.5853 194.529 44.968V49H193.647V41.776ZM208.361 42.308C207.941 42.308 207.572 42.3967 207.255 42.574C206.937 42.7513 206.671 42.9847 206.457 43.274C206.251 43.5633 206.093 43.8947 205.981 44.268C205.878 44.632 205.827 45.0053 205.827 45.388C205.827 45.7707 205.878 46.1487 205.981 46.522C206.093 46.886 206.251 47.2127 206.457 47.502C206.671 47.7913 206.937 48.0247 207.255 48.202C207.572 48.3793 207.941 48.468 208.361 48.468C208.781 48.468 209.149 48.3793 209.467 48.202C209.784 48.0247 210.045 47.7913 210.251 47.502C210.465 47.2127 210.624 46.886 210.727 46.522C210.839 46.1487 210.895 45.7707 210.895 45.388C210.895 45.0053 210.839 44.632 210.727 44.268C210.624 43.8947 210.465 43.5633 210.251 43.274C210.045 42.9847 209.784 42.7513 209.467 42.574C209.149 42.3967 208.781 42.308 208.361 42.308ZM208.361 41.566C208.911 41.566 209.397 41.6687 209.817 41.874C210.246 42.0793 210.605 42.3547 210.895 42.7C211.184 43.0453 211.403 43.4513 211.553 43.918C211.702 44.3753 211.777 44.8653 211.777 45.388C211.777 45.9107 211.702 46.4053 211.553 46.872C211.403 47.3293 211.184 47.7307 210.895 48.076C210.605 48.4213 210.246 48.6967 209.817 48.902C209.397 49.098 208.911 49.196 208.361 49.196C207.81 49.196 207.32 49.098 206.891 48.902C206.471 48.6967 206.116 48.4213 205.827 48.076C205.537 47.7307 205.318 47.3293 205.169 46.872C205.019 46.4053 204.945 45.9107 204.945 45.388C204.945 44.8653 205.019 44.3753 205.169 43.918C205.318 43.4513 205.537 43.0453 205.827 42.7C206.116 42.3547 206.471 42.0793 206.891 41.874C207.32 41.6687 207.81 41.566 208.361 41.566ZM64.936 59.044C64.8147 58.5027 64.5907 58.078 64.264 57.77C63.9373 57.462 63.48 57.308 62.892 57.308C62.472 57.308 62.1033 57.3967 61.786 57.574C61.4687 57.7513 61.2027 57.9847 60.988 58.274C60.7827 58.5633 60.624 58.8947 60.512 59.268C60.4093 59.632 60.358 60.0053 60.358 60.388C60.358 60.7707 60.4093 61.1487 60.512 61.522C60.624 61.886 60.7827 62.2127 60.988 62.502C61.2027 62.7913 61.4687 63.0247 61.786 63.202C62.1033 63.3793 62.472 63.468 62.892 63.468C63.1627 63.468 63.4193 63.4167 63.662 63.314C63.9047 63.2113 64.1193 63.0713 64.306 62.894C64.4927 62.7073 64.6467 62.488 64.768 62.236C64.8893 61.984 64.964 61.7087 64.992 61.41H65.874C65.7527 62.2873 65.4307 62.9733 64.908 63.468C64.3853 63.9533 63.7133 64.196 62.892 64.196C62.3413 64.196 61.8513 64.098 61.422 63.902C61.002 63.6967 60.6473 63.4213 60.358 63.076C60.0687 62.7307 59.8493 62.3293 59.7 61.872C59.5507 61.4053 59.476 60.9107 59.476 60.388C59.476 59.8653 59.5507 59.3753 59.7 58.918C59.8493 58.4513 60.0687 58.0453 60.358 57.7C60.6473 57.3547 61.002 57.0793 61.422 56.874C61.8513 56.6687 62.3413 56.566 62.892 56.566C63.6667 56.566 64.32 56.7713 64.852 57.182C65.3933 57.5927 65.7153 58.2133 65.818 59.044H64.936ZM67.0158 58.988C67.0438 58.568 67.1324 58.204 67.2818 57.896C67.4311 57.588 67.6318 57.336 67.8838 57.14C68.1451 56.944 68.4484 56.7993 68.7938 56.706C69.1391 56.6127 69.5218 56.566 69.9418 56.566C70.2591 56.566 70.5764 56.5987 70.8938 56.664C71.2111 56.72 71.4958 56.832 71.7478 57C71.9998 57.168 72.2051 57.406 72.3638 57.714C72.5224 58.0127 72.6018 58.4047 72.6018 58.89V62.726C72.6018 63.0807 72.7744 63.258 73.1198 63.258C73.2224 63.258 73.3158 63.2393 73.3998 63.202V63.944C73.2971 63.9627 73.2038 63.9767 73.1198 63.986C73.0451 63.9953 72.9471 64 72.8258 64C72.6018 64 72.4198 63.972 72.2798 63.916C72.1491 63.8507 72.0464 63.762 71.9718 63.65C71.8971 63.538 71.8458 63.4073 71.8178 63.258C71.7991 63.0993 71.7898 62.9267 71.7898 62.74H71.7618C71.6031 62.9733 71.4398 63.1833 71.2718 63.37C71.1131 63.5473 70.9311 63.6967 70.7258 63.818C70.5298 63.9393 70.3011 64.0327 70.0398 64.098C69.7878 64.1633 69.4844 64.196 69.1298 64.196C68.7938 64.196 68.4764 64.154 68.1778 64.07C67.8884 63.9953 67.6318 63.874 67.4078 63.706C67.1931 63.5287 67.0204 63.3093 66.8898 63.048C66.7684 62.7773 66.7078 62.46 66.7078 62.096C66.7078 61.592 66.8198 61.2 67.0438 60.92C67.2678 60.6307 67.5618 60.4113 67.9258 60.262C68.2991 60.1127 68.7144 60.01 69.1718 59.954C69.6384 59.8887 70.1098 59.828 70.5858 59.772C70.7724 59.7533 70.9358 59.73 71.0758 59.702C71.2158 59.674 71.3324 59.6273 71.4258 59.562C71.5191 59.4873 71.5891 59.3893 71.6358 59.268C71.6918 59.1467 71.7198 58.988 71.7198 58.792C71.7198 58.4933 71.6684 58.2507 71.5658 58.064C71.4724 57.868 71.3371 57.714 71.1598 57.602C70.9918 57.49 70.7911 57.4153 70.5578 57.378C70.3338 57.3313 70.0911 57.308 69.8298 57.308C69.2698 57.308 68.8124 57.4433 68.4578 57.714C68.1031 57.9753 67.9164 58.4 67.8978 58.988H67.0158ZM71.7198 60.052H71.6918C71.6358 60.1547 71.5284 60.2293 71.3698 60.276C71.2111 60.3227 71.0711 60.3553 70.9498 60.374C70.5764 60.4393 70.1891 60.5 69.7878 60.556C69.3958 60.6027 69.0364 60.6773 68.7098 60.78C68.3831 60.8827 68.1124 61.032 67.8978 61.228C67.6924 61.4147 67.5898 61.6853 67.5898 62.04C67.5898 62.264 67.6318 62.4647 67.7158 62.642C67.8091 62.81 67.9304 62.9593 68.0798 63.09C68.2291 63.2113 68.4018 63.3047 68.5978 63.37C68.7938 63.4353 68.9944 63.468 69.1998 63.468C69.5358 63.468 69.8578 63.4167 70.1658 63.314C70.4738 63.2113 70.7398 63.062 70.9638 62.866C71.1971 62.67 71.3791 62.432 71.5098 62.152C71.6498 61.872 71.7198 61.5547 71.7198 61.2V60.052ZM80.7155 64H79.9035V62.628H79.8755C79.7822 62.8613 79.6422 63.076 79.4555 63.272C79.2782 63.468 79.0729 63.636 78.8395 63.776C78.6062 63.9067 78.3542 64.0093 78.0835 64.084C77.8222 64.1587 77.5609 64.196 77.2995 64.196C76.7489 64.196 76.2682 64.098 75.8575 63.902C75.4562 63.6967 75.1202 63.4213 74.8495 63.076C74.5789 62.7213 74.3782 62.3153 74.2475 61.858C74.1169 61.3913 74.0515 60.9013 74.0515 60.388C74.0515 59.8747 74.1169 59.3893 74.2475 58.932C74.3782 58.4653 74.5789 58.0593 74.8495 57.714C75.1202 57.3593 75.4562 57.0793 75.8575 56.874C76.2682 56.6687 76.7489 56.566 77.2995 56.566C77.5702 56.566 77.8315 56.5987 78.0835 56.664C78.3449 56.7293 78.5875 56.832 78.8115 56.972C79.0355 57.1027 79.2315 57.266 79.3995 57.462C79.5769 57.658 79.7122 57.8867 79.8055 58.148H79.8335V54.004H80.7155V64ZM74.9335 60.388C74.9335 60.7613 74.9755 61.1347 75.0595 61.508C75.1529 61.872 75.2929 62.1987 75.4795 62.488C75.6755 62.7773 75.9229 63.0153 76.2215 63.202C76.5202 63.3793 76.8795 63.468 77.2995 63.468C77.7662 63.468 78.1582 63.3793 78.4755 63.202C78.8022 63.0153 79.0635 62.7773 79.2595 62.488C79.4649 62.1987 79.6095 61.872 79.6935 61.508C79.7869 61.1347 79.8335 60.7613 79.8335 60.388C79.8335 60.0147 79.7869 59.646 79.6935 59.282C79.6095 58.9087 79.4649 58.5773 79.2595 58.288C79.0635 57.9987 78.8022 57.7653 78.4755 57.588C78.1582 57.4013 77.7662 57.308 77.2995 57.308C76.8795 57.308 76.5202 57.4013 76.2215 57.588C75.9229 57.7653 75.6755 57.9987 75.4795 58.288C75.2929 58.5773 75.1529 58.9087 75.0595 59.282C74.9755 59.646 74.9335 60.0147 74.9335 60.388ZM82.3146 58.988C82.3426 58.568 82.4313 58.204 82.5806 57.896C82.7299 57.588 82.9306 57.336 83.1826 57.14C83.4439 56.944 83.7473 56.7993 84.0926 56.706C84.4379 56.6127 84.8206 56.566 85.2406 56.566C85.5579 56.566 85.8753 56.5987 86.1926 56.664C86.5099 56.72 86.7946 56.832 87.0466 57C87.2986 57.168 87.5039 57.406 87.6626 57.714C87.8213 58.0127 87.9006 58.4047 87.9006 58.89V62.726C87.9006 63.0807 88.0733 63.258 88.4186 63.258C88.5213 63.258 88.6146 63.2393 88.6986 63.202V63.944C88.5959 63.9627 88.5026 63.9767 88.4186 63.986C88.3439 63.9953 88.2459 64 88.1246 64C87.9006 64 87.7186 63.972 87.5786 63.916C87.4479 63.8507 87.3453 63.762 87.2706 63.65C87.1959 63.538 87.1446 63.4073 87.1166 63.258C87.0979 63.0993 87.0886 62.9267 87.0886 62.74H87.0606C86.9019 62.9733 86.7386 63.1833 86.5706 63.37C86.4119 63.5473 86.2299 63.6967 86.0246 63.818C85.8286 63.9393 85.5999 64.0327 85.3386 64.098C85.0866 64.1633 84.7833 64.196 84.4286 64.196C84.0926 64.196 83.7753 64.154 83.4766 64.07C83.1873 63.9953 82.9306 63.874 82.7066 63.706C82.4919 63.5287 82.3193 63.3093 82.1886 63.048C82.0673 62.7773 82.0066 62.46 82.0066 62.096C82.0066 61.592 82.1186 61.2 82.3426 60.92C82.5666 60.6307 82.8606 60.4113 83.2246 60.262C83.5979 60.1127 84.0133 60.01 84.4706 59.954C84.9373 59.8887 85.4086 59.828 85.8846 59.772C86.0713 59.7533 86.2346 59.73 86.3746 59.702C86.5146 59.674 86.6313 59.6273 86.7246 59.562C86.8179 59.4873 86.8879 59.3893 86.9346 59.268C86.9906 59.1467 87.0186 58.988 87.0186 58.792C87.0186 58.4933 86.9673 58.2507 86.8646 58.064C86.7713 57.868 86.6359 57.714 86.4586 57.602C86.2906 57.49 86.0899 57.4153 85.8566 57.378C85.6326 57.3313 85.3899 57.308 85.1286 57.308C84.5686 57.308 84.1113 57.4433 83.7566 57.714C83.4019 57.9753 83.2153 58.4 83.1966 58.988H82.3146ZM87.0186 60.052H86.9906C86.9346 60.1547 86.8273 60.2293 86.6686 60.276C86.5099 60.3227 86.3699 60.3553 86.2486 60.374C85.8753 60.4393 85.4879 60.5 85.0866 60.556C84.6946 60.6027 84.3353 60.6773 84.0086 60.78C83.6819 60.8827 83.4113 61.032 83.1966 61.228C82.9913 61.4147 82.8886 61.6853 82.8886 62.04C82.8886 62.264 82.9306 62.4647 83.0146 62.642C83.1079 62.81 83.2293 62.9593 83.3786 63.09C83.5279 63.2113 83.7006 63.3047 83.8966 63.37C84.0926 63.4353 84.2933 63.468 84.4986 63.468C84.8346 63.468 85.1566 63.4167 85.4646 63.314C85.7726 63.2113 86.0386 63.062 86.2626 62.866C86.4959 62.67 86.6779 62.432 86.8086 62.152C86.9486 61.872 87.0186 61.5547 87.0186 61.2V60.052ZM93.5548 56.776H94.3668V58.47H94.3948C94.6188 57.882 94.9642 57.4293 95.4308 57.112C95.9068 56.7947 96.4715 56.65 97.1248 56.678V57.56C96.7235 57.5413 96.3595 57.5973 96.0328 57.728C95.7062 57.8493 95.4215 58.0267 95.1788 58.26C94.9455 58.4933 94.7635 58.7733 94.6328 59.1C94.5022 59.4173 94.4368 59.7673 94.4368 60.15V64H93.5548V56.776ZM97.9849 54.004H98.8669V55.418H97.9849V54.004ZM97.9849 56.776H98.8669V64H97.9849V56.776ZM100.541 56.776H101.423V58.022H101.451C101.619 57.5833 101.918 57.2333 102.347 56.972C102.776 56.7013 103.248 56.566 103.761 56.566C104.265 56.566 104.685 56.6313 105.021 56.762C105.366 56.8927 105.642 57.0793 105.847 57.322C106.052 57.5553 106.197 57.8447 106.281 58.19C106.365 58.5353 106.407 58.9227 106.407 59.352V64H105.525V59.492C105.525 59.184 105.497 58.8993 105.441 58.638C105.385 58.3673 105.287 58.134 105.147 57.938C105.007 57.742 104.816 57.588 104.573 57.476C104.34 57.364 104.046 57.308 103.691 57.308C103.336 57.308 103.019 57.3733 102.739 57.504C102.468 57.6253 102.235 57.798 102.039 58.022C101.852 58.2367 101.703 58.498 101.591 58.806C101.488 59.1047 101.432 59.4313 101.423 59.786V64H100.541V56.776ZM113.17 59.044C113.049 58.5027 112.825 58.078 112.498 57.77C112.172 57.462 111.714 57.308 111.126 57.308C110.706 57.308 110.338 57.3967 110.02 57.574C109.703 57.7513 109.437 57.9847 109.222 58.274C109.017 58.5633 108.858 58.8947 108.746 59.268C108.644 59.632 108.592 60.0053 108.592 60.388C108.592 60.7707 108.644 61.1487 108.746 61.522C108.858 61.886 109.017 62.2127 109.222 62.502C109.437 62.7913 109.703 63.0247 110.02 63.202C110.338 63.3793 110.706 63.468 111.126 63.468C111.397 63.468 111.654 63.4167 111.896 63.314C112.139 63.2113 112.354 63.0713 112.54 62.894C112.727 62.7073 112.881 62.488 113.002 62.236C113.124 61.984 113.198 61.7087 113.226 61.41H114.108C113.987 62.2873 113.665 62.9733 113.142 63.468C112.62 63.9533 111.948 64.196 111.126 64.196C110.576 64.196 110.086 64.098 109.656 63.902C109.236 63.6967 108.882 63.4213 108.592 63.076C108.303 62.7307 108.084 62.3293 107.934 61.872C107.785 61.4053 107.71 60.9107 107.71 60.388C107.71 59.8653 107.785 59.3753 107.934 58.918C108.084 58.4513 108.303 58.0453 108.592 57.7C108.882 57.3547 109.236 57.0793 109.656 56.874C110.086 56.6687 110.576 56.566 111.126 56.566C111.901 56.566 112.554 56.7713 113.086 57.182C113.628 57.5927 113.95 58.2133 114.052 59.044H113.17ZM118.274 55.768H117.56L119.03 53.794H120.122L118.274 55.768ZM118.386 57.308C117.966 57.308 117.597 57.3967 117.28 57.574C116.963 57.7513 116.697 57.9847 116.482 58.274C116.277 58.5633 116.118 58.8947 116.006 59.268C115.903 59.632 115.852 60.0053 115.852 60.388C115.852 60.7707 115.903 61.1487 116.006 61.522C116.118 61.886 116.277 62.2127 116.482 62.502C116.697 62.7913 116.963 63.0247 117.28 63.202C117.597 63.3793 117.966 63.468 118.386 63.468C118.806 63.468 119.175 63.3793 119.492 63.202C119.809 63.0247 120.071 62.7913 120.276 62.502C120.491 62.2127 120.649 61.886 120.752 61.522C120.864 61.1487 120.92 60.7707 120.92 60.388C120.92 60.0053 120.864 59.632 120.752 59.268C120.649 58.8947 120.491 58.5633 120.276 58.274C120.071 57.9847 119.809 57.7513 119.492 57.574C119.175 57.3967 118.806 57.308 118.386 57.308ZM118.386 56.566C118.937 56.566 119.422 56.6687 119.842 56.874C120.271 57.0793 120.631 57.3547 120.92 57.7C121.209 58.0453 121.429 58.4513 121.578 58.918C121.727 59.3753 121.802 59.8653 121.802 60.388C121.802 60.9107 121.727 61.4053 121.578 61.872C121.429 62.3293 121.209 62.7307 120.92 63.076C120.631 63.4213 120.271 63.6967 119.842 63.902C119.422 64.098 118.937 64.196 118.386 64.196C117.835 64.196 117.345 64.098 116.916 63.902C116.496 63.6967 116.141 63.4213 115.852 63.076C115.563 62.7307 115.343 62.3293 115.194 61.872C115.045 61.4053 114.97 60.9107 114.97 60.388C114.97 59.8653 115.045 59.3753 115.194 58.918C115.343 58.4513 115.563 58.0453 115.852 57.7C116.141 57.3547 116.496 57.0793 116.916 56.874C117.345 56.6687 117.835 56.566 118.386 56.566ZM123.099 56.776H123.981V58.022H124.009C124.177 57.5833 124.476 57.2333 124.905 56.972C125.335 56.7013 125.806 56.566 126.319 56.566C126.823 56.566 127.243 56.6313 127.579 56.762C127.925 56.8927 128.2 57.0793 128.405 57.322C128.611 57.5553 128.755 57.8447 128.839 58.19C128.923 58.5353 128.965 58.9227 128.965 59.352V64H128.083V59.492C128.083 59.184 128.055 58.8993 127.999 58.638C127.943 58.3673 127.845 58.134 127.705 57.938C127.565 57.742 127.374 57.588 127.131 57.476C126.898 57.364 126.604 57.308 126.249 57.308C125.895 57.308 125.577 57.3733 125.297 57.504C125.027 57.6253 124.793 57.798 124.597 58.022C124.411 58.2367 124.261 58.498 124.149 58.806C124.047 59.1047 123.991 59.4313 123.981 59.786V64H123.099V56.776ZM140.885 64H140.073V62.628H140.045C139.952 62.8613 139.812 63.076 139.625 63.272C139.448 63.468 139.243 63.636 139.009 63.776C138.776 63.9067 138.524 64.0093 138.253 64.084C137.992 64.1587 137.731 64.196 137.469 64.196C136.919 64.196 136.438 64.098 136.027 63.902C135.626 63.6967 135.29 63.4213 135.019 63.076C134.749 62.7213 134.548 62.3153 134.417 61.858C134.287 61.3913 134.221 60.9013 134.221 60.388C134.221 59.8747 134.287 59.3893 134.417 58.932C134.548 58.4653 134.749 58.0593 135.019 57.714C135.29 57.3593 135.626 57.0793 136.027 56.874C136.438 56.6687 136.919 56.566 137.469 56.566C137.74 56.566 138.001 56.5987 138.253 56.664C138.515 56.7293 138.757 56.832 138.981 56.972C139.205 57.1027 139.401 57.266 139.569 57.462C139.747 57.658 139.882 57.8867 139.975 58.148H140.003V54.004H140.885V64ZM135.103 60.388C135.103 60.7613 135.145 61.1347 135.229 61.508C135.323 61.872 135.463 62.1987 135.649 62.488C135.845 62.7773 136.093 63.0153 136.391 63.202C136.69 63.3793 137.049 63.468 137.469 63.468C137.936 63.468 138.328 63.3793 138.645 63.202C138.972 63.0153 139.233 62.7773 139.429 62.488C139.635 62.1987 139.779 61.872 139.863 61.508C139.957 61.1347 140.003 60.7613 140.003 60.388C140.003 60.0147 139.957 59.646 139.863 59.282C139.779 58.9087 139.635 58.5773 139.429 58.288C139.233 57.9987 138.972 57.7653 138.645 57.588C138.328 57.4013 137.936 57.308 137.469 57.308C137.049 57.308 136.69 57.4013 136.391 57.588C136.093 57.7653 135.845 57.9987 135.649 58.288C135.463 58.5773 135.323 58.9087 135.229 59.282C135.145 59.646 135.103 60.0147 135.103 60.388ZM147.763 59.884C147.753 59.548 147.693 59.226 147.581 58.918C147.478 58.61 147.329 58.3393 147.133 58.106C146.937 57.8633 146.699 57.672 146.419 57.532C146.139 57.3827 145.821 57.308 145.467 57.308C145.103 57.308 144.781 57.3827 144.501 57.532C144.221 57.672 143.983 57.8633 143.787 58.106C143.591 58.3393 143.432 58.6147 143.311 58.932C143.199 59.24 143.124 59.5573 143.087 59.884H147.763ZM143.087 60.626C143.087 60.9433 143.129 61.2747 143.213 61.62C143.306 61.956 143.451 62.2593 143.647 62.53C143.843 62.8007 144.09 63.0247 144.389 63.202C144.687 63.3793 145.047 63.468 145.467 63.468C146.111 63.468 146.615 63.3 146.979 62.964C147.343 62.628 147.595 62.18 147.735 61.62H148.617C148.43 62.4413 148.085 63.076 147.581 63.524C147.086 63.972 146.381 64.196 145.467 64.196C144.897 64.196 144.403 64.098 143.983 63.902C143.572 63.6967 143.236 63.4213 142.975 63.076C142.713 62.7213 142.517 62.3153 142.387 61.858C142.265 61.3913 142.205 60.9013 142.205 60.388C142.205 59.912 142.265 59.4453 142.387 58.988C142.517 58.5307 142.713 58.1247 142.975 57.77C143.236 57.406 143.572 57.1167 143.983 56.902C144.403 56.678 144.897 56.566 145.467 56.566C146.045 56.566 146.54 56.6827 146.951 56.916C147.361 57.1493 147.693 57.4573 147.945 57.84C148.206 58.2133 148.393 58.6473 148.505 59.142C148.617 59.6273 148.663 60.122 148.645 60.626H143.087ZM153.725 56.776H154.537V57.994H154.579C154.812 57.546 155.115 57.196 155.489 56.944C155.871 56.692 156.357 56.566 156.945 56.566C157.421 56.566 157.85 56.6827 158.233 56.916C158.625 57.1493 158.886 57.504 159.017 57.98C159.231 57.504 159.549 57.1493 159.969 56.916C160.389 56.6827 160.837 56.566 161.313 56.566C162.909 56.566 163.707 57.4107 163.707 59.1V64H162.825V59.142C162.825 58.5447 162.699 58.092 162.447 57.784C162.195 57.4667 161.751 57.308 161.117 57.308C160.734 57.308 160.417 57.3827 160.165 57.532C159.913 57.672 159.712 57.8633 159.563 58.106C159.413 58.3487 159.306 58.6287 159.241 58.946C159.185 59.254 159.157 59.576 159.157 59.912V64H158.275V59.1C158.275 58.8573 158.247 58.6287 158.191 58.414C158.144 58.19 158.06 57.9987 157.939 57.84C157.827 57.672 157.673 57.5413 157.477 57.448C157.281 57.3547 157.043 57.308 156.763 57.308C156.389 57.308 156.063 57.378 155.783 57.518C155.512 57.6487 155.288 57.8353 155.111 58.078C154.943 58.3113 154.817 58.5913 154.733 58.918C154.649 59.2353 154.607 59.5853 154.607 59.968V64H153.725V56.776ZM165.401 54.004H166.283V55.418H165.401V54.004ZM165.401 56.776H166.283V64H165.401V56.776ZM171.853 54.004H172.735V58.022H172.763C172.931 57.5833 173.23 57.2333 173.659 56.972C174.089 56.7013 174.56 56.566 175.073 56.566C175.577 56.566 175.997 56.6313 176.333 56.762C176.679 56.8927 176.954 57.0793 177.159 57.322C177.365 57.5553 177.509 57.8447 177.593 58.19C177.677 58.5353 177.719 58.9227 177.719 59.352V64H176.837V59.492C176.837 59.184 176.809 58.8993 176.753 58.638C176.697 58.3673 176.599 58.134 176.459 57.938C176.319 57.742 176.128 57.588 175.885 57.476C175.652 57.364 175.358 57.308 175.003 57.308C174.649 57.308 174.331 57.3733 174.051 57.504C173.781 57.6253 173.547 57.798 173.351 58.022C173.165 58.2367 173.015 58.498 172.903 58.806C172.801 59.1047 172.745 59.4313 172.735 59.786V64H171.853V54.004ZM182.439 57.308C182.019 57.308 181.65 57.3967 181.333 57.574C181.016 57.7513 180.75 57.9847 180.535 58.274C180.33 58.5633 180.171 58.8947 180.059 59.268C179.956 59.632 179.905 60.0053 179.905 60.388C179.905 60.7707 179.956 61.1487 180.059 61.522C180.171 61.886 180.33 62.2127 180.535 62.502C180.75 62.7913 181.016 63.0247 181.333 63.202C181.65 63.3793 182.019 63.468 182.439 63.468C182.859 63.468 183.228 63.3793 183.545 63.202C183.862 63.0247 184.124 62.7913 184.329 62.502C184.544 62.2127 184.702 61.886 184.805 61.522C184.917 61.1487 184.973 60.7707 184.973 60.388C184.973 60.0053 184.917 59.632 184.805 59.268C184.702 58.8947 184.544 58.5633 184.329 58.274C184.124 57.9847 183.862 57.7513 183.545 57.574C183.228 57.3967 182.859 57.308 182.439 57.308ZM182.439 56.566C182.99 56.566 183.475 56.6687 183.895 56.874C184.324 57.0793 184.684 57.3547 184.973 57.7C185.262 58.0453 185.482 58.4513 185.631 58.918C185.78 59.3753 185.855 59.8653 185.855 60.388C185.855 60.9107 185.78 61.4053 185.631 61.872C185.482 62.3293 185.262 62.7307 184.973 63.076C184.684 63.4213 184.324 63.6967 183.895 63.902C183.475 64.098 182.99 64.196 182.439 64.196C181.888 64.196 181.398 64.098 180.969 63.902C180.549 63.6967 180.194 63.4213 179.905 63.076C179.616 62.7307 179.396 62.3293 179.247 61.872C179.098 61.4053 179.023 60.9107 179.023 60.388C179.023 59.8653 179.098 59.3753 179.247 58.918C179.396 58.4513 179.616 58.0453 179.905 57.7C180.194 57.3547 180.549 57.0793 180.969 56.874C181.398 56.6687 181.888 56.566 182.439 56.566ZM193.27 63.412C193.27 63.944 193.21 64.4247 193.088 64.854C192.976 65.2833 192.794 65.6473 192.542 65.946C192.29 66.2447 191.959 66.4733 191.548 66.632C191.147 66.7907 190.652 66.87 190.064 66.87C189.7 66.87 189.346 66.828 189 66.744C188.655 66.66 188.342 66.5293 188.062 66.352C187.792 66.1747 187.563 65.946 187.376 65.666C187.199 65.3953 187.096 65.0687 187.068 64.686H187.95C187.997 64.9567 188.086 65.1807 188.216 65.358C188.356 65.5447 188.52 65.694 188.706 65.806C188.902 65.918 189.117 65.9973 189.35 66.044C189.584 66.1 189.822 66.128 190.064 66.128C190.886 66.128 191.478 65.8947 191.842 65.428C192.206 64.9613 192.388 64.2893 192.388 63.412V62.432H192.36C192.155 62.88 191.852 63.2393 191.45 63.51C191.058 63.7807 190.596 63.916 190.064 63.916C189.486 63.916 188.991 63.8227 188.58 63.636C188.17 63.44 187.829 63.174 187.558 62.838C187.297 62.502 187.106 62.11 186.984 61.662C186.863 61.2047 186.802 60.7193 186.802 60.206C186.802 59.7113 186.872 59.2447 187.012 58.806C187.162 58.358 187.372 57.9707 187.642 57.644C187.922 57.308 188.263 57.0467 188.664 56.86C189.075 56.664 189.542 56.566 190.064 56.566C190.335 56.566 190.587 56.6033 190.82 56.678C191.063 56.7527 191.282 56.86 191.478 57C191.674 57.1307 191.847 57.2847 191.996 57.462C192.155 57.6393 192.276 57.826 192.36 58.022H192.388V56.776H193.27V63.412ZM190.064 63.174C190.447 63.174 190.783 63.0947 191.072 62.936C191.362 62.768 191.604 62.5533 191.8 62.292C191.996 62.0213 192.141 61.7133 192.234 61.368C192.337 61.0227 192.388 60.668 192.388 60.304C192.388 59.9493 192.346 59.5947 192.262 59.24C192.178 58.8853 192.043 58.5633 191.856 58.274C191.67 57.9847 191.427 57.7513 191.128 57.574C190.839 57.3967 190.484 57.308 190.064 57.308C189.644 57.308 189.285 57.3967 188.986 57.574C188.688 57.742 188.44 57.966 188.244 58.246C188.048 58.526 187.904 58.848 187.81 59.212C187.726 59.5667 187.684 59.9307 187.684 60.304C187.684 60.668 187.731 61.0227 187.824 61.368C187.918 61.7133 188.062 62.0213 188.258 62.292C188.454 62.5533 188.702 62.768 189 62.936C189.299 63.0947 189.654 63.174 190.064 63.174ZM194.861 58.988C194.889 58.568 194.978 58.204 195.127 57.896C195.277 57.588 195.477 57.336 195.729 57.14C195.991 56.944 196.294 56.7993 196.639 56.706C196.985 56.6127 197.367 56.566 197.787 56.566C198.105 56.566 198.422 56.5987 198.739 56.664C199.057 56.72 199.341 56.832 199.593 57C199.845 57.168 200.051 57.406 200.209 57.714C200.368 58.0127 200.447 58.4047 200.447 58.89V62.726C200.447 63.0807 200.62 63.258 200.965 63.258C201.068 63.258 201.161 63.2393 201.245 63.202V63.944C201.143 63.9627 201.049 63.9767 200.965 63.986C200.891 63.9953 200.793 64 200.671 64C200.447 64 200.265 63.972 200.125 63.916C199.995 63.8507 199.892 63.762 199.817 63.65C199.743 63.538 199.691 63.4073 199.663 63.258C199.645 63.0993 199.635 62.9267 199.635 62.74H199.607C199.449 62.9733 199.285 63.1833 199.117 63.37C198.959 63.5473 198.777 63.6967 198.571 63.818C198.375 63.9393 198.147 64.0327 197.885 64.098C197.633 64.1633 197.33 64.196 196.975 64.196C196.639 64.196 196.322 64.154 196.023 64.07C195.734 63.9953 195.477 63.874 195.253 63.706C195.039 63.5287 194.866 63.3093 194.735 63.048C194.614 62.7773 194.553 62.46 194.553 62.096C194.553 61.592 194.665 61.2 194.889 60.92C195.113 60.6307 195.407 60.4113 195.771 60.262C196.145 60.1127 196.56 60.01 197.017 59.954C197.484 59.8887 197.955 59.828 198.431 59.772C198.618 59.7533 198.781 59.73 198.921 59.702C199.061 59.674 199.178 59.6273 199.271 59.562C199.365 59.4873 199.435 59.3893 199.481 59.268C199.537 59.1467 199.565 58.988 199.565 58.792C199.565 58.4933 199.514 58.2507 199.411 58.064C199.318 57.868 199.183 57.714 199.005 57.602C198.837 57.49 198.637 57.4153 198.403 57.378C198.179 57.3313 197.937 57.308 197.675 57.308C197.115 57.308 196.658 57.4433 196.303 57.714C195.949 57.9753 195.762 58.4 195.743 58.988H194.861ZM199.565 60.052H199.537C199.481 60.1547 199.374 60.2293 199.215 60.276C199.057 60.3227 198.917 60.3553 198.795 60.374C198.422 60.4393 198.035 60.5 197.633 60.556C197.241 60.6027 196.882 60.6773 196.555 60.78C196.229 60.8827 195.958 61.032 195.743 61.228C195.538 61.4147 195.435 61.6853 195.435 62.04C195.435 62.264 195.477 62.4647 195.561 62.642C195.655 62.81 195.776 62.9593 195.925 63.09C196.075 63.2113 196.247 63.3047 196.443 63.37C196.639 63.4353 196.84 63.468 197.045 63.468C197.381 63.468 197.703 63.4167 198.011 63.314C198.319 63.2113 198.585 63.062 198.809 62.866C199.043 62.67 199.225 62.432 199.355 62.152C199.495 61.872 199.565 61.5547 199.565 61.2V60.052ZM202.205 56.776H203.017V58.47H203.045C203.269 57.882 203.615 57.4293 204.081 57.112C204.557 56.7947 205.122 56.65 205.775 56.678V57.56C205.374 57.5413 205.01 57.5973 204.683 57.728C204.357 57.8493 204.072 58.0267 203.829 58.26C203.596 58.4933 203.414 58.7733 203.283 59.1C203.153 59.4173 203.087 59.7673 203.087 60.15V64H202.205V56.776ZM205.854 64V62.516H207.03V64H205.854Z" fill="#010101"/>
</svg>
