<?xml version="1.0" encoding="UTF-8"?>
<svg id="diseño" xmlns="http://www.w3.org/2000/svg" xmlns:xlink="http://www.w3.org/1999/xlink" viewBox="0 0 431 609.57">
  <defs>
    <style>
      .cls-1 {
        fill: none;
      }

      .cls-2 {
        fill: #e9e3e0;
      }

      .cls-3 {
        clip-path: url(#clippath-1);
      }

      .cls-4 {
        clip-path: url(#clippath-3);
      }

      .cls-5 {
        clip-path: url(#clippath-2);
      }

      .cls-6 {
        fill: #fff;
      }

      .cls-7 {
        fill: #221f20;
      }

      .cls-8 {
        clip-path: url(#clippath);
      }
    </style>
    <clipPath id="clippath">
      <rect class="cls-1" x="21.61" y="35.06" width="383.11" height="554.76"/>
    </clipPath>
    <clipPath id="clippath-1">
      <rect class="cls-1" x="21.61" y="35.06" width="383.11" height="554.76"/>
    </clipPath>
    <clipPath id="clippath-2">
      <rect class="cls-1" x="21.61" y="35.06" width="383.11" height="554.76"/>
    </clipPath>
    <clipPath id="clippath-3">
      <rect class="cls-1" x="21.61" y="35.06" width="383.11" height="554.76"/>
    </clipPath>
  </defs>
  <g class="cls-8">
    <path class="cls-6" d="M383.2,152.46c0,3.21-1.2,5.85-3.61,7.9-2.41,2.06-6.02,3.61-10.84,4.67-4.82,1.05-10.89,1.58-18.21,1.58s-13.39-.53-18.21-1.58c-4.82-1.05-8.43-2.61-10.84-4.67-2.41-2.06-3.61-4.64-3.61-7.75s1.23-5.69,3.69-7.75c2.46-2.06,6.1-3.61,10.91-4.67,4.82-1.05,10.84-1.58,18.06-1.58s13.42.5,18.29,1.51c4.87,1,8.48,2.56,10.84,4.67,2.36,2.11,3.54,4.67,3.54,7.68M404.72,152.76c0-9.33-2.21-17.43-6.62-24.31-4.41-6.87-10.74-12.14-18.96-15.8-8.23-3.66-18.01-5.49-29.35-5.49s-21.02,1.78-29.05,5.34c-8.03,3.56-14.1,8.71-18.21,15.43-4.11,6.72-6.17,14.75-6.17,24.08s2.16,17.59,6.47,24.46c4.31,6.87,10.59,12.19,18.81,15.95,8.23,3.76,17.96,5.64,29.2,5.64s21.17-1.78,29.2-5.34c8.03-3.56,14.15-8.75,18.36-15.58,4.21-6.82,6.32-14.95,6.32-24.38M403.22,277.69v-28.29h-90l6.92,6.77v-9.93c0-4.82,1.11-8.7,3.31-11.66,2.21-2.96,5.55-5.14,10.01-6.55,4.47-1.4,10.21-2.11,17.23-2.11s12.62.73,17.08,2.18c4.47,1.46,7.78,3.64,9.93,6.55,2.16,2.91,3.24,6.67,3.24,11.29v18.06l22.27-.15v-17.16c0-11.04-2.08-20.44-6.25-28.22-4.16-7.77-10.23-13.7-18.21-17.76-7.98-4.06-17.63-6.1-28.97-6.1s-20.72,1.96-28.44,5.87c-7.73,3.91-13.57,9.71-17.53,17.38-3.96,7.68-5.94,17.13-5.94,28.37v31.45h105.35ZM403.22,360.88v-23.93h-46.51l-37.32,1.96.15,4.82,83.68-31v-30.4h-105.35v24.08h42.44l26.79-1.5-.6-1.96-68.63,26.49v31.45h105.35ZM383.5,427.52v-50.87h-21.22v50.87h21.22ZM403.22,445.28v-24.68l-92.71-21.67v8.13l92.71-21.37v-28.6l-105.35,27.09v33.86l105.35,27.24ZM403.22,502.93v-63.66h-23.33v41.54l7.53-6.17h-89.55v28.29h105.35ZM403.22,582.59v-28.29h-90.3l4.67,6.77v-15.2c0-3.91.88-6.8,2.63-8.65,1.76-1.85,4.44-2.78,8.05-2.78,2.31,0,4.32.45,6.02,1.35,1.71.9,3.01,2.21,3.91,3.91.9,1.71,1.35,3.71,1.35,6.02v15.8h20.02v-17.46c0-4.21,1-7.37,3.01-9.48,2.01-2.11,5.02-3.16,9.03-3.16s6.75,1.08,8.8,3.24c2.06,2.16,3.09,5.29,3.09,9.41v22.42h19.72v-23.33c0-8.53-1.23-15.78-3.69-21.75-2.46-5.97-6.04-10.48-10.76-13.55-4.71-3.06-10.43-4.59-17.16-4.59-5.12,0-9.56,1-13.32,3.01-3.76,2.01-6.8,4.97-9.11,8.88-2.31,3.91-3.81,8.73-4.52,14.45l4.06.45c-.9-5.12-2.46-9.35-4.67-12.72-2.21-3.36-4.94-5.92-8.2-7.68-3.26-1.75-7.05-2.63-11.36-2.63-5.82,0-10.71,1.41-14.67,4.21-3.96,2.81-6.95,7-8.95,12.57-2.01,5.57-3.01,12.52-3.01,20.84v37.93h105.35Z"/>
    <path class="cls-6" d="M264.75,246.96v-48.16h-23.78v48.16h23.78ZM248.05,292.3v-36.87h-22.42v36.87h22.42ZM290.34,313.07v-67.58h-22.27v45.45l6.47-6.17h-74.05l6.77,7.83v-46.2h-22.27v66.67h105.35ZM292,355.42c0-8.23-1.58-15.18-4.74-20.84-3.16-5.67-7.65-9.93-13.47-12.79-5.82-2.86-12.89-4.29-21.22-4.29h-67.58v24.68h69.53c3.11,0,5.74.45,7.9,1.35,2.16.9,3.76,2.21,4.82,3.91,1.05,1.71,1.58,3.71,1.58,6.02s-.53,4.47-1.58,6.17c-1.05,1.71-2.58,3.04-4.59,3.99-2.01.95-4.46,1.43-7.37,1.43h-70.28v28.29h68.93c8.23,0,15.15-1.43,20.77-4.29,5.62-2.86,9.91-7.1,12.87-12.72,2.96-5.62,4.44-12.59,4.44-20.92M290.34,505.16v-24.98h-59.3l-24.68.6.15,1.35,83.83-18.06v-23.03l-83.98-18.06-.3,1.35,24.68.6h59.6v-27.24h-105.35v39.28l70.13,14.75v-2.71l-70.13,14.75v41.39h105.35ZM270.62,572.05v-50.87h-21.22v50.87h21.22ZM290.34,589.81v-24.68l-92.71-21.67v8.13l92.71-21.37v-28.6l-105.35,27.09v33.86l105.35,27.24Z"/>
    <path class="cls-2" d="M300.04,178.97c0,74.69-60.76,135.45-135.45,135.45S29.14,253.66,29.14,178.97,89.9,43.52,164.59,43.52s135.45,60.76,135.45,135.45ZM30.08,178.97c0,74.17,60.34,134.51,134.51,134.51s134.51-60.34,134.51-134.51S238.76,44.46,164.59,44.46,30.08,104.8,30.08,178.97Z"/>
  </g>
  <path class="cls-7" d="M281.41,510.72l-29.09,54.97,20.6,9.43-.55,1.21-20.67-9.47-3.79,7.17-1.18-.62,3.76-7.1-50.86-23.29,81.79-32.3ZM251.11,565.13l27.44-51.85-75.53,29.83,48.09,22.02Z"/>
  <path class="cls-7" d="M389.76,367.81l-29.09,54.97,20.6,9.43-.55,1.21-20.67-9.47-3.79,7.17-1.18-.62,3.76-7.1-50.86-23.29,81.79-32.3ZM359.46,422.22l27.44-51.85-75.53,29.83,48.09,22.02Z"/>
  <polygon class="cls-7" points="279.4 413.07 200.66 424.11 254.11 451.07 200.54 478.75 278.09 491.75 277.87 493.06 196.37 479.4 251.18 451.08 196.25 423.38 279.22 411.75 279.4 413.07"/>
  <g class="cls-3">
    <path class="cls-7" d="M279.18,350.74c0,.14,0,.29,0,.43-.17,9.85-3.12,17.48-8.77,22.66-8.75,8.02-20.7,7.29-21.2,7.26h-49.88s0-1.33,0-1.33h49.93c.16,0,11.95.72,20.27-6.92,5.37-4.93,8.17-12.22,8.33-21.69.1-5.39-1.64-9.84-5.15-13.27-8.92-8.72-26.51-8.12-26.68-8.11l-53.32,2.67-.07-1.33,53.33-2.67c.75-.03,18.34-.63,27.67,8.49,3.69,3.61,5.56,8.26,5.56,13.82Z"/>
  </g>
  <polygon class="cls-7" points="281.34 299.08 190.62 301.04 192.65 254.4 193.99 254.46 192.02 299.68 279.94 297.78 277.98 258.06 279.31 258 281.34 299.08"/>
  <rect class="cls-7" x="234.65" y="266.5" width="1.33" height="38.59"/>
  <rect class="cls-7" x="250.85" y="206.36" width="1.33" height="32.14" transform="translate(-20.02 24.94) rotate(-5.46)"/>
  <g class="cls-5">
    <path class="cls-7" d="M391.66,542.17c0,1.59-.04,3.25-.13,4.98-.49,9.7-2.23,17.98-2.25,18.06l-.1.49-.5.04-83.32,6.05-.05-.66c-.01-.12-.99-12.2.42-24.54,1.92-16.81,7.12-26.06,15.46-27.5,8.23-1.42,15.71,4.62,21.63,17.46,2.74,5.95,4.57,12.11,5.56,15.93.53-3.99,1.66-10.5,3.95-16.96,4.9-13.81,12.84-21.11,22.96-21.11,4.46,0,8.08,1.68,10.76,4.98,3.73,4.61,5.61,12.26,5.61,22.78ZM388.08,564.44c.81-4.12,6.05-32.96-3.06-44.22-2.41-2.98-5.68-4.48-9.72-4.48-23.1,0-25.97,40.3-26,40.71l-1.32.09c-.08-.39-8.09-39.32-26.56-36.14-17.31,2.98-15.21,44.22-14.83,49.96l81.49-5.91Z"/>
  </g>
  <polygon class="cls-7" points="389.33 489.71 306.01 493.74 305.94 492.41 387.94 488.44 386.63 456.44 387.97 456.38 389.33 489.71"/>
  <polygon class="cls-7" points="393.39 292.39 317.21 347.86 386.67 351.76 386.6 353.09 313.4 348.98 389.21 293.79 307.32 295.09 307.3 293.76 393.39 292.39"/>
  <g class="cls-4">
    <path class="cls-7" d="M388.84,253.79c0,5.86-.87,10.02-.89,10.12l-.11.52h-.53s-79.29.68-79.29.68l-.14-.48c-.06-.22-6.33-21.82,4.5-36.53,6.54-8.88,17.84-13.47,33.6-13.66,15.83-.18,27.51,4.21,34.73,13.05,6.69,8.19,8.15,18.68,8.15,26.3ZM386.75,263.1c.6-3.35,3.33-22.02-7.1-34.78-6.95-8.51-18.28-12.73-33.67-12.55-15.31.18-26.26,4.59-32.53,13.11-9.56,12.97-5.27,31.66-4.43,34.88l77.73-.66Z"/>
    <path class="cls-7" d="M392.68,153.23c0,5.17-1.89,9.88-5.64,14-7.47,8.22-22.07,13.41-39.05,13.87-16.14.44-25.11-4.9-29.79-9.46-4.87-4.74-7.56-11.09-7.56-17.87h1.33c0,6.42,2.54,12.42,7.15,16.91,6.45,6.28,16.42,9.42,28.82,9.08,16.63-.45,30.87-5.47,38.1-13.43,3.85-4.24,5.63-9.12,5.25-14.52-1.3-18.73-16.2-28.46-41.97-27.38-16.19.68-43.36,5.73-43.36,32h-1.33c0-20.29,15.85-32.13,44.63-33.33,26.6-1.11,42,9.05,43.35,28.62.03.51.05,1.01.05,1.5Z"/>
  </g>
</svg>