<?xml version="1.0" encoding="UTF-8"?>
<svg id="diseño" xmlns="http://www.w3.org/2000/svg" xmlns:xlink="http://www.w3.org/1999/xlink" viewBox="0 0 459.46 475.04">
  <defs>
    <style>
      .cls-1 {
        fill: none;
      }

      .cls-2 {
        fill: #e2dcd8;
      }

      .cls-3 {
        clip-path: url(#clippath-1);
      }

      .cls-4 {
        clip-path: url(#clippath-2);
      }

      .cls-5 {
        fill: #fff;
      }

      .cls-6 {
        fill: #221f20;
      }

      .cls-7 {
        clip-path: url(#clippath);
      }
    </style>
    <clipPath id="clippath">
      <rect class="cls-1" x="8.54" y="-80" width="434.96" height="536.41"/>
    </clipPath>
    <clipPath id="clippath-1">
      <rect class="cls-1" x="53.21" y="-80" width="390.29" height="536.41"/>
    </clipPath>
    <clipPath id="clippath-2">
      <rect class="cls-1" x="53.21" y="-80" width="390.29" height="536.41"/>
    </clipPath>
  </defs>
  <g class="cls-7">
    <path class="cls-2" d="M157.17,443.37c-3.69,0-7.39-.14-11.11-.42-79.17-6-138.7-75.3-132.7-154.48,2.91-38.35,20.58-73.28,49.75-98.34,29.18-25.06,66.37-37.26,104.72-34.36,38.35,2.91,73.28,20.58,98.34,49.75,25.06,29.18,37.26,66.37,34.36,104.72s-20.58,73.28-49.75,98.34c-26.35,22.63-59.23,34.78-93.61,34.78ZM156.72,156.35c-34.14,0-66.79,12.06-92.96,34.54-28.97,24.89-46.52,59.57-49.41,97.66-5.96,78.62,53.15,147.44,131.78,153.4,38.09,2.89,75.02-9.23,103.99-34.12s46.52-59.57,49.41-97.66-9.23-75.02-34.12-103.99-59.57-46.52-97.66-49.41c-3.69-.28-7.37-.42-11.04-.42Z"/>
    <path class="cls-5" d="M420.62,66.1c0,3.42-1.28,6.21-3.84,8.4-2.56,2.19-6.4,3.84-11.52,4.96-5.12,1.12-11.57,1.68-19.36,1.68s-14.24-.56-19.36-1.68c-5.12-1.12-8.96-2.77-11.52-4.96-2.56-2.18-3.84-4.93-3.84-8.24s1.31-6.05,3.92-8.24c2.62-2.18,6.48-3.84,11.6-4.96,5.12-1.12,11.52-1.68,19.2-1.68s14.27.54,19.44,1.6c5.17,1.07,9.01,2.72,11.52,4.96,2.51,2.24,3.76,4.96,3.76,8.16M443.5,66.42c0-9.92-2.35-18.53-7.04-25.84-4.69-7.31-11.41-12.9-20.16-16.8-8.74-3.89-19.14-5.84-31.2-5.84s-22.34,1.9-30.88,5.68c-8.53,3.79-14.99,9.26-19.36,16.4-4.37,7.15-6.56,15.68-6.56,25.6s2.29,18.7,6.88,26c4.59,7.31,11.26,12.96,20,16.96,8.75,4,19.1,6,31.04,6,12.16,0,22.51-1.89,31.04-5.68,8.53-3.78,15.04-9.3,19.52-16.56,4.48-7.25,6.72-15.89,6.72-25.92M441.9,199.51v-30.08s-95.68,0-95.68,0l7.36,7.2v-10.56c0-5.12,1.18-9.25,3.52-12.4,2.35-3.15,5.9-5.47,10.64-6.96,4.75-1.49,10.86-2.24,18.32-2.24s13.42.77,18.16,2.32c4.75,1.55,8.27,3.87,10.56,6.96,2.3,3.1,3.44,7.1,3.44,12v19.2s23.68-.16,23.68-.16v-18.24c0-11.73-2.21-21.73-6.64-30-4.43-8.26-10.88-14.56-19.36-18.88-8.48-4.32-18.74-6.48-30.8-6.48s-22.02,2.08-30.24,6.24c-8.21,4.16-14.42,10.32-18.64,18.48-4.21,8.16-6.32,18.21-6.32,30.16v33.44s112,0,112,0ZM441.9,288.23v-25.44s-49.44,0-49.44,0l-39.68,2.08.16,5.12,88.96-32.96v-32.32s-112,0-112,0v25.6s45.12,0,45.12,0l28.48-1.6-.64-2.08-72.96,28.16v33.44s112,0,112,0ZM420.94,359.35v-54.08s-22.56,0-22.56,0v54.08s22.56,0,22.56,0ZM441.9,378.23v-26.24s-98.56-23.04-98.56-23.04v8.64s98.56-22.72,98.56-22.72v-30.4s-112,28.8-112,28.8v36s112,28.96,112,28.96ZM441.9,403.94v-31.04s-54.88,17.92-54.88,17.92v29.28s54.88-16.16,54.88-16.16ZM441.9,456.42v-30.08s-95.84,0-95.84,0l7.2,7.2v-18.24c0-3.84.88-6.8,2.64-8.88s4.51-3.12,8.24-3.12,6.67,1.07,8.48,3.2c1.82,2.13,2.72,5.12,2.72,8.96v23.2s22.24,0,22.24,0v-23.04c0-8.64-1.41-16.13-4.24-22.48-2.82-6.35-6.85-11.25-12.08-14.72-5.22-3.46-11.31-5.2-18.24-5.2-11.2,0-19.52,3.25-24.96,9.76-5.44,6.51-8.16,16.48-8.16,29.92v43.52s112,0,112,0Z"/>
    <path class="cls-5" d="M294.7,118.02v-51.2s-25.28,0-25.28,0v51.2s25.28,0,25.28,0ZM300.62,168.34c0,3.42-1.28,6.21-3.84,8.4-2.56,2.19-6.4,3.84-11.52,4.96-5.12,1.12-11.57,1.68-19.36,1.68s-14.24-.56-19.36-1.68c-5.12-1.12-8.96-2.77-11.52-4.96-2.56-2.18-3.84-4.93-3.84-8.24s1.31-6.05,3.92-8.24c2.61-2.18,6.48-3.84,11.6-4.96,5.12-1.12,11.52-1.68,19.2-1.68s14.27.54,19.44,1.6c5.18,1.07,9.01,2.72,11.52,4.96,2.51,2.24,3.76,4.96,3.76,8.16M323.5,168.66c0-9.92-2.35-18.53-7.04-25.84-4.69-7.31-11.41-12.91-20.16-16.8-8.75-3.89-19.15-5.84-31.2-5.84s-22.35,1.89-30.88,5.68c-8.53,3.79-14.99,9.26-19.36,16.4-4.37,7.15-6.56,15.68-6.56,25.6s2.29,18.7,6.88,26c4.59,7.31,11.26,12.96,20,16.96,8.75,4,19.1,6,31.04,6s22.51-1.89,31.04-5.68c8.53-3.79,15.04-9.31,19.52-16.56,4.48-7.25,6.72-15.89,6.72-25.92M323.66,254.4c0-12.26-3.25-21.92-9.76-28.96-6.5-7.04-16.37-11.46-29.6-13.28l-5.12,27.2c7.68.75,13.18,2.13,16.48,4.16,3.31,2.03,4.96,5.01,4.96,8.96,0,3.1-1.25,5.63-3.76,7.6-2.51,1.98-6.26,3.47-11.28,4.48-5.01,1.01-11.46,1.52-19.36,1.52s-14.9-.51-20.08-1.52c-5.17-1.01-9.04-2.53-11.6-4.56-2.56-2.02-3.84-4.64-3.84-7.84,0-3.41,1.73-6.08,5.2-8,3.47-1.92,8.99-3.2,16.56-3.84l-4.96-27.84c-13.44,1.07-23.41,4.99-29.92,11.76-6.5,6.77-9.76,16.35-9.76,28.72,0,9.49,2.29,17.74,6.88,24.72,4.59,6.99,11.28,12.38,20.08,16.16,8.8,3.79,19.39,5.68,31.76,5.68,12.69,0,23.28-1.71,31.76-5.12,8.48-3.41,14.83-8.48,19.04-15.2,4.21-6.72,6.32-14.99,6.32-24.8M276.94,345.25v-39.2s-23.84,0-23.84,0v39.2s23.84,0,23.84,0ZM321.9,367.33v-71.84s-23.68,0-23.68,0v48.32s6.88-6.56,6.88-6.56h-78.72s7.2,8.32,7.2,8.32v-49.12s-23.68,0-23.68,0v70.88s112,0,112,0ZM321.9,456.42v-30.08s-95.68,0-95.68,0l7.36,7.2v-10.56c0-5.12,1.18-9.25,3.52-12.4,2.35-3.15,5.89-5.47,10.64-6.96,4.75-1.49,10.86-2.24,18.32-2.24s13.42.78,18.16,2.32c4.75,1.55,8.27,3.87,10.56,6.96,2.29,3.09,3.44,7.09,3.44,12v19.2s23.68-.16,23.68-.16v-18.24c0-11.73-2.21-21.73-6.64-30-4.42-8.26-10.88-14.56-19.36-18.88-8.48-4.32-18.74-6.48-30.8-6.48s-22.02,2.08-30.24,6.24c-8.21,4.16-14.43,10.32-18.64,18.48-4.21,8.16-6.32,18.22-6.32,30.16v33.44s112,0,112,0Z"/>
  </g>
  <path class="cls-6" d="M419.77,363.11c-.1,0-.2-.02-.29-.06l-21.97-10.06-4.03,7.62c-.18.35-.61.48-.96.29-.35-.18-.48-.61-.29-.96l4-7.55-52.56-24.07c-.26-.12-.42-.38-.41-.66,0-.28.18-.54.45-.64l83.62-33.02c.27-.11.59-.03.79.19.2.22.24.54.1.8l-30.03,56.74,21.9,10.03c.36.16.51.58.35.94-.12.26-.38.41-.64.41ZM345.75,327.73l51.12,23.41,29.17-55.12-80.29,31.71Z"/>
  <path class="cls-6" d="M414.36,280.55s-.03,0-.04,0l-75.83-4.25c-.3-.02-.56-.22-.64-.51-.08-.29.02-.6.26-.77l78.98-57.5-87.06,1.38c-.42.02-.71-.31-.72-.7s.31-.71.7-.72l89.29-1.42c.35.02.59.19.68.48.1.29,0,.62-.25.8l-79.18,57.65,73.84,4.14c.39.02.69.36.67.75-.02.38-.33.67-.71.67Z"/>
  <g class="cls-3">
    <path class="cls-6" d="M382.13,94.09c-15.94,0-24.93-5.43-29.72-10.09-5.18-5.04-8.03-11.79-8.03-19,0-.39.32-.71.71-.71s.71.32.71.71c0,6.82,2.7,13.21,7.6,17.98,6.86,6.67,17.46,10.02,30.64,9.66,17.68-.48,32.82-5.82,40.51-14.28,4.1-4.51,5.97-9.71,5.58-15.44-1.38-19.91-17.23-30.25-44.62-29.1-17.21.72-46.09,6.09-46.09,34.02,0,.39-.32.71-.71.71s-.71-.32-.71-.71c0-21.57,16.85-34.15,47.45-35.43,28.29-1.19,44.65,9.62,46.09,30.42.42,6.13-1.58,11.68-5.94,16.49-7.94,8.74-23.46,14.25-41.52,14.74-.66.02-1.31.03-1.95.03Z"/>
    <path class="cls-6" d="M261.47,200.63c-15.94,0-24.93-5.43-29.72-10.09-5.18-5.04-8.03-11.79-8.03-19,0-.39.32-.71.71-.71s.71.32.71.71c0,6.82,2.7,13.21,7.6,17.98,6.86,6.67,17.44,10.01,30.64,9.66,17.68-.48,32.82-5.82,40.51-14.28,4.1-4.51,5.98-9.71,5.58-15.44-1.38-19.91-17.23-30.25-44.62-29.1-17.21.72-46.09,6.09-46.09,34.02,0,.39-.32.71-.71.71s-.71-.32-.71-.71c0-21.57,16.85-34.15,47.45-35.43,28.28-1.19,44.65,9.62,46.09,30.42.42,6.13-1.58,11.68-5.94,16.49-7.94,8.74-23.46,14.25-41.52,14.74-.66.02-1.31.03-1.95.03Z"/>
    <path class="cls-6" d="M270.42,286.8c-9.29,0-18.86-1.64-27.06-4.72-11.07-4.15-19.16-10.67-22.8-18.37-3.79-8.02-4.24-15.37-1.34-21.85,5.57-12.43,21.31-17.2,21.97-17.4.37-.11.77.1.88.48.11.38-.1.77-.48.88-.16.05-15.79,4.79-21.08,16.62-2.72,6.08-2.28,13.04,1.33,20.66,7.67,16.23,34.14,23.91,55.3,21.98,19.16-1.76,32.12-10.24,35.57-23.27,6.98-26.36-19.2-35.91-19.46-36-.37-.13-.56-.53-.43-.9.13-.37.53-.56.9-.43.28.1,27.67,10.09,20.36,37.7-3.56,13.44-17.32,22.53-36.81,24.32-2.25.21-4.55.31-6.85.31Z"/>
    <path class="cls-6" d="M345.78,186.92c-.31,0-.59-.21-.68-.51-.07-.23-6.73-23.2,4.78-38.83,6.95-9.44,18.97-14.32,35.72-14.52,16.83-.2,29.25,4.47,36.92,13.87,12.58,15.42,7.77,38.49,7.72,38.72-.07.32-.35.56-.69.56l-83.76.71h0ZM386.6,134.47c-.33,0-.66,0-.99,0-16.28.19-27.91,4.88-34.59,13.93-10.16,13.79-5.6,33.66-4.71,37.08l82.64-.7c.63-3.55,3.54-23.4-7.54-36.98-7.24-8.86-18.95-13.35-34.81-13.35Z"/>
  </g>
  <path class="cls-6" d="M281.54,110.71c-.36,0-.67-.27-.7-.64l-3.26-34.02c-.04-.39.25-.74.64-.77.38-.04.73.25.77.64l3.26,34.02c.04.39-.25.74-.64.77-.02,0-.05,0-.07,0Z"/>
  <path class="cls-6" d="M220.21,352.09c-.19,0-.37-.08-.51-.21-.14-.14-.21-.33-.2-.53l2.13-48.83c.02-.39.35-.7.74-.68.39.02.69.35.68.74l-2.09,48.07,93.48-2.02-2.09-42.22c-.02-.39.28-.72.67-.74.41-.03.72.28.74.67l2.13,42.94c0,.19-.06.38-.19.52-.13.14-.31.22-.5.23l-94.96,2.06s-.01,0-.02,0Z"/>
  <path class="cls-6" d="M266.98,357.12c-.39,0-.71-.32-.71-.71v-41.03c0-.39.32-.71.71-.71s.71.32.71.71v41.03c0,.39-.32.71-.71.71Z"/>
  <g class="cls-4">
    <path class="cls-6" d="M341.69,444.34c-.35,0-.65-.25-.7-.6-.02-.13-1.99-12.99-1-26.31,1.32-17.87,7.35-28.46,17.42-30.62,7.09-1.52,13.17-.13,18.09,4.12,7.27,6.29,11.37,18.82,10.96,33.13,4.7-6.9,20.66-28.1,44.29-36.37.37-.13.77.07.9.43.13.37-.07.77-.44.9-27.78,9.72-44.81,37.68-44.98,37.96-.17.28-.51.41-.82.31-.31-.1-.52-.4-.5-.72,1-14.95-2.97-28.19-10.34-34.58-4.56-3.94-10.23-5.22-16.86-3.8-21.52,4.61-16.19,49-15.41,54.72l88.67-.49h0c.39,0,.71.31.71.7,0,.39-.31.71-.7.71l-89.29.5h0Z"/>
    <path class="cls-6" d="M219.78,442.86c-.31,0-.59-.21-.68-.51-.07-.23-6.73-23.2,4.78-38.83,6.95-9.44,18.97-14.32,35.72-14.52,16.83-.19,29.25,4.47,36.92,13.87,12.58,15.42,7.77,38.49,7.72,38.72-.07.32-.35.56-.69.56l-83.76.71h0ZM260.6,390.41c-.33,0-.66,0-.99,0-16.28.19-27.91,4.88-34.59,13.93-10.16,13.79-5.6,33.66-4.71,37.08l82.64-.7c.63-3.55,3.54-23.4-7.54-36.98-7.24-8.86-18.95-13.35-34.81-13.35Z"/>
  </g>
</svg>