<?xml version="1.0" encoding="UTF-8"?>
<svg id="diseño" xmlns="http://www.w3.org/2000/svg" viewBox="0 0 285.36 614.27">
  <defs>
    <style>
      .cls-1 {
        fill: #e9e3e0;
      }

      .cls-2 {
        fill: #fff;
      }

      .cls-3 {
        fill: #221f20;
      }
    </style>
  </defs>
  <g>
    <g>
      <polygon class="cls-2" points="260.91 178.41 260.91 149.09 168.59 149.09 175.64 156.15 175.64 124.02 151.19 124.02 151.19 203.64 175.64 203.64 175.64 171.35 168.59 178.41 260.91 178.41"/>
      <polygon class="cls-3" points="245.15 167.77 245.09 168.75 165.53 164.56 163.26 140.71 159.52 190.51 158.55 190.44 162.71 134.9 163.69 134.89 166.42 163.63 245.15 167.77"/>
    </g>
    <g>
      <path class="cls-2" d="M262.22,314.59c0-8.67-1.41-16.12-4.23-22.34-2.82-6.22-6.87-10.97-12.15-14.26-5.28-3.29-11.57-4.94-18.89-4.94-5.75,0-10.76,1.05-15.05,3.13-4.28,2.09-7.97,5.28-11.05,9.56-3.08,4.29-5.67,9.82-7.76,16.61-1.88,6.06-3.5,10.5-4.86,13.32-1.36,2.82-2.77,4.76-4.23,5.8-1.46,1.05-3.29,1.57-5.49,1.57-1.57,0-2.92-.42-4.08-1.25-1.15-.84-2.04-2.04-2.66-3.61s-.94-3.39-.94-5.49c0-3.76.92-6.98,2.74-9.64,1.83-2.66,4.78-4.88,8.86-6.66l-10.35-21.16c-7.84,2.82-13.61,7.24-17.32,13.24-3.71,6.01-5.56,13.66-5.56,22.96,0,8.36,1.33,15.54,4,21.55,2.66,6.01,6.58,10.63,11.76,13.87,5.17,3.24,11.26,4.86,18.26,4.86,5.85,0,10.89-1.02,15.13-3.06,4.23-2.04,7.84-5.17,10.82-9.4,2.98-4.23,5.41-9.69,7.29-16.38,1.67-5.96,3.19-10.4,4.55-13.32,1.36-2.92,2.85-4.96,4.47-6.11,1.62-1.15,3.68-1.72,6.19-1.72,1.88,0,3.48.45,4.78,1.33,1.31.89,2.3,2.22,2.98,4,.68,1.78,1.02,4.02,1.02,6.74,0,4.18-1.2,8.02-3.61,11.52-2.4,3.5-6.01,6.09-10.82,7.76l11.29,21.47c8.15-2.72,14.34-7.55,18.57-14.5,4.23-6.95,6.35-15.44,6.35-25.47"/>
      <path class="cls-3" d="M252.16,312.24c0,9.97-4.42,20.83-12.16,28.34l-.68-.7c10.48-10.16,14.72-26.59,9.88-38.22-3.47-8.32-10.99-12.79-21.19-12.59-13.69.27-18.17,12.78-22.51,24.87-4.48,12.5-9.11,25.42-23.91,24.56-9.62-.56-16.4-4.9-19.6-12.55-4.97-11.86-.23-29.06,7.32-37.69l.74.64c-7.35,8.41-11.99,25.14-7.16,36.67,3.05,7.28,9.54,11.41,18.76,11.95,14.07.82,18.37-11.19,22.93-23.91,4.45-12.41,9.04-25.24,23.41-25.52,10.63-.21,18.48,4.48,22.11,13.2,1.4,3.35,2.06,7.09,2.06,10.96Z"/>
    </g>
    <g>
      <polygon class="cls-2" points="140.98 396.46 140.98 375.62 112.14 350.69 112.14 383.14 140.98 396.46"/>
      <rect class="cls-3" x="121.5" y="368.47" width="1.39" height="19.47" transform="translate(-264.7 287.18) rotate(-58.86)"/>
    </g>
    <g>
      <path class="cls-2" d="M262.12,546.24c0-12.02-3.19-21.47-9.56-28.37-6.37-6.9-16.04-11.23-29-13.01l-5.02,26.65c7.52.73,12.91,2.09,16.14,4.08,3.24,1.99,4.86,4.91,4.86,8.78,0,3.03-1.23,5.51-3.68,7.45-2.45,1.93-6.14,3.4-11.05,4.39-4.91.99-11.23,1.49-18.97,1.49s-14.6-.49-19.67-1.49c-5.07-.99-8.86-2.48-11.36-4.47-2.51-1.98-3.76-4.55-3.76-7.68,0-3.34,1.7-5.96,5.09-7.84,3.4-1.88,8.8-3.13,16.22-3.76l-4.86-27.27c-13.17,1.05-22.94,4.89-29.31,11.52-6.37,6.64-9.56,16.01-9.56,28.14,0,9.3,2.25,17.37,6.74,24.22,4.49,6.84,11.05,12.12,19.67,15.83,8.62,3.71,18.99,5.56,31.11,5.56s22.81-1.67,31.11-5.02c8.31-3.34,14.53-8.31,18.65-14.89,4.13-6.58,6.19-14.68,6.19-24.3"/>
      <path class="cls-3" d="M248.2,547.03c0,2.72-.37,5.66-1.21,8.84-3.48,13.17-16.97,22.08-36.06,23.83-11.08,1.02-23.19-.56-33.22-4.32-10.84-4.07-18.77-10.46-22.33-17.99-3.71-7.86-4.15-15.06-1.31-21.41,5.45-12.17,20.87-16.85,21.53-17.04l.39,1.33c-.15.05-15.47,4.7-20.66,16.29-2.67,5.96-2.23,12.77,1.3,20.24,7.51,15.9,33.44,23.43,54.18,21.53,18.49-1.69,31.52-10.22,34.85-22.8,6.83-25.8-18.01-34.89-19.07-35.27l.46-1.31c.24.08,21.16,7.71,21.16,28.09Z"/>
    </g>
    <g>
      <rect class="cls-2" x="193.51" y="213.02" width="23.36" height="38.4"/>
      <polygon class="cls-2" points="260.91 273.06 260.91 202.68 237.72 202.68 237.72 250.01 244.46 243.59 167.34 243.59 174.39 251.74 174.39 203.62 151.19 203.62 151.19 273.06 260.91 273.06"/>
      <polygon class="cls-3" points="247.91 257.99 153.43 260.03 155.55 211.46 156.93 211.52 154.88 258.62 246.46 256.63 244.41 215.27 245.8 215.21 247.91 257.99"/>
      <rect class="cls-3" x="199.28" y="224.06" width="1.39" height="40.2"/>
    </g>
    <g>
      <polygon class="cls-2" points="260.23 504.86 260.23 438.55 235.94 438.55 235.94 481.81 243.78 475.39 150.51 475.39 150.51 504.86 260.23 504.86"/>
      <polygon class="cls-3" points="249.13 489.19 162.36 493.39 162.29 492 247.69 487.87 246.33 454.54 247.72 454.49 249.13 489.19"/>
    </g>
    <g>
      <path class="cls-2" d="M174.34,354.69c-8.36,3.71-14.68,9.07-18.97,16.07-4.28,7-6.43,15.36-6.43,25.08s2.25,18.31,6.74,25.47c4.49,7.16,11.03,12.7,19.59,16.61,8.57,3.92,18.71,5.88,30.41,5.88s22.05-1.85,30.41-5.56c8.36-3.71,14.73-9.12,19.12-16.22,4.39-7.1,6.58-15.57,6.58-25.39s-2.3-18.15-6.9-25.31c-4.6-7.16-11.18-12.64-19.75-16.46-8.57-3.81-18.76-5.72-30.57-5.72s-21.89,1.86-30.25,5.56ZM224.42,383.45c5.07,1.05,8.83,2.66,11.29,4.86,2.46,2.19,3.68,4.86,3.68,7.99,0,3.35-1.25,6.09-3.76,8.23-2.51,2.14-6.27,3.76-11.29,4.86-5.02,1.1-11.34,1.65-18.97,1.65s-13.95-.55-18.97-1.65c-5.02-1.1-8.78-2.72-11.29-4.86-2.51-2.14-3.76-4.83-3.76-8.07s1.28-5.93,3.84-8.07c2.56-2.14,6.35-3.76,11.36-4.86,5.02-1.1,11.29-1.65,18.81-1.65s13.98.52,19.04,1.57Z"/>
      <path class="cls-3" d="M250.51,397.08c0,5.39-1.97,10.29-5.88,14.59-7.78,8.56-22.98,13.96-40.67,14.44-16.81.45-26.15-5.11-31.03-9.85-5.07-4.94-7.87-11.55-7.87-18.61h1.39c0,6.68,2.65,12.94,7.45,17.62,6.72,6.54,17.1,9.81,30.02,9.46,17.32-.47,32.15-5.7,39.68-13.99,4.01-4.42,5.85-9.51,5.46-15.12-1.35-19.51-16.87-29.64-43.71-28.51-16.86.7-45.16,5.97-45.16,33.32h-1.39c0-21.13,16.51-33.46,46.49-34.71,27.71-1.16,43.74,9.42,45.15,29.8.04.53.05,1.05.05,1.57Z"/>
    </g>
  </g>
  <path class="cls-1" d="M248,134.89c0,64.58-52.54,117.12-117.12,117.12S13.76,199.47,13.76,134.89,66.3,17.77,130.88,17.77s117.12,52.54,117.12,117.12ZM14.57,134.89c0,64.13,52.17,116.31,116.31,116.31s116.31-52.17,116.31-116.31S195.01,18.58,130.88,18.58,14.57,70.76,14.57,134.89Z"/>
</svg>