<?xml version="1.0" encoding="UTF-8"?>
<svg id="diseño" xmlns="http://www.w3.org/2000/svg" xmlns:xlink="http://www.w3.org/1999/xlink" viewBox="0 0 348.29 604.1">
  <defs>
    <style>
      .cls-1 {
        fill: none;
      }

      .cls-2 {
        fill: #e2dcd8;
      }

      .cls-3 {
        clip-path: url(#clippath-1);
      }

      .cls-4 {
        clip-path: url(#clippath-3);
      }

      .cls-5 {
        clip-path: url(#clippath-2);
      }

      .cls-6 {
        fill: #fff;
      }

      .cls-7 {
        fill: #221f20;
      }

      .cls-8 {
        clip-path: url(#clippath);
      }
    </style>
    <clipPath id="clippath">
      <rect class="cls-1" x="130.02" y="131.66" width="205.41" height="459.29"/>
    </clipPath>
    <clipPath id="clippath-1">
      <rect class="cls-1" x="130.02" y="131.66" width="205.41" height="459.29"/>
    </clipPath>
    <clipPath id="clippath-2">
      <rect class="cls-1" x="130.02" y="131.66" width="205.41" height="459.29"/>
    </clipPath>
    <clipPath id="clippath-3">
      <rect class="cls-1" x="130.02" y="131.66" width="205.41" height="459.29"/>
    </clipPath>
  </defs>
  <g class="cls-8">
    <path class="cls-6" d="M315.49,254.97c0,2.98-1.12,5.42-3.35,7.32-2.23,1.91-5.58,3.35-10.04,4.32s-10.09,1.46-16.87,1.46-12.41-.49-16.87-1.46-7.81-2.42-10.04-4.32c-2.23-1.9-3.35-4.3-3.35-7.18s1.14-5.27,3.42-7.18c2.28-1.9,5.65-3.35,10.11-4.32,4.46-.98,10.04-1.46,16.73-1.46s12.44.47,16.94,1.39c4.51.93,7.86,2.37,10.04,4.32,2.18,1.95,3.28,4.32,3.28,7.11M335.43,255.25c0-8.65-2.04-16.15-6.14-22.52-4.09-6.37-9.95-11.25-17.57-14.64-7.62-3.39-16.69-5.09-27.19-5.09s-19.47,1.65-26.91,4.95c-7.44,3.3-13.06,8.07-16.87,14.29-3.81,6.23-5.72,13.67-5.72,22.31s2,16.29,6,22.66c4,6.37,9.81,11.3,17.43,14.78,7.62,3.49,16.64,5.23,27.05,5.23s19.62-1.65,27.05-4.95c7.44-3.3,13.11-8.11,17.01-14.43,3.9-6.32,5.86-13.85,5.86-22.59M334.04,371.24v-26.22h-83.39l6.41,6.28v-9.2c0-4.46,1.02-8.06,3.07-10.81,2.05-2.74,5.14-4.76,9.27-6.07,4.14-1.3,9.46-1.95,15.97-1.95s11.69.68,15.83,2.02c4.14,1.35,7.21,3.37,9.2,6.07,2,2.7,3,6.18,3,10.46v16.73l20.64-.14v-15.9c0-10.23-1.93-18.94-5.79-26.15-3.86-7.2-9.48-12.69-16.87-16.45-7.39-3.77-16.34-5.65-26.84-5.65s-19.2,1.81-26.36,5.44c-7.16,3.63-12.57,8.99-16.25,16.11-3.67,7.11-5.51,15.88-5.51,26.29v29.14h97.61ZM334.04,448.56v-22.17h-43.09l-34.58,1.81.14,4.46,77.53-28.73v-28.17h-97.61v22.31h39.32l24.82-1.39-.56-1.81-63.59,24.54v29.14h97.61ZM315.77,510.54v-47.13h-19.66v47.13h19.66ZM334.04,527v-22.87l-85.9-20.08v7.53l85.9-19.8v-26.5l-97.61,25.1v31.38l97.61,25.24ZM334.04,590.95v-69.03h-20.64v43.93l3.35-4.74-66.93-36.67h-13.39v65.4h20.64v-39.46l-3.21,3.35,68.05,37.23h12.13Z"/>
    <path class="cls-6" d="M205.74,176.28v-44.62h-22.03v44.62h22.03ZM229.45,206.27v-26.22h-97.61v26.22h97.61ZM229.45,283.6v-22.17h-43.09l-34.58,1.81.14,4.46,77.53-28.73v-28.17h-97.61v22.31h39.32l24.82-1.39-.56-1.81-63.59,24.54v29.14h97.61ZM211.18,345.58v-47.13h-19.66v47.13h19.66ZM229.45,362.03v-22.87l-85.9-20.08v7.53l85.9-19.8v-26.5l-97.61,25.1v31.38l97.61,25.24ZM229.45,368.1v-9.9h-52.57v36.54h19.52v-18.41l-6.28,6.28h7.25l32.07-14.5ZM230.98,400.31c0-6.69-1.28-12.2-3.83-16.52-2.56-4.32-5.9-7.53-10.04-9.62-4.14-2.09-8.85-3.32-14.15-3.7l-5.58,12.13c2.7.09,5.04.61,7.04,1.53,2,.93,3.58,2.21,4.74,3.83,1.16,1.63,1.74,3.56,1.74,5.79,0,2.7-1,4.95-3,6.76-2,1.81-5.18,3.23-9.55,4.25-4.37,1.02-10.13,1.53-17.29,1.53s-13.29-.46-17.85-1.39c-4.55-.93-7.9-2.25-10.04-3.97-2.14-1.72-3.21-3.93-3.21-6.62,0-2.88,1.3-5.18,3.9-6.9,2.6-1.72,6.88-2.9,12.83-3.56l-4.46-24.26c-11.71,1.58-20.01,5.39-24.89,11.43-4.88,6.04-7.32,13.9-7.32,23.57,0,8.46,2,15.74,6,21.82,4,6.09,9.83,10.79,17.5,14.08,7.67,3.3,16.9,4.95,27.68,4.95s19.76-1.42,27.19-4.25c7.44-2.83,13.06-6.85,16.87-12.06,3.81-5.2,5.72-11.48,5.72-18.83M229.45,459.2v-27.05l-47.83,15.62v25.52l47.83-14.08ZM229.45,504.94v-26.22h-83.53l6.28,6.28v-15.9c0-3.35.77-5.93,2.3-7.74,1.53-1.81,3.93-2.72,7.18-2.72s5.81.93,7.39,2.79c1.58,1.86,2.37,4.46,2.37,7.81v20.22h19.38v-20.08c0-7.53-1.23-14.06-3.7-19.59-2.46-5.53-5.97-9.81-10.53-12.83-4.55-3.02-9.85-4.53-15.9-4.53-9.76,0-17.01,2.84-21.75,8.51-4.74,5.67-7.11,14.36-7.11,26.08v37.93h97.61ZM210.9,547.72c0,2.98-1.12,5.42-3.35,7.32-2.23,1.91-5.58,3.35-10.04,4.32-4.46.98-10.09,1.46-16.87,1.46s-12.41-.49-16.87-1.46c-4.46-.98-7.81-2.42-10.04-4.32-2.23-1.9-3.35-4.3-3.35-7.18s1.14-5.27,3.42-7.18c2.28-1.9,5.65-3.35,10.11-4.32,4.46-.98,10.04-1.46,16.73-1.46s12.43.47,16.94,1.39c4.51.93,7.86,2.37,10.04,4.32,2.18,1.95,3.28,4.32,3.28,7.11M230.84,548c0-8.65-2.04-16.15-6.14-22.52-4.09-6.37-9.95-11.25-17.57-14.64-7.62-3.39-16.69-5.09-27.19-5.09s-19.47,1.65-26.91,4.95c-7.44,3.3-13.06,8.07-16.87,14.29-3.81,6.23-5.72,13.67-5.72,22.31s2,16.29,6,22.66c4,6.37,9.81,11.3,17.43,14.78,7.62,3.49,16.64,5.23,27.05,5.23s19.62-1.65,27.05-4.95c7.44-3.3,13.11-8.11,17.01-14.43,3.9-6.32,5.86-13.85,5.86-22.59"/>
  </g>
  <rect class="cls-7" x="193.75" y="137.6" width="1.42" height="29.78" transform="translate(-13.66 19.25) rotate(-5.47)"/>
  <path class="cls-7" d="M207.54,352.43l-19.07-8.73-3.48,6.57-1.25-.66,3.44-6.5-47.24-21.63,76.21-30.1-27.02,51.06,19,8.7-.59,1.29ZM143.56,321.57l44.29,20.28,25.27-47.75-69.55,27.47Z"/>
  <polygon class="cls-7" points="215.62 278.59 147.55 274.77 217.76 223.65 142.17 224.85 142.15 223.44 222.21 222.17 151.6 273.58 215.7 277.17 215.62 278.59"/>
  <g class="cls-3">
    <path class="cls-7" d="M176.91,575.46c-13.92,0-21.78-4.74-25.96-8.82-4.53-4.41-7.03-10.31-7.03-16.62h1.42c0,5.92,2.34,11.46,6.6,15.61,5.96,5.8,15.17,8.7,26.64,8.39,15.38-.42,28.56-5.06,35.24-12.41,3.55-3.91,5.18-8.42,4.84-13.39-1.2-17.3-14.98-26.28-38.79-25.28-14.97.63-40.08,5.3-40.08,29.56h-1.42c0-18.86,14.72-29.85,41.44-30.97,24.7-1.03,39.01,8.41,40.27,26.6.37,5.37-1.38,10.23-5.2,14.44-6.94,7.64-20.49,12.45-36.25,12.88-.58.02-1.15.02-1.7.02Z"/>
    <path class="cls-7" d="M138.64,492.33l-.09-.6c-.02-.11-1.73-11.33-.87-22.95,1.16-15.62,6.43-24.88,15.26-26.77,6.21-1.33,11.54-.12,15.84,3.61,6.3,5.45,9.88,16.27,9.59,28.63,4.31-6.27,18.14-24.36,38.47-31.48l.47,1.34c-24.17,8.46-39.01,32.8-39.15,33.05l-1.31-.41c.87-13-2.58-24.52-8.98-30.06-3.95-3.42-8.87-4.53-14.62-3.29-18.58,3.98-14.08,42.22-13.37,47.51l77.2-.43v1.42s-78.42.44-78.42.44Z"/>
  </g>
  <polygon class="cls-7" points="138.84 201.96 137.43 201.85 138.66 187.02 140.08 187.02 140.69 193.74 216.43 188.94 217.59 191.97 216.49 185.97 217.89 185.72 220.36 199.31 219 199.69 215.48 190.42 139.41 195.24 139.4 195.21 138.84 201.96"/>
  <polygon class="cls-7" points="248.76 584.89 247.24 536.7 328.26 581.66 326.27 531.29 327.69 531.23 329.78 584.12 248.73 539.15 250.18 584.85 248.76 584.89"/>
  <g class="cls-5">
    <path class="cls-7" d="M282.66,280.77c-13.92,0-21.78-4.74-25.97-8.82-4.53-4.41-7.03-10.31-7.03-16.62h1.42c0,5.92,2.34,11.46,6.6,15.61,5.96,5.8,15.17,8.7,26.64,8.39,15.38-.42,28.56-5.06,35.24-12.41,3.55-3.91,5.18-8.42,4.84-13.39-1.2-17.3-14.97-26.28-38.79-25.28-14.97.63-40.09,5.3-40.09,29.56h-1.42c0-18.86,14.72-29.85,41.44-30.97,24.72-1.04,39,8.41,40.26,26.6.37,5.37-1.38,10.23-5.2,14.44-6.94,7.64-20.49,12.45-36.25,12.88-.58.02-1.15.02-1.7.02Z"/>
  </g>
  <path class="cls-7" d="M312.05,515.2l-19.07-8.73-3.48,6.57-1.25-.66,3.44-6.5-47.23-21.63,76.21-30.1-27.02,51.06,19,8.7-.59,1.29ZM248.06,484.34l44.29,20.28,25.27-47.75-69.55,27.47Z"/>
  <g class="cls-4">
    <path class="cls-7" d="M249.16,357.7l-.15-.51c-.06-.21-1.5-5.11-1.73-11.75-.21-6.16.64-15.02,5.91-22.17,6.08-8.25,16.57-12.52,31.2-12.69,14.72-.17,25.54,3.91,32.25,12.12,10.99,13.47,6.93,33,6.75,33.82l-.12.55-74.1.63ZM285.26,311.99c-.29,0-.57,0-.86,0-14.16.16-24.28,4.24-30.08,12.11-8.77,11.91-4.92,29.01-4.1,32.17l71.88-.61c.58-3.28,2.99-20.37-6.57-32.08-6.29-7.7-16.47-11.6-30.27-11.6Z"/>
    <path class="cls-7" d="M184.87,424.43c-17.9,0-35.15-7.62-39.89-15.93-3.53-6.19-3.85-13.34-.87-19.6,3.25-6.84,9.86-11.71,17.68-13.01l.23,1.4c-7.36,1.23-13.58,5.8-16.63,12.22-2.82,5.92-2.52,12.42.82,18.29,6.42,11.26,36.83,21.12,59.38,11.13,9.88-4.38,15.57-11.94,15.61-20.75.04-9.16-6.32-17.75-16.61-22.43-5.8-2.64-9.83-2.99-11.99-1.04-4.14,3.75-.43,14.87-.39,14.99l-1.34.46c-.17-.49-4.05-12.12.78-16.49,2.61-2.37,7.16-2.1,13.53.79,10.8,4.91,17.48,14,17.44,23.72-.04,9.25-6.19,17.49-16.45,22.04-6.68,2.96-14.04,4.21-21.29,4.21Z"/>
  </g>
  <polygon class="cls-7" points="317.43 440.05 249.36 436.23 319.57 385.12 243.99 386.32 243.96 384.9 324.02 383.63 253.41 435.04 317.51 438.64 317.43 440.05"/>
  <path class="cls-2" d="M164.21,303.02c-79.4,0-144-64.6-144-144S84.81,15.02,164.21,15.02s144,64.6,144,144-64.6,144-144,144ZM164.21,16.02C85.36,16.02,21.21,80.17,21.21,159.02s64.15,143,143,143,143-64.15,143-143S243.06,16.02,164.21,16.02Z"/>
</svg>