<?xml version="1.0" encoding="UTF-8"?>
<svg id="diseño" xmlns="http://www.w3.org/2000/svg" xmlns:xlink="http://www.w3.org/1999/xlink" viewBox="0 0 483.9 604.1">
  <defs>
    <style>
      .cls-1 {
        fill: none;
      }

      .cls-2 {
        fill: #e2dcd8;
      }

      .cls-3 {
        clip-path: url(#clippath-1);
      }

      .cls-4 {
        clip-path: url(#clippath-2);
      }

      .cls-5 {
        fill: #fff;
      }

      .cls-6 {
        fill: #221f20;
      }

      .cls-7 {
        clip-path: url(#clippath);
      }
    </style>
    <clipPath id="clippath">
      <rect class="cls-1" x="5.5" y="17.5" width="462.45" height="547.19"/>
    </clipPath>
    <clipPath id="clippath-1">
      <rect class="cls-1" x="5.5" y="17.5" width="462.45" height="547.19"/>
    </clipPath>
    <clipPath id="clippath-2">
      <rect class="cls-1" x="5.5" y="17.5" width="462.45" height="547.19"/>
    </clipPath>
  </defs>
  <g class="cls-7">
    <path class="cls-2" d="M149.5,529.7c-79.4,0-144-64.6-144-144s64.6-144,144-144,144,64.6,144,144-64.6,144-144,144ZM149.5,242.7c-78.85,0-143,64.15-143,143s64.15,143,143,143,143-64.15,143-143-64.15-143-143-143Z"/>
    <path class="cls-5" d="M444.9,178.51c0,3.42-1.28,6.21-3.84,8.4-2.56,2.19-6.4,3.84-11.52,4.96-5.12,1.12-11.57,1.68-19.36,1.68s-14.24-.56-19.36-1.68c-5.12-1.12-8.96-2.77-11.52-4.96-2.56-2.18-3.84-4.93-3.84-8.24s1.31-6.05,3.92-8.24c2.61-2.18,6.48-3.84,11.6-4.96s11.52-1.68,19.2-1.68,14.27.54,19.44,1.6c5.17,1.07,9.01,2.72,11.52,4.96,2.51,2.24,3.76,4.96,3.76,8.16M467.78,178.83c0-9.92-2.35-18.53-7.04-25.84-4.69-7.3-11.41-12.9-20.16-16.8-8.74-3.89-19.15-5.84-31.2-5.84s-22.34,1.89-30.88,5.68c-8.53,3.79-14.99,9.26-19.36,16.4-4.37,7.15-6.56,15.68-6.56,25.6s2.29,18.7,6.88,26c4.59,7.31,11.26,12.96,20,16.96,8.75,4,19.1,6,31.04,6s22.51-1.89,31.04-5.68c8.53-3.79,15.04-9.3,19.52-16.56,4.48-7.25,6.72-15.89,6.72-25.92M466.18,311.92v-30.08h-95.68l7.36,7.2v-10.56c0-5.12,1.18-9.25,3.52-12.4,2.35-3.14,5.89-5.46,10.64-6.96,4.75-1.49,10.85-2.24,18.32-2.24s13.41.78,18.16,2.32c4.75,1.55,8.27,3.87,10.56,6.96,2.3,3.1,3.44,7.1,3.44,12v19.2l23.68-.16v-18.24c0-11.73-2.21-21.73-6.64-30-4.43-8.27-10.88-14.56-19.36-18.88-8.48-4.32-18.75-6.48-30.8-6.48s-22.02,2.08-30.24,6.24c-8.21,4.16-14.42,10.32-18.64,18.48-4.21,8.16-6.32,18.21-6.32,30.16v33.44h112ZM466.18,400.64v-25.44h-49.44l-39.68,2.08.16,5.12,88.96-32.96v-32.32h-112v25.6h45.12l28.48-1.6-.64-2.08-72.96,28.16v33.44h112ZM445.22,471.75v-54.08h-22.56v54.08h22.56ZM466.18,490.63v-26.24l-98.56-23.04v8.64l98.56-22.72v-30.4l-112,28.8v36l112,28.96ZM467.94,523.9c0-8.85-1.44-16.45-4.32-22.8-2.88-6.35-7.01-11.2-12.4-14.56-5.39-3.36-11.81-5.04-19.28-5.04-5.87,0-10.99,1.07-15.36,3.2-4.37,2.14-8.13,5.39-11.28,9.76-3.15,4.38-5.79,10.03-7.92,16.96-1.92,6.19-3.57,10.72-4.96,13.6-1.39,2.88-2.83,4.85-4.32,5.92-1.49,1.07-3.36,1.6-5.6,1.6-1.6,0-2.99-.42-4.16-1.28-1.17-.85-2.08-2.08-2.72-3.68-.64-1.6-.96-3.47-.96-5.6,0-3.84.93-7.12,2.8-9.84,1.87-2.72,4.88-4.99,9.04-6.8l-10.56-21.6c-8,2.88-13.89,7.39-17.68,13.52-3.78,6.14-5.68,13.95-5.68,23.44,0,8.53,1.36,15.87,4.08,22,2.72,6.14,6.72,10.86,12,14.16,5.28,3.31,11.49,4.96,18.64,4.96,5.97,0,11.12-1.04,15.44-3.12,4.32-2.08,8-5.28,11.04-9.6,3.04-4.32,5.52-9.89,7.44-16.72,1.71-6.08,3.26-10.61,4.64-13.6,1.39-2.99,2.91-5.07,4.56-6.24,1.65-1.17,3.76-1.76,6.32-1.76,1.92,0,3.55.45,4.88,1.36,1.33.91,2.35,2.27,3.04,4.08.7,1.81,1.04,4.11,1.04,6.88,0,4.27-1.23,8.19-3.68,11.76-2.45,3.58-6.13,6.22-11.04,7.92l11.52,21.92c8.32-2.77,14.64-7.7,18.96-14.8,4.32-7.09,6.48-15.76,6.48-26"/>
    <path class="cls-5" d="M318.98,68.7V17.5h-25.28v51.2h25.28ZM346.18,156.69v-25.44h-49.44l-39.68,2.08.16,5.12,88.96-32.96v-32.32h-112v25.6h45.12l28.48-1.6-.64-2.08-72.96,28.16v33.44h112ZM325.22,227.81v-54.08h-22.56v54.08h22.56ZM346.18,246.68v-26.24l-98.56-23.04v8.64l98.56-22.72v-30.4l-112,28.8v36l112,28.96ZM347.94,278.44c0-12.27-3.25-21.92-9.76-28.96-6.5-7.04-16.37-11.47-29.6-13.28l-5.12,27.2c7.68.75,13.18,2.14,16.48,4.16,3.31,2.03,4.96,5.01,4.96,8.96,0,3.1-1.25,5.63-3.76,7.6-2.51,1.98-6.26,3.47-11.28,4.48-5.01,1.01-11.46,1.52-19.36,1.52s-14.9-.51-20.08-1.52c-5.17-1.01-9.04-2.53-11.6-4.56-2.56-2.02-3.84-4.64-3.84-7.84,0-3.41,1.73-6.08,5.2-8,3.47-1.92,8.99-3.2,16.56-3.84l-4.96-27.84c-13.44,1.07-23.41,4.99-29.92,11.76-6.5,6.77-9.76,16.35-9.76,28.72,0,9.49,2.29,17.73,6.88,24.72,4.59,6.99,11.28,12.37,20.08,16.16,8.8,3.79,19.39,5.68,31.76,5.68s23.28-1.71,31.76-5.12c8.48-3.41,14.83-8.48,19.04-15.2,4.21-6.72,6.32-14.99,6.32-24.8M347.94,361.92c0-8.85-1.44-16.45-4.32-22.8-2.88-6.35-7.01-11.2-12.4-14.56-5.38-3.36-11.81-5.04-19.28-5.04-5.87,0-10.99,1.07-15.36,3.2-4.37,2.14-8.13,5.39-11.28,9.76-3.15,4.38-5.79,10.03-7.92,16.96-1.92,6.19-3.57,10.72-4.96,13.6-1.38,2.88-2.82,4.85-4.32,5.92-1.49,1.07-3.36,1.6-5.6,1.6-1.6,0-2.99-.42-4.16-1.28-1.17-.85-2.08-2.08-2.72-3.68-.64-1.6-.96-3.46-.96-5.6,0-3.84.93-7.12,2.8-9.84,1.87-2.72,4.88-4.99,9.04-6.8l-10.56-21.6c-8,2.88-13.89,7.39-17.68,13.52-3.79,6.14-5.68,13.95-5.68,23.44,0,8.54,1.36,15.87,4.08,22,2.72,6.14,6.72,10.85,12,14.16,5.28,3.31,11.49,4.96,18.64,4.96,5.97,0,11.12-1.04,15.44-3.12,4.32-2.08,8-5.28,11.04-9.6,3.04-4.32,5.52-9.89,7.44-16.72,1.71-6.08,3.26-10.61,4.64-13.6,1.39-2.99,2.91-5.07,4.56-6.24,1.65-1.17,3.76-1.76,6.32-1.76,1.92,0,3.55.46,4.88,1.36,1.34.91,2.35,2.27,3.04,4.08.69,1.82,1.04,4.11,1.04,6.88,0,4.27-1.22,8.19-3.68,11.76-2.45,3.57-6.13,6.21-11.04,7.92l11.52,21.92c8.32-2.77,14.64-7.71,18.96-14.8,4.32-7.09,6.48-15.76,6.48-26M301.22,448.57v-39.2h-23.84v39.2h23.84ZM346.18,470.65v-71.84h-23.68v48.32l6.88-6.56h-78.72l7.2,8.32v-49.12h-23.68v70.88h112ZM346.18,559.74v-30.08h-95.68l7.36,7.2v-10.56c0-5.12,1.18-9.25,3.52-12.4,2.35-3.15,5.89-5.47,10.64-6.96,4.75-1.49,10.86-2.24,18.32-2.24s13.42.78,18.16,2.32c4.75,1.55,8.27,3.87,10.56,6.96,2.29,3.09,3.44,7.09,3.44,12v19.2l23.68-.16v-18.24c0-11.73-2.21-21.73-6.64-30-4.42-8.26-10.88-14.56-19.36-18.88-8.48-4.32-18.74-6.48-30.8-6.48s-22.02,2.08-30.24,6.24c-8.21,4.16-14.43,10.32-18.64,18.48-4.21,8.16-6.32,18.22-6.32,30.16v33.44h112Z"/>
  </g>
  <path class="cls-6" d="M445.88,482.45l-21.97-10.06-4.03,7.62-1.25-.66,4-7.55-54.08-24.76,86.95-34.34-30.92,58.44,21.9,10.03-.59,1.29ZM372.16,447.13l51.12,23.41,29.17-55.12-80.29,31.71Z"/>
  <path class="cls-6" d="M325.34,233.41l-21.97-10.06-4.03,7.62-1.25-.66,4-7.55-54.07-24.76,86.95-34.34-30.92,58.44,21.9,10.03-.59,1.29ZM251.61,198.09l51.12,23.41,29.17-55.12-80.29,31.71Z"/>
  <polygon class="cls-6" points="242.05 456.01 244.21 406.43 245.63 406.49 243.53 454.56 337.01 452.54 334.92 410.32 336.33 410.25 338.5 453.93 242.05 456.01"/>
  <rect class="cls-6" x="288.86" y="419.29" width="1.42" height="41.03"/>
  <polygon class="cls-6" points="335.14 147.96 257.33 143.6 337.91 84.93 250.86 86.31 250.83 84.89 342.36 83.44 261.37 142.4 335.22 146.55 335.14 147.96"/>
  <polygon class="cls-6" points="447.11 390.96 369.3 386.6 449.88 327.93 362.83 329.31 362.8 327.89 454.33 326.44 373.34 385.4 447.18 389.54 447.11 390.96"/>
  <g class="cls-3">
    <path class="cls-6" d="M404.05,208.04c-15.94,0-24.93-5.43-29.72-10.09-5.18-5.04-8.03-11.79-8.03-19h1.42c0,6.82,2.7,13.21,7.6,17.98,6.86,6.67,17.45,10.02,30.64,9.66,17.68-.48,32.82-5.82,40.51-14.28,4.1-4.51,5.98-9.71,5.58-15.44-1.38-19.92-17.22-30.25-44.62-29.1-17.21.72-46.09,6.09-46.09,34.02h-1.42c0-21.57,16.85-34.15,47.45-35.43,28.29-1.19,44.65,9.62,46.09,30.42.42,6.13-1.58,11.68-5.94,16.49-7.94,8.74-23.46,14.25-41.52,14.74-.66.02-1.31.03-1.95.03Z"/>
    <path class="cls-6" d="M293.58,307.24c-9.29,0-18.86-1.64-27.06-4.72-11.07-4.15-19.16-10.67-22.8-18.37-3.79-8.02-4.24-15.37-1.34-21.85,5.57-12.43,21.31-17.2,21.97-17.4l.4,1.36c-.16.05-15.79,4.79-21.08,16.62-2.72,6.08-2.28,13.04,1.33,20.66,7.67,16.23,34.14,23.92,55.3,21.98,19.16-1.76,32.12-10.24,35.57-23.27,6.97-26.34-18.38-35.62-19.46-36l.47-1.34c.28.1,27.67,10.09,20.36,37.7-3.56,13.44-17.32,22.53-36.81,24.32-2.25.21-4.55.31-6.85.31Z"/>
  </g>
  <g class="cls-4">
    <path class="cls-6" d="M248.5,546.28l-.15-.51c-.07-.23-6.73-23.2,4.78-38.83,6.95-9.44,18.97-14.32,35.72-14.52,16.85-.18,29.25,4.47,36.92,13.87,12.58,15.42,7.77,38.49,7.72,38.72l-.12.55-84.86.72ZM289.85,493.83c-.33,0-.66,0-.99,0-16.28.19-27.91,4.88-34.59,13.93-10.16,13.79-5.6,33.66-4.71,37.08l82.64-.7c.63-3.55,3.54-23.4-7.54-36.98-7.24-8.86-18.94-13.35-34.81-13.35Z"/>
    <path class="cls-6" d="M367.1,292.02l-.15-.51c-.07-.23-6.73-23.2,4.78-38.83,6.95-9.44,18.97-14.32,35.72-14.52,16.82-.19,29.25,4.47,36.92,13.87,12.58,15.42,7.77,38.49,7.72,38.72l-.12.55-84.86.72ZM408.45,239.57c-.33,0-.66,0-.99,0-16.28.19-27.92,4.88-34.59,13.94-10.16,13.8-5.6,33.65-4.7,37.08l82.64-.7c.63-3.55,3.54-23.4-7.54-36.98-7.24-8.86-18.94-13.35-34.81-13.35Z"/>
    <path class="cls-6" d="M450.19,547.7l-.7-.72c10.69-10.37,15.03-27.14,10.08-39.01-3.54-8.49-11.22-13.06-21.63-12.86-13.98.27-18.55,13.04-22.97,25.39-4.57,12.76-9.28,25.96-24.4,25.07-9.82-.57-16.74-5-20.01-12.81-5.07-12.11-.23-29.67,7.47-38.47l.75.66c-7.51,8.58-12.23,25.67-7.3,37.43,3.12,7.43,9.74,11.65,19.15,12.2,14.36.82,18.75-11.43,23.4-24.41,4.54-12.67,9.23-25.76,23.9-26.05,10.84-.21,18.86,4.57,22.57,13.47,5.1,12.23.66,29.47-10.31,40.11Z"/>
    <path class="cls-6" d="M323.89,390.87l-.7-.72c10.69-10.37,15.03-27.14,10.08-39.01-3.54-8.49-11.23-13.06-21.63-12.86-13.98.27-18.55,13.04-22.97,25.39-4.57,12.76-9.28,25.96-24.4,25.07-9.82-.57-16.74-5-20.01-12.81-5.07-12.11-.23-29.67,7.47-38.47l.75.66c-7.51,8.58-12.23,25.67-7.3,37.43,3.12,7.43,9.74,11.65,19.15,12.2,14.37.83,18.75-11.42,23.4-24.41,4.54-12.67,9.23-25.76,23.9-26.05,10.83-.21,18.86,4.57,22.57,13.47,5.1,12.23.66,29.47-10.31,40.11Z"/>
  </g>
</svg>