<?xml version="1.0" encoding="UTF-8"?>
<svg id="diseño" xmlns="http://www.w3.org/2000/svg" xmlns:xlink="http://www.w3.org/1999/xlink" viewBox="0 0 348.86 594.4">
  <defs>
    <style>
      .cls-1 {
        fill: none;
      }

      .cls-2 {
        fill: #e2dcd8;
      }

      .cls-3 {
        clip-path: url(#clippath-1);
      }

      .cls-4 {
        clip-path: url(#clippath-2);
      }

      .cls-5 {
        fill: #fff;
      }

      .cls-6 {
        fill: #221f20;
      }

      .cls-7 {
        clip-path: url(#clippath);
      }
    </style>
    <clipPath id="clippath">
      <rect class="cls-1" x="104.41" y="135.86" width="235.68" height="443.26"/>
    </clipPath>
    <clipPath id="clippath-1">
      <rect class="cls-1" x="104.41" y="135.86" width="235.68" height="443.26"/>
    </clipPath>
    <clipPath id="clippath-2">
      <rect class="cls-1" x="104.41" y="135.86" width="235.68" height="443.26"/>
    </clipPath>
  </defs>
  <g>
    <g class="cls-7">
      <path class="cls-5" d="M317.21,184.02c0,3.42-1.28,6.21-3.84,8.4-2.56,2.19-6.4,3.84-11.52,4.96-5.12,1.12-11.57,1.68-19.36,1.68s-14.24-.56-19.36-1.68c-5.12-1.12-8.96-2.77-11.52-4.96-2.56-2.18-3.84-4.93-3.84-8.24s1.31-6.05,3.92-8.24c2.62-2.18,6.48-3.84,11.6-4.96,5.12-1.12,11.52-1.68,19.2-1.68s14.27.54,19.44,1.6c5.17,1.07,9.01,2.72,11.52,4.96,2.51,2.24,3.76,4.96,3.76,8.16M340.09,184.34c0-9.92-2.35-18.53-7.04-25.84-4.69-7.3-11.41-12.9-20.16-16.8-8.74-3.89-19.14-5.84-31.2-5.84s-22.34,1.9-30.88,5.68c-8.53,3.79-14.99,9.26-19.36,16.4-4.37,7.15-6.56,15.68-6.56,25.6s2.29,18.7,6.88,26c4.59,7.31,11.26,12.96,20,16.96,8.75,4,19.1,6,31.04,6s22.51-1.89,31.04-5.68c8.53-3.79,15.04-9.31,19.52-16.56,4.48-7.25,6.72-15.89,6.72-25.92M338.49,317.43v-30.08h-95.68l7.36,7.2v-10.56c0-5.12,1.18-9.25,3.52-12.4,2.35-3.15,5.9-5.47,10.64-6.96,4.75-1.49,10.86-2.24,18.32-2.24s13.42.77,18.16,2.32c4.75,1.55,8.27,3.87,10.56,6.96,2.3,3.1,3.44,7.1,3.44,12v19.2l23.68-.16v-18.24c0-11.73-2.21-21.73-6.64-30-4.43-8.26-10.88-14.56-19.36-18.88-8.48-4.32-18.74-6.48-30.8-6.48s-22.02,2.08-30.24,6.24c-8.21,4.16-14.42,10.32-18.64,18.48-4.21,8.16-6.32,18.21-6.32,30.16v33.44h112ZM338.49,406.15v-25.44h-49.44l-39.68,2.08.16,5.12,88.96-32.96v-32.32h-112v25.6h45.12l28.48-1.6-.64-2.08-72.96,28.16v33.44h112ZM317.53,477.27v-54.08h-22.56v54.08h22.56ZM338.49,496.15v-26.24l-98.56-23.04v8.64l98.56-22.72v-30.4l-112,28.8v36l112,28.96ZM338.49,575.92v-25.44h-49.44l-39.68,2.08.16,5.12,88.96-32.96v-32.32h-112v25.6h45.12l28.48-1.6-.64-2.08-72.96,28.16v33.44h112Z"/>
      <path class="cls-5" d="M191.29,280.71v-51.2h-25.28v51.2h25.28ZM218.49,315.12v-30.08h-112v30.08h112ZM220.25,357.39c0-12.26-3.25-21.92-9.76-28.96-6.51-7.04-16.37-11.47-29.6-13.28l-5.12,27.2c7.68.75,13.18,2.13,16.48,4.16,3.31,2.03,4.96,5.01,4.96,8.96,0,3.1-1.25,5.63-3.76,7.6-2.5,1.97-6.26,3.47-11.28,4.48-5.01,1.01-11.46,1.52-19.36,1.52s-14.9-.51-20.08-1.52c-5.17-1.01-9.04-2.53-11.6-4.56-2.56-2.03-3.84-4.64-3.84-7.84,0-3.41,1.73-6.08,5.2-8,3.47-1.92,8.99-3.2,16.56-3.84l-4.96-27.84c-13.44,1.07-23.41,4.99-29.92,11.76-6.5,6.78-9.76,16.35-9.76,28.72,0,9.5,2.29,17.74,6.88,24.72,4.59,6.99,11.28,12.38,20.08,16.16,8.8,3.79,19.39,5.68,31.76,5.68s23.28-1.71,31.76-5.12c8.48-3.41,14.83-8.48,19.04-15.2,4.21-6.72,6.32-14.99,6.32-24.8M197.21,447.94c0,3.41-1.28,6.21-3.84,8.4-2.56,2.19-6.4,3.84-11.52,4.96-5.12,1.12-11.57,1.68-19.36,1.68s-14.24-.56-19.36-1.68-8.96-2.77-11.52-4.96c-2.56-2.18-3.84-4.93-3.84-8.24s1.31-6.05,3.92-8.24c2.61-2.18,6.48-3.84,11.6-4.96,5.12-1.12,11.52-1.68,19.2-1.68s14.27.54,19.44,1.6c5.18,1.07,9.02,2.72,11.52,4.96,2.51,2.24,3.76,4.96,3.76,8.16M220.09,448.26c0-9.92-2.34-18.53-7.04-25.84-4.69-7.3-11.41-12.9-20.16-16.8-8.74-3.89-19.15-5.84-31.2-5.84s-22.35,1.9-30.88,5.68c-8.53,3.79-14.99,9.25-19.36,16.4-4.37,7.15-6.56,15.68-6.56,25.6s2.29,18.69,6.88,26c4.59,7.31,11.26,12.96,20,16.96,8.75,4,19.1,6,31.04,6s22.51-1.89,31.04-5.68c8.53-3.79,15.04-9.31,19.52-16.56,4.48-7.25,6.72-15.89,6.72-25.92M220.25,534c0-12.26-3.25-21.92-9.76-28.96-6.51-7.04-16.37-11.46-29.6-13.28l-5.12,27.2c7.68.75,13.18,2.14,16.48,4.16,3.31,2.03,4.96,5.01,4.96,8.96,0,3.09-1.25,5.63-3.76,7.6-2.5,1.97-6.26,3.47-11.28,4.48-5.01,1.01-11.46,1.52-19.36,1.52s-14.9-.51-20.08-1.52c-5.17-1.01-9.04-2.53-11.6-4.56-2.56-2.02-3.84-4.64-3.84-7.84,0-3.41,1.73-6.08,5.2-8,3.47-1.92,8.99-3.2,16.56-3.84l-4.96-27.84c-13.44,1.07-23.41,4.99-29.92,11.76-6.5,6.78-9.76,16.35-9.76,28.72,0,9.49,2.29,17.73,6.88,24.72,4.59,6.99,11.28,12.37,20.08,16.16,8.8,3.79,19.39,5.68,31.76,5.68s23.28-1.7,31.76-5.12c8.48-3.41,14.83-8.48,19.04-15.2,4.21-6.72,6.32-14.99,6.32-24.8"/>
    </g>
    <path class="cls-6" d="M318.66,413.83l-30.92,58.44,21.9,10.03-.59,1.29-21.97-10.06-4.03,7.62-1.25-.66,4-7.55-54.07-24.76,86.95-34.34ZM286.45,471.68l29.17-55.12-80.29,31.71,51.12,23.41Z"/>
    <polygon class="cls-6" points="323.24 330.52 242.25 389.48 316.09 393.62 316.01 395.04 238.2 390.68 318.79 332 231.73 333.39 231.71 331.97 323.24 330.52"/>
    <g class="cls-3">
      <path class="cls-6" d="M330.71,188.89c0,5.5-2.01,10.5-6,14.89-7.94,8.74-23.46,14.25-41.52,14.74-17.16.46-26.69-5.21-31.67-10.06-5.18-5.04-8.03-11.79-8.03-19h1.42c0,6.82,2.7,13.21,7.6,17.98,6.86,6.67,17.45,10.01,30.64,9.66,17.68-.48,32.82-5.82,40.51-14.28,4.1-4.51,5.98-9.71,5.58-15.44-1.38-19.92-17.22-30.25-44.62-29.1-17.21.72-46.09,6.09-46.09,34.02h-1.42c0-21.57,16.85-34.15,47.45-35.43,28.28-1.18,44.65,9.62,46.09,30.42.04.54.06,1.07.06,1.6Z"/>
      <path class="cls-6" d="M210.92,534.11c0,2.77-.38,5.78-1.24,9.02-3.56,13.44-17.32,22.53-36.81,24.32-11.31,1.04-23.67-.57-33.91-4.41-11.07-4.15-19.16-10.67-22.8-18.37-3.79-8.02-4.24-15.37-1.34-21.85,5.57-12.43,21.31-17.2,21.97-17.4l.4,1.36c-.16.05-15.79,4.79-21.08,16.62-2.72,6.08-2.28,13.04,1.33,20.66,7.67,16.23,34.14,23.91,55.3,21.98,19.16-1.76,32.12-10.24,35.57-23.27,6.97-26.34-18.38-35.62-19.46-36l.47-1.34c.24.09,21.6,7.87,21.6,28.68Z"/>
    </g>
    <polygon class="cls-6" points="209.66 306.42 208.3 306.8 204.23 296.09 116.97 301.63 116.87 300.5 116.12 309.44 114.71 309.32 116.13 292.32 117.54 292.31 118.26 300.13 205.19 294.61 206.88 299.08 205.43 291.08 206.82 290.83 209.66 306.42"/>
    <g class="cls-4">
      <path class="cls-6" d="M328.81,290.43c0,6.24-.92,10.66-.94,10.76l-.12.55-84.86.72-.15-.51c-.07-.23-6.73-23.2,4.78-38.83,6.95-9.44,18.97-14.32,35.72-14.52,16.82-.19,29.25,4.47,36.92,13.87,7.11,8.71,8.67,19.86,8.67,27.96ZM326.58,300.34c.63-3.56,3.54-23.41-7.54-36.98-7.39-9.04-19.43-13.53-35.8-13.34-16.28.19-27.91,4.88-34.59,13.93-10.16,13.79-5.6,33.66-4.71,37.08l82.64-.7Z"/>
      <path class="cls-6" d="M208.7,354.11c0,2.77-.38,5.78-1.24,9.02-3.56,13.44-17.32,22.53-36.81,24.32-11.31,1.04-23.67-.57-33.91-4.41-11.07-4.15-19.16-10.67-22.8-18.37-3.79-8.02-4.24-15.37-1.34-21.85,5.57-12.43,21.31-17.2,21.97-17.4l.4,1.36c-.16.05-15.79,4.79-21.08,16.62-2.72,6.08-2.28,13.04,1.33,20.66,7.67,16.23,34.14,23.91,55.3,21.98,19.16-1.76,32.12-10.24,35.57-23.27,6.97-26.34-18.38-35.62-19.46-36l.47-1.34c.24.09,21.6,7.87,21.6,28.68Z"/>
      <path class="cls-6" d="M206.51,449.68c0,5.5-2.01,10.5-6,14.89-7.94,8.74-23.46,14.25-41.52,14.74-17.16.46-26.69-5.21-31.67-10.06-5.18-5.04-8.03-11.79-8.03-19h1.42c0,6.82,2.7,13.21,7.6,17.98,6.86,6.67,17.45,10.01,30.64,9.66,17.68-.48,32.82-5.82,40.51-14.28,4.1-4.51,5.98-9.71,5.58-15.44-1.38-19.91-17.22-30.25-44.62-29.1-17.21.72-46.09,6.09-46.09,34.02h-1.42c0-21.57,16.85-34.15,47.45-35.43,28.28-1.18,44.65,9.62,46.09,30.42.04.54.06,1.07.06,1.6Z"/>
    </g>
    <polygon class="cls-6" points="324.94 502.69 243.95 561.65 317.79 565.79 317.71 567.21 239.9 562.85 320.49 504.17 233.43 505.56 233.41 504.14 324.94 502.69"/>
    <rect class="cls-6" x="179.34" y="236.83" width="1.42" height="34.17" transform="translate(-23.34 18.28) rotate(-5.46)"/>
  </g>
  <path class="cls-2" d="M162.19,304.05c-79.4,0-144-64.6-144-144S82.78,16.05,162.19,16.05s144,64.6,144,144-64.6,144-144,144ZM162.19,17.05C83.33,17.05,19.19,81.2,19.19,160.05s64.15,143,143,143,143-64.15,143-143S241.04,17.05,162.19,17.05Z"/>
</svg>