<?xml version="1.0" encoding="UTF-8"?>
<svg id="diseño" xmlns="http://www.w3.org/2000/svg" xmlns:xlink="http://www.w3.org/1999/xlink" viewBox="0 0 207.04 665.09">
  <defs>
    <style>
      .cls-1 {
        fill: none;
      }

      .cls-2 {
        fill: #fff;
      }

      .cls-3 {
        clip-path: url(#clippath);
      }
    </style>
    <clipPath id="clippath">
      <rect class="cls-1" x="20.17" y="23.7" width="165.74" height="624.26"/>
    </clipPath>
  </defs>
  <g class="cls-3">
    <path class="cls-2" d="M172.03,219.59h-13.78v33.03h13.78v-33.03ZM184.84,264.15v-16.03l-60.2-14.07v5.28l60.2-13.88v-18.57l-68.41,17.59v21.99l68.41,17.69ZM184.84,318.13v-15.54h-30.2l-24.24,1.27.1,3.13,54.34-20.13v-19.74h-68.41v15.64h27.56l17.4-.98-.39-1.27-44.57,17.2v20.43h68.41ZM184.84,326.49h-68.41v18.37h68.41v-18.37ZM185.91,375.91c0-7.49-1.99-13.39-5.96-17.69-3.97-4.3-10-7-18.08-8.11l-3.13,16.61c4.69.46,8.05,1.3,10.07,2.54,2.02,1.24,3.03,3.06,3.03,5.47,0,1.89-.77,3.44-2.3,4.64-1.53,1.21-3.83,2.12-6.89,2.74-3.06.62-7,.93-11.83.93s-9.11-.31-12.26-.93c-3.16-.62-5.52-1.55-7.09-2.78-1.56-1.24-2.35-2.83-2.35-4.79,0-2.08,1.06-3.71,3.18-4.89,2.12-1.17,5.49-1.95,10.11-2.35l-3.03-17.01c-8.21.65-14.3,3.05-18.28,7.18-3.97,4.14-5.96,9.99-5.96,17.54,0,5.8,1.4,10.83,4.2,15.1,2.8,4.27,6.89,7.56,12.26,9.87,5.38,2.31,11.84,3.47,19.4,3.47s14.22-1.04,19.4-3.13c5.18-2.08,9.06-5.18,11.63-9.28,2.57-4.1,3.86-9.15,3.86-15.15M171.84,436.46c0,2.09-.78,3.8-2.35,5.13-1.56,1.34-3.91,2.35-7.04,3.03-3.13.68-7.07,1.03-11.83,1.03s-8.7-.34-11.83-1.03c-3.13-.68-5.47-1.69-7.04-3.03-1.56-1.33-2.35-3.01-2.35-5.03s.8-3.7,2.39-5.03c1.6-1.33,3.96-2.35,7.09-3.03,3.13-.68,7.04-1.03,11.73-1.03s8.71.33,11.87.98c3.16.65,5.51,1.66,7.04,3.03,1.53,1.37,2.3,3.03,2.3,4.98M185.81,436.66c0-6.06-1.43-11.32-4.3-15.78-2.87-4.46-6.97-7.88-12.31-10.26-5.34-2.38-11.69-3.57-19.06-3.57s-13.65,1.16-18.86,3.47c-5.21,2.31-9.15,5.65-11.83,10.02-2.67,4.37-4.01,9.58-4.01,15.64s1.4,11.42,4.2,15.88c2.8,4.46,6.88,7.92,12.22,10.36,5.34,2.44,11.66,3.66,18.96,3.66s13.75-1.16,18.96-3.47c5.21-2.31,9.19-5.68,11.92-10.12,2.74-4.43,4.1-9.71,4.1-15.83M185.91,494.28c0-7.49-1.99-13.39-5.96-17.69-3.97-4.3-10-7-18.08-8.11l-3.13,16.61c4.69.46,8.05,1.3,10.07,2.54,2.02,1.24,3.03,3.06,3.03,5.47,0,1.89-.77,3.44-2.3,4.64-1.53,1.21-3.83,2.12-6.89,2.74-3.06.62-7,.93-11.83.93s-9.11-.31-12.26-.93c-3.16-.62-5.52-1.55-7.09-2.78-1.56-1.24-2.35-2.83-2.35-4.79,0-2.08,1.06-3.71,3.18-4.89,2.12-1.17,5.49-1.95,10.11-2.35l-3.03-17.01c-8.21.65-14.3,3.05-18.28,7.18-3.97,4.14-5.96,9.99-5.96,17.54,0,5.8,1.4,10.83,4.2,15.1,2.8,4.27,6.89,7.56,12.26,9.87,5.38,2.31,11.84,3.47,19.4,3.47s14.22-1.04,19.4-3.13c5.18-2.08,9.06-5.18,11.63-9.28,2.57-4.1,3.86-9.15,3.86-15.15M157.37,548.82h-14.56v23.94h14.56v-23.94ZM184.84,586.25v-43.88h-14.46v29.52l4.2-4.01h-48.08l4.4,5.08v-30h-14.46v43.3h68.41ZM184.84,645.9v-18.37h-58.44l4.5,4.4v-6.45c0-3.13.72-5.65,2.15-7.57,1.43-1.92,3.6-3.34,6.5-4.25,2.9-.91,6.63-1.37,11.19-1.37s8.19.47,11.09,1.42c2.9.94,5.05,2.36,6.45,4.25,1.4,1.89,2.1,4.33,2.1,7.33v11.73l14.46-.1v-11.14c0-7.17-1.35-13.28-4.06-18.33-2.7-5.05-6.65-8.89-11.83-11.53-5.18-2.64-11.45-3.96-18.81-3.96s-13.45,1.27-18.47,3.81c-5.02,2.54-8.81,6.3-11.38,11.29-2.57,4.98-3.86,11.13-3.86,18.42v20.43h68.41Z"/>
    <path class="cls-2" d="M108.43,74.71v-15.54h-30.2l-24.24,1.27.1,3.13,54.34-20.13v-19.74H40.01v15.64h27.56l17.4-.98-.39-1.27-44.57,17.2v20.43h68.41ZM35.81,120.78v-15.15l-15.64-17.1v21.89l15.64,10.36ZM95.43,109.93c0,2.09-.78,3.8-2.35,5.13-1.56,1.34-3.91,2.35-7.04,3.03-3.13.68-7.07,1.03-11.83,1.03s-8.7-.34-11.83-1.03-5.47-1.69-7.04-3.03c-1.56-1.33-2.35-3.01-2.35-5.03s.8-3.7,2.4-5.03c1.6-1.33,3.96-2.35,7.08-3.03,3.13-.68,7.04-1.03,11.73-1.03s8.71.33,11.88.98c3.16.65,5.51,1.66,7.04,3.03,1.53,1.37,2.3,3.03,2.3,4.98M109.4,110.13c0-6.06-1.43-11.32-4.3-15.78-2.87-4.46-6.97-7.88-12.31-10.26-5.34-2.38-11.69-3.57-19.06-3.57s-13.65,1.16-18.86,3.47c-5.21,2.31-9.15,5.65-11.83,10.02-2.67,4.37-4.01,9.58-4.01,15.64s1.4,11.42,4.2,15.88c2.8,4.46,6.88,7.92,12.22,10.36,5.34,2.44,11.66,3.66,18.96,3.66s13.75-1.16,18.96-3.47c5.21-2.31,9.19-5.68,11.92-10.12,2.74-4.43,4.1-9.71,4.1-15.83M108.43,145.57H40.01v18.37h68.41v-18.37ZM109.5,194.99c0-7.49-1.99-13.39-5.96-17.69-3.97-4.3-10-7-18.08-8.11l-3.13,16.61c4.69.46,8.05,1.3,10.07,2.54,2.02,1.24,3.03,3.06,3.03,5.47,0,1.89-.77,3.44-2.3,4.64-1.53,1.21-3.83,2.12-6.89,2.74-3.06.62-7,.93-11.83.93s-9.11-.31-12.26-.93c-3.16-.62-5.52-1.55-7.09-2.79-1.56-1.24-2.35-2.83-2.35-4.79,0-2.08,1.06-3.71,3.18-4.89,2.12-1.17,5.49-1.95,10.11-2.35l-3.03-17.01c-8.21.65-14.3,3.05-18.28,7.18-3.97,4.14-5.96,9.98-5.96,17.54,0,5.8,1.4,10.83,4.2,15.1,2.8,4.27,6.89,7.56,12.27,9.87,5.38,2.31,11.84,3.47,19.4,3.47s14.22-1.04,19.4-3.13c5.18-2.08,9.06-5.18,11.63-9.28,2.57-4.1,3.86-9.15,3.86-15.15M95.62,234.51h-13.78v33.03h13.78v-33.03ZM108.43,279.08v-16.03l-60.2-14.07v5.28l60.2-13.88v-18.57l-68.41,17.59v21.99l68.41,17.69ZM108.43,329.11v-48.38h-14.46v30.79l2.35-3.32-46.91-25.7h-9.38v45.84h14.46v-27.66l-2.25,2.35,47.69,26.09h8.5ZM108.43,334.44H40.01v18.37h68.41v-18.37ZM108.43,412.24v-15.54h-30.2l-24.24,1.27.1,3.13,54.34-20.13v-19.74H40.01v15.64h27.56l17.4-.98-.39-1.27-44.57,17.2v20.43h68.41ZM95.62,427.89h-13.78v33.03h13.78v-33.03ZM108.43,472.46v-16.03l-60.2-14.07v5.28l60.2-13.88v-18.57l-68.41,17.59v21.99l68.41,17.69ZM108.43,481.95v-6.94h-36.85v25.61h13.68v-12.9l-4.4,4.4h5.08l22.48-10.16ZM109.5,504.52c0-4.69-.9-8.55-2.69-11.58-1.79-3.03-4.14-5.28-7.04-6.74-2.9-1.47-6.21-2.33-9.92-2.59l-3.91,8.5c1.89.07,3.53.42,4.93,1.08,1.4.65,2.51,1.55,3.32,2.69.81,1.14,1.22,2.49,1.22,4.06,0,1.89-.7,3.47-2.1,4.74-1.4,1.27-3.63,2.26-6.69,2.98-3.06.72-7.1,1.08-12.12,1.08s-9.32-.33-12.51-.98c-3.19-.65-5.54-1.58-7.04-2.78-1.5-1.2-2.25-2.75-2.25-4.64,0-2.02.91-3.63,2.74-4.84,1.82-1.2,4.82-2.04,8.99-2.49l-3.13-17.01c-8.21,1.11-14.02,3.78-17.44,8.01-3.42,4.24-5.13,9.74-5.13,16.52,0,5.93,1.4,11.03,4.2,15.3,2.8,4.27,6.89,7.56,12.27,9.87,5.38,2.31,11.84,3.47,19.4,3.47s13.85-.99,19.06-2.98c5.21-1.99,9.15-4.8,11.83-8.45,2.67-3.65,4.01-8.05,4.01-13.19M108.43,551.06v-18.96l-33.52,10.95v17.89l33.52-9.87ZM108.43,583.12v-18.37h-58.54l4.4,4.4v-11.14c0-2.35.54-4.15,1.61-5.42s2.75-1.91,5.03-1.91,4.07.65,5.18,1.95c1.11,1.3,1.66,3.13,1.66,5.47v14.17h13.58v-14.07c0-5.28-.86-9.85-2.59-13.73-1.73-3.88-4.19-6.87-7.38-8.99-3.19-2.12-6.91-3.18-11.14-3.18-6.84,0-11.92,1.99-15.25,5.96-3.32,3.98-4.98,10.07-4.98,18.28v26.58h68.41ZM95.43,618.34c0,2.09-.78,3.8-2.35,5.13-1.56,1.34-3.91,2.35-7.04,3.03-3.13.68-7.07,1.03-11.83,1.03s-8.7-.34-11.83-1.03c-3.13-.68-5.47-1.69-7.04-3.03-1.56-1.33-2.35-3.01-2.35-5.03s.8-3.7,2.4-5.03c1.6-1.34,3.96-2.35,7.08-3.03,3.13-.69,7.04-1.03,11.73-1.03s8.71.33,11.88.98c3.16.65,5.51,1.66,7.04,3.03,1.53,1.37,2.3,3.03,2.3,4.98M109.4,618.54c0-6.06-1.43-11.32-4.3-15.78-2.87-4.46-6.97-7.88-12.31-10.26-5.34-2.38-11.69-3.57-19.06-3.57s-13.65,1.16-18.86,3.47c-5.21,2.31-9.15,5.65-11.83,10.02-2.67,4.37-4.01,9.58-4.01,15.64s1.4,11.42,4.2,15.88c2.8,4.46,6.88,7.91,12.22,10.36,5.34,2.44,11.66,3.67,18.96,3.67s13.75-1.16,18.96-3.47c5.21-2.31,9.19-5.68,11.92-10.11,2.74-4.43,4.1-9.71,4.1-15.83"/>
  </g>
</svg>