<?xml version="1.0" encoding="UTF-8"?>
<svg id="diseño" xmlns="http://www.w3.org/2000/svg" xmlns:xlink="http://www.w3.org/1999/xlink" viewBox="0 0 348.29 446.55">
  <defs>
    <style>
      .cls-1 {
        fill: none;
      }

      .cls-2 {
        fill: #e2dcd8;
      }

      .cls-3 {
        clip-path: url(#clippath-1);
      }

      .cls-4 {
        clip-path: url(#clippath-2);
      }

      .cls-5 {
        fill: #fff;
      }

      .cls-6 {
        fill: #221f20;
      }

      .cls-7 {
        clip-path: url(#clippath);
      }
    </style>
    <clipPath id="clippath">
      <rect class="cls-1" x="12.69" y="16.7" width="319.44" height="407.86"/>
    </clipPath>
    <clipPath id="clippath-1">
      <rect class="cls-1" x="12.69" y="16.7" width="319.44" height="407.86"/>
    </clipPath>
    <clipPath id="clippath-2">
      <rect class="cls-1" x="12.69" y="16.7" width="319.44" height="407.86"/>
    </clipPath>
  </defs>
  <g class="cls-7">
    <path class="cls-5" d="M312.69,311.21c0,2.9-1.09,5.28-3.26,7.14-2.18,1.86-5.44,3.26-9.79,4.21-4.35.95-9.83,1.43-16.45,1.43s-12.1-.48-16.45-1.43c-4.35-.95-7.61-2.36-9.79-4.21-2.18-1.86-3.26-4.19-3.26-7s1.11-5.14,3.33-7c2.22-1.86,5.51-3.26,9.86-4.21,4.35-.95,9.79-1.43,16.31-1.43s12.12.45,16.52,1.36c4.4.91,7.66,2.31,9.79,4.21,2.13,1.9,3.19,4.21,3.19,6.93M332.13,311.48c0-8.43-1.99-15.75-5.98-21.95-3.99-6.21-9.7-10.96-17.13-14.27-7.43-3.31-16.27-4.96-26.51-4.96s-18.99,1.61-26.24,4.83c-7.25,3.22-12.73,7.86-16.45,13.93-3.72,6.07-5.57,13.32-5.57,21.75s1.95,15.88,5.85,22.09c3.9,6.21,9.56,11.01,16.99,14.41,7.43,3.4,16.22,5.1,26.37,5.1s19.12-1.61,26.37-4.83c7.25-3.22,12.78-7.91,16.59-14.07,3.81-6.16,5.71-13.5,5.71-22.02M330.77,424.56v-25.56h-81.29l6.25,6.12v-8.97c0-4.35,1-7.86,2.99-10.54,1.99-2.67,5.01-4.64,9.04-5.91,4.03-1.27,9.22-1.9,15.57-1.9s11.4.66,15.43,1.97c4.03,1.31,7.02,3.29,8.97,5.91,1.95,2.63,2.92,6.03,2.92,10.2v16.31l20.12-.14v-15.5c0-9.97-1.88-18.46-5.64-25.49-3.76-7.02-9.24-12.37-16.45-16.04-7.2-3.67-15.93-5.51-26.17-5.51s-18.71,1.77-25.69,5.3c-6.98,3.53-12.26,8.77-15.84,15.7-3.58,6.93-5.37,15.48-5.37,25.63v28.41h95.16Z"/>
  </g>
  <path class="cls-5" d="M205.71,92.26v-43.5h-21.48v43.5h21.48ZM160.89,334.07l30.95-7.14v14.37l-30.95-7.24ZM133.66,347.64l75.07,19.41h-.98v31.95h-74.09v25.56h95.16v-74.6l-17.81-4.16v-23.27l17.81-4.1v-25.83l-95.16,24.47v30.59ZM133.66,251.9l65.93,14.1-65.93,14.58v26.78l95.16-25.96v-27.19l-95.16-25.28v22.97ZM160.89,205.31l30.95-7.14v14.37l-30.95-7.24ZM133.66,117.81h38.34l18.2-1.02-56.54,21.82v28.41h82.73l-82.73,21.27v30.59l95.16,24.61v-22.29l-17.81-4.16v-23.27l17.81-4.11v-44.25h-42.01l-19.88,1.04,61.89-22.93v-27.46h-95.16v21.75Z"/>
  <g class="cls-3">
    <path class="cls-2" d="M135.04,261.47c-67.5,0-122.42-54.92-122.42-122.42S67.54,16.62,135.04,16.62s122.42,54.92,122.42,122.42-54.92,122.42-122.42,122.42ZM135.04,17.62c-66.95,0-121.42,54.47-121.42,121.42s54.47,121.42,121.42,121.42,121.42-54.47,121.42-121.42S201.99,17.62,135.04,17.62Z"/>
  </g>
  <path class="cls-6" d="M211.48,231.8l-18.58-8.51-3.38,6.39-1.25-.66,3.34-6.32-46.07-21.1,74.38-29.37-26.36,49.81,18.5,8.47-.59,1.29ZM149.16,201.71l43.12,19.75,24.6-46.49-67.72,26.74Z"/>
  <path class="cls-6" d="M208.65,360.66l-18.58-8.51-3.38,6.39-1.25-.66,3.34-6.32-46.07-21.1,74.38-29.37-26.36,49.81,18.5,8.47-.59,1.29ZM146.33,330.56l43.12,19.75,24.6-46.49-67.72,26.74Z"/>
  <polygon class="cls-6" points="215.21 158.36 148.8 154.63 217.24 104.81 143.61 105.97 143.59 104.56 221.69 103.32 152.85 153.44 215.29 156.94 215.21 158.36"/>
  <g class="cls-4">
    <path class="cls-6" d="M278.63,336.92c-13.58,0-21.24-4.63-25.32-8.6-4.42-4.3-6.86-10.06-6.86-16.22h1.42c0,5.77,2.28,11.17,6.43,15.2,5.8,5.65,14.78,8.46,25.96,8.18,14.99-.41,27.83-4.93,34.34-12.1,3.46-3.81,5.05-8.2,4.71-13.04-1.17-16.85-14.59-25.6-37.8-24.63-14.59.61-39.06,5.16-39.06,28.79h-1.42c0-18.39,14.35-29.12,40.42-30.21,24.11-1,38.04,8.21,39.27,25.95.36,5.24-1.35,9.98-5.08,14.09-6.77,7.45-19.98,12.14-35.35,12.56-.56.02-1.12.02-1.66.02Z"/>
    <path class="cls-6" d="M247.78,409.44l-.15-.51c-.06-.2-1.47-4.98-1.69-11.46-.21-6.01.63-14.65,5.77-21.63,5.93-8.05,16.17-12.21,30.43-12.38,14.33-.17,24.91,3.81,31.45,11.82,10.72,13.14,6.76,32.18,6.58,32.99l-.12.55-72.27.61ZM283,364.87c-.28,0-.56,0-.84,0-13.79.16-23.65,4.13-29.3,11.8-8.53,11.58-4.81,28.23-4,31.34l70.04-.59c.56-3.23,2.9-19.85-6.4-31.24-6.13-7.5-16.05-11.3-29.49-11.3Z"/>
  </g>
  <polygon class="cls-6" points="142.45 414.43 142.38 413.02 216.34 409.44 215.16 380.64 216.58 380.58 217.81 410.79 142.45 414.43"/>
  <polygon class="cls-6" points="144.62 296.35 144.07 295.05 217.73 263.59 139.35 243.1 139.71 241.72 222.09 263.26 144.62 296.35"/>
</svg>