<?xml version="1.0" encoding="UTF-8"?>
<svg id="diseño" xmlns="http://www.w3.org/2000/svg" viewBox="0 0 338.01 471.96">
  <defs>
    <style>
      .cls-1 {
        fill: #e2dcd8;
      }

      .cls-2 {
        fill: #fff;
      }

      .cls-3 {
        fill: #221f20;
      }
    </style>
  </defs>
  <g>
    <g>
      <rect class="cls-2" x="272.17" y="86.39" width="22.6" height="54.18"/>
      <polygon class="cls-2" points="315.78 159.49 315.78 133.2 217.03 110.12 217.03 118.77 315.78 96.01 315.78 65.56 203.57 94.41 203.57 130.48 315.78 159.49"/>
      <path class="cls-3" d="M300.07,77.92l-30.98,58.55,21.94,10.05-.59,1.29-22.01-10.08-4.04,7.64-1.25-.66,4-7.57-54.18-24.81,87.11-34.4ZM267.8,135.87l29.22-55.22-80.44,31.77,51.22,23.46Z"/>
    </g>
    <g>
      <rect class="cls-2" x="203.8" y="328.16" width="112.21" height="30.14"/>
      <polygon class="cls-3" points="308.13 350.15 306.77 350.53 302.69 339.8 215.27 345.35 215.17 344.22 214.42 353.17 213.01 353.05 214.43 336.01 215.84 336.01 216.56 343.84 303.65 338.31 305.35 342.79 303.89 334.78 305.29 334.53 308.13 350.15"/>
    </g>
    <g>
      <rect class="cls-2" x="80.99" y="339.68" width="112.21" height="30.14"/>
      <polygon class="cls-3" points="185.32 361.66 183.96 362.04 179.88 351.31 92.46 356.86 92.36 355.73 91.61 364.68 90.2 364.57 91.62 347.53 93.03 347.52 93.75 355.35 180.84 349.82 182.54 354.31 181.08 346.29 182.48 346.04 185.32 361.66"/>
    </g>
    <g>
      <polygon class="cls-2" points="310.33 164.93 292.05 164.93 292.05 207.87 218.96 167.82 203.57 167.82 203.57 242.93 215.1 243 227.29 243 227.29 203.5 301.83 244.28 315.78 244.28 315.78 166.51 315.78 165.09 310.33 164.93"/>
      <polygon class="cls-3" points="307.34 233.88 214.18 182.19 215.85 234.9 214.43 234.94 212.69 179.74 305.83 231.42 303.53 173.32 304.95 173.27 307.34 233.88"/>
    </g>
    <g>
      <rect class="cls-2" x="246.85" y="260.02" width="23.88" height="39.27"/>
      <polygon class="cls-2" points="315.78 321.41 315.78 249.44 292.05 249.44 292.05 297.85 298.94 291.28 220.08 291.28 227.29 299.61 227.29 250.4 203.57 250.4 203.57 321.41 315.78 321.41"/>
      <polygon class="cls-3" points="302.48 306.01 205.86 308.1 208.02 258.42 209.44 258.48 207.34 306.64 300.99 304.62 298.9 262.32 300.32 262.25 302.48 306.01"/>
      <rect class="cls-3" x="252.75" y="271.3" width="1.42" height="41.11"/>
    </g>
    <g>
      <polygon class="cls-2" points="192.86 443.37 192.86 375.56 168.01 375.56 168.01 419.8 176.02 413.23 80.65 413.23 80.65 443.37 192.86 443.37"/>
      <polygon class="cls-3" points="181.5 427.35 92.76 431.64 92.69 430.22 180.03 426 178.63 391.91 180.05 391.86 181.5 427.35"/>
    </g>
    <g>
      <polygon class="cls-2" points="193.86 334.1 193.86 307.49 130.71 307.49 104.42 308.13 104.58 309.58 193.86 290.34 193.86 265.82 104.42 246.58 104.1 248.02 130.39 248.66 193.86 248.66 193.86 219.65 81.65 219.65 81.65 261.49 156.35 277.2 156.35 274.31 81.65 290.02 81.65 334.1 193.86 334.1"/>
      <polygon class="cls-3" points="182.94 236.29 95.69 243.72 173.55 277.89 95.09 313.2 181.51 320.07 181.4 321.48 92.22 314.39 91.99 313.04 170.05 277.91 92.56 243.9 92.79 242.55 182.82 234.87 182.94 236.29"/>
    </g>
    <g>
      <path class="cls-2" d="M316.01,443.9v-30.14h-96.18l7.37,7.21v-16.35c0-2.99.43-5.48,1.28-7.45.86-1.98,2.16-3.45,3.93-4.41,1.76-.96,4.09-1.44,6.97-1.44,4.06,0,7.13,1.15,9.22,3.45,2.08,2.3,3.13,5.53,3.13,9.7v16.99h23.4v-18.11c0-8.87-1.44-16.35-4.33-22.44-2.89-6.09-7.13-10.77-12.74-14.03-5.61-3.26-12.26-4.89-19.96-4.89s-13.92,1.58-19,4.73c-5.07,3.15-8.9,7.8-11.46,13.95-2.56,6.15-3.85,13.81-3.85,23v40.23h112.21Z"/>
      <path class="cls-3" d="M306.63,429.89l-93.2.57-.09-.61c-.01-.1-1.51-10.62.14-30.97.44-5.39,3.15-12.95,9.44-17.98,5.13-4.1,11.72-5.71,19.06-4.67,15.1,2.14,22.76,16.9,22.76,43.87h-1.42c0-26.52-7.05-40.41-21.54-42.46-6.94-.98-13.16.53-17.97,4.38-5.94,4.75-8.5,11.89-8.91,16.99-1.41,17.45-.51,27.55-.22,30.04l91.95-.56v1.42Z"/>
    </g>
    <g>
      <path class="cls-2" d="M151.08,204.6v-53.97h-26.65v53.97h26.65Z"/>
      <rect class="cls-3" x="132.16" y="161.01" width="1.49" height="36.02" transform="translate(-16.51 13.53) rotate(-5.49)"/>
    </g>
  </g>
  <path class="cls-1" d="M134.99,261.99c-67.5,0-122.42-54.92-122.42-122.42S67.49,17.14,134.99,17.14s122.42,54.92,122.42,122.42-54.92,122.42-122.42,122.42ZM134.99,18.14c-66.95,0-121.42,54.47-121.42,121.42s54.47,121.42,121.42,121.42,121.42-54.47,121.42-121.42S201.95,18.14,134.99,18.14Z"/>
</svg>