<?xml version="1.0" encoding="UTF-8"?>
<svg id="diseño" xmlns="http://www.w3.org/2000/svg" xmlns:xlink="http://www.w3.org/1999/xlink" viewBox="0 0 368.32 380.48">
  <defs>
    <style>
      .cls-1 {
        fill: none;
      }

      .cls-2 {
        fill: #e2dcd8;
      }

      .cls-3 {
        clip-path: url(#clippath-1);
      }

      .cls-4 {
        clip-path: url(#clippath-2);
      }

      .cls-5 {
        fill: #fff;
      }

      .cls-6 {
        fill: #221f20;
      }

      .cls-7 {
        clip-path: url(#clippath);
      }
    </style>
    <clipPath id="clippath">
      <rect class="cls-1" x="-27.36" y="13.77" width="387" height="346.56"/>
    </clipPath>
    <clipPath id="clippath-1">
      <rect class="cls-1" x="-27.36" y="13.77" width="387" height="346.56"/>
    </clipPath>
    <clipPath id="clippath-2">
      <rect class="cls-1" x="-27.36" y="13.77" width="387" height="346.56"/>
    </clipPath>
  </defs>
  <g class="cls-7">
    <path class="cls-5" d="M336.77,61.93c0,3.42-1.28,6.21-3.84,8.4-2.56,2.19-6.4,3.84-11.52,4.96-5.12,1.12-11.57,1.68-19.36,1.68s-14.24-.56-19.36-1.68c-5.12-1.12-8.96-2.77-11.52-4.96-2.56-2.18-3.84-4.93-3.84-8.24s1.31-6.05,3.92-8.24c2.62-2.18,6.48-3.84,11.6-4.96,5.12-1.12,11.52-1.68,19.2-1.68s14.27.54,19.44,1.6c5.17,1.07,9.01,2.72,11.52,4.96,2.51,2.24,3.76,4.96,3.76,8.16M359.65,62.25c0-9.92-2.35-18.53-7.04-25.84-4.69-7.31-11.41-12.91-20.16-16.8-8.74-3.89-19.14-5.84-31.2-5.84s-22.34,1.89-30.88,5.68c-8.53,3.79-14.99,9.26-19.36,16.4-4.37,7.15-6.56,15.68-6.56,25.6s2.29,18.7,6.88,26c4.59,7.31,11.26,12.96,20,16.96,8.75,4,19.1,6,31.04,6s22.51-1.89,31.04-5.68c8.53-3.79,15.04-9.31,19.52-16.56,4.48-7.25,6.72-15.89,6.72-25.92M238.85,186.12v-17.76c-1.6,0-2.88-.45-3.84-1.36-.96-.9-1.44-2.1-1.44-3.6s.19-3.07.56-4.72c.38-1.65.88-3.49,1.52-5.52.96-2.88,1.71-5.38,2.24-7.52.54-2.13.8-4.42.8-6.88,0-6.08-1.94-10.59-5.84-13.52-3.89-2.93-10.16-4.4-18.8-4.4v17.6c1.82,0,3.15.4,4,1.2.85.8,1.28,2.06,1.28,3.76,0,1.28-.18,2.64-.56,4.08-.37,1.44-.93,3.12-1.68,5.04-.96,2.99-1.73,5.63-2.32,7.92-.59,2.29-.88,4.88-.88,7.76,0,6.08,1.98,10.59,5.92,13.52,3.95,2.93,10.3,4.4,19.04,4.4M358.05,195.08v-25.44s-49.44,0-49.44,0l-39.68,2.08.16,5.12,88.96-32.96v-32.32s-112,0-112,0v25.6s45.12,0,45.12,0l28.48-1.6-.64-2.08-72.96,28.16v33.44s112,0,112,0ZM337.09,266.2v-54.08s-22.56,0-22.56,0v54.08s22.56,0,22.56,0ZM358.05,285.08v-26.24s-98.56-23.04-98.56-23.04v8.64s98.56-22.72,98.56-22.72v-30.4s-112,28.8-112,28.8v36s112,28.96,112,28.96ZM358.05,360.33v-30.08s-96,0-96,0l4.96,7.2v-16.16c0-4.16.93-7.22,2.8-9.2,1.87-1.97,4.72-2.96,8.56-2.96,2.46,0,4.59.48,6.4,1.44,1.82.96,3.2,2.35,4.16,4.16.96,1.81,1.44,3.95,1.44,6.4v16.8s21.28,0,21.28,0v-18.56c0-4.48,1.07-7.84,3.2-10.08,2.14-2.24,5.33-3.36,9.6-3.36s7.17,1.15,9.36,3.44c2.19,2.29,3.28,5.63,3.28,10v23.84s20.96,0,20.96,0v-24.8c0-9.07-1.3-16.77-3.92-23.12-2.61-6.35-6.43-11.14-11.44-14.4-5.01-3.25-11.09-4.88-18.24-4.88-5.44,0-10.16,1.07-14.16,3.2-4,2.14-7.23,5.28-9.68,9.44-2.45,4.16-4.05,9.28-4.8,15.36l4.32.48c-.96-5.44-2.61-9.95-4.96-13.52-2.34-3.57-5.25-6.29-8.72-8.16-3.47-1.87-7.49-2.8-12.08-2.8-6.18,0-11.39,1.5-15.6,4.48-4.21,2.99-7.39,7.44-9.52,13.36-2.13,5.92-3.2,13.31-3.2,22.16v40.32s112,0,112,0Z"/>
    <path class="cls-2" d="M155.61,307.87c-79.4,0-144-64.6-144-144S76.21,19.87,155.61,19.87s144,64.6,144,144-64.6,144-144,144ZM155.61,20.87C76.76,20.87,12.61,85.02,12.61,163.87s64.15,143,143,143,143-64.15,143-143S234.46,20.87,155.61,20.87Z"/>
  </g>
  <path class="cls-6" d="M337.2,275.13l-21.97-10.06-4.03,7.62-1.25-.66,4-7.55-54.07-24.76,86.95-34.34-30.92,58.44,21.9,10.03-.59,1.29ZM263.48,239.81l51.12,23.41,29.17-55.12-80.29,31.71Z"/>
  <g class="cls-3">
    <path class="cls-6" d="M298.04,92.35c-15.94,0-24.93-5.43-29.72-10.08-5.18-5.04-8.03-11.79-8.03-19h1.42c0,6.82,2.7,13.21,7.6,17.98,6.86,6.67,17.46,10.01,30.64,9.66,17.68-.48,32.82-5.82,40.51-14.28,4.1-4.51,5.97-9.71,5.58-15.44-1.38-19.92-17.23-30.25-44.62-29.1-17.21.72-46.09,6.09-46.09,34.02h-1.42c0-21.57,16.85-34.15,47.45-35.43,28.28-1.18,44.65,9.62,46.09,30.42.42,6.13-1.58,11.68-5.94,16.49-7.94,8.74-23.46,14.25-41.52,14.74-.66.02-1.31.03-1.95.03Z"/>
  </g>
  <polygon class="cls-6" points="341.06 184.64 263.25 180.28 343.84 121.6 256.78 122.99 256.76 121.57 348.29 120.12 267.3 179.08 341.14 183.22 341.06 184.64"/>
  <g class="cls-4">
    <path class="cls-6" d="M253.49,348.94l-.06-.7c-.01-.13-1.05-12.98.44-26.09,2.04-17.87,7.57-27.7,16.44-29.23,8.76-1.51,16.71,4.91,23,18.56,2.92,6.33,4.86,12.87,5.91,16.94.56-4.24,1.77-11.16,4.2-18.03,5.21-14.68,13.65-22.44,24.41-22.44,4.75,0,8.59,1.78,11.44,5.29,4.56,5.64,6.52,15.57,5.82,29.51-.52,10.31-2.37,19.11-2.39,19.2l-.11.52-89.1,6.47ZM272.82,294.12c-.74,0-1.49.06-2.26.2-18.4,3.17-16.17,47.01-15.76,53.11l86.63-6.29c.86-4.38,6.44-35.04-3.25-47.01-2.56-3.16-6.04-4.77-10.33-4.77-24.55,0-27.61,42.84-27.64,43.27l-1.4.09c-.08-.4-7.95-38.61-25.98-38.61Z"/>
  </g>
</svg>