<?xml version="1.0" encoding="UTF-8"?>
<svg id="diseño" xmlns="http://www.w3.org/2000/svg" viewBox="0 0 292.39 593.94">
  <defs>
    <style>
      .cls-1 {
        fill: #e2dcd8;
      }

      .cls-2 {
        fill: #fff;
      }

      .cls-3 {
        fill: #221f20;
      }
    </style>
  </defs>
  <g>
    <g>
      <rect class="cls-2" x="226.21" y="260.81" width="22.43" height="53.76"/>
      <polygon class="cls-2" points="269.48 333.34 269.48 307.26 171.49 284.35 171.49 292.94 269.48 270.35 269.48 240.13 158.13 268.76 158.13 304.55 269.48 333.34"/>
      <path class="cls-3" d="M253.89,252.4l-30.74,58.1,21.77,9.97-.59,1.28-21.85-10-4.01,7.58-1.25-.66,3.97-7.51-53.76-24.62,86.44-34.14ZM221.87,309.9l29-54.8-79.82,31.52,50.83,23.28Z"/>
    </g>
    <g>
      <rect class="cls-2" x="114.16" y="387.23" width="22.43" height="53.76"/>
      <polygon class="cls-2" points="157.43 459.76 157.43 433.68 59.44 410.77 59.44 419.36 157.43 396.78 157.43 366.55 46.08 395.18 46.08 430.97 157.43 459.76"/>
      <path class="cls-3" d="M141.84,378.82l-30.74,58.1,21.77,9.97-.59,1.28-21.85-10-4.01,7.58-1.25-.66,3.97-7.51-53.76-24.62,86.44-34.14ZM109.82,436.33l29-54.8-79.82,31.52,50.83,23.28Z"/>
    </g>
    <g>
      <polygon class="cls-2" points="269.48 377.5 269.48 347.76 175.79 347.76 182.94 354.91 182.94 322.31 158.13 322.31 158.13 403.11 182.94 403.11 182.94 370.34 175.79 377.5 269.48 377.5"/>
      <polygon class="cls-3" points="253.47 366.71 253.42 367.7 172.68 363.45 170.37 339.25 166.58 389.79 165.59 389.71 169.82 333.35 170.81 333.34 173.59 362.51 253.47 366.71"/>
    </g>
    <g>
      <path class="cls-2" d="M271.15,206.49c0-8.8-1.43-16.36-4.29-22.67-2.86-6.31-6.97-11.13-12.33-14.47-5.35-3.34-11.74-5.01-19.17-5.01-5.83,0-10.92,1.06-15.27,3.18-4.35,2.12-8.08,5.36-11.21,9.7-3.13,4.35-5.75,9.97-7.87,16.86-1.91,6.15-3.55,10.66-4.93,13.52-1.38,2.86-2.81,4.83-4.29,5.89-1.48,1.06-3.34,1.59-5.57,1.59-1.59,0-2.97-.42-4.14-1.27-1.17-.85-2.07-2.07-2.7-3.66s-.95-3.44-.95-5.57c0-3.82.93-7.08,2.78-9.78,1.86-2.7,4.85-4.96,8.99-6.76l-10.5-21.47c-7.95,2.86-13.81,7.34-17.58,13.44-3.76,6.1-5.65,13.87-5.65,23.3,0,8.49,1.35,15.77,4.06,21.87,2.7,6.1,6.68,10.79,11.93,14.08,5.25,3.29,11.43,4.93,18.53,4.93,5.94,0,11.06-1.03,15.35-3.1,4.29-2.07,7.95-5.25,10.98-9.54,3.02-4.29,5.49-9.84,7.4-16.62,1.7-6.04,3.24-10.55,4.61-13.52,1.38-2.97,2.89-5.04,4.53-6.2,1.65-1.17,3.74-1.75,6.28-1.75,1.91,0,3.53.45,4.85,1.35,1.33.9,2.33,2.25,3.02,4.06.69,1.8,1.03,4.08,1.03,6.84,0,4.24-1.22,8.14-3.66,11.69-2.44,3.55-6.1,6.18-10.98,7.87l11.45,21.79c8.27-2.76,14.55-7.66,18.85-14.71,4.29-7.05,6.44-15.67,6.44-25.85"/>
      <path class="cls-3" d="M260.94,204.1c0,10.12-4.48,21.14-12.34,28.76l-.69-.71c10.63-10.31,14.94-26.98,10.02-38.78-3.52-8.44-11.16-12.98-21.5-12.78-13.9.27-18.44,12.97-22.84,25.24-4.54,12.68-9.24,25.8-24.26,24.92-9.76-.57-16.64-4.97-19.89-12.74-5.04-12.04-.23-29.49,7.43-38.25l.75.65c-7.46,8.53-12.16,25.52-7.26,37.21,3.1,7.39,9.68,11.58,19.03,12.13,14.28.83,18.64-11.36,23.27-24.26,4.51-12.59,9.18-25.61,23.76-25.9,10.78-.21,18.75,4.55,22.44,13.39,1.42,3.4,2.09,7.19,2.09,11.12Z"/>
    </g>
    <g>
      <path class="cls-2" d="M158.8,331.58c0-8.8-1.43-16.36-4.29-22.67-2.86-6.31-6.97-11.13-12.33-14.47-5.35-3.34-11.74-5.01-19.17-5.01-5.83,0-10.92,1.06-15.27,3.18-4.35,2.12-8.08,5.36-11.21,9.7-3.13,4.35-5.75,9.97-7.87,16.86-1.91,6.15-3.55,10.66-4.93,13.52-1.38,2.86-2.81,4.83-4.29,5.89-1.48,1.06-3.34,1.59-5.57,1.59-1.59,0-2.97-.42-4.14-1.27-1.17-.85-2.07-2.07-2.7-3.66s-.95-3.44-.95-5.57c0-3.82.93-7.08,2.78-9.78,1.86-2.7,4.85-4.96,8.99-6.76l-10.5-21.47c-7.95,2.86-13.81,7.34-17.58,13.44-3.76,6.1-5.65,13.87-5.65,23.3,0,8.49,1.35,15.77,4.06,21.87,2.7,6.1,6.68,10.79,11.93,14.08,5.25,3.29,11.43,4.93,18.53,4.93,5.94,0,11.06-1.03,15.35-3.1,4.29-2.07,7.95-5.25,10.98-9.54,3.02-4.29,5.49-9.84,7.4-16.62,1.7-6.04,3.24-10.55,4.61-13.52,1.38-2.97,2.89-5.04,4.53-6.2,1.65-1.17,3.74-1.75,6.28-1.75,1.91,0,3.53.45,4.85,1.35,1.33.9,2.33,2.25,3.02,4.06.69,1.8,1.03,4.08,1.03,6.84,0,4.24-1.22,8.14-3.66,11.69-2.44,3.55-6.1,6.18-10.98,7.87l11.45,21.79c8.27-2.76,14.55-7.66,18.85-14.71,4.29-7.05,6.44-15.67,6.44-25.85"/>
      <path class="cls-3" d="M148.6,329.19c0,10.12-4.48,21.14-12.34,28.76l-.69-.71c10.63-10.31,14.94-26.98,10.02-38.78-3.52-8.44-11.16-12.98-21.5-12.78-13.9.27-18.44,12.97-22.84,25.24-4.54,12.68-9.24,25.8-24.26,24.92-9.76-.57-16.64-4.97-19.89-12.74-5.04-12.04-.23-29.49,7.43-38.25l.75.65c-7.46,8.53-12.16,25.52-7.26,37.21,3.1,7.39,9.68,11.58,19.03,12.13,14.28.83,18.64-11.36,23.27-24.26,4.51-12.59,9.18-25.61,23.76-25.9,10.78-.21,18.75,4.55,22.44,13.39,1.42,3.4,2.09,7.19,2.09,11.12Z"/>
    </g>
    <g>
      <path class="cls-2" d="M271.38,531.14c0-12.19-3.23-21.79-9.7-28.79-6.47-7-16.28-11.4-29.43-13.2l-5.09,27.04c7.64.74,13.1,2.12,16.38,4.14,3.29,2.02,4.93,4.99,4.93,8.91,0,3.08-1.25,5.59-3.74,7.56-2.49,1.96-6.23,3.45-11.21,4.45-4.98,1.01-11.4,1.51-19.25,1.51s-14.82-.5-19.96-1.51c-5.14-1.01-8.99-2.52-11.53-4.53-2.55-2.01-3.82-4.61-3.82-7.79,0-3.39,1.72-6.04,5.17-7.95,3.45-1.91,8.93-3.18,16.46-3.82l-4.93-27.68c-13.36,1.06-23.28,4.96-29.75,11.69-6.47,6.74-9.7,16.25-9.7,28.55,0,9.44,2.28,17.63,6.84,24.58,4.56,6.95,11.21,12.3,19.96,16.07,8.75,3.76,19.27,5.65,31.57,5.65s23.14-1.7,31.57-5.09c8.43-3.39,14.74-8.43,18.93-15.11,4.19-6.68,6.28-14.9,6.28-24.66"/>
      <path class="cls-3" d="M257.27,531.95c0,2.76-.38,5.74-1.23,8.97-3.54,13.36-17.22,22.4-36.6,24.18-11.25,1.03-23.54-.57-33.72-4.39-11-4.13-19.05-10.61-22.66-18.26-3.77-7.97-4.21-15.28-1.33-21.73,5.53-12.36,21.18-17.1,21.84-17.3l.4,1.35c-.16.05-15.7,4.77-20.96,16.53-2.71,6.05-2.26,12.96,1.32,20.54,7.62,16.13,33.94,23.78,54.98,21.85,18.76-1.72,31.98-10.37,35.36-23.14,6.93-26.18-18.27-35.41-19.35-35.79l.47-1.33c.24.09,21.47,7.83,21.47,28.51Z"/>
    </g>
    <g>
      <polygon class="cls-2" points="157.43 571.03 157.43 544.62 94.75 544.62 68.67 545.26 68.83 546.69 157.43 527.6 157.43 503.27 68.67 484.18 68.35 485.61 94.44 486.25 157.43 486.25 157.43 457.46 46.08 457.46 46.08 498.97 120.2 514.56 120.2 511.7 46.08 527.29 46.08 571.03 157.43 571.03"/>
      <polygon class="cls-3" points="146.58 473.97 60 481.35 137.26 515.25 59.42 550.28 145.17 557.1 145.06 558.51 56.57 551.47 56.33 550.12 133.8 515.27 56.9 481.52 57.13 480.18 146.46 472.56 146.58 473.97"/>
    </g>
    <g>
      <path class="cls-2" d="M182.31,402.03c-8.48,3.77-14.9,9.2-19.25,16.3-4.35,7.11-6.52,15.59-6.52,25.45s2.28,18.59,6.84,25.85c4.56,7.27,11.19,12.88,19.88,16.86,8.7,3.98,18.98,5.96,30.86,5.96s22.38-1.88,30.86-5.65c8.49-3.76,14.95-9.25,19.41-16.46,4.45-7.21,6.68-15.8,6.68-25.77s-2.33-18.42-7-25.69c-4.67-7.26-11.35-12.83-20.04-16.7-8.69-3.87-19.03-5.81-31.02-5.81s-22.21,1.88-30.7,5.65ZM233.13,431.22c5.14,1.06,8.96,2.7,11.45,4.93,2.49,2.23,3.74,4.93,3.74,8.11,0,3.4-1.27,6.18-3.82,8.35-2.55,2.18-6.36,3.82-11.45,4.93-5.09,1.11-11.5,1.67-19.25,1.67s-14.16-.56-19.25-1.67c-5.09-1.11-8.91-2.76-11.45-4.93-2.55-2.17-3.82-4.9-3.82-8.19s1.3-6.02,3.9-8.19c2.6-2.17,6.44-3.82,11.53-4.93,5.09-1.11,11.45-1.67,19.09-1.67s14.18.53,19.33,1.59Z"/>
      <path class="cls-3" d="M259.6,445.05c0,5.47-2,10.44-5.96,14.8-7.89,8.69-23.32,14.17-41.27,14.66-17.06.46-26.54-5.18-31.49-10-5.15-5.01-7.99-11.72-7.99-18.89h1.41c0,6.78,2.68,13.13,7.56,17.88,6.82,6.64,17.35,9.96,30.46,9.6,17.58-.48,32.63-5.78,40.27-14.19,4.07-4.49,5.94-9.65,5.55-15.35-1.37-19.8-17.12-30.07-44.36-28.93-17.11.72-45.82,6.06-45.82,33.82h-1.41c0-21.44,16.75-33.95,47.17-35.22,28.12-1.18,44.39,9.56,45.82,30.24.04.53.06,1.06.06,1.59Z"/>
    </g>
    <g>
      <path class="cls-2" d="M114.68,295.25v-53.56h-26.44v53.56h26.44Z"/>
      <rect class="cls-3" x="95.9" y="251.98" width="1.48" height="35.74" transform="translate(-25.37 10.48) rotate(-5.49)"/>
    </g>
  </g>
  <path class="cls-1" d="M136.59,255.09c-67.5,0-122.42-54.92-122.42-122.42S69.08,10.24,136.59,10.24s122.42,54.92,122.42,122.42-54.92,122.42-122.42,122.42ZM136.59,11.24c-66.95,0-121.42,54.47-121.42,121.42s54.47,121.42,121.42,121.42,121.42-54.47,121.42-121.42S203.54,11.24,136.59,11.24Z"/>
</svg>