<?xml version="1.0" encoding="UTF-8"?>
<svg id="diseño" xmlns="http://www.w3.org/2000/svg" viewBox="0 0 324.86 421.9">
  <defs>
    <style>
      .cls-1 {
        fill: #e2dcd8;
      }

      .cls-2 {
        fill: #fff;
      }

      .cls-3 {
        fill: #221f20;
      }
    </style>
  </defs>
  <g>
    <g>
      <rect class="cls-2" x="267.76" y="236.04" width="18.62" height="44.63"/>
      <polygon class="cls-2" points="303.68 296.24 303.68 274.59 222.34 255.58 222.34 262.71 303.68 243.96 303.68 218.87 211.25 242.64 211.25 272.35 303.68 296.24"/>
      <path class="cls-3" d="M290.74,229.05l-25.52,48.22,18.07,8.28-.49,1.06-18.13-8.3-3.33,6.29-1.03-.55,3.3-6.23-44.62-20.44,71.75-28.34ZM264.16,276.79l24.07-45.49-66.26,26.17,42.19,19.32Z"/>
    </g>
    <g>
      <polygon class="cls-2" points="303.68 118.37 303.68 93.68 225.91 93.68 231.85 99.62 231.85 72.56 211.25 72.56 211.25 139.63 231.85 139.63 231.85 112.43 225.91 118.37 303.68 118.37"/>
      <polygon class="cls-3" points="290.39 109.41 290.35 110.24 223.33 106.71 221.42 86.62 218.27 128.57 217.45 128.51 220.96 81.72 221.78 81.72 224.08 105.92 290.39 109.41"/>
    </g>
    <g>
      <rect class="cls-2" x="211.25" y="138.34" width="92.42" height="24.82"/>
      <polygon class="cls-3" points="297.19 156.45 296.06 156.76 292.71 147.93 220.7 152.5 220.61 151.57 220 158.94 218.83 158.85 220 144.81 221.17 144.81 221.76 151.26 293.5 146.7 294.9 150.39 293.7 143.79 294.85 143.58 297.19 156.45"/>
    </g>
    <g>
      <rect class="cls-2" x="211.25" y="296.66" width="92.42" height="24.82"/>
      <polygon class="cls-3" points="297.19 314.77 296.06 315.08 292.71 306.25 220.7 310.82 220.61 309.89 220 317.26 218.83 317.17 220 303.13 221.17 303.13 221.76 309.58 293.5 305.02 294.9 308.71 293.7 302.11 294.85 301.9 297.19 314.77"/>
    </g>
    <g>
      <polygon class="cls-2" points="224.54 325.29 305.17 346.72 305.17 373.12 212.75 398.34 212.75 372.33 276.78 358.17 212.75 344.47 212.75 328.04 212.75 321.91 224.54 325.29"/>
      <polygon class="cls-3" points="297.47 356.82 222.51 388.83 222.05 387.76 293.87 357.08 217.46 337.11 217.75 335.97 297.47 356.82"/>
    </g>
    <g>
      <polygon class="cls-2" points="199.32 55.25 199.32 37.69 175.02 16.69 175.02 44.02 199.32 55.25"/>
      <rect class="cls-3" x="182.91" y="31.66" width="1.17" height="16.4" transform="translate(54.48 176.29) rotate(-58.86)"/>
    </g>
    <g>
      <rect class="cls-2" x="244.53" y="26.67" width="19.67" height="32.35"/>
      <polygon class="cls-2" points="301.31 77.24 301.31 17.96 281.77 17.96 281.77 57.83 287.45 52.42 222.48 52.42 228.43 59.29 228.43 18.75 208.89 18.75 208.89 77.24 301.31 77.24"/>
      <polygon class="cls-3" points="290.36 64.55 210.77 66.28 212.55 25.36 213.72 25.41 211.99 65.08 289.13 63.41 287.41 28.57 288.57 28.51 290.36 64.55"/>
      <rect class="cls-3" x="249.39" y="35.97" width="1.17" height="33.86"/>
    </g>
    <g>
      <polygon class="cls-2" points="303.68 218.87 303.68 163.02 283.21 163.02 283.21 199.46 289.81 194.05 211.25 194.05 211.25 218.87 303.68 218.87"/>
      <polygon class="cls-3" points="294.33 205.68 221.23 209.21 221.17 208.05 293.11 204.57 291.96 176.49 293.13 176.44 294.33 205.68"/>
    </g>
  </g>
  <path class="cls-1" d="M136.09,407.78c-67.5,0-122.42-54.92-122.42-122.42s54.92-122.42,122.42-122.42,122.42,54.92,122.42,122.42-54.92,122.42-122.42,122.42ZM136.09,163.93c-66.95,0-121.42,54.47-121.42,121.42s54.47,121.42,121.42,121.42,121.42-54.47,121.42-121.42-54.47-121.42-121.42-121.42Z"/>
</svg>