<?xml version="1.0" encoding="UTF-8"?>
<svg id="base" xmlns="http://www.w3.org/2000/svg" viewBox="0 0 100.22 67.35">
  <defs>
    <style>
      .cls-1 {
        fill: #fff;
      }
    </style>
  </defs>
  <path class="cls-1" d="M89.33,32.41c.77,0,1.45-.13,2.04-.38.59-.26,1.05-.61,1.37-1.05.32-.44.48-.96.48-1.55.01-.62-.1-1.13-.33-1.54-.23-.4-.61-.74-1.12-1.01-.52-.26-1.23-.49-2.12-.67-.78-.16-1.37-.32-1.78-.49-.4-.17-.69-.37-.86-.61-.17-.24-.26-.54-.26-.91s.1-.67.3-.92c.2-.25.48-.44.85-.58.36-.13.81-.2,1.33-.2.73,0,1.32.15,1.76.46.44.31.77.78.97,1.41l1.14-.38c-.28-.89-.74-1.54-1.37-1.96-.63-.42-1.46-.63-2.48-.63-.76,0-1.43.12-2,.38-.58.25-1.02.59-1.34,1.03s-.47.95-.47,1.55c0,.56.12,1.03.35,1.41.23.38.59.69,1.09.94.49.25,1.17.46,2.02.63.77.12,1.37.27,1.8.46.43.19.74.43.94.71s.29.6.29.98c0,.4-.1.73-.29.99-.19.26-.49.46-.87.61-.38.15-.85.22-1.4.22-.84,0-1.51-.17-2.01-.5-.5-.33-.86-.84-1.08-1.51l-1.14.35c.26.94.74,1.63,1.44,2.09.7.45,1.62.67,2.78.67M77.13,29.2h5.54l-.04-1.11h-5.49v1.11ZM75.21,32.15h1.23l3.6-9.63-.36-.03,3.61,9.66h1.43l-4.01-10.5h-1.5l-4,10.5ZM72.8,32.15h1.5l-2.51-5.55-1.31.27,2.31,5.28ZM66.2,32.15h1.41v-9.92l-.59.6h3.9c.61,0,1.1.15,1.47.45.37.3.55.71.55,1.23,0,.55-.18.97-.55,1.26-.37.29-.86.43-1.48.43h-3.81v1.18h3.65c.7,0,1.32-.12,1.86-.35.54-.23.96-.57,1.25-1.01.29-.45.44-.97.44-1.57,0-.9-.3-1.6-.91-2.08-.6-.49-1.43-.74-2.47-.74h-4.74v10.5ZM59.87,32.42c.85,0,1.58-.17,2.2-.5.62-.33,1.09-.83,1.42-1.5.33-.66.49-1.47.49-2.42v-6.35h-1.21v6.35c0,.77-.11,1.39-.34,1.88-.23.48-.54.83-.95,1.06-.41.23-.91.34-1.5.34s-1.11-.11-1.52-.34c-.41-.23-.73-.59-.95-1.08-.22-.49-.33-1.11-.33-1.86v-6.33h-1.41v6.39c0,.97.16,1.78.49,2.44.32.65.79,1.14,1.4,1.46.61.32,1.35.48,2.22.48M49.66,32.15h1.38v-9.89l-.57.57h4.07v-1.18h-8.4v1.18h4.08l-.56-.57v9.89ZM36.7,32.15h1.34l3.35-4.96h-.68s3.29,4.96,3.29,4.96h1.5l-3.82-5.79-.1.95,3.81-5.65h-1.35l-3.2,4.77h.63l-3.13-4.77h-1.5l3.68,5.61.1-.98-3.9,5.87ZM29.14,27.31h5.25v-1.17h-5.25v1.17ZM28.39,32.15h7.46v-1.15h-6.6l.57.55v-9.3l-.57.56h6.43v-1.15h-7.29v10.5ZM22.25,32.15h1.38v-9.89l-.57.57h4.06v-1.18h-8.4v1.18h4.08l-.56-.57v9.89ZM10.34,32.15h1.36v-5.07h-1.36v5.07ZM10.5,27.73h1.1l3.85-6.07h-1.27l-3.33,5.22h.6l-3.32-5.22h-1.54l3.92,6.07Z"/>
  <path class="cls-1" d="M89.33,16.41c.77,0,1.45-.13,2.04-.38.59-.25,1.04-.6,1.36-1.05.32-.44.48-.96.48-1.55,0-.62-.1-1.13-.33-1.54-.23-.4-.6-.74-1.12-1-.52-.26-1.22-.49-2.11-.67-.78-.16-1.37-.32-1.78-.49s-.69-.37-.86-.61c-.17-.23-.26-.54-.26-.91s.1-.67.3-.92.48-.44.85-.58c.37-.13.81-.2,1.33-.2.73,0,1.32.15,1.76.46.44.31.77.78.97,1.41l1.14-.38c-.28-.89-.74-1.54-1.37-1.96-.64-.42-1.46-.63-2.48-.63-.76,0-1.43.12-2,.38s-1.02.59-1.34,1.03c-.32.44-.47.95-.47,1.55,0,.56.11,1.03.35,1.41.23.38.59.7,1.09.95.49.25,1.17.46,2.02.63.77.12,1.37.28,1.8.46.43.19.74.43.94.71.2.28.29.61.29.98,0,.4-.1.73-.29.99-.19.26-.48.46-.87.61-.38.15-.85.22-1.4.22-.84,0-1.51-.17-2.01-.5-.5-.34-.86-.84-1.08-1.51l-1.14.35c.26.94.74,1.64,1.44,2.09.7.45,1.62.68,2.77.68M77.63,11.31h5.25v-1.17h-5.25v1.17ZM76.88,16.15h7.45v-1.15h-6.6l.57.55V6.25l-.57.55h6.43v-1.15h-7.29v10.5ZM68.47,16.15h7.17v-1.18h-6.31l.57.58V5.65h-1.42v10.5ZM59.7,13.2h5.53l-.04-1.11h-5.49v1.11ZM57.78,16.15h1.23l3.6-9.63-.36-.03,3.61,9.66h1.43l-4.01-10.5h-1.5l-4,10.5ZM55.15,16.15h1.43V5.65h-1.43v10.5ZM51.88,16.15h1.5l-2.51-5.55-1.3.27,2.31,5.28ZM45.28,16.15h1.41V6.24l-.58.6h3.9c.61,0,1.1.15,1.47.45.37.3.55.71.55,1.23,0,.55-.18.97-.55,1.26-.37.29-.86.43-1.48.43h-3.81v1.18h3.64c.7,0,1.32-.11,1.86-.35.54-.23.96-.57,1.25-1.01.3-.44.44-.97.44-1.57,0-.9-.3-1.6-.91-2.09-.6-.49-1.43-.74-2.47-.74h-4.74v10.5ZM37.17,11.31h5.25v-1.17h-5.25v1.17ZM36.42,16.15h7.45v-1.15h-6.6l.57.55V6.25l-.57.55h6.43v-1.15h-7.29v10.5ZM30.27,16.15h1.38V6.27l-.57.57h4.07v-1.18h-8.4v1.18h4.08l-.56-.57v9.88ZM20.25,13.2h5.54l-.04-1.11h-5.49v1.11ZM18.33,16.15h1.23l3.6-9.63-.36-.03,3.62,9.66h1.42l-4-10.5h-1.5l-4.01,10.5ZM6.34,16.15h1.28v-7.8l-.09-1.66-.15.04,3.58,9.42h1.46l3.56-9.42h-.14s-.06,1.62-.06,1.62v7.8h1.37V5.65h-1.98l-3.6,9.69h.4s-3.68-9.69-3.68-9.69h-1.95v10.5Z"/>
  <path class="cls-1" d="M92.86,62.27h.76v-1.09h-.76v1.09ZM87.48,62.27h.69v-4.82l-.04-.8-.13.04,2.68,5.58h.84v-6.3h-.68v4.6l.03.92.13-.16-2.57-5.35h-.93v6.3ZM83.07,55.52h.59l1.21-1.23h-.9l-.9,1.23ZM83.75,61.8c-.34,0-.63-.1-.87-.3-.24-.2-.42-.5-.55-.9-.13-.4-.19-.89-.19-1.46s.06-1.05.19-1.45c.13-.4.32-.7.56-.91.24-.21.54-.32.88-.32s.63.1.87.31c.24.2.42.5.54.9.12.4.18.88.18,1.45s-.06,1.05-.18,1.45c-.12.41-.31.71-.55.92-.24.21-.53.31-.87.31M83.75,62.41c.49,0,.91-.13,1.27-.4.36-.27.64-.65.83-1.15.19-.5.29-1.09.29-1.76s-.09-1.26-.28-1.75c-.19-.49-.46-.86-.81-1.11-.36-.25-.78-.38-1.27-.38s-.93.13-1.3.4c-.37.26-.65.64-.85,1.14-.2.5-.3,1.08-.3,1.76s.09,1.27.28,1.76c.19.49.46.86.82,1.12.36.25.8.38,1.31.38M79.25,62.27h.76v-6.3h-.76v6.3ZM75.99,62.41c.53,0,.98-.16,1.33-.48.35-.32.59-.81.71-1.47l-.62-.16c-.11.53-.27.92-.5,1.15-.22.23-.52.35-.89.35-.32,0-.6-.1-.83-.31-.23-.2-.41-.5-.53-.89-.12-.39-.18-.88-.18-1.45s.06-1.05.19-1.45c.13-.4.31-.7.54-.91.23-.21.51-.32.84-.32.35,0,.63.12.86.36.23.24.39.62.49,1.14l.66-.17c-.13-.65-.35-1.13-.68-1.45-.33-.32-.77-.48-1.32-.48-.48,0-.9.13-1.25.4-.35.26-.63.64-.82,1.14-.19.5-.29,1.08-.29,1.77s.09,1.29.27,1.77c.18.49.44.85.79,1.1.35.25.76.37,1.25.37M69.34,60.46h2.66v-.62h-2.66v.62ZM68.37,62.27h.68l1.68-5.79-.13.02,1.7,5.77h.76l-1.91-6.3h-.86l-1.91,6.3ZM66.87,62.27h.78l-1.21-3.28-.69.09,1.12,3.19ZM63.69,62.27h.76v-5.95l-.29.29h1.56c.39,0,.69.09.9.27.21.18.31.44.31.77,0,.35-.11.62-.32.81-.21.19-.51.28-.89.28h-1.54v.62s1.49,0,1.49,0c.4,0,.75-.07,1.05-.21.3-.14.53-.34.7-.61.16-.27.25-.58.25-.93,0-.53-.17-.94-.5-1.23-.33-.29-.81-.43-1.42-.43h-2.06v6.3ZM59.98,61.8c-.34,0-.63-.1-.87-.3-.24-.2-.43-.5-.55-.9-.13-.4-.19-.89-.19-1.46s.06-1.05.19-1.45.32-.7.56-.91c.24-.21.54-.32.88-.32s.63.1.87.31c.24.2.42.5.54.9.12.4.18.88.18,1.45s-.06,1.05-.18,1.45c-.12.41-.31.71-.55.92-.24.21-.53.31-.87.31M59.98,62.41c.49,0,.91-.13,1.27-.4.36-.27.64-.65.83-1.15s.29-1.09.29-1.76-.09-1.26-.28-1.75c-.19-.49-.46-.86-.82-1.11-.36-.25-.78-.38-1.27-.38s-.93.13-1.3.4c-.37.26-.65.64-.85,1.14-.2.5-.3,1.08-.3,1.76s.09,1.27.28,1.76c.19.49.46.86.82,1.12.36.25.8.38,1.31.38M54.57,62.41c.53,0,.98-.16,1.33-.48.35-.32.59-.81.72-1.47l-.62-.16c-.11.53-.27.92-.49,1.15-.22.23-.52.35-.89.35-.32,0-.6-.1-.83-.31-.23-.2-.41-.5-.53-.89-.12-.39-.18-.88-.18-1.45s.06-1.05.19-1.45c.13-.4.31-.7.54-.91.23-.21.51-.32.84-.32.35,0,.63.12.86.36.23.24.39.62.49,1.14l.66-.17c-.13-.65-.35-1.13-.68-1.45-.33-.32-.77-.48-1.32-.48-.48,0-.9.13-1.25.4-.35.26-.63.64-.82,1.14-.19.5-.29,1.08-.29,1.77s.09,1.29.27,1.77c.18.49.44.85.79,1.1.34.25.76.37,1.25.37M48.24,59.36h2.6v-.66h-2.6v.66ZM47.83,62.27h3.63v-.65h-3.17l.3.3v-5.6l-.3.3h3.1v-.65h-3.56v6.3ZM42.24,62.27h.76v-6.06l-.37.39h.99c.47,0,.87.09,1.18.28.31.19.55.47.71.84.16.37.24.83.24,1.39s-.08,1-.24,1.39c-.16.38-.4.67-.72.86-.32.19-.7.28-1.17.28h-1.04v.63h1.11c.59,0,1.1-.13,1.52-.38.43-.25.75-.62.98-1.1.23-.48.34-1.04.34-1.7s-.11-1.22-.33-1.69c-.22-.47-.54-.83-.96-1.07-.42-.24-.93-.36-1.53-.36h-1.47v6.3Z"/>
  <path class="cls-1" d="M90.35,50.36h2.6v-.66h-2.6v.66ZM89.95,53.27h3.63v-.65h-3.17l.3.3v-5.6l-.3.3h3.1v-.65h-3.56v6.3ZM84.35,53.27h.76v-6.06l-.37.39h.99c.47,0,.87.09,1.18.28.31.19.55.47.71.84s.24.83.24,1.39-.08,1-.24,1.39c-.16.38-.4.67-.72.86-.32.19-.7.28-1.16.28h-1.04v.63h1.11c.59,0,1.09-.13,1.52-.38.43-.25.75-.62.98-1.1.23-.48.34-1.04.34-1.7s-.11-1.22-.33-1.69c-.22-.47-.54-.83-.96-1.07-.42-.24-.93-.36-1.53-.36h-1.47v6.3ZM79.2,53.41c.4,0,.74-.07,1.04-.21.29-.14.52-.34.69-.6.16-.26.25-.57.25-.91,0-.33-.06-.61-.17-.84-.11-.23-.3-.43-.54-.61-.25-.17-.59-.34-1.01-.49-.38-.12-.67-.24-.87-.37-.2-.12-.35-.26-.43-.41-.09-.15-.13-.33-.13-.54s.05-.38.14-.53.23-.26.4-.33.39-.11.64-.11c.36,0,.64.1.85.29s.34.49.39.91l.66-.11c-.09-.59-.29-1.02-.59-1.29-.31-.27-.74-.4-1.29-.4-.38,0-.72.07-1.01.2-.29.14-.51.33-.67.58-.16.25-.23.55-.23.88,0,.31.05.57.16.79s.28.42.52.59.55.31.95.43c.39.12.69.24.91.37.22.13.38.28.47.44.09.17.14.36.14.6s-.05.42-.14.58c-.1.16-.24.28-.42.36-.19.08-.41.13-.68.13-.4,0-.72-.11-.95-.32-.23-.21-.38-.53-.44-.95l-.66.11c.07.59.28,1.03.62,1.32s.82.44,1.42.44M73.81,52.8c-.34,0-.63-.1-.87-.3-.24-.2-.43-.5-.55-.9-.13-.4-.19-.89-.19-1.46s.06-1.05.19-1.45.32-.7.56-.91c.24-.21.54-.32.88-.32s.63.1.87.31c.24.2.42.5.54.9s.18.88.18,1.45-.06,1.05-.18,1.45c-.12.41-.31.71-.55.92-.24.21-.53.31-.87.31M73.81,53.41c.49,0,.91-.13,1.27-.4.36-.27.64-.65.83-1.15.19-.5.29-1.09.29-1.76s-.09-1.26-.28-1.75c-.19-.49-.46-.86-.82-1.11-.36-.25-.78-.38-1.27-.38s-.93.13-1.3.4c-.37.26-.65.64-.85,1.14-.2.5-.3,1.08-.3,1.76s.09,1.27.28,1.76c.19.49.46.86.82,1.12.36.25.8.38,1.31.38M69.31,53.27h.76v-6.3h-.76v6.3ZM67.22,53.27h.78l-1.21-3.28-.69.09,1.12,3.19ZM64.04,53.27h.76v-5.95l-.29.29h1.56c.39,0,.69.09.9.27.21.18.31.44.31.77,0,.35-.11.62-.32.81-.21.19-.51.28-.89.28h-1.54v.62s1.49,0,1.49,0c.4,0,.75-.07,1.05-.21s.53-.34.7-.61c.16-.27.25-.58.25-.93,0-.53-.17-.94-.5-1.23-.33-.29-.81-.43-1.42-.43h-2.06v6.3ZM60.33,52.8c-.34,0-.63-.1-.87-.3-.24-.2-.42-.5-.55-.9-.13-.4-.19-.89-.19-1.46s.07-1.05.19-1.45.32-.7.56-.91c.24-.21.54-.32.88-.32s.63.1.87.31c.24.2.42.5.54.9s.18.88.18,1.45-.06,1.05-.18,1.45c-.12.41-.31.71-.55.92-.24.21-.53.31-.87.31M60.33,53.41c.49,0,.91-.13,1.27-.4.36-.27.64-.65.83-1.15s.29-1.09.29-1.76-.09-1.26-.28-1.75c-.19-.49-.46-.86-.81-1.11-.36-.25-.78-.38-1.27-.38s-.93.13-1.3.4c-.37.26-.65.64-.85,1.14-.2.5-.3,1.08-.3,1.76s.09,1.27.28,1.76c.19.49.46.86.82,1.12.36.25.8.38,1.31.38M54.95,53.41c.4,0,.74-.07,1.04-.21.29-.14.52-.34.69-.6.16-.26.25-.57.25-.91,0-.33-.06-.61-.17-.84-.11-.23-.29-.43-.54-.61-.25-.17-.59-.34-1.01-.49-.38-.12-.67-.24-.87-.37-.2-.12-.35-.26-.43-.41-.09-.15-.13-.33-.13-.54s.05-.38.14-.53.23-.26.4-.33.39-.11.64-.11c.36,0,.64.1.85.29s.34.49.39.91l.66-.11c-.09-.59-.29-1.02-.59-1.29-.31-.27-.74-.4-1.29-.4-.38,0-.72.07-1.01.2-.29.14-.51.33-.67.58-.16.25-.24.55-.24.88,0,.31.05.57.16.79s.28.42.52.59.55.31.95.43c.39.12.69.24.91.37.22.13.38.28.47.44.09.17.14.36.14.6s-.05.42-.14.58c-.1.16-.24.28-.42.36-.19.08-.42.13-.68.13-.4,0-.72-.11-.95-.32-.23-.21-.38-.53-.44-.95l-.66.11c.07.59.28,1.03.62,1.32s.82.44,1.42.44M48.83,50.36h2.6v-.66h-2.6v.66ZM48.43,53.27h3.63v-.65h-3.17l.3.3v-5.6l-.3.3h3.1v-.65h-3.56v6.3ZM45.16,53.41c.53,0,.98-.16,1.33-.48.35-.32.59-.81.72-1.47l-.62-.16c-.11.53-.27.92-.5,1.15-.22.23-.52.35-.89.35-.32,0-.6-.1-.83-.31-.23-.2-.41-.5-.53-.89-.12-.39-.18-.88-.18-1.45s.06-1.05.19-1.45c.13-.4.31-.7.54-.91.23-.21.51-.32.84-.32.35,0,.63.12.86.36.22.24.39.62.49,1.14l.66-.17c-.13-.65-.35-1.13-.68-1.45-.33-.32-.77-.48-1.32-.48-.48,0-.9.13-1.25.4-.35.26-.63.64-.82,1.14-.19.5-.29,1.08-.29,1.77s.09,1.29.27,1.77c.18.49.44.85.79,1.1.35.25.76.37,1.25.37M39.86,53.41c.53,0,.98-.16,1.33-.48.35-.32.59-.81.72-1.47l-.62-.16c-.11.53-.27.92-.49,1.15-.22.23-.52.35-.89.35-.32,0-.6-.1-.83-.31-.23-.2-.41-.5-.53-.89-.12-.39-.18-.88-.18-1.45s.06-1.05.19-1.45c.13-.4.31-.7.54-.91.23-.21.51-.32.84-.32.35,0,.63.12.86.36.23.24.39.62.49,1.14l.66-.17c-.13-.65-.35-1.13-.68-1.45-.33-.32-.77-.48-1.32-.48-.48,0-.9.13-1.25.4-.35.26-.63.64-.82,1.14-.19.5-.29,1.08-.29,1.77s.09,1.29.27,1.77c.18.49.44.85.79,1.1.35.25.76.37,1.25.37M33.22,51.46h2.66v-.62h-2.66v.62ZM32.25,53.27h.68l1.68-5.79-.13.02,1.7,5.77h.76l-1.91-6.3h-.86l-1.91,6.3Z"/>
  <path class="cls-1" d="M89.15,44.27h.69v-4.82l-.05-.8-.13.04,2.68,5.58h.84v-6.3h-.68v4.6l.03.92.13-.16-2.57-5.35h-.93v6.3ZM84.72,41.36h2.6v-.66h-2.6v.66ZM84.31,44.27h3.63v-.65h-3.17l.3.3v-5.6l-.3.3h3.11v-.65h-3.56v6.3ZM78.69,43.8c-.34,0-.63-.1-.87-.3-.24-.2-.43-.5-.55-.9s-.19-.89-.19-1.46.06-1.05.19-1.45c.13-.4.32-.7.56-.91.24-.21.54-.32.88-.32s.63.1.87.31c.24.2.42.5.54.9.12.4.18.88.18,1.45s-.06,1.05-.18,1.45c-.12.4-.31.71-.55.92-.24.21-.53.31-.87.31M78.69,44.41c.49,0,.91-.13,1.27-.4.36-.27.64-.65.83-1.15.19-.5.29-1.09.29-1.76s-.09-1.26-.28-1.75c-.19-.49-.46-.86-.82-1.11-.36-.25-.78-.38-1.27-.38s-.93.13-1.3.4c-.37.26-.65.64-.85,1.14s-.3,1.08-.3,1.76.09,1.27.28,1.76c.19.49.46.86.82,1.12.36.25.8.38,1.31.38M72.97,44.27h.76l1.94-6.3h-.67l-1.75,5.99h.3l-1.76-5.99h-.75l1.94,6.3ZM67.18,41.36h2.6v-.66h-2.6v.66ZM66.78,44.27h3.63v-.65h-3.17l.3.3v-5.6l-.3.3h3.1v-.65h-3.56v6.3ZM63.24,44.42c.42,0,.78-.09,1.07-.27.3-.18.52-.44.68-.78.15-.34.23-.76.23-1.27v-4.13h-.65v4.17c0,.38-.05.69-.15.94-.1.25-.25.43-.44.54-.19.11-.42.17-.7.17s-.52-.06-.71-.18c-.19-.12-.34-.3-.45-.54-.11-.24-.16-.55-.16-.93v-4.18h-.75v4.18c0,.5.08.92.23,1.26.16.33.38.59.68.76.3.17.66.26,1.1.26M55.64,44.27h.69v-4.82l-.04-.8-.14.04,2.68,5.58h.84v-6.3h-.68v4.6l.03.92.13-.16-2.57-5.35h-.93v6.3ZM50.01,43.8c-.34,0-.63-.1-.87-.3-.24-.2-.42-.5-.55-.9s-.19-.89-.19-1.46.07-1.05.19-1.45c.13-.4.32-.7.56-.91.24-.21.54-.32.88-.32s.63.1.87.31c.24.2.42.5.54.9.12.4.18.88.18,1.45s-.06,1.05-.18,1.45c-.12.4-.31.71-.55.92-.24.21-.53.31-.87.31M50.01,44.41c.49,0,.91-.13,1.27-.4.36-.27.64-.65.83-1.15s.29-1.09.29-1.76-.09-1.26-.28-1.75c-.19-.49-.46-.86-.81-1.11-.36-.25-.78-.38-1.27-.38s-.93.13-1.3.4c-.37.26-.65.64-.85,1.14s-.3,1.08-.3,1.76.09,1.27.28,1.76.46.86.82,1.12c.36.25.8.38,1.31.38M43.7,44.27h3.44v-.66h-2.98l.3.31v-5.95h-.76v6.3ZM37.29,42.46h2.66v-.62h-2.66v.62ZM36.31,44.27h.68l1.68-5.79-.13.02,1.7,5.77h.76l-1.91-6.3h-.86l-1.91,6.3ZM33.63,44.41c.53,0,.98-.16,1.33-.48.35-.32.59-.81.72-1.47l-.62-.16c-.11.53-.27.92-.49,1.15-.22.23-.52.35-.89.35-.32,0-.6-.1-.83-.31s-.41-.5-.53-.9c-.12-.39-.18-.88-.18-1.45s.06-1.05.19-1.45c.13-.4.31-.7.54-.91.23-.21.51-.32.84-.32.35,0,.63.12.86.36.22.24.39.62.49,1.14l.66-.17c-.13-.65-.35-1.13-.68-1.45-.33-.32-.77-.48-1.32-.48-.48,0-.9.13-1.25.4-.36.26-.63.64-.82,1.14-.19.49-.29,1.08-.29,1.77s.09,1.29.27,1.77c.18.49.44.85.79,1.1.35.25.76.37,1.25.37M27.31,41.36h2.6v-.66h-2.6v.66ZM26.9,44.27h3.63v-.65h-3.17l.3.3v-5.6l-.3.3h3.1v-.65h-3.56v6.3ZM21.62,41.36h3.27v-.66h-3.27v.66ZM21.21,44.27h.76v-6.3h-.76v6.3ZM24.55,44.27h.75v-6.3h-.75v6.3ZM17.95,44.41c.53,0,.98-.16,1.33-.48.35-.32.59-.81.72-1.47l-.62-.16c-.11.53-.27.92-.49,1.15-.22.23-.52.35-.89.35-.32,0-.6-.1-.83-.31-.23-.2-.41-.5-.53-.9-.12-.39-.18-.88-.18-1.45s.06-1.05.19-1.45c.13-.4.31-.7.54-.91.23-.21.51-.32.84-.32.35,0,.63.12.86.36.23.24.39.62.49,1.14l.66-.17c-.13-.65-.35-1.13-.68-1.45-.33-.32-.77-.48-1.32-.48-.48,0-.9.13-1.25.4-.35.26-.63.64-.82,1.14-.19.49-.29,1.08-.29,1.77s.09,1.29.27,1.77c.18.49.44.85.79,1.1.35.25.76.37,1.25.37"/>
</svg>