<?xml version="1.0" encoding="UTF-8"?>
<svg id="base" xmlns="http://www.w3.org/2000/svg" viewBox="0 0 133.14 64.02">
  <defs>
    <style>
      .cls-1 {
        fill: #fff;
      }
    </style>
  </defs>
  <path class="cls-1" d="M125.46,55.82h.76v-1.09h-.76v1.09ZM123.06,49.06h.59l1.21-1.23h-.9l-.9,1.23ZM123.35,55.82h.76v-6.3h-.76v6.3ZM120.11,55.95c.4,0,.74-.07,1.04-.21.29-.14.52-.34.69-.6s.25-.57.25-.91c0-.33-.06-.61-.17-.84-.11-.23-.3-.43-.55-.61s-.59-.34-1.01-.49c-.38-.12-.67-.24-.87-.36-.2-.12-.35-.26-.43-.41-.09-.15-.13-.33-.13-.54s.05-.38.14-.53c.09-.15.23-.26.4-.33.17-.07.39-.11.64-.11.36,0,.64.1.85.29s.34.49.39.91l.66-.11c-.09-.59-.29-1.02-.59-1.29-.31-.27-.74-.4-1.29-.4-.38,0-.72.07-1.01.2-.29.14-.51.33-.67.58-.16.25-.23.55-.23.88,0,.31.05.57.16.79s.28.42.52.59.55.31.95.43c.39.12.69.24.91.37.22.13.38.28.47.44s.14.36.14.6-.05.42-.14.58c-.1.16-.24.28-.42.36-.19.08-.41.13-.68.13-.4,0-.72-.11-.95-.32-.23-.21-.38-.53-.44-.95l-.66.11c.07.59.28,1.03.62,1.32.35.29.82.44,1.42.44M112.09,52.9h2.6v-.66h-2.6v.66ZM111.69,55.82h3.63v-.65h-3.17l.3.3v-5.6l-.3.3h3.11v-.65h-3.56v6.3ZM109.6,55.82h.78l-1.22-3.28-.69.09,1.12,3.19ZM106.42,55.82h.76v-5.95l-.29.29h1.56c.39,0,.69.09.9.27.21.18.31.44.31.77,0,.35-.11.63-.32.82-.21.19-.51.28-.89.28h-1.54v.62s1.49,0,1.49,0c.4,0,.75-.07,1.05-.21s.53-.34.7-.61c.16-.27.25-.58.25-.93,0-.53-.17-.94-.5-1.23s-.81-.43-1.42-.43h-2.06v6.3ZM102.97,55.82h.75v-5.93l-.28.28h1.92v-.65h-4.04v.65h1.93l-.27-.28v5.93ZM96.21,55.82h.69v-4.82l-.04-.8-.14.04,2.68,5.58h.84v-6.3h-.68v4.6l.03.92.13-.16-2.57-5.35h-.93v6.3ZM91.77,52.9h2.6v-.66h-2.6v.66ZM91.37,55.82h3.63v-.65h-3.17l.3.3v-5.6l-.3.3h3.1v-.65h-3.56v6.3ZM83.83,55.82h.69v-4.82l-.04-.8-.13.04,2.68,5.58h.84v-6.3h-.68v4.6l.03.92.13-.16-2.57-5.35h-.93v6.3ZM79.39,52.9h2.6v-.66h-2.6v.66ZM78.98,55.82h3.63v-.65h-3.17l.3.3v-5.6l-.3.3h3.1v-.65h-3.56v6.3ZM75.72,55.95c.53,0,.98-.16,1.33-.48.35-.32.59-.81.72-1.47l-.62-.16c-.11.53-.27.92-.49,1.15-.22.23-.52.35-.89.35-.32,0-.6-.1-.83-.31s-.41-.5-.53-.9c-.12-.39-.18-.88-.18-1.45s.06-1.05.19-1.45c.13-.4.31-.7.54-.91.23-.21.51-.32.84-.32.35,0,.63.12.86.36.22.24.39.62.49,1.14l.66-.17c-.13-.65-.35-1.13-.68-1.45-.33-.32-.77-.48-1.32-.48-.48,0-.9.13-1.25.4-.35.26-.63.64-.82,1.14-.19.5-.29,1.09-.29,1.77s.09,1.29.27,1.77c.18.49.44.85.79,1.1.35.25.76.37,1.25.37M71.32,55.82h.76v-6.3h-.76v6.3ZM65.69,55.82h.69v-4.82l-.04-.8-.14.04,2.68,5.58h.84v-6.3h-.68v4.6l.03.92.13-.16-2.57-5.35h-.93v6.3ZM61.97,55.34c-.34,0-.63-.1-.87-.3-.24-.2-.42-.5-.55-.9s-.19-.89-.19-1.46.07-1.05.19-1.45c.13-.4.32-.7.56-.91.24-.21.54-.32.88-.32s.63.1.87.31c.24.2.42.5.54.9.12.4.18.88.18,1.45s-.06,1.05-.18,1.45c-.12.4-.31.71-.55.92-.24.21-.53.31-.87.31M61.97,55.95c.49,0,.91-.13,1.27-.4.36-.27.64-.65.83-1.15s.29-1.09.29-1.76-.09-1.26-.28-1.75c-.19-.49-.46-.86-.81-1.11-.36-.25-.78-.38-1.27-.38s-.93.13-1.3.4c-.37.26-.65.64-.85,1.14-.2.5-.3,1.08-.3,1.76s.09,1.27.28,1.76c.19.49.46.86.82,1.12.36.25.8.38,1.31.38M52.91,55.82h.68v-4.89l-.04-1.01h-.07s1.7,5.9,1.7,5.9h.75l1.71-5.89h-.07l-.04,1.01v4.88h.71v-6.3h-1.08l-1.66,5.68h.19l-1.68-5.68h-1.1v6.3ZM50.82,55.82h.78l-1.21-3.28-.69.09,1.12,3.19ZM47.65,55.82h.76v-5.95l-.29.29h1.56c.39,0,.69.09.9.27.21.18.31.44.31.77,0,.35-.11.63-.32.82-.21.19-.51.28-.89.28h-1.54v.62s1.49,0,1.49,0c.4,0,.75-.07,1.05-.21.3-.14.53-.34.7-.61.17-.27.25-.58.25-.93,0-.53-.17-.94-.5-1.23s-.81-.43-1.42-.43h-2.06v6.3ZM42.94,54h2.66v-.62h-2.66v.62ZM41.97,55.82h.68l1.68-5.79-.14.02,1.7,5.77h.76l-1.91-6.3h-.86l-1.91,6.3ZM36.41,52.9h2.6v-.66h-2.6v.66ZM36,55.82h3.63v-.65h-3.17l.3.3v-5.6l-.3.3h3.11v-.65h-3.56v6.3ZM32.46,55.96c.42,0,.78-.09,1.08-.26.3-.18.52-.44.67-.78.15-.34.23-.76.23-1.27v-4.13h-.65v4.17c0,.38-.05.69-.15.94-.1.25-.25.43-.44.54-.19.11-.42.17-.7.17s-.52-.06-.71-.18c-.19-.12-.34-.3-.45-.54-.1-.24-.16-.55-.16-.93v-4.18h-.75v4.18c0,.5.08.92.23,1.26.16.33.38.58.68.76.3.17.67.26,1.1.26M26.77,55.34c-.34,0-.63-.1-.87-.3-.24-.2-.42-.5-.55-.9-.13-.4-.19-.89-.19-1.46s.06-1.05.19-1.45c.13-.4.31-.7.56-.91.24-.21.54-.32.88-.32s.63.1.87.31c.24.2.42.5.54.9.12.4.18.88.18,1.45s-.06,1.05-.18,1.45c-.12.4-.31.71-.55.92-.24.21-.53.31-.87.31M26.77,55.95c.49,0,.91-.13,1.27-.4.36-.27.64-.65.83-1.15s.29-1.09.29-1.76-.09-1.26-.28-1.75c-.19-.49-.46-.86-.82-1.11-.36-.25-.78-.38-1.27-.38s-.93.13-1.3.4c-.37.26-.65.65-.85,1.14s-.3,1.08-.3,1.76.09,1.27.28,1.76c.19.49.46.86.82,1.12.36.25.8.38,1.31.38M29.15,56.87v-.64c-.3,0-.54-.07-.72-.2-.18-.13-.31-.36-.39-.69l-.62.13c.08.45.27.79.57,1.04.29.24.68.36,1.16.36"/>
  <path class="cls-1" d="M124.14,46.95c.4,0,.74-.07,1.04-.21.29-.14.52-.34.69-.6.17-.26.25-.57.25-.91,0-.33-.06-.61-.17-.84-.11-.23-.3-.43-.54-.61s-.59-.34-1.01-.49c-.38-.12-.67-.24-.87-.36-.2-.12-.35-.26-.43-.41-.09-.15-.13-.33-.13-.54s.05-.38.14-.53c.09-.15.23-.26.4-.33.17-.07.39-.11.64-.11.36,0,.64.1.85.29s.34.49.39.91l.66-.11c-.09-.59-.29-1.02-.59-1.29-.31-.27-.74-.4-1.29-.4-.38,0-.72.07-1.01.2s-.51.33-.67.58c-.16.25-.23.55-.23.88,0,.31.05.57.16.79s.28.42.52.59.55.31.95.43c.39.12.69.25.91.37s.38.28.47.44c.09.16.14.36.14.6s-.05.42-.14.58c-.1.16-.24.28-.42.36-.19.08-.41.13-.68.13-.4,0-.72-.11-.95-.32-.23-.21-.38-.53-.44-.95l-.66.11c.07.59.28,1.03.62,1.32.35.29.82.44,1.42.44M118.75,46.34c-.34,0-.63-.1-.87-.3-.24-.2-.42-.5-.55-.9s-.19-.89-.19-1.46.06-1.05.19-1.45c.13-.4.32-.7.56-.91.24-.21.54-.32.88-.32s.63.1.87.31c.24.2.42.5.54.9.12.4.18.88.18,1.45s-.06,1.05-.18,1.45c-.12.4-.31.71-.55.92-.24.21-.53.31-.87.31M118.75,46.95c.49,0,.91-.13,1.27-.4.36-.27.64-.65.83-1.15.19-.5.29-1.09.29-1.76s-.09-1.26-.28-1.75c-.19-.49-.46-.86-.82-1.11-.36-.25-.78-.38-1.27-.38s-.93.13-1.3.4c-.37.26-.65.64-.85,1.14-.2.5-.3,1.08-.3,1.76s.09,1.27.28,1.76c.19.49.46.86.82,1.12.36.25.8.38,1.31.38M110.98,46.82h.69v-4.82l-.04-.8-.13.04,2.68,5.58h.84v-6.3h-.68v4.6l.03.92.13-.16-2.57-5.35h-.93v6.3ZM107.26,46.34c-.34,0-.63-.1-.87-.3-.24-.2-.43-.5-.55-.9s-.19-.89-.19-1.46.06-1.05.19-1.45c.13-.4.32-.7.56-.91.24-.21.54-.32.88-.32s.63.1.87.31c.24.2.42.5.54.9.12.4.18.88.18,1.45s-.06,1.05-.18,1.45c-.12.4-.31.71-.55.92-.24.21-.53.31-.87.31M107.26,46.95c.49,0,.91-.13,1.27-.4.36-.27.64-.65.83-1.15s.29-1.09.29-1.76-.09-1.26-.28-1.75c-.19-.49-.46-.86-.82-1.11-.36-.25-.78-.38-1.27-.38s-.93.13-1.3.4c-.37.26-.65.64-.85,1.14-.2.5-.3,1.08-.3,1.76s.09,1.27.28,1.76.46.86.82,1.12c.36.25.8.38,1.31.38M101.95,46.82h.75v-5.93l-.28.28h1.92v-.65h-4.04v.65h1.93l-.27-.28v5.93ZM95.86,46.82h.75v-3.12h-.75v3.12ZM95.93,44.16h.61l1.88-3.65h-.67l-1.62,3.16h.3s-1.58-3.16-1.58-3.16h-.8l1.88,3.65ZM89.76,46.95c.4,0,.74-.07,1.04-.21.29-.14.52-.34.69-.6.17-.26.25-.57.25-.91,0-.33-.06-.61-.17-.84-.11-.23-.3-.43-.54-.61-.25-.17-.59-.34-1.01-.49-.38-.12-.67-.24-.87-.36-.2-.12-.35-.26-.43-.41-.09-.15-.13-.33-.13-.54s.05-.38.14-.53c.09-.15.23-.26.4-.33.17-.07.39-.11.64-.11.36,0,.64.1.85.29s.34.49.39.91l.66-.11c-.09-.59-.29-1.02-.59-1.29-.31-.27-.74-.4-1.29-.4-.38,0-.72.07-1.01.2s-.51.33-.67.58c-.16.25-.23.55-.23.88,0,.31.05.57.16.79s.28.42.52.59.55.31.95.43c.39.12.69.25.91.37.22.13.37.28.47.44.09.16.14.36.14.6s-.05.42-.14.58c-.1.16-.24.28-.42.36-.19.08-.41.13-.68.13-.4,0-.72-.11-.95-.32-.23-.21-.38-.53-.44-.95l-.66.11c.07.59.28,1.03.63,1.32.35.29.82.44,1.42.44M83.64,43.9h2.6v-.66h-2.6v.66ZM83.24,46.82h3.63v-.65h-3.17l.3.3v-5.6l-.3.3h3.1v-.65h-3.56v6.3ZM78.75,46.82h3.44v-.66h-2.98l.3.31v-5.95h-.76v6.3ZM74.04,45h2.66v-.62h-2.66v.62ZM73.07,46.82h.67l1.68-5.79-.13.02,1.7,5.77h.76l-1.91-6.3h-.86l-1.91,6.3ZM71.3,46.82h.76v-6.3h-.76v6.3ZM69.21,46.82h.78l-1.22-3.28-.69.09,1.12,3.19ZM66.03,46.82h.76v-5.95l-.29.29h1.56c.39,0,.69.09.9.27.21.18.31.44.31.77,0,.35-.11.63-.32.81-.21.19-.51.28-.89.28h-1.54v.62s1.49,0,1.49,0c.4,0,.75-.07,1.05-.21s.53-.34.7-.61c.16-.27.25-.58.25-.93,0-.53-.17-.94-.5-1.23-.33-.28-.8-.43-1.42-.43h-2.06v6.3ZM61.6,43.9h2.6v-.66h-2.6v.66ZM61.19,46.82h3.63v-.65h-3.17l.3.3v-5.6l-.3.3h3.1v-.65h-3.56v6.3ZM57.73,46.82h.75v-5.93l-.28.28h1.92v-.65h-4.04v.65h1.93l-.27-.28v5.93ZM52.47,45h2.66v-.62h-2.66v.62ZM51.5,46.82h.68l1.68-5.79-.13.02,1.7,5.77h.76l-1.91-6.3h-.86l-1.91,6.3ZM45.16,46.82h.68v-4.89l-.04-1.01h-.07s1.7,5.9,1.7,5.9h.75l1.71-5.89h-.07l-.04,1.01v4.88h.71v-6.3h-1.08l-1.66,5.68h.19l-1.68-5.68h-1.1v6.3ZM38.74,45h2.66v-.62h-2.66v.62ZM37.77,46.82h.67l1.68-5.79-.14.02,1.7,5.77h.76l-1.91-6.3h-.86l-1.91,6.3ZM32.72,46.82h.69v-4.82l-.04-.8-.14.04,2.68,5.58h.84v-6.3h-.68v4.6l.03.92.13-.16-2.57-5.35h-.93v6.3ZM30.37,46.82h.76v-6.3h-.76v6.3ZM25.02,46.82h.76v-5.95l-.29.26h1.41c.41,0,.71.09.92.26s.31.43.31.76c0,.23-.05.43-.14.6s-.23.3-.41.39c-.18.09-.39.14-.64.14h-1.38l-.02.59h1.54c.4,0,.71.1.94.31.22.21.33.5.33.87s-.11.65-.34.85c-.22.2-.54.3-.96.3h-1.69v.61h1.72c.41,0,.76-.07,1.07-.22.3-.14.54-.35.7-.61.16-.26.24-.58.24-.95,0-.31-.06-.58-.18-.81-.12-.24-.29-.43-.52-.58-.23-.15-.51-.24-.84-.28l-.11.25c.3-.05.56-.14.76-.28s.37-.31.48-.53c.11-.21.16-.46.16-.73,0-.34-.07-.63-.22-.86-.15-.23-.36-.41-.65-.53-.28-.12-.64-.18-1.06-.18h-1.9v6.3ZM18.1,46.82h.68v-4.89l-.04-1.01h-.07s1.7,5.9,1.7,5.9h.75l1.71-5.89h-.07l-.04,1.01v4.88h.71v-6.3h-1.08l-1.66,5.68h.19l-1.68-5.68h-1.1v6.3ZM14.38,46.34c-.34,0-.63-.1-.87-.3-.24-.2-.43-.5-.55-.9-.13-.4-.19-.89-.19-1.46s.06-1.05.19-1.45c.13-.4.31-.7.56-.91.24-.21.54-.32.88-.32s.63.1.87.31c.24.2.42.5.54.9.12.4.19.88.19,1.45s-.06,1.05-.19,1.45c-.12.4-.31.71-.55.92-.24.21-.53.31-.87.31M14.38,46.95c.49,0,.91-.13,1.27-.4.36-.27.64-.65.83-1.15s.29-1.09.29-1.76-.09-1.26-.28-1.75c-.19-.49-.46-.86-.82-1.11-.36-.25-.78-.38-1.27-.38s-.93.13-1.3.4c-.37.26-.65.64-.85,1.14-.2.5-.3,1.08-.3,1.76s.09,1.27.28,1.76c.19.49.46.86.82,1.12.36.25.8.38,1.31.38M8.97,46.95c.53,0,.98-.16,1.33-.48.35-.32.59-.81.72-1.47l-.62-.16c-.11.53-.27.92-.49,1.15-.22.23-.52.35-.89.35-.32,0-.6-.1-.83-.31-.23-.2-.41-.5-.53-.9-.12-.39-.18-.88-.18-1.45s.06-1.05.19-1.45.31-.7.54-.91c.23-.21.51-.32.84-.32.35,0,.63.12.86.36s.39.62.49,1.14l.66-.17c-.13-.65-.35-1.13-.68-1.45-.33-.32-.77-.48-1.32-.48-.48,0-.9.13-1.25.4-.35.26-.63.64-.82,1.14-.19.5-.29,1.09-.29,1.77s.09,1.29.27,1.77c.18.49.44.85.79,1.1.35.25.76.37,1.25.37"/>
  <path class="cls-1" d="M120.69,33.85c-.73,0-1.37-.18-1.91-.52-.54-.35-.96-.86-1.25-1.51-.28-.66-.43-1.45-.43-2.37s.14-1.66.43-2.32c.29-.66.7-1.17,1.25-1.52.55-.35,1.18-.53,1.9-.53s1.37.17,1.9.52.96.85,1.25,1.51c.3.66.44,1.44.44,2.34s-.15,1.68-.44,2.35c-.29.67-.71,1.18-1.25,1.53-.54.36-1.18.53-1.9.53M120.64,34.96c1.02,0,1.91-.23,2.68-.7.76-.46,1.36-1.12,1.79-1.97.42-.85.64-1.82.64-2.9s-.21-2.06-.62-2.88c-.41-.82-.99-1.45-1.75-1.9-.76-.45-1.65-.67-2.68-.67s-1.87.23-2.64.7c-.77.46-1.37,1.12-1.79,1.95-.43.84-.64,1.8-.64,2.89s.2,2.08.61,2.9c.4.82.99,1.46,1.75,1.9.76.45,1.64.68,2.65.68M108.13,34.69h7.17v-1.18h-6.32l.57.59v-9.9h-1.43v10.5ZM104.4,34.69h1.43v-10.5h-1.43v10.5ZM98.26,34.69h1.38v-9.88l-.57.57h4.07v-1.18h-8.4v1.18h4.08l-.55-.57v9.88ZM90.19,34.95c.77,0,1.45-.13,2.04-.38.59-.25,1.05-.6,1.37-1.05.32-.44.48-.96.48-1.55.01-.62-.1-1.13-.33-1.54-.23-.4-.61-.74-1.12-1.01-.52-.26-1.23-.49-2.12-.67-.78-.16-1.37-.32-1.78-.49s-.69-.37-.86-.61-.26-.54-.26-.91.1-.66.3-.91.48-.44.85-.58c.37-.14.81-.2,1.33-.2.73,0,1.32.15,1.76.46.44.31.77.78.97,1.41l1.14-.38c-.28-.89-.74-1.55-1.37-1.97-.63-.42-1.46-.63-2.48-.63-.76,0-1.43.12-2,.38-.58.25-1.02.59-1.34,1.03-.32.43-.47.95-.47,1.55,0,.56.12,1.03.35,1.41.23.38.59.7,1.09.95.49.25,1.17.46,2.02.63.77.12,1.37.28,1.8.47.43.19.74.43.94.71.2.28.29.6.29.97,0,.4-.1.73-.29.99-.19.26-.49.46-.87.61-.38.14-.85.22-1.4.22-.84,0-1.51-.17-2.01-.5-.5-.33-.86-.84-1.08-1.51l-1.14.35c.26.94.74,1.63,1.44,2.08.7.45,1.62.68,2.78.68M78.49,29.85h5.25v-1.17h-5.25v1.17ZM77.74,34.69h7.46v-1.15h-6.6l.57.56v-9.3l-.57.55h6.44v-1.15h-7.29v10.5ZM63.88,34.69h1.32v-8.29l-.04-1.29-.29.1,5.73,9.48h1.57v-10.5h-1.29v7.97l.04,1.2.29-.11-5.49-9.06h-1.85v10.5ZM57.54,34.96c.85,0,1.58-.17,2.2-.5.62-.33,1.09-.83,1.42-1.5.33-.66.49-1.47.49-2.42v-6.35h-1.21v6.35c0,.77-.11,1.4-.34,1.88s-.54.83-.95,1.06c-.41.22-.91.34-1.5.34s-1.11-.12-1.52-.35c-.42-.23-.73-.59-.95-1.08s-.33-1.11-.33-1.86v-6.33h-1.41v6.39c0,.97.16,1.78.49,2.44.32.66.79,1.14,1.4,1.46.61.32,1.35.48,2.22.48"/>
  <path class="cls-1" d="M124.23,18.69h1.5l-2.51-5.55-1.3.27,2.31,5.28ZM117.63,18.69h1.41v-9.91l-.58.6h3.9c.61,0,1.1.15,1.47.45.37.3.55.71.55,1.23,0,.55-.18.97-.55,1.26-.36.29-.86.43-1.48.43h-3.81v1.18h3.64c.7,0,1.32-.11,1.86-.35.54-.23.96-.57,1.25-1.01.3-.44.44-.97.44-1.57,0-.9-.3-1.6-.91-2.09-.6-.49-1.43-.74-2.47-.74h-4.74v10.5ZM108.85,15.74h5.54l-.04-1.11h-5.49v1.11ZM106.93,18.69h1.23l3.6-9.63-.36-.03,3.61,9.66h1.43l-4.01-10.5h-1.5l-4.01,10.5ZM102.28,18.93c1.08,0,1.99-.25,2.72-.76.73-.5,1.27-1.25,1.6-2.24l-1.12-.39c-.25.77-.63,1.35-1.14,1.72-.51.38-1.16.57-1.95.57-.72,0-1.35-.17-1.88-.52s-.94-.85-1.21-1.5c-.28-.65-.41-1.44-.41-2.35s.14-1.68.44-2.34c.29-.66.7-1.17,1.22-1.54.52-.36,1.15-.55,1.87-.55s1.38.2,1.9.59.9.97,1.16,1.74l1.18-.42c-.31-.96-.83-1.7-1.55-2.22-.72-.52-1.62-.78-2.7-.78-.97,0-1.83.24-2.59.71s-1.35,1.12-1.77,1.96c-.43.83-.64,1.8-.64,2.9s.2,2.1.6,2.91c.4.81.97,1.43,1.7,1.86.74.43,1.59.65,2.57.65M94.78,18.69h1.5l-2.51-5.55-1.3.27,2.31,5.28ZM88.18,18.69h1.41v-9.91l-.58.6h3.9c.61,0,1.1.15,1.47.45.37.3.55.71.55,1.23,0,.55-.18.97-.55,1.26-.36.29-.86.43-1.48.43h-3.81v1.18h3.65c.7,0,1.32-.11,1.86-.35.54-.23.96-.57,1.25-1.01.3-.44.44-.97.44-1.57,0-.9-.3-1.6-.91-2.09-.6-.49-1.43-.74-2.47-.74h-4.74v10.5ZM79.41,15.74h5.53l-.04-1.11h-5.49v1.11ZM77.49,18.69h1.23l3.6-9.63-.36-.03,3.62,9.66h1.43l-4.01-10.5h-1.5l-4.01,10.5ZM65.5,18.69h1.27v-7.8l-.09-1.66-.15.04,3.58,9.42h1.46l3.56-9.42h-.14s-.06,1.62-.06,1.62v7.8h1.37v-10.5h-1.98l-3.6,9.69h.4s-3.68-9.69-3.68-9.69h-1.95v10.5ZM53.59,15.74h5.54l-.04-1.11h-5.49v1.11ZM51.67,18.69h1.23l3.6-9.63-.36-.03,3.62,9.66h1.42l-4-10.5h-1.5l-4.01,10.5ZM49.26,18.69h1.5l-2.51-5.55-1.3.27,2.31,5.28ZM42.66,18.69h1.41v-9.91l-.58.6h3.9c.61,0,1.1.15,1.47.45.37.3.55.71.55,1.23,0,.55-.18.97-.55,1.26-.37.29-.86.43-1.48.43h-3.81v1.18h3.65c.7,0,1.32-.11,1.86-.35.54-.23.96-.57,1.25-1.01.29-.44.44-.97.44-1.57,0-.9-.3-1.6-.91-2.09-.6-.49-1.43-.74-2.47-.74h-4.74v10.5ZM33.89,15.74h5.54l-.05-1.11h-5.49v1.11ZM31.97,18.69h1.23l3.6-9.63-.36-.03,3.61,9.66h1.43l-4.01-10.5h-1.5l-4,10.5ZM24.41,18.69h1.41v-9.9l-.57.55h3.95c.43,0,.8.07,1.1.21s.54.34.71.6c.17.26.25.56.25.9,0,.52-.19.93-.56,1.24s-.88.46-1.52.46h-3.78v1.15h3.72c.7,0,1.31-.12,1.84-.37.52-.25.93-.59,1.21-1.04.29-.44.43-.96.43-1.54s-.14-1.11-.41-1.52c-.27-.42-.66-.73-1.16-.95-.51-.21-1.12-.32-1.85-.32h-4.75v10.5Z"/>
</svg>