<svg width="251" height="121" viewBox="0 0 251 121" fill="none" xmlns="http://www.w3.org/2000/svg">
<path d="M247.741 59.2658C248.446 59.5644 249.005 60.1296 249.296 60.8384C249.586 61.5471 249.585 62.342 249.292 63.0498C244.443 74.7736 235.136 84.091 223.417 88.9523C211.698 93.8135 198.528 93.8204 186.805 88.9714C186.093 88.6771 185.527 88.1121 185.232 87.4008C184.937 86.6894 184.937 85.89 185.231 85.1783C190.08 73.4545 199.388 64.1371 211.106 59.2759C222.825 54.4146 235.995 54.4077 247.719 59.2567L247.741 59.2658Z" fill="white"/>
<path d="M220.337 1.52496C221.312 1.12074 222.407 1.12017 223.382 1.52337C224.356 1.92658 225.131 2.70054 225.535 3.67499C228.82 11.5974 230.511 20.0892 230.514 28.6654C230.516 37.2416 228.829 45.7343 225.549 53.6586C222.27 61.5829 217.461 68.7836 211.399 74.8496C205.336 80.9156 198.138 85.728 190.216 89.0122C189.241 89.4164 188.146 89.417 187.171 89.0138C186.196 88.6106 185.422 87.8366 185.017 86.8622C181.733 78.9397 180.042 70.448 180.039 61.8718C180.037 53.2956 181.724 44.8029 185.003 36.8786C188.283 28.9543 193.091 21.7536 199.154 15.6876C205.217 9.62163 212.415 4.80915 220.337 1.52496Z" fill="white"/>
<path d="M234.153 103.922C234.379 104.466 234.379 105.077 234.154 105.621C233.929 106.165 233.497 106.597 232.954 106.823C223.989 110.541 213.913 110.547 204.945 106.837C195.976 103.128 188.848 96.0073 185.129 87.0424C184.904 86.4987 184.903 85.8876 185.128 85.3436C185.353 84.7996 185.785 84.3673 186.329 84.1417C195.294 80.4229 205.369 80.4176 214.338 84.1271C223.306 87.8366 230.434 94.957 234.153 103.922Z" fill="white"/>
<g style="mix-blend-mode:multiply" opacity="0.5">
<g style="mix-blend-mode:multiply">
<path d="M247.741 59.2651C248.446 59.5637 249.005 60.1289 249.296 60.8376C249.586 61.5464 249.585 62.3412 249.292 63.0491C244.443 74.7729 235.136 84.0903 223.417 88.9515C211.698 93.8128 198.528 93.8197 186.805 88.9707C186.093 88.6764 185.527 88.1114 185.232 87.4C184.937 86.6887 184.937 85.8892 185.231 85.1776C190.08 73.4538 199.388 64.1364 211.106 59.2751C222.825 54.4139 235.995 54.407 247.719 59.256L247.741 59.2651Z" fill="#C7B8D6"/>
</g>
<g style="mix-blend-mode:multiply">
<path d="M220.337 1.52423C221.312 1.12 222.407 1.11943 223.382 1.52264C224.357 1.92585 225.131 2.6998 225.536 3.67425C228.82 11.5967 230.511 20.0885 230.514 28.6647C230.516 37.2409 228.829 45.7336 225.55 53.6579C222.27 61.5821 217.461 68.7829 211.399 74.8488C205.336 80.9148 198.138 85.7273 190.216 89.0115C189.241 89.4157 188.146 89.4163 187.171 89.0131C186.197 88.6099 185.422 87.8359 185.018 86.8615C181.733 78.939 180.042 70.4473 180.039 61.8711C180.037 53.2949 181.724 44.8022 185.004 36.8779C188.283 28.9536 193.092 21.7529 199.154 15.6869C205.217 9.62089 212.415 4.80842 220.337 1.52423Z" fill="#CD8F96"/>
</g>
<g style="mix-blend-mode:multiply">
<path d="M234.153 103.921C234.379 104.465 234.379 105.076 234.154 105.62C233.929 106.164 233.497 106.596 232.953 106.822C223.988 110.541 213.913 110.546 204.944 106.836C195.976 103.127 188.848 96.0064 185.129 87.0414C184.903 86.4977 184.903 85.8866 185.128 85.3426C185.353 84.7986 185.785 84.3663 186.329 84.1408C195.293 80.4219 205.369 80.4166 214.337 84.1261C223.306 87.8356 230.434 94.956 234.153 103.921Z" fill="#925088"/>
</g>
</g>
<path d="M44.9025 103.438V101.356C40.1962 107.177 32.6582 110.048 23.1271 110.048C8.87986 110.048 0 101.237 0 89.6047C0 77.607 9.02786 69.9408 24.8636 69.8125H44.7742V67.8392C44.7742 59.5513 39.4562 54.5983 29.0667 54.5983C24.0094 54.6791 19.0441 55.9644 14.5827 58.3476C13.202 59.0565 11.6028 59.2112 10.1118 58.7803C8.62084 58.3493 7.35077 57.3652 6.56123 56.029L3.83807 51.3819C12.9843 45.9454 19.6245 43.094 32.155 43.094C49.1056 43.094 58.6268 51.7568 58.7945 66.231L58.9129 109.397H50.8619C50.0778 109.402 49.3005 109.252 48.5751 108.954C47.8497 108.656 47.1907 108.218 46.6363 107.663C46.0818 107.109 45.6431 106.45 45.3454 105.724C45.0478 104.999 44.8972 104.222 44.9025 103.438ZM44.7742 86.2698V80.2019H26.9652C17.6907 80.2019 13.3593 82.6784 13.3593 88.993C13.3593 94.9129 18.184 98.7608 26.0969 98.7608C36.2397 98.7608 44.0342 93.4428 44.7742 86.2698Z" fill="#925088"/>
<path d="M134.451 23.7048V109.395H126.291C124.677 109.395 123.129 108.754 121.987 107.612C120.845 106.471 120.204 104.922 120.204 103.308V98.1378C115.507 105.814 107.585 109.978 97.0767 109.978C78.1528 109.978 65.5039 96.2434 65.5039 76.2045C65.5532 56.4518 78.2909 42.9544 96.8498 42.9544C107.486 42.9544 115.399 47.2858 120.224 54.9521V17.6172H128.363C129.163 17.6172 129.954 17.7746 130.693 18.0806C131.432 18.3865 132.103 18.8349 132.668 19.4002C133.233 19.9655 133.682 20.6366 133.988 21.3752C134.294 22.1138 134.451 22.9054 134.451 23.7048ZM120.224 76.7373C120.224 63.9997 111.936 55.1001 100.066 55.1001C88.1969 55.1001 79.9189 64.1279 79.7808 76.7373C79.8991 89.2382 88.0686 98.1378 100.066 98.1378C112.064 98.1378 120.224 89.2382 120.224 76.7373Z" fill="#925088"/>
<path d="M161.189 24.7909C161.189 26.9889 160.316 29.097 158.762 30.6513C157.207 32.2056 155.099 33.0787 152.901 33.0787C150.703 33.0787 148.595 32.2056 147.041 30.6513C145.486 29.097 144.613 26.9889 144.613 24.7909C144.613 19.7195 148.195 16.1379 152.901 16.1379C157.607 16.1379 161.189 19.7195 161.189 24.7909ZM159.946 43.5964V103.309C159.946 104.923 159.304 106.472 158.163 107.613C157.021 108.755 155.473 109.396 153.858 109.396H145.847V49.6841C145.849 48.0686 146.493 46.5202 147.636 45.3789C148.779 44.2375 150.329 43.5964 151.944 43.5964H159.946Z" fill="#925088"/>
</svg>
