<svg width="28" height="28" viewBox="0 0 28 28" fill="none" xmlns="http://www.w3.org/2000/svg">
<path d="M17.4997 16.3333C17.4997 18.2663 15.9327 19.8333 13.9997 19.8333C13.0332 19.8333 12.1582 19.4416 11.5248 18.8082C10.8914 18.1748 10.4997 17.2998 10.4997 16.3333C10.4997 14.4003 12.0667 12.8333 13.9997 12.8333C15.9327 12.8333 17.4997 14.4003 17.4997 16.3333Z" fill="white"/>
<path d="M11.6663 24.5H19.833C21.1217 24.5 22.1663 23.4553 22.1663 22.1667V10.9832C22.1663 10.6738 22.0434 10.3771 21.8246 10.1583L15.5081 3.84171C15.2893 3.62292 14.9925 3.5 14.6831 3.5H8.16634C6.87768 3.5 5.83301 4.54467 5.83301 5.83333V18.6667M5.83301 24.5L11.5248 18.8082M11.5248 18.8082C12.1582 19.4416 13.0332 19.8333 13.9997 19.8333C15.9327 19.8333 17.4997 18.2663 17.4997 16.3333C17.4997 14.4003 15.9327 12.8333 13.9997 12.8333C12.0667 12.8333 10.4997 14.4003 10.4997 16.3333C10.4997 17.2998 10.8914 18.1748 11.5248 18.8082Z" stroke="#010101" stroke-width="2" stroke-linecap="round"/>
</svg>
