<?xml version="1.0" encoding="utf-8"?>
<!-- Generator: Adobe Illustrator 28.1.0, SVG Export Plug-In . SVG Version: 6.00 Build 0)  -->
<svg version="1.1" id="Capa_1" xmlns="http://www.w3.org/2000/svg" xmlns:xlink="http://www.w3.org/1999/xlink" x="0px" y="0px"
	 viewBox="0 0 52 45.9" style="enable-background:new 0 0 52 45.9;" xml:space="preserve">
<style type="text/css">
	.st0{fill:#706F6F;}
	.st1{fill:none;stroke:#9CD4D6;stroke-width:2;stroke-miterlimit:10;}
</style>
<path class="st0" d="M35.3,29h-3v1.6h3V29z M22.1,25c0-0.1,0-0.2,0.1-0.3h0c0.1-0.1,0.2-0.1,0.3-0.1s0.2,0,0.3,0.1l5.1,5.2
	C28,29.9,28,30,28,30.1s0,0.2-0.1,0.3h0c-0.1,0.2-0.4,0.2-0.6,0l-5.1-5.1C22.1,25.2,22.1,25.1,22.1,25 M21.1,26.4l5.1,5.1
	c0.4,0.4,0.9,0.6,1.4,0.6s1-0.2,1.4-0.6c0.4-0.4,0.6-0.9,0.6-1.4s-0.2-1-0.6-1.4l-5.1-5.1C23.5,23.2,23,23,22.5,23s-1,0.2-1.4,0.6
	c-0.4,0.4-0.6,0.9-0.6,1.4S20.7,26,21.1,26.4 M26.2,22.5h3v-1.6h-3V22.5z M14.1,19.7h3v-1.6h-3C14.1,18.1,14.1,19.7,14.1,19.7z
	 M21.2,29.5h-3v1.6h3V29.5z M20.6,20.9c-0.2,0-0.4-0.2-0.4-0.4v-7.3c0-0.2,0.2-0.4,0.4-0.4S21,13,21,13.2v7.3
	C21,20.8,20.8,20.9,20.6,20.9 M22.6,20.5v-7.3c0-1.1-0.9-2-2-2s-2,0.9-2,2v7.3c0,1.1,0.9,2,2,2S22.6,21.6,22.6,20.5 M23.8,9.2h3V7.6
	h-3V9.2z M29,18.3c0,0.1,0,0.2-0.1,0.3l0,0c-0.1,0.1-0.2,0.1-0.3,0.1s-0.2,0-0.3-0.1l-2.9-2.9c-0.1-0.1-0.1-0.2-0.1-0.3
	s0-0.2,0.1-0.3c0.1-0.1,0.2-0.1,0.3-0.1s0.2,0,0.3,0.1l2.9,2.9C28.9,18.1,29,18.2,29,18.3 M30,16.9L27.1,14
	c-0.4-0.4-0.9-0.6-1.4-0.6s-1,0.2-1.4,0.6c-0.4,0.4-0.6,0.9-0.6,1.4s0.2,1,0.6,1.4l2.9,2.9c0.4,0.4,0.9,0.6,1.4,0.6s1-0.2,1.4-0.6
	c0.4-0.4,0.6-0.9,0.6-1.4S30.4,17.3,30,16.9 M34.2,9.6c0,0.1,0,0.2-0.1,0.3l-2.9,2.9c-0.1,0.1-0.2,0.1-0.3,0.1c-0.1,0-0.2,0-0.3-0.1
	c-0.1-0.1-0.1-0.2-0.1-0.3s0-0.2,0.1-0.3l2.9-2.9c0.1-0.1,0.2-0.1,0.3-0.1s0.2,0,0.3,0.1h0C34.2,9.4,34.2,9.5,34.2,9.6 M35.2,11
	c0.4-0.4,0.6-0.9,0.6-1.4s-0.2-1.1-0.6-1.4c-0.4-0.4-0.9-0.6-1.4-0.6s-1,0.2-1.4,0.6L29.5,11c-0.4,0.4-0.6,0.9-0.6,1.4
	s0.2,1,0.6,1.4c0.4,0.4,0.9,0.6,1.4,0.6l0,0c0.5,0,1-0.2,1.4-0.6L35.2,11L35.2,11z M35.1,17.7h3v-1.6h-3V17.7z M37.7,21
	c0,0.1,0,0.2-0.1,0.3l-5.2,5.1c-0.2,0.2-0.4,0.2-0.6,0h0c-0.1-0.1-0.1-0.2-0.1-0.3s0-0.2,0.1-0.3l5.2-5.1c0.1-0.1,0.2-0.1,0.3-0.1
	s0.2,0,0.3,0.1C37.7,20.8,37.8,20.9,37.7,21 M39.3,21c0-0.5-0.2-1-0.6-1.4S37.9,19,37.3,19s-1,0.2-1.4,0.6l-5.1,5.1
	c-0.4,0.4-0.6,0.9-0.6,1.4s0.2,1,0.6,1.4c0.4,0.4,0.9,0.6,1.4,0.6c0.5,0,1-0.2,1.4-0.6l5.1-5.1C39.1,22.1,39.3,21.6,39.3,21"/>
<path class="st0" d="M1.5,23.8c-0.5,0-0.8-0.1-1.1-0.4c-0.3-0.2-0.4-0.6-0.4-1.1c0-0.3,0-0.6,0.2-0.9s0.3-0.5,0.6-0.6s0.6-0.2,1-0.3
	l0.6,0c0.4,0,0.7,0,1,0.1s0.5,0.3,0.7,0.5s0.3,0.5,0.3,0.8c0,0.5-0.1,0.8-0.3,1.1s-0.5,0.5-1,0.5l0-0.4c0.7-0.1,1-0.6,1-1.3
	c0-0.4-0.2-0.7-0.5-0.9c-0.3-0.2-0.7-0.3-1.2-0.2l-0.5,0c-0.5,0-0.9,0.2-1.1,0.4c-0.3,0.2-0.4,0.6-0.4,0.9c0,0.4,0.1,0.6,0.3,0.8
	s0.5,0.3,0.8,0.3L1.5,23.8L1.5,23.8z"/>
<path class="st0" d="M3.1,27.7c-0.4,0.1-0.7,0.1-1,0.1s-0.6-0.2-0.8-0.4C1,27.2,0.9,27,0.8,26.7c-0.1-0.5-0.1-0.9,0.2-1.3
	s0.7-0.7,1.3-0.8l0.4-0.1c0.4-0.1,0.7-0.1,1-0.1s0.6,0.2,0.8,0.4c0.2,0.2,0.4,0.5,0.5,0.8s0.1,0.6,0,0.9c-0.1,0.3-0.2,0.5-0.5,0.7
	S4,27.5,3.6,27.6L3.1,27.7L3.1,27.7z M3.5,27.3c0.5-0.1,0.8-0.4,1.1-0.7c0.2-0.3,0.3-0.6,0.2-1c-0.1-0.4-0.3-0.6-0.7-0.8
	c-0.3-0.1-0.8-0.1-1.3,0l-0.4,0.1c-0.5,0.1-0.8,0.4-1.1,0.7s-0.3,0.6-0.2,1c0.1,0.4,0.3,0.7,0.7,0.8s0.8,0.1,1.3,0L3.5,27.3
	L3.5,27.3z"/>
<path class="st0" d="M3,32.3L2.9,32l2.3-3.7l-3.3,1.5l-0.1-0.3l3.9-1.8L5.8,28l-2.3,3.7l3.3-1.5l0.2,0.3L3,32.3L3,32.3z"/>
<path class="st0" d="M8.8,33.7l-0.8-1.2l-3.2,2.3l-0.2-0.3l3.2-2.3L6.9,31l0.2-0.2L9,33.5L8.8,33.7L8.8,33.7z"/>
<path class="st0" d="M8.6,36.7l-0.9-0.9l-1.3,1.2l-0.2-0.3l3.1-3l1,1c0.3,0.3,0.5,0.7,0.5,1s-0.1,0.6-0.4,0.9
	c-0.2,0.2-0.4,0.3-0.7,0.3c-0.3,0-0.5,0-0.8-0.2l-0.6,2l0,0L8,38.7L8.6,36.7L8.6,36.7z M7.9,35.6l0.8,0.8c0.2,0.2,0.4,0.3,0.7,0.3
	s0.5-0.1,0.7-0.3c0.2-0.2,0.3-0.4,0.3-0.7c0-0.2-0.1-0.5-0.4-0.8l-0.7-0.7L7.9,35.6L7.9,35.6z"/>
<path class="st0" d="M12.8,40.2c-0.2,0.3-0.5,0.5-0.8,0.7c-0.3,0.2-0.6,0.2-0.9,0.2s-0.6-0.2-0.8-0.3c-0.4-0.3-0.6-0.7-0.6-1.2
	c0-0.5,0.2-0.9,0.5-1.4l0.3-0.3c0.2-0.3,0.5-0.5,0.8-0.7s0.6-0.2,0.9-0.2s0.6,0.1,0.8,0.3c0.3,0.2,0.4,0.4,0.5,0.7
	c0.1,0.3,0.1,0.6,0,0.9c-0.1,0.3-0.2,0.6-0.4,0.9C13.1,39.8,12.8,40.2,12.8,40.2z M12.8,39.6c0.3-0.4,0.5-0.8,0.5-1.2
	s-0.2-0.7-0.5-0.9c-0.3-0.2-0.6-0.3-1-0.2c-0.4,0.1-0.7,0.3-1,0.7l-0.3,0.3c-0.3,0.4-0.5,0.8-0.5,1.2c0,0.4,0.2,0.7,0.5,0.9
	s0.7,0.3,1,0.2c0.4-0.1,0.7-0.3,1-0.8C12.5,39.9,12.8,39.6,12.8,39.6z"/>
<path class="st0" d="M13.3,42.2l1.9,1L15,43.5l-2.2-1.1l1.9-3.8l0.3,0.2C15.1,38.7,13.3,42.2,13.3,42.2z"/>
<path class="st0" d="M18.5,43.5l-1.8-0.6l-0.8,1l-0.4-0.1l2.9-3.5l0.3,0.1l0.2,4.6l-0.4-0.1L18.5,43.5L18.5,43.5z M16.9,42.7
	l1.6,0.5l-0.1-2.5L16.9,42.7L16.9,42.7z"/>
<path class="st0" d="M21.8,45.3l2.1,0.3l0,0.3l-2.5-0.3l0.5-4.2l0.4,0L21.8,45.3L21.8,45.3z"/>
<path class="st0" d="M27.3,44.7l-1.9,0l-0.4,1.2h-0.4l1.5-4.3h0.3l1.7,4.2h-0.4L27.3,44.7L27.3,44.7z M25.4,44.4l1.7,0l-0.9-2.3
	C26.2,42.1,25.4,44.4,25.4,44.4z"/>
<path class="st0" d="M31.3,44.3c0-0.2-0.2-0.4-0.3-0.5c-0.2-0.1-0.5-0.2-1-0.2c-0.5,0-0.8-0.1-1-0.2c-0.3-0.2-0.5-0.4-0.6-0.7
	c-0.1-0.3,0-0.6,0.3-0.8s0.5-0.4,1-0.5c0.3,0,0.5,0,0.8,0s0.4,0.2,0.6,0.4c0.2,0.2,0.2,0.4,0.3,0.6l-0.4,0.1c0-0.3-0.2-0.5-0.4-0.6
	s-0.5-0.2-0.8-0.1c-0.3,0.1-0.6,0.2-0.7,0.3s-0.2,0.4-0.2,0.6c0,0.2,0.2,0.4,0.4,0.5c0.2,0.1,0.5,0.2,0.9,0.2c0.4,0,0.7,0.1,0.9,0.2
	c0.2,0.1,0.4,0.2,0.5,0.3c0.1,0.1,0.2,0.3,0.2,0.5c0.1,0.3,0,0.6-0.2,0.9c-0.2,0.2-0.6,0.4-1,0.5c-0.3,0-0.6,0-0.8,0
	c-0.3-0.1-0.5-0.2-0.6-0.3c-0.2-0.2-0.3-0.4-0.3-0.6l0.4-0.1c0,0.3,0.2,0.5,0.5,0.6s0.6,0.2,0.9,0.1c0.3-0.1,0.6-0.2,0.8-0.4
	S31.3,44.5,31.3,44.3L31.3,44.3z"/>
<path class="st0" d="M34.1,44.7l-1.6-4l1.4-0.5c0.5-0.2,0.9-0.2,1.2-0.2c0.3,0.1,0.5,0.3,0.7,0.7c0.1,0.2,0.1,0.4,0,0.6
	c0,0.2-0.1,0.3-0.3,0.5c0.2,0,0.4,0,0.6,0.1c0.2,0.1,0.3,0.3,0.4,0.5c0.2,0.4,0.1,0.7,0,1c-0.2,0.3-0.5,0.5-0.9,0.7L34.1,44.7
	L34.1,44.7z M34,42l0.6-0.2c0.4-0.2,0.5-0.4,0.4-0.7c-0.1-0.2-0.2-0.3-0.3-0.3s-0.3,0-0.5,0.1L33.6,41C33.6,41,34,42,34,42z
	 M34.2,42.6l0.4,1.1l0.7-0.3c0.2-0.1,0.3-0.2,0.4-0.3c0.1-0.1,0.1-0.3,0-0.4c-0.1-0.4-0.4-0.5-0.8-0.3L34.2,42.6z"/>
<path class="st0" d="M39.3,41.2L38,42l0.2,0.9l-0.8,0.5l-0.8-4.5l0.7-0.4l3.5,2.9L40,41.8C40,41.8,39.3,41.2,39.3,41.2z M37.9,41.2
	l0.9-0.5l-1.3-1.1C37.5,39.6,37.9,41.2,37.9,41.2z"/>
<path class="st0" d="M43,37.8c0.3,0.4,0.3,0.8,0.3,1.2c-0.1,0.4-0.3,0.8-0.7,1.1c-0.4,0.3-0.9,0.5-1.4,0.4c-0.5-0.1-0.9-0.4-1.3-0.9
	l-0.2-0.2c-0.2-0.3-0.4-0.7-0.5-1s-0.1-0.7,0-1c0.1-0.3,0.3-0.6,0.6-0.8c0.4-0.3,0.8-0.4,1.2-0.4s0.8,0.2,1.1,0.5l-0.7,0.5
	c-0.2-0.2-0.4-0.3-0.5-0.3s-0.4,0.1-0.6,0.2c-0.2,0.2-0.3,0.4-0.3,0.7s0.2,0.6,0.4,0.9l0.2,0.2c0.3,0.4,0.5,0.6,0.8,0.7
	c0.2,0.1,0.5,0,0.7-0.2c0.2-0.2,0.3-0.3,0.4-0.5c0-0.2,0-0.4-0.2-0.6L43,37.8L43,37.8z"/>
<path class="st0" d="M43.9,33.7l-0.9,1l2.6,2.5l-0.6,0.6l-2.6-2.5l-0.9,0.9L41,35.7l2.4-2.5L43.9,33.7L43.9,33.7z"/>
<path class="st0" d="M46.8,32.5l-1,1.4l0.9,0.7l1.2-1.6l0.6,0.4l-1.7,2.3l-3.5-2.5l1.7-2.3l0.6,0.4l-1.1,1.6l0.8,0.6l1-1.4
	C46.2,32.1,46.8,32.5,46.8,32.5z"/>
<path class="st0" d="M48,30.6l-0.3,0.6l1.4,0.7l-0.4,0.8l-3.8-2l0.7-1.4c0.2-0.5,0.5-0.7,0.8-0.9c0.3-0.1,0.7-0.1,1,0.1
	c0.3,0.1,0.5,0.3,0.6,0.5c0.1,0.2,0.2,0.4,0.2,0.7l2,0l0,0l-0.4,0.8L48,30.6L48,30.6z M47.1,30.9l0.3-0.6c0.1-0.2,0.1-0.4,0.1-0.5
	c0-0.2-0.2-0.3-0.3-0.4s-0.3-0.1-0.5-0.1c-0.2,0-0.3,0.2-0.4,0.4l-0.3,0.6L47.1,30.9L47.1,30.9z"/>
<path class="st0" d="M50.7,28.4l-0.3,0.8l-4-1.6l0.3-0.8L50.7,28.4z"/>
<path class="st0" d="M50.7,25l-0.3,1.5l0.8,0.5l-0.2,0.9l-3.8-2.5l0.2-0.8l4.5-0.6l-0.2,0.9L50.7,25L50.7,25z M49.7,26.1l0.2-1
	l-1.7,0.2L49.7,26.1z"/>
<path class="st0" d="M50.9,21.2c-0.2,0-0.3,0-0.4,0.1c-0.1,0.1-0.2,0.3-0.3,0.6s-0.2,0.5-0.3,0.7c-0.3,0.5-0.7,0.7-1.1,0.6
	c-0.2,0-0.4-0.1-0.6-0.2s-0.3-0.3-0.4-0.6s-0.1-0.5-0.1-0.8s0.1-0.6,0.2-0.8s0.3-0.4,0.5-0.5s0.4-0.2,0.7-0.1L49,21
	c-0.2,0-0.3,0-0.5,0.1c-0.1,0.1-0.2,0.3-0.2,0.5c0,0.2,0,0.4,0.1,0.5c0.1,0.1,0.2,0.2,0.3,0.2c0.1,0,0.3,0,0.4-0.2s0.2-0.3,0.3-0.6
	c0.2-0.5,0.4-0.8,0.6-1c0.2-0.2,0.5-0.3,0.9-0.3c0.4,0,0.7,0.2,0.8,0.5c0.2,0.3,0.3,0.7,0.2,1.1c0,0.3-0.1,0.6-0.2,0.9
	c-0.1,0.3-0.3,0.5-0.5,0.6s-0.5,0.2-0.7,0.2l0.1-0.9c0.5,0,0.7-0.2,0.8-0.8c0-0.2,0-0.4-0.1-0.5S51.1,21.2,50.9,21.2z"/>
<path class="st1" d="M26.7,38.7c10.4,0,18.8-8.4,18.8-18.8S37.1,1,26.7,1S7.9,9.4,7.9,19.8S16.3,38.7,26.7,38.7z"/>
<line class="st1" x1="13.5" y1="33.1" x2="39.9" y2="6.6"/>
</svg>
