<?xml version="1.0" encoding="utf-8"?>
<!-- Generator: Adobe Illustrator 28.1.0, SVG Export Plug-In . SVG Version: 6.00 Build 0)  -->
<svg version="1.1" id="Capa_1" xmlns="http://www.w3.org/2000/svg" xmlns:xlink="http://www.w3.org/1999/xlink" x="0px" y="0px"
	 viewBox="0 0 51 45.9" style="enable-background:new 0 0 51 45.9;" xml:space="preserve">
<style type="text/css">
	.st0{fill:#706F6F;}
	.st1{fill:none;stroke:#9CD4D6;stroke-width:2;stroke-miterlimit:10;}
</style>
<path class="st0" d="M22,25.8c0-1.3,1.1-2.4,2.4-2.4s2.4,1.1,2.4,2.4s-1.1,2.4-2.4,2.4S22,27.1,22,25.8"/>
<path class="st0" d="M20.6,17.9c0-1.3,1.1-2.4,2.4-2.4s2.4,1.1,2.4,2.4s-1.1,2.4-2.4,2.4S20.6,19.2,20.6,17.9"/>
<path class="st0" d="M12.9,22.4c0-1.3,1.1-2.4,2.4-2.4s2.4,1.1,2.4,2.4s-1.1,2.4-2.4,2.4S12.9,23.7,12.9,22.4"/>
<path class="st0" d="M32.9,19.3c0.4,0.9-0.1,1.9-1,2.2c-0.9,0.4-1.9-0.1-2.2-1c-0.4-0.9,0.1-1.9,1-2.2C31.5,18,32.5,18.4,32.9,19.3"
	/>
<path class="st0" d="M17.6,13.5c0.4,0.9-0.1,1.9-1,2.2c-0.9,0.4-1.9-0.1-2.2-0.9s0.1-1.9,0.9-2.2S17.3,12.6,17.6,13.5"/>
<path class="st0" d="M33.7,26.3c0,1-0.8,1.7-1.7,1.7s-1.7-0.8-1.7-1.7s0.8-1.7,1.7-1.7C32.9,24.6,33.7,25.3,33.7,26.3"/>
<path class="st0" d="M30.1,12.5c0.4,0.9-0.1,1.9-1,2.2c-0.9,0.4-1.9-0.1-2.2-0.9s0.1-1.9,1-2.2C28.7,11.2,29.7,11.6,30.1,12.5"/>
<path class="st0" d="M23.5,11.6c0,0.7-0.5,1.2-1.2,1.2S21,12.3,21,11.6s0.5-1.2,1.2-1.2S23.5,10.9,23.5,11.6"/>
<path class="st0" d="M36.2,14.1c0,0.7-0.5,1.2-1.2,1.2s-1.2-0.6-1.2-1.2s0.5-1.2,1.2-1.2S36.2,13.5,36.2,14.1"/>
<path class="st0" d="M37.9,21.7c0,0.5-0.4,0.9-0.9,0.9s-0.9-0.4-0.9-0.9s0.4-0.9,0.9-0.9S37.9,21.2,37.9,21.7"/>
<path class="st0" d="M33.8,9.1c0,0.5-0.4,0.9-0.9,0.9S32,9.6,32,9.1s0.4-0.9,0.9-0.9S33.8,8.6,33.8,9.1"/>
<path class="st0" d="M18.7,28.6c0.4,0.9-0.1,1.9-1,2.2c-0.9,0.4-1.9-0.1-2.2-1c-0.4-0.9,0.1-1.9,1-2.2
	C17.3,27.3,18.3,27.7,18.7,28.6"/>
<path class="st0" d="M30.3,30.6c0,0.5-0.4,0.9-0.9,0.9s-0.9-0.4-0.9-0.9s0.4-0.9,0.9-0.9S30.3,30.1,30.3,30.6"/>
<path class="st0" d="M1.8,27.2c-0.5,0-0.8,0-1.1-0.2s-0.5-0.5-0.6-1c-0.1-0.3-0.1-0.6,0-0.9s0.3-0.5,0.5-0.7s0.6-0.3,0.9-0.4
	l0.5-0.1c0.4-0.1,0.7-0.1,1,0c0.3,0.1,0.6,0.2,0.8,0.4c0.2,0.2,0.4,0.5,0.4,0.8c0.1,0.5,0.1,0.8-0.1,1.1s-0.5,0.5-0.9,0.7l-0.1-0.4
	c0.7-0.2,0.9-0.7,0.8-1.4c-0.1-0.4-0.3-0.6-0.6-0.8c-0.3-0.2-0.8-0.2-1.2-0.1l-0.5,0.1c-0.5,0.1-0.8,0.3-1.1,0.6
	c-0.2,0.3-0.3,0.6-0.2,1c0.1,0.4,0.2,0.6,0.5,0.8s0.5,0.2,0.9,0.2L1.8,27.2L1.8,27.2z"/>
<path class="st0" d="M3.9,30.9c-0.4,0.2-0.7,0.2-1,0.2S2.3,31.1,2,30.9c-0.2-0.2-0.4-0.4-0.6-0.7c-0.2-0.5-0.2-0.9,0-1.3
	s0.6-0.8,1.1-1L3,27.7c0.3-0.2,0.7-0.2,1-0.2s0.6,0.1,0.9,0.2c0.2,0.2,0.4,0.4,0.6,0.7c0.1,0.3,0.2,0.6,0.1,0.9s-0.2,0.6-0.4,0.8
	c-0.2,0.2-0.5,0.5-0.8,0.6L3.9,30.9L3.9,30.9z M4.2,30.4c0.5-0.2,0.8-0.5,1-0.8s0.2-0.7,0-1c-0.2-0.4-0.4-0.6-0.8-0.7
	s-0.8,0-1.3,0.2l-0.4,0.2c-0.5,0.2-0.8,0.5-1,0.8s-0.2,0.7,0,1c0.2,0.4,0.4,0.6,0.8,0.7s0.8,0,1.2-0.2L4.2,30.4z"/>
<path class="st0" d="M4.5,35.5l-0.2-0.3l1.8-4l-3.1,2l-0.2-0.3l3.6-2.3l0.2,0.3l-1.8,4l3.1-2l0.2,0.3L4.5,35.5L4.5,35.5z"/>
<path class="st0" d="M10.3,36l-1-1.1l-2.9,2.7l-0.2-0.3l2.9-2.7l-1-1.1l0.2-0.2l2.3,2.4L10.3,36L10.3,36z"/>
<path class="st0" d="M10.6,39l-1-0.8l-1.1,1.4l-0.3-0.2l2.6-3.4l1.1,0.9c0.4,0.3,0.6,0.6,0.6,0.9c0.1,0.3,0,0.7-0.3,1
	c-0.2,0.2-0.4,0.3-0.6,0.4c-0.2,0.1-0.5,0-0.8-0.1l-0.3,2.1l0,0l-0.3-0.2L10.6,39L10.6,39z M9.8,38l0.9,0.7c0.2,0.2,0.5,0.3,0.7,0.2
	s0.5-0.1,0.6-0.4c0.2-0.2,0.3-0.5,0.2-0.7s-0.2-0.5-0.5-0.7l-0.8-0.6L9.8,38z"/>
<path class="st0" d="M15.2,41.8c-0.2,0.3-0.4,0.6-0.7,0.8s-0.6,0.3-0.9,0.3s-0.6-0.1-0.9-0.2c-0.4-0.2-0.7-0.6-0.8-1.1
	c-0.1-0.5,0-1,0.3-1.5l0.2-0.4c0.2-0.3,0.4-0.6,0.7-0.8c0.3-0.2,0.6-0.3,0.9-0.3c0.3,0,0.6,0.1,0.9,0.2s0.5,0.4,0.6,0.6
	s0.2,0.5,0.2,0.9c0,0.3-0.1,0.6-0.3,1L15.2,41.8L15.2,41.8z M15.2,41.3c0.3-0.5,0.4-0.8,0.3-1.2s-0.3-0.7-0.6-0.8
	c-0.3-0.2-0.7-0.2-1-0.1s-0.7,0.4-0.9,0.9l-0.2,0.4c-0.2,0.4-0.4,0.8-0.3,1.2c0.1,0.4,0.3,0.7,0.6,0.9c0.4,0.2,0.7,0.2,1.1,0.1
	c0.3-0.1,0.6-0.4,0.9-0.9L15.2,41.3L15.2,41.3z"/>
<path class="st0" d="M16,43.8l2,0.7l-0.1,0.3L15.6,44l1.4-4l0.3,0.1C17.3,40.1,16,43.8,16,43.8z"/>
<path class="st0" d="M21.4,44.4L19.5,44l-0.6,1.1l-0.4-0.1l2.3-3.9l0.3,0.1l0.8,4.5l-0.4-0.1L21.4,44.4L21.4,44.4z M19.7,43.8
	l1.7,0.3l-0.4-2.4L19.7,43.8z"/>
<path class="st0" d="M24.9,45.6l2.1,0v0.3l-2.5,0.1l-0.1-4.3h0.4C24.8,41.7,24.9,45.6,24.9,45.6z"/>
<path class="st0" d="M30.7,43.5c0,0.4,0,0.7-0.1,1c-0.1,0.3-0.3,0.6-0.5,0.8s-0.5,0.3-0.8,0.3c-0.5,0.1-0.9-0.1-1.3-0.4
	c-0.4-0.3-0.6-0.8-0.6-1.4l-0.1-0.4c0-0.4,0-0.7,0.1-1c0.1-0.3,0.3-0.6,0.5-0.8s0.5-0.3,0.8-0.3c0.3,0,0.6,0,0.9,0.1
	c0.3,0.1,0.5,0.3,0.7,0.6s0.3,0.6,0.3,1L30.7,43.5L30.7,43.5z M30.3,43.1c-0.1-0.5-0.2-0.9-0.5-1.2c-0.3-0.3-0.6-0.4-1-0.3
	c-0.4,0-0.7,0.2-0.9,0.5c-0.2,0.3-0.3,0.7-0.2,1.3l0.1,0.4c0.1,0.5,0.2,0.9,0.5,1.2c0.3,0.3,0.6,0.4,1,0.3c0.4,0,0.7-0.2,0.9-0.5
	c0.2-0.3,0.2-0.7,0.2-1.2L30.3,43.1L30.3,43.1z"/>
<path class="st0" d="M34.2,43.3c-0.1-0.2-0.2-0.4-0.4-0.5c-0.2-0.1-0.5-0.1-1-0.1c-0.5,0-0.8,0-1-0.1c-0.3-0.1-0.6-0.3-0.7-0.6
	c-0.1-0.3-0.1-0.6,0.1-0.9c0.2-0.3,0.5-0.5,0.9-0.6c0.3-0.1,0.5-0.1,0.8-0.1s0.5,0.1,0.6,0.3s0.3,0.3,0.4,0.6l-0.3,0.1
	c-0.1-0.3-0.3-0.5-0.5-0.6s-0.5-0.1-0.8,0c-0.3,0.1-0.5,0.3-0.7,0.5s-0.2,0.4-0.1,0.6c0.1,0.2,0.2,0.3,0.4,0.4
	c0.2,0.1,0.5,0.1,0.9,0.1c0.4,0,0.7,0,0.9,0c0.2,0,0.4,0.1,0.5,0.2c0.1,0.1,0.2,0.3,0.3,0.5c0.1,0.3,0.1,0.6-0.1,0.9
	s-0.5,0.5-0.9,0.6c-0.3,0.1-0.6,0.1-0.8,0.1s-0.5-0.1-0.7-0.2s-0.3-0.3-0.4-0.6l0.3-0.1c0.1,0.3,0.3,0.5,0.6,0.6
	c0.3,0.1,0.6,0.1,0.9,0c0.3-0.1,0.5-0.3,0.7-0.5C34.3,43.7,34.3,43.5,34.2,43.3L34.2,43.3z"/>
<path class="st0" d="M40,41.5l-0.8,0.4l-0.9-1.6l-1.5,0.8l0.9,1.6L37,43.2l-2.1-3.7l0.8-0.4l0.9,1.5l1.5-0.8l-0.9-1.5l0.8-0.4
	L40,41.5z"/>
<path class="st0" d="M42.2,37.2c0.3,0.3,0.4,0.7,0.5,1c0.1,0.3,0.1,0.7,0,1s-0.3,0.6-0.6,0.8s-0.6,0.3-0.9,0.4c-0.3,0-0.6,0-1-0.2
	c-0.3-0.2-0.6-0.4-0.8-0.7l-0.1-0.2c-0.3-0.3-0.4-0.7-0.5-1c-0.1-0.3-0.1-0.7,0-1c0.1-0.3,0.3-0.6,0.6-0.8s0.6-0.3,0.9-0.4
	c0.3,0,0.6,0,1,0.2s0.6,0.4,0.9,0.7C42.1,37.1,42.2,37.2,42.2,37.2z M41.4,37.6c-0.3-0.3-0.5-0.6-0.8-0.7s-0.5,0-0.8,0.2
	s-0.3,0.4-0.3,0.7s0.2,0.6,0.4,0.9l0.1,0.2c0.3,0.3,0.5,0.6,0.8,0.7c0.3,0.1,0.5,0,0.8-0.1c0.2-0.2,0.3-0.4,0.3-0.7s-0.2-0.6-0.4-1
	C41.5,37.8,41.4,37.6,41.4,37.6z"/>
<path class="st0" d="M46.3,35.5l-0.6,0.7l-3.2-0.5l2.1,1.8L44,38.2l-3.2-2.8l0.6-0.7l3.2,0.5l-2.1-1.8l0.6-0.7L46.3,35.5L46.3,35.5z
	"/>
<path class="st0" d="M48.2,31.7c0.1,0.2,0.1,0.5,0,0.8c-0.1,0.3-0.2,0.6-0.4,0.9c-0.2,0.3-0.4,0.5-0.7,0.7c-0.3,0.2-0.6,0.2-0.9,0.2
	s-0.7-0.2-1-0.4l-0.2-0.2c-0.4-0.2-0.6-0.5-0.8-0.8c-0.2-0.3-0.3-0.6-0.3-0.9s0.1-0.6,0.3-0.9c0.3-0.4,0.6-0.7,1-0.8
	c0.4-0.1,0.7-0.1,1.2,0.1l-0.5,0.7C45.5,31,45.3,31,45.1,31c-0.2,0-0.3,0.2-0.4,0.4c-0.2,0.2-0.2,0.5-0.1,0.8
	c0.1,0.2,0.3,0.5,0.7,0.7l0.2,0.2c0.4,0.2,0.7,0.3,1,0.3c0.3,0,0.5-0.2,0.7-0.4c0.2-0.3,0.2-0.5,0.2-0.7l-0.6-0.4l-0.4,0.7l-0.5-0.3
	l0.9-1.4L48.2,31.7L48.2,31.7z"/>
<path class="st0" d="M48.4,27.1c0.4,0.1,0.7,0.4,1,0.6s0.4,0.5,0.5,0.9s0,0.6-0.1,1s-0.3,0.6-0.6,0.8c-0.3,0.2-0.6,0.3-0.9,0.3
	c-0.3,0-0.7,0-1.1-0.2l-0.2-0.1c-0.4-0.1-0.7-0.4-1-0.6s-0.4-0.5-0.5-0.9c-0.1-0.3,0-0.6,0.1-1s0.3-0.6,0.6-0.8
	c0.3-0.2,0.6-0.3,0.9-0.3c0.3,0,0.7,0,1.1,0.2L48.4,27.1L48.4,27.1z M47.9,27.9c-0.4-0.2-0.8-0.2-1-0.1c-0.3,0.1-0.5,0.2-0.6,0.5
	c-0.1,0.3-0.1,0.5,0.1,0.8s0.4,0.4,0.8,0.6l0.2,0.1c0.4,0.2,0.8,0.2,1,0.1s0.5-0.2,0.6-0.5c0.1-0.3,0.1-0.5-0.1-0.8
	c-0.2-0.2-0.4-0.4-0.8-0.6C48.1,28,47.9,27.9,47.9,27.9z"/>
<path class="st0" d="M49.9,24.7c-0.2,0-0.3,0-0.4,0.1c-0.1,0.1-0.2,0.3-0.4,0.5c-0.2,0.3-0.3,0.5-0.5,0.6c-0.4,0.4-0.8,0.6-1.2,0.5
	c-0.2,0-0.4-0.2-0.6-0.3s-0.2-0.4-0.3-0.6c0-0.3,0-0.5,0-0.8c0.1-0.3,0.2-0.5,0.3-0.8c0.2-0.2,0.4-0.4,0.6-0.4
	c0.2-0.1,0.5-0.1,0.7,0l-0.2,0.9c-0.2,0-0.3,0-0.5,0.1c-0.1,0.1-0.2,0.2-0.3,0.5c0,0.2,0,0.4,0,0.5c0.1,0.1,0.2,0.2,0.3,0.3
	c0.1,0,0.3,0,0.4-0.1c0.1-0.1,0.2-0.3,0.4-0.5c0.3-0.5,0.5-0.8,0.8-0.9s0.6-0.2,0.9-0.1c0.4,0.1,0.6,0.3,0.8,0.6
	c0.1,0.3,0.2,0.7,0,1.2c-0.1,0.3-0.2,0.6-0.4,0.8c-0.2,0.2-0.4,0.4-0.6,0.5c-0.2,0.1-0.5,0.1-0.8,0l0.2-0.9c0.5,0.1,0.8-0.1,0.9-0.7
	c0-0.2,0-0.4,0-0.5S50,24.7,49.9,24.7L49.9,24.7z"/>
<path class="st1" d="M25.4,38.7c10.4,0,18.8-8.4,18.8-18.8S35.8,1,25.4,1S6.6,9.4,6.6,19.8S15,38.7,25.4,38.7z"/>
<line class="st1" x1="12.2" y1="33.1" x2="38.6" y2="6.6"/>
</svg>
