<?xml version="1.0" encoding="utf-8"?>
<!-- Generator: Adobe Illustrator 28.1.0, SVG Export Plug-In . SVG Version: 6.00 Build 0)  -->
<svg version="1.1" id="Capa_1" xmlns="http://www.w3.org/2000/svg" xmlns:xlink="http://www.w3.org/1999/xlink" x="0px" y="0px"
	 viewBox="0 0 47.3 45.9" style="enable-background:new 0 0 47.3 45.9;" xml:space="preserve">
<style type="text/css">
	.st0{fill:#706F6F;}
	.st1{fill:none;stroke:#9CD4D6;stroke-width:2;stroke-miterlimit:10;}
</style>
<path class="st0" d="M24.4,30.9c0-0.4,0.3-0.7,0.7-0.7s0.7,0.3,0.7,0.7s-0.3,0.7-0.7,0.7S24.4,31.3,24.4,30.9 M22.8,30.9
	c0,1.2,1,2.3,2.2,2.3s2.2-1,2.2-2.2s-1-2.2-2.2-2.2S22.8,29.6,22.8,30.9 M14.5,17.2c0,0.6-0.5,1.2-1.2,1.2s-1.2-0.5-1.2-1.2
	s0.5-1.2,1.2-1.2S14.5,16.5,14.5,17.2 M13.3,14.4c-1.5,0-2.7,1.2-2.7,2.7s1.2,2.7,2.7,2.7s2.7-1.2,2.7-2.7S14.8,14.4,13.3,14.4
	 M30.1,8.8c0,0.4-0.3,0.7-0.7,0.7s-0.7-0.3-0.7-0.7s0.3-0.7,0.7-0.7S30.1,8.4,30.1,8.8 M31.7,8.8c0-1.2-1-2.2-2.2-2.2
	s-2.2,1-2.2,2.2s1,2.2,2.2,2.2S31.7,10.1,31.7,8.8 M30.2,17.6c0-0.1,0.1-0.2,0.2-0.2s0.2,0.1,0.2,0.2s-0.1,0.2-0.2,0.2
	S30.2,17.8,30.2,17.6 M28.7,17.6c0,1,0.8,1.8,1.8,1.8s1.8-0.8,1.8-1.8s-0.8-1.8-1.8-1.8S28.7,16.7,28.7,17.6 M19.5,22.1
	c0-0.9,0.8-1.7,1.7-1.7s1.7,0.8,1.7,1.7s-0.8,1.7-1.7,1.7S19.5,23,19.5,22.1 M17.9,22.1c0,1.8,1.5,3.2,3.2,3.2s3.2-1.5,3.2-3.2
	s-1.5-3.2-3.2-3.2S17.9,20.3,17.9,22.1 M15.1,24c-0.5-0.5-1-0.9-0.9-1.4c0-0.4,0.5-1.2,2.3-2.4c1.7-1.1,2.5-2.2,2.6-3.3
	c0.1-1.5-1-2.5-2-3.3c-0.1-0.1-0.4-0.4-0.6-0.6c0.5-0.2,0.8-0.4,1.1-0.4s0.5,0.1,0.8,0.3c0.5,0.3,1.2,0.6,2.5,0.4
	c1.6-0.4,2-1.4,2.2-2.1c0.2-0.5,0.3-0.7,0.5-0.8c0.6-0.3,0.9-0.3,1.1-0.2c0.4,0.2,1,0.9,1.8,3.5c0.2,0.8,0.7,1.8,1.6,1.9
	c1.2,0.2,2-1.1,3-2.6l0-0.1c0.3-0.5,1.2-1.8,1.5-2c1,0.5,1,4.7,0.9,7v0c0,0.5,0,1,0,1.4c0,1.1-0.5,1.3-1.9,1.5
	c-1,0.1-2.4,0.4-2.6,1.9s1.2,2.4,2.2,3.1c1.1,0.7,1.3,0.9,1.2,1.2c0,0,0,0.1-0.2,0.2c-1,0.5-4.1-0.3-7.7-1.9
	c-2.5-1.1-3.5,1.1-4.2,2.5c-0.7,1.5-1.1,2.2-2,2.1c-1.3-0.2-2.3-0.8-2.7-1.6c-0.3-0.6-0.2-1.3,0.2-1.9C16.8,25.6,15.8,24.6,15.1,24
	 M33.3,9.6L33.3,9.6c-1.3-0.5-2.3,1-3.4,2.6c-0.8,1.2-1.3,1.8-1.5,1.9c-0.1-0.1-0.2-0.3-0.4-0.8c-0.9-2.7-1.7-4-2.7-4.4
	c-0.9-0.4-1.7-0.1-2.3,0.2c-1,0.4-1.2,1.1-1.4,1.7c-0.2,0.6-0.3,0.9-1.1,1.1c-0.6,0.1-1,0-1.4-0.2c-0.7-0.4-1.6-0.8-3.4,0.1
	c-0.6,0.3-0.9,0.7-0.9,1.1c-0.1,0.8,0.6,1.4,1.3,2c0.7,0.6,1.5,1.3,1.4,2c0,0.6-0.7,1.3-1.9,2.1c-1.9,1.3-2.9,2.4-3,3.5
	c-0.1,1.2,0.8,2,1.4,2.7c0.7,0.7,0.7,0.8,0.6,0.9c-0.7,1-0.8,2.3-0.3,3.4c0.6,1.4,2.1,2.3,3.9,2.5c0.1,0,0.2,0,0.4,0
	c1.8,0,2.6-1.7,3.2-3c0.9-1.9,1.3-2.2,2.2-1.8c3,1.3,7.1,2.7,9,1.9c0.5-0.2,0.9-0.6,1.1-1.1c0.5-1.5-0.8-2.4-1.8-3
	c-1.1-0.7-1.5-1.1-1.5-1.6c0-0.3,0.1-0.4,1.3-0.6s3.2-0.5,3.2-3c0-0.4,0-0.9,0-1.4v0C35.3,14.3,35.4,10.4,33.3,9.6"/>
<path class="st0" d="M2.1,32.2c-0.4,0.2-0.8,0.2-1.1,0c-0.3-0.1-0.6-0.4-0.8-0.8C0,31.1,0,30.8,0,30.5s0.1-0.6,0.3-0.8
	s0.5-0.5,0.8-0.6l0.5-0.2c0.3-0.2,0.7-0.3,1-0.3s0.6,0,0.9,0.2c0.3,0.1,0.5,0.4,0.6,0.7c0.2,0.4,0.3,0.8,0.2,1.1
	c-0.1,0.4-0.3,0.6-0.7,0.9l-0.2-0.3c0.6-0.4,0.8-0.9,0.4-1.5C3.6,29.2,3.4,29,3,29c-0.4-0.1-0.8,0-1.2,0.2l-0.5,0.2
	c-0.4,0.2-0.7,0.5-0.9,0.8c-0.2,0.3-0.2,0.7,0,1s0.4,0.5,0.6,0.6C1.3,32,1.6,32,2,31.9L2.1,32.2L2.1,32.2z"/>
<path class="st0" d="M4.9,35.3c-0.3,0.2-0.6,0.4-1,0.4s-0.6,0-0.9-0.1c-0.3-0.1-0.5-0.3-0.7-0.6c-0.3-0.4-0.4-0.8-0.3-1.3
	c0.1-0.5,0.4-0.9,0.9-1.2l0.4-0.3c0.3-0.2,0.6-0.4,1-0.4s0.6,0,0.9,0.1c0.3,0.1,0.5,0.3,0.7,0.6s0.3,0.5,0.3,0.8
	c0,0.3-0.1,0.6-0.2,0.9S5.7,34.8,5.4,35L4.9,35.3L4.9,35.3z M5.1,34.7c0.4-0.3,0.7-0.6,0.8-1s0-0.7-0.2-1c-0.2-0.3-0.5-0.5-0.9-0.5
	c-0.4,0-0.8,0.1-1.2,0.4l-0.4,0.3c-0.4,0.3-0.7,0.6-0.8,1c-0.1,0.4,0,0.7,0.2,1c0.2,0.3,0.5,0.5,0.9,0.5c0.4,0,0.8-0.1,1.2-0.4
	L5.1,34.7L5.1,34.7z"/>
<path class="st0" d="M6.6,39.6l-0.3-0.2L7.1,35l-2.5,2.6l-0.3-0.2l2.9-3.1l0.3,0.2l-0.7,4.3l2.5-2.7l0.3,0.2L6.6,39.6L6.6,39.6z"/>
<path class="st0" d="M12.4,39l-1.2-0.8l-2.3,3.2l-0.3-0.2l2.3-3.2l-1.2-0.8l0.2-0.2l2.7,1.9C12.5,38.7,12.4,39,12.4,39z"/>
<path class="st0" d="M13.2,41.8l-1.1-0.6l-0.8,1.6L11,42.6l1.9-3.8l1.2,0.6c0.4,0.2,0.7,0.5,0.8,0.8c0.1,0.3,0.1,0.7-0.1,1
	c-0.1,0.2-0.3,0.4-0.5,0.5c-0.2,0.1-0.5,0.1-0.8,0.1l0.1,2.1l0,0l-0.3-0.2C13.3,43.8,13.2,41.8,13.2,41.8z M12.3,41l1,0.5
	c0.3,0.1,0.5,0.2,0.8,0.1c0.2-0.1,0.4-0.2,0.6-0.5c0.1-0.3,0.2-0.5,0.1-0.8c-0.1-0.2-0.3-0.4-0.6-0.6l-0.9-0.5
	C13.1,39.3,12.3,40.9,12.3,41z"/>
<path class="st0" d="M18.4,43.5c-0.1,0.4-0.3,0.7-0.5,0.9s-0.5,0.4-0.8,0.5c-0.3,0.1-0.6,0.1-0.9,0c-0.5-0.1-0.8-0.4-1-0.8
	c-0.2-0.4-0.2-0.9-0.1-1.5l0.1-0.4c0.1-0.4,0.3-0.7,0.5-0.9s0.5-0.4,0.8-0.5s0.6-0.1,0.9,0c0.3,0.1,0.6,0.2,0.8,0.5s0.3,0.5,0.4,0.8
	c0,0.3,0,0.7-0.1,1L18.4,43.5L18.4,43.5z M18.2,42.9c0.1-0.5,0.1-0.9,0-1.3c-0.1-0.3-0.4-0.6-0.8-0.7c-0.4-0.1-0.7,0-1,0.2
	c-0.3,0.2-0.5,0.6-0.7,1.1l-0.1,0.4c-0.1,0.5-0.1,0.9,0,1.2c0.1,0.3,0.4,0.6,0.8,0.7c0.4,0.1,0.7,0.1,1-0.2c0.3-0.2,0.5-0.6,0.7-1.1
	C18.1,43.4,18.2,42.9,18.2,42.9z"/>
<path class="st0" d="M19.5,45.3l2.1,0.3l0,0.3l-2.5-0.3l0.5-4.2l0.4,0L19.5,45.3L19.5,45.3z"/>
<path class="st0" d="M25,44.7l-1.9,0l-0.4,1.2h-0.4l1.5-4.3h0.3l1.7,4.2h-0.4C25.4,45.8,25,44.7,25,44.7z M23.1,44.4l1.7,0l-0.9-2.3
	L23.1,44.4z"/>
<path class="st0" d="M30.2,43l-1.9,0.5l0.4,1.7l2.2-0.5l0.1,0.3l-2.6,0.6l-1-4.2l2.6-0.6L30,41l-2.2,0.5l0.4,1.6l1.9-0.5L30.2,43
	L30.2,43z"/>
<path class="st0" d="M32.2,44.1l2-0.8l0.1,0.3L32,44.5l-1.6-4l0.3-0.1L32.2,44.1L32.2,44.1z"/>
<path class="st0" d="M35,38.4l2.6,2l-0.8-3.2l1-0.6l2.3,3.6l-0.7,0.5l-0.6-1l-1-1.7l0.7,3.3l-0.5,0.3l-2.7-2l1.2,1.6l0.6,1l-0.7,0.5
	L34,39.1L35,38.4L35,38.4z"/>
<path class="st0" d="M41.9,35.6c0.3,0.3,0.5,0.6,0.6,1c0.1,0.3,0.1,0.7,0,1c-0.1,0.3-0.2,0.6-0.5,0.8s-0.5,0.4-0.9,0.5s-0.6,0-1-0.1
	s-0.6-0.3-0.9-0.6L39.1,38c-0.3-0.3-0.5-0.6-0.6-1c-0.1-0.3-0.1-0.7,0-1c0.1-0.3,0.2-0.6,0.5-0.8s0.5-0.4,0.9-0.5s0.6,0,1,0.1
	s0.6,0.3,0.9,0.6L41.9,35.6L41.9,35.6z M41.1,36.1c-0.3-0.3-0.6-0.5-0.9-0.6c-0.3-0.1-0.5,0-0.7,0.2c-0.2,0.2-0.3,0.4-0.3,0.7
	c0,0.3,0.2,0.6,0.5,0.9l0.1,0.2c0.3,0.3,0.6,0.5,0.9,0.6c0.3,0.1,0.5,0,0.8-0.2c0.2-0.2,0.3-0.4,0.2-0.7s-0.2-0.6-0.5-0.9L41.1,36.1
	L41.1,36.1z"/>
<path class="st0" d="M45.8,33.6l-0.5,0.7l-1.5-1.1l-1,1.4l1.5,1.1l-0.5,0.7l-3.5-2.5l0.5-0.7l1.4,1l1-1.4l-1.4-1l0.5-0.7L45.8,33.6
	L45.8,33.6z"/>
<path class="st0" d="M46,28.8c0.4,0.2,0.7,0.4,0.9,0.7c0.2,0.3,0.3,0.6,0.4,0.9s0,0.6-0.2,1s-0.4,0.6-0.7,0.7
	c-0.3,0.2-0.6,0.2-0.9,0.2c-0.3,0-0.7-0.1-1.1-0.3l-0.2-0.1c-0.4-0.2-0.7-0.4-0.9-0.7S43,30.6,43,30.3c0-0.3,0-0.6,0.2-1
	s0.4-0.6,0.7-0.7s0.6-0.2,1-0.2c0.3,0,0.7,0.1,1.1,0.3L46,28.8L46,28.8z M45.4,29.5c-0.4-0.2-0.7-0.3-1-0.2s-0.5,0.2-0.6,0.5
	c-0.1,0.3-0.1,0.5,0,0.8c0.1,0.2,0.4,0.5,0.8,0.7l0.2,0.1c0.4,0.2,0.7,0.3,1,0.2s0.5-0.2,0.6-0.5c0.1-0.3,0.1-0.5,0-0.8
	c-0.1-0.2-0.4-0.5-0.8-0.7L45.4,29.5L45.4,29.5z"/>
<path class="st1" d="M23.6,38.7c10.4,0,18.8-8.4,18.8-18.8S34,1,23.6,1S4.8,9.4,4.8,19.8S13.2,38.7,23.6,38.7L23.6,38.7z"/>
<line class="st1" x1="10.4" y1="33.1" x2="36.8" y2="6.6"/>
</svg>
