<?xml version="1.0" encoding="utf-8"?>
<!-- Generator: Adobe Illustrator 28.1.0, SVG Export Plug-In . SVG Version: 6.00 Build 0)  -->
<svg version="1.1" id="Capa_1" xmlns="http://www.w3.org/2000/svg" xmlns:xlink="http://www.w3.org/1999/xlink" x="0px" y="0px"
	 viewBox="0 0 50.8 45.9" style="enable-background:new 0 0 50.8 45.9;" xml:space="preserve">
<style type="text/css">
	.st0{fill:#706F6F;}
	.st1{fill:none;stroke:#9CD4D6;stroke-width:2;stroke-miterlimit:10;}
</style>
<g>
	<path class="st0" d="M29.3,25.7c-1,0.9-2.3,1.3-4,1.3s-3.1-0.5-4-1.3c-1.1-1-1.6-2.6-1.6-4.8c0-0.5,0-0.9,0.1-1.3c0-0.3,0-0.3,0,0
		c0.1-1,0.3-2,0.7-2.8c1.3,1.3,3.1,2,4.9,2s3.6-0.8,4.9-2c0.3,0.9,0.6,1.8,0.7,2.8l0,0c0,0.4,0.1,0.9,0.1,1.3
		C31,23.1,30.4,24.7,29.3,25.7 M23.7,11.4c0.4-0.4,1-0.7,1.6-0.7s1.2,0.2,1.6,0.7c0.1,0.1,0.1,0.1,0.2,0.2c-0.6-0.2-1.1-0.3-1.7-0.3
		s-1.2,0.1-1.7,0.3C23.6,11.5,23.7,11.4,23.7,11.4 M24.6,8.6h0.1v0.9c-0.3,0.1-0.5,0.1-0.8,0.2V9.3C23.9,8.9,24.2,8.6,24.6,8.6
		 M26.7,9.3v0.4c-0.2-0.1-0.5-0.2-0.8-0.2V8.6h0.1C26.5,8.6,26.7,8.9,26.7,9.3 M22.4,13.8c0,0,0.1-0.1,0.2-0.1
		c0.8-0.7,1.8-1.1,2.8-1.1s1.9,0.4,2.8,1.1c0,0,0.1,0.1,0.2,0.1c0.5,0.5,1,1.1,1.4,1.8c-1.1,1.3-2.7,2-4.3,2s-3.3-0.8-4.3-2
		C21.4,14.9,21.9,14.3,22.4,13.8 M32.2,19.3c-0.1-0.6-0.2-1.2-0.4-1.8c1.4,0.6,2.7,1.4,3.9,2.4c0.1,0.1,0.3,0.2,0.4,0.2
		c0.2,0,0.3-0.1,0.5-0.2c0.2-0.3,0.2-0.7,0-0.9c-1.5-1.4-3.3-2.4-5.3-3.1c-0.3-0.6-0.6-1.2-1-1.7c-0.1-0.2-0.3-0.4-0.5-0.6
		c2.5-0.8,4.8-2.1,6.7-4c0.2-0.2,0.2-0.7,0-0.9s-0.7-0.2-0.9,0c-1.9,1.9-4.3,3.2-6.9,3.9c0,0,0,0,0,0c-0.1-0.7-0.3-1.3-0.7-1.8V9.3
		c0-1.1-0.9-1.9-1.9-1.9h-0.4c-0.1,0-0.2,0-0.4,0.1c-0.1,0-0.2-0.1-0.4-0.1h-0.4c-1.1,0-1.9,0.9-1.9,1.9v1.4
		c-0.4,0.5-0.7,1.1-0.7,1.8c0,0,0,0,0,0c-2.6-0.6-5-2-6.9-3.9c-0.2-0.2-0.7-0.2-0.9,0s-0.2,0.7,0,0.9c1.9,1.9,4.2,3.2,6.7,4
		c-0.2,0.2-0.3,0.4-0.5,0.6c-0.4,0.5-0.7,1.1-1,1.7c-2,0.7-3.7,1.7-5.3,3.1c-0.3,0.2-0.3,0.6-0.1,0.9c0.1,0.1,0.3,0.2,0.5,0.2
		c0.1,0,0.3,0,0.4-0.2c1.2-1,2.5-1.9,3.9-2.4c-0.1,0.6-0.3,1.1-0.4,1.8c-2,1.7-3.6,3.8-4.5,6.3c-0.1,0.3,0,0.7,0.4,0.8
		c0.1,0,0.1,0,0.2,0c0.3,0,0.5-0.2,0.6-0.4c0.7-1.9,1.8-3.5,3.2-4.9c0,0.4,0,0.7,0,1c-0.5,3.7,0.8,7.4,3.5,10.1
		c0.1,0.1,0.3,0.2,0.5,0.2s0.3-0.1,0.5-0.2c0.2-0.2,0.2-0.7,0-0.9c-1.4-1.4-2.4-3.2-2.9-5.1c0.2,0.2,0.3,0.4,0.5,0.5
		c1.2,1.1,2.8,1.7,4.9,1.7s3.7-0.6,4.9-1.7c0.2-0.2,0.4-0.4,0.5-0.5c-0.5,1.9-1.5,3.7-2.9,5.1c-0.2,0.2-0.2,0.7,0,0.9
		c0.1,0.1,0.3,0.2,0.5,0.2s0.3-0.1,0.5-0.2c2.7-2.7,3.9-6.3,3.5-10.1c0-0.3,0-0.7,0-1c1.4,1.4,2.5,3.1,3.2,4.9
		c0.1,0.3,0.3,0.4,0.6,0.4c0.1,0,0.2,0,0.2,0c0.3-0.1,0.5-0.5,0.4-0.8C35.7,23.1,34.2,20.9,32.2,19.3"/>
	<path class="st0" d="M1.8,27.7c-0.4,0.1-0.8,0-1.1-0.2s-0.5-0.5-0.6-1C0,26.3,0,26,0.1,25.7s0.2-0.5,0.5-0.7s0.5-0.4,0.9-0.5
		L2,24.3c0.4-0.1,0.7-0.1,1-0.1c0.3,0,0.6,0.2,0.8,0.4s0.4,0.5,0.5,0.8c0.1,0.4,0.1,0.8-0.1,1.1s-0.5,0.6-0.9,0.7l-0.1-0.4
		c0.7-0.3,0.9-0.8,0.7-1.4c-0.1-0.4-0.3-0.6-0.7-0.8c-0.3-0.1-0.8-0.1-1.2,0l-0.5,0.1c-0.5,0.1-0.8,0.4-1,0.6
		c-0.2,0.3-0.3,0.6-0.2,1s0.3,0.6,0.5,0.8c0.2,0.1,0.5,0.2,0.9,0.1L1.8,27.7L1.8,27.7z"/>
	<path class="st0" d="M4,31.3c-0.4,0.2-0.7,0.2-1,0.2s-0.6-0.1-0.9-0.2c-0.2-0.2-0.4-0.4-0.6-0.7c-0.2-0.5-0.2-0.9,0-1.3
		s0.6-0.8,1.1-1L3,28.1c0.3-0.2,0.7-0.2,1-0.2s0.6,0.1,0.9,0.2c0.2,0.2,0.4,0.4,0.6,0.7c0.1,0.3,0.2,0.6,0.1,0.9
		c0,0.3-0.2,0.6-0.4,0.8c-0.2,0.2-0.5,0.5-0.8,0.6L4,31.3L4,31.3z M4.2,30.8c0.5-0.2,0.8-0.5,1-0.8c0.2-0.3,0.2-0.7,0-1
		c-0.2-0.4-0.4-0.6-0.8-0.7s-0.8,0-1.3,0.2l-0.4,0.2c-0.5,0.2-0.8,0.5-1,0.8s-0.2,0.7,0,1c0.2,0.4,0.4,0.6,0.8,0.7s0.8,0,1.2-0.2
		L4.2,30.8L4.2,30.8z"/>
	<path class="st0" d="M4.8,35.9l-0.2-0.3l1.6-4.1l-3,2.1l-0.2-0.3l3.5-2.5l0.2,0.3l-1.6,4.1l3-2.1l0.2,0.3L4.8,35.9L4.8,35.9z"/>
</g>
<path class="st0" d="M10.5,36.3l-1-1.1L6.6,38l-0.2-0.3L9.3,35l-1-1.1l0.2-0.2l2.3,2.4L10.5,36.3L10.5,36.3z"/>
<path class="st0" d="M10.8,39.3l-1-0.8l-1.1,1.4l-0.3-0.2l2.6-3.4l1.1,0.9c0.4,0.3,0.6,0.6,0.6,0.9s0,0.7-0.3,1
	c-0.2,0.2-0.4,0.3-0.6,0.4c-0.2,0.1-0.5,0-0.8-0.1l-0.3,2.1l0,0l-0.3-0.2L10.8,39.3L10.8,39.3z M10,38.3l0.9,0.7
	c0.2,0.2,0.5,0.3,0.7,0.2c0.2,0,0.5-0.1,0.6-0.4c0.2-0.2,0.2-0.5,0.2-0.7c-0.1-0.2-0.2-0.5-0.5-0.7l-0.8-0.6
	C11.2,36.8,10,38.3,10,38.3z"/>
<path class="st0" d="M15.6,42c-0.2,0.3-0.4,0.6-0.6,0.8c-0.3,0.2-0.5,0.3-0.8,0.3s-0.6,0-0.9-0.2c-0.4-0.2-0.7-0.6-0.8-1
	s0-1,0.2-1.5l0.2-0.4c0.2-0.3,0.4-0.6,0.6-0.8c0.3-0.2,0.5-0.3,0.8-0.3s0.6,0,0.9,0.2s0.5,0.3,0.7,0.6c0.2,0.3,0.2,0.5,0.2,0.9
	s-0.1,0.7-0.3,1C15.8,41.5,15.6,42,15.6,42z M15.5,41.4c0.2-0.5,0.3-0.9,0.2-1.2c-0.1-0.4-0.3-0.6-0.6-0.8c-0.4-0.2-0.7-0.2-1,0
	c-0.3,0.2-0.6,0.5-0.9,0.9l-0.2,0.4c-0.2,0.5-0.3,0.9-0.2,1.2c0.1,0.4,0.3,0.7,0.6,0.8c0.4,0.2,0.7,0.2,1.1,0s0.6-0.5,0.9-0.9
	L15.5,41.4L15.5,41.4z"/>
<path class="st0" d="M16.3,44l2,0.7l-0.1,0.3l-2.3-0.8l1.4-4l0.3,0.1C17.6,40.2,16.3,44,16.3,44z"/>
<path class="st0" d="M21.8,44.5l-1.9-0.3l-0.6,1.1l-0.4-0.1l2.3-3.9l0.3,0.1l0.8,4.5L22,45.7L21.8,44.5L21.8,44.5z M20,43.8l1.7,0.3
	l-0.4-2.4L20,43.8z"/>
<path class="st0" d="M25.3,45.6l2.1,0v0.3l-2.5,0.1l-0.1-4.3h0.4L25.3,45.6z"/>
<path class="st0" d="M31,43.3c0.1,0.4,0.1,0.7,0,1s-0.2,0.6-0.5,0.8c-0.2,0.2-0.5,0.3-0.8,0.4c-0.5,0.1-0.9,0-1.3-0.3
	c-0.4-0.3-0.6-0.7-0.7-1.3l-0.1-0.4c-0.1-0.4-0.1-0.7,0-1s0.2-0.6,0.5-0.8c0.2-0.2,0.5-0.3,0.8-0.4c0.3-0.1,0.6,0,0.9,0.1
	c0.3,0.1,0.5,0.3,0.7,0.6c0.2,0.3,0.3,0.6,0.4,1L31,43.3L31,43.3z M30.6,43c-0.1-0.5-0.3-0.9-0.6-1.1c-0.3-0.2-0.6-0.3-1-0.3
	c-0.4,0.1-0.7,0.3-0.9,0.6c-0.2,0.3-0.2,0.8-0.1,1.3l0.1,0.4c0.1,0.5,0.3,0.9,0.6,1.1c0.3,0.2,0.6,0.3,1,0.3s0.7-0.3,0.9-0.6
	c0.2-0.3,0.2-0.8,0.1-1.3L30.6,43L30.6,43z"/>
<path class="st0" d="M34.5,43.1c-0.1-0.2-0.2-0.4-0.4-0.5c-0.2-0.1-0.5-0.1-1-0.1c-0.5,0-0.8,0-1-0.1c-0.3-0.1-0.6-0.3-0.7-0.6
	c-0.1-0.3-0.1-0.6,0.1-0.9c0.2-0.3,0.5-0.5,0.9-0.6c0.3-0.1,0.5-0.1,0.8-0.1c0.2,0,0.5,0.1,0.6,0.3c0.2,0.1,0.3,0.3,0.4,0.6
	l-0.3,0.1c-0.1-0.3-0.3-0.5-0.5-0.6s-0.5-0.1-0.8,0c-0.3,0.1-0.5,0.3-0.7,0.5s-0.2,0.4-0.1,0.6c0.1,0.2,0.2,0.3,0.4,0.4
	c0.2,0.1,0.5,0.1,0.9,0.1c0.4,0,0.7,0,0.9,0c0.2,0,0.4,0.1,0.5,0.2c0.1,0.1,0.2,0.3,0.3,0.5c0.1,0.3,0.1,0.6-0.1,0.9
	s-0.5,0.5-0.9,0.6c-0.3,0.1-0.6,0.1-0.8,0.1s-0.5-0.1-0.7-0.2c-0.2-0.1-0.3-0.3-0.4-0.6l0.3-0.1c0.1,0.3,0.3,0.5,0.5,0.6
	c0.3,0.1,0.6,0.1,0.9,0c0.3-0.1,0.5-0.3,0.7-0.5S34.6,43.4,34.5,43.1z"/>
<path class="st0" d="M36.2,37.4L37,37l-0.2,1.2l-0.6,0.3L36.2,37.4L36.2,37.4z M38.9,41l-1.3,0.8l0.2,0.9L37,43.2l-0.8-4.5l0.7-0.4
	l3.5,2.9l-0.8,0.5C39.6,41.7,38.9,41.1,38.9,41z M37.4,41.1l0.9-0.5l-1.3-1.1L37.4,41.1L37.4,41.1z"/>
<path class="st0" d="M42.5,37.5c0.3,0.4,0.4,0.8,0.3,1.2s-0.3,0.8-0.7,1.1c-0.4,0.4-0.9,0.5-1.3,0.4s-0.9-0.3-1.3-0.8l-0.2-0.2
	c-0.3-0.3-0.5-0.6-0.5-1c-0.1-0.3-0.1-0.7,0-1s0.3-0.6,0.5-0.8c0.4-0.3,0.8-0.5,1.2-0.5s0.8,0.2,1.1,0.5l-0.7,0.6
	c-0.2-0.2-0.4-0.3-0.6-0.3c-0.2,0-0.4,0.1-0.6,0.2c-0.2,0.2-0.3,0.4-0.3,0.7c0,0.2,0.2,0.5,0.5,0.9l0.2,0.2c0.3,0.3,0.6,0.6,0.8,0.6
	c0.2,0.1,0.5,0,0.7-0.2c0.2-0.2,0.3-0.4,0.3-0.5s0-0.4-0.2-0.6L42.5,37.5L42.5,37.5z"/>
<path class="st0" d="M44.8,35.8l-1,1.2l0.5,0.8l-0.6,0.7l-2.2-4l0.5-0.6l4.3,1.6l-0.6,0.7L44.8,35.8L44.8,35.8z M43.5,36.3l0.7-0.8
	l-1.6-0.6L43.5,36.3z"/>
<path class="st0" d="M46.1,32.8l-0.4,0.6l1.3,0.8L46.6,35L43,32.7l0.9-1.3c0.3-0.4,0.6-0.7,0.9-0.8c0.3-0.1,0.7,0,1,0.2
	c0.2,0.2,0.4,0.3,0.5,0.5c0.1,0.2,0.1,0.5,0.1,0.7l2,0.2l0,0L47.9,33L46.1,32.8L46.1,32.8z M45.1,33l0.4-0.6
	c0.1-0.2,0.2-0.4,0.1-0.5s-0.1-0.3-0.3-0.4c-0.2-0.1-0.3-0.1-0.5-0.1c-0.2,0-0.3,0.1-0.4,0.4L44,32.3L45.1,33z"/>
<path class="st0" d="M48.2,27.6c0.4,0.2,0.7,0.4,0.9,0.7c0.2,0.3,0.4,0.6,0.4,0.9s0,0.6-0.2,1c-0.2,0.3-0.3,0.6-0.6,0.8
	c-0.3,0.2-0.6,0.3-0.9,0.3c-0.3,0-0.7-0.1-1.1-0.2l-0.2-0.1c-0.4-0.2-0.7-0.4-0.9-0.7s-0.4-0.6-0.4-0.9s0-0.6,0.2-1s0.4-0.6,0.6-0.8
	c0.3-0.2,0.6-0.3,0.9-0.3s0.7,0.1,1.1,0.2L48.2,27.6L48.2,27.6z M47.6,28.3c-0.4-0.2-0.8-0.2-1-0.2s-0.5,0.2-0.6,0.5s-0.1,0.5,0,0.8
	s0.4,0.5,0.8,0.6l0.2,0.1c0.4,0.2,0.7,0.2,1,0.2c0.3,0,0.5-0.2,0.6-0.5s0.1-0.5,0-0.8s-0.4-0.5-0.8-0.6L47.6,28.3L47.6,28.3z"/>
<path class="st0" d="M49.7,25.1c-0.2,0-0.3,0-0.4,0.1c-0.1,0.1-0.2,0.3-0.4,0.5c-0.2,0.3-0.3,0.5-0.5,0.6c-0.4,0.4-0.8,0.6-1.2,0.5
	c-0.2,0-0.4-0.2-0.6-0.3s-0.2-0.4-0.3-0.6c0-0.3,0-0.5,0-0.8c0.1-0.3,0.2-0.5,0.3-0.8c0.2-0.2,0.3-0.4,0.6-0.4
	c0.2-0.1,0.5-0.1,0.7,0l-0.2,0.9c-0.2,0-0.3,0-0.5,0.1s-0.2,0.2-0.3,0.5c0,0.2,0,0.4,0,0.5c0.1,0.1,0.2,0.2,0.3,0.2
	c0.1,0,0.3,0,0.4-0.1c0.1-0.1,0.2-0.3,0.4-0.5c0.3-0.5,0.5-0.8,0.8-0.9s0.6-0.2,0.9-0.1c0.4,0.1,0.6,0.3,0.8,0.6s0.2,0.7,0,1.2
	c-0.1,0.3-0.2,0.6-0.4,0.8s-0.4,0.4-0.6,0.5c-0.2,0.1-0.5,0.1-0.8,0l0.2-0.9c0.5,0.1,0.8-0.1,0.9-0.7c0-0.2,0-0.4,0-0.5
	S49.8,25.2,49.7,25.1L49.7,25.1z"/>
<path class="st1" d="M25.3,38.7c10.4,0,18.8-8.4,18.8-18.8S35.7,1,25.3,1S6.5,9.4,6.5,19.8S14.9,38.7,25.3,38.7z"/>
<line class="st1" x1="12.1" y1="33.1" x2="38.5" y2="6.6"/>
</svg>
