<?xml version="1.0" encoding="utf-8"?>
<!-- Generator: Adobe Illustrator 28.2.0, SVG Export Plug-In . SVG Version: 6.00 Build 0)  -->
<svg version="1.1" id="Capa_1" xmlns="http://www.w3.org/2000/svg" xmlns:xlink="http://www.w3.org/1999/xlink" x="0px" y="0px"
	 viewBox="0 0 365.7 551.6" style="enable-background:new 0 0 365.7 551.6;" xml:space="preserve">
<style type="text/css">
	.st0{fill:#D2D5BF;}
</style>
<path d="M191.7,329.2c2.2,0,2.7,1.8,3.2,4.4c0.3,1.3,1.6,2.7,4,2.7c2.1,0,6.7-1.2,6.7-7.3c0-3.3-2.2-7-7-7c-5.8,0-9.1,3.5-12.3,10.5
	H186c0.1-4.9-0.4-9-0.7-10.2l-0.4-0.2c-3.8,1.3-14.8,2-19,2l0.3,1.4h2.7c1.2,0,1.6,0.5,1.7,1.3c0.6,2.8,0.8,7.7,0.8,13.3v6
	c0,6.7-0.2,10.4-0.4,12.3c-0.2,1.8-1,2.4-5.1,2.5l-0.5,1.3c3.5-0.1,8.2-0.4,13.4-0.4c5.5,0,10.5,0.3,14.9,0.4l0.4-1.3
	c-6.7-0.4-7.8-0.8-7.9-3.1c-0.1-2.2-0.2-7.1-0.2-18.9c0-2.3,0.2-3.1,0.7-4.3C187.7,331.5,189.3,329.2,191.7,329.2z"/>
<rect x="132.8" y="371.4" width="129" height="1"/>
<path d="M269.7,358.6L269.7,358.6c-3.4,0-6,2.6-6,6c0,3.5,2.7,6,6,6s6-2.5,6-6C275.6,361.2,272.9,358.6,269.7,358.6z"/>
<path d="M189.1,163.8c9.3,0,17.8-3.9,20.8-13.9l-1.2-0.7c-2.4,6.1-6.1,10.9-13.9,10.9c-5.8,0-9-2.1-10.9-5.8
	c-1.6-3.2-2.5-7.6-2.4-10.9c5.3,0,11.1,0,12.8,0c8.9,0,12.8-0.8,13.9-1.3c1.1-0.7,1.6-1.7,1.6-3.4c0-4.2-2.5-16-20.1-16
	c-15.3,0-23.8,8-23.8,20.8c0,5.8,1.6,10.8,4.6,14C174.4,161.5,180.1,163.8,189.1,163.8z M189.6,124L189.6,124c6,0,7.2,9,7.2,13.2
	c0,2.1-1,3.3-2,3.7c-1.2,0.5-3.3,0.6-6.9,0.7c-2.1,0-4.2,0-6.4,0.1C181.8,130.5,184.9,124,189.6,124z"/>
<path d="M189.7,228.3c9.7,0,17.5-4.2,19.9-13.8l-1.2-0.6c-2.7,7.8-7.1,11-13.5,11c-4.7,0-8.5-1.4-10.9-7.5c-1.2-2.8-1.7-7-1.7-10.8
	c0-10.8,3-18,8.9-18c4.9,0,6.7,3.7,6.7,8.6c0,1.6-0.2,2.5-0.4,4.1c-0.1,0.8,0.5,1.5,0.7,1.7c0.8,0.6,2,0.9,3,0.9c3.2,0,8-1.2,8-5.8
	c0-8.1-8.8-10.9-18-10.9c-16.4,0-24.8,8.5-24.8,21.7c0,4.9,1.1,9.7,4.5,13.3C174.6,226.1,179.6,228.3,189.7,228.3z"/>
<path d="M244.2,173.5c2-1.7,3.8-3.6,3.8-5.6c0-2.1-1-3.2-2.5-3.2c-1.6,0-3.4,0.6-5.1,3.2c-1.3,1.7-7.3,11.6-9.4,14.6l1,0.6
	C238.4,178,242.5,174.9,244.2,173.5z"/>
<path d="M255.4,224.1c-1.3,0-1.9-0.5-1.9-3.4v-22.6c0-1.6-0.7-3.9-1.6-4.9c-1.9-2.5-5.8-6-16.4-6c-15.8,0-21.5,6.9-21.5,11.5
	c0,3.5,2.8,5,5.9,5c1.7,0,3.8-0.5,5-1.6c0.7-0.6,0.9-1.4,0.7-2.3c-0.1-0.8-0.2-2.6-0.2-3.6c-0.1-4.1,1.8-7.7,7.3-7.7
	c4.9,0,6.6,3.8,6.7,8.7l0.1,3.3c-3.7,2.1-15.4,5.3-23,7.9c-3.5,1.1-5.2,4.3-5.2,8.1c0,6.6,4,11.7,12.4,11.7c5.7,0,10.7-2.4,15.4-7.4
	c0.5,3,1.6,7.4,9.1,7.4c7.9,0,12-3.6,13.6-11.3l-1.5-0.6C259.6,220.6,257.1,224.1,255.4,224.1z M239.4,212.4
	c-0.1,1.7-0.3,3.6-0.6,4.7c-0.6,1.9-1.7,6.2-6.4,6.2c-3.9,0-5.5-4.5-5.5-8.1v-0.1c0-5.8,1.8-7.6,4.1-9c2.1-1.1,6.4-3,8.7-3.9
	L239.4,212.4z"/>
<path d="M148.6,292.2l0.6-1.3c-3.8-0.2-4.6-0.5-4.8-2.4c-0.2-2.7-0.3-5.5-0.3-9.4v-12.9c0-2.1,0.4-3.7,1.4-5.1c2-3,4.9-4.8,7.9-4.8
	c2.3,0,3.6,0.9,4.5,2.6c0.7,1.1,0.8,2.4,0.8,5.7v11.5c0,6-0.2,9.1-0.3,11.6c-0.2,2.7-1,3-4.8,3.2v1.3c2.5,0,5.8-0.4,11.8-0.4
	c5.1,0,10.8,0.4,13.2,0.4l0.1-1.3c-4-0.2-4.9-0.5-5-2.4c-0.2-2.7-0.2-5.5-0.2-9.4v-13.4c0-1.6,0.2-3.1,0.8-4.3c1.6-3.2,4.3-5,7.8-5
	c2.7,0,4.3,1.1,5.2,2.7c0.5,1.1,0.8,2.2,0.7,14.3c0,10-0.1,12.9-0.4,14.7c-0.2,2-0.7,2.6-4.4,2.8v1.3c1.6,0,4-0.5,11.1-0.4
	c6,0.1,10,0.4,13.7,0.4l0.2-1.3c-4.9-0.5-5.5-0.6-5.5-2.7v-25.5c0-1.9-0.5-3.8-1.7-5.8c-1.6-2.3-4.8-4.8-10.7-4.8
	c-8.6,0-12.7,4-17.1,7.3c-0.5-1-1-2.5-1.9-3.7c-1.6-2-4.5-3.6-9.5-3.6c-8.2,0-13.7,4.4-17.5,7.4c0-1.8-0.5-5.6-0.9-7.1
	c-6.1,0.9-12.9,1.4-19.1,1.4l-0.2,1.1c4.6,0,4.9,0.5,5,1.6c0.3,2.6,0.4,5.9,0.4,11.2v8.5c0,6-0.1,9.4-0.3,12c-0.1,2.4-1,2.7-5.2,2.8
	v1.3c2.2,0,5.9-0.4,12.2-0.4C141.3,291.8,147,292.2,148.6,292.2z"/>
<path d="M211.2,281.5c0,6.6,4,11.7,12.4,11.7c5.7,0,10.7-2.4,15.4-7.4c0.5,3,1.6,7.4,9.1,7.4c7.9,0,12-3.6,13.6-11.3l-1.5-0.6
	c-0.9,4.3-3.4,7.8-5.1,7.8c-1.3,0-1.9-0.5-1.9-3.4c0-6.4,0-20.4,0-22.6c0-1.6-0.7-3.9-1.6-4.9c-1.9-2.5-5.8-6-16.4-6
	c-15.8,0-21.5,6.9-21.5,11.5c0,3.5,2.8,5,5.9,5c1.7,0,3.8-0.5,5-1.6c0.7-0.6,0.9-1.4,0.7-2.3c-0.1-0.8-0.2-2.6-0.2-3.6
	c-0.1-4.1,1.8-7.7,7.3-7.7c4.9,0,6.6,3.8,6.7,8.7l0.1,3.3c-3.7,2.1-15.4,5.3-23,7.9C213,274.5,211.2,277.7,211.2,281.5z M226.7,280
	c0-5.8,1.8-7.6,4.1-9c2.1-1.1,6.4-3,8.7-3.9l-0.3,10.2c-0.1,1.7-0.3,3.6-0.6,4.7c-0.6,1.9-1.7,6.2-6.4,6.2
	C228.2,288.2,226.7,283.7,226.7,280L226.7,280z"/>
<path d="M251.7,310.7h-5.5l-1.1,3.7c-0.7-3-3.2-4.7-7.1-4.7c-3.1,0-5.9,0.8-9.6,3.1c-11.5,7-20.8,28.5-20.8,41.1
	c0,4.9,1.7,9.1,6.6,9.1c9.3,0,18.1-12.6,22-18.5c0.1,0,0.2,0,0.2,0c-0.6,2-1.6,5.6-1.9,7c-1,3.7-2.9,11.5,2.8,11.5
	c6.4,0,11.9-8.1,13.7-12.4l-1-1.3c-1.7,4.2-6.1,10.6-9.9,10.6c-1.6,0-1.7-2-1.2-4.1C241.8,342.5,246.9,325.2,251.7,310.7z
	 M234.5,343.6c-5.4,9.4-11.8,16.5-17.4,16.5c-3,0-3.6-3.6-3.6-5.9v-0.1c0-10.5,6-25.8,13.5-35.6c4.4-5.8,7.9-7.1,11.3-7.1
	c3.4,0,5,2,5,6.5C243.3,322.2,237.8,337.8,234.5,343.6z"/>
<g>
	<g>
		<path class="st0" d="M102.6,120.1c0-12.1-0.1-18.2-0.2-20.8c-0.1-1.6-0.5-2.8-3-3l-7.5-0.9l0.6-1.4c1.6,0,13.6,0.4,19.2,0.4
			c6.9,0,13.7-0.4,22.7-0.4c12.4,0,16.8,1.3,20.6,4.4c3.2,2.8,4.3,6.9,4.3,10.9c0,12.3-8.7,17.1-26.1,18.6v0.6
			c13.8,1.7,20.3,3.6,23.8,9.2c3.3,4.1,4.2,8.5,4.7,20.2c0.1,4,1.5,5.8,5.3,5.8c0.9,0,2.8-0.3,4.1-0.6l-0.5,1.5
			c-1.4,1-5.8,1.6-10.1,1.6c-11.6,0-19.3-3.3-19.9-15c-0.2-3.7-0.3-6.7-0.5-10c-0.8-10.1-5.4-11.6-16.7-11.6h-1.8v9.2
			c0,12.1,0,18.1,0.3,21.5c0.1,2.5,2.2,3,9.1,3.7l-0.3,1.5c-3.8,0-11-0.4-17.9-0.4c-8.4,0-17.6,0.4-20.3,0.4l0.2-1.5
			c6.5-0.5,9.2-1.1,9.3-3.6c0.2-2.5,0.8-7.7,0.8-21.7v-18.6H102.6z M121.5,127.7h1.7c11.3,0,16.5-3.7,16.5-16.8c0-5-1-8.9-2.7-11.3
			c-1.6-2.3-4.4-3.7-9.3-3.7c-1.9,0-2.9,0.2-4,0.4s-1.6,1.2-1.7,2.7c0,1.2-0.5,5.4-0.5,19V127.7z"/>
	</g>
</g>
<g>
	<path d="M141.5,492.1c-1.1-0.5-1.3-1.7-0.6-3.1c1-2,2.4-3.6,3.9-4.8c2.1-1.8,3.6-2.2,4.6-1.7c0.7,0.3,0.8,0.9,0.5,1.4
		c-0.2,0.4-0.5,0.6-0.8,0.9c-0.2,0.2-0.3,0.4-0.3,0.6s0.2,0.4,0.5,0.6c0.4,0.2,1.3,0.1,1.8-0.9s0.4-2.1-1.3-3
		c-1.4-0.7-2.8-0.4-4.1-0.1c-2.8,0.9-5.4,3.3-6.5,5.8c-0.9,1.9-0.8,3.6,1.2,4.6c2.1,1,4.6,0.3,6.1-0.8l0.4-0.9h-0.1
		C145.1,492.2,143.2,492.9,141.5,492.1z"/>
	<path d="M162.4,482.7c0.6-0.2,1.2-0.6,1.4-1c0.2-0.3,0.1-0.6-0.1-0.7c-0.3-0.2-0.9,0-1.4,0.3c-0.7,0.5-3.1,2.1-4,2.7l0.2,0.3
		C160.2,483.5,161.7,483,162.4,482.7z"/>
	<path d="M159.7,490.5c0.9-2.1,0.5-3.9-1.6-4.7H158c-1.1-0.4-2.2-0.4-3.4-0.1c-2.8,0.8-5.7,3.8-6.7,6.4c-1.2,2.9,0.3,4.1,1.7,4.7
		c1.2,0.5,2.2,0.5,3.5,0.1C155.8,496,158.6,493,159.7,490.5z M152.3,495.9c-1,0.6-1.7,0.7-2.4,0.4c-0.8-0.3-1.1-1.2-0.5-2.7
		c0.9-2.1,3.7-5.5,5.7-6.8c1.2-0.8,2.1-1,2.9-0.6l0,0c0.9,0.4,1,1.3,0.5,2.4C157.5,490.8,154.4,494.7,152.3,495.9z"/>
	<path d="M171.6,502.9c-0.4-0.1-0.2-0.6,0.1-1c1.1-1.7,3.3-4.7,4.9-6.9c0.4-0.7,1.3-2,0.9-2.8c-0.2-0.3-0.5-0.6-1-0.8
		c-2.5-0.7-5.2,1.4-7.2,3.1c0.4-0.6,0.7-1.1,1.1-1.7c0.6-1,1.4-2.7-0.3-3.2c-2.4-0.7-5.1,1.3-7,3c0.7-1.1,2.2-3.6,2.6-4.3
		c-1.3,0-2.9-0.3-4.1-0.5l-0.2,0.3l1.4,0.4c0.3,0.1,0.3,0.3,0.2,0.6c-1.2,2.3-4.1,6.8-6.7,10.3c0.6,0,1.4,0.2,2.1,0.3
		c1.2-1.9,2.1-3.2,2.8-4.2c2.3-3.2,5.9-5.8,7.5-5.3c0.7,0.2,0.6,0.8,0.1,1.6c-1.2,2-4.5,6.9-6.3,9.4c0.6,0,1.4,0.2,2.1,0.3
		c1.3-2.1,2.2-3.3,2.9-4.3c1.9-2.6,5.5-5.7,7.5-5.2c0.6,0.2,0.6,0.9,0.1,1.6c-1.5,2.2-3.3,4.6-4.9,6.8c-1.1,1.4-1.5,2.6-0.2,3
		c1.5,0.4,3.4-0.4,4.7-1.9l-0.1-0.3C173.9,502.2,172.4,503.1,171.6,502.9z"/>
	<path d="M184.4,492.5L184.4,492.5c-1.2-0.2-2.3,0.1-3.4,0.7c-2.5,1.4-4.6,5.1-5,7.8c-0.4,3.1,1.3,3.9,2.8,4.1
		c1.3,0.2,2.3,0,3.5-0.7c2.3-1.4,4.3-5,4.7-7.7C187.4,494.5,186.7,492.8,184.4,492.5z M185.4,495.1c-0.4,2.4-2.4,7-4.2,8.7
		c-0.8,0.8-1.5,1.1-2.3,0.9c-0.8-0.1-1.4-0.8-1.1-2.5c0.3-2.3,2.2-6.2,3.9-8c0.9-1,1.8-1.4,2.6-1.3l0,0
		C185.3,493.1,185.6,493.9,185.4,495.1z"/>
	<path d="M195.7,505.6c-0.5,0-0.2-0.9-0.1-1.5c0.3-1,0.7-2.6,1.4-4.8c2-6.4,3.8-11.8,4.6-13.6c-0.9,0.2-3,0.3-4.3,0.4l-0.2,0.3
		c0.8,0,1.2,0.1,1.6,0.1c0.2,0,0.4,0.1,0.3,0.5c-0.2,1-1,3.5-2.3,7.3c-0.3-0.8-1-1.2-2-1.2c-1.2,0-2.3,0.4-3.3,1.2
		c-2.7,2-4.6,6-4.7,9.2c0,1.4,0.5,2.7,1.9,2.8c2.5,0.1,4.6-2.4,5.7-4.2c-0.1,0.4-0.2,0.8-0.4,1.2c-0.5,1.5-0.7,3.3,0.6,3.3
		c1.5,0,2.9-1.2,3.9-3.1l-0.2-0.3C197.6,504.2,196.5,505.6,195.7,505.6z M194,501.4c-1.5,2.7-3,4.1-4.2,4.1c-0.8,0-1-0.9-1-1.7l0,0
		c0.1-3.2,1.9-6.9,3.6-8.8c0.9-1,1.8-1.4,2.6-1.4c1,0,1.3,1,1.2,1.6C196.1,496.4,194.9,499.9,194,501.4z"/>
	<path d="M208,504.9c-0.4,0-0.4-0.5-0.3-1.1c0.4-2.9,1.4-7.8,2.2-11.3l-1.9,0.2l-0.2,0.9c-0.3-0.7-0.9-1.1-1.9-1
		c-0.9,0.1-1.6,0.4-2.6,1.1c-2.6,2-4.4,7.2-4.2,10.4c0.1,1.3,0.7,2.4,2,2.3c2.3-0.2,4.2-3.2,4.9-4.7h0.1c-0.1,0.4-0.2,1.1-0.3,1.4
		c-0.2,1.1-0.4,2.9,1.1,2.8c1.8-0.2,3.1-2.3,3.5-3.5l-0.3-0.3C209.8,503.3,208.8,504.8,208,504.9z M205.8,500.9
		c-1.1,2.7-2.5,4.4-3.7,4.5c-0.7,0.1-0.9-0.7-0.9-1.3l0,0c-0.2-2.6,1-6.8,2.6-9.3c0.8-1.3,1.5-1.6,2.3-1.7c0.7-0.1,1.2,0.4,1.3,1.5
		C207.4,495.6,206.4,499.5,205.8,500.9z"/>
	<path d="M221.5,493.9c-0.7,2.6-1.2,4.9-1.7,7.1c-0.7-3-2.1-8-2.4-10.4c-0.8,0.6-2.6,1.3-3.7,1.6v0.4c1.6-0.5,1.7-0.5,1.9,0.1
		c0.5,1.5,1.9,6.4,2.7,10.4c0.2,0.5,0.4,1.1,0.6,1.2c-0.8,3.8-1.5,5.7-2.6,6c-0.4,0.1-0.8-0.2-1.1-0.8c-0.1-0.2-0.3-0.5-0.8-0.4
		s-0.9,0.7-0.7,1.4c0.2,0.7,0.8,1.4,1.9,1.2c1.7-0.4,2.5-1.8,3.7-6.8c1-4.3,2-8.3,3.1-11.5c0.9-2.8,1.8-3.9,2.5-4.3l-0.1-0.3
		C223.1,489.3,222.3,491,221.5,493.9z"/>
	<path d="M236.8,493.8c-0.1,2.3-0.9,4.2-2.6,4.8c-1.2,0.4-2.1-0.2-2.7-1.8c-0.8-2.1-1-4.2-0.8-6.1c0.2-2.8,0.9-4.1,2-4.5
		c0.7-0.3,1.2,0,1.4,0.6c0.2,0.4,0.1,0.8,0.1,1.2c0,0.2,0.1,0.5,0.3,0.6s0.4,0.2,0.7,0.1c0.5-0.2,1-0.9,0.6-1.9s-1.3-1.7-3.1-1.1
		c-1.4,0.5-2.3,1.8-2.9,2.9c-1.3,2.7-1.3,6.2-0.4,8.7c0.8,2,2.1,3,4.1,2.3c2.2-0.8,3.4-3.1,3.6-5L236.8,493.8L236.8,493.8z"/>
	<path d="M240.8,482.3L240.8,482.3c-1.1,0.5-1.8,1.3-2.4,2.4c-1.3,2.6-1.1,6.8,0.1,9.2c1.4,2.8,3.2,2.6,4.6,1.9
		c1.2-0.5,1.9-1.3,2.5-2.5c1.2-2.4,0.9-6.6-0.3-9C244.4,482.3,242.9,481.3,240.8,482.3z M244.4,493.5c-0.2,1.1-0.7,1.7-1.4,2
		s-1.6,0.1-2.3-1.5c-1-2.1-1.6-6.4-1.1-8.8c0.2-1.4,0.7-2.2,1.5-2.5l0,0c0.9-0.4,1.6,0.1,2.1,1.3
		C244.2,486.2,244.9,491.1,244.4,493.5z"/>
	<path d="M257.9,488.7c-0.3,0.1-0.5-0.1-0.5-0.7c-0.2-2.6-0.1-5.9-0.2-8.5c0-1.1-0.2-2.6-1-2.9c-0.3-0.1-0.7-0.1-1.2,0
		c-2.4,0.9-3.6,4.3-4.1,6.7c-0.1-1.8-0.3-3.6-0.4-5.1c-1,0.7-2.3,1.4-3.4,2v0.3l1.3-0.5c0.3-0.1,0.4,0,0.4,0.4
		c0.4,2.6,0.7,8.1,0.7,12.2c0.4-0.3,1.3-0.7,1.8-0.9c-0.2-2.7-0.1-4-0.2-5.5c0-2.4,0.9-7.6,3.1-8.4c0.7-0.2,1,0.5,1,1.4
		c0.1,2.4,0.1,5.7,0.1,8.2c0,1.9,0.5,3,1.8,2.6c1.4-0.5,2.4-2.3,2.6-4.2l-0.3-0.2C259.3,486.8,258.6,488.5,257.9,488.7z"/>
	<path d="M273.6,481.7c-0.5,2.4-1.7,3.9-3.5,4.2c-1.3,0.2-2-0.8-2.2-2.4c-0.1-0.9-0.2-2.2-0.1-3c1.4-0.5,3.8-1.8,5-2.9
		c0.6-0.5,1.3-1.3,1.1-2.5c-0.2-1.3-1-2.4-2.8-2.1c-1.1,0.2-2.2,0.9-3,1.9c-1.9,2.4-2.7,6.2-2.2,8.9c0.3,2,1.4,3.4,3.4,3.1
		c2.3-0.4,4-2.2,4.8-4.2l-0.2-1H273.6z M270.8,473.5L270.8,473.5c0.7-0.1,1.1,0.3,1.3,1.4c0.2,1.1-0.1,2.4-1.1,3.3
		c-0.6,0.5-2,1.3-3.2,1.7C268.4,474.9,270,473.7,270.8,473.5z"/>
	<path d="M283.1,473.1c-0.3-0.4-1.2-0.9-2.3-0.8c-1,0-1.8,0.3-2.5,1.1c-0.8,0.8-1.2,1.9-1.1,3c0.1,1,0.5,1.7,1.1,2.3
		c0.7,0.9,1.8,1.9,2.3,2.6c0.4,0.5,0.6,1,0.6,1.6c0,1.7-1.1,2.4-2.2,2.5c-1.6,0.1-2.5-0.7-2.5-2.4c0-0.6,0.2-1.6,0.3-2.1l-0.4,0.1
		c-0.3,1.6-0.8,3.2-1.1,3.9c1,0.6,2.4,0.9,3.5,0.8c1.3-0.1,2.3-0.5,3-1.3c0.6-0.6,1.1-1.6,1.1-2.8c0-1.1-0.4-1.7-1.1-2.4
		c-0.6-0.6-1.7-1.8-2.3-2.4c-0.5-0.5-0.6-0.9-0.7-1.6c-0.1-1.2,0.6-2.5,1.9-2.5c1.5-0.1,2.3,1.1,1.8,3.8h0.4
		c0.2-1.2,0.6-2.7,1.2-4.1l-0.2-0.3L283.1,473.1z"/>
	<path d="M287.4,485c-0.6,0-0.7-0.4-0.5-0.9c0.8-2.6,3.1-8.3,3.9-10.3h2.7l0.3-0.4l-2.8-0.2c0.6-1.6,1.4-3.5,1.7-4
		c-0.7,0.2-1.5,0.3-2.3,0.4c-0.3,0.8-0.9,2.3-1.3,3.4l-1.7-0.1l-0.3,0.4l1.7,0.3c-1,2.5-2.6,6.6-3.7,9.5c-0.5,1.3-0.6,2.5,1.2,2.7
		c1.5,0.1,3.4-0.9,4.5-2.7l-0.2-0.7C290.1,483.5,288.8,485.1,287.4,485z"/>
	<path d="M300.2,471.1c0.6,0.1,1.3-0.3,1.5-1c0.1-0.6-0.1-1.2-0.7-1.3l0,0c-0.6-0.1-1.3,0.3-1.5,1.1
		C299.2,470.5,299.6,471,300.2,471.1z"/>
	<path d="M294.6,485.7c-0.3-0.1-0.3-0.3-0.1-0.8c1.3-2.9,4.7-9.5,5.5-10.7v-0.1c-1.1,0.2-3.1,0-4.2-0.1l-0.2,0.3
		c0.6,0.1,1.3,0.2,1.6,0.3c0.3,0.1,0.3,0.2,0.1,0.4c-0.9,2.1-3.1,6.2-4.3,8.4c-0.8,1.6-1.1,2.7,0.2,2.9c1.6,0.3,3.3-0.8,4.5-2.3
		l-0.2-0.4C296.9,484.8,295.5,485.9,294.6,485.7z"/>
	<path d="M300.6,487.1c-0.4-0.1-0.3-0.5,0-1c0.8-1.6,2.3-4,4.9-8.2s4.6-7.3,5.5-8.6c-1,0-2.7-0.3-4.2-0.7l-0.2,0.3l1.3,0.4
		c0.3,0.1,0.4,0.2,0.3,0.5c-0.7,1.3-1.7,3-4.5,7.6c-1.8,2.9-3.2,5.2-4.7,7.5c-0.6,1-1.3,2.4,0.2,2.7c1.5,0.4,3.4-0.5,4.8-2l-0.2-0.4
		C302.8,486.5,301.2,487.2,300.6,487.1z"/>
	<path d="M315.7,479.5L315.7,479.5c-1.1-0.5-2.2-0.5-3.4-0.2c-2.8,0.7-5.7,3.7-6.8,6.3c-1.2,2.9,0.2,4.1,1.7,4.7
		c1.2,0.5,2.2,0.6,3.5,0.2c2.6-0.7,5.4-3.7,6.5-6.3C318.1,482.1,317.8,480.4,315.7,479.5z M316,482.3c-1,2.3-4.1,6.1-6.3,7.3
		c-1,0.6-1.7,0.6-2.5,0.3c-0.7-0.3-1.1-1.2-0.5-2.7c0.9-2.1,3.7-5.5,5.8-6.7c1.2-0.7,2.1-0.9,2.9-0.6l0,0
		C316.5,480.2,316.5,481.1,316,482.3z"/>
</g>
</svg>
