<?xml version="1.0" encoding="utf-8"?>
<!-- Generator: Adobe Illustrator 28.2.0, SVG Export Plug-In . SVG Version: 6.00 Build 0)  -->
<svg version="1.1" id="Capa_1" xmlns="http://www.w3.org/2000/svg" xmlns:xlink="http://www.w3.org/1999/xlink" x="0px" y="0px"
	 viewBox="0 0 365.7 551.6" style="enable-background:new 0 0 365.7 551.6;" xml:space="preserve">
<style type="text/css">
	.st0{fill:#1D1D1B;}
	.st1{fill:#33563A;}
</style>
<g>
	<path class="st0" d="M157.3,491.1c0.4-4.2,0.9-7.9,1.1-9.7l-1.9,0.3l-0.2,1.4c-0.5-1.2-1.4-1.4-2.2-1.2c-1,0.2-1.7,0.6-2.3,1.3
		c-2.7,2.5-3.9,7.6-3.3,10.6c0.3,1.6,1,2.5,2.5,2.3c2-0.4,3.6-2.7,4.5-4.7c-0.4,4-1,8.8-1.1,9.3c-0.1,0.6-0.3,0.8-0.8,0.9
		c-0.4,0.2-1,0.4-1.3,0.5l-0.1,0.3c1.1-0.3,2.2-0.5,3.2-0.7c1-0.2,2.1-0.4,2.8-0.5l0.1-0.3l-1.3,0.1c-0.3,0-0.5-0.1-0.5-0.5
		C156.6,499.3,156.8,496.6,157.3,491.1z M154.9,491.2c-0.8,2-1.9,3.6-3.1,3.8c-0.6,0.1-1.1-0.6-1.2-1.4c-0.5-2.8,0.3-6.6,1.7-9.3
		c0.6-1.2,1.3-1.8,2-1.9l0,0c1.1-0.2,1.5,0.7,1.6,1.7C156.3,485.4,155.5,489.5,154.9,491.2z"/>
	<path class="st0" d="M168.8,493c-0.4,0-0.4-0.4-0.3-0.9c0.5-3.5,1.9-8.9,2.8-11.7c-1.1,0.5-2.9,0.8-4.1,1l-0.1,0.3l1.5-0.1
		c0.3,0,0.3,0.1,0.3,0.3c-0.2,1.2-0.7,3.2-1.3,5.3c-0.8,2.8-2.7,6-4.7,6.2c-0.7,0.1-0.8-0.8-0.6-1.7c0.6-3.3,2.1-9.6,2.7-10.9
		c-1,0.4-2.6,0.7-4,1l-0.2,0.3l1.3-0.1c0.4-0.1,0.4,0.1,0.4,0.4c-0.1,0.7-1.5,6.2-2.1,9.1c-0.4,1.8-0.3,3,1.6,2.9
		c2-0.1,3.8-2,5.1-4.5c-0.2,0.6-0.2,0.9-0.3,1.3c-0.3,1.3-0.5,2.9,1,2.8c1.7-0.1,3.1-2,3.7-3.5l-0.3-0.3
		C170.7,491.6,169.6,492.9,168.8,493z"/>
	<path class="st0" d="M174.7,487.3c1.5-0.3,4.1-1.1,5.5-1.9c0.7-0.4,1.5-1.1,1.5-2.2c0-1.3-0.5-2.5-2.4-2.6c-1.1,0-2.3,0.4-3.3,1.3
		c-2.3,2-3.7,5.6-3.8,8.3c0,2,0.7,3.6,2.8,3.6c2.3,0,4.3-1.4,5.5-3.3l0-1l-0.2,0c-0.9,2.3-2.4,3.6-4.2,3.5c-1.3,0-1.8-1.1-1.7-2.8
		C174.3,489.4,174.5,488.1,174.7,487.3z M179,481.1L179,481.1c0.7,0,1,0.5,1,1.6c0,1.1-0.5,2.4-1.7,3.1c-0.7,0.3-2.2,0.9-3.4,1.1
		C176.3,482,178.1,481,179,481.1z"/>
	<path class="st0" d="M195.1,478.4c0.1-0.6-0.1-1.2-0.7-1.3l0,0c-0.6-0.1-1.3,0.3-1.5,1.1c-0.2,0.7,0.2,1.2,0.8,1.3
		C194.2,479.5,194.9,479.1,195.1,478.4z"/>
	<path class="st0" d="M191.1,492.1c-0.7,1-2.2,2.1-3,2c-0.3-0.1-0.3-0.3-0.1-0.8c1.3-2.9,4.6-9.5,5.5-10.7l0-0.1
		c-1.1,0.2-3.1,0-4.2-0.1l-0.2,0.3c0.6,0.1,1.3,0.2,1.6,0.3c0.3,0.1,0.3,0.2,0.1,0.5c-0.9,2.1-3.1,6.2-4.2,8.5
		c-0.8,1.6-1,2.7,0.3,2.9c1.6,0.3,3.3-0.9,4.5-2.4L191.1,492.1z"/>
	<path class="st0" d="M203.5,495.4l-0.1-0.3c-0.8,0.9-2.3,1.9-3.1,1.7c-0.3-0.1-0.3-0.3,0-0.9c1.3-2.3,3.2-5,4.6-7.1
		c0.6-0.9,1.3-2.2,0.8-3c-0.2-0.3-0.5-0.5-1-0.6c-2.4-0.6-5.3,1.5-7.1,3.2c0.9-1.6,1.8-3.1,2.5-4.4c-1.3,0.1-2.8-0.1-3.9-0.3
		L196,484l1.3,0.3c0.3,0.1,0.3,0.2,0.2,0.5c-1.1,2.4-3.9,7.1-6.2,10.5c0.5,0,1.4,0.2,2,0.3c1.4-2.3,2.1-3.4,2.9-4.7
		c1.4-2,5-5.8,7.3-5.2c0.7,0.2,0.5,1,0.1,1.7c-1.3,2.1-3.1,4.8-4.5,6.9c-1,1.6-1.3,2.8,0,3.1C200.4,497.8,202.3,496.9,203.5,495.4z"
		/>
	<path class="st0" d="M208.4,493c0.3,1.1,0.9,2.4,1.1,3.2c0.2,0.6,0.1,1.1-0.1,1.7c-0.6,1.5-1.9,1.8-3,1.4c-1.5-0.5-2.1-1.6-1.4-3.2
		c0.3-0.6,0.8-1.4,1.1-1.8l-0.4,0c-0.9,1.4-1.9,2.6-2.5,3.2c0.7,0.9,1.9,1.7,2.9,2.1c1.2,0.4,2.3,0.4,3.3,0c0.8-0.3,1.7-1.1,2.1-2.2
		c0.4-1,0.3-1.7-0.1-2.6c-0.3-0.8-0.9-2.3-1.2-3.1c-0.3-0.6-0.3-1.1,0-1.8c0.4-1.2,1.5-2,2.7-1.6c1.4,0.5,1.7,1.9,0.2,4.2l0.3,0.1
		c0.7-1,1.6-2.2,2.7-3.3l-0.1-0.3l-1,0.7c-0.1-0.5-0.8-1.3-1.8-1.7c-0.9-0.3-1.8-0.4-2.7,0c-1,0.5-1.8,1.3-2.2,2.4
		C208,491.4,208.1,492.2,208.4,493z"/>
	<path class="st0" d="M226.4,496.5c0.5-1.3,0.7-2.8-0.8-3.4c-2.1-0.9-5,0.8-6.7,1.9c1.1-1.4,3.3-4,4.3-5l0-0.1
		c-0.5,0-1.7-0.2-2.1-0.3c-0.3,0.4-1.3,1.7-1.9,2.3c-1,0.6-2.1,0.9-3.2,1c0,0.1,0,0.2,0,0.4c0.4,0,1.6-0.1,2.4-0.4
		c-3,3.7-7.9,9.6-10.6,12.6c-0.3,0.3-0.7,0.5-1.2,0.4l-1.1-0.2l-0.3,0.3c1.3,0.3,2.7,0.9,3.9,1.4l1.9,0.8l0.2-0.3l-1.3-0.7
		c-0.3-0.2-0.5-0.3-0.1-0.9c0.5-0.7,2.2-3,3.9-4.9c0.1,0.7,0.7,1.5,1.6,1.8c0.7,0.3,1.5,0.4,2.4,0.4
		C221.1,503.3,225.1,499.6,226.4,496.5z M215.5,502.7c-0.7-0.3-1.2-1-0.7-2.2c0.5-1.2,3.3-4.3,4.8-5.3c1.8-1.2,3.6-2.2,4.7-1.8l0,0
		c0.8,0.3,0.6,1.3,0.3,2c-1,2.3-3.8,5.3-5.8,6.6C217.3,502.9,216.3,503.1,215.5,502.7z"/>
	<path class="st0" d="M228.5,505.8l-0.1-0.4c-1,0.8-2.7,1.5-3.4,1.1c-0.3-0.1-0.3-0.4,0.1-0.8c2-2.4,7-7.9,8.2-8.8l0-0.1
		c-1.1-0.1-3-0.8-4-1.2l-0.3,0.2c0.6,0.3,1.2,0.6,1.5,0.7c0.3,0.1,0.2,0.2,0,0.5c-1.4,1.7-4.6,5.1-6.4,7c-1.2,1.3-1.7,2.3-0.5,2.9
		C225,507.6,227,507,228.5,505.8z"/>
	<path class="st0" d="M236,493.3c0.3-0.6,0.2-1.2-0.4-1.4l0,0c-0.6-0.3-1.3-0.1-1.8,0.6c-0.3,0.6-0.1,1.2,0.4,1.4
		C234.9,494.1,235.6,494,236,493.3z"/>
	<path class="st0" d="M239.3,501.6c0.3,0.1,0.3,0.3,0.2,0.8c0,0.3,0.1,0.5,0.3,0.7c0.5,0.3,1.4,0,1.8-0.9c0.2-0.4,0.2-1.2-0.5-1.5
		c-1.3-0.7-3.2,0.2-6.3,2.8l-0.1,0c1.3-1.5,3-3.6,3.4-4.2c-1-0.1-2.7-0.7-3.7-1.1l-0.3,0.2c0.3,0.2,0.9,0.5,1.3,0.6
		c0.2,0.1,0.3,0.3,0.1,0.6c-1.5,2.3-5.4,6.5-8.1,9.1c0.5,0.1,1.4,0.4,2,0.7c1.9-2.1,3.6-3.8,5.1-5.1
		C236.4,502.5,238.5,501.2,239.3,501.6z"/>
	<path class="st0" d="M243.1,515.3c-0.3-0.2-0.1-0.7,0.3-1.1c1.8-2.3,5.2-6,7.7-8.5l-1.8-0.8l-0.6,0.7c0.1-0.7-0.2-1.4-1.1-1.8
		c-0.8-0.4-1.6-0.5-2.8-0.3c-3.3,0.4-7.5,4-8.9,6.8c-0.6,1.2-0.7,2.4,0.6,3c2.1,1,5.2-0.6,6.6-1.5c0,0,0.1,0,0.1,0
		c-0.3,0.3-0.8,0.9-1,1.1c-0.7,0.9-1.8,2.3-0.4,3c1.6,0.8,3.8-0.4,4.8-1.2l-0.1-0.4C245.5,514.9,243.9,515.7,243.1,515.3z
		 M237.9,512.8c-0.6-0.3-0.4-1.1-0.1-1.6l0,0c1.1-2.3,4.3-5.3,7-6.6c1.4-0.7,2.2-0.6,2.8-0.3c0.7,0.3,0.8,0.9,0.3,1.9
		c-0.5,1-3.3,3.8-4.5,4.7C241,512.5,239,513.3,237.9,512.8z"/>
	<path class="st0" d="M264.4,524.6c-0.4-0.2-0.2-0.6,0.2-0.9c1.2-1.5,3.8-4.3,5.6-6.3c0.5-0.6,1.5-1.9,1.2-2.7
		c-0.1-0.3-0.4-0.7-0.9-0.9c-2.4-1-5.3,0.8-7.5,2.2c0.5-0.6,0.8-1,1.3-1.5c0.7-0.9,1.7-2.5,0.1-3.2c-2.3-0.9-5.2,0.8-7.3,2.2
		c0.8-1,2.6-3.3,3-3.9c-1.3-0.1-2.8-0.6-4-0.9l-0.2,0.3l1.4,0.6c0.3,0.1,0.3,0.3,0.1,0.6c-1.4,2.2-4.8,6.3-7.8,9.5
		c0.5,0.1,1.4,0.3,2,0.6c1.4-1.7,2.5-2.9,3.3-3.9c2.6-3,6.5-5.1,8-4.5c0.6,0.3,0.5,0.9-0.1,1.6c-1.4,1.9-5.2,6.3-7.3,8.6
		c0.6,0.1,1.4,0.3,2.1,0.6c1.5-2,2.5-3,3.4-4c2.1-2.4,6.1-5.1,8-4.3c0.6,0.2,0.5,0.9-0.1,1.6c-1.7,2-3.8,4.2-5.6,6.2
		c-1.2,1.3-1.8,2.4-0.5,3c1.4,0.6,3.5,0,4.9-1.3l-0.1-0.4C266.8,524.1,265.2,524.9,264.4,524.6z"/>
	<path class="st0" d="M278.2,525.4l-0.1,0c-1.5,2-3.2,2.8-5,2.3c-1.2-0.4-1.4-1.6-1-3.2c0.3-0.9,0.8-2,1.2-2.7
		c1.5,0.1,4.2,0,5.8-0.4c0.8-0.2,1.7-0.7,2-1.7c0.4-1.3,0.2-2.6-1.7-3.1c-1.1-0.3-2.4-0.2-3.5,0.4c-2.8,1.3-5.1,4.4-5.8,7
		c-0.6,1.9-0.2,3.7,1.8,4.2c2.2,0.6,4.6-0.2,6.1-1.8L278.2,525.4z M279.1,516.9L279.1,516.9c0.6,0.2,0.9,0.8,0.6,1.8
		c-0.3,1.1-1.1,2.2-2.5,2.5c-0.8,0.2-2.4,0.3-3.6,0.2C276.3,517.1,278.3,516.6,279.1,516.9z"/>
	<path class="st0" d="M294.8,531.8c-0.4-0.1-0.3-0.5-0.1-1c0.8-1.8,2.6-5.2,3.9-7.5c0.3-0.7,1-2.2,0.5-2.9c-0.2-0.3-0.6-0.5-1.1-0.6
		c-2.5-0.3-5,2.1-6.7,4.1c0.3-0.7,0.6-1.2,0.9-1.8c0.5-1.1,1-2.9-0.7-3.1c-2.4-0.3-4.8,2-6.5,4c0.6-1.2,1.7-3.8,1.9-4.6
		c-1.3,0.2-2.9,0.1-4.1,0.1l-0.1,0.3l1.5,0.2c0.3,0,0.4,0.2,0.2,0.5c-0.8,2.5-3.1,7.3-5.1,11.1c0.5,0,1.4,0,2.1,0
		c1-2,1.6-3.4,2.2-4.6c1.8-3.5,5-6.6,6.7-6.3c0.7,0.1,0.7,0.7,0.3,1.5c-0.9,2.2-3.5,7.4-4.9,10.2c0.6,0,1.4,0,2.1,0
		c1-2.3,1.7-3.6,2.3-4.7c1.5-2.8,4.6-6.5,6.7-6.2c0.7,0.1,0.7,0.8,0.3,1.6c-1.2,2.4-2.6,5-3.8,7.4c-0.8,1.6-1.1,2.8,0.3,3
		c1.5,0.2,3.3-0.9,4.4-2.5l-0.2-0.3C297,530.8,295.6,532,294.8,531.8z"/>
	<path class="st0" d="M309.9,523c-0.1-2.2-1.2-3.7-3.4-3.6l-0.1,0c-1.1,0.1-2.1,0.6-3.1,1.4c-2.2,1.9-3.5,5.9-3.3,8.6
		c0.2,3.1,2,3.6,3.6,3.5c1.3-0.1,2.3-0.5,3.3-1.4C308.8,529.7,310,525.8,309.9,523z M305.6,531.1c-0.6,0.9-1.3,1.3-2.1,1.4
		c-0.8,0-1.5-0.6-1.6-2.3c-0.1-2.3,0.9-6.5,2.2-8.6c0.7-1.2,1.4-1.8,2.3-1.8l0,0c1-0.1,1.4,0.7,1.5,2
		C308.1,524.3,306.9,529.1,305.6,531.1z"/>
	<path class="st0" d="M317.2,519.5c0.3-0.1,0.4,0.1,0.6,0.5c0.1,0.2,0.4,0.4,0.6,0.3c0.6-0.1,1.1-0.8,1-1.8
		c-0.1-0.5-0.6-1.1-1.3-0.9c-1.5,0.3-2.5,2.1-3.5,6l-0.1,0c0.2-2,0.3-4.7,0.3-5.4c-0.9,0.5-2.6,1-3.7,1.3L311,520
		c0.4-0.1,1-0.2,1.4-0.3c0.3,0,0.4,0,0.4,0.4c0.1,2.8-0.5,8.5-1.1,12.1c0.5-0.2,1.4-0.5,2.1-0.6c0.3-2.8,0.7-5.2,1.1-7.1
		C315.4,522,316.3,519.7,317.2,519.5z"/>
	<path class="st0" d="M323.3,528.9c-0.3,0.1-0.4-0.1-0.4-0.7c-0.1-3.1,0.2-10.6,0.4-12l-0.1,0c-0.9,0.6-2.8,1.3-3.8,1.7l-0.1,0.4
		c0.6-0.2,1.2-0.3,1.6-0.4c0.3-0.1,0.3,0,0.3,0.4c0.1,2.3-0.1,6.9-0.2,9.5c-0.1,1.8,0.2,2.9,1.5,2.5c1.5-0.4,2.7-2.2,3.1-4l-0.3-0.3
		C325,527.1,324.2,528.6,323.3,528.9z"/>
	<path class="st0" d="M322.1,513.3c0.6-0.2,1.1-0.8,0.9-1.6c-0.1-0.6-0.6-1-1.2-0.9l0,0c-0.6,0.2-1.1,0.8-0.9,1.6
		C321,513.2,321.5,513.4,322.1,513.3z"/>
	<path class="st0" d="M335.5,524.8c-0.3,0.1-0.5-0.4-0.6-0.9c-0.4-2.9-0.7-7.9-0.8-11.5l-1.8,0.7l0.1,0.9c-0.4-0.6-1.1-0.8-2.1-0.5
		c-0.8,0.3-1.5,0.8-2.2,1.8c-2,2.6-2.4,8.1-1.3,11.1c0.5,1.2,1.3,2.1,2.5,1.7c2.2-0.8,3.2-4.2,3.5-5.8c0,0,0.1,0,0.1,0
		c0,0.4,0.1,1.1,0.1,1.4c0.1,1.1,0.4,2.9,1.8,2.4c1.7-0.6,2.4-3,2.4-4.3l-0.3-0.2C336.8,522.8,336.3,524.6,335.5,524.8z
		 M332.4,521.5c-0.4,2.9-1.2,4.9-2.4,5.3c-0.6,0.2-1-0.5-1.2-1l0,0c-0.9-2.5-0.8-6.8,0.1-9.6c0.5-1.4,1.1-2,1.7-2.2
		c0.7-0.3,1.2,0.1,1.6,1.1C332.5,516.1,332.6,520.1,332.4,521.5z"/>
	<path class="st0" d="M342,508.6l-0.2,1.2c-0.4-0.3-1.5-0.4-2.5,0c-0.9,0.4-1.6,0.9-2,1.9c-0.4,1-0.4,2.2,0,3.2
		c0.4,0.9,1,1.5,1.8,1.8c1,0.5,2.3,1.2,3,1.6c0.6,0.3,0.9,0.7,1.1,1.3c0.6,1.5-0.2,2.6-1.2,3.1c-1.4,0.6-2.6,0.2-3.2-1.3
		c-0.2-0.6-0.4-1.6-0.5-2l-0.3,0.3c0.3,1.7,0.4,3.2,0.4,4c1.1,0.2,2.6,0,3.6-0.5c1.2-0.5,2-1.3,2.4-2.3c0.4-0.8,0.5-1.9,0.1-3
		c-0.4-1-1-1.4-1.9-1.8c-0.8-0.4-2.3-1.1-3-1.5c-0.6-0.3-0.9-0.6-1.2-1.3c-0.5-1.1-0.3-2.5,0.9-3c1.4-0.6,2.5,0.3,3,2.9l0.3-0.1
		c-0.2-1.2-0.3-2.7-0.3-4.2L342,508.6z"/>
</g>
<path class="st1" d="M171.5,368.4c-20.2,0-28.9-17.1-28.8-31.5l-1.8,0.7c0,8.5,0,19.1-0.8,28.6c6.4,2.3,18.9,4.9,27.1,4.9
	c21.8,0,40.8-8.3,40.8-30.1c0-12.3-5.6-17.6-16.7-22.4c-6.6-2.8-17.5-7.2-25-10.7c-5.8-2.6-8.7-6.8-8.7-12.9
	c0-9.5,6.1-15.7,16.8-15.7c12.9,0,22.1,11.5,23.6,28.8l1.8-0.8c-0.1-5.8-0.1-18.2,2.3-30.7l-1.5-0.5l-3.4,7.3
	c-4.6-4.3-14.4-6.4-22.8-6.4c-20.6,0-33.9,10.7-33.9,29.4c0,11.4,5.7,19,16.7,23.7c8.8,3.8,21.7,9.4,24.6,10.9
	c4.9,2.6,7.6,6.6,7.6,11.5C189.5,362.9,182.6,368.4,171.5,368.4z"/>
<path class="st1" d="M154,108.9c22.3,0,38-10.6,43.7-29.4L196,78c-5.7,17.8-18.3,24.7-32,24.7c-11.1,0-19.4-3.3-25.4-11.3
	c-5.7-7.3-8.1-17.9-8.1-31.8c0-15.3,3.7-26.6,10.3-34.1c4.9-5.4,11.1-8.3,20.2-8.3c19,0,28.4,14.8,30,32.8l1.8-0.4
	c-0.4-7.2-0.1-23.1,1.8-33.4l-1.4-0.7l-3.1,8.7c-6.4-6-16.8-9.8-32.4-9.8c-16,0-27.3,3.5-35.8,9.5c-12.3,8.7-18.9,22.4-18.9,38.7
	c0,12.3,3.3,24.8,12.3,33.5C124.3,105.2,138.9,108.9,154,108.9z"/>
<path class="st1" d="M147,244.4c-0.5-5.1-0.5-8.9-0.5-17.3l0.1-19.3c0.1-11.5,0.4-18.2,0.6-23.1c-6.3,0.6-17.6,1.2-21.8,1.2
	l-0.1,1.1c5.9,0,6,0.2,6.2,3.2c0.1,4.8,0.2,14.3,0.2,20.7c-1.7-1.2-5.4-2.2-10.1-2.2c-16.6,0-23.9,9.5-23.9,22.5
	c0,5.7,1.7,10.6,4.8,13.8c2.7,2.9,7.2,4.8,13.3,4.8c6.6,0,11.1-3,15.5-6.6l0.1,0.1c0,1.6,0,4.2,0,6.6c6.4-1.5,14.3-1.6,20.8-1.8
	l0.5-1.3l-3.8-0.1C147.7,246.6,147.2,246.2,147,244.4z M131,240.5c-1.6,3.7-4.4,5-7.7,5c-2.7,0-5.4-1.3-7-4.1
	c-1.7-2.8-2.8-7.6-2.8-12.7v-0.1c0-9.4,3.1-18.3,10.7-18.3c4.4,0,6,2.4,6.9,4c0.5,1.1,0.7,2.5,0.7,12.7
	C131.8,237.5,131.5,239.4,131,240.5z"/>
<path class="st1" d="M179.6,208.7L179.6,208.7c-15.8,0-25.8,7.1-25.8,21c0,13.3,9.2,20.1,25,20.1c14.4,0,25.6-6.5,25.6-20.8
	C204.5,214.1,193.4,208.7,179.6,208.7z M186.6,243.8c-1.2,3-3.5,4.5-6.6,4.5c-3.1,0-5.9-1.6-7.5-5c-1.5-3.2-2.6-7.7-2.6-14.9
	c0-5.9,0.9-11.4,2.4-14.1c1.4-2.5,3.5-4.1,6.6-4.1h0.1c3.3,0,5.4,1.5,7,4.6c1.5,2.7,2.7,9.1,2.7,15.5
	C188.7,236.5,187.7,241,186.6,243.8z"/>
<rect x="200.2" y="451.2" class="st0" width="98.3" height="1"/>
<path class="st0" d="M223.9,367.6c5.7,0,10.7-2.4,15.4-7.4c0.5,3,1.6,7.4,9.1,7.4c7.9,0,12-3.6,13.6-11.3l-1.5-0.6
	c-0.9,4.3-3.4,7.8-5.1,7.8c-1.3,0-1.9-0.5-1.9-3.4c0-6.4,0-20.4,0-22.6c0-1.6-0.7-3.9-1.6-4.9c-1.9-2.5-5.8-6-16.4-6
	c-15.8,0-21.5,6.9-21.5,11.5c0,3.5,2.8,5,5.9,5c1.7,0,3.8-0.5,5-1.6c0.7-0.6,0.9-1.4,0.7-2.3c-0.1-0.8-0.2-2.6-0.2-3.6
	c-0.1-4.1,1.8-7.7,7.3-7.7c4.9,0,6.6,3.8,6.7,8.7l0.1,3.3c-3.7,2.1-15.4,5.3-23,7.9c-3.5,1.1-5.2,4.3-5.2,8.1
	C211.5,362.5,215.5,367.6,223.9,367.6z M226.9,354.4c0-5.8,1.8-7.6,4.1-9c2.1-1.1,6.4-3,8.7-3.9l-0.3,10.2c-0.1,1.7-0.3,3.6-0.6,4.7
	c-0.6,1.9-1.7,6.2-6.4,6.2C228.5,362.6,226.9,358.1,226.9,354.4L226.9,354.4z"/>
<path class="st0" d="M231.5,442.7l0.1-1.3c-4.8-0.2-5.4-0.5-5.6-3.4c-0.2-2.2-0.2-5.7-0.2-15.3v-24.6c0-12,0.3-16.6,0.5-19.6
	c-7.2,0.6-14.5,1.2-20.6,1.2v1.2c4.6,0.2,4.9,0.4,5.1,2.2c0.3,2.4,0.3,5.4,0.3,13.9v23c0,9.2-0.4,15.8-0.5,17.8
	c-0.2,2.9-1.1,3.4-5.5,3.5v1.3c2.3,0,7.5-0.4,14.3-0.4C221.8,442.3,228.3,442.7,231.5,442.7z"/>
<path class="st0" d="M276.7,391.4h-5.5l-1.1,3.7c-0.7-3-3.2-4.7-7.1-4.7c-3.1,0-5.9,0.8-9.6,3.1c-11.5,7-20.8,28.5-20.8,41.1
	c0,4.9,1.7,9.1,6.6,9.1c9.3,0,18.1-12.6,22-18.5c0.1,0,0.2,0,0.2,0c-0.6,2-1.6,5.6-1.9,7c-1,3.7-2.9,11.5,2.8,11.5
	c6.4,0,11.9-8.1,13.7-12.4l-1-1.3c-1.7,4.2-6.1,10.6-9.9,10.6c-1.6,0-1.7-2-1.2-4.1C266.9,423.2,271.9,405.9,276.7,391.4z
	 M259.5,424.3c-5.4,9.4-11.8,16.5-17.4,16.5c-3,0-3.6-3.6-3.6-5.9v-0.1c0-10.5,6-25.8,13.5-35.6c4.4-5.8,7.9-7.1,11.3-7.1
	c3.4,0,5,2,5,6.5C268.3,402.9,262.8,418.6,259.5,424.3z"/>
<path class="st0" d="M283,433.9c0,3.5,2.7,6,6,6s6-2.5,6-6c0-3.4-2.7-6-5.9-6h-0.1C285.7,428,283,430.6,283,433.9z"/>
<path class="st0" d="M228.1,105.3c14.4,0,25.6-6.5,25.6-20.8c0-14.8-11.1-20.3-24.9-20.3h-0.1c-15.7,0-25.7,7.1-25.7,21
	C203.1,98.5,212.3,105.3,228.1,105.3z M221.6,69.8c1.4-2.5,3.5-4.1,6.6-4.1h0.1c3.3,0,5.4,1.5,7,4.6c1.5,2.7,2.7,9.1,2.7,15.5
	c0,6.2-1,10.7-2.1,13.5c-1.2,3-3.5,4.5-6.6,4.5c-3.1,0-5.9-1.6-7.5-5c-1.5-3.2-2.6-7.7-2.6-14.9C219.2,77.9,220.1,72.4,221.6,69.8z"
	/>
<path class="st0" d="M162.5,136.2c1.1-2.8,3-9.3,0.6-11.9c-1-1-2.3-1.6-4.1-1.6c-10.6,0-19.3,12.1-25,20.8c1-3,1.8-5.5,2.6-8.3
	c1.4-4.7,3-12.5-3.8-12.5c-10,0-18.1,11.5-24.2,20.4c1.8-5.4,5-17.4,5.8-20.4c-4.3,1.4-10,1.9-14.3,2.5l-0.4,1.2h6
	c1.4,0,1.6,0.8,1.2,1.9c-2,10.6-8.3,30.9-14.2,47.3c1.7-0.5,4.2-0.7,5.9-0.8c3-9.4,4.8-14.8,6.4-19.5c5-14.5,17.5-29.6,24.8-29.6
	c3.1,0,3.4,3.1,2.4,6.8c-2.6,10-9.7,31.4-14.1,43c1.8-0.5,4.1-0.7,6.4-0.8c3-10.8,4.8-15.3,6.6-20.2c4.7-13.1,16-28.8,24.8-28.8
	c2.9,0,3.6,2.9,2.3,6.7c-4,11.4-7.7,22-11.4,32.4c-2.6,7-2.2,11.1,2,11.1c5.6,0,11.8-5.6,14.8-11.9l-0.8-1.2
	c-2,4.1-6.8,9.7-10.6,9.7c-1.9,0-1.6-2.3-0.8-4.2C153.7,160.2,158.9,146.3,162.5,136.2z"/>
<path class="st0" d="M179.6,176.1c8.3,0,16-5,20.5-13.5l-0.2-3.6h-0.5c-3.5,9.1-9,14.2-16.7,14.2c-5.5,0-7.7-4.6-7.7-11.4
	c0-3.4,0.7-8.5,1.6-11.7c6.5-1.4,16.5-5,22.1-8.9c3-1.9,6-4.7,6-9c0-4.8-1.8-9.5-9-9.5c-4.2,0-8.8,1.9-12.4,5.2
	c-8.9,8.4-14.4,23.2-14.4,34.6C168.9,170,171.6,176.1,179.6,176.1z M194.6,124.4h0.1c2.6,0,4.7,2,4.7,6.7c0,3.8-1.7,8.4-6.6,11.4
	c-3.1,1.6-10.2,4.3-15.6,5.4C182.6,129,190.5,124.4,194.6,124.4z"/>
<path class="st0" d="M131.1,265.9c-2,0-4.4-0.3-5.8-0.3l-0.1,0.9l3,0.4c1.9,0.3,2.5,0.8,1.9,2.7c-1.4,4.2-3.7,10.6-5.5,15
	c-0.8-1.4-6-11.7-7.7-16.2c-0.4-1.1-0.4-1.3,1-1.5l2.1-0.3l-0.2-0.9c-1.7,0-5.7,0.3-9.7,0.3c-3.2,0-6-0.1-8.8-0.3v0.9l1.7,0.2
	c1,0.1,1.5,0.6,2.4,2.2c3,5,7.6,14.5,11.9,23.7c0.6,1.3,2.1,2.6,2.6,2.9c-1.2,3.3-3.4,9.2-5.1,9.2c-1.4,0-1.7-0.6-2.3-2.3
	c-0.3-0.7-1.1-1.7-2.5-1.7c-1.8,0-4.1,1.2-4.1,4.2c0,3,2.1,4.7,4.7,4.7c4.1,0,6.3-2.9,8.7-8.9c2.9-7.4,10.4-25.7,12.7-30.3
	c1.7-3.5,2.2-3.8,5.5-3.9l0.1-0.9C135.3,265.6,133,265.9,131.1,265.9z"/>
<path class="st0" d="M232.4,216c2.2,0,2.7,1.8,3.2,4.4c0.3,1.3,1.6,2.7,4,2.7c2.1,0,6.7-1.2,6.7-7.3c0-3.3-2.2-7-7-7
	c-5.8,0-9.1,3.5-12.3,10.5h-0.3c0.1-4.9-0.4-9-0.7-10.2l-0.4-0.2c-3.8,1.3-14.8,2-19,2l0.3,1.4h2.7c1.2,0,1.6,0.5,1.7,1.3
	c0.6,2.8,0.8,7.7,0.8,13.3v6c0,6.7-0.2,10.4-0.4,12.3c-0.2,1.8-1,2.4-5.1,2.5l-0.5,1.3c3.5-0.1,8.2-0.4,13.4-0.4
	c5.5,0,10.5,0.3,14.9,0.4l0.4-1.3c-6.7-0.4-7.8-0.8-7.9-3.1c-0.1-2.2-0.2-7.1-0.2-18.9c0-2.3,0.2-3.1,0.7-4.3
	C228.4,218.3,230,216,232.4,216z"/>
</svg>
