<?xml version="1.0" encoding="utf-8"?>
<!-- Generator: Adobe Illustrator 28.2.0, SVG Export Plug-In . SVG Version: 6.00 Build 0)  -->
<svg version="1.1" id="Capa_1" xmlns="http://www.w3.org/2000/svg" xmlns:xlink="http://www.w3.org/1999/xlink" x="0px" y="0px"
	 viewBox="0 0 365.7 551.6" style="enable-background:new 0 0 365.7 551.6;" xml:space="preserve">
<style type="text/css">
	.st0{fill:#1D1D1B;}
	.st1{fill:#3E588B;}
</style>
<g>
	<rect x="110.1" y="341.9" class="st0" width="98.3" height="1"/>
	<path class="st0" d="M133.1,161c14.4,0,25.6-6.5,25.6-20.8c0-14.8-11.1-20.3-24.9-20.3h-0.1c-15.7,0-25.7,7.1-25.7,21
		C108,154.2,117.2,161,133.1,161z M126.5,125.5c1.4-2.5,3.5-4.1,6.6-4.1h0.1c3.3,0,5.4,1.5,7,4.6c1.5,2.7,2.7,9.1,2.7,15.5
		c0,6.2-1,10.7-2.1,13.5c-1.2,3-3.5,4.5-6.6,4.5c-3.1,0-5.9-1.6-7.5-5c-1.5-3.2-2.6-7.7-2.6-14.9C124.1,133.7,125,128.2,126.5,125.5
		z"/>
	<path class="st0" d="M163.6,101.1c0.3,3.6,0.4,7.5,0.4,13.1v22c0,9.4-0.2,17.9-0.3,24.9l0.4,0.3c2.9-1,7-1.9,10.7-2.7
		c2.7,1.3,8.5,2.5,12.9,2.5c14.9,0,24.9-6.4,24.9-22.7c0-4.4-1-8.5-2.9-11.4c-2.8-4.7-7.4-6.9-13.5-7c-7.1-0.1-11.9,2.4-17.4,6.8
		v-6.2c0-13.1,0.6-22.5,0.6-24.5c-6.1,1-17.7,1.5-21.2,1.5v1.3C163,98.7,163.5,99,163.6,101.1z M178.8,130c1.3-3.3,4.5-6.3,9-6.3
		c3.4,0,5.5,1.6,6.8,4.1c1.6,2.9,2.4,7,2.4,11.4c0,15.6-4.1,20.4-10.2,20.4h-0.1c-2.7,0-5.3-1-7.4-3.9c-0.9-1.3-1.2-2.3-1.2-13.2
		C178.1,133.6,178.3,131.6,178.8,130z"/>
	<path class="st0" d="M136.8,239c0.2,2.9,0.7,4.6,1.8,5.9c2.1,2.6,5.8,3.8,10.7,3.8c7.9,0,14.1-3.7,16-9.2l-1.2-2.7h-0.5
		c-0.5,3.5-3.3,9-8.3,9c-1.8,0-3-0.8-3.2-2.9c-0.5-3.4-0.5-9.5-0.5-16.1c0-6.8,0.1-12.3,0.1-15.4l12.2-0.7l0.2-1.6h-12.3
		c0-4.4,0.5-13,0.6-16.2l-0.5-0.2c-2.1,1.5-8.5,3.5-14.6,4.5c0,3.8-0.1,9.3-0.1,11.9h-5.7l-0.5,1.6l6.1,0.5
		C137,219.1,136.5,232.3,136.8,239z"/>
	<path class="st0" d="M189.7,248.8c14.4,0,25.6-6.5,25.6-20.8c0-14.8-11.1-20.3-24.9-20.3h-0.1c-15.7,0-25.7,7.1-25.7,21
		C164.7,242.1,173.9,248.8,189.7,248.8z M183.1,213.4c1.4-2.5,3.5-4.1,6.6-4.1h0.1c3.3,0,5.4,1.5,7,4.6c1.5,2.7,2.7,9.1,2.7,15.5
		c0,6.2-1,10.7-2.1,13.5c-1.2,3-3.5,4.5-6.6,4.5s-5.9-1.6-7.5-5c-1.5-3.2-2.6-7.7-2.6-14.9C180.7,221.5,181.7,216,183.1,213.4z"/>
	<path class="st0" d="M210.5,290.1c-5.8,0-9.1,3.5-12.3,10.5h-0.3c0.1-4.9-0.4-9-0.7-10.2l-0.4-0.2c-3.8,1.3-14.8,2-19,2l0.3,1.4
		h2.7c1.2,0,1.6,0.5,1.7,1.3c0.6,2.8,0.8,7.7,0.8,13.3v6c0,6.7-0.2,10.4-0.4,12.3c-0.2,1.8-1,2.4-5.1,2.5l-0.5,1.3
		c3.5-0.1,8.2-0.4,13.4-0.4c5.5,0,10.5,0.3,14.9,0.4l0.4-1.3c-6.7-0.4-7.8-0.8-7.9-3.1c-0.1-2.2-0.2-7.1-0.2-18.9
		c0-2.3,0.2-3.1,0.7-4.3c0.9-2.9,2.5-5.2,4.8-5.2c2.2,0,2.7,1.8,3.2,4.4c0.3,1.3,1.6,2.7,4,2.7c2.1,0,6.7-1.2,6.7-7.3
		C217.5,293.8,215.3,290.1,210.5,290.1z"/>
	<path class="st0" d="M111,86.7l-3.5,5.3c-1.9-4.4-7.1-7.5-13.9-7.5c-8.7,0-15.5,4.3-20.7,9.4C61.7,105.2,55,125.3,55,139.4
		c0,13.8,5.5,24.6,20.8,24.6c12.9,0,22.2-10,25.1-15.5c0-1.4,0-2.8-0.1-4h-0.5c-3.6,9.1-10.6,16.9-22.5,16.9c-4.9,0-9.1-2-12-5.9
		c-2.2-2.8-3.7-9-3.7-15c0-15.7,6.1-34.6,15.6-46.1c5.2-5.9,10.7-8.1,16.1-8.1c5.5,0,8.4,2.5,10.1,6.4c1.4,3.5,1.2,8.7-0.2,14.8h1.2
		c1-3.1,4.7-14.5,7-19.8L111,86.7z"/>
</g>
<g>
	<path class="st1" d="M299,327.3L299,327.3c-3.4,0-6,2.6-6,6c0,3.5,2.7,6,6,6s6-2.5,6-6C304.8,329.9,302.2,327.3,299,327.3z"/>
	<path class="st1" d="M248.4,296.4c3-1.9,6-4.7,6-9c0-4.8-1.8-9.5-9-9.5c-4.2,0-8.8,1.9-12.4,5.2c-8.9,8.4-14.4,23.2-14.4,34.6
		c0,7.5,2.8,13.6,10.7,13.6c8.3,0,16-5,20.5-13.5l-0.2-3.6h-0.5c-3.5,9.1-9,14.2-16.7,14.2c-5.5,0-7.7-4.6-7.7-11.4
		c0-3.4,0.7-8.5,1.6-11.7C232.7,303.9,242.7,300.3,248.4,296.4z M244.3,279.6h0.1c2.6,0,4.7,2,4.7,6.7c0,3.8-1.7,8.4-6.6,11.4
		c-3.1,1.6-10.2,4.3-15.6,5.4C232.3,284.2,240.2,279.6,244.3,279.6z"/>
	<path class="st1" d="M285.9,281.7c-1-1.8-4.4-3.8-8.7-3.8c-3.5,0-6.6,0.8-9.5,3.5c-3.4,3.1-4.9,7.1-4.9,11.4c0,3.7,1.3,6.5,3.6,9
		c2.6,3.5,6.2,7.9,8.2,10.6c1.6,2.2,2,4.3,1.9,7c-0.4,7.6-5.5,10.3-10,10.3c-6,0-9.6-2.6-9.4-8.7c0.1-2.4,1.2-7,1.7-8.8l-1.4,0.7
		c-1.7,6.1-3.6,11.7-4.9,14.3c3.8,2.9,9.4,4,13.2,4c4.6,0,8.3-1.6,11.2-4c2.5-2.2,4.8-5.9,5-10.7c0.1-4.3-1.1-6.7-3.8-9.7
		c-2.4-2.8-6.4-7.6-8.2-10.1c-1.6-1.9-2.2-3.6-2.2-6.5c0-5.4,3-10.8,8.7-10.8c5.9,0,8.5,4.8,6,14.9h1.3c1.2-4.6,3.1-10.2,5.5-15.4
		l-0.7-1.2L285.9,281.7z"/>
	<path class="st1" d="M239,161c9.3,0,17.8-3.9,20.8-13.9l-1.2-0.7c-2.4,6.1-6.1,10.9-13.9,10.9c-5.8,0-9-2.1-10.9-5.8
		c-1.6-3.2-2.5-7.6-2.4-10.9c5.3,0,11.1,0,12.8,0c8.9,0,12.8-0.8,13.9-1.3c1.1-0.7,1.6-1.7,1.6-3.4c0-4.2-2.5-16-20.1-16
		c-15.3,0-23.8,8-23.8,20.8c0,5.8,1.6,10.8,4.6,14C224.3,158.7,230,161,239,161z M239.5,121.3L239.5,121.3c6,0,7.2,9,7.2,13.2
		c0,2.1-1,3.3-2,3.7c-1.2,0.5-3.3,0.6-6.9,0.7c-2.1,0-4.2,0-6.4,0.1C231.7,127.7,234.8,121.3,239.5,121.3z"/>
	<path class="st1" d="M299.8,126.9c0-3.3-2.2-7-7-7c-5.8,0-9.1,3.5-12.3,10.5h-0.3c0.1-4.9-0.4-9-0.7-10.2L279,120
		c-3.8,1.3-14.8,2-19,2l0.3,1.4h2.7c1.2,0,1.6,0.5,1.7,1.3c0.6,2.8,0.8,7.7,0.8,13.3v6c0,6.7-0.2,10.4-0.4,12.3
		c-0.2,1.8-1,2.4-5.1,2.5l-0.5,1.3c3.5-0.1,8.2-0.4,13.4-0.4c5.5,0,10.5,0.3,14.9,0.4l0.4-1.3c-6.7-0.4-7.8-0.8-7.9-3.1
		c-0.1-2.2-0.2-7.1-0.2-18.9c0-2.3,0.2-3.1,0.7-4.3c0.9-2.9,2.5-5.2,4.8-5.2c2.2,0,2.7,1.8,3.2,4.4c0.3,1.3,1.6,2.7,4,2.7
		C295.2,134.2,299.8,133,299.8,126.9z"/>
</g>
<g>
	<path class="st0" d="M53.2,429.7c-0.2-0.9-0.5-2.5-0.6-3.3c-0.1-0.7,0-1.1,0.3-1.8c0.6-1.1,1.9-1.7,3-1.1c1.3,0.8,1.3,2.2-0.6,4.1
		l0.3,0.2c0.9-0.9,2-1.9,3.3-2.7l0-0.3l-1.1,0.5c0-0.5-0.5-1.4-1.5-2c-0.8-0.5-1.7-0.7-2.7-0.5c-1.1,0.3-2,0.9-2.6,1.9
		c-0.5,0.9-0.6,1.7-0.4,2.5c0.1,1.1,0.4,2.6,0.5,3.4c0.1,0.6-0.1,1.1-0.4,1.6c-0.9,1.4-2.2,1.4-3.2,0.8c-1.3-0.8-1.7-2-0.8-3.4
		c0.4-0.5,1-1.2,1.4-1.6l-0.4-0.1c-1.2,1.2-2.4,2.2-3.1,2.7c0.5,1,1.5,2.1,2.5,2.6c1.1,0.6,2.2,0.8,3.2,0.6c0.9-0.2,1.9-0.7,2.5-1.7
		C53.3,431.4,53.4,430.7,53.2,429.7z"/>
	<path class="st0" d="M63.8,439.1c-1.2,0.9-2.8,1.4-3.5,1c-0.3-0.2-0.1-0.5,0.2-0.9c2.4-2.6,6.5-6.4,8.8-8.2
		c-1.1-0.2-2.9-0.9-3.9-1.4l-0.3,0.2l1.3,0.7c0.3,0.1,0.2,0.3,0.1,0.4c-0.8,0.8-2.4,2.3-4,3.7c-2.2,1.9-5.6,3.6-7.3,2.6
		c-0.7-0.4-0.3-1.1,0.4-1.8c2.3-2.5,7.1-6.9,8.3-7.6c-1.1-0.2-2.6-0.8-3.9-1.4l-0.3,0.2l1.2,0.7c0.4,0.2,0.3,0.3,0.1,0.5
		c-0.5,0.5-4.7,4.3-6.8,6.4c-1.3,1.3-1.9,2.4-0.3,3.3c1.8,1,4.3,0.4,6.7-0.9c-0.5,0.4-0.7,0.6-1,0.9c-0.9,0.9-2,2.2-0.7,2.9
		c1.5,0.8,3.7,0,5-0.9L63.8,439.1z"/>
	<path class="st0" d="M71.4,445.7c-0.3-0.2-0.1-0.7,0.3-1.1c1.8-2.3,5.2-6,7.7-8.5l-1.8-0.9l-0.6,0.7c0.1-0.7-0.2-1.4-1.1-1.8
		c-0.8-0.4-1.6-0.5-2.8-0.3c-3.3,0.4-7.5,4-8.9,6.8c-0.6,1.2-0.7,2.4,0.6,3c2.1,1,5.2-0.6,6.6-1.5c0,0,0.1,0,0.1,0
		c-0.3,0.3-0.8,0.9-1,1.1c-0.7,0.9-1.8,2.3-0.5,3c1.6,0.8,3.8-0.4,4.8-1.2l-0.1-0.4C73.8,445.2,72.2,446.1,71.4,445.7z M66.1,443.1
		c-0.6-0.3-0.4-1.1-0.1-1.6l0,0c1.1-2.3,4.3-5.3,7-6.6c1.4-0.7,2.2-0.6,2.8-0.3c0.7,0.3,0.8,0.9,0.3,1.9c-0.5,1-3.3,3.8-4.5,4.7
		C69.3,442.9,67.3,443.7,66.1,443.1z"/>
	<path class="st0" d="M88.4,440.5c0.2-0.6,0.3-1.2,0.1-1.3c-0.2-0.1-0.9,0-1.4,0.1c-0.1,0.3-0.2,0.6-0.4,1c-1.3,2.7-5.4,5.4-8.5,7.1
		c0.4-1,1.3-2.8,1.9-4.1c1.2-2.4,2.2-4.5,3.2-6c-1.2-0.1-2.6-0.5-3.8-0.8l-0.3,0.2l1.1,0.5c0.3,0.1,0.4,0.3,0.3,0.6
		c-0.4,1.3-3.4,7.2-5.2,10.7c0.5,0.1,1,0.1,1.4,0.3c2-1.2,7.6-4.6,9.6-6.3C87.5,441.8,88.1,441.1,88.4,440.5z"/>
	<path class="st0" d="M93.8,437.9c0.6,0.2,1.3-0.1,1.6-0.8c0.2-0.6,0.1-1.2-0.5-1.4l0,0c-0.6-0.2-1.3,0.1-1.7,0.8
		C93,437.2,93.3,437.7,93.8,437.9z"/>
	<path class="st0" d="M86.1,451.5c-0.3-0.1-0.3-0.3,0-0.8c1.7-2.6,6-8.7,7.1-9.7l0-0.1c-1.1,0-3.1-0.5-4.1-0.7l-0.3,0.3
		c0.6,0.2,1.2,0.4,1.5,0.5c0.3,0.1,0.2,0.2,0.1,0.5c-1.2,1.9-4,5.7-5.5,7.7c-1.1,1.4-1.4,2.5-0.2,2.9c1.5,0.5,3.4-0.3,4.8-1.6
		l-0.1-0.4C88.5,451,86.9,451.8,86.1,451.5z"/>
	<path class="st0" d="M98.6,455.1c-0.5-0.1,0-0.9,0.2-1.5c0.5-1,1.3-2.4,2.4-4.3c3.3-5.8,6.3-10.7,7.4-12.3c-1,0-3-0.3-4.3-0.6
		l-0.2,0.3c0.8,0.2,1.2,0.3,1.5,0.4c0.2,0.1,0.3,0.2,0.1,0.5c-0.4,0.9-1.7,3.2-3.8,6.7c-0.1-0.8-0.7-1.4-1.7-1.6
		c-1.2-0.3-2.3-0.1-3.5,0.4c-3.1,1.3-5.9,4.9-6.6,7.9c-0.4,1.4-0.2,2.8,1.3,3.1c2.4,0.6,5-1.3,6.5-2.9c-0.2,0.3-0.4,0.7-0.6,1.1
		c-0.8,1.3-1.4,3-0.1,3.3c1.4,0.4,3.1-0.5,4.5-2.1l-0.2-0.3C100.7,454.2,99.3,455.3,98.6,455.1z M97.8,450.6c-2.1,2.3-3.8,3.4-5,3.1
		c-0.7-0.2-0.8-1.1-0.6-1.8l0,0c0.8-3.1,3.3-6.3,5.4-7.8c1.1-0.7,2-1,2.8-0.8c1,0.2,1,1.2,0.9,1.8C101,446.2,99,449.4,97.8,450.6z"
		/>
	<path class="st0" d="M110.6,457.1c-0.4,0-0.3-0.6-0.1-1.1c1-2.7,3-7.3,4.6-10.5l-1.9-0.3l-0.4,0.9c-0.1-0.7-0.6-1.3-1.6-1.4
		c-0.9-0.1-1.7,0-2.7,0.5c-3,1.4-5.9,6.1-6.3,9.2c-0.2,1.3,0.1,2.5,1.5,2.7c2.3,0.3,4.8-2.2,5.8-3.5c0,0,0.1,0,0.1,0
		c-0.2,0.4-0.4,1.1-0.6,1.3c-0.4,1-1,2.8,0.5,3c1.8,0.2,3.5-1.6,4.1-2.6l-0.2-0.3C112.8,456,111.5,457.3,110.6,457.1z M109.5,452.8
		c-1.7,2.4-3.4,3.8-4.6,3.6c-0.7-0.1-0.7-0.9-0.6-1.4l0,0c0.4-2.6,2.4-6.4,4.6-8.5c1.1-1.1,1.9-1.3,2.6-1.2c0.7,0.1,1.1,0.6,0.9,1.7
		C112.2,448,110.3,451.6,109.5,452.8z"/>
	<path class="st0" d="M123.4,457.8c-0.5,0-0.3-0.9-0.1-1.5c0.3-1,0.7-2.7,1.3-4.8c1.9-6.4,3.7-11.8,4.4-13.6c-0.9,0.2-3,0.4-4.3,0.4
		l-0.2,0.3c0.8,0,1.2,0.1,1.6,0.1c0.2,0,0.4,0.1,0.3,0.5c-0.2,1-1,3.5-2.2,7.4c-0.3-0.8-1-1.2-2-1.2c-1.2,0-2.3,0.4-3.3,1.2
		c-2.7,2-4.6,6.1-4.6,9.2c0,1.4,0.5,2.7,2,2.8c2.5,0,4.5-2.4,5.7-4.3c-0.1,0.4-0.2,0.8-0.4,1.2c-0.4,1.5-0.6,3.3,0.6,3.3
		c1.5,0,2.9-1.2,3.9-3.1l-0.2-0.3C125.3,456.4,124.1,457.8,123.4,457.8z M121.6,453.6c-1.5,2.7-3,4.1-4.2,4.1c-0.7,0-1-0.9-1-1.6
		l0,0c0.1-3.2,1.8-6.9,3.5-8.8c0.9-1,1.7-1.4,2.6-1.4c1,0,1.3,1,1.3,1.6C123.7,448.6,122.4,452.1,121.6,453.6z"/>
	<path class="st0" d="M137.9,448.3c-0.9,2.5-1.7,4.8-2.4,6.9c-0.4-3-1.3-8.1-1.5-10.6c-0.8,0.5-2.7,1.1-3.8,1.3l-0.1,0.4
		c1.7-0.3,1.8-0.3,1.9,0.3c0.4,1.6,1.3,6.6,1.8,10.6c0.1,0.6,0.3,1.1,0.5,1.3c-1.1,3.7-2,5.5-3.2,5.7c-0.4,0.1-0.8-0.2-1-0.9
		c-0.1-0.2-0.3-0.5-0.7-0.4c-0.5,0.1-0.9,0.6-0.9,1.3c0.1,0.7,0.7,1.5,1.8,1.3c1.7-0.2,2.7-1.6,4.3-6.4c1.4-4.1,2.7-8.1,4.2-11.1
		c1.2-2.7,2.1-3.7,2.9-4l-0.1-0.3C140,443.8,139,445.5,137.9,448.3z"/>
	<path class="st0" d="M153.2,449.7c-0.3,2.3-1.3,4.1-3.1,4.6c-1.2,0.3-2.1-0.4-2.5-2c-0.6-2.1-0.6-4.3-0.2-6.2
		c0.5-2.7,1.3-4,2.4-4.3c0.8-0.2,1.2,0.1,1.3,0.7c0.1,0.4,0,0.8,0,1.2c0,0.2,0,0.5,0.2,0.7c0.2,0.1,0.4,0.2,0.7,0.1
		c0.5-0.1,1.1-0.8,0.8-1.9c-0.3-1-1.1-1.8-2.9-1.4c-1.5,0.4-2.4,1.5-3.1,2.6c-1.6,2.5-1.9,6-1.2,8.6c0.6,2.1,1.8,3.2,3.9,2.7
		c2.3-0.6,3.7-2.8,4.1-4.7L153.2,449.7L153.2,449.7z"/>
	<path class="st0" d="M163.7,449.8c-0.3,0.1-0.5-0.4-0.6-0.9c-0.4-2.9-0.6-7.9-0.7-11.5l-1.8,0.7l0,0.9c-0.4-0.6-1.1-0.8-2.1-0.5
		c-0.8,0.3-1.5,0.8-2.2,1.7c-2,2.6-2.4,8.1-1.4,11.1c0.4,1.2,1.2,2.1,2.5,1.7c2.2-0.8,3.2-4.1,3.6-5.8c0,0,0.1,0,0.1,0
		c0,0.4,0.1,1.1,0.1,1.4c0.1,1.1,0.4,2.9,1.8,2.4c1.7-0.6,2.4-3,2.5-4.3l-0.3-0.2C165.1,447.7,164.5,449.5,163.7,449.8z
		 M160.6,446.4c-0.4,2.9-1.3,4.9-2.4,5.3c-0.6,0.2-1-0.5-1.2-1l0,0c-0.9-2.5-0.8-6.8,0.2-9.6c0.5-1.4,1.1-2,1.8-2.2
		c0.7-0.3,1.2,0.1,1.6,1.1C160.8,441,160.9,444.9,160.6,446.4z"/>
	<path class="st0" d="M169.1,447.4c-0.4,0.2-0.5-0.2-0.6-0.7c-0.4-1.7-0.8-4.5-1.5-9.5c-0.7-4.9-1.1-8.6-1.2-10.1
		c-0.8,0.7-2.3,1.5-3.7,2.2l0,0.3l1.3-0.5c0.3-0.1,0.4-0.1,0.5,0.2c0.3,1.5,0.6,3.4,1.3,8.8c0.5,3.4,0.8,6,1.2,8.7
		c0.1,1.1,0.5,2.6,1.9,2c1.4-0.6,2.3-2.5,2.5-4.6l-0.3-0.2C170.4,445.6,169.7,447.1,169.1,447.4z"/>
	<path class="st0" d="M171,429.7c0.6-0.3,1-1,0.7-1.7c-0.2-0.6-0.7-0.9-1.3-0.7l0,0c-0.6,0.3-1,1-0.7,1.7
		C169.9,429.7,170.5,429.9,171,429.7z"/>
	<path class="st0" d="M174.6,444.9c-0.3,0.1-0.4,0-0.5-0.6c-0.5-3.1-1.4-10.5-1.4-12l-0.1,0c-0.8,0.8-2.6,1.7-3.5,2.3l0,0.4
		c0.6-0.3,1.2-0.5,1.5-0.7c0.3-0.1,0.3,0,0.4,0.3c0.4,2.2,0.9,6.9,1.2,9.4c0.2,1.8,0.6,2.8,1.8,2.3c1.5-0.6,2.3-2.6,2.4-4.5
		l-0.4-0.2C176,442.9,175.4,444.6,174.6,444.9z"/>
	<path class="st0" d="M186.8,440.3c-0.5,0.2-0.5-0.8-0.6-1.3c-0.1-1.1-0.2-2.7-0.4-4.9c-0.4-6.7-0.6-12.4-0.5-14.3
		c-0.8,0.5-2.7,1.4-3.9,1.9l0,0.4c0.7-0.3,1.2-0.4,1.5-0.5c0.2-0.1,0.4,0,0.4,0.4c0.1,1,0.3,3.6,0.4,7.7c-0.5-0.6-1.3-0.7-2.3-0.4
		c-1.1,0.4-2,1.2-2.6,2.3c-1.9,2.8-2.2,7.3-1.2,10.2c0.5,1.4,1.4,2.4,2.8,1.9c2.4-0.8,3.5-3.8,3.9-6c0,0.4,0.1,0.8,0.1,1.2
		c0.1,1.6,0.5,3.3,1.7,2.9c1.4-0.5,2.3-2.1,2.6-4.2l-0.3-0.2C188.1,438.4,187.5,440.1,186.8,440.3z M183.7,437
		c-0.5,3-1.4,4.9-2.5,5.3c-0.7,0.2-1.3-0.5-1.5-1.2l0,0c-1-3-0.7-7.1,0.3-9.5c0.5-1.2,1.1-1.9,1.9-2.2c0.9-0.3,1.5,0.5,1.7,1.1
		C184,431.6,184,435.3,183.7,437z"/>
	<path class="st0" d="M197.7,434.2c-0.4,2.4-1.6,4-3.4,4.3c-1.3,0.3-2-0.7-2.3-2.4c-0.2-0.9-0.2-2.2-0.2-3c1.4-0.6,3.7-1.9,4.9-3.1
		c0.6-0.5,1.2-1.4,1-2.5c-0.3-1.3-1.1-2.4-2.9-2c-1.1,0.2-2.2,0.9-3,2c-1.8,2.5-2.5,6.2-1.9,8.9c0.4,2,1.5,3.3,3.5,2.9
		c2.3-0.5,3.9-2.3,4.6-4.4l-0.3-1L197.7,434.2z M194.7,426.2L194.7,426.2c0.6-0.1,1.1,0.3,1.3,1.3c0.2,1.1,0,2.4-1,3.4
		c-0.6,0.5-2,1.3-3.1,1.8C192.3,427.7,193.8,426.4,194.7,426.2z"/>
	<path class="st0" d="M208.3,432.7L208.3,432.7c-0.2,0-0.4,0.4-0.6,0.6c-0.1,0.2-0.1,0.2,0,0.5c0,0.2,0.1,0.4,0.1,0.5
		c0,0.9-0.4,2-2,2.1c-0.6,0-1.8-0.1-2.9-0.3c-0.8-0.1-1.5-0.2-2-0.1c2.4-3.1,5.5-6.7,7.2-9.2c0.6-0.8,1.1-1.8,1.3-2.2l-0.1-0.1
		c-0.3,0.2-1.1,0.3-2.2,0.4c-2,0.1-3.4,0.2-4,0.2c-0.5,0-0.8-0.1-1-0.3c0,0.6-0.6,2.2-1.4,4.6l0.3,0.2c0.6-1.6,1.1-2.4,1.7-2.6
		c0.6-0.2,2.2-0.3,5.2-0.5c-2.6,3.5-6.6,8.4-7.8,9.8c-0.2,0.3-0.9,1.1-1.1,1.6l0.2,0.2c0.4-0.5,0.8-0.6,1.2-0.6c0.4,0,1,0.1,1.5,0.2
		c0.9,0.2,2,0.5,2.9,0.4c0.5,0,1.1-0.3,1.5-0.6c0.8-0.6,2.5-2.1,2.3-4.3C208.5,432.9,208.4,432.7,208.3,432.7z"/>
</g>
</svg>
