<?xml version="1.0" encoding="utf-8"?>
<!-- Generator: Adobe Illustrator 28.2.0, SVG Export Plug-In . SVG Version: 6.00 Build 0)  -->
<svg version="1.1" id="Capa_1" xmlns="http://www.w3.org/2000/svg" xmlns:xlink="http://www.w3.org/1999/xlink" x="0px" y="0px"
	 viewBox="0 0 365.7 551.6" style="enable-background:new 0 0 365.7 551.6;" xml:space="preserve">
<style type="text/css">
	.st0{fill:#1D1D1B;}
	.st1{fill:#B9D8C6;}
</style>
<g>
	<path class="st0" d="M184,245.6c9.3,0,19.5-2.9,19.5-15c0-4.1-2.1-7.9-7.1-9.8c-3.7-1.4-12.5-3.1-15.5-4.4c-1.6-0.6-3-2.1-3-4.2
		c0-3.1,2.7-6.1,8-6.1c8.1,0,12.8,7.6,13,13.6l1.2-0.5c-0.1-3.3-0.1-9,0.9-15.2l-0.9-0.5l-1.6,4.1c-1.8-1.8-7.8-3.1-12.1-3.1
		c-8.6,0-17.4,4-17.4,14.3c0,4.6,2,9.1,9.8,11.4c3.8,1.2,8.3,2.4,11.5,3.4c2.1,0.5,3.5,2.4,3.5,4.3c0,3.3-2.1,6-8.4,6
		c-5.3,0-10.1-3.2-12.6-7.7c-2.2-3.6-2.8-6.7-3.3-9.2l-1,0.5c0.5,7.6,0.5,12.6,0.5,15.4C172.3,243.9,178.3,245.6,184,245.6z"/>
	<path class="st0" d="M222.6,243.7c-1.9,4-6.7,9.9-10.7,9.9c-1.2,0-1.6-0.8-1-3.6c3.5-13.6,12.1-41.2,14.4-46.1l-0.1-0.2
		c-3.8,1.4-10.9,2.2-14.2,2.5l-0.7,1.3c2.6,0,5.2,0.1,6.6,0c1.3,0,1.1,0.5,0.8,1.6c-2.3,9.3-8.2,27-11.2,36.8
		c-2.3,7.1-2.2,11.2,1.9,11.2c5.8,0,11.9-5.9,14.9-12L222.6,243.7z"/>
	<path class="st0" d="M225,189.6c2.3,0,4-1.7,4.1-4.1c0.1-2.2-0.8-3.6-2.9-3.6h-0.1c-1.9,0-3.8,1.7-4,4.2
		C222,188.4,223.4,189.6,225,189.6z"/>
	<path class="st0" d="M265.4,328.3L265.4,328.3c-3.4,0-6,2.6-6,6c0,3.5,2.7,6,6,6c3.3,0,6-2.5,6-6
		C271.3,330.9,268.6,328.3,265.4,328.3z"/>
	<path class="st0" d="M191,294.8L191,294.8c-15.8,0-25.8,7.1-25.8,21c0,13.3,9.2,20.1,25,20.1c14.4,0,25.6-6.5,25.6-20.8
		C215.8,300.3,204.8,294.8,191,294.8z M197.9,330c-1.2,3-3.5,4.5-6.6,4.5c-3.1,0-5.9-1.6-7.5-5c-1.5-3.2-2.6-7.7-2.6-14.9
		c0-5.9,0.9-11.4,2.4-14.1c1.4-2.5,3.5-4.1,6.6-4.1h0.1c3.3,0,5.4,1.5,7,4.6c1.5,2.7,2.7,9.1,2.7,15.5
		C200,322.7,199,327.2,197.9,330z"/>
	<path class="st0" d="M248.6,311.1c-3.7-1.4-12.5-3.1-15.5-4.4c-1.6-0.6-3-2.1-3-4.2c0-3.1,2.7-6.1,8-6.1c8.1,0,12.8,7.6,13,13.6
		l1.2-0.5c-0.1-3.3-0.1-9,0.9-15.2l-0.9-0.5l-1.6,4.1c-1.8-1.8-7.8-3.1-12.1-3.1c-8.6,0-17.4,4-17.4,14.3c0,4.6,2,9.1,9.8,11.4
		c3.8,1.2,8.3,2.4,11.5,3.4c2.1,0.5,3.5,2.4,3.5,4.3c0,3.3-2.1,6-8.4,6c-5.3,0-10.1-3.2-12.6-7.7c-2.2-3.6-2.8-6.7-3.3-9.2l-1,0.5
		c0.5,7.6,0.5,12.6,0.5,15.4c3.6,1,9.6,2.7,15.3,2.7c9.3,0,19.5-2.9,19.5-15C255.8,316.7,253.7,313,248.6,311.1z"/>
	<path class="st0" d="M179,157.8c5.7,0,10.7-2.4,15.4-7.4c0.5,3,1.6,7.4,9.1,7.4c7.9,0,12-3.6,13.6-11.3l-1.5-0.6
		c-0.9,4.3-3.4,7.8-5.1,7.8c-1.3,0-1.9-0.5-1.9-3.4v-22.6c0-1.6-0.7-3.9-1.6-4.9c-1.9-2.5-5.8-6-16.4-6c-15.8,0-21.5,6.9-21.5,11.5
		c0,3.5,2.8,5,5.9,5c1.7,0,3.8-0.5,5-1.6c0.7-0.6,0.9-1.4,0.7-2.3c-0.1-0.8-0.2-2.6-0.2-3.6c-0.1-4.1,1.8-7.7,7.3-7.7
		c4.9,0,6.6,3.8,6.7,8.7l0.1,3.3c-3.7,2.1-15.4,5.3-23,7.9c-3.5,1.1-5.2,4.3-5.2,8.1C166.6,152.6,170.6,157.8,179,157.8z M182,144.5
		c0-5.8,1.8-7.6,4.1-9c2.1-1.1,6.4-3,8.7-3.9l-0.3,10.2c-0.1,1.7-0.3,3.6-0.6,4.7c-0.6,1.9-1.7,6.2-6.4,6.2
		C183.6,152.7,182,148.3,182,144.5L182,144.5z"/>
	<path class="st0" d="M199.4,102.9c2-1.7,3.8-3.6,3.8-5.6c0-2.1-1-3.2-2.5-3.2c-1.6,0-3.4,0.6-5.1,3.2c-1.3,1.7-7.3,11.6-9.4,14.6
		l1,0.6C193.5,107.5,197.6,104.4,199.4,102.9z"/>
</g>
<g>
	<rect x="110.8" y="352.3" class="st1" width="102.5" height="1"/>
	<path class="st1" d="M139.1,282.3c-9.9,10-15.1,25.6-15.1,38.4c0,9.6,3.9,16.1,13.6,16.1c11.3,0,20-9,23.4-16.1v-4.4h-0.4
		c-3.7,9.4-10.6,17.4-19.9,17.4c-6.1,0-9.6-4.9-9.6-12.4c0-10.4,2.6-20,6.4-27.9c5.7-12.7,11.9-18,17.6-18c4.3,0,6.1,2.1,6.1,5.3
		c0,1.7-0.7,2.9-1.4,4.7c-0.4,0.7-0.6,2-0.1,2.7c0.3,1,1.4,1.6,2.6,1.6c2,0,4.9-2.3,4.9-6.9c0-4.7-2.3-9.4-10.9-9.4
		C148.8,273.4,142.9,278.4,139.1,282.3z"/>
	<path class="st1" d="M154.6,153.8c4.7-3.2,7.9-8.2,7.9-15c0-6.7-2.5-11-7.4-13.6c-4.9-2.6-11.3-3.8-20.7-4.2v-0.8
		c5.6-0.8,9.8-1.6,13.4-3c5.9-2.4,10.2-6.8,10.2-14.6c0-4.3-1.5-8.8-5.2-11.2c-4.1-2.6-7.2-3.4-18.9-3.4c-4.3,0-18.3,0.4-24,0.4
		c-6.1,0-15.1-0.3-19.3-0.4l0.4,1.5c7.8,0.4,9.8,1.2,10,3.4c0.3,4.1,0.4,6.9,0.4,18v23.8c0,10.8-0.3,16.9-0.6,19.7
		c-0.3,2.6-2.6,2.9-10,3.3l-0.2,1.5c4.5,0,12.5-0.4,19.5-0.4c6.1,0,11.7,0.2,18,0.2C139.8,159.2,148.8,157.9,154.6,153.8z
		 M120.3,105.6c0-5.9,0.4-10.3,0.5-13.7c0-1.5,1.2-2,5.2-2c5.9,0,8.7,1.5,10.3,4.6c1.4,2.6,2,5.9,2,10.1c0,11.9-4.6,15.6-13,15.6
		c-2.3,0-4.1,0-5.1-0.1V105.6z M120.7,155.7c-0.4-3.1-0.4-8.4-0.4-17.8v-15.7c1.2-0.2,3.2-0.3,5.1-0.3c7.1,0,11,1.4,13.3,4.2
		c2.3,2.6,3.2,6.1,3.2,12.6c0,6.5-1.3,11.4-3.4,14.3c-2.2,2.7-5.5,4.4-12.4,4.4C122.1,157.4,120.8,156.8,120.7,155.7z"/>
</g>
<g>
	<path class="st0" d="M168.5,419.2l-1,0.9c0.4-1.2-0.2-2-0.8-2.4c-0.9-0.5-1.7-0.6-2.6-0.6c-3.7,0.1-7.9,3.2-9.5,5.8
		c-0.8,1.4-0.9,2.6,0.4,3.4c1.8,1.1,4.5,0.3,6.5-0.6c-3,2.8-6.5,6-6.9,6.4c-0.5,0.3-0.7,0.4-1.2,0.2c-0.4-0.2-1-0.4-1.3-0.5
		l-0.3,0.2c1,0.5,2,1,2.9,1.6c0.9,0.5,1.8,1.1,2.4,1.5l0.3-0.2l-1-0.8c-0.2-0.2-0.3-0.4,0-0.7c0.7-0.8,2.6-2.7,6.6-6.5
		c3-2.9,5.8-5.4,7.2-6.6L168.5,419.2z M166.6,420.6c-0.7,1.1-3.9,3.8-5.5,4.7c-2,1-3.8,1.5-4.8,0.8c-0.6-0.3-0.4-1.2,0-1.8
		c1.5-2.4,4.6-4.8,7.4-5.9c1.2-0.5,2.1-0.5,2.8-0.1l0,0C167.4,418.8,167.1,419.8,166.6,420.6z"/>
	<path class="st0" d="M171.6,434.8c-0.3-0.2-0.2-0.5,0.2-0.9c2.4-2.7,6.4-6.5,8.7-8.3c-1.1-0.2-2.9-0.9-4-1.4l-0.3,0.2l1.3,0.7
		c0.3,0.1,0.2,0.3,0.1,0.4c-0.8,0.9-2.4,2.3-3.9,3.7c-2.1,1.9-5.5,3.6-7.3,2.7c-0.7-0.4-0.3-1.1,0.4-1.8c2.3-2.5,7-7,8.2-7.7
		c-1.1-0.2-2.6-0.8-3.9-1.3l-0.3,0.2l1.2,0.6c0.4,0.2,0.3,0.3,0.1,0.5c-0.5,0.5-4.6,4.4-6.7,6.5c-1.3,1.3-1.8,2.4-0.2,3.3
		c1.8,1,4.3,0.3,6.7-1c-0.5,0.5-0.7,0.6-0.9,0.9c-0.9,0.9-2,2.2-0.6,2.9c1.5,0.8,3.7,0,5-0.9l-0.1-0.4
		C173.9,434.6,172.3,435.2,171.6,434.8z"/>
	<path class="st0" d="M187.7,431.7c0.6-1.2,0.6-2.5-1.1-3.3c-1-0.5-2.3-0.6-3.6-0.2c-2.9,0.9-5.7,3.5-6.9,6
		c-0.9,1.8-0.8,3.6,1.1,4.5c2.1,1,4.5,0.5,6.3-0.8l0.4-0.9l-0.1-0.1c-1.8,1.7-3.6,2.3-5.3,1.5c-1.2-0.6-1.2-1.8-0.4-3.3
		c0.4-0.8,1.1-1.9,1.6-2.5c1.5,0.4,4.1,0.7,5.8,0.5C186.2,433,187.2,432.7,187.7,431.7z M186.4,430.5c-0.5,1-1.4,2-2.8,2.1
		c-0.8,0-2.4-0.1-3.6-0.4c3.4-3.8,5.4-3.9,6.1-3.6l0,0C186.7,428.9,186.8,429.5,186.4,430.5z"/>
	<path class="st0" d="M202.2,447.2c-0.4-0.1-0.2-0.6,0.1-0.9c1.1-1.6,3.5-4.6,5.1-6.7c0.5-0.6,1.4-2,1-2.8c-0.1-0.3-0.5-0.6-1-0.8
		c-2.4-0.8-5.3,1.2-7.3,2.8c0.4-0.6,0.8-1.1,1.2-1.6c0.7-1,1.5-2.7-0.1-3.2c-2.3-0.7-5.1,1.2-7.1,2.8c0.7-1.1,2.3-3.5,2.7-4.2
		c-1.3,0-2.8-0.4-4.1-0.6l-0.2,0.3l1.4,0.4c0.3,0.1,0.3,0.3,0.1,0.6c-1.3,2.3-4.3,6.6-7,10.1c0.5,0.1,1.4,0.2,2,0.4
		c1.3-1.8,2.2-3.1,3-4.1c2.4-3.2,6.1-5.6,7.7-5.1c0.7,0.2,0.6,0.8,0.1,1.6c-1.2,2-4.7,6.7-6.6,9.2c0.6,0.1,1.4,0.2,2.1,0.4
		c1.4-2.1,2.3-3.2,3.1-4.2c1.9-2.5,5.7-5.6,7.7-4.9c0.6,0.2,0.6,0.9,0.1,1.6c-1.6,2.1-3.4,4.5-5.1,6.7c-1.1,1.4-1.6,2.6-0.3,3
		c1.5,0.5,3.4-0.3,4.8-1.7l-0.1-0.4C204.5,446.5,203,447.4,202.2,447.2z"/>
	<path class="st0" d="M214.8,447.3l0.1-1l-0.1,0c-1.3,2.1-3,3.1-4.8,2.7c-1.3-0.2-1.6-1.4-1.2-3.1c0.2-0.9,0.6-2.1,1-2.8
		c1.5,0,4.2-0.3,5.7-1c0.8-0.3,1.7-0.8,1.9-1.9c0.3-1.3-0.1-2.6-1.9-2.9c-1.1-0.2-2.4,0-3.5,0.7c-2.6,1.6-4.7,4.8-5.2,7.5
		c-0.4,2,0.1,3.7,2.1,4.1C211.1,450.1,213.3,449,214.8,447.3z M215,437.7L215,437.7c0.6,0.1,0.9,0.7,0.7,1.7
		c-0.2,1.1-0.9,2.3-2.2,2.7c-0.7,0.2-2.4,0.5-3.6,0.5C212.2,438.2,214.1,437.6,215,437.7z"/>
	<path class="st0" d="M222.7,438.3c-1.2,0.2-2.9,0.1-4.2,0.1l-0.2,0.3l1.6,0.2c0.3,0,0.4,0.1,0.2,0.6c-0.4,1-1.2,3.3-3.2,7.7
		c-1.5,3.5-2.5,5.8-3.3,7.3c-0.8,1.5-1.4,1.9-2.1,1.8c-0.7-0.1-1-0.6-1.2-1.4c-0.1-0.3-0.2-0.4-0.4-0.5c-0.4,0-1,0.4-1.1,1
		c-0.1,0.5,0.4,1.3,1.6,1.5c1.2,0.2,2.4-0.3,3.4-0.9c1.1-0.7,2-1.8,2.9-3.5C217.5,450.9,220.6,443.6,222.7,438.3L222.7,438.3z"/>
	<path class="st0" d="M222.6,435.2c0.7,0.1,1.3-0.3,1.5-1.1c0.1-0.7-0.1-1.2-0.7-1.3l0,0c-0.7-0.1-1.4,0.3-1.5,1.2
		C221.7,434.6,222,435.1,222.6,435.2z"/>
	<path class="st0" d="M229,438.6L229,438.6c-1.2,0-2.2,0.4-3.3,1.1c-2.4,1.7-4,5.5-4.1,8.3c-0.1,3.1,1.7,3.8,3.2,3.8
		c1.3,0.1,2.3-0.3,3.4-1.1c2.2-1.6,3.8-5.4,3.9-8.2C232.1,440.2,231.2,438.7,229,438.6z M227,450.2c-0.7,0.9-1.4,1.2-2.2,1.2
		c-0.8,0-1.5-0.7-1.4-2.4c0.1-2.3,1.5-6.4,3-8.3c0.8-1.1,1.6-1.6,2.5-1.6l0,0c1,0,1.4,0.8,1.3,2.1
		C230.1,443.6,228.5,448.3,227,450.2z"/>
	<path class="st0" d="M241.5,439.3c0-0.5-0.4-1.1-1.2-1.1c-1.5,0.1-2.7,1.7-4.2,5.5l-0.1,0c0.4-1.9,0.9-4.6,1-5.3
		c-0.9,0.4-2.7,0.7-3.8,0.8l-0.2,0.4c0.4,0,1-0.1,1.4-0.1c0.3,0,0.4,0.1,0.4,0.5c-0.2,2.8-1.6,8.3-2.7,11.9c0.5-0.1,1.4-0.3,2.1-0.3
		c0.6-2.7,1.3-5.1,2-6.9c0.9-2.4,2.1-4.6,3-4.7c0.3,0,0.4,0.2,0.5,0.6c0.1,0.3,0.3,0.4,0.6,0.4C240.9,441,241.5,440.4,241.5,439.3z"
		/>
	<path class="st0" d="M249,449.5c-0.4,0.1-0.4-0.5-0.4-1c0.2-2.9,0.9-7.8,1.6-11.4l-1.9,0.3l-0.1,0.9c-0.3-0.7-0.9-1-1.9-0.9
		c-0.9,0.1-1.6,0.5-2.5,1.3c-2.5,2.2-4,7.5-3.5,10.6c0.2,1.3,0.8,2.3,2.1,2.2c2.3-0.3,4-3.4,4.7-5c0,0,0.1,0,0.1,0
		c-0.1,0.4-0.1,1.1-0.2,1.4c-0.1,1.1-0.2,2.9,1.3,2.7c1.8-0.3,2.9-2.5,3.3-3.7l-0.3-0.3C250.7,447.8,249.9,449.3,249,449.5z
		 M246.7,445.6c-1,2.7-2.2,4.5-3.4,4.7c-0.7,0.1-0.9-0.7-1-1.2l0,0c-0.4-2.6,0.6-6.8,2.1-9.4c0.7-1.3,1.4-1.7,2.2-1.8
		c0.7-0.1,1.2,0.3,1.3,1.4C248,440.3,247.2,444.2,246.7,445.6z"/>
	<path class="st0" d="M260.9,446.7c-0.3,0.1-0.5-0.1-0.4-0.8c0.1-2.6,0.4-5.9,0.6-8.5c0.1-1,0.1-2.6-0.7-3c-0.3-0.2-0.7-0.2-1.2-0.1
		c-2.4,0.6-4,3.9-4.7,6.2c0.1-1.8,0.1-3.6,0.1-5.1c-1.1,0.6-2.5,1.2-3.6,1.6l0,0.3l1.3-0.3c0.3-0.1,0.4,0,0.4,0.4
		c0.1,2.7-0.1,8.1-0.4,12.2c0.5-0.2,1.3-0.6,1.9-0.7c0.1-2.7,0.2-4,0.3-5.5c0.2-2.4,1.6-7.4,3.9-8c0.7-0.2,0.9,0.6,0.9,1.5
		c-0.2,2.4-0.5,5.7-0.7,8.2c-0.1,1.9,0.2,3.1,1.5,2.7c1.4-0.4,2.6-2.1,3-4l-0.3-0.2C262.5,444.9,261.6,446.5,260.9,446.7z"/>
	<path class="st0" d="M271.4,443.4c-0.6,0.2-0.8-0.1-0.9-0.6c-0.4-2.7-0.8-8.8-0.9-11l2.4-1.1l0.1-0.5l-2.6,1
		c-0.1-1.7-0.2-3.7-0.2-4.3c-0.5,0.5-1.2,1-1.9,1.4c0,0.9,0.2,2.4,0.3,3.7l-1.6,0.6l-0.1,0.4l1.7-0.5c0.2,2.6,0.5,7.1,0.8,10.1
		c0.1,1.4,0.5,2.5,2.2,1.9c1.4-0.5,2.7-2.3,2.9-4.4l-0.5-0.6C273.2,440.9,272.7,442.9,271.4,443.4z"/>
	<path class="st0" d="M283.7,437.9c-0.3,0.2-0.5-0.2-0.6-0.7c-0.8-3.5-1.4-9-1.6-11.9c-0.8,0.8-2.4,1.8-3.5,2.4l0,0.4l1.4-0.6
		c0.3-0.1,0.4,0,0.4,0.2c0.2,1.2,0.5,3.3,0.7,5.4c0.3,2.9-0.4,6.6-2.2,7.5c-0.7,0.3-1-0.4-1.2-1.4c-0.6-3.3-1.4-9.8-1.3-11.1
		c-0.8,0.8-2.2,1.6-3.4,2.3l-0.1,0.4l1.2-0.6c0.3-0.2,0.4-0.1,0.5,0.2c0.1,0.7,0.8,6.3,1.2,9.3c0.3,1.8,0.8,2.9,2.5,2.1
		c1.8-0.8,2.8-3.3,3.2-6c0.1,0.7,0.1,0.9,0.2,1.3c0.2,1.3,0.6,2.9,2,2.3c1.5-0.7,2.2-3,2.2-4.5l-0.4-0.2
		C284.9,435.9,284.4,437.6,283.7,437.9z"/>
	<path class="st0" d="M291.1,429.3c-0.8-0.4-2.2-1.2-2.9-1.7c-0.6-0.3-0.9-0.7-1.1-1.4c-0.4-1.2-0.1-2.5,1.1-3
		c1.4-0.5,2.5,0.4,2.8,3.1l0.3-0.1c-0.1-1.2-0.2-2.7,0-4.3l-0.3-0.2l-0.3,1.2c-0.4-0.3-1.4-0.5-2.5-0.1c-0.9,0.3-1.6,0.8-2.1,1.7
		c-0.5,1-0.6,2.1-0.2,3.2c0.3,1,0.9,1.5,1.7,1.9c1,0.6,2.2,1.3,2.9,1.8c0.5,0.3,0.8,0.8,1,1.4c0.5,1.6-0.3,2.6-1.4,3
		c-1.5,0.5-2.6,0.1-3.1-1.5c-0.2-0.6-0.3-1.6-0.3-2.1l-0.3,0.2c0.2,1.7,0.2,3.3,0.1,4.1c1.1,0.3,2.6,0.1,3.6-0.2
		c1.2-0.4,2-1.2,2.5-2.1c0.4-0.8,0.6-1.9,0.3-3C292.4,430.2,291.9,429.7,291.1,429.3z"/>
	<path class="st0" d="M308.9,430.6c-0.5,0.1-0.4-0.8-0.4-1.4c0-1.1,0.2-2.7,0.4-4.9c0.6-6.7,1.3-12.3,1.7-14.2
		c-0.9,0.4-2.9,0.9-4.2,1.2l-0.1,0.4c0.8-0.1,1.2-0.2,1.5-0.2c0.2,0,0.4,0,0.4,0.4c0,1-0.3,3.6-0.7,7.7c-0.4-0.7-1.2-0.9-2.2-0.8
		c-1.2,0.2-2.1,0.8-3,1.8c-2.3,2.5-3.3,6.9-2.7,9.9c0.3,1.4,1,2.6,2.5,2.3c2.5-0.4,4-3.3,4.7-5.3c0,0.4-0.1,0.8-0.1,1.2
		c-0.1,1.6,0,3.3,1.3,3.1c1.4-0.3,2.6-1.7,3.2-3.8l-0.3-0.3C310.4,428.8,309.6,430.4,308.9,430.6z M306.3,426.8
		c-1,2.9-2.1,4.6-3.3,4.9c-0.7,0.1-1.2-0.7-1.3-1.4l0,0c-0.6-3.1,0.4-7.1,1.7-9.3c0.7-1.1,1.4-1.8,2.2-1.9c1-0.2,1.4,0.7,1.5,1.3
		C307.3,421.5,306.8,425.2,306.3,426.8z"/>
	<path class="st0" d="M314.8,430.1c-0.3,0-0.4-0.2-0.3-0.8c0.6-3.1,2.4-10.3,3-11.7l-0.1-0.1c-1,0.4-3,0.7-4.1,0.9l-0.2,0.4l1.6-0.1
		c0.3,0,0.3,0.1,0.2,0.4c-0.4,2.2-1.6,6.7-2.3,9.2c-0.5,1.7-0.4,2.8,0.9,2.8c1.6-0.1,3-1.6,3.9-3.3l-0.3-0.3
		C316.8,428.7,315.7,430.1,314.8,430.1z"/>
	<path class="st0" d="M319,413.1c0.4-0.5,0.8-1,0.8-1.5c0-0.3-0.2-0.6-0.5-0.6c-0.4,0-0.8,0.3-1.2,0.9c-0.5,0.7-1.9,3.3-2.5,4.2
		l0.2,0.2C317.3,414.8,318.4,413.7,319,413.1z"/>
	<path class="st0" d="M327.4,430.7c-0.4,0-0.3-0.6-0.1-1.1c0.9-2.7,2.8-7.4,4.3-10.7l-1.9-0.2l-0.4,0.9c-0.1-0.7-0.7-1.2-1.7-1.3
		c-0.9-0.1-1.7,0.1-2.7,0.6c-3,1.5-5.7,6.3-6,9.4c-0.1,1.3,0.2,2.5,1.6,2.6c2.3,0.2,4.7-2.4,5.7-3.7c0,0,0.1,0,0.1,0
		c-0.2,0.4-0.4,1.1-0.5,1.3c-0.4,1-0.9,2.8,0.6,3c1.8,0.2,3.4-1.7,4-2.8l-0.2-0.3C329.5,429.5,328.3,430.8,327.4,430.7z
		 M326.1,426.4c-1.6,2.4-3.2,3.9-4.5,3.7c-0.7-0.1-0.7-0.9-0.7-1.4l0,0c0.3-2.6,2.2-6.5,4.3-8.6c1-1.1,1.8-1.3,2.5-1.3
		c0.7,0.1,1.1,0.6,1,1.7C328.6,421.6,326.9,425.2,326.1,426.4z"/>
	<path class="st0" d="M342.7,421.6l-0.9,0.8c-0.1-0.5-0.9-1.2-1.9-1.5c-0.9-0.3-1.8-0.2-2.7,0.2c-1,0.5-1.7,1.4-2,2.5
		c-0.3,1-0.1,1.8,0.3,2.5c0.4,1,1.1,2.4,1.4,3.1c0.2,0.6,0.2,1.1,0,1.7c-0.5,1.6-1.8,1.9-2.9,1.6c-1.5-0.4-2.2-1.5-1.7-3
		c0.2-0.6,0.6-1.5,0.9-1.9l-0.4,0c-0.8,1.5-1.7,2.8-2.3,3.4c0.7,0.9,2,1.6,3.1,1.9c1.2,0.3,2.3,0.2,3.3-0.3c0.8-0.4,1.6-1.2,1.9-2.3
		c0.3-1,0.2-1.7-0.3-2.6c-0.4-0.8-1.1-2.3-1.4-3c-0.3-0.6-0.3-1.1-0.1-1.8c0.3-1.2,1.3-2.2,2.6-1.8c1.5,0.4,1.8,1.8,0.5,4.2l0.3,0.1
		c0.6-1,1.4-2.3,2.4-3.5L342.7,421.6z"/>
</g>
</svg>
