<?xml version="1.0" encoding="utf-8"?>
<!-- Generator: Adobe Illustrator 28.2.0, SVG Export Plug-In . SVG Version: 6.00 Build 0)  -->
<svg version="1.1" id="Capa_1" xmlns="http://www.w3.org/2000/svg" xmlns:xlink="http://www.w3.org/1999/xlink" x="0px" y="0px"
	 viewBox="0 0 215.8 255.8" style="enable-background:new 0 0 215.8 255.8;" xml:space="preserve">
<style type="text/css">
	.st0{fill:#DAC16D;}
	.st1{fill:#1D1D1B;}
</style>
<g>
	<path class="st0" d="M71.9,92.3c-0.3,2.2-2.2,2.5-8.5,2.8l-0.2,1.3c3.8,0,10.6-0.4,16.5-0.4c5.2,0,10,0.2,15.3,0.2
		c10,0,17.5-1.1,22.5-4.6c4-2.7,6.7-6.9,6.7-12.7c0-5.7-2.1-9.3-6.3-11.5c-4.1-2.2-9.6-3.2-17.5-3.6v-0.6c4.8-0.6,8.3-1.4,11.3-2.6
		c5-2,8.7-5.8,8.7-12.3c0-3.7-1.3-7.5-4.4-9.5c-3.5-2.2-6.1-2.9-16-2.9c-3.7,0-15.5,0.4-20.4,0.4c-5.2,0-12.8-0.3-16.4-0.4l0.4,1.3
		c6.6,0.4,8.3,1,8.5,2.9c0.3,3.5,0.4,5.8,0.4,15.3v20.2C72.4,84.8,72.2,90,71.9,92.3z M88.4,50.9c0-5,0.4-8.8,0.5-11.6
		c0-1.3,1-1.7,4.4-1.7c5,0,7.4,1.3,8.8,3.9c1.2,2.2,1.7,5,1.7,8.6c0,10.1-3.9,13.3-11.1,13.3c-1.9,0-3.5,0-4.3-0.1V50.9z M88.4,64.9
		c1-0.2,2.7-0.3,4.3-0.3c6,0,9.3,1.2,11.2,3.6c1.9,2.2,2.7,5.2,2.7,10.7c0,5.5-1.1,9.7-2.9,12.2c-1.8,2.3-4.7,3.7-10.5,3.7
		c-3.3,0-4.4-0.5-4.5-1.5c-0.4-2.7-0.4-7.1-0.4-15.1V64.9z"/>
	<path class="st0" d="M118.5,139.1c-0.8,0-1.8-0.5-4.9-3.4c-2.4-2.3-3.7-2.9-5.5-2.9c-4.4,0-6,4.9-6.2,9.7l1.3,0.4
		c0.2-4,1.7-6.2,3.7-6.2c1.8,0,2.8,1.2,4.6,2.8c2.3,2.5,4.1,3.6,5.8,3.6c4.4,0,6.1-4.2,6.2-10.3l-1.2-0.4
		C122,137.5,120.6,139.1,118.5,139.1z"/>
	<path class="st0" d="M121.7,166c1.6-4.3,2.9-10,0.4-12.1c-1-0.8-2.3-1.3-4.1-1.3c-10.3,0-19.6,12-24.9,20.4
		c2-7.2,3.6-13.2,5.8-20.4c-4.2,1.4-9.5,2.2-13.6,2.6l-0.4,1.1h5.4c1.4,0,1.4,0.4,1.2,1.8c-2.2,10.9-8.2,31.7-13.7,47.5
		c1.6-0.4,3.8-0.7,5.8-1c3.2-11.1,4.8-15,6.7-21c3.5-10,14.4-28,24.6-28c3.4,0,3.4,3.7,2.2,7c-3.2,10.2-7.6,22-10.8,31.6
		c-2.5,7.5-2.3,11.8,2.3,11.8c5.3,0,11.2-5.8,14.3-12l-0.8-1.1c-2,4-7,9.6-10.5,9.6c-1.1,0-1.8-1-1-3.8
		C113.5,188.5,118.3,176,121.7,166z"/>
</g>
<g>
	<rect x="64.1" y="212.5" class="st1" width="104.9" height="1"/>
	<path class="st1" d="M187.4,201.8L187.4,201.8c-4.4,0-7.9,3.4-7.9,7.8c0,4.6,3.5,7.9,7.8,7.9s7.8-3.3,7.8-7.9
		C195.1,205.2,191.6,201.8,187.4,201.8z"/>
	<path class="st1" d="M140.1,97.5c5.7,0,10.7-2.4,15.4-7.4c0.5,3,1.6,7.4,9.1,7.4c7.9,0,12-3.6,13.6-11.3l-1.5-0.6
		c-0.9,4.3-3.4,7.8-5.1,7.8c-1.3,0-1.9-0.5-1.9-3.4c0-6.4,0-20.4,0-22.6c0-1.6-0.7-3.9-1.6-4.9c-1.9-2.5-5.8-6-16.4-6
		c-15.8,0-21.5,6.9-21.5,11.5c0,3.5,2.8,5,5.9,5c1.7,0,3.8-0.5,5-1.6c0.7-0.6,0.9-1.4,0.7-2.3c-0.1-0.8-0.2-2.6-0.2-3.6
		c-0.1-4.1,1.8-7.7,7.3-7.7c4.9,0,6.6,3.8,6.7,8.7l0.1,3.3c-3.7,2.1-15.4,5.3-23,7.9c-3.5,1.1-5.2,4.3-5.2,8.1
		C127.6,92.3,131.7,97.5,140.1,97.5z M143.1,84.2c0-5.8,1.8-7.6,4.1-9c2.1-1.1,6.4-3,8.7-3.9l-0.3,10.2c-0.1,1.7-0.3,3.6-0.6,4.7
		c-0.6,1.9-1.7,6.2-6.4,6.2C144.6,92.4,143.1,88,143.1,84.2L143.1,84.2z"/>
	<path class="st1" d="M153.5,164.7L153.5,164.7c-15.8,0-25.8,7.1-25.8,21c0,13.3,9.2,20.1,25,20.1c14.4,0,25.6-6.5,25.6-20.8
		C178.4,170.2,167.3,164.7,153.5,164.7z M160.5,199.9c-1.2,3-3.5,4.5-6.6,4.5s-5.9-1.6-7.5-5c-1.5-3.2-2.6-7.7-2.6-14.9
		c0-5.9,0.9-11.4,2.4-14.1c1.4-2.5,3.5-4.1,6.6-4.1h0.1c3.3,0,5.4,1.5,7,4.6c1.5,2.7,2.7,9.1,2.7,15.5
		C162.6,192.6,161.6,197,160.5,199.9z"/>
</g>
</svg>
