<?xml version="1.0" encoding="utf-8"?>
<!-- Generator: Adobe Illustrator 28.2.0, SVG Export Plug-In . SVG Version: 6.00 Build 0)  -->
<svg version="1.1" id="Capa_1" xmlns="http://www.w3.org/2000/svg" xmlns:xlink="http://www.w3.org/1999/xlink" x="0px" y="0px"
	 viewBox="0 0 215.8 255.8" style="enable-background:new 0 0 215.8 255.8;" xml:space="preserve">
<style type="text/css">
	.st0{fill:#1D1D1B;}
	.st1{fill:#0090B3;}
</style>
<g>
	<path class="st0" d="M119.5,220.7H73.1v0.7h47.1C120,221.2,119.7,221,119.5,220.7z"/>
	<path class="st1" d="M141.5,220.7c-0.2,0.2-0.5,0.5-0.8,0.7H185v-0.7H141.5z"/>
</g>
<g>
	<path class="st1" d="M191.3,214.7c2.1,0,3.8,1.7,3.8,3.9c0,2.3-1.7,3.9-3.9,3.9c-2.1,0-3.9-1.6-3.9-3.9
		C187.4,216.3,189.1,214.7,191.3,214.7L191.3,214.7z"/>
</g>
<g>
	<path class="st0" d="M104.4,83.2c-5.8,0-9.6-1.5-12.1-4.1c-2-2.1-3-5.3-3-9.1c0-8.4,5.6-13.6,15.5-13.6c11.5,0,13.1,7.7,13.1,10.4
		c0,1.1-0.4,1.7-1.1,2.2c-0.7,0.3-3.3,0.8-9.1,0.8c-1.1,0-4.9,0-8.4,0c-0.1,2.1,0.5,5,1.6,7.1c1.3,2.4,3.3,3.8,7.1,3.8
		c5.1,0,7.5-3.1,9.1-7.1l0.8,0.5C116,80.6,110.5,83.2,104.4,83.2z M104.8,57.2c-3.1,0-5.1,4.2-5.3,11.6c1.4-0.1,2.8-0.1,4.2-0.1
		c2.3-0.1,3.7-0.2,4.5-0.5c0.7-0.3,1.3-1.1,1.3-2.4C109.5,63.1,108.7,57.2,104.8,57.2L104.8,57.2z"/>
	<path class="st0" d="M148,74.2c-1.6,6.3-6.7,9-13,9c-6.6,0-9.8-1.4-12.3-4c-2.2-2.4-2.9-5.5-2.9-8.7c0-8.6,5.5-14.1,16.2-14.1
		c6,0,11.8,1.8,11.8,7.1c0,3-3.1,3.8-5.2,3.8c-0.7,0-1.4-0.2-2-0.6c-0.2-0.2-0.5-0.6-0.5-1.1c0.1-1.1,0.2-1.7,0.2-2.7
		c0-3.2-1.1-5.6-4.4-5.6c-3.8,0-5.8,4.7-5.8,11.8c0,2.4,0.4,5.2,1.1,7c1.6,4,4.1,4.9,7.1,4.9c4.2,0,7.1-2.1,8.8-7.2L148,74.2z"/>
</g>
<g>
	<path class="st1" d="M166.6,56.3c9,0,16.2,3.6,16.2,13.3c0,9.4-7.3,13.6-16.7,13.6c-10.3,0-16.4-4.4-16.4-13.1
		C149.8,61,156.3,56.3,166.6,56.3L166.6,56.3z M166.1,57.3c-2,0-3.4,1.1-4.3,2.7c-1,1.7-1.6,5.3-1.6,9.2c0,4.7,0.7,7.6,1.7,9.7
		c1,2.2,2.9,3.3,4.9,3.3c2,0,3.5-1,4.3-2.9c0.7-1.9,1.4-4.8,1.4-8.8c0-4.2-0.8-8.4-1.7-10.1C169.7,58.3,168.3,57.3,166.1,57.3
		L166.1,57.3z"/>
</g>
<g>
	<path class="st0" d="M126.8,134.2c0-3.6-0.1-6.8-0.5-8.7c-0.1-0.5-0.4-0.8-1.1-0.8h-1.8l-0.2-0.9c2.7,0,9.9-0.5,12.4-1.3l0.2,0.1
		c0.2,0.8,0.5,3.5,0.5,6.7h0.2c2.1-4.6,4.3-6.9,8.1-6.9c3.2,0,4.6,2.4,4.6,4.6c0,4-3,4.8-4.4,4.8c-1.6,0-2.4-0.9-2.6-1.7
		c-0.3-1.7-0.7-2.9-2.1-2.9c-1.6,0-2.6,1.5-3.2,3.4c-0.4,0.8-0.5,1.3-0.5,2.8c0,7.7,0.1,10.9,0.1,12.4c0.1,1.5,0.8,1.8,5.1,2
		l-0.2,0.8c-2.9-0.1-6.1-0.2-9.7-0.2c-3.4,0-6.5,0.2-8.8,0.2l0.3-0.8c2.7-0.1,3.2-0.4,3.3-1.6c0.1-1.3,0.2-3.7,0.2-8.1V134.2z"/>
</g>
<g>
	<path class="st1" d="M177.7,141.3c-1.2,2.8-4.8,8.1-8.9,8.1c-3.7,0-2.4-5.1-1.8-7.5c0.2-0.9,0.9-3.2,1.3-4.6c0,0-0.1,0-0.2,0
		c-2.5,3.8-8.3,12.1-14.4,12.1c-3.2,0-4.3-2.7-4.3-6c0-8.2,6-22.3,13.6-26.8c2.4-1.5,4.2-2,6.3-2c2.5,0,4.2,1.1,4.6,3.1l0.7-2.4h3.6
		c-3.1,9.5-6.4,20.8-8.3,29.5c-0.3,1.3-0.2,2.7,0.8,2.7c2.4,0,5.3-4.2,6.4-6.9L177.7,141.3z M153.2,143.5c0,1.5,0.4,3.8,2.4,3.8
		c3.7,0,7.8-4.6,11.4-10.8c2.1-3.8,5.7-14,5.7-16.8c0-2.9-1.1-4.2-3.3-4.2c-2.2,0-4.5,0.9-7.4,4.6
		C157.1,126.6,153.2,136.6,153.2,143.5L153.2,143.5z"/>
</g>
<g>
	<path class="st0" d="M101.9,207.1c-1.6,6.3-6.7,9-13,9c-6.6,0-9.8-1.4-12.3-4c-2.2-2.4-2.9-5.5-2.9-8.7c0-8.6,5.5-14.1,16.2-14.1
		c6,0,11.8,1.8,11.8,7.1c0,3-3.1,3.8-5.2,3.8c-0.7,0-1.4-0.2-2-0.6c-0.2-0.2-0.5-0.6-0.5-1.1c0.1-1.1,0.2-1.7,0.2-2.7
		c0-3.2-1.1-5.6-4.4-5.6c-3.8,0-5.8,4.7-5.8,11.8c0,2.4,0.4,5.2,1.1,7c1.6,4,4.1,4.9,7.1,4.9c4.2,0,7.1-2.1,8.8-7.2L101.9,207.1z"/>
	<path class="st0" d="M119.6,215.4c-2,0-4.6-0.2-9-0.2c-4.7,0-6.1,0.2-8,0.2l0.1-0.8c3.1-0.2,3.5-0.7,3.6-1.9
		c0.1-1.1,0.2-3.2,0.2-6.8v-6.8c0-3-0.1-5.7-0.2-6.8c-0.1-1-0.5-1.1-3.2-1.1l0.1-0.9c4.2,0,8.8-0.5,13-1.1c-0.1,1.6-0.1,4.1-0.1,9.7
		v7c0,4.2,0.1,5.4,0.2,6.9c0.1,1.3,0.5,1.6,3.4,1.8V215.4z M111.2,176.3c2.7,0,4.3,1.7,4.3,4.4c0,2.4-2,4.1-4.5,4.1
		c-2.4,0-4.2-1.6-4.2-4.1C106.8,178,108.6,176.3,111.2,176.3L111.2,176.3z"/>
</g>
<g>
	<path class="st0" d="M141.1,183.2c6.2,0,8.8,4.6,8.8,10.9c0,8.2-4.2,20-10.2,25.3c-3.2,2.8-6,3.9-9.7,3.9c-4.2,0-9.2-1.6-9.3-10.6
		c0-8.3,4.6-20.8,11.6-26.1c2.7-2.1,5.4-3.3,8.6-3.3H141.1z M140.7,184.5c-2.9,0-5.5,1.8-8,5.4c-4.1,5.7-7.8,17.2-7.8,24.2
		c0,5.9,2.4,7.9,5.1,7.9c2.6,0,4.9-1.1,7.1-4c4.6-5.9,8.5-19.2,8.5-26.7C145.7,186.9,144.3,184.5,140.7,184.5L140.7,184.5z
		 M139.4,178.2c1.8-2.4,6.9-10,8.3-11.9c1.2-1.5,2.3-2.2,3.1-2.1c0.5,0.1,1.1,0.7,0.9,1.6c-0.1,1-1.2,2.6-2.6,3.9
		c-1.3,1.3-4.2,4.2-9,9L139.4,178.2z"/>
</g>
<g>
	<path class="st1" d="M148.8,214.6c2.9-0.1,3.3-0.2,3.3-1.7c0.1-2,0.2-2.9,0.2-7.1v-6.4c0-3.4,0-5.8-0.1-7.2
		c-0.1-0.8-0.5-1.1-3.3-1.2l0.1-0.7c4.2,0,8.4-0.3,12.6-0.9c0.3,1.5,0.4,3.4,0.4,4.5c2.4-2,5.4-4.7,10.6-4.7c4.2,0,6.7,1.8,7.7,3.4
		c0.7,1,1,2,1,3.5v16.7c0,1.3,0.3,1.4,3.4,1.7l-0.1,0.8c-2.7-0.1-5.4-0.2-7.8-0.2c-4.1,0-7.2,0.2-8.4,0.2v-0.8
		c2.4-0.2,2.8-0.5,2.9-1.7c0.1-1.3,0.2-3.2,0.2-8.6c0.1-8.7,0-9.7-0.5-10.6c-0.7-1.1-1.7-1.7-3.2-1.7c-2.4,0-4.2,1.2-5.3,3.1
		c-0.5,0.9-0.8,1.7-0.8,3.1v8.2c0,3,0,4.8,0.1,6.7c0.1,1.2,0.5,1.4,3.2,1.6v0.8c-2,0-5.3-0.2-8.4-0.2c-3.9,0-6.6,0.2-8.1,0.2V214.6z
		"/>
</g>
<g>
	<path class="st0" d="M56.6,34.1c1.3,0.1,4.8,0.2,7,0.2c2.9,0,4.8-0.2,8.4-0.2c5.8,0,9.3,1.5,12,4.5c2,2,3.5,6.5,3.5,11.5
		c0,12.7-6,26.4-17.2,31.9c-3.4,1.6-7.8,2.4-11.5,2.4c-3,0-6.1-0.4-9.1-0.4c-1.3,0-5.9,0.2-7.1,0.2l0.4-0.9L46,83
		c1.6-0.2,2.1-0.6,2.9-2.9c0.7-1.9,1.7-4.9,6.2-20.5c4.2-14.5,5.6-18.9,6.2-21.8c0.4-1.7,0.1-2.1-1.3-2.4L56.1,35L56.6,34.1z
		 M70,35.3c-3.1,0-3.7,0.4-4.1,1.5c-0.5,1.6-2.2,5.6-6.7,21.8c-4.5,16.2-5.7,20.6-6,22.6c-0.1,1,0.2,1.9,4.3,1.9
		c5.8,0,8.5-1,10.8-2.4c9.4-5.4,14.8-20.3,14.8-31.2c0-3.8-0.7-7.1-2.2-9.3C78.7,36.6,75.4,35.3,70,35.3L70,35.3z"/>
</g>
</svg>
