<?xml version="1.0" encoding="utf-8"?>
<!-- Generator: Adobe Illustrator 28.2.0, SVG Export Plug-In . SVG Version: 6.00 Build 0)  -->
<svg version="1.1" id="Capa_1" xmlns="http://www.w3.org/2000/svg" xmlns:xlink="http://www.w3.org/1999/xlink" x="0px" y="0px"
	 viewBox="0 0 215.8 255.8" style="enable-background:new 0 0 215.8 255.8;" xml:space="preserve">
<style type="text/css">
	.st0{fill:#1D1D1B;}
	.st1{fill:#BAD9B9;}
</style>
<g>
	<rect x="108.9" y="241.4" class="st0" width="70" height="1"/>
</g>
<g>
	<path class="st0" d="M182.6,224.8c3.6,0,6.5,2.9,6.5,6.6c0,3.9-2.9,6.7-6.6,6.7c-3.6,0-6.6-2.8-6.6-6.7
		C175.9,227.7,178.8,224.8,182.6,224.8L182.6,224.8z"/>
</g>
<g>
	<path class="st1" d="M101.8,14.4c2.1,0,5.9,0.3,8.5,0.3c3.5,0,7.6-0.3,9.4-0.3l-0.2,1.1c-5.8,0.5-6.4,1.1-6.5,3
		c-0.6,6.2-1,33.3-1.8,53.3C124.4,49,133.4,35.2,141,20.3c1.4-2.8,1.2-3.6-0.5-4c-1.8-0.3-4-0.5-5.3-0.8l0.5-1.1
		c1.6,0,5.3,0.3,8.3,0.3c2.4,0,6.3-0.3,8.6-0.3l-0.2,1.1c-5.1,0.6-6.1,1.3-8.9,5.7c-7.8,12.2-23.7,38.3-34.3,57.7
		c-1.2,0.2-2.4,0.8-3.4,1.5l-0.3-0.1c0.7-13.3,1.7-50.6,1.6-62.1c-0.2-1.5-0.6-1.9-2.8-2.2l-3.4-0.5L101.8,14.4z"/>
</g>
<g>
	<path class="st0" d="M161.2,79.2c-2.6,0-6-0.3-11.7-0.3c-6,0-8,0.3-10.4,0.3l0.1-1.1c4-0.3,4.6-0.9,4.6-2.4
		c0.2-1.4,0.2-4.1,0.2-8.8v-8.8c0-3.9-0.1-7.4-0.2-8.8c-0.2-1.2-0.7-1.5-4.1-1.4l0.1-1.2c5.4,0,11.5-0.7,16.9-1.5
		c-0.1,2-0.2,5.3-0.2,12.6v9.1c0,5.4,0.1,7,0.2,8.9c0.2,1.7,0.6,2.1,4.4,2.3V79.2z M150.2,28.4c3.5,0,5.6,2.2,5.6,5.7
		c0,3.2-2.6,5.3-5.9,5.3c-3.1,0-5.4-2.1-5.4-5.3C144.5,30.7,146.8,28.4,150.2,28.4L150.2,28.4z"/>
	<path class="st0" d="M186,53.8c-0.1-4.1-1.5-7.4-5.6-7.4c-4.6,0-6.3,3-6.2,6.5c0,0.9,0.1,2.3,0.2,3c0.2,0.8,0,1.4-0.6,1.9
		c-1,0.9-2.8,1.3-4.3,1.3c-2.6,0-5-1.3-5-4.3c0-3.9,4.8-9.8,18.2-9.8c8.9,0,12.2,3,13.9,5.1c0.7,0.9,1.3,2.8,1.3,4.2
		c0,1.9,0,13.7,0,19.1c0,2.5,0.5,2.9,1.6,2.9c1.5,0,3.6-2.9,4.3-6.6l1.2,0.5c-1.4,6.6-4.9,9.6-11.5,9.6c-6.4,0-7.4-3.7-7.7-6.3
		c-3.9,4.3-8.2,6.3-13,6.3c-7.1,0-10.5-4.3-10.5-9.9c0-3.3,1.5-6,4.4-6.9c6.5-2.2,16.4-4.9,19.5-6.7L186,53.8z M175.2,68.9
		c0,3.1,1.3,6.9,4.6,6.9c3.9,0,4.9-3.6,5.4-5.3c0.3-0.9,0.5-2.5,0.5-3.9l0.2-8.7c-1.9,0.8-5.6,2.4-7.4,3.3
		C176.8,62.4,175.2,63.9,175.2,68.9L175.2,68.9z"/>
</g>
<g>
	<path class="st1" d="M141.3,202.8l-0.2,1.4l-10.3,0.6c0,2.6-0.1,7.4-0.1,13.1c-0.1,5.6,0,10.8,0.4,13.6c0.2,1.8,1.2,2.5,2.7,2.5
		c4.3,0,6.6-4.7,7-7.7h0.5l1,2.2c-1.6,4.6-6.9,7.8-13.5,7.8c-4.2,0-7.3-1.1-9.1-3.3c-0.9-1.2-1.4-2.6-1.5-5
		c-0.2-5.7,0.2-16.8,0.2-23.5l-5.2-0.5l0.4-1.4h4.8c0-2.2,0.1-6.8,0.1-10.1c5.2-0.9,10.6-2.6,12.4-3.8l0.5,0.2
		c-0.2,2.7-0.5,10-0.5,13.7H141.3z"/>
</g>
<g>
	<path class="st0" d="M168,225.2c-3.9,7.1-10.4,11.4-17.4,11.4c-6.7,0-9.1-5.2-9.1-11.5c0-9.7,4.7-22.2,12.2-29.3
		c3.1-2.7,6.9-4.4,10.5-4.4c6.1,0,7.6,4,7.6,8c0,3.7-2.5,6-5.1,7.6c-4.8,3.3-13.2,6.3-18.7,7.5c-0.7,2.6-1.3,7-1.3,9.9
		c0,5.8,1.8,9.7,6.5,9.7c6.5,0,11.2-4.3,14.1-12h0.4L168,225.2z M163.3,192.8c-3.5,0-10.2,3.9-14.8,19.9c4.6-0.9,10.6-3.3,13.2-4.6
		c4.2-2.5,5.6-6.4,5.6-9.7c0-4-1.7-5.7-4-5.7H163.3z M161.6,185.7c2-2.7,7.7-11.3,9.4-13.4c1.3-1.7,2.5-2.4,3.5-2.3
		c0.6,0.1,1.2,0.8,1,1.8c-0.1,1.1-1.3,3-3,4.4c-1.4,1.4-4.8,4.8-10.2,10.2L161.6,185.7z"/>
</g>
<g>
	<path class="st0" d="M139.1,107.4c5.1,0,11.3-0.5,17.4-1c-0.2,2.5-0.4,6.4-0.4,16.6v20.8c0,8.1,0,11.1,0.2,12.9
		c0.2,2.5,0.7,2.7,4.7,2.9l-0.1,1.1c-2.7,0-8.2-0.3-10.3-0.3c-5.7,0-10.1,0.3-12.1,0.3v-1.1c3.7-0.1,4.5-0.5,4.6-2.9
		c0.2-1.7,0.5-7.3,0.5-15.1V122c0-7.2,0-9.8-0.2-11.8c-0.2-1.5-0.5-1.7-4.3-1.9V107.4z"/>
	<path class="st0" d="M181.9,160.7c-2.6,0-6-0.3-11.7-0.3c-6,0-8,0.3-10.4,0.3l0.1-1.1c4-0.3,4.6-0.9,4.6-2.4
		c0.2-1.4,0.2-4.1,0.2-8.8v-8.8c0-3.9-0.1-7.4-0.2-8.8c-0.2-1.2-0.7-1.5-4.1-1.4l0.1-1.2c5.4,0,11.5-0.7,16.9-1.5
		c-0.1,2-0.2,5.3-0.2,12.6v9.1c0,5.4,0.1,7,0.2,8.9c0.2,1.7,0.6,2.1,4.4,2.3V160.7z M171,109.9c3.5,0,5.6,2.2,5.6,5.7
		c0,3.2-2.6,5.3-5.9,5.3c-3.1,0-5.4-2.1-5.4-5.3C165.2,112.2,167.6,109.9,171,109.9L171,109.9z"/>
</g>
</svg>
