<?xml version="1.0" encoding="utf-8"?>
<!-- Generator: Adobe Illustrator 28.2.0, SVG Export Plug-In . SVG Version: 6.00 Build 0)  -->
<svg version="1.1" id="Capa_1" xmlns="http://www.w3.org/2000/svg" xmlns:xlink="http://www.w3.org/1999/xlink" x="0px" y="0px"
	 viewBox="0 0 215.8 255.8" style="enable-background:new 0 0 215.8 255.8;" xml:space="preserve">
<style type="text/css">
	.st0{fill:#E9C7B2;}
	.st1{fill:#1D1D1B;}
</style>
<rect x="75" y="226.7" class="st0" width="103.8" height="1.6"/>
<path class="st0" d="M187.9,216.4c2.5,0,4.6,2,4.6,4.7s-2.1,4.7-4.7,4.7c-2.6,0-4.7-2-4.7-4.7S185.3,216.4,187.9,216.4L187.9,216.4
	L187.9,216.4z"/>
<path class="st1" d="M69.8,46.3C68.9,36.8,64,29,53.9,29c-4.8,0-8.1,1.5-10.7,4.4c-3.5,3.9-5.5,9.9-5.5,18c0,7.3,1.3,12.9,4.3,16.8
	c3.2,4.2,7.5,6,13.4,6c7.2,0,13.9-3.7,16.9-13l0.9,0.8c-3,10-11.3,15.6-23.1,15.6c-8,0-15.7-1.9-20.5-6.7C25,66.1,23.2,59.5,23.2,53
	c0-8.6,3.4-15.8,10-20.4c4.5-3.2,10.5-5,18.9-5s13.8,2,17.1,5.2l1.6-4.6l0.7,0.4c-1,5.5-1.1,13.8-0.9,17.6L69.8,46.3L69.8,46.3z"/>
<path class="st1" d="M97.4,44.7c10.8,0,19.5,4.3,19.5,15.9S108.1,77,96.8,77c-12.4,0-19.6-5.3-19.6-15.8S85,44.7,97.4,44.7
	C97.3,44.7,97.4,44.7,97.4,44.7z M96.8,45.9c-2.4,0-4.1,1.3-5.2,3.2c-1.1,2.1-1.9,6.4-1.9,11c0,5.7,0.9,9.2,2,11.7
	c1.2,2.7,3.4,3.9,5.9,3.9c2.4,0,4.2-1.1,5.2-3.5c0.9-2.2,1.6-5.7,1.6-10.6s-0.9-10-2.1-12.2C101.1,47.1,99.5,45.9,96.8,45.9
	C96.9,45.9,96.8,45.9,96.8,45.9z"/>
<path class="st0" d="M142.2,60.4c4.8,0.1,8.6,0.1,13.4,0l-0.6,3.1c-4.9-0.1-8.7-0.1-13.5,0L142.2,60.4L142.2,60.4z"/>
<path class="st1" d="M96.2,123.4l-0.1,1.3l-9.5,0.6c0,2.4-0.1,6.8-0.1,12.1c-0.1,5.2,0,10,0.4,12.6c0.1,1.6,1.1,2.3,2.5,2.3
	c3.9,0,6.1-4.4,6.5-7.1h0.4l0.9,2.1c-1.5,4.3-6.4,7.2-12.6,7.2c-3.9,0-6.7-1-8.4-3c-0.9-1.1-1.3-2.4-1.4-4.7
	c-0.2-5.2,0.1-15.6,0.2-21.7l-4.8-0.4l0.4-1.3H75c0-2,0.1-6.3,0.1-9.3c4.8-0.8,9.8-2.4,11.5-3.5l0.4,0.1c-0.1,2.5-0.5,9.3-0.5,12.7
	L96.2,123.4L96.2,123.4z"/>
<path class="st1" d="M117.6,153.8c-2.4,0-5.5-0.3-10.8-0.3c-5.6,0-7.4,0.3-9.6,0.3l0.1-1c3.7-0.3,4.2-0.8,4.3-2.2
	c0.1-1.3,0.2-3.8,0.2-8.2v-8.2c0-3.7-0.1-6.9-0.2-8.2c-0.1-1.1-0.6-1.4-3.8-1.3l0.1-1.1c5,0,10.6-0.6,15.6-1.4
	c-0.1,1.9-0.1,4.9-0.1,11.7v8.4c0,5,0.1,6.5,0.2,8.2c0.1,1.6,0.6,1.9,4.1,2.1L117.6,153.8L117.6,153.8z M107.5,106.7
	c3.2,0,5.2,2,5.2,5.3c0,2.9-2.4,5-5.5,5c-2.9,0-5-1.9-5-4.9C102.2,108.9,104.3,106.7,107.5,106.7L107.5,106.7L107.5,106.7z"/>
<path class="st1" d="M74.9,218.2c3.4-0.1,3.9-0.3,4-2.1c0.1-2.4,0.3-3.5,0.3-8.5v-7.7c0-4.1,0-7-0.1-8.6c-0.1-0.9-0.6-1.3-3.9-1.4
	l0.1-0.9c5.1,0,10.1-0.4,15.1-1.1c0.4,1.8,0.5,4.1,0.5,5.4c2.9-2.4,6.5-5.6,12.8-5.6c5,0,8,2.1,9.3,4.1c0.8,1.2,1.2,2.4,1.2,4.2
	v20.1c0,1.5,0.4,1.6,4.1,2.1l-0.1,1c-3.2-0.1-6.5-0.3-9.3-0.3c-4.9,0-8.7,0.3-10,0.3v-1c2.9-0.2,3.4-0.6,3.5-2.1
	c0.1-1.6,0.3-3.9,0.3-10.3c0.1-10.5,0-11.7-0.6-12.8c-0.8-1.4-2-2.1-3.9-2.1c-2.9,0-5.1,1.4-6.4,3.7c-0.6,1.1-0.9,2-0.9,3.7v9.9
	c0,3.7,0,5.7,0.1,8c0.1,1.4,0.6,1.7,3.8,1.9v1c-2.4,0-6.3-0.3-10.1-0.3c-4.7,0-7.9,0.3-9.7,0.3L74.9,218.2L74.9,218.2z"/>
<path class="st0" d="M178.6,199.6c-0.1-4.7-3.8-10.7-10.2-10.7c-4.2,0-6.2,2.4-6.2,4.8c0,1.6,1.1,2.8,2.4,3.3
	c2.4,1,9.3,2.4,12.2,3.4c3.9,1.5,5.6,4.4,5.6,7.7c0,9.5-8,11.8-15.3,11.8c-4.4,0-9.2-1.3-12-2.1c0.1-2.2,0-6.2-0.4-12.1l0.8-0.4
	c0.4,2,0.9,4.4,2.6,7.2c1.9,3.5,5.7,6,9.9,6c5,0,6.6-2.1,6.6-4.7c0-1.5-1.1-2.9-2.7-3.4c-2.5-0.8-6-1.7-9-2.7
	c-6.1-1.8-7.7-5.4-7.7-9c0-8,6.9-11.2,13.6-11.2c3.4,0,8,1,9.5,2.4l1.3-3.2l0.7,0.4c-0.8,4.9-0.8,9.3-0.7,11.9L178.6,199.6
	L178.6,199.6z"/>
<path class="st0" d="M122.7,40.8c3.1-0.3,8.1-1,10.5-2c-0.3,2.2-2.5,10.7-4.2,16.9h0.3c5.2-11,9.4-16.9,14.2-16.9
	c2.3,0,3.1,1.9,3.1,3.1c0,2.4-1.6,3.7-2.9,3.7c-0.7,0-1.3-0.6-1.4-1.3c-0.4-1.4-0.7-1.9-1.6-1.9c-3,0-7.7,7.8-11,15.7
	c-2.4,5.8-5,13.3-7.4,21.6c-1.5,0.1-3.8,0.4-4.9,0.8c4.2-11.6,9.1-28.5,10.4-37.2c0.1-0.9-0.3-1.3-1.1-1.3h-4.5L122.7,40.8
	L122.7,40.8z"/>
<path class="st0" d="M153.7,210.4c-1.4,3.4-5.8,9.7-10.7,9.7c-4.4,0-2.9-6.1-2.2-9.1c0.3-1,1-3.9,1.5-5.5h-0.2
	c-3,4.6-10,14.5-17.3,14.5c-3.9,0-5.2-3.3-5.2-7.2c0-9.9,7.3-26.8,16.3-32.2c2.9-1.8,5.1-2.4,7.5-2.4c3,0,5,1.3,5.6,3.7l0.8-2.9h4.3
	c-3.8,11.4-7.7,25-10,35.4c-0.4,1.6-0.3,3.2,0.9,3.2c2.9,0,6.4-5,7.7-8.3L153.7,210.4L153.7,210.4z M124.2,213.2
	c0,1.8,0.5,4.6,2.8,4.6c4.4,0,9.4-5.6,13.7-12.9c2.5-4.5,6.9-16.8,6.9-20.2c0-3.4-1.3-5.1-4-5.1c-2.6,0-5.4,1-8.9,5.6
	C128.9,192.8,124.2,204.9,124.2,213.2L124.2,213.2L124.2,213.2z"/>
</svg>
