<svg width="83" height="83" viewBox="0 0 83 83" fill="none" xmlns="http://www.w3.org/2000/svg">
<circle cx="41.949" cy="41.9491" r="38.9984" transform="rotate(90 41.949 41.9491)" stroke="#292929" stroke-width="4.1051"/>
<path d="M44.0015 25.5287C44.0015 24.3951 43.0826 23.4761 41.949 23.4761C40.8154 23.4761 39.8964 24.3951 39.8964 25.5287H44.0015ZM40.4976 59.8208C41.2992 60.6224 42.5988 60.6224 43.4003 59.8208L56.4627 46.7585C57.2643 45.9569 57.2643 44.6573 56.4627 43.8558C55.6611 43.0542 54.3615 43.0542 53.5599 43.8558L41.949 55.4667L30.338 43.8558C29.5364 43.0542 28.2368 43.0542 27.4353 43.8558C26.6337 44.6573 26.6337 45.9569 27.4353 46.7585L40.4976 59.8208ZM39.8964 25.5287L39.8964 58.3695H44.0015L44.0015 25.5287H39.8964Z" fill="#292929"/>
</svg>
