<?xml version="1.0" standalone="no"?>
<!DOCTYPE svg PUBLIC "-//W3C//DTD SVG 20010904//EN"
 "http://www.w3.org/TR/2001/REC-SVG-20010904/DTD/svg10.dtd">
<svg version="1.0" xmlns="http://www.w3.org/2000/svg"
 width="2294.000000pt" height="1114.000000pt" viewBox="0 0 2294.000000 1114.000000"
 preserveAspectRatio="xMidYMid meet">

<g transform="translate(0.000000,1114.000000) scale(0.100000,-0.100000)"
fill="#000000" stroke="none">
<path d="M680 11125 c0 -10 10 -15 30 -15 20 0 30 5 30 15 0 10 -10 15 -30 15
-20 0 -30 -5 -30 -15z"/>
<path d="M7690 11125 c0 -10 11 -15 35 -15 24 0 35 5 35 15 0 10 -11 15 -35
15 -24 0 -35 -5 -35 -15z"/>
<path d="M14710 11125 c0 -10 11 -15 35 -15 24 0 35 5 35 15 0 10 -11 15 -35
15 -24 0 -35 -5 -35 -15z"/>
<path d="M21730 11125 c0 -10 10 -15 30 -15 20 0 30 5 30 15 0 10 -10 15 -30
15 -20 0 -30 -5 -30 -15z"/>
<path d="M680 10875 l0 -165 30 0 30 0 0 165 0 165 -30 0 -30 0 0 -165z"/>
<path d="M7697 11033 c-4 -3 -7 -78 -7 -165 l0 -158 35 0 35 0 0 165 0 165
-28 0 c-16 0 -32 -3 -35 -7z"/>
<path d="M14710 10876 l0 -166 35 0 35 0 -2 163 -3 162 -32 3 -33 3 0 -165z"/>
<path d="M21730 10875 l0 -165 30 0 30 0 0 165 0 165 -30 0 -30 0 0 -165z"/>
<path d="M9730 9915 c0 -5 -23 -475 -50 -1044 -28 -569 -50 -1049 -50 -1067
l0 -32 65 -7 c36 -4 69 -5 72 -2 4 5 113 2147 109 2153 -1 1 -34 4 -73 6 -46
2 -73 0 -73 -7z"/>
<path d="M6594 9350 c-124 -40 -204 -144 -212 -280 l-4 -75 -127 -1 c-148 0
-216 -15 -341 -77 -107 -52 -202 -143 -249 -238 -138 -282 37 -652 330 -697
l54 -8 -54 -28 c-78 -40 -156 -118 -175 -174 -49 -143 25 -262 187 -297 l27
-5 -51 -43 c-70 -57 -105 -110 -125 -186 -13 -54 -14 -74 -4 -125 33 -166 131
-259 305 -286 175 -28 531 43 736 146 82 41 188 125 229 181 126 172 72 438
-107 529 -123 63 -215 57 -613 -37 -273 -66 -338 -71 -407 -36 -36 19 -63 71
-63 122 0 102 90 164 342 236 180 51 283 104 363 184 97 97 145 211 145 342 0
190 -93 352 -253 443 -54 30 -57 34 -57 70 0 134 104 233 245 233 l65 0 0 32
c0 18 3 47 6 64 l7 31 -69 -1 c-39 0 -96 -9 -130 -19z m-171 -497 c116 -55
186 -149 212 -289 46 -236 -95 -419 -369 -479 -247 -55 -442 56 -501 285 -56
215 49 406 264 482 90 31 130 37 232 34 83 -2 105 -7 162 -33z m515 -1275 c49
-23 86 -73 108 -144 27 -90 10 -177 -46 -246 -108 -131 -440 -249 -700 -250
-145 -1 -209 20 -268 87 -48 55 -66 113 -60 199 5 82 39 135 118 187 81 53
143 75 369 130 302 75 387 81 479 37z"/>
<path d="M7679 9274 c-42 -7 -102 -23 -133 -34 l-56 -21 0 -65 c0 -35 2 -64 4
-64 2 0 29 11 59 25 84 39 204 58 320 52 l97 -5 0 58 c0 51 -2 58 -22 64 -39
10 -190 5 -269 -10z"/>
<path d="M8030 9197 c0 -62 0 -63 45 -101 57 -47 88 -94 115 -171 18 -52 49
-226 50 -277 0 -20 -10 -23 -122 -38 l-88 -12 0 -49 c0 -56 -9 -54 120 -34 52
8 97 11 101 7 7 -8 39 -290 39 -341 0 -71 -105 -219 -210 -296 -49 -36 -50
-37 -50 -91 0 -30 3 -54 8 -54 38 0 199 151 249 234 l37 60 17 -90 c24 -121
43 -179 57 -178 7 1 31 2 55 3 70 2 72 6 43 112 -30 116 -36 150 -91 624 -25
209 -50 398 -56 420 -19 69 -79 176 -125 225 -43 46 -146 110 -178 110 -13 0
-16 -12 -16 -63z"/>
<path d="M10864 9191 c-134 -22 -244 -80 -349 -186 -127 -127 -196 -268 -242
-490 -22 -104 -24 -138 -20 -255 3 -77 12 -161 21 -195 24 -88 88 -213 143
-274 54 -62 169 -140 247 -170 134 -50 329 -65 454 -36 141 33 285 133 373
258 65 93 90 141 127 252 48 147 65 266 59 418 -9 226 -58 350 -191 482 -91
91 -176 141 -296 174 -84 24 -247 34 -326 22z m251 -116 c204 -43 348 -181
401 -386 26 -96 23 -295 -5 -429 -38 -178 -107 -323 -203 -425 -124 -134 -295
-182 -493 -140 -206 44 -351 188 -401 401 -23 101 -21 274 6 404 40 195 116
347 227 451 133 125 279 164 468 124z"/>
<path d="M7341 9111 c-85 -88 -136 -207 -143 -336 l-3 -50 63 -3 62 -3 0 32
c0 53 30 151 66 217 29 54 34 72 34 132 0 45 -4 70 -11 70 -6 0 -37 -27 -68
-59z"/>
<path d="M680 8245 l0 -815 30 0 30 0 0 815 0 815 -30 0 -30 0 0 -815z"/>
<path d="M7690 8786 l0 -274 -79 -31 c-119 -48 -121 -51 -121 -126 l0 -64 53
36 c44 30 128 73 143 73 2 0 4 -145 4 -321 l0 -322 -52 7 c-29 4 -74 18 -100
31 l-48 24 0 -74 0 -74 38 -10 c20 -6 48 -11 62 -11 14 0 42 -3 63 -6 l37 -7
0 -103 0 -104 35 0 35 0 0 108 0 109 83 17 c114 24 127 34 127 96 0 28 -3 50
-7 50 -5 0 -35 -9 -68 -19 -33 -10 -77 -21 -97 -25 l-38 -7 0 335 0 335 53 15
c28 8 75 21 102 28 l50 14 3 47 c4 56 3 56 -108 27 -41 -11 -81 -20 -87 -20
-10 0 -13 59 -13 260 l0 260 -35 0 -35 0 0 -274z"/>
<path d="M14710 8245 l0 -815 35 0 35 0 0 815 0 815 -35 0 -35 0 0 -815z"/>
<path d="M21730 8245 l0 -815 30 0 30 0 0 815 0 815 -30 0 -30 0 0 -815z"/>
<path d="M12320 8864 c-158 -31 -266 -111 -328 -244 -22 -47 -26 -70 -27 -150
0 -83 3 -102 27 -150 59 -124 161 -196 420 -298 154 -61 217 -93 294 -147 99
-71 137 -136 137 -234 0 -129 -73 -238 -184 -277 -73 -25 -252 -25 -364 0
-223 51 -343 160 -378 347 l-12 61 -45 -7 c-91 -13 -91 -14 -64 -119 53 -203
196 -325 454 -387 135 -33 367 -33 454 -1 176 65 263 185 274 374 6 108 -8
167 -55 236 -64 94 -181 168 -408 257 -223 87 -341 160 -386 238 -20 35 -24
56 -24 122 0 68 4 87 27 125 35 60 62 84 133 117 56 26 69 28 180 27 202 -1
362 -63 433 -166 34 -49 72 -152 72 -195 0 -49 11 -56 74 -48 55 7 56 8 56 40
0 56 -39 187 -71 237 -96 150 -290 236 -544 243 -66 2 -131 1 -145 -1z"/>
<path d="M4633 8528 c-230 -23 -451 -173 -547 -371 -93 -189 -89 -462 10 -710
110 -276 274 -450 489 -517 52 -16 96 -22 175 -22 132 -1 213 18 348 83 209
101 340 276 366 490 7 53 6 57 -16 63 -13 3 -40 6 -60 6 -36 0 -37 -1 -43 -47
-31 -227 -161 -376 -390 -449 -103 -33 -230 -35 -321 -6 -141 44 -269 167
-358 342 -31 61 -56 117 -56 124 0 9 200 89 569 226 527 197 568 214 563 234
-9 39 -80 185 -118 242 -87 132 -214 237 -339 284 -73 27 -176 38 -272 28z
m138 -118 c131 -25 284 -141 366 -279 76 -126 126 -91 -434 -301 -268 -101
-495 -183 -503 -184 -22 -2 -38 89 -39 225 -1 129 12 188 62 283 99 186 334
296 548 256z"/>
<path d="M7384 8345 c-44 -35 -99 -120 -118 -184 -42 -142 3 -321 103 -413
l46 -43 3 99 c2 65 -3 121 -13 161 -19 77 -19 128 0 193 10 33 15 81 13 132
l-3 80 -31 -25z"/>
<path d="M3520 8102 c-41 -27 -103 -78 -137 -115 -93 -100 -140 -213 -159
-386 l-7 -65 -75 150 c-41 82 -76 150 -77 152 -2 2 -30 -11 -64 -28 l-61 -30
24 -48 c13 -26 164 -335 336 -687 172 -352 314 -642 316 -644 3 -3 33 9 69 27
l64 31 -231 472 -231 471 11 117 c18 185 58 280 161 381 41 41 92 78 134 99
37 19 67 38 67 43 0 15 -50 108 -58 108 -4 0 -41 -22 -82 -48z"/>
<path d="M2393 7829 c-63 -24 -156 -106 -185 -163 -29 -56 -36 -177 -14 -242
9 -26 15 -48 13 -49 -1 -1 -32 -10 -69 -19 -290 -77 -518 -328 -518 -571 0
-160 126 -377 257 -444 89 -45 246 -67 316 -45 15 5 5 -11 -34 -54 -73 -78
-102 -138 -103 -211 -1 -74 33 -142 92 -185 41 -29 50 -31 127 -31 l82 0 -23
-30 c-32 -43 -71 -132 -79 -182 l-7 -43 59 0 58 0 1 58 c2 128 93 226 375 401
216 134 293 171 370 178 93 9 125 -2 184 -60 114 -115 113 -259 -5 -404 -27
-34 -82 -87 -121 -117 l-71 -56 87 0 87 0 57 58 c207 212 233 433 70 606 -82
88 -134 110 -248 104 -120 -6 -194 -39 -462 -204 -247 -152 -312 -183 -379
-184 -110 0 -172 104 -123 208 26 55 113 134 241 219 243 163 342 311 342 515
0 216 -153 421 -355 474 -27 8 -62 14 -78 14 -31 0 -44 23 -54 97 -14 106 61
216 171 248 31 9 56 20 56 25 0 5 -5 31 -12 59 -13 59 -22 62 -105 30z m-8
-597 c102 -39 195 -142 237 -260 28 -81 22 -196 -14 -274 -45 -98 -161 -203
-278 -255 -244 -107 -472 -2 -560 258 -68 199 61 417 303 516 34 14 82 29 107
33 57 11 153 2 205 -18z"/>
<path d="M16775 7354 c-92 -22 -149 -41 -200 -66 -242 -122 -394 -348 -412
-613 -23 -350 206 -667 545 -757 106 -28 268 -27 376 1 335 89 563 404 543
751 -18 309 -220 566 -522 662 -59 19 -281 34 -330 22z m-133 -677 l3 -272 68
-3 67 -3 0 -59 0 -60 -220 0 -220 0 0 60 0 59 78 3 77 3 3 180 c1 98 0 185 -2
191 -3 9 -19 8 -63 -2 -93 -22 -93 -22 -93 40 l0 53 106 44 c83 34 115 43 150
41 l44 -4 2 -271z m619 273 l69 0 0 -205 0 -205 45 0 46 0 -3 -57 -3 -58 -42
-3 -43 -3 0 -70 0 -70 -72 3 -73 3 -3 68 -3 67 -164 0 -165 0 0 53 c0 54 1 55
157 271 105 145 162 215 171 211 7 -3 45 -5 83 -5z"/>
<path d="M17087 6667 l-89 -122 87 -3 c48 -2 89 -1 92 1 2 2 2 59 1 125 l-3
120 -88 -121z"/>
<path d="M11446 6669 c-3 -35 -22 -275 -41 -534 -19 -258 -37 -494 -41 -522
l-5 -53 75 0 c42 0 76 3 76 8 -1 4 18 262 42 574 23 312 40 569 37 572 -2 3
-34 8 -71 12 l-65 6 -7 -63z"/>
<path d="M710 6347 c-71 -25 -131 -60 -197 -114 l-43 -34 0 -85 0 -85 32 37
c45 51 160 130 218 149 58 19 128 23 188 12 l43 -9 -3 74 -3 73 -85 2 c-68 2
-98 -2 -150 -20z"/>
<path d="M1010 6262 l0 -79 39 -27 c21 -15 76 -65 121 -112 l84 -85 -101 -102
c-143 -146 -143 -146 -143 -231 l1 -71 57 65 c90 103 245 261 254 258 23 -8
250 -267 255 -290 l6 -28 126 0 126 0 -101 103 c-55 56 -196 204 -313 329
-243 260 -309 318 -388 343 -23 6 -23 5 -23 -73z"/>
<path d="M10146 6178 c-74 -14 -192 -72 -254 -125 -30 -25 -77 -80 -106 -120
-50 -73 -51 -74 -57 -46 -4 15 -7 76 -8 136 l-1 107 -71 0 -70 0 6 -252 c3
-139 8 -268 11 -285 l5 -33 69 0 70 0 0 76 c0 75 1 77 55 160 90 138 177 211
305 254 56 19 81 22 175 18 98 -4 117 -8 176 -36 39 -19 90 -55 122 -86 79
-78 115 -156 173 -373 2 -9 27 -13 80 -13 l77 0 -7 43 c-11 68 -70 231 -107
294 -19 32 -65 90 -104 129 -113 115 -236 165 -401 163 -49 -1 -111 -5 -138
-11z"/>
<path d="M343 6051 c-105 -147 -133 -304 -83 -456 l12 -35 64 0 c35 0 64 3 64
8 0 4 -9 36 -20 70 -26 83 -26 176 0 246 17 43 20 73 18 148 l-3 93 -52 -74z"/>
<path d="M8430 6059 c-131 -19 -259 -92 -346 -197 l-54 -66 0 -90 0 -90 49 75
c116 176 258 257 435 247 159 -9 251 -92 316 -286 l29 -87 71 -3 71 -3 -6 38
c-33 194 -143 367 -272 429 -89 42 -172 51 -293 33z"/>
<path d="M12509 5990 c-68 -11 -172 -49 -230 -85 -93 -58 -211 -191 -268 -302
l-21 -43 79 0 80 0 32 58 c47 82 151 182 229 220 248 121 559 22 679 -216 l31
-62 65 0 c49 0 65 3 65 14 0 7 -18 49 -40 92 -72 144 -214 258 -378 303 -86
23 -243 34 -323 21z"/>
<path d="M7502 5882 c-7 -2 -12 -27 -12 -62 l0 -58 52 -11 c28 -6 73 -23 99
-38 l48 -26 3 -61 c3 -61 3 -61 36 -64 25 -3 32 0 32 15 1 17 1 17 11 1 8 -15
25 -18 104 -18 l95 0 0 55 c0 30 -2 55 -5 55 -3 0 -12 -17 -20 -37 l-16 -38
-36 65 c-70 124 -183 202 -315 218 -36 5 -70 6 -76 4z"/>
<path d="M7337 5856 c-130 -39 -272 -153 -333 -268 l-15 -28 52 0 c50 0 54 2
119 63 72 69 127 100 208 119 l52 13 0 62 c0 35 -1 63 -2 62 -2 0 -38 -10 -81
-23z"/>
<path d="M680 5675 l0 -115 30 0 30 0 0 115 0 115 -30 0 -30 0 0 -115z"/>
<path d="M14710 5674 l0 -115 33 3 32 3 3 113 3 112 -36 0 -35 0 0 -116z"/>
<path d="M21730 5675 l0 -115 30 0 30 0 0 115 0 115 -30 0 -30 0 0 -115z"/>
<path d="M6782 5718 c-42 -9 -44 -11 -38 -41 3 -18 8 -51 12 -74 l7 -43 68 0
c79 0 75 -6 58 101 -13 77 -14 78 -107 57z"/>
<path d="M14072 5615 c-12 -25 -22 -48 -22 -50 0 -3 34 -5 75 -5 63 0 76 3 85
19 14 28 14 28 -34 50 -81 35 -80 35 -104 -14z"/>
<path d="M922 5595 l-24 -30 22 -3 c28 -5 32 0 28 34 l-3 29 -23 -30z"/>
<path d="M310 5484 c0 -12 35 -64 43 -64 23 0 47 23 47 45 0 23 -4 25 -45 25
-25 0 -45 -3 -45 -6z"/>
<path d="M680 4825 l0 -665 30 0 30 0 0 417 0 416 38 -59 c39 -59 110 -131
151 -153 21 -12 21 -11 21 75 0 83 -1 88 -31 122 -97 110 -99 236 -9 416 22
43 40 82 40 87 0 5 -24 9 -52 9 -52 0 -54 -1 -77 -43 -14 -23 -37 -71 -53
-107 l-27 -65 -1 108 0 107 -30 0 -30 0 0 -665z"/>
<path d="M1590 5432 c0 -76 -31 -196 -72 -280 -43 -88 -170 -219 -248 -254
-85 -39 -141 -42 -237 -13 -22 7 -23 6 -23 -69 0 -70 2 -76 23 -80 66 -14 90
-14 152 -1 188 40 385 236 461 460 22 66 27 98 28 185 l1 105 -42 3 -43 3 0
-59z"/>
<path d="M1740 5459 c19 -16 59 -48 88 -71 l53 -41 46 40 c26 21 48 44 50 50
2 6 -11 20 -30 32 -29 18 -50 21 -138 21 l-104 -1 35 -30z"/>
<path d="M2270 5480 c0 -26 56 -116 96 -155 145 -142 396 -104 729 109 l80 51
-93 3 c-90 3 -96 2 -155 -31 -80 -45 -194 -85 -260 -93 -29 -3 -80 -1 -112 6
-52 10 -67 19 -113 66 -52 53 -53 54 -112 54 -35 0 -60 -4 -60 -10z"/>
<path d="M6780 5483 c0 -11 232 -1287 234 -1290 1 -1 33 3 72 11 49 9 68 17
67 27 -1 8 -45 253 -98 545 l-96 532 45 91 46 91 -50 0 c-36 0 -52 -4 -56 -15
-4 -8 -10 -15 -15 -15 -5 0 -9 7 -9 15 0 12 -14 15 -70 15 -38 0 -70 -3 -70
-7z"/>
<path d="M7690 4825 l0 -665 35 0 35 0 0 665 0 665 -35 0 -35 0 0 -665z"/>
<path d="M7821 5463 c5 -15 39 -184 74 -376 35 -192 67 -352 70 -355 3 -3 5
166 5 376 l0 382 -80 0 -80 0 11 -27z"/>
<path d="M8875 5458 c3 -18 41 -225 84 -460 42 -235 80 -430 83 -433 2 -3 34
1 69 8 59 12 64 15 61 37 -1 14 -38 216 -80 450 l-77 425 -73 3 -73 3 6 -33z"/>
<path d="M9600 5438 c0 -29 9 -345 20 -703 11 -357 20 -663 20 -679 l0 -29 70
5 c39 3 72 7 73 9 3 4 -7 400 -16 644 l-6 140 87 -86 c130 -127 250 -179 419
-179 109 0 172 14 268 60 130 62 242 186 302 333 59 144 96 376 79 491 l-7 46
-73 0 -74 0 -5 -157 c-5 -181 -25 -273 -83 -391 -118 -241 -391 -334 -634
-216 -79 39 -194 144 -253 231 -29 41 -29 43 -33 225 -3 101 -7 211 -10 246
l-6 62 -69 0 -69 0 0 -52z"/>
<path d="M11356 5478 c-2 -7 -18 -210 -36 -452 -28 -370 -30 -440 -19 -447 8
-5 40 -9 71 -9 l57 0 5 43 c6 39 66 837 66 865 0 8 -21 12 -70 12 -48 0 -72
-4 -74 -12z"/>
<path d="M11945 5433 c-51 -175 -64 -396 -31 -543 70 -319 341 -522 696 -522
124 0 203 18 304 69 73 37 186 136 219 192 l17 30 -44 30 c-46 32 -66 38 -66
21 0 -22 -123 -139 -178 -168 -156 -84 -366 -82 -539 4 -209 104 -316 365
-273 663 5 35 10 65 12 66 2 2 269 -43 593 -100 325 -58 595 -105 601 -105 27
0 45 266 26 375 l-7 40 -68 3 -67 3 7 -58 c9 -67 9 -210 1 -219 -6 -6 -1048
174 -1058 183 -2 2 3 24 12 48 l17 45 -79 0 -79 0 -16 -57z"/>
<path d="M14015 5480 c-26 -42 -533 -1226 -527 -1231 4 -4 33 -19 65 -33 l58
-25 18 42 c223 518 418 957 434 974 32 36 235 132 307 147 l65 13 3 51 c2 35
-1 52 -9 52 -38 0 -147 -38 -226 -80 -51 -27 -93 -46 -93 -44 0 3 13 36 30 75
l29 69 -74 0 c-41 0 -77 -4 -80 -10z"/>
<path d="M14710 5466 c0 -24 0 -24 -45 -11 -24 8 -70 15 -102 17 l-58 3 -3
-52 c-3 -58 -8 -54 83 -68 22 -4 59 -15 83 -25 l42 -19 0 -403 0 -403 -102
-230 -101 -230 -5 -113 c-4 -116 3 -146 36 -140 9 2 48 79 93 183 l78 180 35
3 36 3 0 79 c0 77 1 81 100 308 l100 230 0 224 0 225 -28 39 c-35 48 -101 108
-141 129 -27 13 -31 21 -31 55 0 39 -1 40 -35 40 -30 0 -35 -3 -35 -24z m138
-301 c24 -45 27 -61 26 -155 0 -110 -12 -158 -68 -282 l-24 -53 -1 289 -1 289
21 -19 c12 -10 33 -41 47 -69z"/>
<path d="M21730 4907 l0 -583 -52 -26 c-29 -14 -77 -44 -106 -67 l-52 -42 2
-272 3 -272 48 -32 c77 -51 164 -74 305 -80 l122 -6 0 66 0 65 -67 6 c-197 18
-279 45 -329 111 -71 93 -72 237 -2 325 22 27 111 100 122 100 3 0 6 -9 6 -20
0 -16 7 -20 30 -20 28 0 30 3 30 35 0 33 2 35 53 50 28 8 76 18 105 22 l52 6
0 59 0 59 -37 -7 c-21 -3 -66 -12 -101 -20 -35 -8 -65 -14 -68 -14 -2 0 -4
257 -4 570 l0 570 -30 0 -30 0 0 -583z"/>
<path d="M5629 5359 c-155 -20 -303 -93 -415 -204 -145 -144 -200 -295 -191
-525 16 -396 252 -765 553 -865 66 -22 98 -27 189 -27 344 -1 631 215 701 528
22 101 15 295 -15 407 -88 334 -286 584 -522 660 -86 28 -206 39 -300 26z
m252 -138 c170 -66 317 -252 403 -511 42 -127 56 -206 56 -326 0 -208 -105
-383 -282 -468 -102 -48 -149 -59 -258 -60 -118 -1 -198 25 -293 95 -199 146
-347 471 -347 763 0 255 151 451 401 521 80 22 247 15 320 -14z"/>
<path d="M8031 4736 l-1 -359 38 7 c20 3 44 6 52 6 43 1 43 5 -20 351 -33 184
-62 339 -65 344 -2 6 -4 -151 -4 -349z"/>
<path d="M15379 5059 c-80 -11 -172 -44 -256 -91 l-73 -39 0 -50 0 -49 73 36
c198 100 355 114 502 45 84 -39 129 -82 166 -157 29 -59 32 -74 32 -152 -1
-61 -7 -108 -23 -156 -12 -38 -113 -280 -226 -538 -112 -258 -204 -472 -204
-477 0 -6 122 -62 126 -57 8 9 436 1005 448 1042 23 71 35 189 25 257 -11 82
-59 179 -117 235 -116 113 -312 175 -473 151z"/>
<path d="M4048 4639 c-124 -18 -307 -117 -409 -222 -209 -214 -237 -534 -74
-857 149 -296 374 -487 617 -522 259 -39 590 129 711 360 53 100 70 184 64
312 -6 118 -12 143 -36 136 -9 -3 -36 -10 -59 -16 -35 -9 -42 -14 -36 -28 4
-9 9 -63 12 -119 3 -85 1 -112 -17 -166 -63 -189 -279 -343 -497 -355 -160 -8
-277 42 -414 178 -180 178 -306 429 -318 630 -5 100 8 174 47 256 92 192 354
334 547 295 72 -14 164 -56 226 -104 l47 -36 40 48 c23 27 41 51 41 55 0 3
-26 23 -57 44 -156 106 -271 135 -435 111z"/>
<path d="M16560 4554 c-202 -54 -360 -194 -472 -419 -41 -81 -91 -232 -108
-324 -17 -94 -15 -273 5 -356 47 -206 190 -366 399 -450 111 -45 183 -58 306
-59 182 0 324 61 446 192 l32 34 -44 40 -44 40 -65 -61 c-113 -105 -200 -136
-364 -129 -208 10 -373 101 -468 258 -49 82 -67 157 -67 295 -1 123 19 255 43
293 6 10 140 -27 585 -164 370 -112 582 -172 588 -166 5 5 18 43 29 83 29 104
36 318 15 417 -62 294 -328 493 -655 491 -60 0 -130 -7 -161 -15z m314 -109
c239 -63 386 -259 386 -518 0 -52 -18 -197 -25 -205 -3 -3 -1027 307 -1032
312 -6 5 50 112 86 164 118 174 266 261 441 262 47 0 112 -7 144 -15z"/>
<path d="M19257 4428 c-4 -62 -7 -142 -7 -178 0 -36 -3 -81 -6 -100 l-6 -35
-179 3 -179 4 0 -54 0 -55 122 -6 c66 -4 145 -7 175 -7 l53 0 0 -82 c0 -46 -7
-291 -15 -545 -14 -470 -12 -543 20 -620 39 -93 128 -158 261 -188 66 -16 260
-21 308 -9 24 6 26 10 26 59 l0 53 -142 4 c-135 3 -146 5 -203 34 -74 36 -120
104 -131 193 -4 31 -1 288 7 571 l14 515 241 -2 242 -1 5 51 c2 29 3 55 0 60
-2 4 -57 7 -122 7 -65 0 -173 3 -241 7 l-122 6 7 214 7 213 -64 0 -65 0 -6
-112z"/>
<path d="M22070 4335 c0 -52 1 -55 28 -60 88 -17 122 -29 165 -58 45 -30 117
-115 140 -164 6 -13 15 -23 20 -23 19 0 97 51 97 63 0 25 -65 123 -114 172
-77 78 -192 125 -302 125 l-34 0 0 -55z"/>
<path d="M17667 4271 c-3 -14 -53 -356 -113 -759 -85 -580 -105 -735 -95 -742
14 -8 122 -23 128 -17 2 2 39 249 83 548 l81 544 67 69 c140 143 275 207 437
207 176 0 289 -60 352 -189 61 -123 59 -170 -31 -775 -42 -280 -76 -517 -76
-527 0 -14 13 -19 70 -27 39 -5 70 -8 70 -6 0 1 36 246 80 544 44 297 80 573
80 612 0 84 -21 180 -51 240 -32 61 -135 159 -201 190 -160 75 -372 76 -521 1
-75 -38 -134 -80 -199 -142 -68 -65 -67 -69 -39 108 10 63 16 118 12 122 -3 3
-34 10 -68 15 -61 9 -61 9 -66 -16z"/>
<path d="M20460 4164 c-36 -7 -106 -34 -156 -58 -243 -120 -373 -363 -374
-696 0 -300 75 -516 235 -675 138 -138 286 -192 500 -182 335 15 559 193 645
512 27 102 38 327 21 447 -29 196 -107 364 -226 484 -89 89 -177 139 -296 168
-81 20 -258 20 -349 0z m305 -106 c133 -28 264 -136 328 -269 102 -213 130
-496 72 -724 -65 -255 -268 -407 -540 -404 -299 2 -508 249 -546 644 -16 175
10 352 72 482 65 135 205 247 344 272 115 21 168 21 270 -1z"/>
<path d="M21435 4039 c-10 -28 -17 -76 -18 -107 0 -61 19 -159 34 -168 5 -3 9
65 9 160 0 91 -2 166 -4 166 -3 0 -12 -23 -21 -51z"/>
<path d="M14427 3855 c-4 -8 -2 -17 3 -20 6 -4 10 3 10 14 0 25 -6 27 -13 6z"/>
<path d="M22070 3595 c0 -61 1 -65 23 -65 12 0 70 -5 129 -10 239 -23 337 -90
367 -253 24 -130 -24 -226 -149 -302 -65 -39 -191 -80 -275 -90 -97 -11 -95
-9 -95 -71 0 -63 -4 -62 121 -39 376 70 572 266 531 532 -39 249 -210 363
-543 363 l-109 0 0 -65z"/>
<path d="M21592 3074 l-53 -34 23 -41 c82 -144 251 -249 403 -249 l35 0 0 60
0 60 -35 0 c-91 0 -217 84 -287 191 -17 27 -32 49 -32 48 -1 0 -25 -16 -54
-35z"/>
<path d="M680 1705 l0 -815 30 0 30 0 0 815 0 815 -30 0 -30 0 0 -815z"/>
<path d="M7690 1705 l0 -815 35 0 35 0 0 815 0 815 -35 0 -35 0 0 -815z"/>
<path d="M14710 1705 l0 -815 35 0 35 0 0 815 0 815 -35 0 -35 0 0 -815z"/>
<path d="M21730 1705 l0 -815 30 0 30 0 0 815 0 815 -30 0 -30 0 0 -815z"/>
</g>
</svg>
