<svg width="89" height="60" viewBox="0 0 89 60" fill="none" xmlns="http://www.w3.org/2000/svg">
<g opacity="0.7">
<mask id="mask0_3072_2081" style="mask-type:luminance" maskUnits="userSpaceOnUse" x="16" y="0" width="58" height="43">
<path d="M73.399 0H16.3699V42.5858H73.399V0Z" fill="white"/>
</mask>
<g mask="url(#mask0_3072_2081)">
<path d="M55.9678 37.2456H52.0897V39.289H55.9678V37.2456ZM38.8768 32.0007C38.8768 31.8508 38.9312 31.7146 39.0401 31.6192H39.0537C39.1761 31.4694 39.3394 31.4557 39.4211 31.4557C39.5027 31.4557 39.666 31.4694 39.8021 31.6056L46.4426 38.2537C46.5514 38.349 46.6059 38.4853 46.6059 38.6351C46.6059 38.785 46.5514 38.9212 46.4426 39.0166C46.2385 39.2345 45.8847 39.2345 45.6805 39.0166L39.0401 32.3685C38.9448 32.2731 38.8768 32.1369 38.8768 31.987M37.5977 33.8125L44.2245 40.447C44.7144 40.9374 45.3676 41.2099 46.0616 41.2099C46.7555 41.2099 47.4087 40.9374 47.885 40.447C48.3748 39.9566 48.647 39.3163 48.647 38.6215C48.647 37.9267 48.3748 37.2728 47.885 36.796L41.2581 30.1615C40.7818 29.6711 40.1287 29.3987 39.4211 29.3987C38.7135 29.3987 38.0739 29.6711 37.5977 30.1615C37.1078 30.652 36.8356 31.2923 36.8356 31.987C36.8356 32.6818 37.1078 33.3357 37.5977 33.8125ZM44.2654 28.8265H48.1435V26.783H44.2654V28.8265ZM28.6167 25.1755H32.4948V23.132H28.6167V25.1755ZM37.7065 37.8858H33.8284V39.9293H37.7065V37.8858ZM36.9581 26.783C36.6587 26.783 36.4138 26.5378 36.4138 26.2381V16.8382C36.4138 16.5385 36.6587 16.2932 36.9581 16.2932C37.2575 16.2932 37.5024 16.5385 37.5024 16.8382V26.2381C37.5024 26.5378 37.2575 26.783 36.9581 26.783ZM39.5435 26.2381V16.8382C39.5435 15.4077 38.3869 14.2498 36.9581 14.2498C35.5293 14.2498 34.3727 15.4077 34.3727 16.8382V26.2381C34.3727 27.6685 35.5293 28.8265 36.9581 28.8265C38.3869 28.8265 39.5435 27.6685 39.5435 26.2381ZM41.1356 11.5933H45.0138V9.5498H41.1356V11.5933ZM47.7897 23.3909C47.7897 23.5407 47.7353 23.677 47.6264 23.7723C47.5312 23.8813 47.3951 23.9358 47.2454 23.9358C47.0957 23.9358 46.9596 23.8813 46.8644 23.7859L43.1768 20.0805C43.0815 19.9851 43.0135 19.8489 43.0135 19.699C43.0135 19.5492 43.0679 19.4265 43.1768 19.3176C43.272 19.2222 43.4081 19.1677 43.5578 19.1677C43.7074 19.1677 43.8435 19.2222 43.9388 19.3176L47.6264 23.023C47.7353 23.1184 47.7897 23.2546 47.7897 23.4045M49.0688 21.579L45.3812 17.8871C44.9049 17.4103 44.2381 17.1379 43.5578 17.1379C42.8774 17.1379 42.2106 17.3967 41.7344 17.8735C41.2445 18.3639 40.9723 19.0042 40.9723 19.7126C40.9723 20.421 41.2445 21.0613 41.7344 21.5381L45.422 25.23C45.9119 25.7204 46.5514 25.9793 47.2454 25.9793C47.9394 25.9793 48.5789 25.7068 49.0688 25.23C49.5587 24.7396 49.8308 24.0993 49.8308 23.4045C49.8308 22.7097 49.5587 22.0558 49.0688 21.579ZM54.5663 12.1246C54.5663 12.2063 54.5527 12.3698 54.4166 12.506L50.7289 16.1979C50.6201 16.3069 50.484 16.3614 50.3343 16.3614C50.1846 16.3614 50.0622 16.3069 49.9533 16.1979C49.8581 16.1025 49.8036 15.9663 49.8036 15.8164C49.8036 15.6666 49.8581 15.544 49.9669 15.435L53.6546 11.7431C53.7498 11.6341 53.8859 11.5796 54.0356 11.5796C54.1852 11.5796 54.3213 11.6341 54.4166 11.7431H54.4302C54.5254 11.8521 54.5799 11.9883 54.5799 12.1382M55.859 13.9773C56.3488 13.5005 56.621 12.8466 56.621 12.1382C56.621 11.4298 56.3488 10.7895 55.859 10.3127C55.3691 9.82227 54.7295 9.5498 54.0356 9.5498C53.3416 9.5498 52.6884 9.82227 52.2122 10.3127L48.5381 13.9909C48.0482 14.4814 47.7761 15.1353 47.7761 15.8301C47.7761 16.5248 48.0482 17.1787 48.5381 17.6555C49.0144 18.146 49.6675 18.4184 50.3479 18.4184C51.0419 18.4184 51.6815 18.146 52.1713 17.6555L55.8454 13.9773H55.859ZM55.7501 22.5871H59.6283V20.5436H55.7501V22.5871ZM59.1248 26.9329C59.1248 27.0827 59.0704 27.219 58.9615 27.3143L52.321 33.9624C52.1169 34.1667 51.7631 34.1667 51.559 33.9624H51.5454C51.4229 33.8262 51.3957 33.6627 51.3957 33.5673C51.3957 33.472 51.4229 33.3221 51.5454 33.1859L58.1859 26.5242C58.2811 26.4288 58.4172 26.3743 58.5669 26.3743C58.7166 26.3743 58.8526 26.4288 58.9615 26.5378C59.0704 26.6332 59.1248 26.7694 59.1248 26.9193M61.1659 26.9193C61.1659 26.2245 60.8938 25.5706 60.4039 25.0938C59.914 24.6033 59.2745 24.3309 58.5805 24.3309C57.8865 24.3309 57.2333 24.6033 56.7571 25.0938L50.1302 31.7282C49.6403 32.205 49.3682 32.8589 49.3682 33.5673C49.3682 34.2757 49.6403 34.916 50.1302 35.3928C50.6201 35.8832 51.2596 36.1557 51.9536 36.1557C52.6476 36.1557 53.3008 35.8832 53.777 35.3928L60.4039 28.7584C60.8938 28.2679 61.1659 27.614 61.1659 26.9193Z" fill="#222221"/>
</g>
</g>
<path d="M44.8912 49.8333C58.3763 49.8333 69.3031 38.8939 69.3031 25.3934C69.3031 11.893 58.3763 0.953613 44.8912 0.953613C31.4062 0.953613 20.4657 11.8793 20.4657 25.3798C20.4657 38.8803 31.3925 49.8197 44.8776 49.8197L44.8912 49.8333Z" stroke="#77B0B3" stroke-width="1.71" stroke-miterlimit="10"/>
<path d="M27.8003 42.5313L61.9824 8.22839" stroke="#77B0B3" stroke-width="1.71" stroke-miterlimit="10"/>
<mask id="mask1_3072_2081" style="mask-type:luminance" maskUnits="userSpaceOnUse" x="0" y="20" width="89" height="40">
<path d="M88.1496 20.748H0V59.5058H88.1496V20.748Z" fill="white"/>
</mask>
<g mask="url(#mask1_3072_2081)">
<path d="M73.1133 30.9108L72.324 30.2842C71.9294 30.6656 71.5892 31.265 71.4396 31.8917C71.1946 32.9407 71.5484 33.7308 72.3513 33.9215C73.8753 34.2757 73.9569 31.8917 74.6918 32.0688C74.9231 32.1233 74.9911 32.3549 74.9231 32.6955C74.8142 33.145 74.3924 33.7581 73.9025 34.1123L74.6781 34.7526C75.2224 34.3302 75.6579 33.6355 75.8212 32.9271C76.0389 31.9598 75.7804 31.0879 74.8959 30.8836C73.3446 30.5294 73.2221 32.8998 72.5146 32.7227C72.3104 32.6818 72.256 32.4775 72.324 32.205C72.4057 31.8508 72.7459 31.3195 73.1133 30.9245M72.637 37.3137L71.3987 36.1557H73.0861L72.637 37.3137ZM74.8823 36.183L75.3313 35.0386L70.5279 35.134L70.0924 36.2375L73.5079 39.6296L73.9433 38.5262L73.331 37.954L74.0386 36.1694H74.8823V36.183ZM68.8133 38.9348L72.7595 40.9511L73.2902 39.9157L69.344 37.8859L68.8133 38.9212V38.9348ZM68.0513 41.9455L68.5003 41.2371C68.7589 40.8421 69.0991 40.7467 69.4665 40.9783C69.8475 41.2235 69.9019 41.5777 69.6434 41.9728L69.1943 42.6812L68.0513 41.9455ZM72.5282 41.4687H70.8136C70.868 40.8829 70.6095 40.3925 70.038 40.0247C69.2079 39.4934 68.3643 39.7522 67.7383 40.7331L66.6633 42.4087L70.3918 44.8064L71.0177 43.8255L69.9835 43.158L70.4326 42.4496H70.4462L71.8206 42.545L72.5282 41.4415V41.4687ZM64.2276 45.2015L67.575 48.1032L69.9019 45.4058L69.2079 44.8064L67.6294 46.6183L67.0035 46.0733L68.3915 44.4794L67.6975 43.88L66.3095 45.4739L65.6836 44.929L67.2212 43.158L66.5272 42.5586L64.2412 45.2015H64.2276ZM61.4652 47.6536L62.0912 48.3756L63.0845 47.5174L65.357 50.1466L66.2279 49.3974L63.9554 46.7681L64.9624 45.8962L64.3364 45.1742L61.4652 47.6672V47.6536ZM62.0912 49.084L62.1728 48.0351C61.5469 47.9125 60.8121 48.0759 60.2814 48.4574C59.1792 49.2475 58.907 50.6098 59.6418 51.6588C60.3902 52.7214 61.7646 52.9394 62.8532 52.1629C63.3839 51.7814 63.7785 51.1139 63.8738 50.4327L62.9076 50.2284C62.8396 50.6643 62.6083 51.073 62.3089 51.291C61.751 51.6861 61.0162 51.5498 60.5944 50.964C60.1861 50.3919 60.295 49.6426 60.8529 49.2475C61.1659 49.0296 61.6421 48.9614 62.0912 49.084ZM57.3558 53.4162L57.1925 51.7269L58.458 52.8576L57.3694 53.4162H57.3558ZM59.7779 54.0429L60.8801 53.4843L57.2061 50.3782L56.1447 50.9232L56.4713 55.7321L57.5327 55.1872L57.451 54.3426L59.152 53.4707L59.7779 54.0292V54.0429ZM54.1852 55.5142L53.3415 55.8002L53.0422 54.9147L53.8858 54.6286C54.2668 54.4924 54.5662 54.5878 54.6479 54.8466C54.7431 55.1327 54.5662 55.3779 54.1852 55.5142ZM53.6137 53.8385L52.77 54.1246L52.4979 53.3072L53.3415 53.0211C53.6409 52.9258 53.8858 52.9939 53.9675 53.2527C54.0627 53.5116 53.9131 53.7431 53.6137 53.8385ZM53.1102 52.1492L51.1099 52.8168L52.5251 57.0127L54.5934 56.3179C55.5868 55.991 56.063 55.3234 55.8181 54.6014C55.6412 54.0565 55.1649 53.7568 54.5934 53.8249C55.0017 53.5524 55.1649 53.1029 55.0153 52.6669C54.7975 52.0266 54.0491 51.8087 53.0966 52.1356M49.3817 54.0429L49.5314 53.566C49.1368 53.3617 48.5925 53.2663 48.089 53.3345C47.1773 53.4571 46.633 53.9611 46.7147 54.6559C46.9188 56.2362 49.3001 55.2962 49.4498 56.4678C49.5042 56.8901 49.1368 57.2034 48.5109 57.2852C48.021 57.3533 47.4223 57.1898 46.9732 56.8492L46.7963 57.3124C47.259 57.653 47.9257 57.8573 48.5653 57.7756C49.5042 57.653 50.0893 57.108 49.9941 56.3724C49.8036 54.7785 47.4087 55.6912 47.259 54.5469C47.2045 54.1655 47.5583 53.893 48.1162 53.8249C48.47 53.784 48.9463 53.8249 49.3681 54.0292M43.1903 56.495L44.1292 54.1927L45.1906 56.4405L43.1903 56.495ZM45.9254 58.0208H46.4697L44.3878 53.6342H43.8571L41.9793 58.1298H42.5236L42.9862 56.9718L45.3947 56.9173L45.9254 58.0344V58.0208ZM39.5707 53.3072L39.0128 57.7075L41.435 58.0208L41.4894 57.5576L39.5707 57.3124L40.0742 53.3753L39.5707 53.3072ZM33.6106 54.6968L35.2843 52.8576L35.5021 55.337L33.6106 54.6968ZM35.6518 57.0808L36.1688 57.2579L35.7062 52.4217L35.2027 52.2582L31.9097 55.8139L32.4132 55.991L33.2432 55.0782L35.5293 55.8547L35.6381 57.0944L35.6518 57.0808ZM31.1204 50.5962L29.297 54.6286L31.5287 55.6368L31.7192 55.2144L29.9502 54.4107L31.5831 50.8006L31.1204 50.5962ZM28.3717 49.5064C29.2018 50.0377 29.4603 51.1275 28.9296 51.9585C28.3989 52.7895 27.2967 53.0075 26.4667 52.4762C25.6366 51.9449 25.3645 50.8278 25.8951 50.0104C26.4258 49.1794 27.5417 48.9751 28.3717 49.5064ZM28.6167 49.1113C27.5281 48.4165 26.1401 48.689 25.4597 49.738C24.7929 50.7869 25.1195 52.1765 26.2081 52.8713C27.2967 53.566 28.6847 53.2936 29.3651 52.2446C30.0318 51.1956 29.7053 49.8197 28.6167 49.1249M22.5069 47.5991L23.8676 46.0189L24.7521 46.7954C25.3645 47.3267 25.4733 47.8852 25.0243 48.4029C24.5616 48.9342 23.9901 48.9069 23.3778 48.3756L22.4933 47.6128L22.5069 47.5991ZM23.5274 50.964L23.7316 49.1385C24.3439 49.411 24.9426 49.2611 25.4189 48.7162C26.0312 48.0078 25.9088 47.1768 25.0651 46.4548L23.7996 45.3513L20.9012 48.7026L21.2822 49.0296L22.2075 47.967L23.092 48.7435C23.1736 48.8116 23.2417 48.8661 23.3097 48.9206L23.092 50.5962L23.5274 50.9777V50.964ZM21.323 42.4496L20.9692 42.7493L21.9081 43.8392L18.9145 46.4275L19.2411 46.809L22.2347 44.2206L23.1873 45.3105L23.541 45.0107L21.323 42.4496ZM19.0914 39.003L15.3629 41.387L15.6351 41.8093L18.6559 39.8748L17.0639 44.0571L17.336 44.4931L21.0645 42.0954L20.7923 41.6731L17.7715 43.6212L19.3635 39.4389L19.0778 39.003H19.0914ZM17.4585 36.5508C17.8667 37.4499 17.4857 38.5125 16.6012 38.9212C15.7031 39.3299 14.6553 38.9212 14.2471 38.0085C13.8389 37.1093 14.2199 36.0331 15.118 35.6244C16.0161 35.2157 17.0639 35.6517 17.4585 36.5508ZM17.8803 36.3601C17.3496 35.1749 16.0297 34.6436 14.9003 35.1612C13.7708 35.6789 13.2946 37.014 13.8253 38.1992C14.356 39.3708 15.6759 39.9021 16.8053 39.3844C17.9347 38.8667 18.411 37.5317 17.8803 36.3601ZM15.9344 34.2076L16.3563 34.4256C16.6556 33.9215 16.7509 33.2949 16.6148 32.6955C16.3291 31.4421 15.1452 30.6656 13.9341 30.9517C12.7095 31.2378 11.9883 32.4366 12.274 33.69C12.4101 34.2894 12.7911 34.807 13.2946 35.1476L13.5531 34.7662C13.1585 34.5073 12.8455 34.085 12.7367 33.6082C12.5189 32.6274 13.1041 31.6737 14.0566 31.4558C15.0091 31.2378 15.948 31.8372 16.1794 32.8181C16.2882 33.2949 16.193 33.8126 15.9344 34.2213" fill="#626262"/>
</g>
</svg>
