<svg width="266" height="123" viewBox="0 0 266 123" fill="none" xmlns="http://www.w3.org/2000/svg">
<g clip-path="url(#clip0_2101_3504)">
<mask id="mask0_2101_3504" style="mask-type:luminance" maskUnits="userSpaceOnUse" x="0" y="0" width="101" height="94">
<path d="M69.1954 93.1091L0 51.5701L30.9582 2.10115e-05L100.154 41.539L69.1954 93.1091Z" fill="white"/>
</mask>
<g mask="url(#mask0_2101_3504)">
<path d="M34.5428 3.3025C31.1154 9.01178 29.0689 14.7885 29.0698 21.5237C29.0694 23.3002 29.2382 25.0767 29.5712 26.8333C30.3316 30.894 31.9156 34.823 34.0918 38.3291C36.5864 42.3479 40.0589 45.9215 44.2383 48.1767C46.6688 49.4834 49.5497 50.5191 52.3414 50.0122C53.9114 49.7364 55.3024 48.9132 56.3452 47.7117C60.0733 43.4182 58.067 36.6975 53.1437 34.3004C50.4096 32.9637 47.5357 33.8612 45.7065 36.2319C43.7403 38.7742 43.3265 42.3669 43.1964 45.4868C42.8786 53.4858 45.5663 61.4955 48.9185 68.6519C49.9182 70.7918 51.0399 72.8696 52.2784 74.8653C54.7904 78.9114 57.7329 82.7761 60.9715 86.2601C63.3396 88.7984 65.9689 91.1552 68.9467 92.9597" stroke="white" stroke-width="0.826938"/>
<path d="M35.9912 10.1624L34.5422 3.30256L27.8066 5.24915" stroke="white" stroke-width="0.826938"/>
</g>
</g>
<path d="M91.888 29.676L91.96 30.108C89.908 30.108 88.468 30 87.352 30C85.732 30 83.932 30.108 82.6 30.108L82.456 29.712L84.904 29.496C85.768 29.424 86.056 29.244 86.128 28.668C86.2 27.696 86.308 25.32 86.308 21.9V15.852C86.308 12.108 86.308 10.38 86.236 9.12C86.2 8.616 86.02 8.508 85.768 8.544C85.192 8.616 83.644 8.652 82.816 8.724L82.924 8.292C85.156 8.004 87.496 7.5 88.324 7.068L88.432 7.176C88.432 8.544 88.288 10.812 88.288 15.564V21.9C88.288 25.5 88.36 27.3 88.432 28.668C88.432 29.172 88.648 29.424 89.296 29.46L91.888 29.676ZM101.053 7.212V6.816C101.629 6.816 103.141 6.924 103.897 6.924C104.689 6.924 105.337 6.924 105.949 6.816C106.201 7.392 106.777 8.184 107.929 9.84C108.973 11.496 113.617 18.228 119.773 26.868C119.845 14.304 119.665 10.02 119.557 9.012C119.377 7.716 119.161 7.464 118.117 7.356L116.065 7.212L116.281 6.816C117.109 6.816 118.621 6.96 120.025 6.96C121.573 6.96 122.761 6.816 123.481 6.816V7.212C122.869 7.32 122.221 7.392 121.717 7.536C121.213 7.68 120.997 7.932 120.853 8.832C120.637 10.272 120.457 15.204 120.457 21.144V30.144C120.133 30.216 119.809 30.324 119.485 30.468C116.173 25.248 109.837 16.32 105.121 9.372C105.121 17.112 105.121 26.832 105.337 28.128C105.553 29.064 105.841 29.352 106.489 29.46C107.101 29.532 108.001 29.64 108.613 29.712L108.541 30.144C107.461 30.144 106.309 30 104.437 30C102.781 30 101.737 30.144 100.945 30.144L101.017 29.712C101.557 29.712 102.349 29.604 102.961 29.496C103.789 29.352 103.861 28.632 104.005 27.876C104.221 26.544 104.473 15.132 104.473 8.76C104.365 8.4 104.293 8.184 104.041 7.896C103.825 7.608 103.501 7.536 102.817 7.428L101.053 7.212ZM131.828 14.412H131.864C136.256 14.412 138.668 17.832 138.668 22.224C138.668 27.264 136.004 30.468 131.576 30.468C127.04 30.468 124.592 27.048 124.592 22.62C124.592 18.264 127.04 14.412 131.828 14.412ZM131.684 14.952H131.648C129.92 14.952 128.696 15.708 127.832 17.184C127.112 18.48 126.788 20.316 126.788 22.188C126.788 24.024 127.148 26.004 127.76 27.264C128.624 28.992 130.1 29.964 131.864 29.964C133.592 29.964 134.708 29.28 135.572 27.552C136.076 26.508 136.472 24.744 136.472 22.548C136.472 20.532 136.112 18.624 135.5 17.436C134.744 15.96 133.52 14.952 131.684 14.952ZM130.928 12.648L130.604 12.468C131.288 11.424 133.232 8.076 133.736 7.248C134.168 6.6 134.672 6.312 135.068 6.312C135.356 6.312 135.536 6.528 135.536 6.996C135.536 7.428 135.104 8.112 134.564 8.688C134.024 9.264 132.836 10.488 130.928 12.648ZM142.845 24.096V20.316C142.845 17.832 142.665 16.392 142.557 15.924C142.485 15.672 142.341 15.492 141.873 15.492H140.613L140.757 15.132C141.621 15.096 143.601 14.88 144.393 14.556L144.465 14.592C144.573 15.276 144.645 17.544 144.645 18.156H144.717C145.545 16.284 146.769 14.412 148.857 14.412C150.045 14.412 150.729 15.204 150.729 16.14C150.729 17.148 150.081 17.508 149.721 17.508C149.397 17.508 149.037 17.364 149.037 17.004C148.965 16.068 148.713 15.492 147.741 15.492C146.553 15.492 145.401 17.256 144.933 19.308C144.753 19.92 144.717 20.46 144.717 21.288C144.717 26.4 144.717 27.804 144.789 28.74C144.825 29.46 145.005 29.64 147.489 29.712L147.381 30.144C146.589 30.144 144.969 30 143.709 30C142.341 30 141.549 30.144 140.613 30.144L140.685 29.712C142.341 29.64 142.593 29.46 142.701 28.848C142.809 28.092 142.845 26.544 142.845 24.096ZM160.833 5.628L160.941 5.232C161.985 5.196 164.577 4.98 165.585 4.8C165.513 6.996 165.369 10.488 165.369 14.7V22.116C165.369 27.228 165.441 28.416 165.549 28.992C165.621 29.496 165.837 29.604 166.341 29.604L167.961 29.568L167.745 30.072C166.485 30.072 164.397 30.324 163.389 30.54C163.425 29.676 163.425 28.56 163.425 27.732L163.389 27.696C161.949 29.172 160.113 30.468 157.953 30.468C155.829 30.468 154.353 29.496 153.381 28.128C152.481 26.796 152.049 24.996 152.049 22.98C152.049 18.408 154.605 14.412 159.609 14.412C161.409 14.412 162.777 14.988 163.497 15.564C163.497 10.596 163.461 7.464 163.353 6.204C163.281 5.592 163.029 5.556 160.833 5.628ZM154.173 22.44V22.476C154.173 24.636 154.785 26.652 155.613 27.732C156.405 28.812 157.629 29.388 158.853 29.388C160.365 29.388 162.057 28.884 163.101 26.904C163.353 26.4 163.497 25.824 163.497 20.46C163.497 17.76 163.461 17.472 163.281 17.076C162.921 16.284 161.841 14.916 159.573 14.916C155.757 14.916 154.173 18.408 154.173 22.44ZM172.009 7.5H172.045C172.801 7.5 173.197 8.04 173.197 8.796C173.197 9.552 172.513 10.056 171.865 10.056C171.325 10.056 170.713 9.624 170.713 8.832C170.713 8.004 171.361 7.5 172.009 7.5ZM175.105 29.712L175.069 30.144C174.349 30.144 173.197 30 171.901 30C170.677 30 169.813 30.144 168.805 30.144L168.877 29.712C170.677 29.64 170.965 29.424 171.001 28.812C171.073 28.092 171.181 26.436 171.181 24.24V20.208C171.181 17.616 171.109 16.32 171.037 15.852C171.001 15.42 170.569 15.312 168.949 15.42L169.057 14.988C170.245 14.916 172.045 14.736 173.233 14.412C173.161 15.384 173.053 17.616 173.053 20.28V24.24C173.053 26.904 173.089 28.056 173.161 28.776C173.197 29.532 173.521 29.64 175.105 29.712ZM189.319 25.824L189.751 26.04C188.995 28.884 186.691 30.468 183.775 30.468C181.471 30.468 179.923 29.784 178.807 28.452C177.727 27.192 177.115 25.392 177.115 22.692C177.115 18.624 179.419 14.412 184.495 14.412C187.159 14.412 189.463 15.636 189.463 18.228C189.463 18.948 189.067 19.56 188.347 19.56C188.167 19.56 187.951 19.524 187.807 19.416C187.663 19.308 187.555 19.092 187.591 18.84C187.663 18.588 187.735 18.12 187.735 17.904C187.735 16.104 186.763 14.916 184.531 14.916C180.859 14.916 179.347 18.444 179.347 22.476C179.347 24.384 179.707 26.04 180.427 27.3C181.363 28.812 182.767 29.568 184.603 29.568C187.303 29.568 188.635 28.02 189.319 25.824ZM199.258 14.412H199.294C203.686 14.412 206.098 17.832 206.098 22.224C206.098 27.264 203.434 30.468 199.006 30.468C194.47 30.468 192.022 27.048 192.022 22.62C192.022 18.264 194.47 14.412 199.258 14.412ZM199.114 14.952H199.078C197.35 14.952 196.126 15.708 195.262 17.184C194.542 18.48 194.218 20.316 194.218 22.188C194.218 24.024 194.578 26.004 195.19 27.264C196.054 28.992 197.53 29.964 199.294 29.964C201.022 29.964 202.138 29.28 203.002 27.552C203.506 26.508 203.902 24.744 203.902 22.548C203.902 20.532 203.542 18.624 202.93 17.436C202.174 15.96 200.95 14.952 199.114 14.952Z" fill="white"/>
<path d="M91.708 53.924L91.996 54.14C91.06 56.012 90.232 58.208 89.872 59.18C89.368 59.108 88.18 59 81.484 59C80.188 59 79.144 59 78.352 59.072L78.28 58.964C78.64 58.46 79.108 57.596 79.324 57.308C84.292 53.564 88.288 49.352 89.764 46.76C90.808 44.96 91.564 42.98 91.564 40.64C91.564 38.372 90.556 37.148 88.864 37.148C86.632 37.148 85.336 39.416 85.156 41.972C85.12 42.656 84.796 43.232 84.112 43.232C83.464 43.232 83.068 42.836 83.068 41.756C83.068 40.712 83.788 39.164 85.156 38.012C86.272 37.076 87.712 36.572 89.404 36.572C91.348 36.572 92.536 37.4 93.184 38.156C93.76 38.876 94.156 39.92 94.156 41.216C94.156 44.348 92.464 46.832 90.088 48.992C88.468 50.468 86.164 52.304 80.872 56.948C86.74 56.876 88.828 56.768 89.44 56.696C89.8 56.624 90.052 56.48 90.412 56.048C90.736 55.616 91.384 54.536 91.708 53.924ZM113.268 55.328L113.556 55.688C112.404 57.992 110.748 59.504 108.984 59.504C107.472 59.504 107.652 57.38 108.156 55.58C108.3 55.112 108.408 54.608 108.552 54.14C107.256 56.444 104.844 59.432 101.856 59.432C100.092 59.432 99.4443 57.884 99.4443 56.156C99.4443 52.412 101.604 47.48 104.808 44.996C105.996 43.988 107.256 43.448 108.696 43.448C109.92 43.448 110.784 43.916 111.144 44.816C112.548 40.172 113.412 37.076 113.628 35.924C113.736 35.456 113.592 35.348 113.304 35.348C112.908 35.348 112.368 35.312 111.432 35.312L111.612 34.916C113.196 34.844 115.68 34.628 116.796 34.34C115.968 36.5 113.952 43.016 111.792 50.792C111.072 53.348 110.568 55.292 110.28 56.552C110.136 57.236 109.848 58.316 110.46 58.316C111.36 58.316 112.692 56.624 113.268 55.328ZM102 56.372V56.408C102 57.308 102.36 58.352 103.26 58.352C104.736 58.352 106.428 56.552 108.192 53.312C109.2 51.512 110.604 47.264 110.604 45.824C110.604 45.068 110.244 43.952 109.056 43.952C108.048 43.952 107.04 44.528 105.996 45.716C104.016 48.056 102 52.556 102 56.372ZM121.576 36.896H121.612C122.368 36.896 122.764 37.472 122.728 38.264C122.692 39.236 121.972 39.812 121.18 39.812C120.496 39.812 119.956 39.344 119.992 38.48C120.064 37.472 120.82 36.896 121.576 36.896ZM116.464 44.672L116.68 44.24C117.976 44.096 120.388 43.88 121.648 43.448L121.72 43.52C120.964 45.14 118.3 53.672 117.4 57.308C117.22 58.028 117.328 58.28 117.688 58.28C118.696 58.28 120.172 56.696 120.82 55.328L121.108 55.724C120.064 57.74 118.192 59.432 116.284 59.432C114.7 59.432 114.736 58.1 115.384 56.048C116.284 53.132 118.012 47.804 118.66 45.176C118.768 44.816 118.768 44.672 118.408 44.672C118.012 44.672 117.22 44.672 116.464 44.672ZM132.798 43.412L133.014 43.736C132.258 45.392 131.682 47.156 131.322 48.56H130.89C131.646 45.428 130.818 43.916 128.982 43.916C127.434 43.916 126.57 45.356 126.57 46.832C126.57 47.732 126.75 48.236 127.29 48.848C127.866 49.604 129.126 51.08 129.846 51.872C130.638 52.736 131.034 53.492 130.998 54.788C130.962 56.228 130.278 57.38 129.486 58.1C128.55 58.928 127.29 59.432 125.778 59.432C124.482 59.432 122.754 59.036 121.638 58.244C122.034 57.38 122.682 55.58 123.186 53.636L123.654 53.492C123.474 54.032 123.258 55.184 123.186 55.94C123.078 57.92 124.194 58.928 126.066 58.928C127.47 58.928 128.838 58.1 128.91 56.12C128.946 55.4 128.802 54.788 128.334 54.176C127.758 53.384 126.606 52.052 125.778 50.972C125.058 50.216 124.626 49.352 124.626 48.128C124.626 46.724 125.166 45.5 126.138 44.564C127.074 43.736 128.082 43.448 129.234 43.448C130.566 43.448 131.646 44.06 131.97 44.6L132.798 43.412ZM143.203 54.14L143.275 55.328C141.979 57.632 139.567 59.432 136.795 59.432C134.311 59.432 133.339 57.56 133.339 55.148C133.339 51.836 134.959 47.552 137.695 45.068C138.847 44.024 140.323 43.448 141.655 43.448C143.923 43.448 144.607 44.888 144.607 46.472C144.607 47.84 143.671 48.668 142.843 49.172C141.187 50.252 138.091 51.26 136.327 51.62C136.075 52.556 135.859 54.068 135.859 55.148C135.859 57.128 136.471 58.46 138.019 58.46C140.251 58.46 141.979 56.912 143.023 54.14H143.203ZM141.331 43.988H141.295C140.287 43.988 138.163 45.14 136.471 51.008C137.911 50.72 139.747 50.036 140.575 49.604C142.015 48.74 142.555 47.228 142.555 45.86C142.555 44.6 142.087 43.988 141.331 43.988ZM158.366 55.364L158.618 55.724C157.574 57.812 155.666 59.432 153.938 59.432C152.282 59.432 152.282 57.956 153.002 55.832C154.01 52.988 155.342 49.28 156.242 46.508C156.566 45.536 156.53 44.564 155.666 44.564C152.822 44.564 149.726 49.964 148.754 52.736C148.178 54.5 147.638 55.904 146.738 59.036C146.054 59.072 144.938 59.216 144.326 59.324C145.982 54.608 147.854 48.344 148.466 45.212C148.538 44.744 148.538 44.636 148.106 44.636H146.486L146.594 44.276C148.034 44.132 149.834 43.88 151.274 43.448C150.806 45.176 150.266 47.228 149.654 49.316C151.202 46.832 153.938 43.448 156.962 43.448C157.574 43.448 157.97 43.592 158.294 43.88C159.086 44.564 158.69 46.364 158.258 47.552C157.286 50.432 155.882 54.14 155.018 57.2C154.802 57.956 154.982 58.244 155.306 58.244C156.242 58.244 157.682 56.66 158.366 55.364ZM152.174 40.748L151.742 40.64C151.814 39.164 152.318 37.508 153.794 37.508C154.37 37.508 154.802 37.724 155.594 38.444C156.494 39.236 156.854 39.38 157.142 39.38C157.718 39.38 158.186 38.912 158.258 37.364L158.654 37.472C158.618 39.344 158.042 40.784 156.638 40.784C156.062 40.784 155.522 40.46 154.73 39.704C154.19 39.2 153.866 38.876 153.362 38.876C152.714 38.876 152.246 39.56 152.174 40.748ZM168.693 43.448H168.765C171.501 43.448 172.653 45.284 172.653 47.984C172.653 51.26 170.925 55.94 168.405 57.956C167.145 59 165.957 59.432 164.409 59.432C162.537 59.432 160.377 58.784 160.341 55.004C160.341 51.728 162.141 47.012 164.913 44.888C166.101 43.988 167.325 43.448 168.693 43.448ZM168.729 43.952H168.693C167.649 43.952 166.749 44.6 165.813 45.968C164.157 48.344 162.609 53.384 162.609 56.12C162.609 58.172 163.437 58.928 164.409 58.928C165.345 58.928 166.137 58.496 166.965 57.416C168.729 55.076 170.421 49.352 170.421 46.4C170.421 44.888 169.953 43.952 168.729 43.952ZM183.81 43.412L184.026 43.736C183.27 45.392 182.694 47.156 182.334 48.56H181.902C182.658 45.428 181.83 43.916 179.994 43.916C178.446 43.916 177.582 45.356 177.582 46.832C177.582 47.732 177.762 48.236 178.302 48.848C178.878 49.604 180.138 51.08 180.858 51.872C181.65 52.736 182.046 53.492 182.01 54.788C181.974 56.228 181.29 57.38 180.498 58.1C179.562 58.928 178.302 59.432 176.79 59.432C175.494 59.432 173.766 59.036 172.649 58.244C173.046 57.38 173.694 55.58 174.198 53.636L174.666 53.492C174.486 54.032 174.27 55.184 174.198 55.94C174.09 57.92 175.206 58.928 177.078 58.928C178.482 58.928 179.85 58.1 179.922 56.12C179.958 55.4 179.814 54.788 179.346 54.176C178.77 53.384 177.618 52.052 176.79 50.972C176.07 50.216 175.638 49.352 175.638 48.128C175.638 46.724 176.178 45.5 177.15 44.564C178.086 43.736 179.094 43.448 180.246 43.448C181.578 43.448 182.658 44.06 182.982 44.6L183.81 43.412Z" fill="white"/>
<path d="M81.422 80.08H85.356L83.424 74.956L81.422 80.08ZM82.934 74.004H83.998L87.918 84H86.896L85.678 80.892H81.128L79.924 84H78.916L82.934 74.004ZM88.6584 76.776H89.4704V78.148H89.4984C89.7037 77.644 90.035 77.2567 90.4924 76.986C90.959 76.706 91.4864 76.566 92.0744 76.566C92.625 76.566 93.101 76.6687 93.5024 76.874C93.913 77.0793 94.2537 77.3593 94.5244 77.714C94.795 78.0593 94.9957 78.4653 95.1264 78.932C95.257 79.3893 95.3224 79.8747 95.3224 80.388C95.3224 80.9013 95.257 81.3913 95.1264 81.858C94.9957 82.3153 94.795 82.7213 94.5244 83.076C94.2537 83.4213 93.913 83.6967 93.5024 83.902C93.101 84.098 92.625 84.196 92.0744 84.196C91.813 84.196 91.5517 84.1633 91.2904 84.098C91.029 84.0327 90.7864 83.9347 90.5624 83.804C90.3384 83.6733 90.1377 83.51 89.9604 83.314C89.7924 83.118 89.6617 82.8893 89.5684 82.628H89.5404V86.66H88.6584V76.776ZM94.4404 80.388C94.4404 80.0147 94.3937 79.646 94.3004 79.282C94.2164 78.9087 94.0764 78.5773 93.8804 78.288C93.6937 77.9987 93.451 77.7653 93.1524 77.588C92.8537 77.4013 92.4944 77.308 92.0744 77.308C91.589 77.308 91.183 77.392 90.8564 77.56C90.5297 77.728 90.2684 77.952 90.0724 78.232C89.8764 78.512 89.7364 78.8387 89.6524 79.212C89.5777 79.5853 89.5404 79.9773 89.5404 80.388C89.5404 80.7613 89.5824 81.1347 89.6664 81.508C89.7597 81.872 89.9044 82.1987 90.1004 82.488C90.3057 82.7773 90.567 83.0153 90.8844 83.202C91.211 83.3793 91.6077 83.468 92.0744 83.468C92.4944 83.468 92.8537 83.3793 93.1524 83.202C93.451 83.0153 93.6937 82.7773 93.8804 82.488C94.0764 82.1987 94.2164 81.872 94.3004 81.508C94.3937 81.1347 94.4404 80.7613 94.4404 80.388ZM96.6974 76.776H97.5094V78.47H97.5374C97.7614 77.882 98.1068 77.4293 98.5734 77.112C99.0494 76.7947 99.6141 76.65 100.267 76.678V77.56C99.8661 77.5413 99.5021 77.5973 99.1754 77.728C98.8488 77.8493 98.5641 78.0267 98.3214 78.26C98.0881 78.4933 97.9061 78.7733 97.7754 79.1C97.6448 79.4173 97.5794 79.7673 97.5794 80.15V84H96.6974V76.776ZM103.919 77.308C103.499 77.308 103.131 77.3967 102.813 77.574C102.496 77.7513 102.23 77.9847 102.015 78.274C101.81 78.5633 101.651 78.8947 101.539 79.268C101.437 79.632 101.385 80.0053 101.385 80.388C101.385 80.7707 101.437 81.1487 101.539 81.522C101.651 81.886 101.81 82.2127 102.015 82.502C102.23 82.7913 102.496 83.0247 102.813 83.202C103.131 83.3793 103.499 83.468 103.919 83.468C104.339 83.468 104.708 83.3793 105.025 83.202C105.343 83.0247 105.604 82.7913 105.809 82.502C106.024 82.2127 106.183 81.886 106.285 81.522C106.397 81.1487 106.453 80.7707 106.453 80.388C106.453 80.0053 106.397 79.632 106.285 79.268C106.183 78.8947 106.024 78.5633 105.809 78.274C105.604 77.9847 105.343 77.7513 105.025 77.574C104.708 77.3967 104.339 77.308 103.919 77.308ZM103.919 76.566C104.47 76.566 104.955 76.6687 105.375 76.874C105.805 77.0793 106.164 77.3547 106.453 77.7C106.743 78.0453 106.962 78.4513 107.111 78.918C107.261 79.3753 107.335 79.8653 107.335 80.388C107.335 80.9107 107.261 81.4053 107.111 81.872C106.962 82.3293 106.743 82.7307 106.453 83.076C106.164 83.4213 105.805 83.6967 105.375 83.902C104.955 84.098 104.47 84.196 103.919 84.196C103.369 84.196 102.879 84.098 102.449 83.902C102.029 83.6967 101.675 83.4213 101.385 83.076C101.096 82.7307 100.877 82.3293 100.727 81.872C100.578 81.4053 100.503 80.9107 100.503 80.388C100.503 79.8653 100.578 79.3753 100.727 78.918C100.877 78.4513 101.096 78.0453 101.385 77.7C101.675 77.3547 102.029 77.0793 102.449 76.874C102.879 76.6687 103.369 76.566 103.919 76.566ZM107.835 76.776H108.815L111.083 83.118H111.111L113.351 76.776H114.261L111.559 84H110.621L107.835 76.776ZM120.321 79.884C120.312 79.548 120.251 79.226 120.139 78.918C120.036 78.61 119.887 78.3393 119.691 78.106C119.495 77.8633 119.257 77.672 118.977 77.532C118.697 77.3827 118.38 77.308 118.025 77.308C117.661 77.308 117.339 77.3827 117.059 77.532C116.779 77.672 116.541 77.8633 116.345 78.106C116.149 78.3393 115.99 78.6147 115.869 78.932C115.757 79.24 115.682 79.5573 115.645 79.884H120.321ZM115.645 80.626C115.645 80.9433 115.687 81.2747 115.771 81.62C115.864 81.956 116.009 82.2593 116.205 82.53C116.401 82.8007 116.648 83.0247 116.947 83.202C117.246 83.3793 117.605 83.468 118.025 83.468C118.669 83.468 119.173 83.3 119.537 82.964C119.901 82.628 120.153 82.18 120.293 81.62H121.175C120.988 82.4413 120.643 83.076 120.139 83.524C119.644 83.972 118.94 84.196 118.025 84.196C117.456 84.196 116.961 84.098 116.541 83.902C116.13 83.6967 115.794 83.4213 115.533 83.076C115.272 82.7213 115.076 82.3153 114.945 81.858C114.824 81.3913 114.763 80.9013 114.763 80.388C114.763 79.912 114.824 79.4453 114.945 78.988C115.076 78.5307 115.272 78.1247 115.533 77.77C115.794 77.406 116.13 77.1167 116.541 76.902C116.961 76.678 117.456 76.566 118.025 76.566C118.604 76.566 119.098 76.6827 119.509 76.916C119.92 77.1493 120.251 77.4573 120.503 77.84C120.764 78.2133 120.951 78.6473 121.063 79.142C121.175 79.6273 121.222 80.122 121.203 80.626H115.645ZM127.483 79.044C127.362 78.5027 127.138 78.078 126.811 77.77C126.484 77.462 126.027 77.308 125.439 77.308C125.019 77.308 124.65 77.3967 124.333 77.574C124.016 77.7513 123.75 77.9847 123.535 78.274C123.33 78.5633 123.171 78.8947 123.059 79.268C122.956 79.632 122.905 80.0053 122.905 80.388C122.905 80.7707 122.956 81.1487 123.059 81.522C123.171 81.886 123.33 82.2127 123.535 82.502C123.75 82.7913 124.016 83.0247 124.333 83.202C124.65 83.3793 125.019 83.468 125.439 83.468C125.71 83.468 125.966 83.4167 126.209 83.314C126.452 83.2113 126.666 83.0713 126.853 82.894C127.04 82.7073 127.194 82.488 127.315 82.236C127.436 81.984 127.511 81.7087 127.539 81.41H128.421C128.3 82.2873 127.978 82.9733 127.455 83.468C126.932 83.9533 126.26 84.196 125.439 84.196C124.888 84.196 124.398 84.098 123.969 83.902C123.549 83.6967 123.194 83.4213 122.905 83.076C122.616 82.7307 122.396 82.3293 122.247 81.872C122.098 81.4053 122.023 80.9107 122.023 80.388C122.023 79.8653 122.098 79.3753 122.247 78.918C122.396 78.4513 122.616 78.0453 122.905 77.7C123.194 77.3547 123.549 77.0793 123.969 76.874C124.398 76.6687 124.888 76.566 125.439 76.566C126.214 76.566 126.867 76.7713 127.399 77.182C127.94 77.5927 128.262 78.2133 128.365 79.044H127.483ZM129.633 74.004H130.515V78.022H130.543C130.711 77.5833 131.009 77.2333 131.439 76.972C131.868 76.7013 132.339 76.566 132.853 76.566C133.357 76.566 133.777 76.6313 134.113 76.762C134.458 76.8927 134.733 77.0793 134.939 77.322C135.144 77.5553 135.289 77.8447 135.373 78.19C135.457 78.5353 135.499 78.9227 135.499 79.352V84H134.617V79.492C134.617 79.184 134.589 78.8993 134.533 78.638C134.477 78.3673 134.379 78.134 134.239 77.938C134.099 77.742 133.907 77.588 133.665 77.476C133.431 77.364 133.137 77.308 132.783 77.308C132.428 77.308 132.111 77.3733 131.831 77.504C131.56 77.6253 131.327 77.798 131.131 78.022C130.944 78.2367 130.795 78.498 130.683 78.806C130.58 79.1047 130.524 79.4313 130.515 79.786V84H129.633V74.004ZM137.082 78.988C137.11 78.568 137.199 78.204 137.348 77.896C137.498 77.588 137.698 77.336 137.95 77.14C138.212 76.944 138.515 76.7993 138.86 76.706C139.206 76.6127 139.588 76.566 140.008 76.566C140.326 76.566 140.643 76.5987 140.96 76.664C141.278 76.72 141.562 76.832 141.814 77C142.066 77.168 142.272 77.406 142.43 77.714C142.589 78.0127 142.668 78.4047 142.668 78.89V82.726C142.668 83.0807 142.841 83.258 143.186 83.258C143.289 83.258 143.382 83.2393 143.466 83.202V83.944C143.364 83.9627 143.27 83.9767 143.186 83.986C143.112 83.9953 143.014 84 142.892 84C142.668 84 142.486 83.972 142.346 83.916C142.216 83.8507 142.113 83.762 142.038 83.65C141.964 83.538 141.912 83.4073 141.884 83.258C141.866 83.0993 141.856 82.9267 141.856 82.74H141.828C141.67 82.9733 141.506 83.1833 141.338 83.37C141.18 83.5473 140.998 83.6967 140.792 83.818C140.596 83.9393 140.368 84.0327 140.106 84.098C139.854 84.1633 139.551 84.196 139.196 84.196C138.86 84.196 138.543 84.154 138.244 84.07C137.955 83.9953 137.698 83.874 137.474 83.706C137.26 83.5287 137.087 83.3093 136.956 83.048C136.835 82.7773 136.774 82.46 136.774 82.096C136.774 81.592 136.886 81.2 137.11 80.92C137.334 80.6307 137.628 80.4113 137.992 80.262C138.366 80.1127 138.781 80.01 139.238 79.954C139.705 79.8887 140.176 79.828 140.652 79.772C140.839 79.7533 141.002 79.73 141.142 79.702C141.282 79.674 141.399 79.6273 141.492 79.562C141.586 79.4873 141.656 79.3893 141.702 79.268C141.758 79.1467 141.786 78.988 141.786 78.792C141.786 78.4933 141.735 78.2507 141.632 78.064C141.539 77.868 141.404 77.714 141.226 77.602C141.058 77.49 140.858 77.4153 140.624 77.378C140.4 77.3313 140.158 77.308 139.896 77.308C139.336 77.308 138.879 77.4433 138.524 77.714C138.17 77.9753 137.983 78.4 137.964 78.988H137.082ZM141.786 80.052H141.758C141.702 80.1547 141.595 80.2293 141.436 80.276C141.278 80.3227 141.138 80.3553 141.016 80.374C140.643 80.4393 140.256 80.5 139.854 80.556C139.462 80.6027 139.103 80.6773 138.776 80.78C138.45 80.8827 138.179 81.032 137.964 81.228C137.759 81.4147 137.656 81.6853 137.656 82.04C137.656 82.264 137.698 82.4647 137.782 82.642C137.876 82.81 137.997 82.9593 138.146 83.09C138.296 83.2113 138.468 83.3047 138.664 83.37C138.86 83.4353 139.061 83.468 139.266 83.468C139.602 83.468 139.924 83.4167 140.232 83.314C140.54 83.2113 140.806 83.062 141.03 82.866C141.264 82.67 141.446 82.432 141.576 82.152C141.716 81.872 141.786 81.5547 141.786 81.2V80.052ZM152.648 78.89C152.639 78.6193 152.583 78.386 152.48 78.19C152.378 77.9847 152.238 77.8167 152.06 77.686C151.892 77.5553 151.696 77.462 151.472 77.406C151.248 77.3407 151.01 77.308 150.758 77.308C150.562 77.308 150.362 77.3313 150.156 77.378C149.96 77.4153 149.778 77.4853 149.61 77.588C149.442 77.6813 149.307 77.8073 149.204 77.966C149.102 78.1247 149.05 78.3207 149.05 78.554C149.05 78.75 149.097 78.918 149.19 79.058C149.293 79.1887 149.419 79.3007 149.568 79.394C149.718 79.4873 149.881 79.5667 150.058 79.632C150.236 79.688 150.399 79.7347 150.548 79.772L151.724 80.038C151.976 80.0753 152.224 80.1453 152.466 80.248C152.718 80.3413 152.938 80.4673 153.124 80.626C153.32 80.7847 153.479 80.9807 153.6 81.214C153.722 81.4473 153.782 81.7227 153.782 82.04C153.782 82.432 153.694 82.768 153.516 83.048C153.339 83.3187 153.11 83.5427 152.83 83.72C152.56 83.888 152.252 84.0093 151.906 84.084C151.561 84.1587 151.22 84.196 150.884 84.196C150.035 84.196 149.344 83.9953 148.812 83.594C148.29 83.1927 147.991 82.5487 147.916 81.662H148.798C148.836 82.2593 149.05 82.712 149.442 83.02C149.844 83.3187 150.338 83.468 150.926 83.468C151.141 83.468 151.36 83.4447 151.584 83.398C151.818 83.3513 152.032 83.272 152.228 83.16C152.424 83.048 152.583 82.908 152.704 82.74C152.835 82.5627 152.9 82.348 152.9 82.096C152.9 81.8813 152.854 81.704 152.76 81.564C152.676 81.4147 152.56 81.2933 152.41 81.2C152.261 81.0973 152.088 81.0133 151.892 80.948C151.706 80.8827 151.514 80.8267 151.318 80.78L150.184 80.528C149.895 80.4533 149.629 80.3693 149.386 80.276C149.144 80.1733 148.929 80.052 148.742 79.912C148.565 79.7627 148.425 79.5853 148.322 79.38C148.22 79.1653 148.168 78.904 148.168 78.596C148.168 78.232 148.248 77.9193 148.406 77.658C148.574 77.3967 148.789 77.1867 149.05 77.028C149.312 76.8693 149.601 76.7527 149.918 76.678C150.245 76.6033 150.567 76.566 150.884 76.566C151.248 76.566 151.584 76.6127 151.892 76.706C152.21 76.7993 152.485 76.944 152.718 77.14C152.961 77.336 153.152 77.5787 153.292 77.868C153.432 78.1573 153.512 78.498 153.53 78.89H152.648ZM160.915 84H160.103V82.698H160.075C159.841 83.1833 159.501 83.5567 159.053 83.818C158.614 84.07 158.124 84.196 157.583 84.196C157.125 84.196 156.733 84.1307 156.407 84C156.089 83.8787 155.828 83.7013 155.623 83.468C155.427 83.2347 155.282 82.95 155.189 82.614C155.095 82.278 155.049 81.8953 155.049 81.466V76.776H155.931V81.48C155.949 82.1333 156.099 82.628 156.379 82.964C156.668 83.3 157.163 83.468 157.863 83.468C158.245 83.468 158.572 83.3887 158.843 83.23C159.113 83.062 159.337 82.8427 159.515 82.572C159.692 82.3013 159.823 81.9933 159.907 81.648C159.991 81.2933 160.033 80.934 160.033 80.57V76.776H160.915V84ZM172.835 84H172.023V82.628H171.995C171.901 82.8613 171.761 83.076 171.575 83.272C171.397 83.468 171.192 83.636 170.959 83.776C170.725 83.9067 170.473 84.0093 170.203 84.084C169.941 84.1587 169.68 84.196 169.419 84.196C168.868 84.196 168.387 84.098 167.977 83.902C167.575 83.6967 167.239 83.4213 166.969 83.076C166.698 82.7213 166.497 82.3153 166.367 81.858C166.236 81.3913 166.171 80.9013 166.171 80.388C166.171 79.8747 166.236 79.3893 166.367 78.932C166.497 78.4653 166.698 78.0593 166.969 77.714C167.239 77.3593 167.575 77.0793 167.977 76.874C168.387 76.6687 168.868 76.566 169.419 76.566C169.689 76.566 169.951 76.5987 170.203 76.664C170.464 76.7293 170.707 76.832 170.931 76.972C171.155 77.1027 171.351 77.266 171.519 77.462C171.696 77.658 171.831 77.8867 171.925 78.148H171.953V74.004H172.835V84ZM167.053 80.388C167.053 80.7613 167.095 81.1347 167.179 81.508C167.272 81.872 167.412 82.1987 167.599 82.488C167.795 82.7773 168.042 83.0153 168.341 83.202C168.639 83.3793 168.999 83.468 169.419 83.468C169.885 83.468 170.277 83.3793 170.595 83.202C170.921 83.0153 171.183 82.7773 171.379 82.488C171.584 82.1987 171.729 81.872 171.813 81.508C171.906 81.1347 171.953 80.7613 171.953 80.388C171.953 80.0147 171.906 79.646 171.813 79.282C171.729 78.9087 171.584 78.5773 171.379 78.288C171.183 77.9987 170.921 77.7653 170.595 77.588C170.277 77.4013 169.885 77.308 169.419 77.308C168.999 77.308 168.639 77.4013 168.341 77.588C168.042 77.7653 167.795 77.9987 167.599 78.288C167.412 78.5773 167.272 78.9087 167.179 79.282C167.095 79.646 167.053 80.0147 167.053 80.388ZM177.57 77.308C177.15 77.308 176.781 77.3967 176.464 77.574C176.146 77.7513 175.88 77.9847 175.666 78.274C175.46 78.5633 175.302 78.8947 175.19 79.268C175.087 79.632 175.036 80.0053 175.036 80.388C175.036 80.7707 175.087 81.1487 175.19 81.522C175.302 81.886 175.46 82.2127 175.666 82.502C175.88 82.7913 176.146 83.0247 176.464 83.202C176.781 83.3793 177.15 83.468 177.57 83.468C177.99 83.468 178.358 83.3793 178.676 83.202C178.993 83.0247 179.254 82.7913 179.46 82.502C179.674 82.2127 179.833 81.886 179.936 81.522C180.048 81.1487 180.104 80.7707 180.104 80.388C180.104 80.0053 180.048 79.632 179.936 79.268C179.833 78.8947 179.674 78.5633 179.46 78.274C179.254 77.9847 178.993 77.7513 178.676 77.574C178.358 77.3967 177.99 77.308 177.57 77.308ZM177.57 76.566C178.12 76.566 178.606 76.6687 179.026 76.874C179.455 77.0793 179.814 77.3547 180.104 77.7C180.393 78.0453 180.612 78.4513 180.762 78.918C180.911 79.3753 180.986 79.8653 180.986 80.388C180.986 80.9107 180.911 81.4053 180.762 81.872C180.612 82.3293 180.393 82.7307 180.104 83.076C179.814 83.4213 179.455 83.6967 179.026 83.902C178.606 84.098 178.12 84.196 177.57 84.196C177.019 84.196 176.529 84.098 176.1 83.902C175.68 83.6967 175.325 83.4213 175.036 83.076C174.746 82.7307 174.527 82.3293 174.378 81.872C174.228 81.4053 174.154 80.9107 174.154 80.388C174.154 79.8653 174.228 79.3753 174.378 78.918C174.527 78.4513 174.746 78.0453 175.036 77.7C175.325 77.3547 175.68 77.0793 176.1 76.874C176.529 76.6687 177.019 76.566 177.57 76.566ZM182.297 74.004H183.179V78.148H183.207C183.3 77.8867 183.431 77.658 183.599 77.462C183.776 77.266 183.977 77.1027 184.201 76.972C184.425 76.832 184.668 76.7293 184.929 76.664C185.19 76.5987 185.452 76.566 185.713 76.566C186.264 76.566 186.74 76.6687 187.141 76.874C187.552 77.0793 187.892 77.3593 188.163 77.714C188.434 78.0593 188.634 78.4653 188.765 78.932C188.896 79.3893 188.961 79.8747 188.961 80.388C188.961 80.9013 188.896 81.3913 188.765 81.858C188.634 82.3153 188.434 82.7213 188.163 83.076C187.892 83.4213 187.552 83.6967 187.141 83.902C186.74 84.098 186.264 84.196 185.713 84.196C185.125 84.196 184.598 84.0607 184.131 83.79C183.674 83.5193 183.342 83.132 183.137 82.628H183.109V84H182.297V74.004ZM188.079 80.388C188.079 80.0147 188.032 79.646 187.939 79.282C187.855 78.9087 187.715 78.5773 187.519 78.288C187.332 77.9987 187.09 77.7653 186.791 77.588C186.492 77.4013 186.133 77.308 185.713 77.308C185.246 77.308 184.85 77.4013 184.523 77.588C184.206 77.7653 183.944 77.9987 183.739 78.288C183.543 78.5773 183.398 78.9087 183.305 79.282C183.221 79.646 183.179 80.0147 183.179 80.388C183.179 80.7613 183.221 81.1347 183.305 81.508C183.398 81.872 183.543 82.1987 183.739 82.488C183.944 82.7773 184.206 83.0153 184.523 83.202C184.85 83.3793 185.246 83.468 185.713 83.468C186.133 83.468 186.492 83.3793 186.791 83.202C187.09 83.0153 187.332 82.7773 187.519 82.488C187.715 82.1987 187.855 81.872 187.939 81.508C188.032 81.1347 188.079 80.7613 188.079 80.388ZM190.35 74.004H191.232V84H190.35V74.004ZM198.114 79.884C198.105 79.548 198.044 79.226 197.932 78.918C197.829 78.61 197.68 78.3393 197.484 78.106C197.288 77.8633 197.05 77.672 196.77 77.532C196.49 77.3827 196.173 77.308 195.818 77.308C195.454 77.308 195.132 77.3827 194.852 77.532C194.572 77.672 194.334 77.8633 194.138 78.106C193.942 78.3393 193.783 78.6147 193.662 78.932C193.55 79.24 193.475 79.5573 193.438 79.884H198.114ZM193.438 80.626C193.438 80.9433 193.48 81.2747 193.564 81.62C193.657 81.956 193.802 82.2593 193.998 82.53C194.194 82.8007 194.441 83.0247 194.74 83.202C195.039 83.3793 195.398 83.468 195.818 83.468C196.462 83.468 196.966 83.3 197.33 82.964C197.694 82.628 197.946 82.18 198.086 81.62H198.968C198.781 82.4413 198.436 83.076 197.932 83.524C197.437 83.972 196.733 84.196 195.818 84.196C195.249 84.196 194.754 84.098 194.334 83.902C193.923 83.6967 193.587 83.4213 193.326 83.076C193.065 82.7213 192.869 82.3153 192.738 81.858C192.617 81.3913 192.556 80.9013 192.556 80.388C192.556 79.912 192.617 79.4453 192.738 78.988C192.869 78.5307 193.065 78.1247 193.326 77.77C193.587 77.406 193.923 77.1167 194.334 76.902C194.754 76.678 195.249 76.566 195.818 76.566C196.397 76.566 196.891 76.6827 197.302 76.916C197.713 77.1493 198.044 77.4573 198.296 77.84C198.557 78.2133 198.744 78.6473 198.856 79.142C198.968 79.6273 199.015 80.122 198.996 80.626H193.438ZM203.264 76.776H204.244L206.512 83.118H206.54L208.78 76.776H209.69L206.988 84H206.05L203.264 76.776ZM210.571 74.004H211.453V75.418H210.571V74.004ZM210.571 76.776H211.453V84H210.571V76.776ZM217.467 78.89C217.457 78.6193 217.401 78.386 217.299 78.19C217.196 77.9847 217.056 77.8167 216.879 77.686C216.711 77.5553 216.515 77.462 216.291 77.406C216.067 77.3407 215.829 77.308 215.577 77.308C215.381 77.308 215.18 77.3313 214.975 77.378C214.779 77.4153 214.597 77.4853 214.429 77.588C214.261 77.6813 214.125 77.8073 214.023 77.966C213.92 78.1247 213.869 78.3207 213.869 78.554C213.869 78.75 213.915 78.918 214.009 79.058C214.111 79.1887 214.237 79.3007 214.387 79.394C214.536 79.4873 214.699 79.5667 214.877 79.632C215.054 79.688 215.217 79.7347 215.367 79.772L216.543 80.038C216.795 80.0753 217.042 80.1453 217.285 80.248C217.537 80.3413 217.756 80.4673 217.943 80.626C218.139 80.7847 218.297 80.9807 218.419 81.214C218.54 81.4473 218.601 81.7227 218.601 82.04C218.601 82.432 218.512 82.768 218.335 83.048C218.157 83.3187 217.929 83.5427 217.649 83.72C217.378 83.888 217.07 84.0093 216.725 84.084C216.379 84.1587 216.039 84.196 215.703 84.196C214.853 84.196 214.163 83.9953 213.631 83.594C213.108 83.1927 212.809 82.5487 212.735 81.662H213.617C213.654 82.2593 213.869 82.712 214.261 83.02C214.662 83.3187 215.157 83.468 215.745 83.468C215.959 83.468 216.179 83.4447 216.403 83.398C216.636 83.3513 216.851 83.272 217.047 83.16C217.243 83.048 217.401 82.908 217.523 82.74C217.653 82.5627 217.719 82.348 217.719 82.096C217.719 81.8813 217.672 81.704 217.579 81.564C217.495 81.4147 217.378 81.2933 217.229 81.2C217.079 81.0973 216.907 81.0133 216.711 80.948C216.524 80.8827 216.333 80.8267 216.137 80.78L215.003 80.528C214.713 80.4533 214.447 80.3693 214.205 80.276C213.962 80.1733 213.747 80.052 213.561 79.912C213.383 79.7627 213.243 79.5853 213.141 79.38C213.038 79.1653 212.987 78.904 212.987 78.596C212.987 78.232 213.066 77.9193 213.225 77.658C213.393 77.3967 213.607 77.1867 213.869 77.028C214.13 76.8693 214.419 76.7527 214.737 76.678C215.063 76.6033 215.385 76.566 215.703 76.566C216.067 76.566 216.403 76.6127 216.711 76.706C217.028 76.7993 217.303 76.944 217.537 77.14C217.779 77.336 217.971 77.5787 218.111 77.868C218.251 78.1573 218.33 78.498 218.349 78.89H217.467ZM221.281 76.776H222.751V77.518H221.281V82.39C221.281 82.6793 221.318 82.908 221.393 83.076C221.477 83.2347 221.678 83.3233 221.995 83.342C222.247 83.342 222.499 83.328 222.751 83.3V84.042C222.62 84.042 222.49 84.0467 222.359 84.056C222.228 84.0653 222.098 84.07 221.967 84.07C221.379 84.07 220.968 83.958 220.735 83.734C220.502 83.5007 220.39 83.076 220.399 82.46V77.518H219.139V76.776H220.399V74.606H221.281V76.776ZM223.94 78.988C223.968 78.568 224.056 78.204 224.206 77.896C224.355 77.588 224.556 77.336 224.808 77.14C225.069 76.944 225.372 76.7993 225.718 76.706C226.063 76.6127 226.446 76.566 226.866 76.566C227.183 76.566 227.5 76.5987 227.818 76.664C228.135 76.72 228.42 76.832 228.672 77C228.924 77.168 229.129 77.406 229.288 77.714C229.446 78.0127 229.526 78.4047 229.526 78.89V82.726C229.526 83.0807 229.698 83.258 230.044 83.258C230.146 83.258 230.24 83.2393 230.324 83.202V83.944C230.221 83.9627 230.128 83.9767 230.044 83.986C229.969 83.9953 229.871 84 229.75 84C229.526 84 229.344 83.972 229.204 83.916C229.073 83.8507 228.97 83.762 228.896 83.65C228.821 83.538 228.77 83.4073 228.742 83.258C228.723 83.0993 228.714 82.9267 228.714 82.74H228.686C228.527 82.9733 228.364 83.1833 228.196 83.37C228.037 83.5473 227.855 83.6967 227.65 83.818C227.454 83.9393 227.225 84.0327 226.964 84.098C226.712 84.1633 226.408 84.196 226.054 84.196C225.718 84.196 225.4 84.154 225.102 84.07C224.812 83.9953 224.556 83.874 224.332 83.706C224.117 83.5287 223.944 83.3093 223.814 83.048C223.692 82.7773 223.632 82.46 223.632 82.096C223.632 81.592 223.744 81.2 223.968 80.92C224.192 80.6307 224.486 80.4113 224.85 80.262C225.223 80.1127 225.638 80.01 226.096 79.954C226.562 79.8887 227.034 79.828 227.51 79.772C227.696 79.7533 227.86 79.73 228 79.702C228.14 79.674 228.256 79.6273 228.35 79.562C228.443 79.4873 228.513 79.3893 228.56 79.268C228.616 79.1467 228.644 78.988 228.644 78.792C228.644 78.4933 228.592 78.2507 228.49 78.064C228.396 77.868 228.261 77.714 228.084 77.602C227.916 77.49 227.715 77.4153 227.482 77.378C227.258 77.3313 227.015 77.308 226.754 77.308C226.194 77.308 225.736 77.4433 225.382 77.714C225.027 77.9753 224.84 78.4 224.822 78.988H223.94ZM228.644 80.052H228.616C228.56 80.1547 228.452 80.2293 228.294 80.276C228.135 80.3227 227.995 80.3553 227.874 80.374C227.5 80.4393 227.113 80.5 226.712 80.556C226.32 80.6027 225.96 80.6773 225.634 80.78C225.307 80.8827 225.036 81.032 224.822 81.228C224.616 81.4147 224.514 81.6853 224.514 82.04C224.514 82.264 224.556 82.4647 224.64 82.642C224.733 82.81 224.854 82.9593 225.004 83.09C225.153 83.2113 225.326 83.3047 225.522 83.37C225.718 83.4353 225.918 83.468 226.124 83.468C226.46 83.468 226.782 83.4167 227.09 83.314C227.398 83.2113 227.664 83.062 227.888 82.866C228.121 82.67 228.303 82.432 228.434 82.152C228.574 81.872 228.644 81.5547 228.644 81.2V80.052ZM232.977 82.516V84C232.977 84.2053 232.949 84.406 232.893 84.602C232.847 84.8073 232.772 84.994 232.669 85.162C232.567 85.3393 232.436 85.4933 232.277 85.624C232.128 85.7547 231.951 85.848 231.745 85.904V85.302C231.857 85.2647 231.955 85.1947 232.039 85.092C232.123 84.9893 232.193 84.8727 232.249 84.742C232.305 84.6207 232.343 84.49 232.361 84.35C232.389 84.2193 232.399 84.1027 232.389 84H231.801V82.516H232.977ZM84.936 94.044C84.8147 93.5027 84.5907 93.078 84.264 92.77C83.9373 92.462 83.48 92.308 82.892 92.308C82.472 92.308 82.1033 92.3967 81.786 92.574C81.4687 92.7513 81.2027 92.9847 80.988 93.274C80.7827 93.5633 80.624 93.8947 80.512 94.268C80.4093 94.632 80.358 95.0053 80.358 95.388C80.358 95.7707 80.4093 96.1487 80.512 96.522C80.624 96.886 80.7827 97.2127 80.988 97.502C81.2027 97.7913 81.4687 98.0247 81.786 98.202C82.1033 98.3793 82.472 98.468 82.892 98.468C83.1627 98.468 83.4193 98.4167 83.662 98.314C83.9047 98.2113 84.1193 98.0713 84.306 97.894C84.4927 97.7073 84.6467 97.488 84.768 97.236C84.8893 96.984 84.964 96.7087 84.992 96.41H85.874C85.7527 97.2873 85.4307 97.9733 84.908 98.468C84.3853 98.9533 83.7133 99.196 82.892 99.196C82.3413 99.196 81.8513 99.098 81.422 98.902C81.002 98.6967 80.6473 98.4213 80.358 98.076C80.0687 97.7307 79.8493 97.3293 79.7 96.872C79.5507 96.4053 79.476 95.9107 79.476 95.388C79.476 94.8653 79.5507 94.3753 79.7 93.918C79.8493 93.4513 80.0687 93.0453 80.358 92.7C80.6473 92.3547 81.002 92.0793 81.422 91.874C81.8513 91.6687 82.3413 91.566 82.892 91.566C83.6667 91.566 84.32 91.7713 84.852 92.182C85.3933 92.5927 85.7153 93.2133 85.818 94.044H84.936ZM87.0158 93.988C87.0438 93.568 87.1324 93.204 87.2818 92.896C87.4311 92.588 87.6318 92.336 87.8838 92.14C88.1451 91.944 88.4484 91.7993 88.7938 91.706C89.1391 91.6127 89.5218 91.566 89.9418 91.566C90.2591 91.566 90.5764 91.5987 90.8938 91.664C91.2111 91.72 91.4958 91.832 91.7478 92C91.9998 92.168 92.2051 92.406 92.3638 92.714C92.5224 93.0127 92.6018 93.4047 92.6018 93.89V97.726C92.6018 98.0807 92.7744 98.258 93.1198 98.258C93.2224 98.258 93.3158 98.2393 93.3998 98.202V98.944C93.2971 98.9627 93.2038 98.9767 93.1198 98.986C93.0451 98.9953 92.9471 99 92.8258 99C92.6018 99 92.4198 98.972 92.2798 98.916C92.1491 98.8507 92.0464 98.762 91.9718 98.65C91.8971 98.538 91.8458 98.4073 91.8178 98.258C91.7991 98.0993 91.7898 97.9267 91.7898 97.74H91.7618C91.6031 97.9733 91.4398 98.1833 91.2718 98.37C91.1131 98.5473 90.9311 98.6967 90.7258 98.818C90.5298 98.9393 90.3011 99.0327 90.0398 99.098C89.7878 99.1633 89.4844 99.196 89.1298 99.196C88.7938 99.196 88.4764 99.154 88.1778 99.07C87.8884 98.9953 87.6318 98.874 87.4078 98.706C87.1931 98.5287 87.0204 98.3093 86.8898 98.048C86.7684 97.7773 86.7078 97.46 86.7078 97.096C86.7078 96.592 86.8198 96.2 87.0438 95.92C87.2678 95.6307 87.5618 95.4113 87.9258 95.262C88.2991 95.1127 88.7144 95.01 89.1718 94.954C89.6384 94.8887 90.1098 94.828 90.5858 94.772C90.7724 94.7533 90.9358 94.73 91.0758 94.702C91.2158 94.674 91.3324 94.6273 91.4258 94.562C91.5191 94.4873 91.5891 94.3893 91.6358 94.268C91.6918 94.1467 91.7198 93.988 91.7198 93.792C91.7198 93.4933 91.6684 93.2507 91.5658 93.064C91.4724 92.868 91.3371 92.714 91.1598 92.602C90.9918 92.49 90.7911 92.4153 90.5578 92.378C90.3338 92.3313 90.0911 92.308 89.8298 92.308C89.2698 92.308 88.8124 92.4433 88.4578 92.714C88.1031 92.9753 87.9164 93.4 87.8978 93.988H87.0158ZM91.7198 95.052H91.6918C91.6358 95.1547 91.5284 95.2293 91.3698 95.276C91.2111 95.3227 91.0711 95.3553 90.9498 95.374C90.5764 95.4393 90.1891 95.5 89.7878 95.556C89.3958 95.6027 89.0364 95.6773 88.7098 95.78C88.3831 95.8827 88.1124 96.032 87.8978 96.228C87.6924 96.4147 87.5898 96.6853 87.5898 97.04C87.5898 97.264 87.6318 97.4647 87.7158 97.642C87.8091 97.81 87.9304 97.9593 88.0798 98.09C88.2291 98.2113 88.4018 98.3047 88.5978 98.37C88.7938 98.4353 88.9944 98.468 89.1998 98.468C89.5358 98.468 89.8578 98.4167 90.1658 98.314C90.4738 98.2113 90.7398 98.062 90.9638 97.866C91.1971 97.67 91.3791 97.432 91.5098 97.152C91.6498 96.872 91.7198 96.5547 91.7198 96.2V95.052ZM94.3595 91.776H95.1715V92.994H95.2135C95.4469 92.546 95.7502 92.196 96.1235 91.944C96.5062 91.692 96.9915 91.566 97.5795 91.566C98.0555 91.566 98.4849 91.6827 98.8675 91.916C99.2595 92.1493 99.5209 92.504 99.6515 92.98C99.8662 92.504 100.184 92.1493 100.604 91.916C101.024 91.6827 101.472 91.566 101.948 91.566C103.544 91.566 104.342 92.4107 104.342 94.1V99H103.46V94.142C103.46 93.5447 103.334 93.092 103.082 92.784C102.83 92.4667 102.386 92.308 101.752 92.308C101.369 92.308 101.052 92.3827 100.8 92.532C100.548 92.672 100.347 92.8633 100.198 93.106C100.048 93.3487 99.9409 93.6287 99.8755 93.946C99.8195 94.254 99.7915 94.576 99.7915 94.912V99H98.9095V94.1C98.9095 93.8573 98.8815 93.6287 98.8255 93.414C98.7789 93.19 98.6949 92.9987 98.5735 92.84C98.4615 92.672 98.3075 92.5413 98.1115 92.448C97.9155 92.3547 97.6775 92.308 97.3975 92.308C97.0242 92.308 96.6975 92.378 96.4175 92.518C96.1469 92.6487 95.9229 92.8353 95.7455 93.078C95.5775 93.3113 95.4515 93.5913 95.3675 93.918C95.2835 94.2353 95.2415 94.5853 95.2415 94.968V99H94.3595V91.776ZM106.022 89.004H106.904V93.148H106.932C107.025 92.8867 107.156 92.658 107.324 92.462C107.501 92.266 107.702 92.1027 107.926 91.972C108.15 91.832 108.392 91.7293 108.654 91.664C108.915 91.5987 109.176 91.566 109.438 91.566C109.988 91.566 110.464 91.6687 110.866 91.874C111.276 92.0793 111.617 92.3593 111.888 92.714C112.158 93.0593 112.359 93.4653 112.49 93.932C112.62 94.3893 112.686 94.8747 112.686 95.388C112.686 95.9013 112.62 96.3913 112.49 96.858C112.359 97.3153 112.158 97.7213 111.888 98.076C111.617 98.4213 111.276 98.6967 110.866 98.902C110.464 99.098 109.988 99.196 109.438 99.196C108.85 99.196 108.322 99.0607 107.856 98.79C107.398 98.5193 107.067 98.132 106.862 97.628H106.834V99H106.022V89.004ZM111.804 95.388C111.804 95.0147 111.757 94.646 111.664 94.282C111.58 93.9087 111.44 93.5773 111.244 93.288C111.057 92.9987 110.814 92.7653 110.516 92.588C110.217 92.4013 109.858 92.308 109.438 92.308C108.971 92.308 108.574 92.4013 108.248 92.588C107.93 92.7653 107.669 92.9987 107.464 93.288C107.268 93.5773 107.123 93.9087 107.03 94.282C106.946 94.646 106.904 95.0147 106.904 95.388C106.904 95.7613 106.946 96.1347 107.03 96.508C107.123 96.872 107.268 97.1987 107.464 97.488C107.669 97.7773 107.93 98.0153 108.248 98.202C108.574 98.3793 108.971 98.468 109.438 98.468C109.858 98.468 110.217 98.3793 110.516 98.202C110.814 98.0153 111.057 97.7773 111.244 97.488C111.44 97.1987 111.58 96.872 111.664 96.508C111.757 96.1347 111.804 95.7613 111.804 95.388ZM114.075 89.004H114.957V90.418H114.075V89.004ZM114.075 91.776H114.957V99H114.075V91.776ZM116.561 93.988C116.589 93.568 116.677 93.204 116.827 92.896C116.976 92.588 117.177 92.336 117.429 92.14C117.69 91.944 117.993 91.7993 118.339 91.706C118.684 91.6127 119.067 91.566 119.487 91.566C119.804 91.566 120.121 91.5987 120.439 91.664C120.756 91.72 121.041 91.832 121.293 92C121.545 92.168 121.75 92.406 121.909 92.714C122.067 93.0127 122.147 93.4047 122.147 93.89V97.726C122.147 98.0807 122.319 98.258 122.665 98.258C122.767 98.258 122.861 98.2393 122.945 98.202V98.944C122.842 98.9627 122.749 98.9767 122.665 98.986C122.59 98.9953 122.492 99 122.371 99C122.147 99 121.965 98.972 121.825 98.916C121.694 98.8507 121.591 98.762 121.517 98.65C121.442 98.538 121.391 98.4073 121.363 98.258C121.344 98.0993 121.335 97.9267 121.335 97.74H121.307C121.148 97.9733 120.985 98.1833 120.817 98.37C120.658 98.5473 120.476 98.6967 120.271 98.818C120.075 98.9393 119.846 99.0327 119.585 99.098C119.333 99.1633 119.029 99.196 118.675 99.196C118.339 99.196 118.021 99.154 117.723 99.07C117.433 98.9953 117.177 98.874 116.953 98.706C116.738 98.5287 116.565 98.3093 116.435 98.048C116.313 97.7773 116.253 97.46 116.253 97.096C116.253 96.592 116.365 96.2 116.589 95.92C116.813 95.6307 117.107 95.4113 117.471 95.262C117.844 95.1127 118.259 95.01 118.717 94.954C119.183 94.8887 119.655 94.828 120.131 94.772C120.317 94.7533 120.481 94.73 120.621 94.702C120.761 94.674 120.877 94.6273 120.971 94.562C121.064 94.4873 121.134 94.3893 121.181 94.268C121.237 94.1467 121.265 93.988 121.265 93.792C121.265 93.4933 121.213 93.2507 121.111 93.064C121.017 92.868 120.882 92.714 120.705 92.602C120.537 92.49 120.336 92.4153 120.103 92.378C119.879 92.3313 119.636 92.308 119.375 92.308C118.815 92.308 118.357 92.4433 118.003 92.714C117.648 92.9753 117.461 93.4 117.443 93.988H116.561ZM121.265 95.052H121.237C121.181 95.1547 121.073 95.2293 120.915 95.276C120.756 95.3227 120.616 95.3553 120.495 95.374C120.121 95.4393 119.734 95.5 119.333 95.556C118.941 95.6027 118.581 95.6773 118.255 95.78C117.928 95.8827 117.657 96.032 117.443 96.228C117.237 96.4147 117.135 96.6853 117.135 97.04C117.135 97.264 117.177 97.4647 117.261 97.642C117.354 97.81 117.475 97.9593 117.625 98.09C117.774 98.2113 117.947 98.3047 118.143 98.37C118.339 98.4353 118.539 98.468 118.745 98.468C119.081 98.468 119.403 98.4167 119.711 98.314C120.019 98.2113 120.285 98.062 120.509 97.866C120.742 97.67 120.924 97.432 121.055 97.152C121.195 96.872 121.265 96.5547 121.265 96.2V95.052ZM127.815 89.004H128.697V99H127.815V89.004ZM133.437 92.308C133.017 92.308 132.648 92.3967 132.331 92.574C132.014 92.7513 131.748 92.9847 131.533 93.274C131.328 93.5633 131.169 93.8947 131.057 94.268C130.954 94.632 130.903 95.0053 130.903 95.388C130.903 95.7707 130.954 96.1487 131.057 96.522C131.169 96.886 131.328 97.2127 131.533 97.502C131.748 97.7913 132.014 98.0247 132.331 98.202C132.648 98.3793 133.017 98.468 133.437 98.468C133.857 98.468 134.226 98.3793 134.543 98.202C134.86 98.0247 135.122 97.7913 135.327 97.502C135.542 97.2127 135.7 96.886 135.803 96.522C135.915 96.1487 135.971 95.7707 135.971 95.388C135.971 95.0053 135.915 94.632 135.803 94.268C135.7 93.8947 135.542 93.5633 135.327 93.274C135.122 92.9847 134.86 92.7513 134.543 92.574C134.226 92.3967 133.857 92.308 133.437 92.308ZM133.437 91.566C133.988 91.566 134.473 91.6687 134.893 91.874C135.322 92.0793 135.682 92.3547 135.971 92.7C136.26 93.0453 136.48 93.4513 136.629 93.918C136.778 94.3753 136.853 94.8653 136.853 95.388C136.853 95.9107 136.778 96.4053 136.629 96.872C136.48 97.3293 136.26 97.7307 135.971 98.076C135.682 98.4213 135.322 98.6967 134.893 98.902C134.473 99.098 133.988 99.196 133.437 99.196C132.886 99.196 132.396 99.098 131.967 98.902C131.547 98.6967 131.192 98.4213 130.903 98.076C130.614 97.7307 130.394 97.3293 130.245 96.872C130.096 96.4053 130.021 95.9107 130.021 95.388C130.021 94.8653 130.096 94.3753 130.245 93.918C130.394 93.4513 130.614 93.0453 130.903 92.7C131.192 92.3547 131.547 92.0793 131.967 91.874C132.396 91.6687 132.886 91.566 133.437 91.566ZM142.49 93.89C142.481 93.6193 142.425 93.386 142.322 93.19C142.22 92.9847 142.08 92.8167 141.902 92.686C141.734 92.5553 141.538 92.462 141.314 92.406C141.09 92.3407 140.852 92.308 140.6 92.308C140.404 92.308 140.204 92.3313 139.998 92.378C139.802 92.4153 139.62 92.4853 139.452 92.588C139.284 92.6813 139.149 92.8073 139.046 92.966C138.944 93.1247 138.892 93.3207 138.892 93.554C138.892 93.75 138.939 93.918 139.032 94.058C139.135 94.1887 139.261 94.3007 139.41 94.394C139.56 94.4873 139.723 94.5667 139.9 94.632C140.078 94.688 140.241 94.7347 140.39 94.772L141.566 95.038C141.818 95.0753 142.066 95.1453 142.308 95.248C142.56 95.3413 142.78 95.4673 142.966 95.626C143.162 95.7847 143.321 95.9807 143.442 96.214C143.564 96.4473 143.624 96.7227 143.624 97.04C143.624 97.432 143.536 97.768 143.358 98.048C143.181 98.3187 142.952 98.5427 142.672 98.72C142.402 98.888 142.094 99.0093 141.748 99.084C141.403 99.1587 141.062 99.196 140.726 99.196C139.877 99.196 139.186 98.9953 138.654 98.594C138.132 98.1927 137.833 97.5487 137.758 96.662H138.64C138.678 97.2593 138.892 97.712 139.284 98.02C139.686 98.3187 140.18 98.468 140.768 98.468C140.983 98.468 141.202 98.4447 141.426 98.398C141.66 98.3513 141.874 98.272 142.07 98.16C142.266 98.048 142.425 97.908 142.546 97.74C142.677 97.5627 142.742 97.348 142.742 97.096C142.742 96.8813 142.696 96.704 142.602 96.564C142.518 96.4147 142.402 96.2933 142.252 96.2C142.103 96.0973 141.93 96.0133 141.734 95.948C141.548 95.8827 141.356 95.8267 141.16 95.78L140.026 95.528C139.737 95.4533 139.471 95.3693 139.228 95.276C138.986 95.1733 138.771 95.052 138.584 94.912C138.407 94.7627 138.267 94.5853 138.164 94.38C138.062 94.1653 138.01 93.904 138.01 93.596C138.01 93.232 138.09 92.9193 138.248 92.658C138.416 92.3967 138.631 92.1867 138.892 92.028C139.154 91.8693 139.443 91.7527 139.76 91.678C140.087 91.6033 140.409 91.566 140.726 91.566C141.09 91.566 141.426 91.6127 141.734 91.706C142.052 91.7993 142.327 91.944 142.56 92.14C142.803 92.336 142.994 92.5787 143.134 92.868C143.274 93.1573 143.354 93.498 143.372 93.89H142.49ZM153.897 94.044C153.776 93.5027 153.552 93.078 153.225 92.77C152.898 92.462 152.441 92.308 151.853 92.308C151.433 92.308 151.064 92.3967 150.747 92.574C150.43 92.7513 150.164 92.9847 149.949 93.274C149.744 93.5633 149.585 93.8947 149.473 94.268C149.37 94.632 149.319 95.0053 149.319 95.388C149.319 95.7707 149.37 96.1487 149.473 96.522C149.585 96.886 149.744 97.2127 149.949 97.502C150.164 97.7913 150.43 98.0247 150.747 98.202C151.064 98.3793 151.433 98.468 151.853 98.468C152.124 98.468 152.38 98.4167 152.623 98.314C152.866 98.2113 153.08 98.0713 153.267 97.894C153.454 97.7073 153.608 97.488 153.729 97.236C153.85 96.984 153.925 96.7087 153.953 96.41H154.835C154.714 97.2873 154.392 97.9733 153.869 98.468C153.346 98.9533 152.674 99.196 151.853 99.196C151.302 99.196 150.812 99.098 150.383 98.902C149.963 98.6967 149.608 98.4213 149.319 98.076C149.03 97.7307 148.81 97.3293 148.661 96.872C148.512 96.4053 148.437 95.9107 148.437 95.388C148.437 94.8653 148.512 94.3753 148.661 93.918C148.81 93.4513 149.03 93.0453 149.319 92.7C149.608 92.3547 149.963 92.0793 150.383 91.874C150.812 91.6687 151.302 91.566 151.853 91.566C152.628 91.566 153.281 91.7713 153.813 92.182C154.354 92.5927 154.676 93.2133 154.779 94.044H153.897ZM159.113 92.308C158.693 92.308 158.324 92.3967 158.007 92.574C157.689 92.7513 157.423 92.9847 157.209 93.274C157.003 93.5633 156.845 93.8947 156.733 94.268C156.63 94.632 156.579 95.0053 156.579 95.388C156.579 95.7707 156.63 96.1487 156.733 96.522C156.845 96.886 157.003 97.2127 157.209 97.502C157.423 97.7913 157.689 98.0247 158.007 98.202C158.324 98.3793 158.693 98.468 159.113 98.468C159.533 98.468 159.901 98.3793 160.219 98.202C160.536 98.0247 160.797 97.7913 161.003 97.502C161.217 97.2127 161.376 96.886 161.479 96.522C161.591 96.1487 161.647 95.7707 161.647 95.388C161.647 95.0053 161.591 94.632 161.479 94.268C161.376 93.8947 161.217 93.5633 161.003 93.274C160.797 92.9847 160.536 92.7513 160.219 92.574C159.901 92.3967 159.533 92.308 159.113 92.308ZM159.113 91.566C159.663 91.566 160.149 91.6687 160.569 91.874C160.998 92.0793 161.357 92.3547 161.647 92.7C161.936 93.0453 162.155 93.4513 162.305 93.918C162.454 94.3753 162.529 94.8653 162.529 95.388C162.529 95.9107 162.454 96.4053 162.305 96.872C162.155 97.3293 161.936 97.7307 161.647 98.076C161.357 98.4213 160.998 98.6967 160.569 98.902C160.149 99.098 159.663 99.196 159.113 99.196C158.562 99.196 158.072 99.098 157.643 98.902C157.223 98.6967 156.868 98.4213 156.579 98.076C156.289 97.7307 156.07 97.3293 155.921 96.872C155.771 96.4053 155.697 95.9107 155.697 95.388C155.697 94.8653 155.771 94.3753 155.921 93.918C156.07 93.4513 156.289 93.0453 156.579 92.7C156.868 92.3547 157.223 92.0793 157.643 91.874C158.072 91.6687 158.562 91.566 159.113 91.566ZM163.84 91.776H164.652V92.994H164.694C164.927 92.546 165.231 92.196 165.604 91.944C165.987 91.692 166.472 91.566 167.06 91.566C167.536 91.566 167.965 91.6827 168.348 91.916C168.74 92.1493 169.001 92.504 169.132 92.98C169.347 92.504 169.664 92.1493 170.084 91.916C170.504 91.6827 170.952 91.566 171.428 91.566C173.024 91.566 173.822 92.4107 173.822 94.1V99H172.94V94.142C172.94 93.5447 172.814 93.092 172.562 92.784C172.31 92.4667 171.867 92.308 171.232 92.308C170.849 92.308 170.532 92.3827 170.28 92.532C170.028 92.672 169.827 92.8633 169.678 93.106C169.529 93.3487 169.421 93.6287 169.356 93.946C169.3 94.254 169.272 94.576 169.272 94.912V99H168.39V94.1C168.39 93.8573 168.362 93.6287 168.306 93.414C168.259 93.19 168.175 92.9987 168.054 92.84C167.942 92.672 167.788 92.5413 167.592 92.448C167.396 92.3547 167.158 92.308 166.878 92.308C166.505 92.308 166.178 92.378 165.898 92.518C165.627 92.6487 165.403 92.8353 165.226 93.078C165.058 93.3113 164.932 93.5913 164.848 93.918C164.764 94.2353 164.722 94.5853 164.722 94.968V99H163.84V91.776ZM175.502 91.776H176.314V93.148H176.342C176.547 92.644 176.879 92.2567 177.336 91.986C177.803 91.706 178.33 91.566 178.918 91.566C179.469 91.566 179.945 91.6687 180.346 91.874C180.757 92.0793 181.097 92.3593 181.368 92.714C181.639 93.0593 181.839 93.4653 181.97 93.932C182.101 94.3893 182.166 94.8747 182.166 95.388C182.166 95.9013 182.101 96.3913 181.97 96.858C181.839 97.3153 181.639 97.7213 181.368 98.076C181.097 98.4213 180.757 98.6967 180.346 98.902C179.945 99.098 179.469 99.196 178.918 99.196C178.657 99.196 178.395 99.1633 178.134 99.098C177.873 99.0327 177.63 98.9347 177.406 98.804C177.182 98.6733 176.981 98.51 176.804 98.314C176.636 98.118 176.505 97.8893 176.412 97.628H176.384V101.66H175.502V91.776ZM181.284 95.388C181.284 95.0147 181.237 94.646 181.144 94.282C181.06 93.9087 180.92 93.5773 180.724 93.288C180.537 92.9987 180.295 92.7653 179.996 92.588C179.697 92.4013 179.338 92.308 178.918 92.308C178.433 92.308 178.027 92.392 177.7 92.56C177.373 92.728 177.112 92.952 176.916 93.232C176.72 93.512 176.58 93.8387 176.496 94.212C176.421 94.5853 176.384 94.9773 176.384 95.388C176.384 95.7613 176.426 96.1347 176.51 96.508C176.603 96.872 176.748 97.1987 176.944 97.488C177.149 97.7773 177.411 98.0153 177.728 98.202C178.055 98.3793 178.451 98.468 178.918 98.468C179.338 98.468 179.697 98.3793 179.996 98.202C180.295 98.0153 180.537 97.7773 180.724 97.488C180.92 97.1987 181.06 96.872 181.144 96.508C181.237 96.1347 181.284 95.7613 181.284 95.388ZM183.555 89.004H184.437V99H183.555V89.004ZM191.319 94.884C191.31 94.548 191.249 94.226 191.137 93.918C191.034 93.61 190.885 93.3393 190.689 93.106C190.493 92.8633 190.255 92.672 189.975 92.532C189.695 92.3827 189.378 92.308 189.023 92.308C188.659 92.308 188.337 92.3827 188.057 92.532C187.777 92.672 187.539 92.8633 187.343 93.106C187.147 93.3393 186.988 93.6147 186.867 93.932C186.755 94.24 186.68 94.5573 186.643 94.884H191.319ZM186.643 95.626C186.643 95.9433 186.685 96.2747 186.769 96.62C186.862 96.956 187.007 97.2593 187.203 97.53C187.399 97.8007 187.646 98.0247 187.945 98.202C188.244 98.3793 188.603 98.468 189.023 98.468C189.667 98.468 190.171 98.3 190.535 97.964C190.899 97.628 191.151 97.18 191.291 96.62H192.173C191.986 97.4413 191.641 98.076 191.137 98.524C190.642 98.972 189.938 99.196 189.023 99.196C188.454 99.196 187.959 99.098 187.539 98.902C187.128 98.6967 186.792 98.4213 186.531 98.076C186.27 97.7213 186.074 97.3153 185.943 96.858C185.822 96.3913 185.761 95.9013 185.761 95.388C185.761 94.912 185.822 94.4453 185.943 93.988C186.074 93.5307 186.27 93.1247 186.531 92.77C186.792 92.406 187.128 92.1167 187.539 91.902C187.959 91.678 188.454 91.566 189.023 91.566C189.602 91.566 190.096 91.6827 190.507 91.916C190.918 92.1493 191.249 92.4573 191.501 92.84C191.762 93.2133 191.949 93.6473 192.061 94.142C192.173 94.6273 192.22 95.122 192.201 95.626H186.643ZM193.385 91.776H194.197V92.994H194.239C194.472 92.546 194.776 92.196 195.149 91.944C195.532 91.692 196.017 91.566 196.605 91.566C197.081 91.566 197.51 91.6827 197.893 91.916C198.285 92.1493 198.546 92.504 198.677 92.98C198.892 92.504 199.209 92.1493 199.629 91.916C200.049 91.6827 200.497 91.566 200.973 91.566C202.569 91.566 203.367 92.4107 203.367 94.1V99H202.485V94.142C202.485 93.5447 202.359 93.092 202.107 92.784C201.855 92.4667 201.412 92.308 200.777 92.308C200.394 92.308 200.077 92.3827 199.825 92.532C199.573 92.672 199.372 92.8633 199.223 93.106C199.074 93.3487 198.966 93.6287 198.901 93.946C198.845 94.254 198.817 94.576 198.817 94.912V99H197.935V94.1C197.935 93.8573 197.907 93.6287 197.851 93.414C197.804 93.19 197.72 92.9987 197.599 92.84C197.487 92.672 197.333 92.5413 197.137 92.448C196.941 92.3547 196.703 92.308 196.423 92.308C196.05 92.308 195.723 92.378 195.443 92.518C195.172 92.6487 194.948 92.8353 194.771 93.078C194.603 93.3113 194.477 93.5913 194.393 93.918C194.309 94.2353 194.267 94.5853 194.267 94.968V99H193.385V91.776ZM210.241 94.884C210.232 94.548 210.171 94.226 210.059 93.918C209.956 93.61 209.807 93.3393 209.611 93.106C209.415 92.8633 209.177 92.672 208.897 92.532C208.617 92.3827 208.3 92.308 207.945 92.308C207.581 92.308 207.259 92.3827 206.979 92.532C206.699 92.672 206.461 92.8633 206.265 93.106C206.069 93.3393 205.91 93.6147 205.789 93.932C205.677 94.24 205.602 94.5573 205.565 94.884H210.241ZM205.565 95.626C205.565 95.9433 205.607 96.2747 205.691 96.62C205.784 96.956 205.929 97.2593 206.125 97.53C206.321 97.8007 206.568 98.0247 206.867 98.202C207.166 98.3793 207.525 98.468 207.945 98.468C208.589 98.468 209.093 98.3 209.457 97.964C209.821 97.628 210.073 97.18 210.213 96.62H211.095C210.908 97.4413 210.563 98.076 210.059 98.524C209.564 98.972 208.86 99.196 207.945 99.196C207.376 99.196 206.881 99.098 206.461 98.902C206.05 98.6967 205.714 98.4213 205.453 98.076C205.192 97.7213 204.996 97.3153 204.865 96.858C204.744 96.3913 204.683 95.9013 204.683 95.388C204.683 94.912 204.744 94.4453 204.865 93.988C204.996 93.5307 205.192 93.1247 205.453 92.77C205.714 92.406 206.05 92.1167 206.461 91.902C206.881 91.678 207.376 91.566 207.945 91.566C208.524 91.566 209.018 91.6827 209.429 91.916C209.84 92.1493 210.171 92.4573 210.423 92.84C210.684 93.2133 210.871 93.6473 210.983 94.142C211.095 94.6273 211.142 95.122 211.123 95.626H205.565ZM212.293 91.776H213.175V93.022H213.203C213.371 92.5833 213.669 92.2333 214.099 91.972C214.528 91.7013 214.999 91.566 215.513 91.566C216.017 91.566 216.437 91.6313 216.773 91.762C217.118 91.8927 217.393 92.0793 217.599 92.322C217.804 92.5553 217.949 92.8447 218.033 93.19C218.117 93.5353 218.159 93.9227 218.159 94.352V99H217.277V94.492C217.277 94.184 217.249 93.8993 217.193 93.638C217.137 93.3673 217.039 93.134 216.899 92.938C216.759 92.742 216.567 92.588 216.325 92.476C216.091 92.364 215.797 92.308 215.443 92.308C215.088 92.308 214.771 92.3733 214.491 92.504C214.22 92.6253 213.987 92.798 213.791 93.022C213.604 93.2367 213.455 93.498 213.343 93.806C213.24 94.1047 213.184 94.4313 213.175 94.786V99H212.293V91.776ZM221.226 91.776H222.696V92.518H221.226V97.39C221.226 97.6793 221.264 97.908 221.338 98.076C221.422 98.2347 221.623 98.3233 221.94 98.342C222.192 98.342 222.444 98.328 222.696 98.3V99.042C222.566 99.042 222.435 99.0467 222.304 99.056C222.174 99.0653 222.043 99.07 221.912 99.07C221.324 99.07 220.914 98.958 220.68 98.734C220.447 98.5007 220.335 98.076 220.344 97.46V92.518H219.084V91.776H220.344V89.606H221.226V91.776ZM227.021 92.308C226.601 92.308 226.232 92.3967 225.915 92.574C225.598 92.7513 225.332 92.9847 225.117 93.274C224.912 93.5633 224.753 93.8947 224.641 94.268C224.538 94.632 224.487 95.0053 224.487 95.388C224.487 95.7707 224.538 96.1487 224.641 96.522C224.753 96.886 224.912 97.2127 225.117 97.502C225.332 97.7913 225.598 98.0247 225.915 98.202C226.232 98.3793 226.601 98.468 227.021 98.468C227.441 98.468 227.81 98.3793 228.127 98.202C228.444 98.0247 228.706 97.7913 228.911 97.502C229.126 97.2127 229.284 96.886 229.387 96.522C229.499 96.1487 229.555 95.7707 229.555 95.388C229.555 95.0053 229.499 94.632 229.387 94.268C229.284 93.8947 229.126 93.5633 228.911 93.274C228.706 92.9847 228.444 92.7513 228.127 92.574C227.81 92.3967 227.441 92.308 227.021 92.308ZM227.021 91.566C227.572 91.566 228.057 91.6687 228.477 91.874C228.906 92.0793 229.266 92.3547 229.555 92.7C229.844 93.0453 230.064 93.4513 230.213 93.918C230.362 94.3753 230.437 94.8653 230.437 95.388C230.437 95.9107 230.362 96.4053 230.213 96.872C230.064 97.3293 229.844 97.7307 229.555 98.076C229.266 98.4213 228.906 98.6967 228.477 98.902C228.057 99.098 227.572 99.196 227.021 99.196C226.47 99.196 225.98 99.098 225.551 98.902C225.131 98.6967 224.776 98.4213 224.487 98.076C224.198 97.7307 223.978 97.3293 223.829 96.872C223.68 96.4053 223.605 95.9107 223.605 95.388C223.605 94.8653 223.68 94.3753 223.829 93.918C223.978 93.4513 224.198 93.0453 224.487 92.7C224.776 92.3547 225.131 92.0793 225.551 91.874C225.98 91.6687 226.47 91.566 227.021 91.566ZM236.074 93.89C236.065 93.6193 236.009 93.386 235.906 93.19C235.804 92.9847 235.664 92.8167 235.486 92.686C235.318 92.5553 235.122 92.462 234.898 92.406C234.674 92.3407 234.436 92.308 234.184 92.308C233.988 92.308 233.788 92.3313 233.582 92.378C233.386 92.4153 233.204 92.4853 233.036 92.588C232.868 92.6813 232.733 92.8073 232.63 92.966C232.528 93.1247 232.476 93.3207 232.476 93.554C232.476 93.75 232.523 93.918 232.616 94.058C232.719 94.1887 232.845 94.3007 232.994 94.394C233.144 94.4873 233.307 94.5667 233.484 94.632C233.662 94.688 233.825 94.7347 233.974 94.772L235.15 95.038C235.402 95.0753 235.65 95.1453 235.892 95.248C236.144 95.3413 236.364 95.4673 236.55 95.626C236.746 95.7847 236.905 95.9807 237.026 96.214C237.148 96.4473 237.208 96.7227 237.208 97.04C237.208 97.432 237.12 97.768 236.942 98.048C236.765 98.3187 236.536 98.5427 236.256 98.72C235.986 98.888 235.678 99.0093 235.332 99.084C234.987 99.1587 234.646 99.196 234.31 99.196C233.461 99.196 232.77 98.9953 232.238 98.594C231.716 98.1927 231.417 97.5487 231.342 96.662H232.224C232.262 97.2593 232.476 97.712 232.868 98.02C233.27 98.3187 233.764 98.468 234.352 98.468C234.567 98.468 234.786 98.4447 235.01 98.398C235.244 98.3513 235.458 98.272 235.654 98.16C235.85 98.048 236.009 97.908 236.13 97.74C236.261 97.5627 236.326 97.348 236.326 97.096C236.326 96.8813 236.28 96.704 236.186 96.564C236.102 96.4147 235.986 96.2933 235.836 96.2C235.687 96.0973 235.514 96.0133 235.318 95.948C235.132 95.8827 234.94 95.8267 234.744 95.78L233.61 95.528C233.321 95.4533 233.055 95.3693 232.812 95.276C232.57 95.1733 232.355 95.052 232.168 94.912C231.991 94.7627 231.851 94.5853 231.748 94.38C231.646 94.1653 231.594 93.904 231.594 93.596C231.594 93.232 231.674 92.9193 231.832 92.658C232 92.3967 232.215 92.1867 232.476 92.028C232.738 91.8693 233.027 91.7527 233.344 91.678C233.671 91.6033 233.993 91.566 234.31 91.566C234.674 91.566 235.01 91.6127 235.318 91.706C235.636 91.7993 235.911 91.944 236.144 92.14C236.387 92.336 236.578 92.5787 236.718 92.868C236.858 93.1573 236.938 93.498 236.956 93.89H236.074ZM241.573 91.776H242.511L244.891 97.936L247.117 91.776H247.999L244.863 100.092C244.732 100.4 244.611 100.652 244.499 100.848C244.387 101.053 244.261 101.212 244.121 101.324C243.99 101.445 243.832 101.529 243.645 101.576C243.468 101.632 243.239 101.66 242.959 101.66C242.782 101.651 242.642 101.641 242.539 101.632C242.446 101.632 242.362 101.618 242.287 101.59V100.848C242.39 100.867 242.488 100.881 242.581 100.89C242.684 100.909 242.786 100.918 242.889 100.918C243.085 100.918 243.244 100.89 243.365 100.834C243.496 100.778 243.608 100.699 243.701 100.596C243.794 100.503 243.874 100.386 243.939 100.246C244.004 100.106 244.074 99.952 244.149 99.784L244.457 98.972L241.573 91.776ZM81.282 106.776V108.26H80.106V106.776H81.282ZM81.17 113.79V116.66H80.218V113.79L80.428 109.268H80.96L81.17 113.79ZM89.573 114H88.761V112.628H88.733C88.6396 112.861 88.4996 113.076 88.313 113.272C88.1356 113.468 87.9303 113.636 87.697 113.776C87.4636 113.907 87.2116 114.009 86.941 114.084C86.6796 114.159 86.4183 114.196 86.157 114.196C85.6063 114.196 85.1256 114.098 84.715 113.902C84.3136 113.697 83.9776 113.421 83.707 113.076C83.4363 112.721 83.2356 112.315 83.105 111.858C82.9743 111.391 82.909 110.901 82.909 110.388C82.909 109.875 82.9743 109.389 83.105 108.932C83.2356 108.465 83.4363 108.059 83.707 107.714C83.9776 107.359 84.3136 107.079 84.715 106.874C85.1256 106.669 85.6063 106.566 86.157 106.566C86.4276 106.566 86.689 106.599 86.941 106.664C87.2023 106.729 87.445 106.832 87.669 106.972C87.893 107.103 88.089 107.266 88.257 107.462C88.4343 107.658 88.5696 107.887 88.663 108.148H88.691V104.004H89.573V114ZM83.791 110.388C83.791 110.761 83.833 111.135 83.917 111.508C84.0103 111.872 84.1503 112.199 84.337 112.488C84.533 112.777 84.7803 113.015 85.079 113.202C85.3776 113.379 85.737 113.468 86.157 113.468C86.6236 113.468 87.0156 113.379 87.333 113.202C87.6596 113.015 87.921 112.777 88.117 112.488C88.3223 112.199 88.467 111.872 88.551 111.508C88.6443 111.135 88.691 110.761 88.691 110.388C88.691 110.015 88.6443 109.646 88.551 109.282C88.467 108.909 88.3223 108.577 88.117 108.288C87.921 107.999 87.6596 107.765 87.333 107.588C87.0156 107.401 86.6236 107.308 86.157 107.308C85.737 107.308 85.3776 107.401 85.079 107.588C84.7803 107.765 84.533 107.999 84.337 108.288C84.1503 108.577 84.0103 108.909 83.917 109.282C83.833 109.646 83.791 110.015 83.791 110.388ZM91.172 108.988C91.2 108.568 91.2887 108.204 91.438 107.896C91.5873 107.588 91.788 107.336 92.04 107.14C92.3013 106.944 92.6047 106.799 92.95 106.706C93.2953 106.613 93.678 106.566 94.098 106.566C94.4153 106.566 94.7327 106.599 95.05 106.664C95.3673 106.72 95.652 106.832 95.904 107C96.156 107.168 96.3613 107.406 96.52 107.714C96.6787 108.013 96.758 108.405 96.758 108.89V112.726C96.758 113.081 96.9307 113.258 97.276 113.258C97.3787 113.258 97.472 113.239 97.556 113.202V113.944C97.4533 113.963 97.36 113.977 97.276 113.986C97.2013 113.995 97.1033 114 96.982 114C96.758 114 96.576 113.972 96.436 113.916C96.3053 113.851 96.2027 113.762 96.128 113.65C96.0533 113.538 96.002 113.407 95.974 113.258C95.9553 113.099 95.946 112.927 95.946 112.74H95.918C95.7593 112.973 95.596 113.183 95.428 113.37C95.2693 113.547 95.0873 113.697 94.882 113.818C94.686 113.939 94.4573 114.033 94.196 114.098C93.944 114.163 93.6407 114.196 93.286 114.196C92.95 114.196 92.6327 114.154 92.334 114.07C92.0447 113.995 91.788 113.874 91.564 113.706C91.3493 113.529 91.1767 113.309 91.046 113.048C90.9247 112.777 90.864 112.46 90.864 112.096C90.864 111.592 90.976 111.2 91.2 110.92C91.424 110.631 91.718 110.411 92.082 110.262C92.4553 110.113 92.8707 110.01 93.328 109.954C93.7947 109.889 94.266 109.828 94.742 109.772C94.9287 109.753 95.092 109.73 95.232 109.702C95.372 109.674 95.4887 109.627 95.582 109.562C95.6753 109.487 95.7453 109.389 95.792 109.268C95.848 109.147 95.876 108.988 95.876 108.792C95.876 108.493 95.8247 108.251 95.722 108.064C95.6287 107.868 95.4933 107.714 95.316 107.602C95.148 107.49 94.9473 107.415 94.714 107.378C94.49 107.331 94.2473 107.308 93.986 107.308C93.426 107.308 92.9687 107.443 92.614 107.714C92.2593 107.975 92.0727 108.4 92.054 108.988H91.172ZM95.876 110.052H95.848C95.792 110.155 95.6847 110.229 95.526 110.276C95.3673 110.323 95.2273 110.355 95.106 110.374C94.7327 110.439 94.3453 110.5 93.944 110.556C93.552 110.603 93.1927 110.677 92.866 110.78C92.5393 110.883 92.2687 111.032 92.054 111.228C91.8487 111.415 91.746 111.685 91.746 112.04C91.746 112.264 91.788 112.465 91.872 112.642C91.9653 112.81 92.0867 112.959 92.236 113.09C92.3853 113.211 92.558 113.305 92.754 113.37C92.95 113.435 93.1507 113.468 93.356 113.468C93.692 113.468 94.014 113.417 94.322 113.314C94.63 113.211 94.896 113.062 95.12 112.866C95.3533 112.67 95.5353 112.432 95.666 112.152C95.806 111.872 95.876 111.555 95.876 111.2V110.052ZM98.5298 104.004H99.4118V114H98.5298V104.004ZM106.294 109.884C106.284 109.548 106.224 109.226 106.112 108.918C106.009 108.61 105.86 108.339 105.664 108.106C105.468 107.863 105.23 107.672 104.95 107.532C104.67 107.383 104.352 107.308 103.998 107.308C103.634 107.308 103.312 107.383 103.032 107.532C102.752 107.672 102.514 107.863 102.318 108.106C102.122 108.339 101.963 108.615 101.842 108.932C101.73 109.24 101.655 109.557 101.618 109.884H106.294ZM101.618 110.626C101.618 110.943 101.66 111.275 101.744 111.62C101.837 111.956 101.982 112.259 102.178 112.53C102.374 112.801 102.621 113.025 102.92 113.202C103.218 113.379 103.578 113.468 103.998 113.468C104.642 113.468 105.146 113.3 105.51 112.964C105.874 112.628 106.126 112.18 106.266 111.62H107.148C106.961 112.441 106.616 113.076 106.112 113.524C105.617 113.972 104.912 114.196 103.998 114.196C103.428 114.196 102.934 114.098 102.514 113.902C102.103 113.697 101.767 113.421 101.506 113.076C101.244 112.721 101.048 112.315 100.918 111.858C100.796 111.391 100.736 110.901 100.736 110.388C100.736 109.912 100.796 109.445 100.918 108.988C101.048 108.531 101.244 108.125 101.506 107.77C101.767 107.406 102.103 107.117 102.514 106.902C102.934 106.678 103.428 106.566 103.998 106.566C104.576 106.566 105.071 106.683 105.482 106.916C105.892 107.149 106.224 107.457 106.476 107.84C106.737 108.213 106.924 108.647 107.036 109.142C107.148 109.627 107.194 110.122 107.176 110.626H101.618ZM115.308 107.308C114.888 107.308 114.519 107.397 114.202 107.574C113.885 107.751 113.619 107.985 113.404 108.274C113.199 108.563 113.04 108.895 112.928 109.268C112.825 109.632 112.774 110.005 112.774 110.388C112.774 110.771 112.825 111.149 112.928 111.522C113.04 111.886 113.199 112.213 113.404 112.502C113.619 112.791 113.885 113.025 114.202 113.202C114.519 113.379 114.888 113.468 115.308 113.468C115.728 113.468 116.097 113.379 116.414 113.202C116.731 113.025 116.993 112.791 117.198 112.502C117.413 112.213 117.571 111.886 117.674 111.522C117.786 111.149 117.842 110.771 117.842 110.388C117.842 110.005 117.786 109.632 117.674 109.268C117.571 108.895 117.413 108.563 117.198 108.274C116.993 107.985 116.731 107.751 116.414 107.574C116.097 107.397 115.728 107.308 115.308 107.308ZM115.308 106.566C115.859 106.566 116.344 106.669 116.764 106.874C117.193 107.079 117.553 107.355 117.842 107.7C118.131 108.045 118.351 108.451 118.5 108.918C118.649 109.375 118.724 109.865 118.724 110.388C118.724 110.911 118.649 111.405 118.5 111.872C118.351 112.329 118.131 112.731 117.842 113.076C117.553 113.421 117.193 113.697 116.764 113.902C116.344 114.098 115.859 114.196 115.308 114.196C114.757 114.196 114.267 114.098 113.838 113.902C113.418 113.697 113.063 113.421 112.774 113.076C112.485 112.731 112.265 112.329 112.116 111.872C111.967 111.405 111.892 110.911 111.892 110.388C111.892 109.865 111.967 109.375 112.116 108.918C112.265 108.451 112.485 108.045 112.774 107.7C113.063 107.355 113.418 107.079 113.838 106.874C114.267 106.669 114.757 106.566 115.308 106.566ZM121.435 106.776H122.905V107.518H121.435V112.39C121.435 112.679 121.473 112.908 121.547 113.076C121.631 113.235 121.832 113.323 122.149 113.342C122.401 113.342 122.653 113.328 122.905 113.3V114.042C122.775 114.042 122.644 114.047 122.513 114.056C122.383 114.065 122.252 114.07 122.121 114.07C121.533 114.07 121.123 113.958 120.889 113.734C120.656 113.501 120.544 113.076 120.553 112.46V107.518H119.293V106.776H120.553V104.606H121.435V106.776ZM124.178 106.776H124.99V108.47H125.018C125.242 107.882 125.587 107.429 126.054 107.112C126.53 106.795 127.095 106.65 127.748 106.678V107.56C127.347 107.541 126.983 107.597 126.656 107.728C126.329 107.849 126.045 108.027 125.802 108.26C125.569 108.493 125.387 108.773 125.256 109.1C125.125 109.417 125.06 109.767 125.06 110.15V114H124.178V106.776ZM131.4 107.308C130.98 107.308 130.611 107.397 130.294 107.574C129.976 107.751 129.71 107.985 129.496 108.274C129.29 108.563 129.132 108.895 129.02 109.268C128.917 109.632 128.866 110.005 128.866 110.388C128.866 110.771 128.917 111.149 129.02 111.522C129.132 111.886 129.29 112.213 129.496 112.502C129.71 112.791 129.976 113.025 130.294 113.202C130.611 113.379 130.98 113.468 131.4 113.468C131.82 113.468 132.188 113.379 132.506 113.202C132.823 113.025 133.084 112.791 133.29 112.502C133.504 112.213 133.663 111.886 133.766 111.522C133.878 111.149 133.934 110.771 133.934 110.388C133.934 110.005 133.878 109.632 133.766 109.268C133.663 108.895 133.504 108.563 133.29 108.274C133.084 107.985 132.823 107.751 132.506 107.574C132.188 107.397 131.82 107.308 131.4 107.308ZM131.4 106.566C131.95 106.566 132.436 106.669 132.856 106.874C133.285 107.079 133.644 107.355 133.934 107.7C134.223 108.045 134.442 108.451 134.592 108.918C134.741 109.375 134.816 109.865 134.816 110.388C134.816 110.911 134.741 111.405 134.592 111.872C134.442 112.329 134.223 112.731 133.934 113.076C133.644 113.421 133.285 113.697 132.856 113.902C132.436 114.098 131.95 114.196 131.4 114.196C130.849 114.196 130.359 114.098 129.93 113.902C129.51 113.697 129.155 113.421 128.866 113.076C128.576 112.731 128.357 112.329 128.208 111.872C128.058 111.405 127.984 110.911 127.984 110.388C127.984 109.865 128.058 109.375 128.208 108.918C128.357 108.451 128.576 108.045 128.866 107.7C129.155 107.355 129.51 107.079 129.93 106.874C130.359 106.669 130.849 106.566 131.4 106.566ZM140.038 104.004H140.92V114H140.038V104.004ZM145.66 107.308C145.24 107.308 144.871 107.397 144.554 107.574C144.236 107.751 143.97 107.985 143.756 108.274C143.55 108.563 143.392 108.895 143.28 109.268C143.177 109.632 143.126 110.005 143.126 110.388C143.126 110.771 143.177 111.149 143.28 111.522C143.392 111.886 143.55 112.213 143.756 112.502C143.97 112.791 144.236 113.025 144.554 113.202C144.871 113.379 145.24 113.468 145.66 113.468C146.08 113.468 146.448 113.379 146.766 113.202C147.083 113.025 147.344 112.791 147.55 112.502C147.764 112.213 147.923 111.886 148.026 111.522C148.138 111.149 148.194 110.771 148.194 110.388C148.194 110.005 148.138 109.632 148.026 109.268C147.923 108.895 147.764 108.563 147.55 108.274C147.344 107.985 147.083 107.751 146.766 107.574C146.448 107.397 146.08 107.308 145.66 107.308ZM145.66 106.566C146.21 106.566 146.696 106.669 147.116 106.874C147.545 107.079 147.904 107.355 148.194 107.7C148.483 108.045 148.702 108.451 148.852 108.918C149.001 109.375 149.076 109.865 149.076 110.388C149.076 110.911 149.001 111.405 148.852 111.872C148.702 112.329 148.483 112.731 148.194 113.076C147.904 113.421 147.545 113.697 147.116 113.902C146.696 114.098 146.21 114.196 145.66 114.196C145.109 114.196 144.619 114.098 144.19 113.902C143.77 113.697 143.415 113.421 143.126 113.076C142.836 112.731 142.617 112.329 142.468 111.872C142.318 111.405 142.244 110.911 142.244 110.388C142.244 109.865 142.318 109.375 142.468 108.918C142.617 108.451 142.836 108.045 143.126 107.7C143.415 107.355 143.77 107.079 144.19 106.874C144.619 106.669 145.109 106.566 145.66 106.566ZM153.439 107.308C153.019 107.308 152.65 107.397 152.333 107.574C152.016 107.751 151.75 107.985 151.535 108.274C151.33 108.563 151.171 108.895 151.059 109.268C150.956 109.632 150.905 110.005 150.905 110.388C150.905 110.771 150.956 111.149 151.059 111.522C151.171 111.886 151.33 112.213 151.535 112.502C151.75 112.791 152.016 113.025 152.333 113.202C152.65 113.379 153.019 113.468 153.439 113.468C153.859 113.468 154.228 113.379 154.545 113.202C154.862 113.025 155.124 112.791 155.329 112.502C155.544 112.213 155.702 111.886 155.805 111.522C155.917 111.149 155.973 110.771 155.973 110.388C155.973 110.005 155.917 109.632 155.805 109.268C155.702 108.895 155.544 108.563 155.329 108.274C155.124 107.985 154.862 107.751 154.545 107.574C154.228 107.397 153.859 107.308 153.439 107.308ZM153.439 106.566C153.99 106.566 154.475 106.669 154.895 106.874C155.324 107.079 155.684 107.355 155.973 107.7C156.262 108.045 156.482 108.451 156.631 108.918C156.78 109.375 156.855 109.865 156.855 110.388C156.855 110.911 156.78 111.405 156.631 111.872C156.482 112.329 156.262 112.731 155.973 113.076C155.684 113.421 155.324 113.697 154.895 113.902C154.475 114.098 153.99 114.196 153.439 114.196C152.888 114.196 152.398 114.098 151.969 113.902C151.549 113.697 151.194 113.421 150.905 113.076C150.616 112.731 150.396 112.329 150.247 111.872C150.098 111.405 150.023 110.911 150.023 110.388C150.023 109.865 150.098 109.375 150.247 108.918C150.396 108.451 150.616 108.045 150.905 107.7C151.194 107.355 151.549 107.079 151.969 106.874C152.398 106.669 152.888 106.566 153.439 106.566ZM158.166 104.004H159.048V110.276L163.052 106.776H164.228L161.148 109.45L164.438 114H163.332L160.476 110.066L159.048 111.256V114H158.166V104.004ZM165.432 114V112.516H166.608V114H165.432ZM165.544 106.986V104.004H166.496V106.986L166.286 111.508H165.754L165.544 106.986Z" fill="white"/>
<defs>
<clipPath id="clip0_2101_3504">
<rect width="80.7062" height="60.1488" fill="white" transform="matrix(0.857374 0.514694 0.514694 -0.857374 0 51.5701)"/>
</clipPath>
</defs>
</svg>
