<?xml version="1.0" encoding="utf-8"?>
<!-- Generator: Adobe Illustrator 28.1.0, SVG Export Plug-In . SVG Version: 6.00 Build 0)  -->
<svg version="1.1" id="Capa_1" xmlns="http://www.w3.org/2000/svg" xmlns:xlink="http://www.w3.org/1999/xlink" x="0px" y="0px"
	 viewBox="0 0 473.98 467.79" style="enable-background:new 0 0 473.98 467.79;" xml:space="preserve">
<style type="text/css">
	.st0{fill:url(#SVGID_1_);}
	.st1{fill:#FFFFFF;}
	.st2{fill:#AB93BA;}
</style>
<g>
	<linearGradient id="SVGID_1_" gradientUnits="userSpaceOnUse" x1="-12.777" y1="-85.2366" x2="441.8129" y2="502.8891">
		<stop  offset="0" style="stop-color:#A495C0"/>
		<stop  offset="1" style="stop-color:#C5829D"/>
	</linearGradient>
	<path class="st0" d="M300.05,467.79h-132.3C75.1,467.79,0,392.69,0,300.05l0-132.3C0,75.1,75.1,0,167.74,0l132.3,0
		c92.64,0,167.74,75.1,167.74,167.74v132.3C467.79,392.69,392.69,467.79,300.05,467.79z"/>
	<path class="st1" d="M273.33,242.38h72.13c3.21,0,5.81-2.6,5.81-5.81v-72.13c0-3.21-2.6-5.81-5.81-5.81h-72.13
		c-3.21,0-5.81,2.6-5.81,5.81v72.13C267.52,239.78,270.12,242.38,273.33,242.38z M279.14,170.25h60.51v60.51h-60.51V170.25z
		 M301.39,131.47h16.02c2.06,0,3.73-1.67,3.73-3.73c0-2.06-1.67-3.73-3.73-3.73h-16.02c-2.06,0-3.73,1.67-3.73,3.73
		C297.66,129.8,299.33,131.47,301.39,131.47z M273.33,271.85h72.13c3.21,0,5.81-2.6,5.81-5.81c0-3.21-2.6-5.81-5.81-5.81h-72.13
		c-3.21,0-5.81,2.6-5.81,5.81C267.52,269.25,270.12,271.85,273.33,271.85z M273.33,300.16h72.13c3.21,0,5.81-2.6,5.81-5.81
		s-2.6-5.81-5.81-5.81h-72.13c-3.21,0-5.81,2.6-5.81,5.81S270.12,300.16,273.33,300.16z M387.62,315.41V171.04
		c0-36.98-30.08-67.06-67.06-67.06h-62.85c-7.78,0-14.78,3.36-19.64,8.71c-3.88-6.86-9.76-12.41-16.44-14.84l-86.82-31.56
		c-6.17-2.24-12.23-1.61-17.06,1.77c-5.31,3.72-8.36,10.37-8.36,18.24v17.92c-12.98,1.72-23.02,12.85-23.02,26.29v216.31
		c0,14.63,11.9,26.53,26.53,26.53c0,0,0,0,0,0l103.39-0.04c8.37,0,15.84-3.91,20.71-9.99c4.86,6.08,12.34,9.99,20.71,9.99
		l74.12,0.04c6.23,17.32,22.81,29.74,42.25,29.74c24.75,0,44.89-20.14,44.89-44.89C418.95,338.17,405.77,321.17,387.62,315.41z
		 M112.89,361.73c-8.22,0-14.91-6.69-14.91-14.91V130.51c0-7.01,4.87-12.89,11.4-14.48V302.6c0,13.97,9.37,28.32,21.34,32.67
		c0,0,0,0,0,0l72.78,26.42L112.89,361.73z M231.01,346.78c0,3.91-1.19,6.99-3.26,8.45c-1.98,1.39-4.42,0.95-6.11,0.33l-86.83-31.52
		c-7.3-2.66-13.47-12.47-13.47-21.43V86.29c0-3.92,1.19-6.99,3.26-8.45c1.98-1.39,4.42-0.95,6.12-0.33l86.82,31.56
		c7.3,2.65,13.47,12.47,13.47,21.43V346.78z M329.18,358.2c0,1.19,0.06,2.36,0.15,3.52l-71.63-0.04c-7.63,0-13.93-5.77-14.79-13.17
		c0.03-0.57,0.06-1.15,0.06-1.74V130.51c0-0.58-0.02-1.17-0.05-1.75c0.87-7.4,7.17-13.16,14.8-13.16h62.85
		c30.57,0,55.44,24.87,55.44,55.44v142.33c-0.64-0.03-1.28-0.05-1.93-0.05c-8.6,0-16.63,2.43-23.46,6.64
		c-0.97-1.85-2.91-3.1-5.14-3.1h-72.13c-3.21,0-5.81,2.6-5.81,5.81c0,3.21,2.6,5.81,5.81,5.81h67.14
		C333.45,336.39,329.18,346.81,329.18,358.2z M374.07,390.65c-17.89,0-32.45-14.56-32.45-32.45s14.56-32.45,32.45-32.45
		c17.89,0,32.45,14.56,32.45,32.45S391.96,390.65,374.07,390.65z M208.5,147.73l-60.58-22.02c-1.83-0.67-3.88-0.4-5.47,0.72
		s-2.55,2.95-2.55,4.9v72.13c0,2.51,1.57,4.76,3.94,5.62l60.58,22.02c0.66,0.24,1.35,0.36,2.04,0.36c1.21,0,2.41-0.37,3.43-1.08
		c1.6-1.12,2.55-2.95,2.55-4.9v-72.13C212.44,150.83,210.87,148.59,208.5,147.73z M200.48,216.94l-48.62-17.68v-59.41l48.62,17.68
		V216.94z M208.5,249.33l-60.58-22.02c-3.1-1.13-6.53,0.47-7.66,3.58c-1.13,3.1,0.47,6.53,3.58,7.66l60.58,22.02
		c0.67,0.25,1.36,0.36,2.04,0.36c2.44,0,4.74-1.51,5.62-3.94C213.21,253.88,211.61,250.45,208.5,249.33z M208.5,277.63l-60.58-22.02
		c-3.1-1.13-6.53,0.47-7.66,3.58c-1.13,3.1,0.47,6.53,3.58,7.66l60.58,22.02c0.67,0.25,1.36,0.36,2.04,0.36
		c2.44,0,4.74-1.51,5.62-3.94C213.21,282.19,211.61,278.76,208.5,277.63z M208.5,305.94l-60.58-22.02c-3.1-1.13-6.53,0.47-7.66,3.58
		c-1.13,3.1,0.47,6.53,3.58,7.66l60.58,22.02c0.67,0.24,1.36,0.36,2.04,0.36c2.44,0,4.74-1.51,5.62-3.94
		C213.21,310.5,211.61,307.07,208.5,305.94z"/>
	<g>
		<g id="Ilustración_4_00000024717064375763593880000011912285448329008044_">
			<g>
				<path class="st1" d="M371.98,365.77c-4.18,4.2-5.88,10.15-4.53,15.93l15.59,66.2c1.43,6.1,5.88,10.75,11.9,12.47
					c6,1.72,12.25,0.1,16.67-4.33l5.26-5.26l12.02,12.02c3.2,3.22,7.48,4.99,12.02,4.99c4.55,0,8.8-1.77,12.02-4.99l16.03-16.03
					c3.22-3.2,4.99-7.47,4.99-12.02c0-4.55-1.77-8.8-4.99-12.02l-12.02-12.02l5.26-5.26c4.43-4.43,6.05-10.65,4.33-16.67
					c-1.72-6.02-6.37-10.48-12.47-11.9l-66.22-15.59C382.08,359.91,376.13,361.61,371.98,365.77 M379.95,373.83
					c0.66-0.66,2.53-2.16,5.31-1.5l66.19,15.59c2.93,0.69,3.89,3,4.16,3.96c0.27,0.96,0.66,3.44-1.45,5.56l-9.27,9.27
					c-2.21,2.21-2.21,5.8,0,8.02l16.03,16.03c1.08,1.06,1.67,2.48,1.67,4.01c0,1.52-0.59,2.93-1.67,4.01l-16.03,16.03
					c-2.14,2.14-5.88,2.14-8.02,0l-16.03-16.03c-2.21-2.21-5.8-2.21-8.02,0l-9.27,9.27c-2.11,2.14-4.6,1.72-5.56,1.45
					c-0.96-0.27-3.27-1.23-3.96-4.16l-15.59-66.19C377.81,376.36,379.28,374.49,379.95,373.83"/>
			</g>
		</g>
		<g>
			<path class="st2" d="M379.95,373.83c0.66-0.66,2.53-2.16,5.31-1.5l66.19,15.59c2.93,0.69,3.89,3,4.16,3.96
				c0.27,0.96,0.66,3.44-1.45,5.56l-9.27,9.27c-2.21,2.21-2.21,5.8,0,8.02l16.03,16.03c1.08,1.06,1.67,2.48,1.67,4.01
				c0,1.52-0.59,2.93-1.67,4.01l-16.03,16.03c-2.14,2.14-5.88,2.14-8.02,0l-16.03-16.03c-2.21-2.21-5.8-2.21-8.02,0l-9.27,9.27
				c-2.11,2.14-4.6,1.72-5.56,1.45c-0.96-0.27-3.27-1.23-3.96-4.16l-15.59-66.19C377.81,376.36,379.28,374.49,379.95,373.83"/>
		</g>
	</g>
</g>
</svg>
