<svg width="56" height="42" viewBox="0 0 56 42" fill="none" xmlns="http://www.w3.org/2000/svg">
<g clip-path="url(#clip0_2420_3037)">
<mask id="mask0_2420_3037" style="mask-type:luminance" maskUnits="userSpaceOnUse" x="0" y="0" width="56" height="42">
<path d="M55.63 0H0V41.46H55.63V0Z" fill="white"/>
</mask>
<g mask="url(#mask0_2420_3037)">
<path d="M3.29004 40.78C3.29004 36.19 4.13004 32.05 6.52004 28.07C7.15004 27.02 7.88004 26.03 8.70004 25.11C10.59 22.98 12.92 21.22 15.45 19.92C18.35 18.43 21.67 17.55 24.94 17.7C26.84 17.79 28.91 18.2 30.38 19.49C31.21 20.21 31.74 21.19 31.93 22.27C32.61 26.13 29.04 29.39 25.28 29.06C23.19 28.88 21.81 27.33 21.57 25.28C21.31 23.08 22.34 20.81 23.37 18.92C26.02 14.08 30.45 10.3 34.97 7.26C36.32 6.35 37.72 5.52 39.16 4.78C42.08 3.28 45.19 2.04 48.34 1.13C50.64 0.47 53.03 0.01 55.43 0" stroke="white"/>
<path d="M6.58 37.24L3.29 40.78L0 37.24" stroke="white"/>
</g>
</g>
<defs>
<clipPath id="clip0_2420_3037">
<rect width="55.63" height="41.46" fill="white"/>
</clipPath>
</defs>
</svg>
