<svg width="21" stroke="#292929" height="22" viewBox="0 0 21 22" fill="none" xmlns="http://www.w3.org/2000/svg">
<path d="M1.54468 4.07999C1.54468 2.82499 2.56206 1.80762 3.81705 1.80762H6.08943C7.34443 1.80762 8.36181 2.825 8.36181 4.07999V6.35237C8.36181 7.60737 7.34443 8.62475 6.08943 8.62475H3.81705C2.56206 8.62475 1.54468 7.60737 1.54468 6.35237V4.07999Z" stroke="#292929" stroke-width="2.20034" stroke-linecap="round" stroke-linejoin="round"/>
<path d="M12.9066 4.07999C12.9066 2.82499 13.9239 1.80762 15.1789 1.80762H17.4513C18.7063 1.80762 19.7237 2.825 19.7237 4.07999V6.35237C19.7237 7.60737 18.7063 8.62475 17.4513 8.62475H15.1789C13.9239 8.62475 12.9066 7.60737 12.9066 6.35237V4.07999Z" stroke="#292929" stroke-width="2.20034" stroke-linecap="round" stroke-linejoin="round"/>
<path d="M1.54468 15.4419C1.54468 14.1869 2.56206 13.1695 3.81705 13.1695H6.08943C7.34443 13.1695 8.36181 14.1869 8.36181 15.4419V17.7143C8.36181 18.9693 7.34443 19.9866 6.08943 19.9866H3.81705C2.56206 19.9866 1.54468 18.9693 1.54468 17.7143V15.4419Z" stroke="#292929" stroke-width="2.20034" stroke-linecap="round" stroke-linejoin="round"/>
<path d="M12.9066 15.4419C12.9066 14.1869 13.9239 13.1695 15.1789 13.1695H17.4513C18.7063 13.1695 19.7237 14.1869 19.7237 15.4419V17.7143C19.7237 18.9693 18.7063 19.9866 17.4513 19.9866H15.1789C13.9239 19.9866 12.9066 18.9693 12.9066 17.7143V15.4419Z" stroke="#292929" stroke-width="2.20034" stroke-linecap="round" stroke-linejoin="round"/>
</svg>
