<svg width="120" height="116" viewBox="0 0 120 116" fill="none" xmlns="http://www.w3.org/2000/svg">
<path d="M3.672 18.56V13.448C3.672 9.776 3.636 8.084 3.6 7.292C3.564 6.644 3.456 6.464 2.916 6.428L0.612 6.212L0.792 5.78C1.26 5.78 2.952 5.924 4.464 5.924C5.58 5.924 7.056 5.78 9.36 5.78C12.672 5.78 14.112 6.464 15.12 7.508C16.236 8.588 16.812 10.28 16.812 12.152C16.812 14.42 16.128 16.22 15.012 17.408C13.608 18.884 11.88 19.46 9.792 19.46C8.892 19.46 7.956 19.28 7.344 19.028L7.38 18.524C7.884 18.668 8.64 18.812 9.612 18.812C11.088 18.812 12.456 18.272 13.176 17.048C13.896 16.04 14.4 14.6 14.4 12.332C14.4 10.64 14.04 9.092 13.212 8.12C12.204 6.788 10.692 6.32 8.388 6.32C6.228 6.32 5.976 6.572 5.94 6.968C5.868 8.228 5.76 10.928 5.76 14.636V18.524V22.52C5.76 25.292 5.868 26.66 5.904 27.452C5.976 28.208 6.228 28.352 7.2 28.496L9.144 28.712L9.036 29.144C7.776 29.144 5.796 29 4.428 29C3.276 29 1.728 29.144 0.396 29.144L0.432 28.712L2.16 28.568C3.096 28.46 3.348 28.28 3.456 27.164C3.6 25.328 3.672 21.872 3.672 18.56ZM30.5533 25.076C29.6533 27.848 27.8173 29.468 24.7573 29.468C22.2373 29.468 20.5453 28.604 19.4293 26.876C18.6733 25.688 18.2053 23.708 18.2053 21.8C18.2053 17.444 20.3653 13.412 25.0453 13.412C29.6893 13.412 30.5173 17.444 30.5173 18.992C30.5173 19.64 30.3733 20.252 29.9773 20.396C29.4013 20.576 27.3853 20.72 24.9733 20.756C23.6053 20.756 21.6253 20.756 20.3653 20.756C20.2573 23.168 20.8693 25.436 21.6253 26.552C22.4893 27.848 23.6773 28.532 25.3333 28.532C28.1773 28.532 29.3293 27.128 30.1933 24.86L30.5533 25.076ZM24.8653 13.916H24.8293C21.8413 13.916 20.6533 17.12 20.4373 20.216C21.5893 20.216 22.7413 20.216 23.8573 20.216C25.8373 20.216 27.1693 20.108 27.7813 19.964C28.3213 19.856 28.5013 19.496 28.5013 18.74C28.5013 16.688 27.7093 13.916 24.8653 13.916ZM32.0032 4.592L32.0752 4.232C33.8032 4.196 35.4592 3.98 36.3232 3.8C36.2512 5.672 36.1432 8.696 36.1432 12.332V20.72C36.1432 25.184 36.1792 27.056 36.2512 27.848C36.2872 28.568 36.6832 28.64 38.4112 28.712L38.2672 29.144C37.3312 29.108 36.2152 29 34.9912 29C33.6592 29 32.6872 29.144 32.0392 29.144V28.712C33.7672 28.64 34.0192 28.46 34.0912 27.812C34.1272 27.164 34.2712 24.14 34.2712 20.684V11.432C34.2712 6.932 34.2352 6.068 34.1992 5.168C34.1632 4.7 33.8392 4.592 32.0032 4.592ZM47.203 13.412H47.239C51.631 13.412 54.043 16.832 54.043 21.224C54.043 26.264 51.379 29.468 46.951 29.468C42.415 29.468 39.967 26.048 39.967 21.62C39.967 17.264 42.415 13.412 47.203 13.412ZM47.059 13.952H47.023C45.295 13.952 44.071 14.708 43.207 16.184C42.487 17.48 42.163 19.316 42.163 21.188C42.163 23.024 42.523 25.004 43.135 26.264C43.999 27.992 45.475 28.964 47.239 28.964C48.967 28.964 50.083 28.28 50.947 26.552C51.451 25.508 51.847 23.744 51.847 21.548C51.847 19.532 51.487 17.624 50.875 16.436C50.119 14.96 48.895 13.952 47.059 13.952Z" fill="white"/>
<path d="M66.5324 5.312L66.6764 4.916C68.5124 4.88 70.5644 4.664 71.7524 4.34C71.0684 6.104 69.7364 10.316 68.0804 16.04C66.4244 21.8 65.4524 25.076 65.0204 27.128C64.8404 27.812 64.8404 28.244 65.3444 28.244C66.1364 28.244 67.6484 26.912 68.4764 25.292L68.7644 25.652C67.6484 27.812 65.7044 29.432 63.8324 29.432C62.0324 29.432 62.3924 27.596 62.7884 26.3C63.7244 23.132 64.6604 20.072 65.8124 16.148C67.6484 9.92 68.2244 7.616 68.6564 5.888C68.7284 5.456 68.5844 5.384 68.1884 5.348L66.5324 5.312ZM83.1723 25.256L83.4603 25.616C82.8483 27.02 81.1563 29.432 78.9603 29.432C77.1603 29.432 77.5563 27.272 77.8803 25.976C77.9883 25.652 78.2043 24.788 78.3483 24.32C78.3483 24.32 78.3123 24.32 78.2763 24.32C77.1963 26.048 74.7123 29.432 71.9043 29.432C70.2843 29.432 69.7443 28.1 69.7443 26.516C69.7443 22.736 72.4083 16.688 75.7563 14.528C76.9443 13.772 77.8803 13.448 78.9243 13.448C80.1483 13.448 80.8323 13.988 81.0843 14.852L81.4083 13.772H83.7483C82.3803 17.876 80.6523 23.636 79.9323 27.02C79.7883 27.632 79.7883 28.316 80.2203 28.316C81.2643 28.316 82.5603 26.588 83.1723 25.256ZM72.2283 26.66V26.696C72.2283 27.344 72.3723 28.316 73.2003 28.316C74.7123 28.316 76.4763 26.408 78.0963 23.312C78.9603 21.728 80.5443 17.228 80.5443 15.896C80.5443 14.6 80.0763 14.024 79.1763 14.024C78.3123 14.024 77.4123 14.384 76.2963 15.824C74.1003 18.632 72.2283 23.528 72.2283 26.66ZM85.9122 14.672L86.1642 14.24C87.5322 14.132 89.6562 13.844 90.7722 13.448C90.6642 14.348 89.8722 17.48 89.2602 19.784H89.3682C91.3842 15.356 92.9322 13.448 94.7322 13.448C95.6322 13.448 96.0642 14.24 96.0642 14.816C96.0642 16.076 95.2362 16.76 94.5522 16.76C94.2282 16.76 93.9762 16.544 93.8682 16.22C93.7242 15.68 93.6162 15.464 93.2562 15.464C92.2122 15.464 90.6282 18.02 89.4402 20.864C88.5762 23.024 87.6042 25.796 86.6682 29.036C85.8042 29.072 84.7602 29.18 84.1122 29.324C85.6242 25.148 87.6042 18.56 88.0362 15.248C88.0722 14.816 87.9282 14.672 87.6042 14.672C87.1722 14.672 86.3442 14.672 85.9122 14.672ZM102.193 13.448H102.265C103.489 13.448 104.281 13.772 104.965 14.528C106.009 13.772 106.873 13.34 107.593 13.34C108.169 13.34 108.637 13.772 108.637 14.024C108.601 14.348 108.097 14.96 107.737 15.176C106.981 14.672 106.081 14.6 105.217 14.924C105.541 15.5 105.685 16.22 105.685 17.048C105.721 20.468 103.525 24.68 99.7452 24.68C98.9172 24.68 98.1252 24.464 97.5492 24.104C96.7212 24.356 96.2172 24.752 96.2172 25.508C96.2172 26.12 96.7212 26.732 97.7292 27.092C98.8092 27.452 100.393 28.064 101.941 28.604C103.597 29.18 104.893 30.296 104.893 32.24C104.893 36.02 101.545 37.748 97.9812 37.748C95.1732 37.748 91.5732 36.272 91.5732 33.248C91.5732 30.98 93.5532 29.936 95.3172 29.936C95.8572 29.936 96.3612 30.044 96.5772 30.116L96.6492 30.476C94.7772 30.296 93.2292 31.196 93.2292 33.068C93.2292 35.444 95.8572 37.064 98.6652 37.064C101.437 37.064 102.949 35.552 102.949 33.644C102.949 32.492 102.193 31.556 101.113 31.124C99.7092 30.584 98.1972 29.936 96.9732 29.468C95.5692 28.964 94.5252 28.1 94.5252 26.66C94.5252 25.22 95.6412 24.284 97.1532 23.78C96.4332 22.988 96.1812 22.124 96.1812 20.9C96.1812 17.732 98.5932 13.448 102.193 13.448ZM102.409 13.916H102.373C101.761 13.916 101.149 14.24 100.609 14.924C99.3132 16.58 98.3412 19.928 98.3412 22.052C98.3412 23.744 99.0252 24.248 99.7812 24.248C100.393 24.248 100.933 23.852 101.437 23.204C102.661 21.476 103.669 18.128 103.669 15.824C103.669 14.384 103.093 13.916 102.409 13.916ZM115.65 13.448H115.722C118.458 13.448 119.61 15.284 119.61 17.984C119.61 21.26 117.882 25.94 115.362 27.956C114.102 29 112.914 29.432 111.366 29.432C109.494 29.432 107.334 28.784 107.298 25.004C107.298 21.728 109.098 17.012 111.87 14.888C113.058 13.988 114.282 13.448 115.65 13.448ZM115.686 13.952H115.65C114.606 13.952 113.706 14.6 112.77 15.968C111.114 18.344 109.566 23.384 109.566 26.12C109.566 28.172 110.394 28.928 111.366 28.928C112.302 28.928 113.094 28.496 113.922 27.416C115.686 25.076 117.378 19.352 117.378 16.4C117.378 14.888 116.91 13.952 115.686 13.952Z" fill="white"/>
<g clip-path="url(#clip0_1814_4833)">
<mask id="mask0_1814_4833" style="mask-type:luminance" maskUnits="userSpaceOnUse" x="1" y="43" width="90" height="73">
<path d="M80.6062 43L1 56.2798L10.8972 115.609L90.5033 102.329L80.6062 43Z" fill="white"/>
</mask>
<g mask="url(#mask0_1814_4833)">
<path d="M15.4423 113.85C14.3466 107.282 14.5604 101.157 17.0304 94.8913C17.6813 93.2384 18.4895 91.6475 19.4433 90.1352C21.6395 86.636 24.5535 83.5612 27.8636 81.097C31.6578 78.2725 36.1986 76.2207 40.9138 75.6548C43.6542 75.33 46.7142 75.4226 49.1257 76.9177C50.4853 77.7498 51.4777 79.0257 52.0074 80.5258C53.9019 85.8871 49.5715 91.4044 44.1121 91.8297C41.0784 92.071 38.7336 90.1824 37.9008 87.3062C37.0036 84.2201 37.9356 80.7258 38.9584 77.7754C41.5951 70.2168 47.0321 63.7501 52.7745 58.3209C54.4891 56.6964 56.2943 55.1745 58.1783 53.7718C61.9987 50.9283 66.1531 48.4114 70.4435 46.3573C73.5773 44.8638 76.8875 43.635 80.3195 43.0478" stroke="white" stroke-width="0.826938"/>
<path d="M19.3051 107.999L15.4422 113.85L9.88916 109.57" stroke="white" stroke-width="0.826938"/>
</g>
</g>
<defs>
<clipPath id="clip0_1814_4833">
<rect width="80.7062" height="60.1488" fill="white" transform="translate(1 56.2798) rotate(-9.47077)"/>
</clipPath>
</defs>
</svg>
