<svg width="62" height="59" viewBox="0 0 62 59" fill="none" xmlns="http://www.w3.org/2000/svg">
<path d="M26.108 33.1232C26.108 31.393 27.5096 29.9899 29.2378 29.9899C30.9659 29.9899 32.3675 31.393 32.3675 33.1232C32.3675 34.8533 30.9659 36.2565 29.2378 36.2565C27.5096 36.2565 26.108 34.8533 26.108 33.1232Z" fill="#626262"/>
<path d="M24.3527 22.8922C24.3527 21.1621 25.7542 19.7589 27.4824 19.7589C29.2106 19.7589 30.6121 21.1621 30.6121 22.8922C30.6121 24.6224 29.2106 26.0255 27.4824 26.0255C25.7542 26.0255 24.3527 24.6224 24.3527 22.8922Z" fill="#626262"/>
<path d="M14.46 28.6821C14.46 26.952 15.8615 25.5488 17.5897 25.5488C19.3179 25.5488 20.7194 26.952 20.7194 28.6821C20.7194 30.4123 19.3179 31.8155 17.5897 31.8155C15.8615 31.8155 14.46 30.4123 14.46 28.6821Z" fill="#626262"/>
<path d="M40.1782 24.7177C40.6408 25.8484 40.0965 27.1426 38.9535 27.6058C37.8241 28.069 36.5313 27.524 36.0687 26.3797C35.606 25.249 36.1503 23.9548 37.2934 23.4916C38.4228 23.0284 39.7155 23.5733 40.1782 24.7177Z" fill="#626262"/>
<path d="M20.5561 17.2387C21.0188 18.3694 20.4745 19.6636 19.3314 20.1268C18.202 20.59 16.9093 20.045 16.4466 18.9007C15.984 17.77 16.5283 16.4758 17.6713 16.0126C18.8007 15.5494 20.0934 16.0943 20.5561 17.2387Z" fill="#626262"/>
<path d="M41.2804 33.7362C41.2804 34.9623 40.2871 35.9568 39.0624 35.9568C37.8377 35.9568 36.8444 34.9623 36.8444 33.7362C36.8444 32.5101 37.8377 31.5156 39.0624 31.5156C40.2871 31.5156 41.2804 32.5101 41.2804 33.7362Z" fill="#626262"/>
<path d="M36.613 15.9036C37.0756 17.0343 36.5313 18.3285 35.3883 18.7917C34.2589 19.2549 32.9662 18.71 32.5035 17.5656C32.0408 16.4349 32.5852 15.1407 33.7282 14.6775C34.8576 14.2143 36.1503 14.7593 36.613 15.9036Z" fill="#626262"/>
<path d="M28.1356 14.8138C28.1356 15.6993 27.428 16.4077 26.5435 16.4077C25.659 16.4077 24.9514 15.6993 24.9514 14.8138C24.9514 13.9282 25.6726 13.2198 26.5435 13.2198C27.4144 13.2198 28.1356 13.9282 28.1356 14.8138Z" fill="#626262"/>
<path d="M44.4646 18.0697C44.4646 18.9552 43.757 19.6636 42.8725 19.6636C41.988 19.6636 41.2804 18.9552 41.2804 18.0697C41.2804 17.1842 41.988 16.4758 42.8725 16.4758C43.757 16.4758 44.4646 17.1842 44.4646 18.0697Z" fill="#626262"/>
<path d="M47.5534 28.2734C47.5534 29.1316 46.8595 29.8264 46.0022 29.8264C45.1449 29.8264 44.4509 29.1316 44.4509 28.2734C44.4509 27.4151 45.1449 26.7203 46.0022 26.7203C46.8595 26.7203 47.5534 27.4151 47.5534 28.2734Z" fill="#626262"/>
<path d="M42.1513 11.9801C42.1513 12.8383 41.4574 13.5195 40.6001 13.5195C39.7428 13.5195 39.0488 12.8247 39.0488 11.9801C39.0488 11.1355 39.7428 10.4407 40.6001 10.4407C41.4574 10.4407 42.1513 11.1355 42.1513 11.9801Z" fill="#626262"/>
<path d="M21.8625 36.7742C22.3252 37.9049 21.7808 39.1991 20.6378 39.6623C19.5084 40.1255 18.2157 39.5806 17.753 38.4362C17.2904 37.3055 17.8347 36.0113 18.9777 35.5481C20.1071 35.0849 21.3998 35.6299 21.8625 36.7742Z" fill="#626262"/>
<path d="M37.6608 39.7169C37.6608 40.5751 36.9668 41.2699 36.1095 41.2699C35.2522 41.2699 34.5582 40.5751 34.5582 39.7169C34.5582 38.8586 35.2522 38.1638 36.1095 38.1638C36.9668 38.1638 37.6608 38.8586 37.6608 39.7169Z" fill="#626262"/>
<path d="M30.5849 49.8797C44.0699 49.8797 54.9968 38.9403 54.9968 25.4398C54.9968 11.9393 44.0699 1 30.5849 1C17.0998 1 6.17297 11.9393 6.17297 25.4398C6.17297 38.9403 17.0998 49.8797 30.5849 49.8797Z" stroke="#77B0B3" stroke-width="1.71" stroke-miterlimit="10"/>
<path d="M13.5074 42.5776L47.676 8.27466" stroke="#77B0B3" stroke-width="1.71" stroke-miterlimit="10"/>
<path d="M58.943 34.3084L58.249 33.5591C57.8 33.886 57.3781 34.4173 57.1332 35.0304C56.7386 36.0249 56.9699 36.8695 57.7455 37.1692C59.2015 37.7414 59.637 35.4118 60.331 35.6843C60.5487 35.766 60.5895 36.0112 60.467 36.3382C60.3038 36.7741 59.7867 37.3054 59.256 37.5915L59.9363 38.3408C60.5351 38.0138 61.0658 37.3872 61.3379 36.706C61.7053 35.7933 61.5693 34.8805 60.7256 34.5399C59.2424 33.9542 58.7797 36.2837 58.0993 36.0112C57.9088 35.9431 57.8816 35.7252 57.9905 35.4663C58.1265 35.1257 58.5348 34.6489 58.9566 34.3084M56.3576 39.2672C56.6842 38.695 57.419 38.5043 58.0449 38.8585C58.6708 39.2127 58.8886 39.9619 58.562 40.5341C58.2354 41.1063 57.4734 41.3106 56.8474 40.9564C56.2215 40.5886 56.031 39.8393 56.3576 39.2672ZM55.5003 38.7904C54.8199 39.9756 55.1329 41.3515 56.2487 41.9918C57.3781 42.6457 58.7253 42.237 59.4057 41.0518C60.086 39.8666 59.7595 38.4906 58.63 37.8367C57.5142 37.1964 56.1807 37.6051 55.4867 38.7904M56.3984 43.6674C56.344 43.9535 56.2215 44.226 56.0854 44.4031C55.6364 44.9752 54.8743 45.057 54.3028 44.6074C53.7313 44.1579 53.6361 43.395 54.0851 42.8364C54.3301 42.5231 54.7655 42.2779 55.1873 42.2234L54.956 41.2016C54.3573 41.3106 53.7313 41.7057 53.3095 42.2234C52.4386 43.3268 52.5475 44.7436 53.568 45.5338C54.575 46.3375 55.9766 46.1332 56.8066 45.0706C57.1876 44.5802 57.4598 43.8445 57.5006 43.2723L56.1262 42.1961L55.5139 42.9863L56.3984 43.681V43.6674ZM48.9006 47.0459L51.9487 50.261L52.7244 49.5117L50.8873 47.5909L54.1804 48.1222L54.9152 47.4274L51.8535 44.2123L51.0779 44.9616L52.9149 46.8961L49.6218 46.3512L48.887 47.0459H48.9006ZM47.5535 49.2529C48.0978 48.8714 48.8462 49.0077 49.2544 49.5935C49.6627 50.1793 49.5538 50.9422 49.0231 51.3236C48.4924 51.705 47.7032 51.5824 47.2814 50.983C46.8595 50.3836 46.9956 49.6343 47.5399 49.2393M46.9548 48.4491C45.8389 49.2393 45.5532 50.6152 46.3016 51.6642C47.05 52.7268 48.4516 52.9175 49.5674 52.1274C50.6832 51.3372 50.9554 49.9477 50.207 48.8851C49.4585 47.8361 48.0706 47.6454 46.9548 48.4491ZM41.3485 51.6914L43.3624 55.6421L44.3966 55.1108L43.6209 53.5987L45.213 52.7813L45.9886 54.2934L47.0228 53.7621L45.0089 49.8114L43.9747 50.3427L44.8048 51.9503L43.2127 52.7676L42.3826 51.1601L41.3485 51.6914ZM39.7972 53.0946L39.8789 52.6042C39.457 52.4679 38.9127 52.4543 38.4228 52.6042C37.5384 52.8494 37.0757 53.4488 37.2662 54.1163C37.7017 55.6421 39.9197 54.3615 40.2463 55.5059C40.3687 55.9146 40.0557 56.2824 39.4298 56.4595C38.9535 56.5957 38.3412 56.5276 37.8513 56.2688L37.7561 56.7592C38.2732 57.0317 38.9535 57.127 39.5659 56.9499C40.4776 56.6911 40.9811 56.0508 40.7769 55.356C40.3415 53.803 38.1099 55.0699 37.7969 53.9529C37.688 53.585 37.9874 53.2717 38.5317 53.1082C38.8719 53.0129 39.3482 52.9856 39.8108 53.1218M34.3814 53.9529C35.3612 53.8302 36.2593 54.4978 36.3817 55.465C36.5042 56.4323 35.7966 57.3178 34.8169 57.454C33.8371 57.5766 32.9254 56.8954 32.8029 55.9282C32.6805 54.961 33.4017 54.0755 34.3814 53.9529ZM34.327 53.4897C33.0479 53.6531 32.1498 54.7566 32.2995 55.9963C32.4628 57.236 33.5922 58.0807 34.8849 57.9172C36.164 57.7537 37.0621 56.6502 36.8988 55.4105C36.7355 54.1708 35.6061 53.3262 34.327 53.4897ZM29.5235 53.7349L29.4147 58.1624L31.864 58.2305V57.7673L29.9318 57.7128L30.027 53.7485H29.5235V53.7349ZM23.7403 55.8465L25.1147 53.7758L25.6998 56.2007L23.7403 55.8465ZM26.1216 57.9036L26.6659 57.9989L25.4957 53.2853L24.9786 53.19L22.2435 57.1951L22.7742 57.2905L23.4546 56.2552L25.8223 56.6775L26.1216 57.8763V57.9036ZM20.8283 52.032L19.4131 56.2279L21.7264 57.0181L21.8761 56.5821L20.0391 55.9554L21.3046 52.1955L20.8283 52.032ZM17.9571 51.2964C18.828 51.7459 19.1954 52.8085 18.76 53.6804C18.3109 54.5523 17.2359 54.8929 16.3514 54.4433C15.4669 53.9937 15.0995 52.9175 15.5486 52.0456C15.9976 51.1737 17.0862 50.8604 17.9571 51.31M18.1748 50.8877C17.0182 50.3019 15.6574 50.6969 15.0995 51.814C14.528 52.9175 14.9907 54.2662 16.1473 54.8656C17.2903 55.4514 18.6511 55.0427 19.2226 53.9256C19.7941 52.8085 19.3315 51.4735 18.1748 50.8877ZM11.9018 50.0294L13.1128 48.3265L14.0654 49.0077C14.7185 49.4709 14.8818 50.0294 14.4872 50.5743C14.079 51.1465 13.5075 51.1737 12.8543 50.7106L11.9018 50.0294ZM13.2353 53.2717L13.2625 51.4326C13.9021 51.6369 14.4872 51.4326 14.909 50.8468C15.4533 50.0703 15.2492 49.2665 14.3511 48.6262L12.9768 47.6454L10.4185 51.2555L10.8268 51.5552L11.6432 50.4108L12.5958 51.092C12.6774 51.1465 12.759 51.201 12.8407 51.2419L12.7727 52.9311L13.2489 53.2581L13.2353 53.2717ZM10.1736 45.0706L9.84703 45.4112L10.8948 46.4057L8.1597 49.2801L8.5271 49.6343L11.2622 46.7735L12.31 47.768L12.6366 47.4274L10.1736 45.0842V45.0706ZM7.56097 41.91L4.07744 44.6483L4.39041 45.0434L7.20717 42.8228L6.02332 47.1277L6.3499 47.5364L9.83342 44.7981L9.52046 44.4031L6.69009 46.6236L7.87395 42.3051L7.54736 41.8964L7.56097 41.91ZM5.6287 39.6759C6.11857 40.5341 5.84642 41.624 5.00275 42.1144C4.15908 42.6048 3.07048 42.2915 2.58061 41.4469C2.09074 40.5886 2.36289 39.4851 3.22017 38.9947C4.06384 38.5043 5.15243 38.8312 5.6423 39.6895M6.05053 39.4579C5.39737 38.3408 4.05022 37.9321 2.96162 38.5588C1.88663 39.1854 1.53283 40.5614 2.18599 41.6921C2.82555 42.8092 4.19991 43.2042 5.2749 42.5912C6.3499 41.9645 6.69009 40.5886 6.05053 39.4715M3.87333 37.4689L4.32237 37.6188C4.5401 37.0738 4.5537 36.4336 4.32237 35.875C3.84611 34.6762 2.567 34.0904 1.41036 34.5399C0.240116 35.0031 -0.304185 36.3109 0.172079 37.4962C0.403407 38.0683 0.852457 38.5315 1.39676 38.7767L1.60087 38.368C1.16543 38.1637 0.811635 37.7959 0.62113 37.3463C0.253727 36.4199 0.689164 35.3846 1.60087 35.0168C2.51257 34.6626 3.53314 35.1257 3.90054 36.0521C4.07744 36.5017 4.06383 37.033 3.87333 37.4689Z" fill="#626262"/>
</svg>
