<svg width="16" height="16" viewBox="0 0 16 16" fill="none" xmlns="http://www.w3.org/2000/svg">
<path d="M8.7999 2.39999C8.35807 2.39999 7.9999 2.75817 7.9999 3.19999C7.9999 3.64182 8.35807 3.99999 8.7999 3.99999H10.8685L5.83422 9.03431C5.5218 9.34673 5.5218 9.85326 5.83422 10.1657C6.14664 10.4781 6.65317 10.4781 6.96559 10.1657L11.9999 5.13136V7.19999C11.9999 7.64182 12.3581 7.99999 12.7999 7.99999C13.2417 7.99999 13.5999 7.64182 13.5999 7.19999V3.19999C13.5999 2.75817 13.2417 2.39999 12.7999 2.39999H8.7999Z" fill="black"/>
<path d="M3.9999 3.99999C3.11625 3.99999 2.3999 4.71634 2.3999 5.59999V12C2.3999 12.8836 3.11625 13.6 3.9999 13.6H10.3999C11.2836 13.6 11.9999 12.8836 11.9999 12V9.59999C11.9999 9.15817 11.6417 8.79999 11.1999 8.79999C10.7581 8.79999 10.3999 9.15817 10.3999 9.59999V12H3.9999V5.59999L6.3999 5.59999C6.84173 5.59999 7.1999 5.24182 7.1999 4.79999C7.1999 4.35817 6.84173 3.99999 6.3999 3.99999H3.9999Z" fill="black"/>
</svg>
