<svg width="81" height="60" viewBox="0 0 81 60" fill="none" xmlns="http://www.w3.org/2000/svg">
<path d="M41.0132 39.6623C41.0132 39.1719 41.4078 38.7632 41.8977 38.7632C42.3876 38.7632 42.7822 39.1583 42.7822 39.6623C42.7822 40.1664 42.3876 40.5614 41.8977 40.5614C41.4078 40.5614 41.0132 40.1664 41.0132 39.6623ZM38.9993 39.6623C38.9993 41.2562 40.3056 42.564 41.8977 42.564C43.4898 42.564 44.7961 41.2562 44.7961 39.6623C44.7961 38.0684 43.4898 36.7606 41.8977 36.7606C40.3056 36.7606 38.9993 38.0684 38.9993 39.6623ZM28.2629 21.9523C28.2629 22.7969 27.5826 23.4781 26.7389 23.4781C25.8952 23.4781 25.2148 22.7969 25.2148 21.9523C25.2148 21.1077 25.8952 20.4265 26.7389 20.4265C27.5826 20.4265 28.2629 21.1077 28.2629 21.9523ZM26.7389 18.4103C24.793 18.4103 23.2009 20.0042 23.2009 21.9523C23.2009 23.9004 24.7794 25.4943 26.7389 25.4943C28.6984 25.4943 30.2768 23.914 30.2768 21.9523C30.2768 19.9906 28.6984 18.4103 26.7389 18.4103ZM48.4837 11.19C48.4837 11.6805 48.0891 12.0892 47.5856 12.0892C47.0821 12.0892 46.7011 11.6941 46.7011 11.19C46.7011 10.686 47.0957 10.3045 47.5856 10.3045C48.0755 10.3045 48.4837 10.6996 48.4837 11.19ZM50.4976 11.19C50.4976 9.59615 49.1913 8.28833 47.5992 8.28833C46.0072 8.28833 44.7008 9.59615 44.7008 11.19C44.7008 12.784 46.0072 14.0918 47.5992 14.0918C49.1913 14.0918 50.4976 12.784 50.4976 11.19ZM48.6062 22.579C48.6062 22.4291 48.7287 22.3201 48.8647 22.3201C49.0008 22.3201 49.1233 22.4427 49.1233 22.579C49.1233 22.7152 49.0144 22.8378 48.8647 22.8378C48.715 22.8378 48.6062 22.7152 48.6062 22.579ZM46.6059 22.579C46.6059 23.8323 47.6264 24.854 48.8783 24.854C50.1302 24.854 51.1508 23.8323 51.1508 22.579C51.1508 21.3256 50.1302 20.3039 48.8783 20.3039C47.6264 20.3039 46.6059 21.3256 46.6059 22.579ZM34.7129 28.2734C34.7129 27.0882 35.679 26.121 36.8629 26.121C38.0467 26.121 39.0129 27.0882 39.0129 28.2734C39.0129 29.4586 38.0467 30.4259 36.8629 30.4259C35.679 30.4259 34.7129 29.4586 34.7129 28.2734ZM32.699 28.2734C32.699 30.5757 34.5632 32.4421 36.8629 32.4421C39.1626 32.4421 41.0268 30.5757 41.0268 28.2734C41.0268 25.9711 39.1626 24.1047 36.8629 24.1047C34.5632 24.1047 32.699 25.9711 32.699 28.2734ZM29.1202 30.8209C28.4807 30.1943 27.8683 29.6085 27.9227 29.0091C27.9772 28.4641 28.5215 27.5105 30.862 25.9711C32.9984 24.5679 34.087 23.1784 34.1822 21.7207C34.3183 19.8271 32.8351 18.5465 31.624 17.4975C31.4335 17.3341 31.0525 17.0071 30.8212 16.7755C31.4335 16.4622 31.9097 16.326 32.2908 16.326C32.6718 16.326 32.9439 16.4758 33.3385 16.6802C34.0189 17.0344 34.9442 17.5248 36.4955 17.1706C38.5774 16.7074 39.0537 15.386 39.3531 14.5005C39.5844 13.8602 39.6933 13.6422 40.0471 13.4924C40.8635 13.1654 41.1901 13.0973 41.4622 13.2199C41.9385 13.4379 42.7277 14.4051 43.8299 17.77C44.1565 18.7509 44.7144 20.0723 45.9527 20.2358C47.4768 20.4401 48.5654 18.7781 49.8173 16.8436L49.8717 16.7619C50.2527 16.1625 51.4093 14.3915 51.8448 14.228C53.1511 14.841 53.0831 20.3175 53.0559 23.2874V23.3555C53.0559 23.9821 53.0423 24.5952 53.0423 25.1673C53.0423 26.625 52.4571 26.843 50.6473 27.1154C49.3954 27.3062 47.504 27.5923 47.2999 29.6221C47.0958 31.6519 48.8511 32.769 50.1302 33.5864C51.491 34.4583 51.804 34.7716 51.6679 35.1531C51.6543 35.2076 51.6135 35.3165 51.3821 35.4255C50.0622 36.0113 46.1432 35.0577 41.4214 33.0142C38.2372 31.6383 36.8901 34.4447 35.992 36.2974C35.0667 38.2183 34.5224 39.1038 33.461 38.9812C31.7601 38.7632 30.4946 38.0139 29.9911 36.9105C29.6373 36.1339 29.7189 35.2757 30.236 34.4992C31.2702 32.9189 29.9231 31.6247 29.1202 30.8482M52.4979 12.3344C50.7698 11.7077 49.5179 13.6558 48.1708 15.7129C47.191 17.2251 46.5378 18.0697 46.2521 18.2332C46.1704 18.1378 45.9799 17.8654 45.7486 17.1706C44.6192 13.7376 43.5986 12.0211 42.3195 11.4216C41.1765 10.8903 40.1015 11.3399 39.2986 11.6532C38.074 12.1573 37.7202 13.1382 37.4616 13.8602C37.1895 14.6231 37.0534 15.0181 36.0464 15.2361C35.2028 15.4268 34.8218 15.2361 34.2639 14.9228C33.3522 14.446 32.2091 13.8466 29.8414 15.0454C29.1338 15.4132 28.7256 15.89 28.6576 16.4894C28.5351 17.5112 29.3924 18.2604 30.3177 19.0642C31.2158 19.8543 32.2363 20.7398 32.1683 21.6253C32.1139 22.4019 31.2838 23.3282 29.7462 24.3363C27.2696 25.9575 26.0449 27.4015 25.9088 28.8728C25.7592 30.4259 26.8886 31.5157 27.7186 32.3195C28.6712 33.2322 28.6031 33.3276 28.5487 33.4093C27.6506 34.7716 27.5009 36.3519 28.1541 37.7687C28.9569 39.5125 30.7939 40.6977 33.2025 40.9974C33.3658 41.011 33.5154 41.0246 33.6787 41.0246C35.9512 41.0246 37.0126 38.8177 37.8018 37.1965C38.9857 34.7308 39.4347 34.3629 40.6186 34.8806C44.5375 36.5835 49.722 38.3817 52.1986 37.2919C52.8789 36.9922 53.3416 36.4881 53.5729 35.8342C54.2533 33.8589 52.4979 32.7418 51.2188 31.9108C49.8445 31.0253 49.2321 30.5212 49.3002 29.8264C49.3274 29.4995 49.409 29.336 50.9467 29.1044C52.4843 28.8728 55.0426 28.4778 55.0426 25.1673C55.0426 24.6088 55.0426 24.0094 55.0562 23.3827V23.3146C55.1242 18.3967 55.1786 13.3153 52.4843 12.3208" fill="#626262"/>
<path d="M40.047 49.8797C53.5321 49.8797 64.459 38.9403 64.459 25.4398C64.459 11.9393 53.5321 1 40.047 1C26.562 1 15.6351 11.9393 15.6351 25.4398C15.6351 38.9403 26.562 49.8797 40.047 49.8797Z" stroke="#77B0B3" stroke-width="1.71" stroke-miterlimit="10"/>
<path d="M22.9559 42.5776L57.1381 8.27466" stroke="#77B0B3" stroke-width="1.71" stroke-miterlimit="10"/>
<g opacity="0.75">
<mask id="mask0_3072_2080" style="mask-type:luminance" maskUnits="userSpaceOnUse" x="0" y="30" width="81" height="30">
<path d="M80.2572 30.0171H0V59.552H80.2572V30.0171Z" fill="white"/>
</mask>
<g mask="url(#mask0_3072_2080)">
<path d="M64.6358 41.2289C64.9895 40.6703 65.738 40.5205 66.3503 40.9019C66.9627 41.2834 67.1395 42.0463 66.7857 42.6048C66.4319 43.1634 65.6563 43.3268 65.0576 42.9454C64.4453 42.5503 64.2956 41.7874 64.6494 41.2289M63.8193 40.7112C63.0845 41.8692 63.3294 43.2451 64.418 43.9399C65.5066 44.6483 66.881 44.3077 67.6158 43.1497C68.3506 41.9918 68.0921 40.6022 67.0035 39.9074C65.9285 39.2127 64.5677 39.5532 63.8193 40.7112ZM59.8187 45.8063L63.1661 48.708L63.9282 47.8361L62.6491 46.719L63.8193 45.3703L65.0984 46.4874L65.8604 45.6155L62.513 42.7138L61.751 43.5857L63.1117 44.7709L61.9415 46.1196L60.5807 44.9344L59.8187 45.8063ZM58.6484 47.9996C59.1655 47.5909 59.9275 47.6862 60.363 48.2584C60.812 48.8306 60.7304 49.5935 60.2133 50.0022C59.6962 50.4109 58.907 50.3155 58.4579 49.7569C58.0089 49.1848 58.1178 48.4219 58.6348 48.0132M58.0225 47.2503C56.9475 48.0949 56.7298 49.4845 57.519 50.4926C58.3219 51.5143 59.7234 51.6506 60.7984 50.8059C61.8734 49.9613 62.0775 48.5581 61.2747 47.5364C60.4855 46.5283 59.0839 46.4057 58.0089 47.2503M51.9399 51.2282L54.1444 55.07L55.0425 54.5523L53.6409 52.1137L55.7092 53.6532L56.3624 53.2717L56.0766 50.7106L57.4782 53.1491L58.3627 52.6314L56.1583 48.7897L55.0561 49.4164L55.3282 52.25L53.0149 50.588L51.9263 51.2146L51.9399 51.2282ZM48.3612 52.4952L49.7763 56.6911L52.0896 55.901L51.9399 55.465L50.1029 56.0917L48.8374 52.3317L48.3612 52.4952ZM44.5919 53.4216L45.5852 57.7401L48.5925 57.0453L48.4836 56.5957L45.9662 57.1815L45.6124 55.683L47.7896 55.1789L47.6808 54.7294L45.5036 55.2334L45.1634 53.7894L47.5991 53.2308L47.4903 52.7813L44.5646 53.4624L44.5919 53.4216ZM39.4618 56.5685L40.4007 54.2662L41.4621 56.514L39.4618 56.5685ZM42.1969 58.0943H42.7412L40.6457 53.7076H40.1286L38.2508 58.2033H38.7951L39.2577 57.0453L41.6663 56.9772L42.1969 58.0943ZM35.8422 53.4079L35.2843 57.7946L37.7065 58.1079L37.7609 57.6447L35.8422 57.3995L36.3457 53.4761L35.8422 53.4079ZM32.8894 53.2717C33.8419 53.5442 34.3998 54.5114 34.1413 55.4514C33.8691 56.3914 32.8758 56.9363 31.9369 56.6639C30.9843 56.3914 30.4128 55.4105 30.685 54.4705C30.9571 53.5305 31.9505 52.9992 32.903 53.2717M33.0255 52.8221C31.7736 52.4679 30.5217 53.1355 30.1815 54.3343C29.8413 55.5331 30.5625 56.7592 31.8008 57.1134C33.0391 57.4676 34.291 56.8001 34.6311 55.6013C34.9713 54.4024 34.2501 53.1763 33.0119 52.8221M26.6844 53.2308L27.5416 51.3236L28.6166 51.814C29.3514 52.141 29.6236 52.6587 29.3378 53.2717C29.0521 53.912 28.4942 54.0482 27.7594 53.7213L26.6844 53.2308ZM28.6166 56.1598L28.29 54.3479C28.9568 54.4297 29.4875 54.1163 29.7869 53.4624C30.1679 52.6042 29.8141 51.8413 28.8071 51.3917L27.2695 50.6969L25.4461 54.7294L25.9087 54.9337L26.4802 53.6532L27.5552 54.1436C27.6505 54.1845 27.7321 54.2253 27.8138 54.2526L28.0723 55.9282L28.5894 56.1598H28.6166ZM24.0173 48.7352L23.7587 49.1303L24.9698 49.9068L22.8334 53.2445L23.2553 53.5169L25.3916 50.1793L26.6163 50.9558L26.8613 50.5607L24.0037 48.7216L24.0173 48.7352ZM20.6834 46.1605L17.9483 49.648L18.3429 49.9613L20.561 47.1413L20.4249 51.6097L20.8331 51.9366L23.5682 48.4491L23.1736 48.1358L20.9556 50.9694L21.0917 46.501L20.6834 46.1741V46.1605ZM18.4654 44.3622C19.105 45.1115 19.0505 46.2286 18.3157 46.8689C17.5809 47.5091 16.4515 47.4138 15.7983 46.6781C15.1588 45.9289 15.2132 44.7845 15.948 44.1442C16.6828 43.5039 17.8122 43.6129 18.4654 44.3622ZM18.8192 44.0625C17.9755 43.0816 16.5603 42.9454 15.6214 43.7628C14.6825 44.5802 14.6009 45.997 15.4581 46.9778C16.3018 47.9587 17.717 48.0813 18.6559 47.2639C19.5948 46.4465 19.6629 45.0297 18.8192 44.0489M16.261 42.5231L16.7372 42.5776C16.8461 42.0054 16.7372 41.3787 16.4107 40.8611C15.7167 39.7848 14.3423 39.4443 13.2945 40.1118C12.2468 40.793 11.961 42.1689 12.6414 43.2451C12.968 43.7628 13.5123 44.117 14.0974 44.2668L14.2062 43.8309C13.7436 43.7219 13.3218 43.4222 13.0496 43.0135C12.5053 42.1689 12.7366 41.0654 13.5667 40.5477C14.3968 40.0164 15.4854 40.2753 16.016 41.1199C16.2746 41.5286 16.3562 42.0463 16.261 42.5231Z" fill="#626262"/>
</g>
</g>
</svg>
