<svg xmlns="http://www.w3.org/2000/svg" xmlns:xlink="http://www.w3.org/1999/xlink" viewBox="0 0 45.35 45.35"><defs><style>.cls-1,.cls-4,.cls-5{fill:none;}.cls-2{clip-path:url(#clip-path);}.cls-3{fill:#fff;}.cls-4{stroke:#575756;stroke-width:0.2px;}.cls-4,.cls-5{stroke-miterlimit:10;}.cls-5{stroke:#706f6f;stroke-width:0.4px;}</style><clipPath id="clip-path" transform="translate(0 0)"><rect class="cls-1" width="45.35" height="45.35"/></clipPath></defs><g id="Capa_2" data-name="Capa 2"><g id="Capa_1-2" data-name="Capa 1"><g class="cls-2"><path class="cls-3" d="M.1,22.68A22.58,22.58,0,1,1,22.68,45.25,22.58,22.58,0,0,1,.1,22.68" transform="translate(0 0)"/><path class="cls-4" d="M.1,22.68A22.58,22.58,0,1,1,22.68,45.25,22.58,22.58,0,0,1,.1,22.68Z" transform="translate(0 0)"/></g><polygon points="31.57 29.59 33.08 32.35 30.06 32.35 31.57 29.59"/><g class="cls-2"><path class="cls-5" d="M37.73,28.37c1.18,0,2.13-.72,2.13-1.61s-1-1.6-2.13-1.6H35.14v3.21Z" transform="translate(0 0)"/><path d="M7.62,25a2.12,2.12,0,0,0-2.33,1.8,2.12,2.12,0,0,0,2.33,1.81h2.79V25Z" transform="translate(0 0)"/></g><rect x="11.22" y="24.96" width="5.13" height="3.62"/><rect x="17.15" y="24.96" width="5.13" height="3.62"/><rect x="23.08" y="24.96" width="5.13" height="3.62"/><rect x="29.01" y="24.96" width="5.13" height="3.62"/><path d="M14,19.66a1.63,1.63,0,0,1-.51,1.1,1.72,1.72,0,0,1-1.16.38,1.61,1.61,0,0,1-.9-.26,1.56,1.56,0,0,1-.6-.71,2.75,2.75,0,0,1-.22-1.06v-.59a2.45,2.45,0,0,1,.22-1.08,1.6,1.6,0,0,1,.61-.72,1.64,1.64,0,0,1,.91-.26,1.6,1.6,0,0,1,1.16.4A1.66,1.66,0,0,1,14,18h-.39a1.15,1.15,0,0,0-1.26-1.16,1.17,1.17,0,0,0-1,.46A2,2,0,0,0,11,18.53v.56a2,2,0,0,0,.36,1.25,1.14,1.14,0,0,0,1,.47,1.22,1.22,0,0,0,.9-.29,1.35,1.35,0,0,0,.38-.86Z" transform="translate(0 0)"/><path d="M17.42,19.8H15.36l-.47,1.28h-.41l1.72-4.55h.37l1.72,4.55h-.4Zm-2-.33H17.3L16.39,17Z" transform="translate(0 0)"/><path d="M19.35,20.75H21.6v.33H19V16.53h.39Z" transform="translate(0 0)"/><path d="M22.8,21.08h-.38V16.53h.38Z" transform="translate(0 0)"/><path d="M24,21.08V16.53h1.27a2,2,0,0,1,1,.25,1.68,1.68,0,0,1,.69.73,2.26,2.26,0,0,1,.25,1.08V19A2.32,2.32,0,0,1,27,20.09a1.76,1.76,0,0,1-.7.73,2,2,0,0,1-1,.26Zm.38-4.23v3.9h.86a1.49,1.49,0,0,0,1.16-.48A1.81,1.81,0,0,0,26.87,19v-.4a1.76,1.76,0,0,0-.43-1.25,1.43,1.43,0,0,0-1.13-.48Z" transform="translate(0 0)"/><path d="M30.74,18.89H28.61v1.86h2.45v.33H28.23V16.53H31v.32H28.61v1.72h2.13Z" transform="translate(0 0)"/><path d="M32,20.75h2.81v.33H31.57v-.3l2.7-3.93H31.66v-.32h3.09v.27Z" transform="translate(0 0)"/></g></g></svg>