<svg xmlns="http://www.w3.org/2000/svg" xmlns:xlink="http://www.w3.org/1999/xlink" viewBox="0 0 45.35 45.35"><defs><style>.cls-1,.cls-4{fill:none;}.cls-2{clip-path:url(#clip-path);}.cls-3{fill:#fff;}.cls-4{stroke:#575756;stroke-miterlimit:10;stroke-width:0.2px;}</style><clipPath id="clip-path" transform="translate(0 0)"><rect class="cls-1" width="45.35" height="45.35"/></clipPath></defs><g id="Capa_2" data-name="Capa 2"><g id="Capa_1-2" data-name="Capa 1"><g class="cls-2"><path class="cls-3" d="M22.68,45.25A22.58,22.58,0,1,0,.1,22.68,22.57,22.57,0,0,0,22.68,45.25" transform="translate(0 0)"/><path class="cls-4" d="M22.68,45.25A22.58,22.58,0,1,0,.1,22.68,22.57,22.57,0,0,0,22.68,45.25Z" transform="translate(0 0)"/></g><path d="M9.06,13.32V8.77H10.4a1.75,1.75,0,0,1,1.11.3,1.09,1.09,0,0,1,.38.89,1,1,0,0,1-.19.62,1.07,1.07,0,0,1-.53.37,1.12,1.12,0,0,1,.64.39,1.1,1.1,0,0,1,.24.7,1.17,1.17,0,0,1-.39.94,1.57,1.57,0,0,1-1.08.34Zm.38-2.51h1.05a1.2,1.2,0,0,0,.75-.22A.81.81,0,0,0,11.5,10a.74.74,0,0,0-.27-.64,1.35,1.35,0,0,0-.83-.21h-1Zm0,.33V13h1.15a1.2,1.2,0,0,0,.79-.25.89.89,0,0,0,.29-.7.85.85,0,0,0-.28-.67,1.12,1.12,0,0,0-.76-.24Z" transform="translate(0 0)"/><path d="M16.34,11.29a2.59,2.59,0,0,1-.22,1.11,1.65,1.65,0,0,1-.62.73,1.68,1.68,0,0,1-.93.25,1.59,1.59,0,0,1-1.28-.57,2.25,2.25,0,0,1-.5-1.53v-.47A2.62,2.62,0,0,1,13,9.7,1.65,1.65,0,0,1,13.64,9a1.71,1.71,0,0,1,.93-.26,1.65,1.65,0,0,1,.92.25,1.62,1.62,0,0,1,.62.72,2.41,2.41,0,0,1,.23,1.07ZM16,10.8a2.06,2.06,0,0,0-.37-1.29,1.24,1.24,0,0,0-1-.46,1.22,1.22,0,0,0-1,.46,2,2,0,0,0-.38,1.31v.47a2,2,0,0,0,.37,1.29,1.24,1.24,0,0,0,1,.47,1.22,1.22,0,0,0,1-.47,2,2,0,0,0,.37-1.3Z" transform="translate(0 0)"/><path d="M19,11.43H17.69v1.89H17.3V8.77h1.48a1.74,1.74,0,0,1,1.14.35,1.26,1.26,0,0,1,.41,1,1.27,1.27,0,0,1-.95,1.23l1.14,1.94v0h-.41Zm-1.32-.33h1.18a1,1,0,0,0,.77-.28.91.91,0,0,0,.3-.71.93.93,0,0,0-.31-.75,1.3,1.3,0,0,0-.86-.26H17.69Z" transform="translate(0 0)"/><path d="M23.07,11.43H21.75v1.89h-.39V8.77h1.48A1.71,1.71,0,0,1,24,9.12a1.26,1.26,0,0,1,.41,1,1.28,1.28,0,0,1-.94,1.23l1.13,1.94v0h-.41Zm-1.32-.33h1.18a1.08,1.08,0,0,0,.78-.28.94.94,0,0,0,.29-.71,1,1,0,0,0-.3-.75,1.34,1.34,0,0,0-.86-.26H21.75Z" transform="translate(0 0)"/><path d="M28,11.14H25.82V13h2.45v.32H25.44V8.77h2.81V9.1H25.82v1.72H28Z" transform="translate(0 0)"/><path d="M32.36,12.78a1.29,1.29,0,0,1-.63.45,2.83,2.83,0,0,1-.95.15,1.77,1.77,0,0,1-1-.25,1.63,1.63,0,0,1-.64-.73A2.44,2.44,0,0,1,29,11.33v-.58a2.17,2.17,0,0,1,.48-1.49,1.62,1.62,0,0,1,1.29-.55,1.72,1.72,0,0,1,1.13.36,1.51,1.51,0,0,1,.51,1H32a1.16,1.16,0,0,0-.41-.76A1.3,1.3,0,0,0,30.72,9a1.25,1.25,0,0,0-1,.46,2,2,0,0,0-.37,1.28v.54a2.34,2.34,0,0,0,.17.91,1.37,1.37,0,0,0,.51.62,1.31,1.31,0,0,0,.76.22,2,2,0,0,0,.85-.16,1,1,0,0,0,.35-.24V11.49H30.75v-.33h1.61Z" transform="translate(0 0)"/><path d="M35.91,12H33.84l-.47,1.28H33l1.72-4.55h.37l1.72,4.55h-.4ZM34,11.72h1.83l-.92-2.48Z" transform="translate(0 0)"/><path d="M9.46,19v1.54H8.36V16h1.81a2.27,2.27,0,0,1,.93.19,1.44,1.44,0,0,1,.62.55,1.49,1.49,0,0,1,.22.81,1.32,1.32,0,0,1-.48,1.06,2,2,0,0,1-1.3.4Zm0-.85h.71a.66.66,0,0,0,.49-.16.6.6,0,0,0,.17-.45.77.77,0,0,0-.17-.51.61.61,0,0,0-.47-.19H9.46Z" transform="translate(0 0)"/><path d="M14.21,18.91h-.59v1.61h-1.1V16h1.8a2,2,0,0,1,1.26.36,1.23,1.23,0,0,1,.46,1,1.47,1.47,0,0,1-.2.79,1.28,1.28,0,0,1-.6.51l1,1.83v.05H15Zm-.59-.84h.7A.66.66,0,0,0,14.78,17a.6.6,0,0,0-.46-.16h-.7Z" transform="translate(0 0)"/><path d="M19.52,18.59H17.8v1.09h2v.84H16.7V16h3.14v.85h-2v1h1.72Z" transform="translate(0 0)"/><path d="M21.72,16l1,3.17,1-3.17h1.44v4.55h-1.1V19.46l.11-2.18-1.1,3.24h-.73l-1.1-3.24.11,2.18v1.06h-1.1V16Z" transform="translate(0 0)"/><path d="M27.06,20.52H26V16h1.1Z" transform="translate(0 0)"/><path d="M31.39,16v3a1.67,1.67,0,0,1-.22.88,1.44,1.44,0,0,1-.61.56,2.19,2.19,0,0,1-1,.19,1.88,1.88,0,0,1-1.31-.43A1.49,1.49,0,0,1,27.81,19V16h1.1v3q0,.75.69.75a.67.67,0,0,0,.52-.19.91.91,0,0,0,.17-.61V16Z" transform="translate(0 0)"/><path d="M33.51,16l1,3.17,1-3.17H37v4.55h-1.1V19.46l.1-2.18-1.1,3.24h-.72l-1.11-3.24.11,2.18v1.06h-1.1V16Z" transform="translate(0 0)"/><g class="cls-2"><path d="M31.53,33a2.32,2.32,0,0,0-.47-1.52.63.63,0,0,1,.06-1,2.13,2.13,0,0,0,.66-1.71,2.24,2.24,0,0,0-2-2.14c-.48-.07-.59-.16-.71-.63a2.26,2.26,0,0,0-3.42-1.36.63.63,0,0,1-1-.24,2.26,2.26,0,0,0-3.91,0,.63.63,0,0,1-1,.24,2.29,2.29,0,0,0-1.16-.36A2.26,2.26,0,0,0,16.27,26a.61.61,0,0,1-.63.56,2.18,2.18,0,0,0-1.94,1.51,2.14,2.14,0,0,0,.57,2.38.64.64,0,0,1,0,1,2.24,2.24,0,0,0,.58,3.31.65.65,0,0,1,.31,1A2.21,2.21,0,0,0,15.07,37a2.26,2.26,0,0,0,2.5,1.78.61.61,0,0,1,.75.59,2.19,2.19,0,0,0,1.49,1.91,2.15,2.15,0,0,0,2.34-.49.65.65,0,0,1,1.05,0,2.15,2.15,0,0,0,1.66.64,2.27,2.27,0,0,0,2.17-2,.62.62,0,0,1,.77-.61,2.25,2.25,0,0,0,2.35-3.11.64.64,0,0,1,.3-.93A2.19,2.19,0,0,0,31.53,33m-6.31,9.69h-.85l0,0a3.74,3.74,0,0,1-1.6-.62s-.13,0-.19,0c-.35.16-.69.34-1.05.49a4.37,4.37,0,0,1-.52.12h-.81a.35.35,0,0,0-.11,0,3.39,3.39,0,0,1-2.74-2.24.51.51,0,0,0-.49-.39,3.46,3.46,0,0,1-2.94-4.21.31.31,0,0,0-.1-.35,3.37,3.37,0,0,1-1.11-3.32,8.42,8.42,0,0,1,.4-1.16,3.34,3.34,0,0,1-.63-1.28c0-.14-.07-.27-.1-.41v-.88a.32.32,0,0,0,0-.09A3.51,3.51,0,0,1,15,25.43a.3.3,0,0,0,.26-.21,3.47,3.47,0,0,1,4.52-2,.24.24,0,0,0,.31-.07,3.46,3.46,0,0,1,5.22,0,.22.22,0,0,0,.29.06A3.24,3.24,0,0,1,27.32,23a3.42,3.42,0,0,1,2.82,2.23.31.31,0,0,0,.18.16,3.48,3.48,0,0,1,2,5.44.21.21,0,0,0,0,.28,3.19,3.19,0,0,1,.43,1.57,3.41,3.41,0,0,1-1.22,2.74.24.24,0,0,0-.09.27,3.21,3.21,0,0,1,.1.62A3.49,3.49,0,0,1,28.34,40a.24.24,0,0,0-.25.19,3.43,3.43,0,0,1-2.45,2.34l-.42.1" transform="translate(0 0)"/><path d="M18.1,28.25a2.76,2.76,0,0,0-2.23.51c-.13.1-.14.23,0,.32a3,3,0,0,0,1.73.57.14.14,0,0,0,.11-.07c.14-.44.27-.88.4-1.33m9.14,0c.13.43.27.84.39,1.26,0,.13.08.15.2.15a3.11,3.11,0,0,0,1.58-.53c.23-.15.23-.27,0-.42a2.8,2.8,0,0,0-2.17-.46m-4,9.91c.18-.07.34-.11.49-.18a2.3,2.3,0,0,0,1.13-1.59,7,7,0,0,1,.5-1.34,9.23,9.23,0,0,0,1.12-4,4.56,4.56,0,0,0-.37-2.12c-.07-.14-.13-.18-.31-.13a3.63,3.63,0,0,1-3.06-.34.26.26,0,0,0-.21,0,3.63,3.63,0,0,1-3.08.33c-.15,0-.22,0-.28.12A4.55,4.55,0,0,0,18.82,31,9.15,9.15,0,0,0,20,35a7.39,7.39,0,0,1,.47,1.21,3.62,3.62,0,0,0,.47,1.15,1.9,1.9,0,0,0,1.18.74c0-.33,0-.63,0-.94,0-.05-.06-.11-.11-.14s-.34-.21-.49-.34a.6.6,0,0,1-.06-.85.61.61,0,0,1,.85-.07c.35.27.5.27.84,0a.61.61,0,0,1,.86.06.6.6,0,0,1-.06.85c-.14.13-.33.22-.49.34s-.11.09-.11.13c0,.31,0,.62,0,1m4.51-7.28c-.09.68-.16,1.33-.28,2a8.44,8.44,0,0,1-.92,2.53A6.89,6.89,0,0,0,26,36.89a3.17,3.17,0,0,1-2.57,2.46,3.35,3.35,0,0,1-4.15-2.58,6.09,6.09,0,0,0-.54-1.38,9.56,9.56,0,0,1-1.09-3.57c0-.31-.05-.62-.08-.92-.27,0-.54-.06-.81-.11a4.06,4.06,0,0,1-1.63-.72,1.39,1.39,0,0,1,0-2.3,4,4,0,0,1,4.06-.43,3.77,3.77,0,0,0,1.47.38,2.31,2.31,0,0,0,1.49-.52.65.65,0,0,1,1,0,2.47,2.47,0,0,0,2.68.27A4.92,4.92,0,0,1,27.25,27a3.91,3.91,0,0,1,3.07.86,1.39,1.39,0,0,1-.13,2.2,4.1,4.1,0,0,1-2.32.79h-.08" transform="translate(0 0)"/><path d="M20.55,32.76a.62.62,0,0,1-.61-.6.62.62,0,0,1,1.23,0,.61.61,0,0,1-.62.6" transform="translate(0 0)"/><path d="M24.8,32.76a.61.61,0,0,1-.62-.6.62.62,0,0,1,1.23,0,.61.61,0,0,1-.61.6" transform="translate(0 0)"/></g></g></g></svg>