<svg width="24" height="25" viewBox="0 0 24 25" fill="none" xmlns="http://www.w3.org/2000/svg">
<g id="Shopping cart">
<path id="Icon" d="M3 3.7395H5L5.4 5.7395M7 13.7395H17L21 5.7395H5.4M7 13.7395L5.4 5.7395M7 13.7395L4.70711 16.0324C4.07714 16.6624 4.52331 17.7395 5.41421 17.7395H17M17 17.7395C15.8954 17.7395 15 18.6349 15 19.7395C15 20.8441 15.8954 21.7395 17 21.7395C18.1046 21.7395 19 20.8441 19 19.7395C19 18.6349 18.1046 17.7395 17 17.7395ZM9 19.7395C9 20.8441 8.10457 21.7395 7 21.7395C5.89543 21.7395 5 20.8441 5 19.7395C5 18.6349 5.89543 17.7395 7 17.7395C8.10457 17.7395 9 18.6349 9 19.7395Z" stroke="#292929" stroke-width="2" stroke-linecap="round" stroke-linejoin="round"/>
</g>
</svg>
