<svg width="102" height="98" viewBox="0 0 102 98" fill="none" xmlns="http://www.w3.org/2000/svg">
<path d="M101.111 52.3392C101.06 53.8196 99.9537 55.0191 98.5648 55.2488C95.5298 79.2914 74.7994 97.6934 50.0308 97.6934C23.0761 97.719 1.11108 75.9479 1.11108 49.1744C1.11108 22.4009 23.0761 0.629822 50.0308 0.629822C71.2757 0.629822 90.2057 14.4377 96.6358 34.3966L98.5648 30.3385C98.7191 30.0067 99.1306 29.8791 99.4393 30.0322C99.6708 30.1343 99.8251 30.3895 99.8251 30.6192C99.8251 30.7213 99.8251 30.7979 99.7736 30.9L96.9444 36.7703C96.7901 37.1276 96.3529 37.2552 96.0185 37.051L90.3343 33.8351C90.0257 33.6565 89.8971 33.2481 90.1029 32.9418C90.2829 32.6355 90.6687 32.5079 91.0031 32.7121L95.1183 35.0347C88.9455 15.6628 70.607 2.26329 50.0308 2.26329C23.9763 2.26329 2.75717 23.3197 2.75717 49.1744C2.75717 75.0291 23.9763 96.0855 50.0308 96.0855C73.9506 96.0855 93.9866 78.3216 96.9187 55.1212C95.7099 54.6618 94.8611 53.4878 94.9125 52.135C94.964 50.4505 96.4043 49.1233 98.1018 49.1744C99.7994 49.2254 101.137 50.6547 101.085 52.3648" fill="#222221"/>
<path d="M101.111 52.3392C101.06 53.8196 99.9537 55.0191 98.5648 55.2488C95.5298 79.2914 74.7994 97.6934 50.0308 97.6934C23.0761 97.719 1.11108 75.9479 1.11108 49.1744C1.11108 22.4009 23.0761 0.629822 50.0308 0.629822C71.2757 0.629822 90.2057 14.4377 96.6358 34.3966L98.5648 30.3385C98.7191 30.0067 99.1306 29.8791 99.4393 30.0322C99.6708 30.1343 99.8251 30.3895 99.8251 30.6192C99.8251 30.7213 99.8251 30.7979 99.7736 30.9L96.9444 36.7703C96.7901 37.1276 96.3529 37.2552 96.0185 37.051L90.3343 33.8351C90.0257 33.6565 89.8971 33.2481 90.1029 32.9418C90.2829 32.6355 90.6687 32.5079 91.0031 32.7121L95.1183 35.0347C88.9455 15.6628 70.607 2.26329 50.0308 2.26329C23.9763 2.26329 2.75717 23.3197 2.75717 49.1744C2.75717 75.0291 23.9763 96.0855 50.0308 96.0855C73.9506 96.0855 93.9866 78.3216 96.9187 55.1212C95.7099 54.6618 94.8611 53.4878 94.9125 52.135C94.964 50.4505 96.4043 49.1233 98.1018 49.1744C99.7994 49.2254 101.137 50.6547 101.085 52.3648L101.111 52.3392Z" stroke="#222221" stroke-width="0.31" stroke-miterlimit="10"/>
<path d="M50.0309 88.888C28.2459 88.888 10.4476 71.5069 10.0361 49.9911H22.5618C28.426 49.9911 34.0073 52.9263 37.4795 57.8777C40.3344 61.9358 45.0412 64.386 50.0309 64.386C55.0206 64.386 59.7274 61.9614 62.5824 57.8777C66.0546 52.9518 71.6359 49.9911 77.5001 49.9911H90.0258C89.5886 71.5069 71.8159 88.888 50.0309 88.888ZM50.0309 9.46074C71.8159 9.46074 89.6143 26.8418 90.0258 48.3577H77.5001C71.0957 48.3577 65.0001 51.5735 61.2192 56.9334C58.6729 60.5576 54.4805 62.727 50.0052 62.727C45.5299 62.727 41.3632 60.5576 38.7912 56.9334C35.0104 51.5735 28.9147 48.3577 22.5103 48.3577H10.0361C10.4733 26.8418 28.2459 9.46074 50.0309 9.46074ZM50.0309 7.82727C27.0628 7.82727 8.36426 26.3824 8.36426 49.1744C8.36426 71.9663 27.0628 90.5215 50.0309 90.5215C72.999 90.5215 91.6976 71.9663 91.6976 49.1744C91.6976 26.3824 73.0248 7.82727 50.0309 7.82727Z" fill="#222221"/>
<path d="M50.0309 88.888C28.2459 88.888 10.4476 71.5069 10.0361 49.9911H22.5618C28.426 49.9911 34.0073 52.9263 37.4795 57.8777C40.3344 61.9358 45.0412 64.386 50.0309 64.386C55.0206 64.386 59.7274 61.9614 62.5824 57.8777C66.0546 52.9518 71.6359 49.9911 77.5001 49.9911H90.0258C89.5886 71.5069 71.8159 88.888 50.0309 88.888ZM50.0309 9.46074C71.8159 9.46074 89.6143 26.8418 90.0258 48.3577H77.5001C71.0957 48.3577 65.0001 51.5735 61.2192 56.9334C58.6729 60.5576 54.4805 62.727 50.0052 62.727C45.5299 62.727 41.3632 60.5576 38.7912 56.9334C35.0104 51.5735 28.9147 48.3577 22.5103 48.3577H10.0361C10.4733 26.8418 28.2459 9.46074 50.0309 9.46074ZM50.0309 7.82727C27.0628 7.82727 8.36426 26.3824 8.36426 49.1744C8.36426 71.9663 27.0628 90.5215 50.0309 90.5215C72.999 90.5215 91.6976 71.9663 91.6976 49.1744C91.6976 26.3824 73.0248 7.82727 50.0309 7.82727Z" stroke="#222221" stroke-width="0.31" stroke-miterlimit="10"/>
<path d="M54.1974 32.3803L50.5966 35.9535C50.5966 35.9535 50.4165 36.1067 50.3394 36.1322C50.2365 36.1832 50.1336 36.1832 50.0307 36.1832C49.9278 36.1832 49.825 36.1832 49.7221 36.1322C49.6192 36.1067 49.542 36.0301 49.4649 35.9535L45.864 32.3803C45.5554 32.0741 45.5554 31.5381 45.864 31.2318C46.1727 30.9255 46.7128 30.9255 47.0215 31.2318L49.2334 33.4268V21.7118C49.2334 21.2523 49.5935 20.895 50.0564 20.895C50.5194 20.895 50.8795 21.2523 50.8795 21.7118V33.4268L53.0914 31.2318C53.4001 30.9255 53.9402 30.9255 54.2488 31.2318C54.5575 31.5381 54.5575 32.0741 54.2488 32.3803" fill="#222221"/>
<path d="M54.1974 32.3803L50.5966 35.9535C50.5966 35.9535 50.4165 36.1067 50.3394 36.1322C50.2365 36.1832 50.1336 36.1832 50.0307 36.1832C49.9278 36.1832 49.825 36.1832 49.7221 36.1322C49.6192 36.1067 49.542 36.0301 49.4649 35.9535L45.864 32.3803C45.5554 32.0741 45.5554 31.5381 45.864 31.2318C46.1727 30.9255 46.7128 30.9255 47.0215 31.2318L49.2334 33.4268V21.7118C49.2334 21.2523 49.5935 20.895 50.0564 20.895C50.5194 20.895 50.8795 21.2523 50.8795 21.7118V33.4268L53.0914 31.2318C53.4001 30.9255 53.9402 30.9255 54.2488 31.2318C54.5575 31.5381 54.5575 32.0741 54.2488 32.3803H54.1974Z" stroke="#222221" stroke-width="0.31" stroke-miterlimit="10"/>
<path d="M50.0308 40.854C45.4012 40.854 41.646 44.5803 41.646 49.1745C41.646 53.7686 45.4012 57.4949 50.0308 57.4949C54.6604 57.4949 58.4156 53.7686 58.4156 49.1745C58.4156 44.5803 54.6604 40.854 50.0308 40.854ZM50.0308 59.1029C44.5009 59.1029 40.0256 54.6364 40.0256 49.1745C40.0256 43.7126 44.5267 39.2205 50.0308 39.2205C55.5349 39.2205 60.0359 43.687 60.0359 49.1745C60.0359 54.6619 55.5349 59.1029 50.0308 59.1029Z" fill="#222221"/>
<path d="M50.0308 40.854C45.4012 40.854 41.646 44.5803 41.646 49.1745C41.646 53.7686 45.4012 57.4949 50.0308 57.4949C54.6604 57.4949 58.4156 53.7686 58.4156 49.1745C58.4156 44.5803 54.6604 40.854 50.0308 40.854ZM50.0308 59.1029C44.5009 59.1029 40.0256 54.6364 40.0256 49.1745C40.0256 43.7126 44.5267 39.2205 50.0308 39.2205C55.5349 39.2205 60.0359 43.687 60.0359 49.1745C60.0359 54.6619 55.5349 59.1029 50.0308 59.1029Z" stroke="#222221" stroke-width="0.31" stroke-miterlimit="10"/>
</svg>
