<svg width="102" height="99" viewBox="0 0 102 99" fill="none" xmlns="http://www.w3.org/2000/svg">
<path d="M100.941 49.5439C100.941 76.317 79.0016 98.0877 52.0215 98.0877C30.777 98.0877 11.8472 84.2801 5.41724 64.3214L3.46253 68.3795C3.30821 68.7113 2.89669 68.8389 2.58805 68.6858C2.35657 68.5837 2.20226 68.3285 2.20226 68.0988C2.20226 67.9967 2.20226 67.9201 2.2537 67.818L5.08288 61.9478C5.2372 61.5905 5.67443 61.4629 6.00879 61.6671L11.6929 64.8829C12.0015 65.0616 12.1301 65.4699 11.9243 65.7762C11.7443 66.0825 11.3328 66.2101 11.0242 66.0059L6.90898 63.6834C13.0817 83.055 31.4199 96.4543 51.9958 96.4543C78.0499 96.4543 99.2688 75.3982 99.2688 49.5439C99.2688 23.6895 78.0757 2.63344 52.0215 2.63344C28.1021 2.63344 8.06637 20.3971 5.13432 43.5971C6.34315 44.0565 7.1919 45.2306 7.14046 46.5833C7.08902 48.2677 5.64871 49.5949 3.92548 49.5439C2.22798 49.4928 0.890548 48.0636 0.941987 46.3536C0.993427 44.8733 2.09938 43.6737 3.48825 43.444C6.52319 19.4018 27.2533 1 52.0215 1C79.0016 1 100.941 22.7707 100.941 49.5439Z" fill="#222221"/>
<path d="M100.941 49.5439C100.941 76.317 79.0016 98.0877 52.0215 98.0877C30.777 98.0877 11.8472 84.2801 5.41724 64.3214L3.46253 68.3795C3.30821 68.7113 2.89669 68.8389 2.58805 68.6858C2.35657 68.5837 2.20226 68.3285 2.20226 68.0988C2.20226 67.9967 2.20226 67.9201 2.2537 67.818L5.08288 61.9478C5.2372 61.5905 5.67443 61.4629 6.00879 61.6671L11.6929 64.8829C12.0015 65.0616 12.1301 65.4699 11.9243 65.7762C11.7443 66.0825 11.3328 66.2101 11.0242 66.0059L6.90898 63.6834C13.0817 83.055 31.4199 96.4543 51.9958 96.4543C78.0499 96.4543 99.2688 75.3982 99.2688 49.5439C99.2688 23.6895 78.0757 2.63344 52.0215 2.63344C28.1021 2.63344 8.06637 20.3971 5.13432 43.5971C6.34315 44.0565 7.1919 45.2306 7.14046 46.5833C7.08902 48.2677 5.64871 49.5949 3.92548 49.5439C2.22798 49.4928 0.890548 48.0636 0.941987 46.3536C0.993427 44.8733 2.09938 43.6737 3.48825 43.444C6.52319 19.4018 27.2533 1 52.0215 1C79.0016 1 100.941 22.7707 100.941 49.5439Z" stroke="#222221" stroke-width="0.31" stroke-miterlimit="10"/>
<path d="M52.0215 89.2569C30.2369 89.2569 12.4388 71.8761 12.0273 50.3606H92.0415C91.6043 71.8761 73.8319 89.2569 52.0473 89.2569M52.0473 9.83077C73.8319 9.83077 91.63 27.2116 92.0415 48.7271H12.0273C12.4645 27.2116 30.2369 9.83077 52.0215 9.83077M52.0215 8.19733C29.0538 8.19733 10.3555 26.7522 10.3555 49.5438C10.3555 72.3355 29.0538 90.8903 52.0215 90.8903C74.9893 90.8903 93.6876 72.361 93.6876 49.5438C93.6876 26.7267 74.9893 8.19733 52.0215 8.19733Z" fill="#222221"/>
<path d="M52.0215 89.2569C30.2369 89.2569 12.4388 71.8761 12.0273 50.3606H92.0415C91.6043 71.8761 73.8319 89.2569 52.0473 89.2569H52.0215ZM52.0215 9.83077C73.8062 9.83077 91.6043 27.2116 92.0158 48.7271H12.0015C12.4388 27.2116 30.2111 9.83077 51.9958 9.83077H52.0215ZM52.0215 8.19733C29.0538 8.19733 10.3555 26.7522 10.3555 49.5438C10.3555 72.3355 29.0538 90.8903 52.0215 90.8903C74.9893 90.8903 93.6876 72.361 93.6876 49.5438C93.6876 26.7267 74.9893 8.19733 52.0215 8.19733Z" stroke="#222221" stroke-width="0.31" stroke-miterlimit="10"/>
<path d="M56.1882 58.9618C56.0339 59.1149 55.8281 59.1915 55.6224 59.1915C55.4166 59.1915 55.2108 59.1149 55.0565 58.9618L52.8446 56.7668V68.4817C52.8446 68.9411 52.4845 69.2984 52.0216 69.2984C51.5586 69.2984 51.1985 68.9411 51.1985 68.4817V56.7668L48.9866 58.9618C48.678 59.268 48.1379 59.268 47.8293 58.9618C47.5206 58.6555 47.5206 58.1195 47.8293 57.8132L51.43 54.2401C51.43 54.2401 51.6101 54.1125 51.6872 54.0614C51.7901 54.0104 51.893 54.0104 51.9959 54.0104C52.0987 54.0104 52.2016 54.0104 52.3045 54.0614C52.4074 54.1125 52.4845 54.1635 52.5617 54.2401L56.1625 57.8132C56.4711 58.1195 56.4711 58.6555 56.1625 58.9618" fill="#222221"/>
<path d="M56.1882 58.9618C56.0339 59.1149 55.8281 59.1915 55.6224 59.1915C55.4166 59.1915 55.2108 59.1149 55.0565 58.9618L52.8446 56.7668V68.4817C52.8446 68.9411 52.4845 69.2984 52.0216 69.2984C51.5586 69.2984 51.1985 68.9411 51.1985 68.4817V56.7668L48.9866 58.9618C48.678 59.268 48.1379 59.268 47.8293 58.9618C47.5206 58.6555 47.5206 58.1195 47.8293 57.8132L51.43 54.2401C51.43 54.2401 51.6101 54.1125 51.6872 54.0614C51.7901 54.0104 51.893 54.0104 51.9959 54.0104C52.0987 54.0104 52.2016 54.0104 52.3045 54.0614C52.4074 54.1125 52.4845 54.1635 52.5617 54.2401L56.1625 57.8132C56.4711 58.1195 56.4711 58.6555 56.1625 58.9618H56.1882Z" stroke="#222221" stroke-width="0.31" stroke-miterlimit="10"/>
<path d="M52.0215 26.1907C47.4176 26.1907 43.6368 29.917 43.6368 34.5111C43.6368 39.1051 47.3919 42.8314 52.0215 42.8314C56.651 42.8314 60.4061 39.1051 60.4061 34.5111C60.4061 29.917 56.651 26.1907 52.0215 26.1907ZM52.0215 44.4394C46.4917 44.4394 42.0165 39.9729 42.0165 34.5111C42.0165 29.0493 46.5174 24.5828 52.0215 24.5828C57.5255 24.5828 62.0265 29.0493 62.0265 34.5111C62.0265 39.9729 57.5255 44.4394 52.0215 44.4394Z" fill="#222221"/>
<path d="M52.0215 26.1907C47.4176 26.1907 43.6368 29.917 43.6368 34.5111C43.6368 39.1051 47.3919 42.8314 52.0215 42.8314C56.651 42.8314 60.4061 39.1051 60.4061 34.5111C60.4061 29.917 56.651 26.1907 52.0215 26.1907ZM52.0215 44.4394C46.4917 44.4394 42.0165 39.9729 42.0165 34.5111C42.0165 29.0493 46.5174 24.5828 52.0215 24.5828C57.5255 24.5828 62.0265 29.0493 62.0265 34.5111C62.0265 39.9729 57.5255 44.4394 52.0215 44.4394Z" stroke="#222221" stroke-width="0.31" stroke-miterlimit="10"/>
</svg>
