<svg xmlns="http://www.w3.org/2000/svg" viewBox="0 0 243.99 73.73"><defs><style>.cls-1{fill:#fefefe;}</style></defs><g id="Capa_2" data-name="Capa 2"><g id="Capa_1-2" data-name="Capa 1"><path class="cls-1" d="M239.74,49.91a2.58,2.58,0,1,1,2.55-2.6,2.52,2.52,0,0,1-2.55,2.6m0-5.61a3,3,0,1,0,3.12,3,3.06,3.06,0,0,0-3.12-3"/><path class="cls-1" d="M143.42,41.62a2.23,2.23,0,0,0-.06-1.41,3.07,3.07,0,0,0-.64.82,19.49,19.49,0,0,0-2.18,6.65,28,28,0,0,0,2.88-6.06"/><path class="cls-1" d="M240.63,46.55c0,.55-.44.58-.94.58h-.6V46h.74c.25,0,.8.06.8.55m.57,0c0-.68-.41-1-1.26-1h-1.41V49.1h.56V47.58h.61l1,1.52h.62l-1-1.57a.91.91,0,0,0,.95-1"/><path class="cls-1" d="M84.61,37.94c-.32,2.71-1.75,6.62-7.87,6.62-3.18,0-6-.92-6-4.65,0-3.18,1.74-4.39,4.28-5.07.47-.05,1-.17,1.63-.21h8ZM78.83,12.85c-8,0-16.27,2.83-16.84,12.19h9.84c.35-3.95,2.78-5.49,6.5-5.49,3.22,0,5.94.55,6.33,4.05v5.08H77.09a28.86,28.86,0,0,0-7.46.95c-4.71,1.47-8.74,4-8.74,10.7,0,7.46,5.39,10.92,12.2,10.92,4.14,0,8.48-1.1,11.59-4v3.07h9.83V22.45c-.48-8.07-8.77-9.6-15.68-9.6"/><path class="cls-1" d="M233.82,13.83l-7.82,25h-.15l-8.09-25H207.23L219.84,48c1.1,2.88,0,6.48-3.39,6.83a49.59,49.59,0,0,1-5.75-.35v8.24a55.43,55.43,0,0,0,6,.36c6.78,0,10.16-2.39,12.31-8.25l15-41Z"/><path class="cls-1" d="M132.23,50.22l0,.05h.3V27.87c0-9-2.62-15-13.08-15a12.68,12.68,0,0,0-10.93,6.06h-.21V13.83H99V50.27h9.84V31.17c0-7.4,2.28-10.42,7.59-10.42,4.58,0,6.3,3,6.3,8.94V47.58a10.92,10.92,0,0,1,9.49,2.64"/><path class="cls-1" d="M53,.44a4.84,4.84,0,0,0-4.89,4.78,4.89,4.89,0,0,0,9.77,0A4.82,4.82,0,0,0,53,.44"/><rect class="cls-1" x="47.99" y="13.83" width="9.82" height="36.43"/><path class="cls-1" d="M143.8,33.67h.09a5.71,5.71,0,0,1,2.85.78V31.17c0-7.4,2.26-10.42,7.61-10.42,4.57,0,6.3,3,6.3,8.94V50.27h9.82V27.87c0-9-2.61-15-13.07-15a12.69,12.69,0,0,0-10.93,6.06h-.22V13.83H136.9V38.67a18.85,18.85,0,0,1,1-1.64,7.54,7.54,0,0,1,5.86-3.36"/><polygon class="cls-1" points="34.77 0 23.18 35.32 23.05 35.32 11.59 0 0 0 16.63 50.23 29.38 50.23 46.45 0 34.77 0"/><path class="cls-1" d="M191.07,20.39c4.79,0,6.92,2.68,7.82,7.75h-16c.15-2.82,1.95-7.75,8.17-7.75m1.53,30a6.36,6.36,0,0,1,1.17.7c.68-.07,1.36-.16,2-.29A4.9,4.9,0,0,1,196,50a5.09,5.09,0,0,1,3.15-3.23,6.69,6.69,0,0,1,2.5-.51,5.43,5.43,0,0,1,2.1.43A19.09,19.09,0,0,0,208.1,39h-8.65c-.62,2.26-3.81,4.72-7.75,4.72-5.47,0-8.51-2.89-8.8-9.23h25.83c.69-11.2-5.2-21.63-17.38-21.63-10.86,0-18.27,8.31-18.27,19.24,0,9.45,4.91,16.52,13.15,18.56a6.14,6.14,0,0,1,3.28-.92,7.49,7.49,0,0,1,3.09.69"/><path class="cls-1" d="M201,70.75a1.52,1.52,0,0,1-1.6-1.39c-.21-2.19,1.06-4,2.91-5.36,2.15,4.78.27,6.75-1.31,6.75m.11-16.94c-.41-.87-1.35-2.17-1-2.76a1.59,1.59,0,0,1,1.32-.76c.61,0,1.12.39,1.08.93s-2.4.43-1.44,2.59m-8.41,6.7c-3.05-.81-5.38-2.88-5.62-4.82a1.81,1.81,0,0,0,1,.27,2.27,2.27,0,0,0,1.6-.58,1.49,1.49,0,0,1,1.11-.56,1.71,1.71,0,0,1,1,.33c1.74,1.16,2.31,3.85.94,5.36M188,63.86a3,3,0,0,1-1.9-.53c-2-1.78-.66-4.38,0-5.41a8.27,8.27,0,0,0,5.17,4.53A3.93,3.93,0,0,1,188,63.86m-11.82-6.37c-1-.27-1.19-1.44-1-2.51.11-.64.5-.94.84-.94a.48.48,0,0,1,.47.37,12.77,12.77,0,0,1-.3,3.08M159,59.72a2.72,2.72,0,0,1-4,2c-1.16-.78-1-3.76,0-5.17a2.91,2.91,0,0,1,2.39-1.29,2.22,2.22,0,0,1,1.13.28c1,.59.61,2.62.5,4.23M141.5,40.36c.65-1.12,1.36-1.59,2-1.59,1,0,1.7,1.3,1.32,3.13-.62,2.93-5.21,10.19-6.15,11.32.29-2.06,0-7.81,2.87-12.86M206,60.59a11,11,0,0,0,1.08-2c.27-.73.28-1.25.15-1.25s-.11,0-.18.15a7.57,7.57,0,0,1-1.7,2.11c-1.57-2.41-3.28-4.88-3.28-4.88a.76.76,0,0,0,.19,0A3.34,3.34,0,0,0,204.9,53a3.67,3.67,0,0,0-3.3-5.42h0a5.47,5.47,0,0,0-2,.41c-4,1.6-2.45,6-.55,8.75.27.39.52.79.77,1.18a3.45,3.45,0,0,0-.25.27c-.47.62-.76,2.44-3.59,2.91.88-3.41-1.1-8.17-4-9.46a6,6,0,0,0-2.5-.58A3.93,3.93,0,0,0,185.9,53a6.11,6.11,0,0,0-5,5.24,5.83,5.83,0,0,1-1,.12l-.28,0c-.3-.1-.43-.14-.27-.89.19-.93,1.16-3-.74-5.27a2.93,2.93,0,0,0-2.24-1.22,3.51,3.51,0,0,0-2.54,1.37,4.55,4.55,0,0,0,1.82,6.61c-.29,1.19-1.47,5.21-2,5.76a.32.32,0,0,1-.3.2c-.55,0-1.59-1.24-2.15-2.6-.82-2-1.68-6.13-2.72-8.22-.7-1.42-1.5-1.92-2-1.92a.47.47,0,0,0-.41.18c-.87,1.63-.83,5.37,0,7.79.16.45.32.94.48,1.42-.54,1.38-1.32,2.67-2.21,2.67l-.18,0c-1.52-.28-1.27-6.7-1.12-9.74.07-1.59-2.28-2.79-3.15-2.79a.58.58,0,0,0-.21,0c-.62.21-.43,1.17-.64,2a6.57,6.57,0,0,0-3.32-.89A5.41,5.41,0,0,0,151,55.45a8.08,8.08,0,0,0-.66,6.83c-.52,1-1.12,1.8-1.76,1.8a1,1,0,0,1-.55-.22c-1.27-1,.5-3.37-.42-6.21-.5-1.53-1.39-2.07-2.33-2.07A5.3,5.3,0,0,0,142,57.24a33.92,33.92,0,0,0-3.75,4.6s-.19-4.18.69-5.44c1.78-2.38,8.27-8,9.1-13.87s-1.87-7.47-4.15-7.5h-.06a6.28,6.28,0,0,0-4.71,2.77c-4.46,6.32-4.38,14.45-4.88,18-.09.65-.2,1.41-.28,2.22a8.57,8.57,0,0,1-6.27,3.77,6.39,6.39,0,0,1-.75,0,4.32,4.32,0,0,1-3.37-7.23,5.36,5.36,0,0,1,3.71-1.8,3.29,3.29,0,0,1,1.09.18A1.63,1.63,0,0,0,130,54.48l.45,0c1.53-.27,1.63-2.09.78-3.29a9.34,9.34,0,0,0-6.41-2.42,7.6,7.6,0,0,0-7.4,5c-2.25,5.67,2.42,11.63,8.47,11.63a9.91,9.91,0,0,0,4.57-1.15,12.87,12.87,0,0,0,3.22-2.43c0,2.39.31,4.46,1.5,4.83a7.66,7.66,0,0,0,2.16.36A3.32,3.32,0,0,0,140,65.87c.76-.89,3.34-5.9,4.79-5.9a.62.62,0,0,1,.26.06c-.49,2.36-.81,6.33,2.78,6.33h.31a4.85,4.85,0,0,0,3.43-2.16,4.71,4.71,0,0,0,2.21,1.26,4.09,4.09,0,0,0,1.07.14,6.93,6.93,0,0,0,4.21-1.81s.66,3.25,4.86,3.25H164c1.41,0,2.66-1.45,3.57-3.18a7.32,7.32,0,0,0,2.66,3.24,4.58,4.58,0,0,0,2.36.85,2.2,2.2,0,0,0,1.59-.74,43.51,43.51,0,0,0,4.53-7.56c.06-.14.14-.18.32-.18l.57,0h.2a8.12,8.12,0,0,0,1-.12c-.23,2.89.58,6.51,5.42,7.26a8.48,8.48,0,0,0,1.23.09,9.94,9.94,0,0,0,7.12-3.34c2.1-.19,4.61-.48,6.41-3.25a17.42,17.42,0,0,1,.67,1.65s-6.08,3.5-4.55,8.88a4.24,4.24,0,0,0,4.17,3.07c1.75,0,3.78-1,5.5-3.4,1.33-1.84.57-7.09-.79-9.74"/></g></g></svg>