<?xml version="1.0" encoding="UTF-8"?>
<svg id="Capa_1" data-name="Capa 1" xmlns="http://www.w3.org/2000/svg" viewBox="0 0 295.72 121.7">
  <defs>
    <style>
      .cls-1 {
        fill: #1d1d1b;
        stroke-width: 0px;
      }
    </style>
  </defs>
  <path class="cls-1" d="M226.64,86.24c.89-.18,1.62-.47,2.2-.85.58-.38.99-.84,1.23-1.39.23-.54.28-1.14.15-1.79-.13-.62-.37-1.12-.72-1.5-.35-.38-.85-.65-1.5-.81-.65-.16-1.47-.22-2.46-.18-.89,0-1.6-.04-2.12-.13-.52-.09-.91-.25-1.19-.49-.27-.24-.46-.59-.55-1.05-.09-.44-.04-.85.15-1.22.19-.37.49-.68.9-.94.41-.25.92-.44,1.52-.57.94-.2,1.71-.16,2.29.11.58.27,1.07.82,1.47,1.65l.78-.46c-.4-.95-.98-1.6-1.74-1.95-.77-.35-1.74-.4-2.92-.16-.8.17-1.47.43-2.03.8-.55.37-.95.82-1.2,1.35-.25.53-.3,1.09-.18,1.7.12.61.35,1.07.68,1.4.33.33.79.58,1.38.74.59.16,1.35.22,2.28.19.97-.02,1.73.03,2.29.15.56.12.99.3,1.29.55.3.25.5.63.6,1.13.15.74,0,1.35-.48,1.84-.48.49-1.24.85-2.29,1.06-1.02.21-1.85.19-2.49-.06-.64-.25-1.18-.79-1.63-1.6l-.8.49c.47.95,1.11,1.58,1.92,1.9.8.32,1.85.34,3.13.08M215.32,87.05c-.84.06-1.58-.09-2.21-.45-.63-.36-1.14-.91-1.54-1.66-.39-.74-.63-1.66-.71-2.76-.08-1.08.02-2.03.3-2.83.28-.81.71-1.44,1.28-1.89.57-.45,1.28-.71,2.12-.77.84-.06,1.59.09,2.23.45.65.36,1.16.92,1.54,1.68.38.76.61,1.68.69,2.76.08,1.08-.01,2.02-.28,2.82-.27.8-.69,1.42-1.28,1.87-.59.45-1.3.71-2.14.77M215.36,87.86c1.02-.07,1.91-.38,2.67-.92.75-.54,1.31-1.28,1.68-2.22s.5-2.03.41-3.26c-.09-1.19-.37-2.22-.86-3.1-.49-.88-1.14-1.53-1.97-1.94-.82-.42-1.74-.59-2.75-.51-1.02.07-1.91.39-2.67.93-.75.55-1.31,1.29-1.67,2.22-.36.93-.5,2.01-.41,3.23.09,1.23.38,2.28.86,3.15.49.87,1.13,1.5,1.94,1.92.81.42,1.73.59,2.77.51M202.08,77.16l7.21.21.02-.84-7.21-.21-.03.84ZM207.79,87.9c.24,0,.47,0,.7-.02.23-.02.42-.05.57-.07l.02-.84h-.02s-.02,0-.02,0c-.2,0-.39.02-.58.04-.19.02-.37.02-.55.02-.88-.03-1.5-.23-1.87-.62-.37-.39-.55-1.02-.52-1.89l.33-11.21-.95.02-.14,3.28-.05.27-.23,7.96c-.03,1.05.22,1.82.76,2.31.54.48,1.39.74,2.57.78M191.57,86.26l1.05.15,1.26-8.55v-.21s.35-2.44.35-2.44l-1.01-.15-1.65,11.19ZM200.35,80.07l-1.08,7.32,1.05.15,1.13-7.65c.12-.81.07-1.51-.13-2.12-.21-.61-.56-1.11-1.06-1.5-.5-.39-1.12-.65-1.87-.76-.9-.13-1.73-.01-2.51.35s-1.54.99-2.3,1.89l.09.79c.74-.88,1.46-1.5,2.17-1.84.71-.35,1.46-.46,2.25-.34.9.13,1.54.52,1.92,1.16.38.64.5,1.49.34,2.55M184.33,84.73c1.01.31,1.97.34,2.88.11.91-.24,1.69-.75,2.34-1.55l-.67-.58c-.56.68-1.19,1.12-1.92,1.32-.72.2-1.5.17-2.34-.09-.82-.25-1.47-.65-1.94-1.21-.47-.55-.76-1.25-.85-2.08-.1-.84.01-1.78.33-2.83.32-1.04.75-1.88,1.31-2.53.55-.65,1.18-1.09,1.88-1.31.7-.22,1.45-.21,2.26.04.74.23,1.32.6,1.77,1.14.44.54.71,1.2.82,1.98.1.78,0,1.65-.29,2.6-.01.04-.02.08-.03.11,0,.03-.02.07-.04.13l.83-.48-8.72-2.66-.25.82,9.04,2.76c.02-.06.04-.1.05-.14.02-.03.04-.1.07-.2.32-1.1.41-2.12.28-3.05-.13-.93-.48-1.72-1.04-2.36-.56-.64-1.31-1.11-2.25-1.4-.98-.3-1.92-.33-2.81-.09-.89.24-1.68.74-2.37,1.49-.69.75-1.21,1.7-1.56,2.86-.36,1.2-.48,2.28-.33,3.26.14.97.52,1.8,1.13,2.47.61.67,1.41,1.16,2.42,1.47M172.3,71.74l-2.91,6.68.93.41,3.03-6.97c.34-.77.5-1.49.49-2.15,0-.66-.19-1.24-.55-1.74-.36-.5-.88-.9-1.55-1.19-.8-.35-1.62-.44-2.44-.28-.82.16-1.73.59-2.71,1.3l-.12.79c.95-.67,1.8-1.09,2.56-1.27.76-.17,1.47-.11,2.15.18.8.35,1.3.89,1.49,1.61.19.73.07,1.61-.39,2.64M162.49,75.41l.98.43,3.42-7.86.07-.27.98-2.26-.93-.41-4.51,10.37ZM179.23,74.75l-2.91,6.68.95.41,3.03-6.97c.34-.77.5-1.49.48-2.16s-.2-1.25-.56-1.75c-.36-.5-.88-.9-1.55-1.19-.8-.35-1.62-.44-2.44-.29-.83.16-1.74.59-2.73,1.29l-.13.81c.96-.67,1.83-1.09,2.59-1.27.76-.18,1.49-.12,2.18.18.8.35,1.29.89,1.48,1.62.18.73.05,1.61-.39,2.63M155.1,74.47c1.04.18,2,.1,2.87-.24.87-.34,1.58-.95,2.14-1.82l-.74-.5c-.47.74-1.05,1.26-1.74,1.54-.69.28-1.47.35-2.33.2-.85-.15-1.54-.47-2.07-.96-.53-.49-.9-1.15-1.1-1.96-.2-.82-.21-1.77-.01-2.85.19-1.07.52-1.96.99-2.67.47-.71,1.04-1.22,1.71-1.52.67-.3,1.41-.38,2.25-.24.76.13,1.39.44,1.89.92.5.48.85,1.1,1.05,1.86.19.76.21,1.63.03,2.61,0,.05-.02.08-.02.11,0,.03-.01.07-.02.13l.77-.58-8.98-1.59-.15.85,9.31,1.64c.01-.06.02-.11.04-.14.01-.03.03-.1.05-.21.18-1.13.15-2.15-.09-3.06-.25-.91-.69-1.65-1.32-2.22-.63-.57-1.43-.94-2.4-1.11-1.01-.18-1.94-.09-2.8.25-.86.35-1.58.93-2.17,1.76-.59.83-.99,1.84-1.2,3.03-.22,1.23-.2,2.32.07,3.27.26.95.73,1.72,1.42,2.32.68.59,1.54.99,2.58,1.17M146.44,73.01l1.06.08,1.2-15.79-1.06-.08-1.2,15.79ZM138.98,61.17c-.95.03-1.77.29-2.47.78-.69.5-1.3,1.29-1.81,2.37l.27.65c.53-1.04,1.1-1.79,1.71-2.23.61-.45,1.31-.68,2.1-.71.74-.02,1.39.16,1.96.54.57.38,1.01.96,1.33,1.73.32.77.49,1.68.52,2.73.03,1.02-.1,1.93-.38,2.73-.29.79-.71,1.41-1.26,1.85-.55.44-1.21.67-1.96.69-.53.02-1.01-.06-1.43-.24-.43-.17-.84-.45-1.25-.83-.4-.38-.81-.89-1.22-1.53l-.25.78c.56.93,1.19,1.62,1.89,2.06.71.44,1.51.65,2.42.62.9-.03,1.71-.3,2.42-.83.71-.53,1.25-1.26,1.63-2.2.38-.94.55-1.99.52-3.15-.03-1.2-.26-2.25-.67-3.14-.41-.88-.97-1.56-1.67-2.02-.7-.46-1.5-.68-2.41-.65M134.37,77l1.06-.03-.37-12.73-.05-.27-.07-2.37-1.02.03.45,15.37ZM121.22,67.32l1.3,7.17,1-.18-1.36-7.48c-.15-.83-.41-1.52-.79-2.06s-.85-.93-1.43-1.14c-.58-.22-1.23-.26-1.95-.13-.86.16-1.59.53-2.19,1.12-.6.59-1.11,1.45-1.53,2.59l.34.72c.42-1.09.89-1.91,1.42-2.48.53-.56,1.16-.91,1.89-1.05.86-.16,1.57.01,2.14.51.57.49.95,1.3,1.15,2.41M115.12,75.84l1.05-.19-1.53-8.43-.09-.26-.44-2.43-1,.18,2.02,11.13ZM128.66,65.97l1.3,7.17,1.02-.19-1.36-7.48c-.15-.83-.42-1.52-.8-2.06-.38-.54-.86-.92-1.44-1.14-.58-.22-1.23-.26-1.96-.13-.86.16-1.59.53-2.19,1.12-.6.59-1.12,1.45-1.55,2.59l.34.74c.43-1.09.91-1.92,1.44-2.49.53-.57,1.17-.92,1.91-1.06.86-.16,1.57.02,2.13.52.56.5.94,1.3,1.14,2.4M107.61,78.07c-.79.29-1.54.34-2.25.16-.71-.18-1.35-.57-1.93-1.18-.58-.61-1.06-1.43-1.43-2.47-.37-1.02-.53-1.96-.47-2.81.05-.85.29-1.57.72-2.16.43-.59,1.04-1.02,1.83-1.31.79-.29,1.55-.34,2.27-.17.72.17,1.37.57,1.94,1.2.57.63,1.04,1.45,1.41,2.47.37,1.02.53,1.95.49,2.79-.04.84-.28,1.56-.73,2.15-.44.59-1.06,1.03-1.86,1.32M107.87,78.85c.96-.35,1.74-.88,2.32-1.61.58-.72.92-1.59,1.01-2.59.09-1-.07-2.09-.49-3.25-.4-1.12-.96-2.04-1.67-2.75-.71-.71-1.51-1.16-2.42-1.34-.91-.18-1.83-.1-2.78.25-.97.35-1.74.89-2.31,1.62-.58.73-.92,1.59-1.01,2.59-.1,1,.06,2.07.48,3.22.42,1.16.98,2.09,1.68,2.79.7.7,1.5,1.14,2.39,1.32.89.18,1.83.1,2.81-.25M97.81,83.45c.93-.58,1.58-1.3,1.94-2.15.36-.85.42-1.84.17-2.96l-.88.21c.24.93.22,1.74-.06,2.42-.28.68-.81,1.27-1.58,1.74-.75.47-1.5.71-2.23.7s-1.44-.25-2.12-.73c-.68-.48-1.32-1.19-1.9-2.12-.58-.92-.94-1.8-1.08-2.65-.15-.84-.06-1.6.24-2.26.31-.66.82-1.22,1.53-1.67.77-.48,1.53-.69,2.29-.63.76.06,1.5.42,2.24,1.08l.63-.74c-.89-.77-1.8-1.18-2.73-1.23-.93-.04-1.87.24-2.85.85-.88.55-1.52,1.24-1.92,2.05-.4.82-.54,1.73-.42,2.74.12,1.01.5,2.03,1.13,3.05.66,1.06,1.41,1.86,2.23,2.39.82.53,1.69.79,2.6.77.91-.02,1.83-.32,2.75-.89"/>
  <path class="cls-1" d="M154,53.45c.89.16,1.68.17,2.36.03s1.23-.42,1.65-.83c.42-.42.69-.95.8-1.6.11-.62.07-1.18-.11-1.66-.18-.48-.55-.92-1.09-1.31-.54-.39-1.28-.75-2.22-1.08-.83-.33-1.47-.63-1.92-.9-.45-.27-.76-.57-.92-.9-.16-.33-.21-.72-.12-1.18.08-.44.28-.8.59-1.08.32-.27.71-.45,1.19-.54.47-.08,1.01-.07,1.62.04.95.17,1.64.49,2.08.96.44.47.69,1.16.76,2.07l.9-.14c-.02-1.03-.32-1.85-.9-2.46-.58-.61-1.47-1.02-2.65-1.23-.8-.14-1.53-.15-2.18,0-.65.14-1.19.41-1.61.81-.42.4-.69.9-.8,1.51-.11.61-.07,1.13.11,1.56.18.43.52.83,1,1.2.49.37,1.17.71,2.05,1.02.9.34,1.59.67,2.08.99.48.31.81.65,1,.99.18.35.23.77.14,1.28-.13.74-.51,1.25-1.13,1.53s-1.46.33-2.52.14c-1.03-.18-1.79-.51-2.28-.98-.5-.47-.8-1.17-.92-2.09l-.92.16c.09,1.06.45,1.88,1.08,2.48.63.59,1.59,1.01,2.88,1.23M143.09,50.19c-.83-.16-1.5-.5-2.01-1.01s-.86-1.18-1.05-2c-.18-.82-.17-1.77.04-2.85.21-1.07.55-1.95,1.04-2.66.48-.7,1.06-1.2,1.73-1.48s1.42-.34,2.25-.18c.83.16,1.51.5,2.04,1.02.53.52.88,1.19,1.04,2.02.17.83.15,1.78-.06,2.85-.21,1.06-.54,1.95-1.01,2.65-.47.7-1.04,1.19-1.73,1.47-.68.28-1.44.34-2.27.18M142.91,50.99c1.01.2,1.94.13,2.81-.19.87-.32,1.6-.89,2.2-1.7.6-.81,1.01-1.83,1.25-3.04.23-1.17.22-2.24-.02-3.22-.24-.98-.7-1.77-1.39-2.39-.69-.62-1.53-1.02-2.52-1.22-1.01-.2-1.94-.13-2.82.2-.87.33-1.6.9-2.2,1.7s-1.01,1.81-1.24,3.01c-.24,1.21-.23,2.3,0,3.26.24.96.7,1.75,1.37,2.36.67.62,1.52,1.02,2.54,1.22M134.27,49.62l1.06.05.76-15.81-1.06-.05-.76,15.82ZM120.63,50.49c.99-.11,1.88-.48,2.66-1.08.79-.61,1.32-1.37,1.61-2.28l-.21-.98c-.27.97-.76,1.77-1.49,2.41s-1.57,1-2.51,1.11c-.81.1-1.46-.02-1.94-.34-.49-.32-.77-.84-.85-1.56-.08-.69.09-1.27.52-1.76.43-.48,1.15-.89,2.16-1.22,1.01-.33,2.32-.59,3.94-.78l-.11-.72c-1.86.22-3.35.53-4.49.94-1.14.41-1.95.93-2.45,1.54-.5.61-.7,1.34-.6,2.18.11.96.49,1.65,1.14,2.09.65.43,1.52.58,2.61.46M125.18,49.66l1.01-.12v-.07c-.15-.41-.26-.79-.33-1.13-.08-.35-.14-.72-.19-1.1,0-.06-.01-.12-.02-.18l-.59-5.03c-.1-.87-.35-1.59-.75-2.16-.4-.57-.92-.96-1.56-1.18-.64-.22-1.4-.28-2.29-.18-1.29.15-2.27.57-2.95,1.26-.68.69-1.04,1.63-1.08,2.84l.9.08c.07-1.04.36-1.82.85-2.34.49-.52,1.26-.84,2.31-.97,1.06-.12,1.88.05,2.45.53.57.48.92,1.27,1.05,2.38l.57,4.9.11.15c.1.85.27,1.63.5,2.33M110.53,40.95l.66.14c-.13-.54-.08-1.02.15-1.44.23-.42.6-.69,1.09-.81.28-.07.59-.07.93-.01l.1-.93c-.36-.07-.75-.05-1.17.05-.47.11-.85.32-1.16.61-.3.29-.51.65-.61,1.08-.11.43-.1.87,0,1.33M109.81,47.27c-.98.24-1.82.17-2.51-.21-.69-.38-1.14-1.01-1.36-1.91-.14-.59-.14-1.12,0-1.61.15-.49.43-.91.85-1.26.42-.36.96-.62,1.62-.78.98-.24,1.83-.17,2.53.21.71.38,1.16,1,1.37,1.87.15.6.14,1.14-.01,1.63-.15.49-.44.91-.87,1.27-.42.36-.97.62-1.63.78M109.97,48.05c.82-.2,1.51-.52,2.08-.98.56-.45.96-1.01,1.18-1.66.22-.65.24-1.34.07-2.08-.26-1.07-.85-1.84-1.78-2.32-.93-.48-2.02-.57-3.26-.27-.82.2-1.51.53-2.08.99-.56.46-.95,1.01-1.16,1.65-.21.64-.23,1.32-.05,2.04.23.97.72,1.69,1.47,2.17.74.48,1.61.63,2.61.45.15.06.3.08.44.08.14,0,.3-.03.49-.07M111.95,56.22c1.08-.26,1.98-.61,2.69-1.04.71-.43,1.21-.93,1.5-1.49.29-.57.36-1.17.21-1.8-.24-.9-.69-1.5-1.37-1.78-.68-.28-1.62-.28-2.8,0l-2.73.66c-.7.17-1.23.2-1.59.08-.35-.12-.57-.35-.66-.7-.08-.34-.04-.62.12-.86.16-.23.46-.46.88-.67.43-.21,1.02-.41,1.77-.59l-1.03-.22c-.67.18-1.22.4-1.64.67-.42.27-.73.57-.9.93-.18.35-.22.73-.12,1.12.14.59.51.97,1.11,1.14.6.17,1.44.13,2.51-.13l2.4-.58c.92-.22,1.63-.24,2.13-.05.5.19.82.61.98,1.28.12.48.06.93-.16,1.34-.23.41-.63.78-1.21,1.11-.58.33-1.31.6-2.19.81-.87.21-1.6.3-2.2.28-.6-.03-1.08-.16-1.43-.4-.35-.24-.58-.58-.69-1.02-.11-.47-.09-.88.06-1.24.15-.35.42-.65.81-.89.38-.24.89-.45,1.51-.63l-.53-.29c-.69.17-1.26.42-1.72.75-.45.34-.77.72-.94,1.15-.17.43-.2.92-.06,1.46.14.59.43,1.04.87,1.37.44.33,1.03.51,1.77.55.75.04,1.64-.07,2.68-.32M100.6,55.58c.99-.37,1.77-.92,2.35-1.66s.88-1.62.92-2.65l-.89-.05c-.03.88-.27,1.62-.72,2.21-.45.6-1.09,1.05-1.91,1.35-.81.3-1.56.38-2.27.22-.71-.15-1.36-.53-1.94-1.13-.59-.6-1.07-1.42-1.46-2.45-.38-1.02-.55-1.95-.51-2.81.04-.85.28-1.58.69-2.18.42-.6,1.03-1.05,1.82-1.34.72-.27,1.42-.33,2.1-.17.68.16,1.29.51,1.85,1.07.55.56,1.01,1.3,1.35,2.23.02.04.03.08.04.11.01.03.03.07.05.13l.37-.89-8.54,3.19.3.81,8.85-3.31c-.02-.06-.03-.1-.04-.14,0-.04-.03-.11-.06-.21-.42-1.07-.96-1.93-1.63-2.59-.67-.66-1.43-1.07-2.26-1.24-.84-.17-1.71-.08-2.63.26-.96.36-1.72.91-2.28,1.64-.56.73-.89,1.61-.98,2.62-.09,1.01.08,2.09.5,3.22.44,1.17,1.01,2.1,1.72,2.79.71.68,1.51,1.11,2.4,1.28.89.16,1.83.06,2.82-.31M87.3,52.1l.55.61c-.06-1.38.11-2.44.5-3.17.39-.73.99-1.29,1.81-1.69.14-.07.27-.12.42-.18l-.43-.87c-1.02.5-1.75,1.14-2.21,1.94s-.67,1.91-.64,3.36M90.23,59.68l.95-.47-3.51-7.17-.18-.26-1.32-2.7-.91.45,4.97,10.16ZM80.09,52.8l.67-.07c-.29-.48-.4-.95-.31-1.42s.35-.84.79-1.11c.24-.15.54-.25.88-.3l-.19-.92c-.36.05-.73.18-1.1.41-.41.25-.71.57-.91.94s-.28.77-.25,1.22c.03.44.17.86.42,1.26M81.36,59.03c-.86.53-1.68.72-2.45.58-.77-.14-1.4-.61-1.88-1.39-.32-.51-.48-1.02-.49-1.53-.01-.51.13-1,.41-1.46.29-.47.72-.88,1.3-1.24.86-.53,1.68-.72,2.47-.58.79.14,1.41.59,1.88,1.35.32.53.49,1.04.49,1.56,0,.51-.14,1-.43,1.48-.29.47-.73.89-1.31,1.24M81.75,59.71c.72-.44,1.28-.97,1.67-1.58.4-.61.6-1.25.61-1.94,0-.69-.18-1.35-.58-1.99-.58-.94-1.38-1.49-2.42-1.66-1.03-.17-2.1.09-3.19.76-.72.44-1.27.97-1.66,1.59s-.59,1.26-.59,1.93c0,.67.19,1.33.58,1.95.52.85,1.21,1.38,2.07,1.61.86.22,1.73.1,2.62-.38.16,0,.31-.01.44-.06.13-.05.28-.12.45-.22M86.17,66.87c.95-.59,1.7-1.19,2.24-1.82.54-.63.86-1.26.96-1.88.1-.63-.02-1.22-.36-1.77-.5-.79-1.12-1.21-1.86-1.27-.74-.06-1.62.23-2.66.87l-2.39,1.47c-.62.38-1.11.57-1.48.57-.37,0-.65-.15-.84-.46-.18-.3-.23-.58-.15-.85.08-.27.29-.57.63-.91.34-.33.84-.7,1.49-1.11l-1.05.12c-.58.38-1.03.76-1.35,1.14-.32.38-.51.77-.57,1.16-.06.39.02.76.23,1.11.32.51.79.76,1.41.74.62-.02,1.41-.32,2.34-.9l2.1-1.3c.81-.5,1.48-.74,2.01-.71.53.03.97.33,1.33.91.26.42.35.87.26,1.33-.09.46-.36.94-.81,1.43-.45.49-1.06.97-1.83,1.45-.76.47-1.43.78-2.01.95-.58.16-1.08.19-1.49.07s-.73-.37-.97-.76c-.25-.41-.36-.81-.32-1.19.04-.39.2-.75.49-1.1.29-.35.7-.71,1.24-1.07l-.6-.11c-.6.37-1.07.79-1.4,1.25-.33.46-.51.92-.54,1.38-.03.46.1.93.39,1.41.32.51.73.86,1.25,1.04s1.14.17,1.86-.03c.72-.2,1.54-.58,2.45-1.14M74.34,70.74c.73-.68,1.23-1.5,1.5-2.45.27-.95.26-1.89-.06-2.79l-.74-.67c.36.94.44,1.88.22,2.82s-.67,1.74-1.36,2.39c-.6.56-1.18.85-1.77.88-.58.03-1.12-.22-1.61-.75-.47-.51-.68-1.08-.62-1.73.06-.64.4-1.4,1.01-2.26.62-.86,1.52-1.85,2.71-2.96l-.51-.51c-1.37,1.27-2.38,2.42-3.05,3.42-.67,1.01-1.02,1.9-1.06,2.69-.04.79.23,1.49.81,2.11.66.7,1.38,1.04,2.16,1,.78-.04,1.57-.43,2.38-1.18M77.51,67.38l.74-.69-.05-.05c-.35-.25-.67-.49-.94-.72-.27-.23-.54-.49-.8-.78-.04-.04-.08-.09-.12-.13l-3.46-3.7c-.6-.64-1.22-1.07-1.88-1.29-.66-.22-1.31-.23-1.96-.03-.65.2-1.3.61-1.95,1.21-.95.89-1.49,1.81-1.63,2.76-.14.96.13,1.93.81,2.93l.77-.47c-.56-.88-.79-1.68-.7-2.39.09-.71.52-1.43,1.29-2.15.78-.73,1.55-1.07,2.29-1.02.75.05,1.5.48,2.26,1.29l3.36,3.61.17.05c.59.63,1.18,1.16,1.79,1.58"/>
</svg>