<?xml version="1.0" encoding="utf-8"?>
<!-- Generator: Adobe Illustrator 28.2.0, SVG Export Plug-In . SVG Version: 6.00 Build 0)  -->
<svg version="1.1" id="Capa_1" xmlns="http://www.w3.org/2000/svg" xmlns:xlink="http://www.w3.org/1999/xlink" x="0px" y="0px"
	 viewBox="0 0 231.5 64.6" style="enable-background:new 0 0 231.5 64.6;" xml:space="preserve">
<style type="text/css">
	.st0{fill:#1D1D1B;}
	.st1{fill:#3E588B;}
</style>
<g>
	<rect x="478.4" y="326.6" class="st0" width="98.3" height="1"/>
	<path class="st0" d="M501.4,145.8c14.4,0,25.6-6.5,25.6-20.8c0-14.8-11.1-20.3-24.9-20.3H502c-15.7,0-25.7,7.1-25.7,21
		C476.3,139,485.6,145.8,501.4,145.8z M494.8,110.3c1.4-2.5,3.5-4.1,6.6-4.1h0.1c3.3,0,5.4,1.5,7,4.6c1.5,2.7,2.7,9.1,2.7,15.5
		c0,6.2-1,10.7-2.1,13.5c-1.2,3-3.5,4.5-6.6,4.5c-3.1,0-5.9-1.6-7.5-5c-1.5-3.2-2.6-7.7-2.6-14.9C492.4,118.4,493.3,113,494.8,110.3
		z"/>
	<path class="st0" d="M531.9,85.8c0.3,3.6,0.4,7.5,0.4,13.1v22c0,9.4-0.2,17.9-0.3,24.9l0.4,0.3c2.9-1,7-1.9,10.7-2.7
		c2.7,1.3,8.5,2.5,12.9,2.5c14.9,0,24.9-6.4,24.9-22.7c0-4.4-1-8.5-2.9-11.4c-2.8-4.7-7.4-6.9-13.5-7c-7.1-0.1-11.9,2.4-17.4,6.8
		v-6.2c0-13.1,0.6-22.5,0.6-24.5c-6.1,1-17.7,1.5-21.2,1.5v1.3C531.3,83.4,531.8,83.7,531.9,85.8z M547.2,114.8
		c1.3-3.3,4.5-6.3,9-6.3c3.4,0,5.5,1.6,6.8,4.1c1.6,2.9,2.4,7,2.4,11.4c0,15.6-4.1,20.4-10.2,20.4H555c-2.7,0-5.3-1-7.4-3.9
		c-0.9-1.3-1.2-2.3-1.2-13.2C546.4,118.4,546.6,116.3,547.2,114.8z"/>
	<path class="st0" d="M505.1,223.7c0.2,2.9,0.7,4.6,1.8,5.9c2.1,2.6,5.8,3.8,10.7,3.8c7.9,0,14.1-3.7,16-9.2l-1.2-2.7h-0.5
		c-0.5,3.5-3.3,9-8.3,9c-1.8,0-3-0.8-3.2-2.9c-0.5-3.4-0.5-9.5-0.5-16.1c0-6.8,0.1-12.3,0.1-15.4l12.2-0.7l0.2-1.6H520
		c0-4.4,0.5-13,0.6-16.2l-0.5-0.2c-2.1,1.5-8.5,3.5-14.6,4.5c0,3.8-0.1,9.3-0.1,11.9h-5.7l-0.5,1.6l6.1,0.5
		C505.3,203.9,504.8,217,505.1,223.7z"/>
	<path class="st0" d="M558,233.6c14.4,0,25.6-6.5,25.6-20.8c0-14.8-11.1-20.3-24.9-20.3h-0.1c-15.7,0-25.7,7.1-25.7,21
		C533,226.8,542.2,233.6,558,233.6z M551.4,198.1c1.4-2.5,3.5-4.1,6.6-4.1h0.1c3.3,0,5.4,1.5,7,4.6c1.5,2.7,2.7,9.1,2.7,15.5
		c0,6.2-1,10.7-2.1,13.5c-1.2,3-3.5,4.5-6.6,4.5s-5.9-1.6-7.5-5c-1.5-3.2-2.6-7.7-2.6-14.9C549.1,206.3,550,200.8,551.4,198.1z"/>
	<path class="st0" d="M578.8,274.8c-5.8,0-9.1,3.5-12.3,10.5h-0.3c0.1-4.9-0.4-9-0.7-10.2l-0.4-0.2c-3.8,1.3-14.8,2-19,2l0.3,1.4
		h2.7c1.2,0,1.6,0.5,1.7,1.3c0.6,2.8,0.8,7.7,0.8,13.3v6c0,6.7-0.2,10.4-0.4,12.3c-0.2,1.8-1,2.4-5.1,2.5l-0.5,1.3
		c3.5-0.1,8.2-0.4,13.4-0.4c5.5,0,10.5,0.3,14.9,0.4l0.4-1.3c-6.7-0.4-7.8-0.8-7.9-3.1c-0.1-2.2-0.2-7.1-0.2-18.9
		c0-2.3,0.2-3.1,0.7-4.3c0.9-2.9,2.5-5.2,4.8-5.2c2.2,0,2.7,1.8,3.2,4.4c0.3,1.3,1.6,2.7,4,2.7c2.1,0,6.7-1.2,6.7-7.3
		C585.8,278.6,583.6,274.8,578.8,274.8z"/>
	<path class="st0" d="M479.3,71.5l-3.5,5.3c-1.9-4.4-7.1-7.5-13.9-7.5c-8.7,0-15.5,4.3-20.7,9.4c-11.2,11.3-17.9,31.4-17.9,45.4
		c0,13.8,5.5,24.6,20.8,24.6c12.9,0,22.2-10,25.1-15.5c0-1.4,0-2.8-0.1-4h-0.5c-3.6,9.1-10.6,16.9-22.5,16.9c-4.9,0-9.1-2-12-5.9
		c-2.2-2.8-3.7-9-3.7-15c0-15.7,6.1-34.6,15.6-46.1c5.2-5.9,10.7-8.1,16.1-8.1c5.5,0,8.4,2.5,10.1,6.4c1.4,3.5,1.2,8.7-0.2,14.8h1.2
		c1-3.1,4.7-14.5,7-19.8L479.3,71.5z"/>
</g>
<g>
	<path class="st1" d="M667.3,312.1L667.3,312.1c-3.4,0-6,2.6-6,6c0,3.5,2.7,6,6,6s6-2.5,6-6C673.2,314.7,670.5,312.1,667.3,312.1z"
		/>
	<path class="st1" d="M616.7,281.2c3-1.9,6-4.7,6-9c0-4.8-1.8-9.5-9-9.5c-4.2,0-8.8,1.9-12.4,5.2c-8.9,8.4-14.4,23.2-14.4,34.6
		c0,7.5,2.8,13.6,10.7,13.6c8.3,0,16-5,20.5-13.5l-0.2-3.6h-0.5c-3.5,9.1-9,14.2-16.7,14.2c-5.5,0-7.7-4.6-7.7-11.4
		c0-3.4,0.7-8.5,1.6-11.7C601.1,288.6,611,285,616.7,281.2z M612.6,264.3h0.1c2.6,0,4.7,2,4.7,6.7c0,3.8-1.7,8.4-6.6,11.4
		c-3.1,1.6-10.2,4.3-15.6,5.4C600.6,268.9,608.5,264.3,612.6,264.3z"/>
	<path class="st1" d="M654.2,266.5c-1-1.8-4.4-3.8-8.7-3.8c-3.5,0-6.6,0.8-9.5,3.5c-3.4,3.1-4.9,7.1-4.9,11.4c0,3.7,1.3,6.5,3.6,9
		c2.6,3.5,6.2,7.9,8.2,10.6c1.6,2.2,2,4.3,1.9,7c-0.4,7.6-5.5,10.3-10,10.3c-6,0-9.6-2.6-9.4-8.7c0.1-2.4,1.2-7,1.7-8.8l-1.4,0.7
		c-1.7,6.1-3.6,11.7-4.9,14.3c3.8,2.9,9.4,4,13.2,4c4.6,0,8.3-1.6,11.2-4c2.5-2.2,4.8-5.9,5-10.7c0.1-4.3-1.1-6.7-3.8-9.7
		c-2.4-2.8-6.4-7.6-8.2-10.1c-1.6-1.9-2.2-3.6-2.2-6.5c0-5.4,3-10.8,8.7-10.8c5.9,0,8.5,4.8,6,14.9h1.3c1.2-4.6,3.1-10.2,5.5-15.4
		l-0.7-1.2L654.2,266.5z"/>
	<path class="st1" d="M607.3,145.8c9.3,0,17.8-3.9,20.8-13.9l-1.2-0.7c-2.4,6.1-6.1,10.9-13.9,10.9c-5.8,0-9-2.1-10.9-5.8
		c-1.6-3.2-2.5-7.6-2.4-10.9c5.3,0,11.1,0,12.8,0c8.9,0,12.8-0.8,13.9-1.3c1.1-0.7,1.6-1.7,1.6-3.4c0-4.2-2.5-16-20.1-16
		c-15.3,0-23.8,8-23.8,20.8c0,5.8,1.6,10.8,4.6,14C592.6,143.5,598.3,145.8,607.3,145.8z M607.9,106L607.9,106c6,0,7.2,9,7.2,13.2
		c0,2.1-1,3.3-2,3.7c-1.2,0.5-3.3,0.6-6.9,0.7c-2.1,0-4.2,0-6.4,0.1C600,112.5,603.1,106,607.9,106z"/>
	<path class="st1" d="M668.1,111.7c0-3.3-2.2-7-7-7c-5.8,0-9.1,3.5-12.3,10.5h-0.3c0.1-4.9-0.4-9-0.7-10.2l-0.4-0.2
		c-3.8,1.3-14.8,2-19,2l0.3,1.4h2.7c1.2,0,1.6,0.5,1.7,1.3c0.6,2.8,0.8,7.7,0.8,13.3v6c0,6.7-0.2,10.4-0.4,12.3
		c-0.2,1.8-1,2.4-5.1,2.5l-0.5,1.3c3.5-0.1,8.2-0.4,13.4-0.4c5.5,0,10.5,0.3,14.9,0.4l0.4-1.3c-6.7-0.4-7.8-0.8-7.9-3.1
		c-0.1-2.2-0.2-7.1-0.2-18.9c0-2.3,0.2-3.1,0.7-4.3c0.9-2.9,2.5-5.2,4.8-5.2c2.2,0,2.7,1.8,3.2,4.4c0.3,1.3,1.6,2.7,4,2.7
		C663.5,119,668.1,117.8,668.1,111.7z"/>
</g>
<g>
	<path class="st0" d="M421.5,414.5c-0.2-0.9-0.5-2.5-0.6-3.3c-0.1-0.7,0-1.1,0.3-1.8c0.6-1.1,1.9-1.7,3-1.1c1.3,0.8,1.3,2.2-0.6,4.1
		l0.3,0.2c0.9-0.9,2-1.9,3.3-2.7l0-0.3l-1.1,0.5c0-0.5-0.5-1.4-1.5-2c-0.8-0.5-1.7-0.7-2.7-0.5c-1.1,0.3-2,0.9-2.6,1.9
		c-0.5,0.9-0.6,1.7-0.4,2.5c0.1,1.1,0.4,2.6,0.5,3.4c0.1,0.6-0.1,1.1-0.4,1.6c-0.9,1.4-2.2,1.4-3.2,0.8c-1.3-0.8-1.7-2-0.8-3.4
		c0.4-0.5,1-1.2,1.4-1.6l-0.4-0.1c-1.2,1.2-2.4,2.2-3.1,2.7c0.5,1,1.5,2.1,2.5,2.6c1.1,0.6,2.2,0.8,3.2,0.6c0.9-0.2,1.9-0.7,2.5-1.7
		C421.6,416.1,421.7,415.4,421.5,414.5z"/>
	<path class="st0" d="M432.1,423.8c-1.2,0.9-2.8,1.4-3.5,1c-0.3-0.2-0.1-0.5,0.2-0.9c2.4-2.6,6.5-6.4,8.8-8.2
		c-1.1-0.2-2.9-0.9-3.9-1.4l-0.3,0.2l1.3,0.7c0.3,0.1,0.2,0.3,0.1,0.4c-0.8,0.8-2.4,2.3-4,3.7c-2.2,1.9-5.6,3.6-7.3,2.6
		c-0.7-0.4-0.3-1.1,0.4-1.8c2.3-2.5,7.1-6.9,8.3-7.6c-1.1-0.2-2.6-0.8-3.9-1.4l-0.3,0.2l1.2,0.7c0.4,0.2,0.3,0.3,0.1,0.5
		c-0.5,0.5-4.7,4.3-6.8,6.4c-1.3,1.3-1.9,2.4-0.3,3.3c1.8,1,4.3,0.4,6.7-0.9c-0.5,0.4-0.7,0.6-1,0.9c-0.9,0.9-2,2.2-0.7,2.9
		c1.5,0.8,3.7,0,5-0.9L432.1,423.8z"/>
	<path class="st0" d="M439.7,430.4c-0.3-0.2-0.1-0.7,0.3-1.1c1.8-2.3,5.2-6,7.7-8.5l-1.8-0.9l-0.6,0.7c0.1-0.7-0.2-1.4-1.1-1.8
		c-0.8-0.4-1.6-0.5-2.8-0.3c-3.3,0.4-7.5,4-8.9,6.8c-0.6,1.2-0.7,2.4,0.6,3c2.1,1,5.2-0.6,6.6-1.5c0,0,0.1,0,0.1,0
		c-0.3,0.3-0.8,0.9-1,1.1c-0.7,0.9-1.8,2.3-0.5,3c1.6,0.8,3.8-0.4,4.8-1.2l-0.1-0.4C442.1,430,440.5,430.8,439.7,430.4z
		 M434.5,427.9c-0.6-0.3-0.4-1.1-0.1-1.6l0,0c1.1-2.3,4.3-5.3,7-6.6c1.4-0.7,2.2-0.6,2.8-0.3c0.7,0.3,0.8,0.9,0.3,1.9
		c-0.5,1-3.3,3.8-4.5,4.7C437.6,427.6,435.6,428.4,434.5,427.9z"/>
	<path class="st0" d="M456.7,425.2c0.2-0.6,0.3-1.2,0.1-1.3c-0.2-0.1-0.9,0-1.4,0.1c-0.1,0.3-0.2,0.6-0.4,1
		c-1.3,2.7-5.4,5.4-8.5,7.1c0.4-1,1.3-2.8,1.9-4.1c1.2-2.4,2.2-4.5,3.2-6c-1.2-0.1-2.6-0.5-3.8-0.8l-0.3,0.2l1.1,0.5
		c0.3,0.1,0.4,0.3,0.3,0.6c-0.4,1.3-3.4,7.2-5.2,10.7c0.5,0.1,1,0.1,1.4,0.3c2-1.2,7.6-4.6,9.6-6.3
		C455.8,426.5,456.4,425.8,456.7,425.2z"/>
	<path class="st0" d="M462.1,422.7c0.6,0.2,1.3-0.1,1.6-0.8c0.2-0.6,0.1-1.2-0.5-1.4l0,0c-0.6-0.2-1.3,0.1-1.7,0.8
		C461.3,422,461.6,422.5,462.1,422.7z"/>
	<path class="st0" d="M454.5,436.3c-0.3-0.1-0.3-0.3,0-0.8c1.7-2.6,6-8.7,7.1-9.7l0-0.1c-1.1,0-3.1-0.5-4.1-0.7l-0.3,0.3
		c0.6,0.2,1.2,0.4,1.5,0.5c0.3,0.1,0.2,0.2,0.1,0.5c-1.2,1.9-4,5.7-5.5,7.7c-1.1,1.4-1.4,2.5-0.2,2.9c1.5,0.5,3.4-0.3,4.8-1.6
		l-0.1-0.4C456.8,435.7,455.3,436.6,454.5,436.3z"/>
	<path class="st0" d="M466.9,439.9c-0.5-0.1,0-0.9,0.2-1.5c0.5-1,1.3-2.4,2.4-4.3c3.3-5.8,6.3-10.7,7.4-12.3c-1,0-3-0.3-4.3-0.6
		l-0.2,0.3c0.8,0.2,1.2,0.3,1.5,0.4c0.2,0.1,0.3,0.2,0.1,0.5c-0.4,0.9-1.7,3.2-3.8,6.7c-0.1-0.8-0.7-1.4-1.7-1.6
		c-1.2-0.3-2.3-0.1-3.5,0.4c-3.1,1.3-5.9,4.9-6.6,7.9c-0.4,1.4-0.2,2.8,1.3,3.1c2.4,0.6,5-1.3,6.5-2.9c-0.2,0.3-0.4,0.7-0.6,1.1
		c-0.8,1.3-1.4,3-0.1,3.3c1.4,0.4,3.1-0.5,4.5-2.1l-0.2-0.3C469,439,467.6,440.1,466.9,439.9z M466.1,435.4c-2.1,2.3-3.8,3.4-5,3.1
		c-0.7-0.2-0.8-1.1-0.6-1.8l0,0c0.8-3.1,3.3-6.3,5.4-7.8c1.1-0.7,2-1,2.8-0.8c1,0.2,1,1.2,0.9,1.8
		C469.3,431,467.3,434.1,466.1,435.4z"/>
	<path class="st0" d="M479,441.9c-0.4,0-0.3-0.6-0.1-1.1c1-2.7,3-7.3,4.6-10.5l-1.9-0.3l-0.4,0.9c-0.1-0.7-0.6-1.3-1.6-1.4
		c-0.9-0.1-1.7,0-2.7,0.5c-3,1.4-5.9,6.1-6.3,9.2c-0.2,1.3,0.1,2.5,1.5,2.7c2.3,0.3,4.8-2.2,5.8-3.5c0,0,0.1,0,0.1,0
		c-0.2,0.4-0.4,1.1-0.6,1.3c-0.4,1-1,2.8,0.5,3c1.8,0.2,3.5-1.6,4.1-2.6l-0.2-0.3C481.1,440.7,479.8,442,479,441.9z M477.8,437.5
		c-1.7,2.4-3.4,3.8-4.6,3.6c-0.7-0.1-0.7-0.9-0.6-1.4l0,0c0.4-2.6,2.4-6.4,4.6-8.5c1.1-1.1,1.9-1.3,2.6-1.2c0.7,0.1,1.1,0.6,0.9,1.7
		C480.5,432.8,478.7,436.3,477.8,437.5z"/>
	<path class="st0" d="M491.7,442.6c-0.5,0-0.3-0.9-0.1-1.5c0.3-1,0.7-2.7,1.3-4.8c1.9-6.4,3.7-11.8,4.4-13.6c-0.9,0.2-3,0.4-4.3,0.4
		l-0.2,0.3c0.8,0,1.2,0.1,1.6,0.1c0.2,0,0.4,0.1,0.3,0.5c-0.2,1-1,3.5-2.2,7.4c-0.3-0.8-1-1.2-2-1.2c-1.2,0-2.3,0.4-3.3,1.2
		c-2.7,2-4.6,6.1-4.6,9.2c0,1.4,0.5,2.7,2,2.8c2.5,0,4.5-2.4,5.7-4.3c-0.1,0.4-0.2,0.8-0.4,1.2c-0.4,1.5-0.6,3.3,0.6,3.3
		c1.5,0,2.9-1.2,3.9-3.1l-0.2-0.3C493.6,441.2,492.4,442.6,491.7,442.6z M489.9,438.4c-1.5,2.7-3,4.1-4.2,4.1c-0.7,0-1-0.9-1-1.6
		l0,0c0.1-3.2,1.8-6.9,3.5-8.8c0.9-1,1.7-1.4,2.6-1.4c1,0,1.3,1,1.3,1.6C492,433.4,490.8,436.9,489.9,438.4z"/>
	<path class="st0" d="M506.2,433.1c-0.9,2.5-1.7,4.8-2.4,6.9c-0.4-3-1.3-8.1-1.5-10.6c-0.8,0.5-2.7,1.1-3.8,1.3l-0.1,0.4
		c1.7-0.3,1.8-0.3,1.9,0.3c0.4,1.6,1.3,6.6,1.8,10.6c0.1,0.6,0.3,1.1,0.5,1.3c-1.1,3.7-2,5.5-3.2,5.7c-0.4,0.1-0.8-0.2-1-0.9
		c-0.1-0.2-0.3-0.5-0.7-0.4c-0.5,0.1-0.9,0.6-0.9,1.3c0.1,0.7,0.7,1.5,1.8,1.3c1.7-0.2,2.7-1.6,4.3-6.4c1.4-4.1,2.7-8.1,4.2-11.1
		c1.2-2.7,2.1-3.7,2.9-4l-0.1-0.3C508.3,428.6,507.3,430.2,506.2,433.1z"/>
	<path class="st0" d="M521.5,434.5c-0.3,2.3-1.3,4.1-3.1,4.6c-1.2,0.3-2.1-0.4-2.5-2c-0.6-2.1-0.6-4.3-0.2-6.2
		c0.5-2.7,1.3-4,2.4-4.3c0.8-0.2,1.2,0.1,1.3,0.7c0.1,0.4,0,0.8,0,1.2c0,0.2,0,0.5,0.2,0.7c0.2,0.1,0.4,0.2,0.7,0.1
		c0.5-0.1,1.1-0.8,0.8-1.9c-0.3-1-1.1-1.8-2.9-1.4c-1.5,0.4-2.4,1.5-3.1,2.6c-1.6,2.5-1.9,6-1.2,8.6c0.6,2.1,1.8,3.2,3.9,2.7
		c2.3-0.6,3.7-2.8,4.1-4.7L521.5,434.5L521.5,434.5z"/>
	<path class="st0" d="M532,434.5c-0.3,0.1-0.5-0.4-0.6-0.9c-0.4-2.9-0.6-7.9-0.7-11.5l-1.8,0.7l0,0.9c-0.4-0.6-1.1-0.8-2.1-0.5
		c-0.8,0.3-1.5,0.8-2.2,1.7c-2,2.6-2.4,8.1-1.4,11.1c0.4,1.2,1.2,2.1,2.5,1.7c2.2-0.8,3.2-4.1,3.6-5.8c0,0,0.1,0,0.1,0
		c0,0.4,0.1,1.1,0.1,1.4c0.1,1.1,0.4,2.9,1.8,2.4c1.7-0.6,2.4-3,2.5-4.3l-0.3-0.2C533.4,432.5,532.8,434.2,532,434.5z M528.9,431.2
		c-0.4,2.9-1.3,4.9-2.4,5.3c-0.6,0.2-1-0.5-1.2-1l0,0c-0.9-2.5-0.8-6.8,0.2-9.6c0.5-1.4,1.1-2,1.8-2.2c0.7-0.3,1.2,0.1,1.6,1.1
		C529.2,425.7,529.2,429.7,528.9,431.2z"/>
	<path class="st0" d="M537.4,432.1c-0.4,0.2-0.5-0.2-0.6-0.7c-0.4-1.7-0.8-4.5-1.5-9.5c-0.7-4.9-1.1-8.6-1.2-10.1
		c-0.8,0.7-2.3,1.5-3.7,2.2l0,0.3l1.3-0.5c0.3-0.1,0.4-0.1,0.5,0.2c0.3,1.5,0.6,3.4,1.3,8.8c0.5,3.4,0.8,6,1.2,8.7
		c0.1,1.1,0.5,2.6,1.9,2c1.4-0.6,2.3-2.5,2.5-4.6l-0.3-0.2C538.7,430.3,538,431.9,537.4,432.1z"/>
	<path class="st0" d="M539.3,414.4c0.6-0.3,1-1,0.7-1.7c-0.2-0.6-0.7-0.9-1.3-0.7l0,0c-0.6,0.3-1,1-0.7,1.7
		C538.2,414.5,538.8,414.7,539.3,414.4z"/>
	<path class="st0" d="M542.9,429.7c-0.3,0.1-0.4,0-0.5-0.6c-0.5-3.1-1.4-10.5-1.4-12l-0.1,0c-0.8,0.8-2.6,1.7-3.5,2.3l0,0.4
		c0.6-0.3,1.2-0.5,1.5-0.7c0.3-0.1,0.3,0,0.4,0.3c0.4,2.2,0.9,6.9,1.2,9.4c0.2,1.8,0.6,2.8,1.8,2.3c1.5-0.6,2.3-2.6,2.4-4.5
		l-0.4-0.2C544.3,427.6,543.7,429.3,542.9,429.7z"/>
	<path class="st0" d="M555.1,425.1c-0.5,0.2-0.5-0.8-0.6-1.3c-0.1-1.1-0.2-2.7-0.4-4.9c-0.4-6.7-0.6-12.4-0.5-14.3
		c-0.8,0.5-2.7,1.4-3.9,1.9l0,0.4c0.7-0.3,1.2-0.4,1.5-0.5c0.2-0.1,0.4,0,0.4,0.4c0.1,1,0.3,3.6,0.4,7.7c-0.5-0.6-1.3-0.7-2.3-0.4
		c-1.1,0.4-2,1.2-2.6,2.3c-1.9,2.8-2.2,7.3-1.2,10.2c0.5,1.4,1.4,2.4,2.8,1.9c2.4-0.8,3.5-3.8,3.9-6c0,0.4,0.1,0.8,0.1,1.2
		c0.1,1.6,0.5,3.3,1.7,2.9c1.4-0.5,2.3-2.1,2.6-4.2l-0.3-0.2C556.4,423.1,555.8,424.8,555.1,425.1z M552,421.7
		c-0.5,3-1.4,4.9-2.5,5.3c-0.7,0.2-1.3-0.5-1.5-1.2l0,0c-1-3-0.7-7.1,0.3-9.5c0.5-1.2,1.1-1.9,1.9-2.2c0.9-0.3,1.5,0.5,1.7,1.1
		C552.3,416.3,552.3,420.1,552,421.7z"/>
	<path class="st0" d="M566.1,419c-0.4,2.4-1.6,4-3.4,4.3c-1.3,0.3-2-0.7-2.3-2.4c-0.2-0.9-0.2-2.2-0.2-3c1.4-0.6,3.7-1.9,4.9-3.1
		c0.6-0.5,1.2-1.4,1-2.5c-0.3-1.3-1.1-2.4-2.9-2c-1.1,0.2-2.2,0.9-3,2c-1.8,2.5-2.5,6.2-1.9,8.9c0.4,2,1.5,3.3,3.5,2.9
		c2.3-0.5,3.9-2.3,4.6-4.4l-0.3-1L566.1,419z M563,411L563,411c0.6-0.1,1.1,0.3,1.3,1.3c0.2,1.1,0,2.4-1,3.4c-0.6,0.5-2,1.3-3.1,1.8
		C560.6,412.4,562.2,411.2,563,411z"/>
	<path class="st0" d="M576.6,417.5L576.6,417.5c-0.2,0-0.4,0.4-0.6,0.6c-0.1,0.2-0.1,0.2,0,0.5c0,0.2,0.1,0.4,0.1,0.5
		c0,0.9-0.4,2-2,2.1c-0.6,0-1.8-0.1-2.9-0.3c-0.8-0.1-1.5-0.2-2-0.1c2.4-3.1,5.5-6.7,7.2-9.2c0.6-0.8,1.1-1.8,1.3-2.2l-0.1-0.1
		c-0.3,0.2-1.1,0.3-2.2,0.4c-2,0.1-3.4,0.2-4,0.2c-0.5,0-0.8-0.1-1-0.3c0,0.6-0.6,2.2-1.4,4.6l0.3,0.2c0.6-1.6,1.1-2.4,1.7-2.6
		c0.6-0.2,2.2-0.3,5.2-0.5c-2.6,3.5-6.6,8.4-7.8,9.8c-0.2,0.3-0.9,1.1-1.1,1.6l0.2,0.2c0.4-0.5,0.8-0.6,1.2-0.6c0.4,0,1,0.1,1.5,0.2
		c0.9,0.2,2,0.5,2.9,0.4c0.5,0,1.1-0.3,1.5-0.6c0.8-0.6,2.5-2.1,2.3-4.3C576.8,417.7,576.8,417.5,576.6,417.5z"/>
</g>
<g>
	<path class="st0" d="M26,26.7c-0.8-0.4-1.4-1-1.8-1.8c-0.4-0.8-0.6-1.7-0.6-2.8c0-1,0.2-2,0.6-2.8c0.4-0.8,1-1.5,1.8-1.9
		c0.8-0.5,1.6-0.7,2.6-0.7c1.2,0,2.1,0.2,2.9,0.8c0.7,0.5,1.3,1.3,1.5,2.4l-2.1,0.5c-0.2-0.6-0.4-1.1-0.8-1.4
		c-0.4-0.3-0.8-0.5-1.4-0.5c-0.5,0-0.9,0.1-1.3,0.4c-0.4,0.3-0.6,0.7-0.8,1.2s-0.3,1.2-0.3,2c0,0.7,0.1,1.4,0.3,1.9
		c0.2,0.5,0.5,0.9,0.8,1.2c0.4,0.3,0.8,0.4,1.3,0.4c0.6,0,1.1-0.1,1.4-0.4c0.3-0.3,0.6-0.7,0.9-1.4l2,0.6c-0.3,1-0.9,1.7-1.6,2.2
		c-0.7,0.5-1.7,0.8-2.8,0.8C27.6,27.3,26.8,27.1,26,26.7z"/>
	<path class="st0" d="M34.7,26.5c-0.6-0.5-0.9-1.2-0.9-2c0-0.8,0.2-1.5,0.7-2c0.5-0.5,1.2-0.9,2.2-1.2c1-0.3,2.3-0.4,3.9-0.4
		l0.1,1.5c-1,0-1.8,0.1-2.5,0.2c-0.6,0.1-1.1,0.3-1.4,0.6s-0.5,0.6-0.5,1c0,0.4,0.1,0.7,0.4,1c0.2,0.2,0.6,0.4,1.1,0.4
		c0.7,0,1.3-0.2,1.8-0.6c0.5-0.4,0.9-1,1.1-1.8l0.5,1.5c-0.4,0.9-1,1.6-1.7,2c-0.7,0.4-1.5,0.7-2.4,0.7C36.1,27.3,35.3,27,34.7,26.5
		z M40.5,25.1l-0.1-0.3v-4.4c0-0.7-0.2-1.2-0.5-1.5c-0.3-0.4-0.8-0.5-1.5-0.5c-0.6,0-1.1,0.1-1.4,0.5c-0.4,0.3-0.6,0.8-0.8,1.4
		L34,19.8c0.2-1,0.7-1.8,1.5-2.3c0.8-0.5,1.8-0.8,3.1-0.8c0.9,0,1.7,0.1,2.4,0.4c0.7,0.3,1.2,0.7,1.5,1.3s0.5,1.2,0.5,2v4.4
		c0,0.1,0,0.1,0,0.2c0,0.4,0,0.7,0,1s0.1,0.6,0.2,0.9V27h-2.5C40.5,26.5,40.5,25.9,40.5,25.1z"/>
	<path class="st0" d="M44.9,17h2.5v2.1l0.1,0.3V27h-2.6V17z M50.9,19.2c-0.3-0.3-0.6-0.5-1.2-0.5c-0.4,0-0.8,0.2-1.2,0.5
		c-0.4,0.3-0.7,0.8-1.1,1.4l-0.3-1.5c0.5-0.8,1-1.4,1.6-1.9s1.3-0.6,2-0.6c0.7,0,1.2,0.1,1.7,0.4c0.5,0.3,0.8,0.7,1.1,1.2
		c0.3,0.6,0.4,1.2,0.4,2V27h-2.6v-6.2C51.3,20,51.1,19.5,50.9,19.2z M57.2,19.2c-0.3-0.3-0.6-0.5-1.2-0.5c-0.4,0-0.8,0.1-1.2,0.4
		s-0.8,0.8-1.1,1.5l-0.3-1.5c0.5-0.8,1-1.4,1.6-1.9s1.3-0.6,2-0.6c0.7,0,1.2,0.1,1.7,0.4c0.5,0.3,0.8,0.7,1.1,1.2
		c0.3,0.6,0.4,1.2,0.4,2V27h-2.6v-6.2C57.6,20,57.5,19.5,57.2,19.2z"/>
	<path class="st0" d="M62.1,13h2.6v11.6L64.6,25l-0.3,2h-2.3V13z M70.1,17.3c0.6,0.4,1.1,1,1.4,1.8c0.3,0.8,0.5,1.7,0.5,2.7
		c0,1.1-0.2,2-0.5,2.9c-0.4,0.8-0.9,1.5-1.5,1.9c-0.6,0.5-1.4,0.7-2.2,0.7c-0.8,0-1.5-0.2-2-0.5c-0.6-0.4-1.1-0.9-1.5-1.6l0.4-1.6
		c0.3,0.5,0.5,0.9,0.8,1.1c0.2,0.3,0.5,0.5,0.8,0.6s0.6,0.2,0.9,0.2c0.5,0,0.9-0.1,1.2-0.4c0.3-0.3,0.6-0.7,0.8-1.2
		c0.2-0.5,0.3-1.1,0.3-1.9c0-0.7-0.1-1.4-0.3-1.9c-0.2-0.5-0.4-0.9-0.8-1.1c-0.3-0.3-0.7-0.4-1.2-0.4c-0.5,0-0.9,0.1-1.3,0.4
		c-0.4,0.3-0.7,0.7-1.1,1.4L64.2,19c0.5-0.8,1-1.4,1.6-1.8s1.3-0.5,2.1-0.5C68.7,16.7,69.5,16.9,70.1,17.3z"/>
	<path class="st0" d="M73.5,13h2.7v2.4h-2.7V13z M73.5,17h2.6v10h-2.6V17z"/>
	<path class="st0" d="M78.5,26.5c-0.6-0.5-0.9-1.2-0.9-2c0-0.8,0.2-1.5,0.7-2c0.5-0.5,1.2-0.9,2.2-1.2c1-0.3,2.3-0.4,3.9-0.4
		l0.1,1.5c-1,0-1.8,0.1-2.5,0.2c-0.6,0.1-1.1,0.3-1.4,0.6s-0.5,0.6-0.5,1c0,0.4,0.1,0.7,0.4,1c0.2,0.2,0.6,0.4,1.1,0.4
		c0.7,0,1.3-0.2,1.8-0.6c0.5-0.4,0.9-1,1.1-1.8l0.5,1.5c-0.4,0.9-1,1.6-1.7,2c-0.7,0.4-1.5,0.7-2.4,0.7C79.9,27.3,79.1,27,78.5,26.5
		z M84.3,25.1l-0.1-0.3v-4.4c0-0.7-0.2-1.2-0.5-1.5c-0.3-0.4-0.8-0.5-1.5-0.5c-0.6,0-1.1,0.1-1.4,0.5c-0.4,0.3-0.6,0.8-0.8,1.4
		l-2.2-0.4c0.2-1,0.7-1.8,1.5-2.3c0.8-0.5,1.8-0.8,3.1-0.8c0.9,0,1.7,0.1,2.4,0.4c0.7,0.3,1.2,0.7,1.5,1.3s0.5,1.2,0.5,2v4.4
		c0,0.1,0,0.1,0,0.2c0,0.4,0,0.7,0,1s0.1,0.6,0.2,0.9V27h-2.5C84.4,26.5,84.3,25.9,84.3,25.1z"/>
	<path class="st0" d="M94.6,26.7c-0.8-0.4-1.3-1-1.8-1.8c-0.4-0.8-0.6-1.7-0.6-2.8c0-1.1,0.2-2,0.7-2.8s1-1.5,1.8-1.9
		c0.8-0.5,1.6-0.7,2.6-0.7c1,0,1.9,0.2,2.6,0.6c0.7,0.4,1.2,1,1.6,1.7c0.4,0.7,0.6,1.6,0.6,2.7c0,0.2,0,0.4,0,0.5c0,0.1,0,0.2,0,0.4
		h-8.1v-1.7h7l-1.4,1.6c0-0.1,0-0.3,0-0.4s0-0.2,0-0.4c0-0.7-0.1-1.4-0.3-1.9c-0.2-0.5-0.4-0.9-0.8-1.1c-0.3-0.2-0.7-0.4-1.2-0.4
		c-0.5,0-0.9,0.1-1.3,0.4c-0.3,0.3-0.6,0.7-0.8,1.2S95,21.2,95,21.9c0,0.8,0.1,1.5,0.3,2s0.5,0.9,0.8,1.2s0.8,0.4,1.3,0.4
		c0.6,0,1.1-0.1,1.5-0.4c0.4-0.2,0.7-0.7,0.9-1.2l2,0.7c-0.4,0.9-1,1.5-1.8,2c-0.8,0.5-1.7,0.7-2.8,0.7
		C96.2,27.3,95.3,27.1,94.6,26.7z"/>
	<path class="st0" d="M103.5,13h2.6v14h-2.6V13z"/>
	<path class="st0" d="M112.2,13h2.6v14h-2.6V13z"/>
	<path class="st0" d="M118.8,26.7c-0.8-0.4-1.4-1-1.8-1.8c-0.4-0.8-0.6-1.8-0.6-2.9c0-1.1,0.2-2,0.7-2.9s1.1-1.4,1.9-1.9
		s1.7-0.6,2.7-0.6c1,0,1.8,0.2,2.6,0.6c0.8,0.4,1.4,1,1.8,1.8c0.4,0.8,0.7,1.8,0.7,2.9c0,1.1-0.2,2-0.7,2.9
		c-0.5,0.8-1.1,1.4-1.9,1.9s-1.7,0.6-2.6,0.6C120.5,27.3,119.6,27.1,118.8,26.7z M122.8,25.1c0.4-0.3,0.6-0.7,0.9-1.2s0.3-1.2,0.3-2
		c0-0.8-0.1-1.4-0.3-2c-0.2-0.5-0.5-0.9-0.9-1.2c-0.4-0.3-0.8-0.4-1.2-0.4c-0.5,0-0.9,0.1-1.3,0.4c-0.4,0.3-0.6,0.7-0.8,1.2
		c-0.2,0.5-0.3,1.2-0.3,2c0,0.8,0.1,1.4,0.3,2c0.2,0.5,0.5,0.9,0.8,1.2s0.8,0.4,1.3,0.4C122,25.5,122.4,25.4,122.8,25.1z"/>
	<path class="st0" d="M130.1,26.7c-0.8-0.4-1.4-1-1.8-1.8c-0.4-0.8-0.6-1.8-0.6-2.9c0-1.1,0.2-2,0.7-2.9c0.5-0.8,1.1-1.4,1.9-1.9
		s1.7-0.6,2.7-0.6c1,0,1.8,0.2,2.6,0.6c0.8,0.4,1.4,1,1.8,1.8c0.4,0.8,0.7,1.8,0.7,2.9c0,1.1-0.2,2-0.7,2.9
		c-0.5,0.8-1.1,1.4-1.9,1.9s-1.7,0.6-2.6,0.6C131.7,27.3,130.9,27.1,130.1,26.7z M134,25.1c0.4-0.3,0.6-0.7,0.9-1.2s0.3-1.2,0.3-2
		c0-0.8-0.1-1.4-0.3-2c-0.2-0.5-0.5-0.9-0.9-1.2c-0.4-0.3-0.8-0.4-1.2-0.4c-0.5,0-0.9,0.1-1.3,0.4c-0.4,0.3-0.6,0.7-0.8,1.2
		c-0.2,0.5-0.3,1.2-0.3,2c0,0.8,0.1,1.4,0.3,2c0.2,0.5,0.5,0.9,0.8,1.2s0.8,0.4,1.3,0.4C133.3,25.5,133.7,25.4,134,25.1z"/>
	<path class="st0" d="M139.4,13h2.6v14h-2.6V13z M140.8,21.5L146,17h2.8l-4.7,4.1l-2.3,2L140.8,21.5z M142.8,21.2l2-1.2l4,7H146
		L142.8,21.2z"/>
	<path class="st0" d="M155.4,26.7c-0.7-0.4-1.3-1-1.7-1.8c-0.4-0.8-0.6-1.7-0.6-2.8c0-1,0.2-2,0.6-2.8c0.4-0.8,1-1.5,1.7-1.9
		c0.7-0.4,1.5-0.7,2.5-0.7c1,0,1.9,0.2,2.6,0.7s1.2,1.2,1.5,2.2l-1.6,0.5c-0.2-0.7-0.5-1.2-0.9-1.6c-0.4-0.3-1-0.5-1.6-0.5
		c-0.6,0-1.1,0.2-1.5,0.5c-0.4,0.3-0.7,0.8-1,1.4c-0.2,0.6-0.4,1.3-0.4,2.2c0,0.8,0.1,1.5,0.4,2.1c0.2,0.6,0.6,1.1,1,1.4
		c0.4,0.3,1,0.5,1.6,0.5c0.6,0,1.2-0.2,1.6-0.5c0.4-0.3,0.8-0.8,1-1.5l1.4,0.6c-0.4,0.9-0.9,1.6-1.6,2c-0.7,0.5-1.5,0.7-2.5,0.7
		C157,27.3,156.2,27.1,155.4,26.7z"/>
	<path class="st0" d="M165.5,26.7c-0.7-0.4-1.3-1-1.7-1.8c-0.4-0.8-0.6-1.8-0.6-2.9c0-1.1,0.2-2.1,0.6-2.9c0.4-0.8,1-1.4,1.8-1.8
		c0.7-0.4,1.6-0.6,2.5-0.6s1.8,0.2,2.5,0.6c0.7,0.4,1.3,1,1.7,1.8c0.4,0.8,0.6,1.8,0.6,2.9c0,1.1-0.2,2.1-0.7,2.9
		c-0.4,0.8-1,1.4-1.8,1.9c-0.7,0.4-1.6,0.6-2.5,0.6C167,27.3,166.2,27.1,165.5,26.7z M169.6,25.5c0.4-0.3,0.8-0.8,1-1.3
		c0.2-0.6,0.4-1.3,0.4-2.2s-0.1-1.6-0.4-2.2c-0.2-0.6-0.6-1.1-1-1.4c-0.4-0.3-1-0.5-1.5-0.5c-0.6,0-1.1,0.2-1.6,0.5
		c-0.4,0.3-0.8,0.8-1,1.4c-0.2,0.6-0.4,1.3-0.4,2.2s0.1,1.6,0.4,2.2c0.2,0.6,0.6,1,1,1.3c0.4,0.3,1,0.5,1.6,0.5
		C168.6,26,169.1,25.8,169.6,25.5z"/>
	<path class="st0" d="M174.7,17h1.8v2l0.1,0.3V27h-1.9V17z M181,18.8c-0.3-0.4-0.8-0.5-1.5-0.5c-0.6,0-1.1,0.2-1.6,0.5
		c-0.5,0.4-1,0.9-1.4,1.7l-0.2-1.4c0.5-0.8,1-1.4,1.7-1.8c0.6-0.4,1.3-0.6,2.1-0.6c0.7,0,1.2,0.1,1.8,0.4c0.5,0.3,0.9,0.7,1.2,1.2
		c0.3,0.5,0.4,1.1,0.4,1.8V27h-1.9v-6.6C181.5,19.7,181.3,19.1,181,18.8z"/>
	<path class="st0" d="M26,47.7c-0.7-0.4-1.3-1-1.7-1.8c-0.4-0.8-0.6-1.7-0.6-2.8c0-1.1,0.2-2,0.6-2.8c0.4-0.8,1-1.4,1.7-1.9
		c0.7-0.4,1.6-0.7,2.5-0.7c0.9,0,1.8,0.2,2.4,0.6c0.7,0.4,1.2,1,1.5,1.7c0.4,0.7,0.5,1.6,0.5,2.6c0,0.2,0,0.3,0,0.4
		c0,0.1,0,0.2,0,0.3h-8.2V42h7.6l-1.2,1.3c0-0.1,0-0.2,0-0.2s0-0.1,0-0.2c0-0.8-0.1-1.5-0.3-2.1c-0.2-0.6-0.5-1-1-1.3
		c-0.4-0.3-0.9-0.4-1.5-0.4c-0.6,0-1.1,0.2-1.5,0.5c-0.4,0.3-0.8,0.8-1,1.4c-0.2,0.6-0.4,1.3-0.4,2.2c0,0.9,0.1,1.6,0.4,2.2
		s0.6,1,1,1.3c0.4,0.3,0.9,0.5,1.6,0.5c0.7,0,1.3-0.1,1.7-0.4c0.4-0.3,0.8-0.8,1.1-1.4l1.4,0.7c-0.4,0.8-1,1.5-1.7,1.9
		s-1.6,0.6-2.6,0.6C27.6,48.3,26.7,48.1,26,47.7z"/>
	<path class="st0" d="M35.6,47.7c-0.7-0.4-1.2-1-1.5-1.8l1.4-0.6c0.3,0.6,0.7,1,1.1,1.3c0.5,0.3,1.1,0.4,1.8,0.4
		c0.8,0,1.3-0.1,1.8-0.4c0.4-0.2,0.6-0.6,0.6-1.1c0-0.4-0.1-0.7-0.3-0.9c-0.2-0.2-0.5-0.4-0.9-0.6c-0.4-0.2-1-0.3-1.8-0.4
		c-0.8-0.1-1.4-0.3-1.9-0.6c-0.5-0.3-0.9-0.6-1.1-1s-0.4-0.9-0.4-1.4c0-0.6,0.2-1.1,0.5-1.6s0.8-0.8,1.4-1c0.6-0.2,1.3-0.3,2.1-0.3
		c1,0,1.9,0.2,2.5,0.6c0.6,0.4,1.1,1,1.4,1.8l-1.4,0.6c-0.3-0.6-0.6-1-1-1.2C39.6,39.1,39,39,38.4,39c-0.4,0-0.8,0.1-1.1,0.2
		c-0.3,0.1-0.5,0.3-0.7,0.5c-0.2,0.2-0.2,0.5-0.2,0.8c0,0.3,0.1,0.6,0.2,0.8s0.4,0.4,0.8,0.5c0.4,0.1,1,0.3,1.7,0.4
		c0.8,0.1,1.5,0.3,2,0.6s0.9,0.6,1.1,1c0.2,0.4,0.4,0.9,0.4,1.5c0,0.6-0.2,1.2-0.5,1.6c-0.3,0.5-0.8,0.8-1.4,1.1s-1.4,0.4-2.2,0.4
		C37.2,48.3,36.3,48.1,35.6,47.7z"/>
	<path class="st0" d="M43.3,38h6.5v1.4h-6.5V38z M46.1,47.5c-0.6-0.4-0.9-1.1-0.9-2.2v-6.6l0.1-0.4l0.1-3.1l1.7-0.1v9.6
		c0,0.7,0.1,1.2,0.4,1.5c0.3,0.3,0.8,0.4,1.4,0.4c0.1,0,0.3,0,0.5,0c0.2,0,0.3,0,0.5,0h0h0V48c-0.2,0-0.3,0-0.5,0.1
		c-0.2,0-0.4,0-0.6,0C47.6,48.1,46.7,47.9,46.1,47.5z"/>
	<path class="st0" d="M53,47.7c-0.7-0.4-1.3-1-1.7-1.8c-0.4-0.8-0.6-1.8-0.6-2.9c0-1.1,0.2-2.1,0.6-2.9c0.4-0.8,1-1.4,1.8-1.8
		c0.7-0.4,1.6-0.6,2.5-0.6s1.8,0.2,2.5,0.6c0.7,0.4,1.3,1,1.7,1.8c0.4,0.8,0.6,1.8,0.6,2.9c0,1.1-0.2,2.1-0.7,2.9
		c-0.4,0.8-1,1.4-1.8,1.9c-0.7,0.4-1.6,0.6-2.5,0.6C54.6,48.3,53.8,48.1,53,47.7z M57.1,46.5c0.4-0.3,0.8-0.8,1-1.3
		c0.2-0.6,0.4-1.3,0.4-2.2c0-0.9-0.1-1.6-0.4-2.2c-0.2-0.6-0.6-1.1-1-1.4c-0.4-0.3-1-0.5-1.5-0.5c-0.6,0-1.1,0.2-1.6,0.5
		c-0.4,0.3-0.8,0.8-1,1.4c-0.2,0.6-0.4,1.3-0.4,2.2c0,0.9,0.1,1.6,0.4,2.2s0.6,1,1,1.3c0.4,0.3,1,0.5,1.6,0.5
		C56.2,47,56.7,46.8,57.1,46.5z"/>
	<path class="st0" d="M63,47.7c-0.7-0.4-1.2-1-1.5-1.8l1.4-0.6c0.3,0.6,0.7,1,1.1,1.3c0.5,0.3,1.1,0.4,1.8,0.4
		c0.8,0,1.3-0.1,1.8-0.4c0.4-0.2,0.6-0.6,0.6-1.1c0-0.4-0.1-0.7-0.3-0.9c-0.2-0.2-0.5-0.4-0.9-0.6c-0.4-0.2-1-0.3-1.8-0.4
		c-0.8-0.1-1.4-0.3-1.9-0.6c-0.5-0.3-0.9-0.6-1.1-1s-0.4-0.9-0.4-1.4c0-0.6,0.2-1.1,0.5-1.6s0.8-0.8,1.4-1c0.6-0.2,1.3-0.3,2.1-0.3
		c1,0,1.9,0.2,2.5,0.6c0.6,0.4,1.1,1,1.4,1.8l-1.4,0.6c-0.3-0.6-0.6-1-1-1.2C67,39.1,66.4,39,65.8,39c-0.4,0-0.8,0.1-1.1,0.2
		c-0.3,0.1-0.5,0.3-0.7,0.5c-0.2,0.2-0.2,0.5-0.2,0.8c0,0.3,0.1,0.6,0.2,0.8c0.2,0.2,0.4,0.4,0.8,0.5c0.4,0.1,1,0.3,1.7,0.4
		c0.8,0.1,1.5,0.3,2,0.6s0.9,0.6,1.1,1c0.2,0.4,0.4,0.9,0.4,1.5c0,0.6-0.2,1.2-0.5,1.6c-0.3,0.5-0.8,0.8-1.4,1.1s-1.4,0.4-2.2,0.4
		C64.6,48.3,63.7,48.1,63,47.7z"/>
	<path class="st0" d="M77.5,47.7c-0.7-0.4-1.3-1-1.7-1.8c-0.4-0.8-0.6-1.7-0.6-2.8c0-1,0.2-2,0.6-2.8c0.4-0.8,1-1.5,1.7-1.9
		c0.7-0.4,1.5-0.7,2.5-0.7c1,0,1.9,0.2,2.6,0.7s1.2,1.2,1.5,2.2l-1.6,0.5c-0.2-0.7-0.5-1.2-0.9-1.6c-0.4-0.3-1-0.5-1.6-0.5
		c-0.6,0-1.1,0.2-1.5,0.5c-0.4,0.3-0.7,0.8-1,1.4c-0.2,0.6-0.4,1.3-0.4,2.2c0,0.8,0.1,1.5,0.4,2.2c0.2,0.6,0.6,1.1,1,1.4
		c0.4,0.3,1,0.5,1.6,0.5c0.6,0,1.2-0.2,1.6-0.5s0.8-0.8,1-1.5l1.4,0.6c-0.4,0.9-0.9,1.6-1.6,2c-0.7,0.5-1.5,0.7-2.5,0.7
		C79.1,48.3,78.3,48.1,77.5,47.7z"/>
	<path class="st0" d="M87.6,47.7c-0.7-0.4-1.3-1-1.7-1.8c-0.4-0.8-0.6-1.8-0.6-2.9c0-1.1,0.2-2.1,0.6-2.9c0.4-0.8,1-1.4,1.8-1.8
		c0.7-0.4,1.6-0.6,2.5-0.6s1.8,0.2,2.5,0.6c0.7,0.4,1.3,1,1.7,1.8c0.4,0.8,0.6,1.8,0.6,2.9c0,1.1-0.2,2.1-0.7,2.9
		c-0.4,0.8-1,1.4-1.8,1.9c-0.7,0.4-1.6,0.6-2.5,0.6C89.2,48.3,88.3,48.1,87.6,47.7z M91.7,46.5c0.4-0.3,0.8-0.8,1-1.3
		c0.2-0.6,0.4-1.3,0.4-2.2c0-0.9-0.1-1.6-0.4-2.2c-0.2-0.6-0.6-1.1-1-1.4c-0.4-0.3-1-0.5-1.5-0.5c-0.6,0-1.1,0.2-1.6,0.5
		c-0.4,0.3-0.8,0.8-1,1.4c-0.2,0.6-0.4,1.3-0.4,2.2c0,0.9,0.1,1.6,0.4,2.2s0.6,1,1,1.3c0.4,0.3,1,0.5,1.6,0.5
		C90.7,47,91.2,46.8,91.7,46.5z"/>
	<path class="st0" d="M96.8,38h1.8v2.1l0.1,0.3V48h-1.9V38z M102.9,39.8c-0.3-0.4-0.8-0.6-1.4-0.6c-0.5,0-1.1,0.2-1.5,0.6
		c-0.5,0.4-0.9,1-1.4,1.8l-0.2-1.4c0.5-0.9,1.1-1.5,1.7-1.9c0.6-0.4,1.3-0.6,2-0.6c0.7,0,1.3,0.2,1.8,0.5s0.8,0.7,1.1,1.3
		c0.2,0.6,0.4,1.2,0.4,2V48h-1.8v-6.3C103.4,40.8,103.2,40.2,102.9,39.8z M109.4,39.8c-0.3-0.4-0.8-0.6-1.4-0.6
		c-0.5,0-1,0.2-1.5,0.6c-0.5,0.4-0.9,1-1.4,1.8l-0.2-1.4c0.5-0.9,1.1-1.5,1.7-1.9c0.6-0.4,1.3-0.6,2-0.6c0.7,0,1.2,0.2,1.7,0.5
		c0.5,0.3,0.9,0.7,1.1,1.3c0.2,0.6,0.4,1.2,0.4,2V48h-1.9v-6.3C109.9,40.8,109.7,40.2,109.4,39.8z"/>
	<path class="st0" d="M114.1,38h1.8v2l0.1,0.3v11.4h-1.9V38z M121.4,38.3c0.6,0.4,1.1,1,1.4,1.8s0.5,1.7,0.5,2.8
		c0,1.1-0.2,2-0.5,2.8c-0.4,0.8-0.9,1.5-1.5,1.9c-0.6,0.5-1.4,0.7-2.2,0.7c-0.8,0-1.5-0.2-2.1-0.6c-0.6-0.4-1.1-1-1.5-1.8l0.4-1.3
		c0.3,0.5,0.6,1,0.9,1.3c0.3,0.3,0.6,0.6,0.9,0.7c0.3,0.2,0.7,0.2,1.1,0.2c0.5,0,1-0.2,1.4-0.5s0.7-0.8,0.9-1.4
		c0.2-0.6,0.3-1.3,0.3-2.1c0-0.8-0.1-1.5-0.3-2.1c-0.2-0.6-0.5-1-0.9-1.3s-0.9-0.4-1.4-0.4c-0.6,0-1.1,0.2-1.6,0.5
		c-0.4,0.3-0.9,0.9-1.3,1.7l-0.3-1.2c0.4-0.9,0.9-1.5,1.5-1.9c0.6-0.4,1.3-0.6,2.1-0.6C120.1,37.7,120.8,37.9,121.4,38.3z"/>
	<path class="st0" d="M125.2,34h1.9v14h-1.9V34z"/>
	<path class="st0" d="M131.2,47.7c-0.7-0.4-1.3-1-1.7-1.8c-0.4-0.8-0.6-1.7-0.6-2.8c0-1.1,0.2-2,0.6-2.8c0.4-0.8,1-1.4,1.7-1.9
		c0.7-0.4,1.6-0.7,2.5-0.7c0.9,0,1.8,0.2,2.4,0.6c0.7,0.4,1.2,1,1.5,1.7c0.4,0.7,0.5,1.6,0.5,2.6c0,0.2,0,0.3,0,0.4
		c0,0.1,0,0.2,0,0.3h-8.2V42h7.6l-1.2,1.3c0-0.1,0-0.2,0-0.2s0-0.1,0-0.2c0-0.8-0.1-1.5-0.3-2.1c-0.2-0.6-0.5-1-1-1.3
		c-0.4-0.3-0.9-0.4-1.5-0.4c-0.6,0-1.1,0.2-1.5,0.5c-0.4,0.3-0.8,0.8-1,1.4c-0.2,0.6-0.4,1.3-0.4,2.2c0,0.9,0.1,1.6,0.4,2.2
		s0.6,1,1,1.3c0.4,0.3,0.9,0.5,1.6,0.5c0.7,0,1.3-0.1,1.7-0.4c0.4-0.3,0.8-0.8,1.1-1.4l1.4,0.7c-0.4,0.8-1,1.5-1.7,1.9
		s-1.6,0.6-2.6,0.6C132.7,48.3,131.9,48.1,131.2,47.7z"/>
	<path class="st0" d="M140,38h1.8v2.1l0.1,0.3V48H140V38z M146.1,39.8c-0.3-0.4-0.8-0.6-1.4-0.6c-0.5,0-1.1,0.2-1.5,0.6
		c-0.5,0.4-0.9,1-1.4,1.8l-0.2-1.4c0.5-0.9,1.1-1.5,1.7-1.9c0.6-0.4,1.3-0.6,2-0.6c0.7,0,1.3,0.2,1.8,0.5s0.8,0.7,1.1,1.3
		c0.2,0.6,0.4,1.2,0.4,2V48h-1.8v-6.3C146.6,40.8,146.4,40.2,146.1,39.8z M152.6,39.8c-0.3-0.4-0.8-0.6-1.4-0.6
		c-0.5,0-1,0.2-1.5,0.6c-0.5,0.4-0.9,1-1.4,1.8l-0.2-1.4c0.5-0.9,1.1-1.5,1.7-1.9c0.6-0.4,1.3-0.6,2-0.6c0.7,0,1.2,0.2,1.7,0.5
		c0.5,0.3,0.9,0.7,1.1,1.3c0.2,0.6,0.4,1.2,0.4,2V48h-1.9v-6.3C153.1,40.8,152.9,40.2,152.6,39.8z"/>
	<path class="st0" d="M159,47.7c-0.7-0.4-1.3-1-1.7-1.8c-0.4-0.8-0.6-1.7-0.6-2.8c0-1.1,0.2-2,0.6-2.8c0.4-0.8,1-1.4,1.7-1.9
		c0.7-0.4,1.6-0.7,2.5-0.7c0.9,0,1.8,0.2,2.4,0.6c0.7,0.4,1.2,1,1.5,1.7c0.4,0.7,0.5,1.6,0.5,2.6c0,0.2,0,0.3,0,0.4
		c0,0.1,0,0.2,0,0.3h-8.2V42h7.6l-1.2,1.3c0-0.1,0-0.2,0-0.2s0-0.1,0-0.2c0-0.8-0.1-1.5-0.3-2.1c-0.2-0.6-0.5-1-1-1.3
		c-0.4-0.3-0.9-0.4-1.5-0.4c-0.6,0-1.1,0.2-1.5,0.5c-0.4,0.3-0.8,0.8-1,1.4c-0.2,0.6-0.4,1.3-0.4,2.2c0,0.9,0.1,1.6,0.4,2.2
		s0.6,1,1,1.3c0.4,0.3,0.9,0.5,1.6,0.5c0.7,0,1.3-0.1,1.7-0.4c0.4-0.3,0.8-0.8,1.1-1.4l1.4,0.7c-0.4,0.8-1,1.5-1.7,1.9
		s-1.6,0.6-2.6,0.6C160.5,48.3,159.7,48.1,159,47.7z"/>
	<path class="st0" d="M167.8,38h1.8v2l0.1,0.3V48h-1.9V38z M174,39.8c-0.3-0.4-0.8-0.5-1.5-0.5c-0.6,0-1.1,0.2-1.6,0.5
		c-0.5,0.4-1,0.9-1.4,1.7l-0.2-1.4c0.5-0.8,1-1.4,1.7-1.8c0.6-0.4,1.3-0.6,2.1-0.6c0.7,0,1.2,0.1,1.8,0.4s0.9,0.7,1.2,1.2
		c0.3,0.5,0.4,1.1,0.4,1.8V48h-1.9v-6.6C174.5,40.7,174.4,40.1,174,39.8z"/>
	<path class="st0" d="M177.6,38h6.5v1.4h-6.5V38z M180.4,47.5c-0.6-0.4-0.9-1.1-0.9-2.2v-6.6l0.1-0.4l0.1-3.1l1.7-0.1v9.6
		c0,0.7,0.1,1.2,0.4,1.5c0.3,0.3,0.8,0.4,1.4,0.4c0.1,0,0.3,0,0.5,0c0.2,0,0.3,0,0.5,0h0h0V48c-0.2,0-0.3,0-0.5,0.1
		c-0.2,0-0.4,0-0.6,0C181.9,48.1,181,47.9,180.4,47.5z"/>
	<path class="st0" d="M187.3,47.7c-0.7-0.4-1.3-1-1.7-1.8c-0.4-0.8-0.6-1.8-0.6-2.9c0-1.1,0.2-2.1,0.6-2.9c0.4-0.8,1-1.4,1.8-1.8
		c0.7-0.4,1.6-0.6,2.5-0.6s1.8,0.2,2.5,0.6c0.7,0.4,1.3,1,1.7,1.8c0.4,0.8,0.6,1.8,0.6,2.9c0,1.1-0.2,2.1-0.7,2.9
		c-0.4,0.8-1,1.4-1.8,1.9c-0.7,0.4-1.6,0.6-2.5,0.6C188.9,48.3,188.1,48.1,187.3,47.7z M191.4,46.5c0.4-0.3,0.8-0.8,1-1.3
		c0.2-0.6,0.4-1.3,0.4-2.2c0-0.9-0.1-1.6-0.4-2.2c-0.2-0.6-0.6-1.1-1-1.4c-0.4-0.3-1-0.5-1.5-0.5c-0.6,0-1.1,0.2-1.6,0.5
		c-0.4,0.3-0.8,0.8-1,1.4c-0.2,0.6-0.4,1.3-0.4,2.2c0,0.9,0.1,1.6,0.4,2.2s0.6,1,1,1.3c0.4,0.3,1,0.5,1.6,0.5
		C190.5,47,191,46.8,191.4,46.5z"/>
	<path class="st0" d="M197.3,47.7c-0.7-0.4-1.2-1-1.5-1.8l1.4-0.6c0.3,0.6,0.7,1,1.1,1.3c0.5,0.3,1.1,0.4,1.8,0.4
		c0.8,0,1.3-0.1,1.8-0.4c0.4-0.2,0.6-0.6,0.6-1.1c0-0.4-0.1-0.7-0.3-0.9c-0.2-0.2-0.5-0.4-0.9-0.6c-0.4-0.2-1-0.3-1.8-0.4
		c-0.8-0.1-1.4-0.3-1.9-0.6c-0.5-0.3-0.9-0.6-1.1-1s-0.4-0.9-0.4-1.4c0-0.6,0.2-1.1,0.5-1.6s0.8-0.8,1.4-1c0.6-0.2,1.3-0.3,2.1-0.3
		c1,0,1.9,0.2,2.5,0.6c0.6,0.4,1.1,1,1.4,1.8l-1.4,0.6c-0.3-0.6-0.6-1-1-1.2c-0.4-0.3-0.9-0.4-1.6-0.4c-0.4,0-0.8,0.1-1.1,0.2
		c-0.3,0.1-0.5,0.3-0.7,0.5c-0.2,0.2-0.2,0.5-0.2,0.8c0,0.3,0.1,0.6,0.2,0.8s0.4,0.4,0.8,0.5c0.4,0.1,1,0.3,1.7,0.4
		c0.8,0.1,1.5,0.3,2,0.6s0.9,0.6,1.1,1c0.2,0.4,0.4,0.9,0.4,1.5c0,0.6-0.2,1.2-0.5,1.6c-0.3,0.5-0.8,0.8-1.4,1.1s-1.4,0.4-2.2,0.4
		C198.9,48.3,198,48.1,197.3,47.7z"/>
	<path class="st0" d="M205.9,38h2v2.2h-2V38z M205.9,45.8h2V48h-2V45.8z"/>
</g>
</svg>
