<?xml version="1.0" encoding="UTF-8"?>
<svg id="Capa_1" data-name="Capa 1" xmlns="http://www.w3.org/2000/svg" viewBox="0 0 295.72 121.7">
  <defs>
    <style>
      .cls-1 {
        fill: #ece2f0;
        stroke-width: 0px;
      }
    </style>
  </defs>
  <path class="cls-1" d="M242.71,91.63l12.89-4.29-9.82-27.91-1.51,2.92,17.44-5.8-3.04-8.65-43.27,14.39,3.04,8.65,17.44-5.8-2.99-1.42,9.82,27.91ZM198.84,103.57c4.27-.8,7.83-2.19,10.68-4.17,2.85-1.98,4.86-4.46,6-7.44,1.15-2.98,1.35-6.34.61-10.08l-3.74-18.87-11.8,2.21,3.71,18.72c.38,1.91.33,3.56-.13,4.97-.46,1.41-1.26,2.55-2.4,3.41-1.13.87-2.54,1.45-4.22,1.77-1.75.33-3.33.3-4.75-.09-1.42-.39-2.62-1.15-3.61-2.28-.99-1.14-1.67-2.66-2.05-4.56l-3.71-18.72-13.38,2.51,3.9,19.68c.75,3.77,2.22,6.77,4.42,8.98,2.2,2.22,5.02,3.64,8.47,4.28s7.44.54,11.99-.32M145.75,109.34c4.34-.17,8.08-1.03,11.2-2.57,3.12-1.54,5.49-3.71,7.08-6.49,1.6-2.78,2.31-6.08,2.15-9.88l-.8-19.2-12.01.47.79,19.05c.08,1.94-.22,3.57-.89,4.9-.68,1.33-1.64,2.33-2.9,3.02-1.25.69-2.74,1.07-4.44,1.14-1.78.07-3.34-.19-4.68-.78-1.34-.59-2.42-1.52-3.22-2.78s-1.24-2.87-1.32-4.81l-.79-19.04-13.61.53.83,20.03c.16,3.84,1.16,7.02,2.99,9.53,1.83,2.51,4.4,4.33,7.71,5.47,3.31,1.14,7.28,1.61,11.9,1.43M68.1,103.26l11.46,1.35,2.71-21.76.17-5.21-1.28.32,17.49,28.9,14.37,1.69,4.5-36.09-11.46-1.35-2.35,18.87-.37,5.14,1.38-.31-15.53-25.69-16.6-1.96-4.5,36.09Z"/>
  <path class="cls-1" d="M172.8,44.64c1.22.35,2.36.45,3.41.28,1.05-.16,1.93-.57,2.65-1.22.72-.65,1.24-1.49,1.55-2.53.29-.96.38-1.85.27-2.67-.11-.82-.44-1.62-.99-2.39-.54-.78-1.34-1.62-2.39-2.54-.97-.81-1.7-1.55-2.19-2.21-.49-.66-.8-1.27-.92-1.83-.12-.55-.08-1.17.12-1.84.22-.72.55-1.3.98-1.72.43-.42.96-.69,1.59-.79.62-.1,1.37-.03,2.25.23,1.38.4,2.26,1.04,2.63,1.91.37.88.37,2.12,0,3.73l1.76.34c.55-2.01.51-3.61-.12-4.82-.63-1.21-1.9-2.09-3.82-2.64-1.14-.33-2.21-.4-3.21-.23-.99.18-1.84.58-2.53,1.19-.69.62-1.2,1.44-1.51,2.48-.28.91-.35,1.73-.21,2.49.13.76.47,1.51,1.03,2.26.55.75,1.34,1.58,2.37,2.49,1,.9,1.74,1.67,2.23,2.31.49.63.79,1.25.91,1.85.12.6.06,1.3-.18,2.1-.32,1.06-.92,1.81-1.81,2.24-.88.44-1.98.47-3.28.09-1.49-.43-2.47-1.12-2.94-2.09-.47-.96-.49-2.27-.05-3.92l-1.81-.31c-.55,2.09-.48,3.76.21,5.02.69,1.25,2.03,2.17,4.03,2.74M157.4,41.12c1.64.28,3.09,0,4.35-.82,1.26-.83,2.31-2.15,3.15-3.98l-1.52-.71c-.74,1.57-1.56,2.68-2.48,3.33-.92.65-1.94.88-3.06.69-1.09-.19-1.92-.63-2.49-1.33-.57-.7-.92-1.68-1.08-2.94-.15-1.26-.06-2.82.27-4.68.36-2.02.88-3.77,1.54-5.26.66-1.49,1.47-2.59,2.41-3.31.94-.71,1.98-.98,3.1-.79.93.16,1.69.59,2.28,1.29.59.7.94,1.65,1.05,2.83.11,1.18.02,2.6-.28,4.24-.03.19-.08.39-.13.6s-.11.43-.18.67l1.18-.95-11.27-1.93-.32,1.55,12.34,2.11c.06-.32.12-.58.18-.79.07-.21.12-.43.16-.67.34-2.02.4-3.76.18-5.23-.21-1.46-.74-2.64-1.56-3.53-.82-.89-1.95-1.46-3.37-1.71-1.56-.27-2.97.01-4.23.84-1.26.83-2.33,2.07-3.21,3.72-.88,1.66-1.52,3.62-1.93,5.87-.38,2.12-.46,3.95-.23,5.49.23,1.53.78,2.75,1.64,3.65.87.9,2.02,1.47,3.47,1.72M133.4,38.39l2,.09,1.71-16.24-.19-.45.43-3.75-1.87-.09-2.08,20.44ZM145.75,24.37l-1.46,14.51,2.04.09,1.48-14.96c.12-1.26.03-2.35-.26-3.27-.29-.92-.81-1.65-1.56-2.2-.75-.55-1.67-.85-2.75-.9-1.28-.06-2.45.26-3.53.95-1.07.69-2.15,1.82-3.23,3.4l.35,1.35c1.01-1.46,1.97-2.49,2.86-3.09s1.83-.87,2.83-.82c1.25.06,2.14.51,2.66,1.36.53.85.71,2.04.56,3.57M122.14,38.04c-1.05.08-1.95-.17-2.71-.77-.76-.59-1.39-1.48-1.89-2.68-.5-1.19-.82-2.69-.97-4.49-.16-1.99-.08-3.78.23-5.38.32-1.59.85-2.86,1.59-3.79.74-.94,1.71-1.45,2.9-1.54,1.02-.08,1.94.18,2.73.76.8.59,1.44,1.49,1.93,2.71.49,1.22.81,2.74.96,4.57.16,1.94.08,3.71-.24,5.32-.31,1.61-.86,2.87-1.63,3.78-.78.91-1.74,1.41-2.91,1.5M122.26,39.58c1.55-.12,2.87-.73,3.96-1.83,1.09-1.1,1.87-2.55,2.34-4.36.47-1.81.61-3.81.43-6.02-.17-2.1-.6-3.88-1.29-5.34-.69-1.46-1.59-2.55-2.71-3.26-1.12-.71-2.38-1.01-3.79-.91-1.58.12-2.91.72-4.01,1.81s-1.87,2.54-2.34,4.38c-.46,1.83-.6,3.87-.42,6.1.17,2.12.6,3.9,1.27,5.34.67,1.44,1.57,2.5,2.68,3.2,1.11.7,2.4.99,3.87.88M103.72,42.36c1.25-.27,2.28-.89,3.09-1.88.81-.99,1.41-2.41,1.79-4.25l-.67-.89c-.39,1.68-.91,2.93-1.57,3.73-.66.8-1.47,1.31-2.45,1.52-.95.2-1.83.08-2.64-.37-.81-.45-1.52-1.22-2.12-2.32-.6-1.1-1.1-2.53-1.5-4.3-.45-1.97-.63-3.76-.55-5.35.08-1.59.42-2.89,1.02-3.88.6-1,1.44-1.61,2.52-1.84.7-.15,1.36-.13,1.97.06.61.19,1.21.54,1.79,1.05.58.51,1.22,1.21,1.9,2.08l.4-1.04c-1.03-1.52-2.1-2.59-3.22-3.21-1.12-.62-2.34-.78-3.67-.5-1.38.29-2.48,1.06-3.3,2.28-.82,1.22-1.3,2.78-1.44,4.68-.14,1.89.05,3.97.56,6.24.45,2,1.07,3.67,1.86,5.01.79,1.34,1.71,2.27,2.76,2.81,1.06.53,2.21.67,3.46.4M108.88,40.68l1.83-.39-4.82-27.96-1.99.43,3.99,23.71.25.36.74,3.86ZM88.41,46.68c1.57-.54,2.7-1.47,3.38-2.79.68-1.32.93-2.98.73-4.97l-1.68.1c.15,1.72,0,3.08-.48,4.09-.47,1.01-1.25,1.69-2.32,2.06-1.05.36-1.99.37-2.84.03-.84-.34-1.65-1.02-2.42-2.04-.77-1.02-1.48-2.43-2.12-4.21-.7-1.93-1.14-3.71-1.31-5.32-.17-1.61-.03-2.96.44-4.03.46-1.07,1.23-1.79,2.3-2.16.89-.31,1.77-.29,2.64.04.87.33,1.65.99,2.35,1.96.69.98,1.33,2.26,1.9,3.83.06.18.13.37.19.58.06.21.12.43.18.67l.55-1.39-10.79,3.7.5,1.5,11.81-4.05c-.11-.31-.19-.56-.24-.78-.05-.21-.11-.43-.2-.66-.73-1.92-1.55-3.47-2.48-4.64-.92-1.17-1.97-1.95-3.14-2.33-1.17-.38-2.43-.34-3.79.12-1.49.51-2.58,1.43-3.26,2.75-.68,1.32-.99,2.91-.92,4.78.07,1.86.5,3.88,1.28,6.04.74,2.03,1.6,3.67,2.57,4.89.97,1.22,2.06,2.02,3.27,2.39,1.21.37,2.51.32,3.89-.15M68.4,37.23l.83.96c0-1.85.27-3.27.8-4.27.53-1,1.32-1.75,2.36-2.25.23-.1.43-.16.6-.18l-.8-1.96c-1.46.66-2.47,1.57-3.04,2.72-.57,1.15-.82,2.81-.75,4.98M73.19,52.29l1.81-.82-6.09-14.51-.36-.37-1.63-4.08-1.66.75,7.93,19.03ZM62.63,58.67c1.09-.64,1.86-1.56,2.3-2.75.44-1.19.54-2.72.28-4.59l-.93-.63c.19,1.71.11,3.06-.24,4.02-.36.97-.96,1.7-1.82,2.2-.83.49-1.7.65-2.62.48-.92-.17-1.84-.68-2.78-1.53-.94-.85-1.89-2.05-2.85-3.6-1.08-1.73-1.84-3.36-2.29-4.89-.45-1.53-.56-2.86-.32-4,.23-1.13.83-1.98,1.78-2.54.62-.36,1.25-.55,1.89-.57.64-.01,1.32.13,2.04.43.72.3,1.55.76,2.49,1.37l.04-1.11c-1.48-1.12-2.85-1.79-4.11-2.03s-2.48,0-3.64.68c-1.21.71-2,1.78-2.37,3.19-.37,1.42-.3,3.04.19,4.88.49,1.84,1.36,3.75,2.6,5.73,1.09,1.75,2.23,3.14,3.42,4.16,1.19,1.02,2.37,1.62,3.55,1.79,1.18.17,2.31-.06,3.4-.7M66.95,55.46l1.6-.94-13.84-24.96-1.74,1.03,11.64,21.19.36.26,1.98,3.42ZM49.56,67.55c1.31-1,2.07-2.23,2.29-3.69.21-1.46-.1-3.11-.94-4.94l-1.56.62c.71,1.58,1.01,2.92.89,4.02-.12,1.1-.63,1.99-1.52,2.67-.88.67-1.77.97-2.68.91-.91-.06-1.9-.46-2.96-1.19-1.06-.73-2.19-1.84-3.39-3.33-1.3-1.61-2.3-3.16-2.99-4.64-.69-1.47-1-2.79-.91-3.95.09-1.16.58-2.08,1.47-2.77.74-.56,1.58-.83,2.51-.78.93.04,1.89.42,2.87,1.13.98.71,2,1.73,3.06,3.04.12.15.24.31.37.49.13.18.25.37.39.58l.07-1.49-9.01,6.86.97,1.27,9.87-7.5c-.21-.26-.36-.47-.48-.66-.12-.19-.25-.38-.4-.57-1.32-1.6-2.61-2.81-3.87-3.63-1.26-.82-2.51-1.23-3.74-1.24-1.24,0-2.42.43-3.56,1.29-1.25.95-1.98,2.15-2.19,3.62-.21,1.46.02,3.07.7,4.81.68,1.74,1.75,3.52,3.2,5.32,1.37,1.7,2.71,2.98,4.04,3.84,1.33.86,2.62,1.28,3.89,1.25,1.27-.02,2.48-.47,3.64-1.35"/>
</svg>