<svg width="32" height="28" viewBox="0 0 32 28" fill="none" xmlns="http://www.w3.org/2000/svg">
<path d="M3.75708 3.80566H5.75604L6.15583 6.07804M7.755 15.1675H17.7498L21.7477 6.07804H6.15583M7.755 15.1675L6.15583 6.07804M7.755 15.1675L5.4633 17.7727C4.83366 18.4885 5.2796 19.7123 6.17004 19.7123H17.7498M17.7498 19.7123C16.6458 19.7123 15.7508 20.7297 15.7508 21.9847C15.7508 23.2397 16.6458 24.2571 17.7498 24.2571C18.8538 24.2571 19.7488 23.2397 19.7488 21.9847C19.7488 20.7297 18.8538 19.7123 17.7498 19.7123ZM9.75396 21.9847C9.75396 23.2397 8.85899 24.2571 7.755 24.2571C6.651 24.2571 5.75604 23.2397 5.75604 21.9847C5.75604 20.7297 6.651 19.7123 7.755 19.7123C8.85899 19.7123 9.75396 20.7297 9.75396 21.9847Z" stroke="#292929" stroke-width="2.5" stroke-linecap="round" stroke-linejoin="round"/>
<path d="M26.6777 10.8931V19.2546" stroke="#292929" stroke-width="1.79177" stroke-linecap="round"/>
<path d="M23 15.074H30.3555" stroke="#292929" stroke-width="1.79177" stroke-linecap="round"/>
</svg>
