<svg width="24" height="25" viewBox="0 0 24 25" fill="none" xmlns="http://www.w3.org/2000/svg">
<path d="M10 21.7395H17C18.1046 21.7395 19 20.8441 19 19.7395V10.1537C19 9.8885 18.8946 9.63415 18.7071 9.44661L13.2929 4.0324C13.1054 3.84486 12.851 3.7395 12.5858 3.7395H7C5.89543 3.7395 5 4.63493 5 5.7395V16.7395M5 21.7395L9.87868 16.8608M9.87868 16.8608C10.4216 17.4037 11.1716 17.7395 12 17.7395C13.6569 17.7395 15 16.3964 15 14.7395C15 13.0826 13.6569 11.7395 12 11.7395C10.3431 11.7395 9 13.0826 9 14.7395C9 15.5679 9.33579 16.3179 9.87868 16.8608Z" stroke="#292929" stroke-width="2" stroke-linecap="round"/>
</svg>
