<svg xmlns="http://www.w3.org/2000/svg" xmlns:xlink="http://www.w3.org/1999/xlink" viewBox="0 0 315.83 93.25"><defs><style>.cls-1{fill:none;}.cls-2{clip-path:url(#clip-path);}.cls-3{fill:#76236c;}</style><clipPath id="clip-path" transform="translate(0)"><rect class="cls-1" width="315.83" height="93.25"/></clipPath></defs><g id="Capa_2" data-name="Capa 2"><g id="Capa_1-2" data-name="Capa 1"><g class="cls-2"><path class="cls-3" d="M203.72,16.68a16.41,16.41,0,0,0-14.13,7.82h-.31V17.93H177.22V65.09h12.72V40.36c0-9.56,3-13.47,9.86-13.47,5.91,0,8.15,3.81,8.15,11.59V65.09h12.73v-29c0-11.67-3.39-19.41-17-19.41m-49,0a16.46,16.46,0,0,0-14.19,7.82h-.27V17.93h-12.1V65.09h12.74V40.36c0-9.56,3-13.47,9.84-13.47,5.93,0,8.17,3.81,8.17,11.59V65.09h12.74v-29c0-11.67-3.46-19.41-16.93-19.41M310.31,64.63a3.35,3.35,0,0,1,0-6.7,3.35,3.35,0,0,1,0,6.7m0-7.23a3.91,3.91,0,1,0,4,3.86,3.94,3.94,0,0,0-4-3.86M310.25,61h-.77V59.56h1l1,.72Zm2-.71c0-.88-.54-1.34-1.66-1.34h-1.8v4.6h.72v-2h.77l1.27,2h.77l-1.31-2c.7-.09,1.24-.43,1.24-1.22M236.78,36.47c.15-3.66,2.47-10.08,10.57-10.08,6.16,0,8.92,3.51,10.08,10.08Zm10.9-19.79C233.61,16.68,224,27.43,224,41.55c0,14.63,9.07,24.8,23.66,24.8,10.5,0,18.12-4.71,21.71-15.87H258.18c-.83,2.94-4.94,6.11-10,6.11-7.1,0-11-3.72-11.36-11.92h33.39c.88-14.52-6.7-28-22.49-28m55,1.25L292.57,50.24h-.21L281.88,17.93H268.25l16.31,44.23c1.45,3.72,0,8.39-4.4,8.85a61,61,0,0,1-7.43-.46V81.22a68.4,68.4,0,0,0,7.82.49c8.78,0,13.14-3.1,15.94-10.7l19.34-53.08ZM109.48,49.11c-.38,3.55-2.24,8.58-10.09,8.58-4.19,0-7.84-1.2-7.84-6,0-4.1,2.26-5.67,5.52-6.59.62-.05,1.32-.19,2.13-.26h10.28ZM102,16.68c-10.4,0-21,3.63-21.77,15.77H93c.45-5.13,3.59-7.11,8.44-7.11,4.13,0,7.68.71,8.18,5.23v6.57H99.79a37.75,37.75,0,0,0-9.63,1.25c-6.11,1.89-11.34,5.15-11.34,13.81,0,9.71,7,14.15,15.78,14.15,5.37,0,11-1.38,15-5.24v4h12.74v-36C121.7,18.64,111,16.68,102,16.68M62.1,65.09H74.8V17.93H62.1ZM30,45.69h-.19L15,0H0L21.54,65H38.06L60.14,0H45ZM68.63.57A6.26,6.26,0,0,0,62.3,6.75,6.34,6.34,0,0,0,75,6.75,6.27,6.27,0,0,0,68.63.57" transform="translate(0)"/><path class="cls-3" d="M136.57,68.94c0,.19-.14.29-.43.29h-.92c-1,0-1.64.18-1.87.55a20.86,20.86,0,0,0-1.56,3.36L124.67,91l-.18.48c0,.42.47.68,1.42.8l1.1,0c.3,0,.46.11.46.24s-.17.25-.5.25q-2.55,0-7.33,0c-1.11,0-1.75,0-1.93,0s-.27-.09-.27-.21.32-.24,1-.24a7.44,7.44,0,0,0,1.74-.18,1.88,1.88,0,0,0,1-.76c.21-.5.46-1.1.74-1.79l6.91-16.94a21.38,21.38,0,0,0,1-2.76c0-.4-.36-.59-1.09-.59h-1.42q-.39,0-.39-.3c0-.17.13-.26.39-.26h9c.21,0,.32.09.32.27" transform="translate(0)"/><path class="cls-3" d="M147.34,80.49a8.55,8.55,0,0,1-.93,2.89l-2.86,6.36a4.92,4.92,0,0,0-.5,1.5c0,.49.28.73.83.73a5.67,5.67,0,0,0,3-1.59.66.66,0,0,1,.29-.11c.14,0,.22.06.22.18s-.4.68-1.18,1.21a6.15,6.15,0,0,1-3.44,1.07,3.26,3.26,0,0,1-1.82-.47,1.39,1.39,0,0,1-.72-1.2,6.53,6.53,0,0,1,.67-2.09l2.84-6.22a9.69,9.69,0,0,0,1-3.06c0-.79-.41-1.19-1.24-1.19-1.08,0-2.36.77-3.82,2.29a16.88,16.88,0,0,0-3.05,4.85l-2.9,6.57c-.12.35-.27.52-.46.52h-2.41c-.16,0-.25-.06-.25-.17a.42.42,0,0,1,.11-.21l.25-.51,5.42-12.68a3.48,3.48,0,0,0,.17-.31c0-.16-.32-.26-.88-.28-.71,0-1.06-.15-1.06-.38s.13-.24.39-.24a5.9,5.9,0,0,1,.77.07,6.23,6.23,0,0,0,.82.07,7,7,0,0,0,2.51-.28,1.1,1.1,0,0,1,.32-.1.19.19,0,0,1,.21.21.43.43,0,0,1,0,.17l-1.31,3.25.81-.88q2.63-2.74,5.07-2.75a3.36,3.36,0,0,1,2.3.78,2.55,2.55,0,0,1,.89,2" transform="translate(0)"/><path class="cls-3" d="M163.59,79.75a15.37,15.37,0,0,1-1,5.3,16.62,16.62,0,0,1-2.74,4.84q-2.66,3.23-5.46,3.22a3.84,3.84,0,0,1-2.51-.81,2.59,2.59,0,0,1-1-2.1,13.55,13.55,0,0,1,1.38-4.77l2.05-4.74a4.26,4.26,0,0,0,.43-1.28c0-.49-.29-.73-.85-.73a3.34,3.34,0,0,0-1.9,1,7.21,7.21,0,0,0-1.72,2.08c-.16.35-.34.52-.53.52s-.32-.08-.32-.24c0-.51.65-1.36,2-2.56a5.44,5.44,0,0,1,3.62-1.7,2.7,2.7,0,0,1,1.77.56,1.79,1.79,0,0,1,.67,1.45,6.64,6.64,0,0,1-.67,2.48l-2,4.49a9.8,9.8,0,0,0-1,3.8c0,1.2.51,1.8,1.52,1.8q2.23,0,4.87-4A13.66,13.66,0,0,0,162.81,81c0-.76-.16-1.14-.49-1.14a1.78,1.78,0,0,0-.34.08,1.83,1.83,0,0,1-.51.09q-1,0-1-.87a1.25,1.25,0,0,1,.44-1,1.56,1.56,0,0,1,1.05-.4c1.06,0,1.59.65,1.59,1.94" transform="translate(0)"/><path class="cls-3" d="M175.28,71.55c0,1-.46,1.45-1.38,1.45a1.63,1.63,0,0,1-1.17-.43,1.42,1.42,0,0,1-.46-1.09c0-1,.54-1.42,1.63-1.42.92,0,1.38.5,1.38,1.49M172.83,78a1,1,0,0,1-.17.41,17.79,17.79,0,0,0-.82,1.7l-4.07,9.08a8.74,8.74,0,0,0-.81,2.28q0,.93,1,.93a3.33,3.33,0,0,0,1.54-.46,3.79,3.79,0,0,0,1.33-1.1c.21-.28.37-.41.49-.41a.18.18,0,0,1,.21.2q0,.42-1,1.23a5.13,5.13,0,0,1-3.36,1.23,3.24,3.24,0,0,1-2-.62,1.93,1.93,0,0,1-.8-1.59,8,8,0,0,1,.89-2.8l3.68-8a2.54,2.54,0,0,1,.43-.89.45.45,0,0,0,.1-.25c0-.2-.52-.34-1.55-.41-.19-.05-.29-.13-.29-.24s.1-.31.29-.31l.53.07a14.17,14.17,0,0,0,1.59.07,6.23,6.23,0,0,0,2.09-.25,1.75,1.75,0,0,1,.5-.14c.16,0,.24.1.24.28" transform="translate(0)"/><path class="cls-3" d="M184.45,79.58a1,1,0,0,0-1.1-1.08,3.65,3.65,0,0,0-2.23.84,14.31,14.31,0,0,0-3.65,4.53q.43,0,1,0a7.21,7.21,0,0,0,3.86-1.17,3.75,3.75,0,0,0,2.16-3.15m2.51.57a3.57,3.57,0,0,1-2.05,3.09,10.09,10.09,0,0,1-5.21,1.22c-.75,0-1.59,0-2.51-.14a11.26,11.26,0,0,0-1.31,4.93c0,2,.93,3.07,2.8,3.07a5.86,5.86,0,0,0,4.21-2.19q.47-.48.6-.48c.12,0,.18.06.18.17,0,.53-.55,1.18-1.66,2a6.8,6.8,0,0,1-4,1.34,5.53,5.53,0,0,1-3.79-1.31,4.25,4.25,0,0,1-1.49-3.32q0-3.86,4.32-7.49c2.53-2.12,4.78-3.18,6.77-3.18s3.11.78,3.11,2.34" transform="translate(0)"/><path class="cls-3" d="M200.07,79.4a1.75,1.75,0,0,1-.46,1.2,1.42,1.42,0,0,1-1.06.5c-.38,0-.57-.13-.57-.38l.07-.35a1.06,1.06,0,0,0,.07-.38.74.74,0,0,0-.85-.83c-.68,0-1.64.65-2.87,1.94a20.37,20.37,0,0,0-3.47,5.43L188.38,92c-.24.52-.44.79-.6.79a7.86,7.86,0,0,0-1.1-.1,3.57,3.57,0,0,0-1,.1h-.21c-.21,0-.32,0-.32-.14s0-.07.11-.14l.18-.34,6-13.33c0-.18-.15-.28-.46-.28h-.14a1.71,1.71,0,0,1-.46,0h-.35q-.54,0-.54-.24c0-.14.62-.23,1.85-.28a9.56,9.56,0,0,0,2.48-.31l.31-.07c.15,0,.22.07.22.21a7.62,7.62,0,0,1-.46,1.28l-1.31,3.11q3.26-4.43,5.73-4.43c1.16,0,1.74.51,1.74,1.52" transform="translate(0)"/><path class="cls-3" d="M214.13,80.49a8.7,8.7,0,0,1-.92,2.89l-2.87,6.36a4.92,4.92,0,0,0-.5,1.5c0,.49.28.73.83.73a5.67,5.67,0,0,0,3-1.59.66.66,0,0,1,.29-.11c.15,0,.22.06.22.18s-.39.68-1.18,1.21a6.12,6.12,0,0,1-3.44,1.07,3.28,3.28,0,0,1-1.82-.47,1.39,1.39,0,0,1-.72-1.2,6.38,6.38,0,0,1,.68-2.09l2.83-6.22a9.53,9.53,0,0,0,1-3.06,1.08,1.08,0,0,0-1.24-1.19c-1.09,0-2.36.77-3.83,2.29a16.67,16.67,0,0,0-3,4.85l-2.91,6.57c-.12.35-.27.52-.46.52h-2.41c-.16,0-.24-.06-.24-.17a.38.38,0,0,1,.1-.21l.25-.51,5.42-12.68.18-.31c0-.16-.32-.26-.89-.28s-1.06-.15-1.06-.38.13-.24.39-.24a6.17,6.17,0,0,1,.78.07,6,6,0,0,0,.81.07,7.11,7.11,0,0,0,2.52-.28,1,1,0,0,1,.32-.1.19.19,0,0,1,.21.21.31.31,0,0,1,0,.17l-1.31,3.25.82-.88q2.61-2.74,5.06-2.75a3.34,3.34,0,0,1,2.3.78,2.55,2.55,0,0,1,.89,2" transform="translate(0)"/><path class="cls-3" d="M228.05,81.14c0-1.76-.81-2.64-2.41-2.64-2,0-3.66,1.38-5.1,4.12A16.14,16.14,0,0,0,218.48,90c0,1.73.79,2.6,2.38,2.6q3,0,5-3.74a16.91,16.91,0,0,0,2.23-7.75m2.72,2.25q0,4-3.79,7.3a9.37,9.37,0,0,1-6.19,2.56,4.79,4.79,0,0,1-3.62-1.49,5.35,5.35,0,0,1-1.41-3.84,8.48,8.48,0,0,1,1.17-4.12A11.29,11.29,0,0,1,220,80.2a9.78,9.78,0,0,1,5.88-2.32,4.49,4.49,0,0,1,3.51,1.52,5.85,5.85,0,0,1,1.34,4" transform="translate(0)"/></g><path class="cls-3" d="M240.75,87.34h-6.93V86l3.27-3.49a8.6,8.6,0,0,0,1-1.28,2.15,2.15,0,0,0,.32-1,1.55,1.55,0,0,0-.34-1.06,1.26,1.26,0,0,0-1-.38,1.33,1.33,0,0,0-1.07.47,1.85,1.85,0,0,0-.39,1.23h-2a3.26,3.26,0,0,1,.45-1.69,3.05,3.05,0,0,1,1.24-1.2,3.92,3.92,0,0,1,1.83-.43,3.6,3.6,0,0,1,2.43.75,2.68,2.68,0,0,1,.86,2.12,3.41,3.41,0,0,1-.39,1.53,8.43,8.43,0,0,1-1.33,1.81l-2.3,2.43h4.35Z" transform="translate(0)"/><path class="cls-3" d="M244,81.39h1.07a1.51,1.51,0,0,0,1.13-.38,1.41,1.41,0,0,0,.37-1,1.24,1.24,0,0,0-.36-.95,1.4,1.4,0,0,0-1-.34,1.43,1.43,0,0,0-1,.32,1,1,0,0,0-.39.82h-2a2.43,2.43,0,0,1,.43-1.42,2.85,2.85,0,0,1,1.19-1,4.14,4.14,0,0,1,1.7-.35,3.78,3.78,0,0,1,2.51.77A2.61,2.61,0,0,1,248.6,80a2.13,2.13,0,0,1-.42,1.28,2.87,2.87,0,0,1-1.11.9,2.37,2.37,0,0,1,1.69,2.36,2.67,2.67,0,0,1-1,2.16,4,4,0,0,1-2.6.81,3.76,3.76,0,0,1-2.48-.79,2.63,2.63,0,0,1-1-2.12h2a1.18,1.18,0,0,0,.43.93,1.55,1.55,0,0,0,1.05.37,1.61,1.61,0,0,0,1.13-.38,1.33,1.33,0,0,0,.4-1c0-1-.55-1.51-1.66-1.51H244Z" transform="translate(0)"/><g class="cls-2"><path class="cls-3" d="M253.1,87h-3.39V86h3.39Z" transform="translate(0)"/></g><path class="cls-3" d="M261,87.34h-6.93V86l3.27-3.49a8.6,8.6,0,0,0,1-1.28,2.15,2.15,0,0,0,.32-1,1.55,1.55,0,0,0-.34-1.06,1.24,1.24,0,0,0-1-.38,1.33,1.33,0,0,0-1.07.47,1.8,1.8,0,0,0-.4,1.23h-2a3.35,3.35,0,0,1,.44-1.69,3.08,3.08,0,0,1,1.25-1.2,3.85,3.85,0,0,1,1.82-.43,3.57,3.57,0,0,1,2.43.75,2.65,2.65,0,0,1,.87,2.12,3.41,3.41,0,0,1-.39,1.53A8.53,8.53,0,0,1,259,83.29l-2.3,2.43H261Z" transform="translate(0)"/><path class="cls-3" d="M268.17,83.53h1.15v1.62h-1.15v2.19h-2V85.15H262l-.09-1.27,4.22-6.66h2Zm-4.24,0h2.24V80l-.13.23Z" transform="translate(0)"/></g></g></svg>