<svg xmlns="http://www.w3.org/2000/svg" xmlns:xlink="http://www.w3.org/1999/xlink" viewBox="0 0 45.35 45.35"><defs><style>.cls-1,.cls-4{fill:none;}.cls-2{clip-path:url(#clip-path);}.cls-3{fill:#fff;}.cls-4{stroke:#575756;stroke-miterlimit:10;stroke-width:0.2px;}</style><clipPath id="clip-path" transform="translate(0 0)"><rect class="cls-1" width="45.35" height="45.35"/></clipPath></defs><g id="Capa_2" data-name="Capa 2"><g id="Capa_1-2" data-name="Capa 1"><g class="cls-2"><path class="cls-3" d="M.1,22.68A22.58,22.58,0,1,1,22.68,45.25,22.58,22.58,0,0,1,.1,22.68" transform="translate(0 0)"/><path class="cls-4" d="M.1,22.68A22.58,22.58,0,1,1,22.68,45.25,22.58,22.58,0,0,1,.1,22.68Z" transform="translate(0 0)"/><path d="M27,27.28c-3.13.74-5.69,1-7.71,1.33a4,4,0,0,1,2.35,2.32,4.07,4.07,0,0,0-1.4-1.14,4.49,4.49,0,0,0-6.63,4h0c0,2.25,1.71,4.21,4.25,5.25a3.54,3.54,0,0,0,2.43-2.46,5.75,5.75,0,0,1-.82,3,14.13,14.13,0,0,0,10.53-2,17,17,0,0,0,2-5.23l-.55,4.26.5-.39a19.07,19.07,0,0,0,5-6.08,13.68,13.68,0,0,0-.05-3.77l.72,2.3A19.9,19.9,0,0,0,33.06,7.46a17.5,17.5,0,0,1,1.76,17.05,17.26,17.26,0,0,1-7,7.6c4-4,6-6.37,7.17-12a10.37,10.37,0,0,1-7,7s1.1.13,1.38.67A7.94,7.94,0,0,0,27,27.28" transform="translate(0 0)"/></g><path d="M8,17.69V13.14H9.62a2.28,2.28,0,0,1,1.34.33,1.07,1.07,0,0,1,.46.93,1,1,0,0,1-.17.6.92.92,0,0,1-.47.37,1,1,0,0,1,.54.35,1,1,0,0,1,.19.63,1.2,1.2,0,0,1-.42,1,2,2,0,0,1-1.26.34ZM9.08,15h.58a.82.82,0,0,0,.51-.13.48.48,0,0,0,.15-.38.51.51,0,0,0-.16-.42A.94.94,0,0,0,9.62,14H9.08Zm0,.72v1.09H9.8a.65.65,0,0,0,.46-.14.45.45,0,0,0,.16-.38.5.5,0,0,0-.57-.57Z" transform="translate(0 0)"/><path d="M15.09,15.76H13.37v1.09h2v.84H12.27V13.14h3.14V14h-2v1h1.72Z" transform="translate(0 0)"/><path d="M18.59,16.84h-1.5l-.26.85H15.66l1.67-4.55h1L20,17.69H18.86ZM17.35,16h1l-.49-1.58Z" transform="translate(0 0)"/><path d="M24,13.14v3a1.76,1.76,0,0,1-.21.88,1.46,1.46,0,0,1-.62.56,2.19,2.19,0,0,1-1,.2,1.89,1.89,0,0,1-1.31-.44,1.49,1.49,0,0,1-.48-1.18v-3h1.1v3c0,.49.24.74.69.74a.67.67,0,0,0,.52-.19.83.83,0,0,0,.17-.6v-3Z" transform="translate(0 0)"/><path d="M28.45,14H27.08v3.7H26V14H24.65v-.85h3.8Z" transform="translate(0 0)"/><path d="M30.78,15.12l.84-2H32.8l-1.46,2.92v1.63H30.23V16.06l-1.47-2.92h1.18Z" transform="translate(0 0)"/><path d="M9.51,22.87a2.77,2.77,0,0,1-1.12-.55,1,1,0,0,1-.35-.8,1.1,1.1,0,0,1,.43-.89,1.71,1.71,0,0,1,1.11-.35,1.86,1.86,0,0,1,.84.18A1.46,1.46,0,0,1,11,21a1.35,1.35,0,0,1,.2.7h-.6a.84.84,0,0,0-.26-.65,1.09,1.09,0,0,0-.75-.24,1.11,1.11,0,0,0-.69.2.67.67,0,0,0-.25.54.58.58,0,0,0,.24.47,2.16,2.16,0,0,0,.8.35,3.7,3.7,0,0,1,.89.36,1.25,1.25,0,0,1,.47.44,1.13,1.13,0,0,1,.16.61,1,1,0,0,1-.43.88A1.79,1.79,0,0,1,9.62,25a2.13,2.13,0,0,1-.88-.18,1.51,1.51,0,0,1-.63-.5,1.21,1.21,0,0,1-.22-.7H8.5a.79.79,0,0,0,.3.65,1.29,1.29,0,0,0,.82.24,1.16,1.16,0,0,0,.72-.2.63.63,0,0,0,.26-.53.6.6,0,0,0-.24-.51A2.31,2.31,0,0,0,9.51,22.87Z" transform="translate(0 0)"/><path d="M15.62,22.77a2.79,2.79,0,0,1-.22,1.16,1.78,1.78,0,0,1-2.56.76,1.75,1.75,0,0,1-.64-.75A2.84,2.84,0,0,1,12,22.81v-.33a2.79,2.79,0,0,1,.23-1.16,1.71,1.71,0,0,1,.65-.77,1.76,1.76,0,0,1,2.56.76,2.84,2.84,0,0,1,.22,1.17Zm-.59-.3a2,2,0,0,0-.33-1.24,1.07,1.07,0,0,0-.91-.43,1,1,0,0,0-.89.43,2,2,0,0,0-.34,1.2v.34A2,2,0,0,0,12.89,24a1.15,1.15,0,0,0,1.81,0A2.05,2.05,0,0,0,15,22.81Z" transform="translate(0 0)"/><path d="M19.19,22.88H17.28v2h-.6V20.34H19.5v.49H17.28v1.56h1.91Z" transform="translate(0 0)"/><path d="M23.58,20.83H22.12v4.06h-.6V20.83H20.06v-.49h3.52Z" transform="translate(0 0)"/></g></g></svg>