<svg width="24" height="25" viewBox="0 0 24 25" fill="none" xmlns="http://www.w3.org/2000/svg">
<g id="Share">
<path id="Icon" d="M8.68387 14.0814C8.88616 13.6776 9 13.2219 9 12.7395C9 12.2571 8.88616 11.8014 8.68387 11.3976M8.68387 14.0814C8.19134 15.0646 7.17449 15.7395 6 15.7395C4.34315 15.7395 3 14.3964 3 12.7395C3 11.0826 4.34315 9.7395 6 9.7395C7.17449 9.7395 8.19134 10.4144 8.68387 11.3976M8.68387 14.0814L15.3161 17.3976M8.68387 11.3976L15.3161 8.08144M15.3161 8.08144C15.8087 9.06459 16.8255 9.7395 18 9.7395C19.6569 9.7395 21 8.39636 21 6.7395C21 5.08265 19.6569 3.7395 18 3.7395C16.3431 3.7395 15 5.08265 15 6.7395C15 7.22187 15.1138 7.67765 15.3161 8.08144ZM15.3161 17.3976C15.1138 17.8014 15 18.2571 15 18.7395C15 20.3964 16.3431 21.7395 18 21.7395C19.6569 21.7395 21 20.3964 21 18.7395C21 17.0826 19.6569 15.7395 18 15.7395C16.8255 15.7395 15.8087 16.4144 15.3161 17.3976Z" stroke="#292929" stroke-width="2" stroke-linecap="round" stroke-linejoin="round"/>
</g>
</svg>
