<?xml version="1.0" encoding="utf-8"?>
<!-- Generator: Adobe Illustrator 28.3.0, SVG Export Plug-In . SVG Version: 6.00 Build 0)  -->
<svg version="1.1" id="Capa_1" xmlns="http://www.w3.org/2000/svg" xmlns:xlink="http://www.w3.org/1999/xlink" x="0px" y="0px"
	 viewBox="0 0 500 500" style="enable-background:new 0 0 500 500;" xml:space="preserve">
<style type="text/css">
	.st0{fill:#9AB7C7;}
	.st1{fill:#B4DCD4;}
	.st2{fill:#ECC6BC;}
	.st3{fill:#E1A598;}
	.st4{fill:#F2C3D2;}
	.st5{fill:#FAE9EF;}
</style>
<path class="st2" d="M376.5,348.2c-37.4-3.5-67.9,7.8-87.4,18.4l-16.2,22.6c0,0.1-0.1,0.1-0.1,0.2c5.3,6.2,10.5,9.1,15.3,8.6
	c9.1-1,16.7-13.7,18.8-18.6c1.1-2.4,4-3.5,6.4-2.4c2.4,1.1,3.5,3.9,2.4,6.4c-0.4,0.9-10.1,22.4-26.6,24.2
	c-7.4,0.8-14.6-2.4-21.5-9.5c-3.7,7.1-8.8,11.4-15.2,12.9c-2.8,0.7-5.7,0.7-8.5,0.2c-13.6-2.1-26-14.8-27.7-16.5
	c-1.8-1.9-1.8-5,0.2-6.8c1.9-1.8,5-1.7,6.8,0.2c4.3,4.5,17.5,15.7,27.1,13.5c4-0.9,7.3-4.4,9.9-10.4c-0.5-0.4-1-0.8-1.4-1.3
	l-21.2-24.6c-1.1-1.3-1.8-2.9-2.1-4.5c-15.8-7.5-38.4-13.8-69.7-12.9c-72.9,2-143.9,43.1-133.5,59.3
	c10.4,16.1,237.6,17.3,237.6,17.3s214.2-1.2,225.9-20.9C507.5,383.8,443.3,354.4,376.5,348.2"/>
<path class="st3" d="M369.4,173c0,0,71.4-55.9,77-50.3c5.6,5.6-39.8,88.9-39.8,88.9C395.9,197.4,383.6,184.2,369.4,173 M383.1,322.3
	c-1.2,7.6-8.3,12.8-15.9,11.6c-7.6-1.2-12.8-8.3-11.6-15.9c1.2-7.6,8.3-12.8,15.9-11.6C379.1,307.5,384.3,314.7,383.1,322.3
	 M163,322.3c-1.2,7.6-8.3,12.8-15.9,11.6c-7.6-1.2-12.8-8.3-11.6-15.9c1.2-7.6,8.3-12.8,15.9-11.6C159,307.5,164.2,314.7,163,322.3
	 M110.4,200.6c0,0-28.2-83.6-22.4-86.4c5.8-2.9,65.4,49.1,65.4,49.1S122.3,186.3,110.4,200.6 M422.9,236.4c0,0,63.4-115,40.2-131.6
	c-23.2-16.6-115,59.3-115,59.3c-10-7.5-28.9-15.7-37-21.7c-8.2-5.9-6.7-26.4-13.7-23.4c-6.9,2.9-19,16.7-23.4,16.5
	c-4.4-0.2-4.3-14.7-19.4-33.4c-15.1-18.8-11.3,10.6-22.3,18.5c-10.9,8-0.4-19.4-9.4-5.2c-9,14.2-27.5,28.3-27.5,28.3l-1.8,0.6
	c-6.2,1.9-17.9,6.9-17.9,6.9s-72.5-69.6-99.5-55.1c-27,14.6,19,125,19,125c-36.5,56.9-44.3,126.6-40.8,158.2
	c25.3-15.4,67.9-30.4,111.2-31.5c31.2-0.8,53.9,5.5,69.7,12.9c-0.3-1.7,0-3.4,0.7-5.1c1.4-3.2,4.5-5.3,8.1-5.3l39.3-0.6
	c3.4,0,6.5,1.8,8.1,4.8s1.3,6.6-0.7,9.4l-1.8,2.5c19.5-10.6,50-21.9,87.4-18.4c33,3.1,65.3,11.8,88.2,22.2
	C462.3,336.8,450.4,283.7,422.9,236.4L422.9,236.4z"/>
</svg>
