<?xml version="1.0" encoding="utf-8"?>
<!-- Generator: Adobe Illustrator 28.3.0, SVG Export Plug-In . SVG Version: 6.00 Build 0)  -->
<svg version="1.1" id="Capa_1" xmlns="http://www.w3.org/2000/svg" xmlns:xlink="http://www.w3.org/1999/xlink" x="0px" y="0px"
	 viewBox="0 0 500 500" style="enable-background:new 0 0 500 500;" xml:space="preserve">
<style type="text/css">
	.st0{fill:#9AB7C7;}
	.st1{fill:#B4DCD4;}
	.st2{fill:#ECC6BC;}
	.st3{fill:#E1A598;}
	.st4{fill:#F2C3D2;}
	.st5{fill:#FAE9EF;}
</style>
<path class="st4" d="M443.9,221.4c-8.2,12.8-20,16.2-20,16.2c-11.7-37.1-53.2-69.1-53.2-69.1s47.6-36.4,65.4-25.4
	C466.8,162.2,457.6,200,443.9,221.4 M380.3,326.1c-0.4,7.6-6.9,13.5-14.6,13.1c-7.6-0.4-13.5-6.9-13.1-14.6
	c0.4-7.6,6.9-13.5,14.6-13.1C374.8,312,380.7,318.5,380.3,326.1 M287.4,382.3c-0.6,0.5-15.1,11.3-42.3,13.6
	c-3.2,0.3-6.3,0.4-9.3,0.4c-21.8,0-36-6.4-36.7-6.7c-3.5-1.6-5-5.7-3.4-9.2c1.6-3.5,5.7-5,9.2-3.4c0.2,0.1,12.7,5.6,31.7,5.4l-1-7.1
	c-0.2,0-0.3,0-0.5,0c-5.5,0-10.6-0.6-14.9-1.7c-11.3-3-13.5-9.1-13.8-12.4c-0.3-3.4,0.8-9.7,11.4-14.6c5.7-2.7,13.4-4.5,21.5-5.2
	c8.1-0.7,16-0.2,22.1,1.4c11.3,3,13.5,9.1,13.8,12.4c0.3,3.4-0.8,9.7-11.4,14.6c-4,1.9-8.9,3.3-14.3,4.3l1,7.2
	c18.6-2.8,28.4-9.9,28.5-10c3.1-2.3,7.4-1.7,9.7,1.4C291.1,375.6,290.5,380,287.4,382.3 M69.3,235.6c0,0-37.3-49-2.7-88
	c34.6-39,76.9,4,76.9,4C103.7,170.3,69.3,235.6,69.3,235.6 M139.9,331.4c-0.4,7.6-6.9,13.5-14.6,13.1c-7.6-0.4-13.5-6.9-13.1-14.6
	c0.4-7.6,6.9-13.5,14.6-13.1C134.5,317.2,140.3,323.7,139.9,331.4 M471.6,147.1c-13-29.2-45.4-34.1-70-25.5
	c-28.1,9.8-47.9,35.5-47.9,35.5c-19.9-18.9-58.3-26.6-64.7-28.1c-6.4-1.5,13.1-23.3,6.6-26.7c-6.5-3.4-15.3,13.4-21.7,12.7
	c0,0-1.2-2.8-6.4-5.9c-5.4-0.3-12.2,15.3-12.2,15.3s-12.1-2.7-18.4-0.4c-6.3,2.4,3.9-24.2-9.6-25.2c-13.6-1.1-13,22-25.6,28.6
	l-18.1,5.4c0,0,4.1-30.1-4-22.6c-12.9,11.9-16,30.2-16,30.2s-10.6-19.1-30.8-26.7c-25.8-9.7-64.4-6.2-84.7,20.5
	C8.5,186,44.3,250.4,61,254.5c-25.8,60.6-19.5,120.9-19.5,120.9s5.7,23.9,18.3,24.5c12.6,0.7,359.5,0.3,379,1.3
	c19.5,1,16.7-23.3,16.7-23.3s-0.2-84-21.4-119.1c0,0,18.5-5.2,30.5-22C479.2,216.6,486.9,181.3,471.6,147.1"/>
<g>
	<path class="st5" d="M298.6,119.6c-5.7,0.9-9.5,6.3-8.6,12c0,0.1,1.6,10.9-1.8,30.6c-1,5.7,2.8,11.1,8.5,12.1
		c0.6,0.1,1.2,0.2,1.8,0.2c5,0,9.4-3.6,10.3-8.7c4-23.3,2-36.2,1.8-37.6C309.6,122.4,304.3,118.7,298.6,119.6z"/>
	<path class="st5" d="M206.2,126.3c-0.2-5.8-5.1-10.3-10.8-10c-5.8,0.2-10.3,5.1-10,10.8c0.3,7.6,1.8,33.4,8.7,43.4
		c2,3,5.3,4.6,8.6,4.6c2,0,4.1-0.6,5.9-1.8c4.8-3.2,6-9.7,2.7-14.5C209.1,155.5,206.7,140.4,206.2,126.3z"/>
	<path class="st5" d="M238.7,108.6c-5.4,2-8.2,7.9-6.3,13.4c0.1,0.2,8.3,24,1.1,68c-0.9,5.7,2.9,11.1,8.6,12
		c0.6,0.1,1.1,0.1,1.7,0.1c5,0,9.5-3.6,10.3-8.8c8.2-50.1-1.6-77.5-2.1-78.6C250,109.4,244,106.7,238.7,108.6z"/>
	<path class="st5" d="M40,309.6l26.9,5.6c0.7,0.2,1.4,0.2,2.1,0.2c4.8,0,9.2-3.4,10.2-8.3c1.2-5.6-2.4-11.2-8.1-12.4l-26.9-5.6
		c-5.6-1.2-11.2,2.4-12.4,8.1C30.8,302.9,34.4,308.4,40,309.6z"/>
	<path class="st5" d="M90.2,326l-53.3-6.6c-5.7-0.7-10.9,3.4-11.6,9.1c-0.7,5.7,3.4,10.9,9.1,11.6l53.3,6.6c0.4,0.1,0.9,0.1,1.3,0.1
		c5.2,0,9.7-3.9,10.4-9.2C100,331.9,95.9,326.7,90.2,326z"/>
	<path class="st5" d="M64,351l-35.7,7.7c-5.6,1.2-9.2,6.8-8,12.4c1.1,4.9,5.4,8.2,10.2,8.2c0.7,0,1.5-0.1,2.2-0.2l35.7-7.7
		c5.6-1.2,9.2-6.8,8-12.4C75.2,353.4,69.6,349.8,64,351z"/>
	<path class="st5" d="M418.7,303.4c0.2,0,0.5,0,0.7,0l32-2.2c5.8-0.4,10.1-5.4,9.7-11.1c-0.4-5.8-5.4-10.1-11.1-9.7l-32,2.2
		c-5.8,0.4-10.1,5.4-9.7,11.1C408.7,299.1,413.3,303.4,418.7,303.4z"/>
	<path class="st5" d="M466.5,323.9c-0.7-5.7-5.9-9.8-11.6-9.1l-50.7,6.2c-5.7,0.7-9.8,5.9-9.1,11.6c0.6,5.3,5.2,9.2,10.4,9.2
		c0.4,0,0.8,0,1.3-0.1l50.7-6.2C463.2,334.8,467.2,329.6,466.5,323.9z"/>
	<path class="st5" d="M472.3,352.5c-0.8-5.7-6-9.7-11.7-9l-35.1,4.7c-5.7,0.8-9.7,6-9,11.7c0.7,5.2,5.2,9.1,10.3,9.1
		c0.5,0,0.9,0,1.4-0.1l35.1-4.7C469.1,363.4,473.1,358.2,472.3,352.5z"/>
</g>
</svg>
