<?xml version="1.0" encoding="utf-8"?>
<!-- Generator: Adobe Illustrator 28.3.0, SVG Export Plug-In . SVG Version: 6.00 Build 0)  -->
<svg version="1.1" id="Capa_1" xmlns="http://www.w3.org/2000/svg" xmlns:xlink="http://www.w3.org/1999/xlink" x="0px" y="0px"
	 viewBox="0 0 500 500" style="enable-background:new 0 0 500 500;" xml:space="preserve">
<style type="text/css">
	.st0{fill:#9AB7C7;}
	.st1{fill:#B4DCD4;}
	.st2{fill:#ECC6BC;}
	.st3{fill:#E1A598;}
	.st4{fill:#F2C3D2;}
	.st5{fill:#FAE9EF;}
</style>
<path class="st1" d="M407.2,224.3c-6.4-19.2-30.5-39.2-30.5-39.2s29.9-11.9,35.7-8.4C418.2,180.2,407.2,224.3,407.2,224.3
	 M340,286.5c-1.7,8.1-9.6,13.3-17.7,11.6c-8.1-1.7-13.3-9.6-11.6-17.7c1.7-8.1,9.6-13.3,17.7-11.6
	C336.5,270.5,341.7,278.4,340,286.5 M293.7,353.7c-0.3,0.8-8.8,19.1-24.2,20.8c-8,0.9-15.9-2.8-23.6-11c-7.2,10.1-15,15.3-23.3,15.3
	c-0.2,0-0.3,0-0.4,0c-15.2-0.3-24.6-18.2-25-18.9c-1.4-2.6-0.3-5.9,2.3-7.3c2.6-1.4,5.9-0.3,7.3,2.3c1.9,3.6,8.4,13,15.8,13.1h0.2
	c5.6,0,10.8-5.4,14.9-11.3c-0.1-0.2-0.3-0.3-0.4-0.5l-11.9-16.7c-2.1-2.9-2.4-6.7-0.8-9.9c1.6-3.2,4.8-5.3,8.3-5.5l21-1
	c3.5-0.2,6.8,1.5,8.7,4.5c1.9,2.9,2.1,6.7,0.5,9.7l-9.1,17.7c-0.1,0.2-0.3,0.4-0.4,0.7c4.3,4.7,9.6,8.7,15,8.1
	c7.7-0.8,13.9-10.8,15.6-14.5c1.2-2.7,4.4-3.9,7.1-2.7C293.8,347.8,295,351,293.7,353.7 M153.4,295.2c-8.1,1.7-16-3.5-17.7-11.6
	c-1.7-8.1,3.5-16,11.6-17.7c8.1-1.7,16,3.5,17.7,11.6C166.7,285.6,161.5,293.5,153.4,295.2 M98,203.4c0,0-20.2-38.7-15.9-46
	c6.4-10.9,59,1.6,59,1.6S107.5,186.4,98,203.4 M446.4,140c-17.3-12.1-96,20.6-96,20.6c-8.8-8.8-29.2-16.4-29.2-16.4s9-24.6-0.8-27.6
	c-9.7-3-21.6,16.5-47.8,12.9c0,0,11.9-16.2,3.5-21.8c-8.4-5.6-34.9,12.2-47.8,12.1c0,0,4.8-13-5.5-13.3
	c-10.3-0.3-14.6,20.6-21.9,25.8c-11.7,0.2-23,6.1-23,6.1s-109.7-31-129.1-7c-17.1,21.1,32,100.9,32,100.9
	c-41.1,73.4-29.4,149.4-29.4,149.4s62.1,12.9,190.8,12c128.7-0.8,187.5-14.6,187.5-14.6s2.5-100-7.1-116
	C422.5,263,475,159.9,446.4,140"/>
</svg>
