<?xml version="1.0" encoding="utf-8"?>
<!-- Generator: Adobe Illustrator 28.3.0, SVG Export Plug-In . SVG Version: 6.00 Build 0)  -->
<svg version="1.1" id="Capa_1" xmlns="http://www.w3.org/2000/svg" xmlns:xlink="http://www.w3.org/1999/xlink" x="0px" y="0px"
	 viewBox="0 0 500 500" style="enable-background:new 0 0 500 500;" xml:space="preserve">
<style type="text/css">
	.st0{fill:#9AB7C7;}
	.st1{fill:#B4DCD4;}
	.st2{fill:#ECC6BC;}
	.st3{fill:#E1A598;}
	.st4{fill:#F2C3D2;}
	.st5{fill:#FAE9EF;}
</style>
<path class="st0" d="M412.8,241.7c0,0-23.8-48.1-62.6-76.7c0,0,11.7-13,28.9-21.2c21.6-10.4,51-14.8,64.9,6.2
	C468.9,187.7,412.8,241.7,412.8,241.7 M368.7,326.6c-0.4,7.3-6.6,12.8-13.9,12.4c-7.3-0.4-12.8-6.6-12.4-13.9
	c0.4-7.3,6.6-12.8,13.9-12.4C363.5,313.1,369.1,319.3,368.7,326.6 M307.4,373c-0.8,1.1-20.9,27.8-44.6,27.1
	c-9.1-0.3-17.2-4.3-24.3-12.1c-9.7,10.1-20.4,15.4-31.9,15.8c-0.5,0-0.9,0-1.4,0c-21.3,0-36.7-17.2-37.4-17.9
	c-2.5-2.8-2.2-7.1,0.6-9.6c2.8-2.5,7.1-2.2,9.6,0.6c0.1,0.1,12.6,13.9,28.1,13.3c8-0.3,15.8-4.5,23.1-12.4c-0.7-0.5-1.4-1.1-2-1.7
	l-10.2-10.9c-3.6-3.9-4.6-9.3-2.7-14.3s6.4-8.2,11.7-8.6l17.2-1.2c5-0.4,9.8,2.1,12.5,6.3c2.7,4.3,2.8,9.6,0.3,14l-7,12.2
	c-0.7,1.2-1.5,2.2-2.5,3.1c5,6.4,10.4,9.7,16.4,9.8c13.7,0.4,28.7-15.5,33.3-21.6c2.3-3,6.5-3.6,9.6-1.4
	C309.1,365.8,309.7,370,307.4,373 M67.9,238.9c0,0-37.1-58-2.6-88.8c34.5-30.8,74.2,7.6,74.2,7.6C101.1,176.9,67.9,238.9,67.9,238.9
	 M129.8,329.2c-0.4,7.3-6.6,12.8-13.9,12.4c-7.3-0.4-12.8-6.6-12.4-13.9c0.4-7.3,6.6-12.8,13.9-12.4
	C124.6,315.8,130.2,322,129.8,329.2 M458.7,133.9c-28.6-35.8-74.3-21-102.2-3.1c-16.3,10.4-24.9,23.6-24.9,23.6
	C315,141,301,136.3,301,136.3s15-32.5,4.4-37.6c-10.6-5.1-36.8,28.4-52.1,23.2c0,0,12.3-14.7,3-17.4c-9.4-2.7-17.9,18.8-27.8,16.9
	c0,0,12.7-30.9,0.7-31.6c-12-0.7-23.5,39.1-50.7,48c0,0-12.6,2.9-18,8.6c0,0-11.2-13.2-27.2-21.9c-25.6-13.8-63.9-21.3-89.9,15.8
	c-42.4,60.3,15.8,120,15.8,120c-22.8,43.3-24.5,123.4-24.5,123.4s-3.6,14.5,8.7,15.2c6.2,0.3,104,10.9,198.1,11.2
	c94.6,0.3,185.5-9.6,191.5-10.6c12-2.1,12.2-26.4,12.2-26.4s-9-91.2-24.1-112.5C421,260.6,504,190.6,458.7,133.9"/>
</svg>
