<?xml version="1.0" encoding="utf-8"?>
<!-- Generator: Adobe Illustrator 28.3.0, SVG Export Plug-In . SVG Version: 6.00 Build 0)  -->
<svg version="1.1" id="Capa_1" xmlns="http://www.w3.org/2000/svg" xmlns:xlink="http://www.w3.org/1999/xlink" x="0px" y="0px"
	 viewBox="0 0 500 500" style="enable-background:new 0 0 500 500;" xml:space="preserve">
<style type="text/css">
	.st0{fill:#9AB7C7;}
	.st1{fill:#B4DCD4;}
	.st2{fill:#ECC6BC;}
	.st3{fill:#E1A598;}
	.st4{fill:#F2C3D2;}
	.st5{fill:#FAE9EF;}
</style>
<path class="st5" d="M467.3,382.4c0,0,4.9,32.8-10.2,38.1c-1.8,0.6-8.4,1.7-18.7,3c0,0,8-136.2-70.6-139.5
	c-78.6-3.3-68.1,83.8-100.9,82.2c-32.7-1.6-14.8-71.7-87.8-78.4c-73-6.7-92.9,138.5-92.9,138.5c-5.4-0.5-8.8-0.9-9.7-1
	c-10.7-1.5-9.7-13-9.7-13s-4.6-68.8,12.7-127.8c0,0-57.8-49.1-46-69.9c11.8-20.8,71.6,9.5,71.6,9.5s38-60.1,81.2-67.6
	c0,0-4.1-32.7,10.7-33.5c7.2-0.6,15.9,23.6,15.9,23.6s15.1-59.7,32.4-55.4c10.5,3.1-4.3,47.2,10.1,49.2c8.7-7,16-21.2,27.8-17.9
	c10.3,6.2-18.9,18.6-7.7,20.7c81.8,16.8,114.7,61.3,114.7,61.3s64.9-34.4,72.6-16.3c7.6,18.1-34.2,63.3-34.2,63.3
	C458.7,293.9,467.3,382.4,467.3,382.4"/>
<g>
	<path class="st4" d="M367.8,283.9c-78.6-3.3-68.1,83.8-100.9,82.2c-32.8-1.6-14.8-71.7-87.8-78.4c-73-6.7-92.9,138.5-92.9,138.5
		c26.4,2.5,101.7,8.5,177.8,7.9c70.3-0.5,141.3-6.6,174.3-10.6C438.4,423.5,446.4,287.3,367.8,283.9z M175.4,361.5
		c-9.9,0-18-8-18-18c0-9.9,8-18,18-18c9.9,0,18,8,18,18C193.4,353.5,185.3,361.5,175.4,361.5z M328.1,395.2
		c-0.4,0.9-10.7,22.8-29.6,26.9c-8.7,1.9-17.5-0.2-26.1-6.1c-7.9,6.9-15.8,10.1-23.5,9.6c-1.1-0.1-2.2-0.2-3.3-0.5
		c-16.7-3.5-24.3-23.5-25.1-25.7c-1.3-3.7,0.6-7.9,4.4-9.2c3.8-1.3,7.9,0.6,9.2,4.4c1.5,4,7,14.9,14.5,16.5c4.6,1,9.6-1.8,13.7-5.4
		c-0.2-0.2-0.3-0.4-0.5-0.7l-6.9-11.1c-2.3-3.6-2.4-8.2-0.3-11.9c2.1-3.7,6-6,10.3-6l14,0c4.3,0,8.2,2.3,10.2,6.1
		c2,3.7,1.9,8.3-0.4,11.9l-6.9,10.9c4.8,3,9.4,4.1,13.7,3.1c9.9-2.1,17.5-14.3,19.6-18.8c1.7-3.6,6-5.2,9.6-3.5
		C328.1,387.3,329.7,391.6,328.1,395.2z M370.6,361.5c-9.9,0-18-8-18-18c0-9.9,8-18,18-18c9.9,0,18,8,18,18
		C388.6,353.5,380.6,361.5,370.6,361.5z"/>
	<path class="st4" d="M118.9,214.7c1.4,1.2,3.1,1.8,4.9,1.8c2.1,0,4.2-0.9,5.7-2.6c2.7-3.1,2.3-7.9-0.8-10.5l-23.9-20.5l24.8-34.2
		c1.1-1.5,1.6-3.3,1.4-5.2l-3.9-36.9c-0.4-4.1-4.1-7.1-8.2-6.6c-4.1,0.4-7.1,4.1-6.6,8.2l3.6,34l-22.4,30.9l-3-2.5l4.6-32.5
		c0.2-1.5,0-3.1-0.8-4.5L71.4,89.8c-1.9-3.7-6.4-5.1-10.1-3.2c-3.7,1.9-5.1,6.4-3.2,10.1l21.7,41.7L76,165.1l-29.4-4.2
		c-4.1-0.6-7.9,2.3-8.5,6.4s2.3,7.9,6.4,8.5l34.6,4.9L118.9,214.7z"/>
	<path class="st4" d="M354.4,194c1.5,1.7,3.6,2.6,5.7,2.6c1.7,0,3.5-0.6,4.9-1.8l39.7-34.1l34.7-4.9c4.1-0.6,6.9-4.4,6.4-8.5
		c-0.6-4.1-4.4-6.9-8.5-6.4l-29.4,4.2l-3.8-26.7l21.7-41.7c1.9-3.7,0.5-8.2-3.2-10.1c-3.7-1.9-8.2-0.5-10.1,3.2l-22.8,43.8
		c-0.7,1.4-1,3-0.8,4.5l4.6,32.5l-3,2.5l-22.4-30.9l3.6-34c0.4-4.1-2.5-7.8-6.6-8.2c-4.1-0.4-7.8,2.5-8.2,6.6l-3.9,36.9
		c-0.2,1.8,0.3,3.7,1.4,5.2l24.8,34.2l-23.9,20.5C352.1,186.2,351.7,190.9,354.4,194z"/>
	<path class="st4" d="M421.7,242.1c0,0,36.2-41.9,31.7-46.6c-4.5-4.7-55.5,17.8-55.5,17.8S413.4,223.9,421.7,242.1z"/>
	<path class="st4" d="M47.1,221.9c-6.2,9.3,37.4,51.3,37.4,51.3c5.6-22.2,17-40.1,17-40.1S53.3,212.6,47.1,221.9z"/>
</g>
</svg>
