<?xml version="1.0" encoding="utf-8"?>
<!-- Generator: Adobe Illustrator 28.3.0, SVG Export Plug-In . SVG Version: 6.00 Build 0)  -->
<svg version="1.1" id="Capa_1" xmlns="http://www.w3.org/2000/svg" xmlns:xlink="http://www.w3.org/1999/xlink" x="0px" y="0px"
	 viewBox="0 0 500 500" style="enable-background:new 0 0 500 500;" xml:space="preserve">
<style type="text/css">
	.st0{fill:#A6BDCD;}
	.st1{fill:#C2E4EE;}
	.st2{fill:#BACEC9;}
	.st3{fill:#C2E2DA;}
	.st4{fill:#849791;}
	.st5{fill:#F6CDDD;}
	.st6{fill:#E5AC9E;}
	.st7{fill:#DEB8BD;}
	.st8{fill:#C29391;}
	.st9{fill:#43657D;}
</style>
<path class="st8" d="M427.1,218.7c-0.1,42.6-3.4,75.6-11.8,108.1c-6.2,23.8-14.9,46.7-27.9,67.7c-19.4,31.4-46.3,53.8-81.4,66
	c-19.9,7-40.4,10.6-61.5,11.8c-8,0.5-16,1.2-24,0.8c-19.6-0.9-39.1-2.6-57.8-9c-25.5-8.6-44.4-25-57.8-48.1
	c-12.2-21-18.8-43.8-23.6-67.3c-3.2-15.8-4.9-31.7-6.2-47.7c-1.7-21.3-2.8-42.6-2-64c0.7-18.4,1.3-36.8,2.9-55.1
	c1.5-17.2,3.1-34.3,5.2-51.4c1.8-14.5,2.5-29.3,7.6-43.3c5.4-14.7,12.4-28.4,22.9-40.1c10.6-11.8,23.5-19.6,39.6-20.5
	c7.7-0.4,15.1,1.4,22.2,4.6c9.9,4.5,18.7,10.7,26.6,18.2c8.8,8.3,17,17.4,26.3,25.2c3.3,2.8,6.7,5.5,10.3,7.7
	c12.4,7.6,24.6,6.6,36.6-0.8c8.2-5,15.5-11.3,22.6-17.8c6.3-5.9,12.7-11.7,19.8-16.6c21.5-15,41.1-13.4,59.9,5
	c7.7,7.6,14.1,16.3,19.5,25.7c14.7,25.9,22.6,54.1,27.1,83.4C425.6,183.3,427.4,205.5,427.1,218.7"/>
</svg>
