<?xml version="1.0" encoding="utf-8"?>
<!-- Generator: Adobe Illustrator 28.3.0, SVG Export Plug-In . SVG Version: 6.00 Build 0)  -->
<svg version="1.1" id="Capa_1" xmlns="http://www.w3.org/2000/svg" xmlns:xlink="http://www.w3.org/1999/xlink" x="0px" y="0px"
	 viewBox="0 0 500 500" style="enable-background:new 0 0 500 500;" xml:space="preserve">
<style type="text/css">
	.st0{fill:#A6BDCD;}
	.st1{fill:#C2E4EE;}
	.st2{fill:#BACEC9;}
	.st3{fill:#C2E2DA;}
	.st4{fill:#849791;}
	.st5{fill:#F6CDDD;}
	.st6{fill:#E5AC9E;}
	.st7{fill:#DEB8BD;}
	.st8{fill:#C29391;}
	.st9{fill:#43657D;}
</style>
<path class="st2" d="M395,228.1c-0.5,50.7-12.4,94.1-39.9,132.8c-14.2,19.8-31.3,36.8-50.9,51.1c-30.8,22.5-63.8,41-100.4,52.6
	c-18.5,5.9-37.5,7.6-56.7,6.1c-17.8-1.4-26.2-9.6-29.3-27.4c-2-11.8-2.8-23.7-3.1-35.6c-0.8-31-2-62-2.9-93.1
	c-0.9-30.7-0.3-61.5-1.9-92.1c-1.6-31.4-1-62.7-1.4-94.1c-0.3-21-1.7-41.9-3.2-62.9c-0.6-7.5-0.6-15.1,1.3-22.4
	c2.3-8.5,6.3-12.7,15.1-12.9c12.5-0.3,24.9-1.7,37.5-1.1c19.7,1,39.4,2.3,59,4.4c24.1,2.6,47.7,7.1,70.7,14.8
	c31.2,10.4,54.2,30.8,71.5,58.2c18.7,29.4,28.7,61.8,32.7,96.3C394.2,212.3,395.5,222,395,228.1"/>
</svg>
