<?xml version="1.0" encoding="utf-8"?>
<!-- Generator: Adobe Illustrator 28.3.0, SVG Export Plug-In . SVG Version: 6.00 Build 0)  -->
<svg version="1.1" id="Capa_1" xmlns="http://www.w3.org/2000/svg" xmlns:xlink="http://www.w3.org/1999/xlink" x="0px" y="0px"
	 viewBox="0 0 500 500" style="enable-background:new 0 0 500 500;" xml:space="preserve">
<style type="text/css">
	.st0{fill:#A6BDCD;}
	.st1{fill:#C2E4EE;}
	.st2{fill:#BACEC9;}
	.st3{fill:#C2E2DA;}
	.st4{fill:#849791;}
	.st5{fill:#F6CDDD;}
	.st6{fill:#E5AC9E;}
	.st7{fill:#DEB8BD;}
	.st8{fill:#C29391;}
	.st9{fill:#43657D;}
</style>
<path class="st0" d="M394.1,71.2c0.5,10.8-2.5,21.2-4.9,31.7c-2.5,10.8-6,21.4-7.8,32.5c-1.1,7-1.3,14.1-0.2,21.1
	c1.7,11.2,8.4,19.2,16.9,25.9c8.2,6.5,17.3,11.5,26.2,16.9c12,7.4,23.8,15.3,34,25.1c13.1,12.5,23.4,27,27.9,44.8
	c2.9,11.7,3.2,23.5-2.7,34.7c-4.2,8.1-10.4,13.9-18.2,18.2c-12.7,7.1-26.7,9.8-40.9,12.2c-15.9,2.7-31.9,5.1-47.3,10.2
	c-20.8,6.9-39,18-55.7,31.9c-12.5,10.3-24,21.6-35.3,33.1c-14.5,14.7-29.2,29.1-45.9,41.3c-14.6,10.7-30.3,19.4-48.3,23.2
	c-12.8,2.7-25.4,2.6-37.8-2.2c-13.7-5.3-23.3-15-29.3-28.2c-6.2-13.6-8-28-6.3-42.9c2.3-21.1,9.8-40.2,19.8-58.7
	c3.6-6.8,6.2-14,4.3-21.9c-1.6-6.6-5.5-11.7-11.2-15.4c-5.8-3.8-11.8-7-18.1-9.8c-21.9-10-42-22.7-60.1-38.8
	c-12.6-11.3-23.1-24.1-31-39c-6.4-12.2-10.4-25.1-10.2-38.9c0.4-26.6,12.2-47.1,34.7-61.1c18.5-11.5,38.8-14.9,60.4-12.7
	c14.1,1.4,27.8,4.5,41.8,6.5c13.9,2,27.7,2.5,41.5,0c17.2-3.1,32.2-11.1,46.3-20.9c14.5-10.1,27.4-22.1,41.1-33.3
	c13.7-11.2,28.1-21.4,44.8-27.6c14.3-5.3,28.9-6.7,43.6-1.8c16.9,5.6,27.6,20.5,28,38.3C394.1,67.4,394.1,69.2,394.1,71.2"/>
</svg>
