<?xml version="1.0" encoding="utf-8"?>
<!-- Generator: Adobe Illustrator 28.3.0, SVG Export Plug-In . SVG Version: 6.00 Build 0)  -->
<svg version="1.1" id="Capa_1" xmlns="http://www.w3.org/2000/svg" xmlns:xlink="http://www.w3.org/1999/xlink" x="0px" y="0px"
	 viewBox="0 0 500 500" style="enable-background:new 0 0 500 500;" xml:space="preserve">
<style type="text/css">
	.st0{fill:#A6BDCD;}
	.st1{fill:#C2E4EE;}
	.st2{fill:#BACEC9;}
	.st3{fill:#C2E2DA;}
	.st4{fill:#849791;}
	.st5{fill:#F6CDDD;}
	.st6{fill:#E5AC9E;}
	.st7{fill:#DEB8BD;}
	.st8{fill:#C29391;}
	.st9{fill:#43657D;}
</style>
<path class="st3" d="M186,248.1c2.6-24.6-0.8-48.6-0.5-72.7c0.2-21.1-0.5-42.1-0.1-63.2c0.4-20.5,3.7-40.5,13.1-59.2
	c4.2-8.4,10-15.3,17.1-21.3c14.9-12.6,35.5-12.3,50.5,0.3c10.3,8.7,16.3,19.9,19.5,32.7c5.6,22.6,7.1,45.6,5.7,68.8
	c-1.7,27.1-4.2,54.1-7.6,81.1c-2,16.1-3.8,32.2-4.3,48.6c4.7-16.2,9.2-32.5,14.1-48.7c8.2-27.4,17-54.5,32.3-79
	c7.6-12.2,16.2-23.4,28.2-31.8c24.3-17.1,50.3-12.9,67.7,11.3c10.5,14.6,14.1,31.4,15,49c1.5,27.1-3.5,53.5-9.6,79.7
	c-6.5,27.8-14.9,55.1-23.5,82.3c-8.3,26.2-17.2,52.3-25.8,78.4c-9.2,28.3-27.6,47-54.8,57.8c-23.3,9.2-47.5,14.2-72.5,15.2
	c-15.6,0.6-31.2,1-46.8-1.7c-36.4-6.3-61.7-26.2-76.3-60.3c-7.3-17-10.1-35.2-15.6-52.7c-18-57.1-32.5-115.1-43.8-173.9
	c-4.4-22.7-7.3-45.7-3.1-68.8c2.8-15.2,6.8-29.9,16.6-42.3c12-15.2,28.8-16.9,43.7-4.5c6.6,5.5,11.3,12.6,15.5,20.1
	c10.6,19.2,17,40,22.8,61c7.7,27.8,14.1,56,20.2,84.2C184.4,241.6,185.3,244.8,186,248.1"/>
</svg>
