<?xml version="1.0" encoding="utf-8"?>
<!-- Generator: Adobe Illustrator 28.3.0, SVG Export Plug-In . SVG Version: 6.00 Build 0)  -->
<svg version="1.1" id="Capa_1" xmlns="http://www.w3.org/2000/svg" xmlns:xlink="http://www.w3.org/1999/xlink" x="0px" y="0px"
	 viewBox="0 0 500 500" style="enable-background:new 0 0 500 500;" xml:space="preserve">
<style type="text/css">
	.st0{fill:#A6BDCD;}
	.st1{fill:#C2E4EE;}
	.st2{fill:#BACEC9;}
	.st3{fill:#C2E2DA;}
	.st4{fill:#849791;}
	.st5{fill:#F6CDDD;}
	.st6{fill:#E5AC9E;}
	.st7{fill:#DEB8BD;}
	.st8{fill:#C29391;}
	.st9{fill:#43657D;}
</style>
<path class="st9" d="M222.2,471.1c-48.3,0.4-90.2-15.7-124-50.4c-23.9-24.5-38.2-54.4-42.7-88.5c-6.5-49,4.8-94.9,24.4-139.2
	c15.6-35.2,36.4-67.1,63.2-94.7c26.3-27,56.4-49.1,92-62.6c22.7-8.6,45.3-9.3,68.4-0.8c21.5,7.9,29.9,23.5,23.5,45.4
	c-3.6,12.3-10,22.9-18.6,32.5c-17.8,19.6-39.1,35.1-59.6,51.4c-14.2,11.3-28.2,22.9-38.8,37.9c-4.8,6.7-8.9,13.7-9.8,22.1
	c-1.4,14,5.9,21.1,19.9,19.1c8.5-1.2,16.6-3.9,24.1-8.2c14.2-8.1,27.1-17.9,39.4-28.7c20.9-18.4,39.8-38.8,59.8-58
	c8.3-8,17.3-15,27.8-20c20.6-9.9,40.6-4.8,53.6,14.1c12.4,17.9,16.9,38.6,19.6,59.6c4.2,32.7,1.7,65.2-7.4,96.8
	c-26.7,93.2-86.9,150.8-182.7,170.1C243.7,470.9,233,471,222.2,471.1"/>
</svg>
