<?xml version="1.0" encoding="utf-8"?>
<!-- Generator: Adobe Illustrator 28.3.0, SVG Export Plug-In . SVG Version: 6.00 Build 0)  -->
<svg version="1.1" id="Capa_1" xmlns="http://www.w3.org/2000/svg" xmlns:xlink="http://www.w3.org/1999/xlink" x="0px" y="0px"
	 viewBox="0 0 500 500" style="enable-background:new 0 0 500 500;" xml:space="preserve">
<style type="text/css">
	.st0{fill:#A6BDCD;}
	.st1{fill:#C2E4EE;}
	.st2{fill:#BACEC9;}
	.st3{fill:#C2E2DA;}
	.st4{fill:#849791;}
	.st5{fill:#F6CDDD;}
	.st6{fill:#E5AC9E;}
	.st7{fill:#DEB8BD;}
	.st8{fill:#C29391;}
	.st9{fill:#43657D;}
</style>
<path class="st5" d="M71.7,216c3.8-77,36.4-136.6,107.9-170c50.9-23.8,103.3-22.7,154.2,2.3c26.2,12.9,46,33.4,61,58.4
	c20.1,33.7,28.6,70.8,32.1,109.5c2.9,32.4,2,64.6-4.9,96.3c-16.9,77.1-62.7,128.8-138.6,151.8c-42.9,13-84.3,7.2-122.1-17.9
	c-10.1-6.7-20.4-14-27.3-23.9c-8-11.5-14.3-24.2-20.4-36.8c-13.6-28.6-22.9-58.7-30.1-89.5C77.2,270,71.3,243.6,71.7,216"/>
</svg>
