<?xml version="1.0" encoding="utf-8"?>
<!-- Generator: Adobe Illustrator 28.3.0, SVG Export Plug-In . SVG Version: 6.00 Build 0)  -->
<svg version="1.1" id="Capa_1" xmlns="http://www.w3.org/2000/svg" xmlns:xlink="http://www.w3.org/1999/xlink" x="0px" y="0px"
	 viewBox="0 0 500 500" style="enable-background:new 0 0 500 500;" xml:space="preserve">
<style type="text/css">
	.st0{fill:#FFFFFF;}
	.st1{fill:#C37C73;}
</style>
<path class="st0" d="M144.9,48.6C188.5-1.8,290.6-0.1,373,52.3c46.2,20.3,96.9,91.9,113.1,160c7.7,23.9,5.4,68.4-5.1,99.5
	c-8.2,28.4-40,74.1-71.1,102c-15.5,17.9-54.6,42.8-87.3,55.7c-53.3,37.7-158.6,16.8-235.2-46.8c-35.3-20.8-69.2-82.1-75.7-136.8
	c-3.3-10.5-3.1-29.8,0.3-43.1c2.8-10.2,10.3-30,16.8-44.1C38,177.1,62.7,138,84,111.1C93.4,93.6,120.7,65.6,144.9,48.6"/>
<g>
	<path class="st1" d="M258.1,336.9c17.2,0,31.7-5,43.5-15.1c11.8-10.1,17.7-23.4,17.7-40c0-12.7-2.8-23.4-8.3-32.2
		c-5.6-8.8-12.3-15.1-20.3-18.9c-8-3.8-16.7-5.6-26-5.6c-11.9,0-21.5,3.2-28.8,9.6c1.1-17.8,3.8-31.1,8.1-39.8
		c4.3-8.7,9.5-13,15.6-13c2.8,0,5.2,1.4,7.2,4.2c2,2.8,3.6,6.2,4.9,10.2c1.3,4,2.9,8,4.6,12c1.7,4,4.5,7.4,8.2,10.2
		c3.8,2.8,8.4,4.2,13.8,4.2c6.1,0,11-1.6,14.8-4.8c3.8-3.2,5.6-8.1,5.6-14.7c0-10.5-5.1-19.3-15.4-26.6
		c-10.2-7.3-23.9-10.9-40.9-10.9c-15,0-28,4.1-38.9,12.3c-10.9,8.2-19,19-24.3,32.4c-5.2,13.4-7.9,28.3-7.9,44.9
		c0,24.2,6.3,43.9,19,59C223,329.4,238.9,336.9,258.1,336.9z M240.7,247c3-3.7,7.2-5.5,12.3-5.5c7.8,0,14,6.3,18.5,18.8
		c4.5,12.5,6.8,25.3,6.8,38.5c0,7-1.4,12.5-4.1,16.3c-2.7,3.8-6.4,5.7-11.1,5.7c-8,0-14.3-5.7-19-17c-4.7-11.3-7.5-25.4-8.4-42.1
		C235.9,255.6,237.6,250.7,240.7,247z"/>
	
		<rect x="176.9" y="68.4" transform="matrix(0.8862 -0.4633 0.4633 0.8862 -23.6672 95.236)" class="st1" width="10.2" height="54.7"/>
	<path class="st1" d="M169.5,119.8c0.8,2.4,1,4.5,0.7,6.2c-0.3,1.7-1.4,3.3-3.2,4.7c-1.5,1.2-3.2,1.9-5,2.1
		c-1.8,0.1-3.6-0.4-5.5-1.6c-1.9-1.2-3.8-2.9-5.6-5.2c-2-2.4-3.3-4.7-4.1-6.8c-0.8-2.1-0.9-4-0.5-5.7c0.4-1.7,1.4-3.2,2.8-4.3
		c1.7-1.4,3.5-2.1,5.4-1.9c1.9,0.1,3.8,0.9,5.9,2.5l5.3-6.7c-3.5-2.7-7-3.9-10.5-3.6c-3.5,0.3-7,1.9-10.6,4.8
		c-2.9,2.3-4.9,5.1-6.1,8.3c-1.2,3.2-1.4,6.6-0.7,10.2s2.3,7,4.9,10.1c2.7,3.3,5.6,5.7,8.7,7.1c3.1,1.4,6.4,1.8,9.7,1.1
		c3.3-0.6,6.6-2.2,9.7-4.7c3.4-2.7,5.6-5.7,6.6-9c1-3.3,0.8-6.9-0.6-10.7L169.5,119.8z"/>
	
		<rect x="71.4" y="174.9" transform="matrix(0.3601 -0.9329 0.9329 0.3601 -118.4548 186.4092)" class="st1" width="10.5" height="9.2"/>
	<rect x="100" y="171.1" transform="matrix(0.36 -0.933 0.933 0.36 -110.5135 220.1003)" class="st1" width="10.2" height="39.1"/>
	<path class="st1" d="M263.1,109.2c-0.3,0.6-0.7,1-1,1.3c-0.4,0.3-0.9,0.6-1.5,0.7c-0.6,0.1-1.4,0.1-2.4,0l-5.9-0.5l-0.6,7.3
		l6.4,0.5c2.5,0.2,4.5,0.1,6.1-0.3c1.6-0.4,2.9-1.2,4-2.2c1.1-1.1,2.1-2.6,2.9-4.6L291,67.9l-8.3-0.6l-12.3,28.2l-7.8-29.7
		l-10.8-0.8l10.8,37.8c0.1,0.1,0.1,0.1,0.1,0.2c0,0.1,0,0.2,0,0.3c0.3,1.1,0.5,1.9,0.6,2.6c0.1,0.6,0.1,1.2,0.1,1.6
		c0,0.3,0,0.7-0.1,1C263.3,108.6,263.2,109,263.1,109.2z"/>
	<path class="st1" d="M299.5,109.4c2.3,2.5,5.2,4.4,8.9,5.7c4,1.4,7.7,1.7,11.1,1c3.4-0.7,6.4-2.4,9-5l-6.3-5.2
		c-1.7,1.8-3.3,2.9-5,3.4c-1.7,0.4-3.7,0.3-6-0.5c-1.9-0.6-3.3-1.7-4.3-3.1c-1-1.4-1.5-3.2-1.5-5.5c0-1.6,0.3-3.5,0.9-5.5l25.8,8.9
		c0.3-0.4,0.5-0.8,0.6-1.3c0.2-0.4,0.4-1.1,0.6-1.8c1.3-3.9,1.8-7.5,1.3-10.7c-0.5-3.2-1.7-6.1-3.8-8.4c-2.1-2.4-5-4.2-8.7-5.5
		c-3.6-1.2-7.1-1.5-10.5-0.8c-3.4,0.7-6.4,2.3-9.1,4.8c-2.7,2.5-4.7,5.7-6.1,9.6c-1.4,4-1.8,7.7-1.2,11.1
		C295.9,103.9,297.3,106.9,299.5,109.4z M315,82.2c1.6-0.6,3.4-0.6,5.2,0.1c1.7,0.6,3,1.5,3.9,2.9c0.9,1.4,1.4,3,1.5,5.1
		c0,1.2-0.2,2.5-0.5,4l-16.5-5.7c0.6-1.1,1.2-2,1.8-2.8C311.9,83.9,313.4,82.7,315,82.2z"/>
	<path class="st1" d="M120.6,135.3c-2.2-0.3-4.3,0-6.3,1c-2,1-3.7,2.5-5.2,4.6c-1.8,2.5-2.7,5.2-2.9,8.1c-0.1,2.4,0.5,5,1.5,7.7
		l-5.4-3.8l-5.5,8L129,183l5.8-8.4L113.7,160c-0.9-2.3-1.5-4.4-1.5-6.2c0-2,0.5-3.8,1.6-5.4c1.1-1.6,2.5-2.5,4.1-2.7
		c1.6-0.2,3.3,0.4,5.2,1.6l20.7,14.4l5.7-8.2l-22.1-15.4C125.1,136.5,122.9,135.6,120.6,135.3z"/>
	<path class="st1" d="M208.7,107.9c1.5,1.7,3.2,2.8,5.3,3.4c2.1,0.6,4.4,0.5,7-0.1c2.9-0.7,5.3-2.1,7.3-4.1c1.6-1.7,2.9-4,4-6.6
		l1.5,6.5l9.4-2.2l-9-38l-9.9,2.3l5.9,25c-0.8,2.4-1.8,4.3-2.9,5.5c-1.3,1.4-2.8,2.3-4.7,2.7c-2,0.5-3.7,0.3-4.9-0.5
		c-1.3-0.8-2.2-2.4-2.7-4.7l-5.8-24.5l-10,2.4l6.2,26.4C206.2,104,207.2,106.2,208.7,107.9z"/>
	<polygon class="st1" points="261.2,380.8 250.8,382 251.9,391.2 262.3,390 	"/>
	<path class="st1" d="M387,376.4c-0.9-0.9-1.7-1.9-2.6-3.1c-0.1-0.2-0.3-0.4-0.4-0.6l-10.6-13.7c-1.9-2.5-4.1-4.2-6.5-5.1
		c-2.4-0.9-5-1-7.7-0.3c-2.7,0.7-5.5,2.1-8.4,4.4c-4,3.1-6.6,6.4-7.7,10c-1.1,3.5-0.8,7.2,1,10.9l7.9-4c-1-2.2-1.3-4.3-1-6
		c0.4-1.8,1.5-3.4,3.4-4.9c2.1-1.6,4-2.2,5.8-1.9c1.8,0.3,3.5,1.5,5.1,3.5l1,1.3c-4.4,3.6-7.9,6.9-10.2,10c-2.5,3.2-3.8,6.2-4.1,9
		c-0.2,2.8,0.6,5.4,2.5,7.9c2.1,2.7,4.7,4.1,7.7,4.2c3,0.1,6.1-1.1,9.3-3.6c2.8-2.2,4.8-4.8,5.9-7.8c0.6-1.6,0.9-3.3,0.9-5.1
		c1.2,1.4,2.4,2.6,3.6,3.4l7.7-6l-0.2-0.3C388.7,378,387.8,377.3,387,376.4z M373.6,381.1c-0.6,2.5-1.9,4.6-3.9,6.2
		c-1.5,1.1-2.9,1.6-4.2,1.4c-1.3-0.2-2.5-0.9-3.4-2.1c-1-1.2-1.3-2.6-1-4.2c0.3-1.5,1.2-3.3,2.9-5.2c1.4-1.7,3.5-3.6,6.1-5.7
		l3.7,4.8C373.9,378,374,379.6,373.6,381.1z"/>
	<path class="st1" d="M239.1,399.8c-2.4-1.6-5.2-2.5-8.6-2.5c-3.2,0-5.9,0.7-8.1,2.1c-1.7,1.1-3.3,2.9-4.8,5l0-6l-9.6-0.1l-0.3,53.2
		l10.2,0.1l0.1-18.8c1.2,1.6,2.5,2.9,3.9,3.9c2.2,1.4,4.8,2.1,7.9,2.1c3.2,0,6-0.9,8.5-2.6c2.5-1.8,4.5-4.3,5.9-7.5
		c1.4-3.2,2.1-6.9,2.1-11.1c0-4.1-0.6-7.7-1.9-10.8C243.3,403.8,241.5,401.4,239.1,399.8z M234.7,425.3c-0.8,2-1.8,3.6-3,4.6
		c-1.2,1-2.7,1.5-4.6,1.5c-1.3,0-2.4-0.2-3.4-0.7c-1-0.5-2-1.3-3-2.3c-0.8-0.9-1.7-2.2-2.6-3.7l0.1-13.6c1.3-2.2,2.7-3.9,4-4.9
		c1.5-1.1,3.1-1.6,4.9-1.6c1.8,0,3.4,0.5,4.7,1.6c1.3,1,2.3,2.5,3,4.5c0.7,2,1.1,4.4,1.1,7.3C235.9,420.8,235.5,423.3,234.7,425.3z"
		/>
	<polygon class="st1" points="331,408.4 337.8,375.3 335.6,370.8 306.1,385 309.2,391.5 327.4,382.7 320.5,415.8 322.7,420.4 
		353.5,405.5 350.4,399 	"/>
	<path class="st1" d="M414.4,344.6c-0.6-2.3-1.9-4.3-3.8-5.8c-1.8-1.5-3.7-2.5-5.6-2.8c-1.9-0.3-3.9,0-6,0.9
		c-2.1,0.9-4.4,2.4-6.9,4.4c-2.1,1.8-3.8,3.1-5.1,3.9c-1.3,0.8-2.4,1.2-3.2,1.2c-0.9,0-1.7-0.3-2.4-0.9c-0.8-0.7-1.3-1.4-1.4-2.2
		c-0.1-0.8,0-1.7,0.5-2.7c0.4-1,1-2,1.9-3.1c1.4-1.7,2.9-2.8,4.5-3.4c1.6-0.5,3.5-0.6,5.5-0.3l2-7.4c-3-0.9-5.9-0.7-8.8,0.4
		c-2.9,1.1-5.6,3.3-8.1,6.3c-2.1,2.6-3.6,5.1-4.5,7.7c-0.8,2.6-1,5-0.4,7.2c0.6,2.2,1.8,4.1,3.7,5.6c1.8,1.5,3.6,2.4,5.4,2.7
		c1.8,0.3,3.7,0,5.8-0.8c2.1-0.8,4.3-2.3,6.6-4.4c2.2-1.9,3.9-3.2,5.3-4c1.4-0.8,2.5-1.2,3.5-1.3c1-0.1,1.9,0.3,2.8,1
		c1.1,0.9,1.5,2.2,1.3,3.7c-0.3,1.5-1.2,3.2-2.8,5.1c-1.6,2-3.4,3.3-5.3,4c-1.9,0.7-4,0.8-6.3,0.2l-2.1,7.8c3.2,1,6.4,0.9,9.5-0.4
		c3.1-1.3,6.1-3.7,9-7.1c2.4-2.9,4.1-5.7,5-8.3C414.9,349.4,415.1,346.9,414.4,344.6z"/>
	<rect x="255" y="396.8" transform="matrix(0.9929 -0.119 0.119 0.9929 -47.7 33.9199)" class="st1" width="10.2" height="39.1"/>
	<path class="st1" d="M301.6,419.8c-1.1,1.3-2.8,2.3-5.2,3c-1.9,0.6-3.7,0.6-5.3,0c-1.6-0.6-3.1-1.7-4.4-3.6c-1-1.3-1.7-3-2.5-4.9
		l26.2-7.7c0-0.5-0.1-0.9-0.3-1.4c-0.1-0.5-0.3-1.1-0.5-1.9c-1.2-4-2.9-7.1-5.1-9.5c-2.2-2.4-4.9-3.9-8-4.7
		c-3.1-0.7-6.5-0.5-10.3,0.6c-3.7,1.1-6.7,2.9-9,5.4c-2.4,2.5-3.9,5.6-4.7,9.1c-0.8,3.6-0.5,7.3,0.6,11.3c1.2,4,3,7.3,5.4,9.8
		c2.4,2.5,5.3,4.1,8.6,4.8c3.3,0.7,6.8,0.5,10.5-0.6c4-1.2,7.3-3.1,9.7-5.6c2.4-2.5,3.9-5.6,4.4-9.3l-8.2-0.6
		C303.5,416.6,302.7,418.4,301.6,419.8z M284.1,399c1-1.4,2.4-2.4,4.3-3c1.7-0.5,3.3-0.5,4.9,0.1c1.5,0.6,2.9,1.7,4.2,3.3
		c0.7,1,1.3,2.2,1.9,3.5l-16.8,4.9c-0.2-1.2-0.2-2.3-0.1-3.4C282.6,402.3,283.1,400.5,284.1,399z"/>
</g>
</svg>
