<?xml version="1.0" encoding="UTF-8"?>
<svg xmlns="http://www.w3.org/2000/svg" xmlns:xlink="http://www.w3.org/1999/xlink" viewBox="0 0 230.02 92.61">
  <defs>
    <style>
      .cls-1 {
        clip-path: url(#clippath);
      }

      .cls-2 {
        fill: none;
      }

      .cls-2, .cls-3 {
        stroke-width: 0px;
      }

      .cls-4 {
        clip-path: url(#clippath-1);
      }

      .cls-3 {
        fill: #71706f;
      }
    </style>
    <clipPath id="clippath">
      <rect class="cls-2" x="316.83" y="-405.08" width="328" height="287.05"/>
    </clipPath>
    <clipPath id="clippath-1">
      <rect class="cls-2" x="-344.44" y="-405.08" width="328" height="287.05"/>
    </clipPath>
  </defs>
  <g id="BASE">
    <g>
      <g class="cls-1">
        <image width="1280" height="1120" transform="translate(69.88 -696.28) scale(.71)" xlink:href="../../../../../../../var/folders/z5/shpfnnp52cs8b33pqm83lzl80000gp/T/TemporaryItems/NSIRD_Illustrator_q9wCko/AI_27_9/Adobe/AISVG/2/PORTADILLA VIALITÉ LOGO 1/PORTADILLA VIALITÉ LOGO 11.png"/>
      </g>
      <g class="cls-4">
        <image width="1280" height="1120" transform="translate(-547.09 -599.14) scale(.55)" xlink:href="../../../../../../../var/folders/z5/shpfnnp52cs8b33pqm83lzl80000gp/T/TemporaryItems/NSIRD_Illustrator_q9wCko/AI_27_9/Adobe/AISVG/2/PORTADILLA VIALITÉ LOGO 1/PORTADILLA VIALITÉ LOGO 12.png"/>
      </g>
    </g>
  </g>
  <g id="_íconos" data-name="íconos">
    <g id="VIALITÉ_FRAGANCIAS" data-name="VIALITÉ FRAGANCIAS">
      <g>
        <path class="cls-3" d="m28.7,47.44c-1.08-2.71-2.24-5.57-3.45-8.59-1.23-3.01-2.49-6.08-3.78-9.22-1.29-3.14-2.53-6.12-3.71-8.93.46.07.9.12,1.33.17.42.05.83.07,1.22.07s.8-.02,1.23-.07c.42-.05.87-.1,1.32-.17.72,2.16,1.52,4.42,2.39,6.79.86,2.37,1.78,4.79,2.74,7.24.97,2.46,1.96,4.94,2.97,7.46,1.01,2.52,2.04,5.02,3.09,7.51.59-1.34,1.23-2.83,1.91-4.49.69-1.65,1.38-3.37,2.09-5.15.7-1.79,1.4-3.6,2.08-5.45.69-1.85,1.35-3.62,1.99-5.32.64-1.7,1.22-3.29,1.75-4.76.52-1.47.96-2.75,1.32-3.83.72.17,1.33.24,1.82.24s1.09-.07,1.81-.24c-2.55,5.69-5.01,11.34-7.36,16.93-2.36,5.59-4.61,11.19-6.77,16.78-.53-.07-1.07-.1-1.62-.1-.65,0-1.2.03-1.62.1-.75-1.93-1.67-4.26-2.75-6.97"/>
        <path class="cls-3" d="m59.25,27.05c-.08-2.07-.17-4.19-.27-6.35.43.06.84.12,1.23.17.4.05.78.07,1.18.07s.78-.02,1.18-.07c.39-.05.8-.1,1.22-.17-.1,2.16-.19,4.28-.27,6.35-.09,2.09-.12,4.2-.12,6.36v8.44c0,2.16.04,4.29.12,6.38.08,2.09.17,4.15.27,6.18-.75-.07-1.56-.1-2.4-.1s-1.65.03-2.41.1c.1-2.03.19-4.09.27-6.18.08-2.09.12-4.22.12-6.38v-8.44c0-2.16-.04-4.27-.12-6.36"/>
        <path class="cls-3" d="m83.27,39.15c.85,0,1.73.02,2.65.05.92.04,1.8.05,2.65.05.92,0,1.83-.01,2.75-.02.91-.01,1.83-.04,2.75-.08l-5.45-12.46-5.35,12.46Zm21.74,15.26c-.46-.07-.89-.1-1.3-.1h-2.6c-.41,0-.84.03-1.3.1-.23-.75-.54-1.66-.93-2.72-.39-1.06-.83-2.17-1.3-3.34-.47-1.16-.96-2.34-1.45-3.53-.49-1.2-.95-2.33-1.38-3.41-1.04-.03-2.11-.05-3.19-.07-1.08-.02-2.16-.03-3.24-.03-1.02,0-2.01.01-2.99.03-.98.02-1.98.04-2.99.07-1.05,2.55-2,4.98-2.85,7.29-.85,2.3-1.49,4.21-1.92,5.72-.55-.07-1.16-.1-1.82-.1s-1.26.03-1.81.1c2.65-5.72,5.24-11.42,7.75-17.08,2.52-5.66,5.06-11.42,7.6-17.27h.93c.78,1.9,1.64,3.94,2.55,6.16.92,2.21,1.85,4.44,2.8,6.7.95,2.26,1.9,4.5,2.84,6.72.95,2.23,1.84,4.29,2.67,6.21.83,1.91,1.58,3.62,2.26,5.13.67,1.5,1.22,2.65,1.65,3.43"/>
        <path class="cls-3" d="m115.44,27.05c-.08-2.07-.17-4.19-.27-6.35.42.06.83.12,1.22.17.39.05.79.07,1.17.07s.79-.02,1.18-.07c.39-.05.8-.1,1.23-.17-.1,2.16-.19,4.28-.27,6.35-.09,2.09-.13,4.2-.13,6.36,0,4.12.02,7.7.05,10.72.02,3.02.06,5.73.09,8.12,2.32,0,4.55-.02,6.67-.07,2.13-.05,4.42-.23,6.87-.57-.17.59-.25,1.08-.25,1.48,0,.36.08.81.25,1.32-1.5-.07-3.01-.1-4.51-.1h-9.05c-1.46,0-2.98.03-4.54.1.1-2.03.19-4.09.27-6.18.08-2.09.12-4.22.12-6.38v-8.44c0-2.16-.04-4.27-.12-6.36"/>
        <path class="cls-3" d="m144.88,27.05c-.09-2.07-.17-4.19-.27-6.35.43.06.84.12,1.23.17.4.05.79.07,1.18.07s.78-.02,1.18-.07c.38-.05.8-.1,1.22-.17-.1,2.16-.19,4.28-.27,6.35-.09,2.09-.12,4.2-.12,6.36v8.44c0,2.16.04,4.29.12,6.38.08,2.09.17,4.15.27,6.18-.75-.07-1.55-.1-2.4-.1s-1.65.03-2.41.1c.1-2.03.19-4.09.27-6.18.08-2.09.12-4.22.12-6.38v-8.44c0-2.16-.04-4.27-.12-6.36"/>
        <path class="cls-3" d="m170.23,23.25c-.85,0-1.74,0-2.67.03-.93.02-1.87.05-2.8.1-.92.05-1.83.1-2.7.17-.87.07-1.65.15-2.33.24.17-.59.25-1.11.25-1.57,0-.35-.08-.86-.25-1.52,2.16.07,4.27.12,6.33.17,2.06.05,4.17.07,6.33.07s4.28-.02,6.33-.07c2.07-.05,4.18-.1,6.34-.17-.17.65-.25,1.18-.25,1.57,0,.43.08.93.25,1.52-.69-.09-1.47-.17-2.34-.24-.87-.07-1.76-.12-2.7-.17-.93-.05-1.86-.08-2.8-.1-.93-.02-1.82-.03-2.67-.03-.1,3.37-.15,6.76-.15,10.16v8.44c0,2.17.04,4.29.13,6.38.07,2.09.17,4.16.27,6.18-.76-.07-1.56-.1-2.41-.1s-1.65.03-2.4.1c.1-2.02.18-4.09.27-6.18.08-2.09.12-4.22.12-6.38v-8.44c0-3.4-.05-6.79-.15-10.16"/>
        <path class="cls-3" d="m210.07,9.95c.33,0,.68.13,1.05.39.38.26.57.65.57,1.18,0,.59-.2,1.05-.59,1.4-.4.35-.79.65-1.18.91l-7.21,4.61h-2.06l7.21-7.31c.79-.79,1.52-1.18,2.21-1.18m-14.45,17.03c-.09-2.1-.18-4.19-.28-6.28,1.47.06,2.94.12,4.39.17,1.46.05,2.92.07,4.4.07s2.92-.02,4.37-.07c1.44-.05,2.89-.1,4.37-.17-.1.48-.16.97-.16,1.47s.05.98.16,1.47c-1.05-.07-2.01-.13-2.87-.19-.88-.07-1.79-.13-2.76-.2-.96-.07-2.01-.12-3.16-.17-1.14-.05-2.52-.08-4.12-.08-.03,1.05-.07,2.05-.12,3-.05.95-.07,2.03-.07,3.24,0,1.28,0,2.52.02,3.73.02,1.21.02,2.13.02,2.75,1.44,0,2.73-.01,3.87-.05,1.14-.03,2.2-.07,3.14-.12.95-.05,1.82-.1,2.63-.15.8-.05,1.56-.1,2.28-.17-.09.49-.15.99-.15,1.52,0,.49.06.98.15,1.48-.85-.1-1.83-.18-2.97-.25-1.13-.06-2.25-.11-3.38-.12-1.13-.01-2.2-.03-3.19-.05-1-.02-1.79-.03-2.38-.03,0,.3,0,.61-.02.96-.02.34-.02.78-.02,1.3v4.86c0,1.86,0,3.41.02,4.61.02,1.21.04,2.13.07,2.74h3.43c1.24,0,2.46-.02,3.65-.07,1.21-.05,2.32-.12,3.4-.2,1.06-.08,1.98-.2,2.77-.37-.07.23-.1.49-.12.77-.02.27-.02.53-.02.76,0,.52.05.95.15,1.28-1.47-.07-2.93-.1-4.39-.1h-8.91c-1.48,0-2.96.03-4.47.1.1-2.09.19-4.18.28-6.25.08-2.08.11-4.2.11-6.35v-8.45c0-2.16-.03-4.28-.11-6.38"/>
        <path class="cls-3" d="m43.24,70.68c-.03-.89-.08-1.79-.12-2.72.63.03,1.26.05,1.88.07.62.02,1.25.03,1.88.03s1.26-.01,1.91-.03c.64-.02,1.34-.05,2.1-.07-.04.21-.06.42-.06.63s.02.42.06.63c-.38-.04-.84-.08-1.37-.11-.53-.04-1.08-.07-1.63-.09-.55-.02-1.08-.03-1.6-.05-.51-.01-.93-.02-1.27-.02-.02.49-.02.96-.03,1.41,0,.45,0,.9,0,1.34,0,.49,0,.94,0,1.35,0,.41,0,.84,0,1.29.92,0,1.84-.01,2.74-.04.9-.03,1.79-.08,2.68-.17-.06.21-.08.42-.08.63s.02.42.08.63c-.35-.04-.74-.07-1.19-.09-.44-.02-.9-.04-1.37-.05-.48-.02-.96-.02-1.45-.02h-1.41v1.78c0,.93.02,1.83.06,2.73.03.9.07,1.78.11,2.65-.32-.03-.67-.04-1.03-.04s-.71.02-1.03.04c.04-.87.08-1.75.12-2.65.03-.9.05-1.81.05-2.73v-3.61c0-.93-.02-1.83-.05-2.72"/>
        <path class="cls-3" d="m58.25,74.68c.23.01.49.02.77.02.43,0,.88-.05,1.35-.15.46-.1.9-.27,1.29-.52.39-.24.72-.57.98-.98.26-.41.39-.94.39-1.56,0-.55-.1-1-.3-1.35-.2-.36-.47-.64-.79-.85-.32-.21-.67-.35-1.05-.43-.38-.08-.75-.11-1.12-.11-.49,0-.89.01-1.22.03-.32.02-.59.05-.82.07-.02.77-.06,1.53-.08,2.29-.03.76-.04,1.51-.04,2.27v1.2c.2.04.41.07.64.09m-2.42-4c-.04-.89-.07-1.79-.12-2.72.41.03.81.05,1.2.07.39.02.79.03,1.2.03s.81-.02,1.2-.05c.39-.03.79-.05,1.19-.05.59,0,1.15.06,1.68.17.53.11,1,.3,1.4.55.4.26.71.6.94,1.02.23.42.35.95.35,1.58,0,.67-.15,1.25-.45,1.73-.3.48-.67.88-1.1,1.19-.44.32-.9.56-1.4.73-.5.18-.95.29-1.35.35.17.21.4.5.69.88.29.38.62.79.99,1.25.36.46.74.93,1.13,1.43.39.5.77.97,1.14,1.43.36.45.71.87,1.03,1.25.32.38.58.67.78.86-.21-.03-.42-.04-.63-.04h-1.24c-.21,0-.41.01-.6.04-.21-.29-.53-.73-.96-1.32-.43-.59-.9-1.22-1.42-1.89-.52-.67-1.05-1.34-1.58-2-.54-.67-1.03-1.23-1.48-1.69h-.8v1.53c0,.93.02,1.83.05,2.73.03.9.07,1.78.11,2.65-.32-.03-.67-.04-1.03-.04s-.7.01-1.03.04c.05-.87.08-1.75.12-2.65.03-.9.05-1.81.05-2.73v-3.61c0-.92-.02-1.83-.05-2.72"/>
        <path class="cls-3" d="m73.11,75.85c.36,0,.74,0,1.13.02.39.01.77.02,1.14.02.39,0,.78,0,1.17-.01.39,0,.79-.02,1.18-.03l-2.33-5.33-2.29,5.33Zm9.3,6.53c-.19-.03-.38-.04-.56-.04h-1.11c-.17,0-.36.01-.56.04-.1-.32-.23-.71-.4-1.17-.17-.46-.36-.93-.56-1.43-.2-.5-.41-1-.62-1.51-.21-.51-.41-1-.59-1.46-.45-.01-.91-.03-1.37-.03-.46,0-.92,0-1.39,0-.43,0-.86,0-1.28,0-.42,0-.85.02-1.28.03-.45,1.09-.86,2.13-1.22,3.12-.37.99-.64,1.8-.82,2.45-.24-.03-.49-.04-.78-.04s-.54.01-.78.04c1.13-2.45,2.24-4.89,3.32-7.31,1.08-2.42,2.16-4.88,3.26-7.39h.4c.34.81.7,1.69,1.09,2.63.39.95.79,1.9,1.2,2.86.4.97.81,1.92,1.22,2.88.41.96.79,1.84,1.15,2.66.36.82.68,1.55.97,2.2.29.64.52,1.13.7,1.47"/>
        <path class="cls-3" d="m97.22,69.77c-.31-.25-.66-.47-1.05-.66-.38-.19-.81-.34-1.28-.46-.46-.12-.97-.18-1.5-.18-.87,0-1.68.13-2.42.4-.75.27-1.4.68-1.95,1.23-.56.55-.99,1.25-1.3,2.1-.32.85-.47,1.85-.47,3.01,0,1.02.14,1.94.42,2.77.28.83.69,1.52,1.23,2.09.54.56,1.2,1,1.97,1.31.78.31,1.65.46,2.63.46.29,0,.6-.01.93-.04.32-.03.63-.07.94-.13.3-.06.58-.13.84-.21.26-.09.48-.18.66-.29.01-.42.03-.84.03-1.26,0-.42.01-.85.01-1.28,0-.49-.01-.98-.03-1.47-.02-.49-.05-.96-.07-1.41.35.07.68.11,1,.11.16,0,.31,0,.46-.02.15-.02.3-.05.44-.09-.03.33-.05.84-.06,1.53-.01.69-.02,1.6-.02,2.74,0,.28,0,.57.01.85,0,.29.01.57.01.85-.29.11-.66.23-1.1.34-.44.12-.91.22-1.4.29-.5.08-1,.15-1.5.21-.5.07-.95.09-1.35.09-1.25,0-2.37-.15-3.37-.45-1-.3-1.85-.76-2.55-1.39-.7-.63-1.24-1.41-1.62-2.35-.38-.94-.56-2.02-.56-3.25s.19-2.25.59-3.18c.39-.94.94-1.72,1.66-2.36.71-.65,1.57-1.14,2.59-1.47,1.01-.33,2.14-.5,3.37-.5.72,0,1.35.03,1.9.11.55.08,1.04.18,1.47.3.42.13.8.26,1.12.4.32.14.61.27.86.4-.11.2-.21.45-.31.76-.09.3-.15.6-.18.86h-.25c-.21-.25-.47-.51-.79-.76"/>
        <path class="cls-3" d="m106.7,75.85c.36,0,.74,0,1.13.02.39.01.77.02,1.13.02.39,0,.78,0,1.17-.01.39,0,.79-.02,1.18-.03l-2.33-5.33-2.29,5.33Zm9.3,6.53c-.2-.03-.38-.04-.56-.04h-1.11c-.17,0-.36.01-.56.04-.1-.32-.23-.71-.4-1.17-.17-.46-.36-.93-.56-1.43-.2-.5-.41-1-.62-1.51s-.41-1-.59-1.46c-.45-.01-.9-.03-1.36-.03-.47,0-.93,0-1.39,0-.44,0-.86,0-1.28,0-.42,0-.85.02-1.28.03-.45,1.09-.86,2.13-1.22,3.12-.36.99-.63,1.8-.82,2.45-.24-.03-.5-.04-.78-.04s-.54.01-.78.04c1.13-2.45,2.24-4.89,3.32-7.31,1.08-2.42,2.17-4.88,3.26-7.39h.4c.34.81.7,1.69,1.09,2.63.39.95.79,1.9,1.2,2.86.4.97.81,1.92,1.22,2.88.41.96.79,1.84,1.15,2.66.35.82.68,1.55.97,2.2.29.64.52,1.13.7,1.47"/>
        <path class="cls-3" d="m127.19,76.93c-1.83-1.95-3.64-3.9-5.46-5.82-.02.39-.03.91-.04,1.58-.02.66-.02,1.55-.02,2.69,0,.29,0,.66.01,1.09,0,.43.01.89.02,1.37,0,.47.02.96.03,1.45.01.49.02.94.04,1.37.01.42.02.79.04,1.1.02.31.03.53.04.64-.22-.03-.46-.04-.73-.04s-.54.01-.78.04c.03-.14.06-.4.1-.78.03-.38.06-.83.09-1.36.03-.52.06-1.09.09-1.71.03-.62.06-1.23.08-1.85.02-.62.04-1.22.05-1.81.01-.59.02-1.11.02-1.57,0-1.35,0-2.5,0-3.46,0-.96-.03-1.69-.05-2.16h.34c.85.92,1.77,1.91,2.74,2.97.97,1.05,1.94,2.1,2.89,3.13.96,1.03,1.87,2,2.73,2.92.86.91,1.61,1.69,2.26,2.34v-2.86c0-1.47-.01-2.9-.03-4.3-.03-1.39-.07-2.7-.14-3.93.28.07.52.1.71.1.17,0,.39-.03.67-.1-.03.31-.06.77-.09,1.39-.03.61-.07,1.27-.11,1.98-.03.7-.07,1.39-.09,2.05-.03.67-.04,1.21-.04,1.62v1.26c0,.47,0,.97.01,1.49,0,.52.01,1.04.02,1.57,0,.52.01,1.01.02,1.47.01.45.01.85.01,1.18v.69h-.29c-1.61-1.86-3.32-3.77-5.14-5.72"/>
        <path class="cls-3" d="m149.21,81.89c-.27.14-.61.25-.99.36-.39.1-.82.2-1.29.28-.48.08-.97.13-1.49.13-1.11,0-2.13-.16-3.07-.47-.93-.32-1.75-.79-2.42-1.44-.68-.65-1.21-1.43-1.6-2.36-.39-.93-.58-1.99-.58-3.18s.19-2.25.58-3.18c.38-.93.92-1.72,1.61-2.36.69-.65,1.52-1.14,2.49-1.47.96-.33,2.02-.5,3.19-.5.93,0,1.77.1,2.53.28.76.19,1.44.42,2.03.68-.11.2-.2.46-.27.8-.07.34-.12.62-.17.84l-.12.04c-.14-.17-.34-.36-.59-.57-.25-.21-.54-.41-.88-.61-.34-.19-.72-.36-1.14-.49-.42-.14-.88-.2-1.39-.2-.82,0-1.59.13-2.3.4-.7.27-1.32.68-1.85,1.23-.52.55-.93,1.25-1.23,2.1-.29.85-.44,1.85-.44,3.01s.15,2.17.44,3.01c.29.85.7,1.55,1.23,2.1.53.55,1.15.96,1.85,1.23.71.27,1.47.4,2.3.4.51,0,.97-.06,1.4-.19.43-.12.82-.28,1.18-.45.36-.17.68-.36.96-.56s.53-.38.73-.54l.08.09-.19,1.24c-.13.11-.33.24-.6.37"/>
        <path class="cls-3" d="m155,70.68c-.04-.89-.08-1.79-.12-2.72.18.03.36.05.52.07s.34.03.51.03.34-.01.5-.03c.17-.02.34-.05.53-.07-.04.93-.08,1.83-.11,2.72-.03.89-.05,1.79-.05,2.72v3.61c0,.93.02,1.83.05,2.73.04.9.07,1.78.11,2.65-.33-.03-.67-.04-1.03-.04s-.71.02-1.03.04c.04-.87.08-1.75.12-2.65.03-.9.05-1.81.05-2.73v-3.61c0-.93-.02-1.83-.05-2.72"/>
        <path class="cls-3" d="m165.27,75.85c.36,0,.74,0,1.13.02.39.01.77.02,1.13.02.39,0,.78,0,1.17-.01.39,0,.79-.02,1.18-.03l-2.33-5.33-2.28,5.33Zm9.3,6.53c-.2-.03-.38-.04-.56-.04h-1.11c-.18,0-.36.01-.55.04-.1-.32-.23-.71-.4-1.17-.17-.46-.35-.93-.55-1.43-.2-.5-.41-1-.62-1.51-.21-.51-.41-1-.59-1.46-.45-.01-.9-.03-1.37-.03-.46,0-.92,0-1.38,0-.44,0-.86,0-1.28,0-.42,0-.85.02-1.28.03-.45,1.09-.86,2.13-1.22,3.12-.36.99-.64,1.8-.82,2.45-.24-.03-.5-.04-.78-.04s-.54.01-.78.04c1.13-2.45,2.24-4.89,3.32-7.31,1.07-2.42,2.16-4.88,3.25-7.39h.4c.34.81.7,1.69,1.09,2.63.39.95.79,1.9,1.2,2.86.4.97.81,1.92,1.22,2.88.4.96.78,1.84,1.14,2.66.36.82.68,1.55.96,2.2.29.64.52,1.13.71,1.47"/>
        <path class="cls-3" d="m179.08,80.42c.19.26.42.49.69.7.27.21.59.38.95.51.36.14.77.2,1.22.2s.88-.08,1.25-.24c.37-.16.69-.38.95-.65.26-.27.46-.6.59-.97.14-.37.21-.76.21-1.19,0-.64-.16-1.16-.49-1.53-.33-.38-.74-.7-1.23-.95-.49-.25-1.02-.48-1.59-.69-.56-.21-1.1-.47-1.58-.79-.49-.32-.9-.72-1.23-1.21-.33-.49-.49-1.15-.49-1.98,0-.59.1-1.12.32-1.6.21-.48.51-.9.91-1.25.4-.35.87-.62,1.44-.82.56-.2,1.19-.29,1.89-.29s1.25.08,1.74.24c.49.16.95.41,1.37.74-.13.24-.23.49-.31.76-.09.27-.17.6-.26,1.01h-.25c-.07-.19-.17-.41-.29-.64-.12-.23-.28-.44-.48-.64-.2-.19-.44-.36-.72-.49-.28-.14-.62-.2-1.01-.2s-.75.06-1.08.19c-.33.12-.62.3-.86.54-.25.23-.44.51-.57.83-.13.33-.2.67-.2,1.05,0,.66.17,1.18.49,1.56.33.38.74.7,1.23.95.49.26,1.02.49,1.58.7.57.2,1.09.45,1.58.74.49.29.9.67,1.23,1.14.33.46.49,1.07.49,1.85,0,.64-.11,1.25-.34,1.83-.23.57-.57,1.07-1.01,1.5-.44.43-.98.76-1.61.99-.64.23-1.37.35-2.17.35-.87,0-1.57-.11-2.11-.35-.54-.23-.99-.5-1.35-.79.12-.32.21-.61.26-.87.05-.26.09-.59.14-1h.25c.11.25.26.51.45.77"/>
        <rect class="cls-3" x="16.91" y="73.66" width="18.77" height="1.36"/>
        <rect class="cls-3" x="193.74" y="73.65" width="19.14" height="1.37"/>
      </g>
    </g>
  </g>
</svg>