<?xml version="1.0" encoding="UTF-8"?>
<svg id="Capa_1" data-name="Capa 1" xmlns="http://www.w3.org/2000/svg" xmlns:xlink="http://www.w3.org/1999/xlink" viewBox="0 0 365.04 97.98">
  <defs>
    <style>
      .cls-1 {
        clip-path: url(#clippath);
      }

      .cls-2 {
        fill: none;
      }

      .cls-2, .cls-3 {
        stroke-width: 0px;
      }

      .cls-4 {
        clip-path: url(#clippath-1);
      }

      .cls-5 {
        clip-path: url(#clippath-4);
      }

      .cls-6 {
        clip-path: url(#clippath-3);
      }

      .cls-7 {
        clip-path: url(#clippath-2);
      }

      .cls-8 {
        clip-path: url(#clippath-7);
      }

      .cls-9 {
        clip-path: url(#clippath-8);
      }

      .cls-10 {
        clip-path: url(#clippath-6);
      }

      .cls-11 {
        clip-path: url(#clippath-5);
      }

      .cls-12 {
        clip-path: url(#clippath-9);
      }

      .cls-3 {
        fill: #222221;
      }

      .cls-13 {
        clip-path: url(#clippath-14);
      }

      .cls-14 {
        clip-path: url(#clippath-13);
      }

      .cls-15 {
        clip-path: url(#clippath-12);
      }

      .cls-16 {
        clip-path: url(#clippath-10);
      }

      .cls-17 {
        clip-path: url(#clippath-11);
      }
    </style>
    <clipPath id="clippath">
      <rect class="cls-2" x="53.69" y="34.41" width="257.65" height="29.16"/>
    </clipPath>
    <clipPath id="clippath-1">
      <rect class="cls-2" x="53.69" y="34.41" width="257.65" height="29.16"/>
    </clipPath>
    <clipPath id="clippath-2">
      <rect class="cls-2" x="53.69" y="34.41" width="257.65" height="29.16"/>
    </clipPath>
    <clipPath id="clippath-3">
      <rect class="cls-2" x="53.69" y="34.41" width="257.65" height="29.16"/>
    </clipPath>
    <clipPath id="clippath-4">
      <rect class="cls-2" x="53.69" y="34.41" width="257.65" height="29.16"/>
    </clipPath>
    <clipPath id="clippath-5">
      <rect class="cls-2" x="53.69" y="34.41" width="257.65" height="29.16"/>
    </clipPath>
    <clipPath id="clippath-6">
      <rect class="cls-2" x="53.69" y="34.41" width="257.65" height="29.16"/>
    </clipPath>
    <clipPath id="clippath-7">
      <rect class="cls-2" x="53.69" y="34.41" width="257.65" height="29.16"/>
    </clipPath>
    <clipPath id="clippath-8">
      <rect class="cls-2" x="53.69" y="34.41" width="257.65" height="29.16"/>
    </clipPath>
    <clipPath id="clippath-9">
      <rect class="cls-2" x="53.69" y="34.41" width="257.65" height="29.16"/>
    </clipPath>
    <clipPath id="clippath-10">
      <rect class="cls-2" x="53.69" y="34.41" width="257.65" height="29.16"/>
    </clipPath>
    <clipPath id="clippath-11">
      <rect class="cls-2" x="53.69" y="34.41" width="257.65" height="29.16"/>
    </clipPath>
    <clipPath id="clippath-12">
      <rect class="cls-2" x="53.69" y="34.41" width="257.65" height="29.16"/>
    </clipPath>
    <clipPath id="clippath-13">
      <rect class="cls-2" x="53.69" y="34.41" width="257.65" height="29.16"/>
    </clipPath>
    <clipPath id="clippath-14">
      <rect class="cls-2" x="53.69" y="34.41" width="257.65" height="29.16"/>
    </clipPath>
  </defs>
  <g class="cls-1">
    <path class="cls-3" d="M135.2,41.74l-1.37-5.39h.73l.64,2.73c.16.67.3,1.34.4,1.86h.02c.09-.54.26-1.18.44-1.87l.72-2.72h.73l.66,2.73c.15.64.3,1.28.38,1.85h.02c.11-.59.26-1.19.43-1.86l.71-2.72h.71l-1.53,5.39h-.73l-.68-2.81c-.17-.69-.28-1.22-.35-1.76h-.02c-.1.54-.22,1.06-.42,1.76l-.77,2.81h-.73Z"/>
  </g>
  <rect class="cls-3" x="141.09" y="36.35" width=".7" height="5.39"/>
  <polygon class="cls-3" points="142.63 41.33 145.62 36.96 145.62 36.93 142.89 36.93 142.89 36.35 146.53 36.35 146.53 36.77 143.55 41.13 143.55 41.16 146.57 41.16 146.57 41.74 142.63 41.74 142.63 41.33"/>
  <g class="cls-4">
    <path class="cls-3" d="M150.06,39.5l-.53-1.55c-.12-.35-.2-.67-.28-.98h-.02c-.08.32-.17.65-.27.98l-.53,1.56h1.62ZM148.3,40.04l-.56,1.69h-.72l1.83-5.39h.84l1.84,5.39h-.74l-.58-1.69h-1.91Z"/>
    <path class="cls-3" d="M153.02,38.88h.71c.74,0,1.22-.41,1.22-1.02,0-.7-.5-1-1.24-1.01-.34,0-.58.03-.69.06v1.97ZM152.32,36.42c.35-.07.86-.11,1.33-.11.74,0,1.22.14,1.56.44.27.24.42.61.42,1.02,0,.71-.45,1.18-1.01,1.38v.02c.42.14.66.53.79,1.09.18.75.3,1.27.42,1.48h-.72c-.09-.15-.21-.62-.36-1.29-.16-.74-.45-1.02-1.08-1.05h-.66v2.33h-.69v-5.32Z"/>
    <path class="cls-3" d="M157.32,41.19c.18.03.43.04.7.04,1.49,0,2.29-.83,2.29-2.29,0-1.27-.71-2.08-2.18-2.08-.36,0-.63.03-.82.07v4.25ZM156.62,36.42c.42-.06.93-.11,1.48-.11,1,0,1.71.23,2.18.67.48.44.76,1.06.76,1.93s-.27,1.6-.78,2.09c-.5.5-1.33.78-2.38.78-.5,0-.91-.02-1.26-.07v-5.3Z"/>
  </g>
  <rect class="cls-3" x="161.95" y="36.35" width=".7" height="5.39"/>
  <g class="cls-7">
    <path class="cls-3" d="M163.86,41.74v-5.39h.76l1.73,2.73c.4.63.71,1.2.97,1.75h.02c-.06-.73-.08-1.38-.08-2.22v-2.25h.65v5.39h-.7l-1.71-2.73c-.38-.6-.74-1.22-1.01-1.8h-.02c.04.69.06,1.34.06,2.23v2.3h-.66Z"/>
    <path class="cls-3" d="M173.23,41.5c-.31.11-.93.3-1.65.3-.82,0-1.49-.21-2.01-.71-.46-.45-.75-1.17-.75-2.01,0-1.61,1.11-2.78,2.92-2.78.62,0,1.11.14,1.34.25l-.17.57c-.29-.13-.65-.23-1.19-.23-1.31,0-2.17.82-2.17,2.17s.82,2.18,2.08,2.18c.46,0,.77-.06.93-.14v-1.61h-1.1v-.56h1.78v2.59Z"/>
    <path class="cls-3" d="M176.58,41.74l-1.37-5.39h.73l.64,2.73c.16.67.3,1.34.4,1.86h.02c.09-.54.26-1.18.44-1.87l.72-2.72h.73l.66,2.73c.15.64.3,1.28.38,1.85h.02c.11-.59.26-1.19.43-1.86l.71-2.72h.71l-1.53,5.39h-.73l-.68-2.81c-.17-.69-.28-1.22-.35-1.76h-.02c-.1.54-.22,1.06-.42,1.76l-.77,2.81h-.73Z"/>
    <path class="cls-3" d="M182.9,39.08c0,1.15.62,2.18,1.72,2.18s1.73-1.02,1.73-2.24c0-1.07-.56-2.19-1.72-2.19s-1.73,1.06-1.73,2.25M187.08,38.99c0,1.85-1.13,2.84-2.5,2.84s-2.42-1.1-2.42-2.73c0-1.71,1.06-2.83,2.5-2.83s2.42,1.13,2.42,2.73"/>
    <path class="cls-3" d="M188.68,38.88h.71c.74,0,1.22-.41,1.22-1.02,0-.7-.5-1-1.24-1.01-.33,0-.57.03-.69.06v1.97ZM187.98,36.42c.35-.07.86-.11,1.34-.11.74,0,1.22.14,1.56.44.27.24.42.61.42,1.02,0,.71-.45,1.18-1.02,1.38v.02c.42.14.66.53.79,1.09.18.75.3,1.27.41,1.48h-.72c-.09-.15-.21-.62-.36-1.29-.16-.74-.45-1.02-1.08-1.05h-.66v2.33h-.7v-5.32Z"/>
  </g>
  <polygon class="cls-3" points="192.29 36.35 192.98 36.35 192.98 41.16 195.29 41.16 195.29 41.74 192.29 41.74 192.29 36.35"/>
  <g class="cls-6">
    <path class="cls-3" d="M196.76,41.19c.18.03.43.04.7.04,1.49,0,2.29-.83,2.29-2.29,0-1.27-.71-2.08-2.18-2.08-.36,0-.63.03-.82.07v4.25ZM196.06,36.42c.42-.06.93-.11,1.48-.11,1,0,1.71.23,2.18.67.48.44.76,1.06.76,1.93s-.27,1.6-.78,2.09c-.5.5-1.33.78-2.38.78-.49,0-.91-.02-1.26-.07v-5.3Z"/>
    <path class="cls-3" d="M205.82,41.59c-.18.1-.59.23-1.11.23-1.17,0-1.93-.79-1.93-1.98s.82-2.06,2.08-2.06c.42,0,.78.1.98.2l-.16.54c-.17-.1-.43-.18-.82-.18-.89,0-1.37.66-1.37,1.46,0,.9.58,1.45,1.34,1.45.4,0,.66-.1.86-.19l.12.53Z"/>
    <path class="cls-3" d="M206.65,36.06h.7v2.41h.02c.11-.2.29-.38.5-.49.21-.12.46-.2.72-.2.52,0,1.35.32,1.35,1.66v2.3h-.7v-2.22c0-.62-.23-1.15-.9-1.15-.46,0-.82.32-.94.7-.04.1-.05.2-.05.34v2.33h-.7v-5.68Z"/>
    <path class="cls-3" d="M213.13,39.76c-.77-.02-1.64.12-1.64.87,0,.46.3.67.66.67.5,0,.82-.32.93-.65.03-.07.04-.15.04-.22v-.67ZM213.23,41.74l-.06-.49h-.02c-.22.3-.63.58-1.18.58-.78,0-1.18-.55-1.18-1.11,0-.93.83-1.45,2.33-1.44v-.08c0-.32-.09-.9-.88-.9-.36,0-.74.11-1.01.29l-.16-.46c.32-.21.78-.34,1.27-.34,1.18,0,1.47.81,1.47,1.58v1.45c0,.33.02.66.07.93h-.64Z"/>
    <path class="cls-3" d="M214.94,39.08c0-.46,0-.85-.03-1.21h.62l.02.76h.03c.18-.52.6-.85,1.07-.85.08,0,.14,0,.2.02v.66c-.07-.02-.14-.02-.24-.02-.5,0-.85.38-.94.9-.01.1-.03.21-.03.33v2.06h-.7v-2.66Z"/>
    <path class="cls-3" d="M219.56,39.76c-.77-.02-1.64.12-1.64.87,0,.46.3.67.66.67.5,0,.82-.32.93-.65.03-.07.04-.15.04-.22v-.67ZM219.66,41.74l-.06-.49h-.02c-.22.3-.63.58-1.18.58-.78,0-1.18-.55-1.18-1.11,0-.93.83-1.45,2.33-1.44v-.08c0-.32-.09-.9-.88-.9-.36,0-.74.11-1.01.29l-.16-.46c.32-.21.78-.34,1.27-.34,1.18,0,1.47.81,1.47,1.58v1.45c0,.33.02.66.07.93h-.64Z"/>
    <path class="cls-3" d="M224.13,41.59c-.18.1-.59.23-1.11.23-1.17,0-1.93-.79-1.93-1.98s.81-2.06,2.08-2.06c.41,0,.78.1.98.2l-.16.54c-.17-.1-.43-.18-.82-.18-.89,0-1.37.66-1.37,1.46,0,.9.57,1.45,1.34,1.45.4,0,.66-.1.86-.19l.12.53Z"/>
    <path class="cls-3" d="M225.91,36.76v1.11h1.01v.53h-1.01v2.09c0,.48.14.75.53.75.18,0,.32-.02.41-.05l.03.53c-.14.06-.35.1-.62.1-.33,0-.59-.1-.76-.3-.2-.21-.27-.55-.27-1.01v-2.11h-.6v-.53h.6v-.93l.69-.18Z"/>
    <path class="cls-3" d="M230.12,39.43c0-.45-.18-1.14-.98-1.14-.71,0-1.02.66-1.08,1.14h2.06ZM228.05,39.93c.02.95.62,1.34,1.33,1.34.5,0,.81-.09,1.07-.2l.12.5c-.25.11-.67.24-1.29.24-1.19,0-1.9-.78-1.9-1.95s.69-2.09,1.82-2.09c1.26,0,1.6,1.11,1.6,1.82,0,.14-.01.26-.02.33h-2.72Z"/>
    <path class="cls-3" d="M231.67,39.08c0-.46,0-.85-.03-1.21h.62l.02.76h.03c.18-.52.6-.85,1.07-.85.08,0,.14,0,.2.02v.66c-.07-.02-.14-.02-.24-.02-.5,0-.85.38-.94.9-.02.1-.03.21-.03.33v2.06h-.7v-2.66Z"/>
    <path class="cls-3" d="M234.19,41.02c.21.14.57.28.93.28.51,0,.75-.26.75-.58s-.2-.52-.72-.71c-.69-.25-1.02-.63-1.02-1.1,0-.62.5-1.13,1.34-1.13.39,0,.74.11.95.24l-.18.51c-.15-.1-.43-.22-.79-.22-.42,0-.65.24-.65.53,0,.32.23.46.74.66.67.26,1.01.59,1.01,1.17,0,.68-.53,1.16-1.45,1.16-.42,0-.82-.1-1.09-.26l.18-.53Z"/>
    <path class="cls-3" d="M236.91,42.72c.18-.47.39-1.33.48-1.91l.78-.08c-.18.68-.54,1.57-.76,1.94l-.5.05Z"/>
    <path class="cls-3" d="M240.72,38.92c0-.4,0-.73-.03-1.05h.62l.04.64h.02c.19-.37.64-.73,1.28-.73.54,0,1.37.32,1.37,1.65v2.31h-.7v-2.23c0-.62-.23-1.14-.9-1.14-.46,0-.82.33-.94.72-.03.09-.05.21-.05.33v2.33h-.7v-2.82Z"/>
    <path class="cls-3" d="M247.2,39.76c-.77-.02-1.64.12-1.64.87,0,.46.3.67.66.67.5,0,.82-.32.93-.65.03-.07.04-.15.04-.22v-.67ZM247.3,41.74l-.06-.49h-.02c-.22.3-.63.58-1.18.58-.78,0-1.18-.55-1.18-1.11,0-.93.83-1.45,2.33-1.44v-.08c0-.32-.09-.9-.88-.9-.36,0-.74.11-1.01.29l-.16-.46c.32-.21.78-.34,1.27-.34,1.18,0,1.47.81,1.47,1.58v1.45c0,.33.02.66.07.93h-.64Z"/>
    <path class="cls-3" d="M249.01,38.92c0-.4,0-.73-.03-1.05h.62l.03.62h.02c.21-.37.57-.71,1.21-.71.53,0,.93.32,1.1.78h.02c.12-.22.27-.38.43-.5.23-.18.49-.27.86-.27.51,0,1.27.34,1.27,1.68v2.28h-.69v-2.19c0-.74-.27-1.19-.84-1.19-.4,0-.71.3-.83.64-.03.1-.06.22-.06.35v2.39h-.69v-2.32c0-.61-.27-1.06-.81-1.06-.44,0-.76.35-.87.7-.04.1-.06.22-.06.34v2.33h-.69v-2.82Z"/>
    <path class="cls-3" d="M258.14,39.43c0-.45-.18-1.14-.98-1.14-.71,0-1.02.66-1.08,1.14h2.06ZM256.08,39.93c.02.95.62,1.34,1.33,1.34.5,0,.81-.09,1.07-.2l.12.5c-.25.11-.67.24-1.29.24-1.19,0-1.9-.78-1.9-1.95s.69-2.09,1.82-2.09c1.26,0,1.6,1.11,1.6,1.82,0,.14-.01.26-.02.33h-2.72Z"/>
    <path class="cls-3" d="M259.6,41.02c.21.14.57.28.93.28.51,0,.75-.26.75-.58s-.2-.52-.72-.71c-.69-.25-1.02-.63-1.02-1.1,0-.62.5-1.13,1.34-1.13.39,0,.74.11.95.24l-.18.51c-.15-.1-.43-.22-.79-.22-.42,0-.65.24-.65.53,0,.32.23.46.74.66.67.26,1.01.59,1.01,1.17,0,.68-.53,1.16-1.45,1.16-.42,0-.82-.1-1.09-.26l.18-.53Z"/>
    <path class="cls-3" d="M266.6,39.76c-.77-.02-1.64.12-1.64.87,0,.46.3.67.66.67.5,0,.82-.32.94-.65.02-.07.04-.15.04-.22v-.67ZM266.7,41.74l-.06-.49h-.02c-.22.3-.63.58-1.18.58-.78,0-1.18-.55-1.18-1.11,0-.93.83-1.45,2.33-1.44v-.08c0-.32-.09-.9-.88-.9-.36,0-.74.11-1.01.29l-.16-.46c.32-.21.78-.34,1.27-.34,1.18,0,1.47.81,1.47,1.58v1.45c0,.33.02.66.07.93h-.64Z"/>
    <path class="cls-3" d="M268.41,38.92c0-.4,0-.73-.03-1.05h.62l.04.64h.02c.19-.37.64-.73,1.28-.73.54,0,1.37.32,1.37,1.65v2.31h-.7v-2.23c0-.62-.23-1.14-.9-1.14-.46,0-.82.33-.94.72-.03.09-.05.21-.05.33v2.33h-.7v-2.82Z"/>
    <path class="cls-3" d="M275.49,39.44c0-.09,0-.21-.03-.3-.1-.45-.49-.82-1.02-.82-.73,0-1.16.64-1.16,1.5,0,.78.38,1.43,1.14,1.43.47,0,.9-.31,1.03-.84.02-.1.03-.19.03-.3v-.67ZM276.2,36.06v4.68c0,.34,0,.74.03,1h-.63l-.03-.67h-.01c-.22.43-.69.76-1.32.76-.93,0-1.65-.79-1.65-1.97,0-1.29.79-2.08,1.74-2.08.59,0,.99.28,1.17.59h.02v-2.31h.7Z"/>
    <path class="cls-3" d="M279.06,39.08c0-.46,0-.85-.03-1.21h.61l.02.76h.03c.18-.52.6-.85,1.07-.85.08,0,.14,0,.2.02v.66c-.07-.02-.14-.02-.24-.02-.5,0-.85.38-.94.9-.02.1-.03.21-.03.33v2.06h-.7v-2.66Z"/>
    <path class="cls-3" d="M284.05,39.43c0-.45-.18-1.14-.98-1.14-.71,0-1.02.66-1.08,1.14h2.06ZM281.99,39.93c.02.95.62,1.34,1.33,1.34.5,0,.81-.09,1.07-.2l.12.5c-.25.11-.67.24-1.29.24-1.19,0-1.9-.78-1.9-1.95s.69-2.09,1.82-2.09c1.26,0,1.6,1.11,1.6,1.82,0,.14-.01.26-.02.33h-2.72Z"/>
  </g>
  <rect class="cls-3" x="285.61" y="36.06" width=".7" height="5.68"/>
  <g class="cls-5">
    <path class="cls-3" d="M289.53,39.76c-.77-.02-1.64.12-1.64.87,0,.46.3.67.66.67.5,0,.82-.32.94-.65.02-.07.04-.15.04-.22v-.67ZM289.64,41.74l-.06-.49h-.02c-.22.3-.63.58-1.18.58-.78,0-1.18-.55-1.18-1.11,0-.93.83-1.45,2.33-1.44v-.08c0-.32-.09-.9-.88-.9-.36,0-.74.11-1.01.29l-.16-.46c.32-.21.78-.34,1.27-.34,1.18,0,1.47.81,1.47,1.58v1.45c0,.33.02.66.07.93h-.64Z"/>
    <path class="cls-3" d="M292.17,36.76v1.11h1.01v.53h-1.01v2.09c0,.48.14.75.53.75.18,0,.32-.02.41-.05l.03.53c-.14.06-.35.1-.62.1-.33,0-.59-.1-.76-.3-.2-.21-.27-.55-.27-1.01v-2.11h-.6v-.53h.6v-.93l.69-.18Z"/>
    <path class="cls-3" d="M296.37,39.43c0-.45-.18-1.14-.98-1.14-.71,0-1.02.66-1.08,1.14h2.06ZM294.31,39.93c.02.95.62,1.34,1.33,1.34.5,0,.81-.09,1.07-.2l.12.5c-.25.11-.67.24-1.29.24-1.19,0-1.9-.78-1.9-1.95s.69-2.09,1.82-2.09c1.26,0,1.6,1.11,1.6,1.82,0,.14-.01.26-.02.33h-2.72Z"/>
    <path class="cls-3" d="M300.57,39.44c0-.09,0-.21-.03-.3-.1-.45-.49-.82-1.02-.82-.73,0-1.16.64-1.16,1.5,0,.78.38,1.43,1.14,1.43.47,0,.9-.31,1.03-.84.02-.1.03-.19.03-.3v-.67ZM301.27,36.06v4.68c0,.34,0,.74.03,1h-.63l-.03-.67h-.01c-.22.43-.69.76-1.32.76-.93,0-1.65-.79-1.65-1.97,0-1.29.79-2.08,1.74-2.08.59,0,.99.28,1.17.59h.02v-2.31h.7Z"/>
    <path class="cls-3" d="M134.3,47.47h.7v3.87h-.7v-3.87ZM135.08,46.38c0,.24-.17.43-.45.43-.25,0-.42-.19-.42-.43s.19-.44.44-.44.43.19.43.44"/>
    <path class="cls-3" d="M136.17,48.52c0-.4,0-.73-.03-1.05h.62l.04.64h.02c.19-.37.64-.73,1.28-.73.54,0,1.37.32,1.37,1.65v2.31h-.7v-2.23c0-.62-.23-1.14-.9-1.14-.46,0-.82.33-.94.72-.03.09-.05.21-.05.33v2.33h-.7v-2.82Z"/>
    <path class="cls-3" d="M143.25,49.04c0-.09,0-.21-.03-.3-.1-.45-.49-.82-1.02-.82-.73,0-1.16.64-1.16,1.49,0,.78.38,1.43,1.14,1.43.47,0,.9-.31,1.03-.84.02-.1.03-.19.03-.3v-.67ZM143.95,45.66v4.68c0,.34,0,.74.03,1h-.63l-.03-.67h-.01c-.22.43-.69.76-1.32.76-.93,0-1.65-.79-1.65-1.97,0-1.29.79-2.08,1.74-2.08.59,0,.99.28,1.17.59h.02v-2.31h.7Z"/>
    <path class="cls-3" d="M145.12,47.47h.7v3.87h-.7v-3.87ZM145.9,46.38c0,.24-.17.43-.45.43-.25,0-.42-.19-.42-.43s.18-.44.44-.44.43.19.43.44"/>
    <path class="cls-3" d="M149.75,51.2c-.18.1-.59.22-1.11.22-1.17,0-1.93-.79-1.93-1.98s.82-2.06,2.08-2.06c.42,0,.78.1.98.2l-.16.54c-.17-.1-.43-.18-.82-.18-.89,0-1.37.65-1.37,1.46,0,.9.58,1.45,1.34,1.45.4,0,.66-.1.86-.19l.12.53Z"/>
    <path class="cls-3" d="M150.58,47.47h.7v3.87h-.7v-3.87ZM151.36,46.38c0,.24-.17.43-.45.43-.25,0-.42-.19-.42-.43s.19-.44.44-.44.43.19.43.44"/>
    <path class="cls-3" d="M154.49,49.36c-.77-.02-1.64.12-1.64.87,0,.46.3.67.66.67.5,0,.82-.32.94-.65.02-.07.04-.15.04-.22v-.67ZM154.59,51.34l-.06-.49h-.02c-.22.3-.63.57-1.18.57-.78,0-1.18-.55-1.18-1.11,0-.94.83-1.45,2.33-1.44v-.08c0-.32-.09-.9-.88-.9-.36,0-.74.11-1.01.29l-.16-.46c.32-.21.78-.34,1.27-.34,1.18,0,1.47.81,1.47,1.58v1.45c0,.34.02.66.06.93h-.64Z"/>
    <path class="cls-3" d="M160.04,49.36c-.77-.02-1.64.12-1.64.87,0,.46.3.67.66.67.5,0,.82-.32.94-.65.02-.07.04-.15.04-.22v-.67ZM160.14,51.34l-.06-.49h-.02c-.22.3-.63.57-1.18.57-.78,0-1.18-.55-1.18-1.11,0-.94.83-1.45,2.33-1.44v-.08c0-.32-.09-.9-.88-.9-.36,0-.74.11-1.01.29l-.16-.46c.32-.21.78-.34,1.27-.34,1.18,0,1.47.81,1.47,1.58v1.45c0,.34.02.66.06.93h-.64Z"/>
    <path class="cls-3" d="M161.86,48.68c0-.46,0-.85-.03-1.21h.62l.02.76h.03c.18-.52.6-.85,1.07-.85.08,0,.14,0,.2.02v.66c-.07-.02-.14-.02-.24-.02-.49,0-.85.38-.94.9-.02.1-.03.21-.03.33v2.06h-.7v-2.66Z"/>
    <path class="cls-3" d="M166.85,49.03c0-.45-.18-1.14-.98-1.14-.71,0-1.02.66-1.08,1.14h2.06ZM164.78,49.53c.02.95.62,1.34,1.33,1.34.5,0,.81-.09,1.07-.2l.12.5c-.25.11-.67.24-1.29.24-1.19,0-1.9-.78-1.9-1.95s.69-2.09,1.81-2.09c1.26,0,1.6,1.11,1.6,1.82,0,.14-.01.26-.02.33h-2.72Z"/>
    <path class="cls-3" d="M173.21,47.71c-.1-.06-.4-.18-.78-.18-.75,0-1.12.48-1.12,1.12s.39,1.13,1.13,1.13c.32,0,.62-.09.81-.21l.1.3c-.28.19-.65.25-.98.25-.93,0-1.46-.64-1.46-1.45,0-.91.72-1.49,1.53-1.49.41,0,.77.12.88.22l-.1.31ZM170.2,48.64c0,1.19.88,2.13,2.03,2.13s2.01-.94,2.01-2.15-.88-2.14-2.01-2.14-2.03.94-2.03,2.16M174.64,48.62c0,1.38-1.06,2.48-2.41,2.48s-2.43-1.1-2.43-2.48,1.07-2.46,2.43-2.46,2.41,1.1,2.41,2.46"/>
    <path class="cls-3" d="M178.12,47.12c0,.38.18.68.41.97.54-.31.9-.6.9-1.06,0-.33-.18-.69-.62-.69s-.68.37-.68.78M179.76,50.41c-.32-.35-.92-1.01-1.52-1.69-.29.18-.7.53-.7,1.09,0,.62.46,1.09,1.1,1.09.46,0,.86-.21,1.11-.49M180.61,51.34c-.15-.15-.3-.3-.5-.53-.46.43-.98.62-1.58.62-1.05,0-1.65-.7-1.65-1.51,0-.74.44-1.24,1.06-1.57v-.02c-.28-.35-.45-.74-.45-1.13,0-.66.47-1.33,1.37-1.33.67,0,1.19.45,1.19,1.14,0,.57-.33,1.02-1.18,1.44v.03c.46.53.97,1.12,1.31,1.5.25-.38.42-.9.52-1.57h.64c-.14.85-.38,1.52-.78,1.99.29.3.57.61.89.95h-.83Z"/>
    <path class="cls-3" d="M187.57,48.13l-.08-1.28c0-.17,0-.38-.02-.61h-.03c-.05.19-.12.45-.18.65l-.39,1.21h-.45l-.39-1.24c-.04-.17-.1-.42-.15-.62h-.02c0,.2,0,.41-.02.61l-.08,1.28h-.42l.16-2.18h.65l.38,1.06c.05.17.09.33.14.55h0c.06-.2.1-.38.15-.54l.38-1.07h.62l.17,2.18h-.43ZM185.22,45.95v.36h-.7v1.82h-.43v-1.82h-.7v-.36h1.82Z"/>
    <path class="cls-3" d="M191.01,51.34l-1.37-5.39h.74l.64,2.73c.16.67.3,1.34.4,1.86h.02c.09-.53.26-1.18.44-1.87l.72-2.72h.73l.66,2.73c.15.64.3,1.28.38,1.85h.01c.11-.59.26-1.19.43-1.86l.71-2.72h.71l-1.53,5.39h-.73l-.68-2.81c-.17-.69-.28-1.21-.35-1.76h-.02c-.1.53-.22,1.06-.42,1.76l-.77,2.81h-.73Z"/>
    <path class="cls-3" d="M198.65,49.36c-.77-.02-1.64.12-1.64.87,0,.46.3.67.66.67.5,0,.82-.32.93-.65.03-.07.04-.15.04-.22v-.67ZM198.75,51.34l-.06-.49h-.02c-.22.3-.63.57-1.18.57-.78,0-1.18-.55-1.18-1.11,0-.94.83-1.45,2.33-1.44v-.08c0-.32-.09-.9-.88-.9-.36,0-.74.11-1.01.29l-.16-.46c.32-.21.78-.34,1.27-.34,1.18,0,1.47.81,1.47,1.58v1.45c0,.34.02.66.07.93h-.64Z"/>
    <path class="cls-3" d="M200.46,48.68c0-.46,0-.85-.03-1.21h.62l.02.76h.03c.18-.52.6-.85,1.07-.85.08,0,.14,0,.2.02v.66c-.07-.02-.14-.02-.24-.02-.5,0-.85.38-.94.9-.02.1-.03.21-.03.33v2.06h-.7v-2.66Z"/>
    <path class="cls-3" d="M203.11,48.52c0-.4,0-.73-.03-1.05h.62l.04.64h.02c.19-.37.64-.73,1.28-.73.54,0,1.37.32,1.37,1.65v2.31h-.7v-2.23c0-.62-.23-1.14-.9-1.14-.46,0-.82.33-.94.72-.03.09-.05.21-.05.33v2.33h-.7v-2.82Z"/>
    <path class="cls-3" d="M210.01,49.03c0-.45-.18-1.14-.98-1.14-.71,0-1.02.66-1.08,1.14h2.06ZM207.94,49.53c.02.95.62,1.34,1.33,1.34.5,0,.81-.09,1.07-.2l.12.5c-.25.11-.67.24-1.29.24-1.19,0-1.9-.78-1.9-1.95s.69-2.09,1.82-2.09c1.26,0,1.6,1.11,1.6,1.82,0,.14-.01.26-.02.33h-2.72Z"/>
    <path class="cls-3" d="M211.56,48.68c0-.46,0-.85-.03-1.21h.62l.02.76h.03c.18-.52.6-.85,1.07-.85.08,0,.14,0,.2.02v.66c-.07-.02-.14-.02-.24-.02-.5,0-.85.38-.94.9-.02.1-.03.21-.03.33v2.06h-.7v-2.66Z"/>
    <path class="cls-3" d="M216.59,50.81c.14.02.34.03.58.03.72,0,1.38-.26,1.38-1.05,0-.74-.63-1.04-1.39-1.04h-.58v2.06ZM216.59,48.23h.63c.74,0,1.17-.38,1.17-.9,0-.63-.48-.88-1.18-.88-.32,0-.5.02-.62.05v1.73ZM215.89,46.02c.3-.06.78-.11,1.27-.11.7,0,1.14.12,1.48.39.28.21.45.53.45.95,0,.52-.34.98-.91,1.18v.02c.51.13,1.11.55,1.11,1.35,0,.46-.18.82-.46,1.08-.38.34-.98.5-1.86.5-.48,0-.85-.03-1.08-.06v-5.3Z"/>
    <path class="cls-3" d="M220.21,48.68c0-.46,0-.85-.03-1.21h.62l.02.76h.03c.18-.52.6-.85,1.07-.85.08,0,.14,0,.2.02v.66c-.07-.02-.14-.02-.24-.02-.5,0-.85.38-.94.9-.02.1-.03.21-.03.33v2.06h-.7v-2.66Z"/>
    <path class="cls-3" d="M223.17,49.41c0,.85.49,1.49,1.18,1.49s1.18-.63,1.18-1.5c0-.65-.33-1.49-1.16-1.49s-1.19.77-1.19,1.5M226.24,49.37c0,1.43-.99,2.06-1.93,2.06-1.05,0-1.85-.77-1.85-1.99,0-1.3.85-2.05,1.92-2.05s1.86.81,1.86,1.99"/>
    <path class="cls-3" d="M227.04,50.62c.21.14.57.28.93.28.51,0,.75-.26.75-.58s-.2-.52-.72-.71c-.69-.25-1.02-.63-1.02-1.09,0-.62.5-1.14,1.33-1.14.39,0,.74.11.95.24l-.18.51c-.15-.1-.43-.22-.79-.22-.42,0-.65.24-.65.53,0,.32.23.46.74.66.67.26,1.01.59,1.01,1.17,0,.68-.53,1.16-1.45,1.16-.42,0-.82-.11-1.09-.26l.18-.54Z"/>
    <path class="cls-3" d="M230.05,50.92c0-.3.2-.5.48-.5s.47.21.47.5-.18.5-.48.5c-.28,0-.47-.22-.47-.5"/>
  </g>
  <polygon class="cls-3" points="236.38 48.81 234.29 48.81 234.29 50.75 236.62 50.75 236.62 51.34 233.59 51.34 233.59 45.95 236.5 45.95 236.5 46.53 234.29 46.53 234.29 48.24 236.38 48.24 236.38 48.81"/>
  <g class="cls-11">
    <path class="cls-3" d="M237.5,48.52c0-.4,0-.73-.03-1.05h.62l.04.64h.02c.19-.37.64-.73,1.28-.73.54,0,1.37.32,1.37,1.65v2.31h-.7v-2.23c0-.62-.23-1.14-.9-1.14-.46,0-.82.33-.94.72-.03.09-.05.21-.05.33v2.33h-.7v-2.82Z"/>
    <path class="cls-3" d="M242.76,46.36v1.11h1.01v.54h-1.01v2.09c0,.48.14.75.53.75.19,0,.32-.02.41-.05l.03.53c-.14.06-.35.1-.62.1-.33,0-.59-.11-.76-.3-.2-.21-.27-.55-.27-1.01v-2.11h-.6v-.54h.6v-.93l.69-.18Z"/>
    <path class="cls-3" d="M246.96,49.03c0-.45-.18-1.14-.98-1.14-.71,0-1.02.66-1.08,1.14h2.06ZM244.9,49.53c.02.95.62,1.34,1.33,1.34.5,0,.81-.09,1.07-.2l.12.5c-.25.11-.67.24-1.29.24-1.19,0-1.9-.78-1.9-1.95s.69-2.09,1.82-2.09c1.26,0,1.6,1.11,1.6,1.82,0,.14-.01.26-.02.33h-2.72Z"/>
    <path class="cls-3" d="M248.52,48.68c0-.46,0-.85-.03-1.21h.62l.02.76h.03c.18-.52.6-.85,1.07-.85.08,0,.14,0,.2.02v.66c-.07-.02-.14-.02-.24-.02-.5,0-.85.38-.94.9-.02.1-.03.21-.03.33v2.06h-.7v-2.66Z"/>
    <path class="cls-3" d="M252.17,46.36v1.11h1.01v.54h-1.01v2.09c0,.48.14.75.53.75.19,0,.32-.02.41-.05l.03.53c-.14.06-.35.1-.62.1-.33,0-.59-.11-.76-.3-.2-.21-.27-.55-.27-1.01v-2.11h-.6v-.54h.6v-.93l.69-.18Z"/>
    <path class="cls-3" d="M256.01,49.36c-.77-.02-1.64.12-1.64.87,0,.46.3.67.66.67.5,0,.82-.32.93-.65.03-.07.04-.15.04-.22v-.67ZM256.12,51.34l-.06-.49h-.02c-.22.3-.63.57-1.18.57-.78,0-1.18-.55-1.18-1.11,0-.94.83-1.45,2.33-1.44v-.08c0-.32-.09-.9-.88-.9-.36,0-.74.11-1.01.29l-.16-.46c.32-.21.78-.34,1.27-.34,1.18,0,1.47.81,1.47,1.58v1.45c0,.34.02.66.07.93h-.64Z"/>
    <path class="cls-3" d="M257.83,47.47h.7v3.87h-.7v-3.87ZM258.61,46.38c0,.24-.17.43-.45.43-.25,0-.42-.19-.42-.43s.18-.44.44-.44.43.19.43.44"/>
    <path class="cls-3" d="M259.7,48.52c0-.4,0-.73-.03-1.05h.62l.04.64h.01c.19-.37.64-.73,1.28-.73.54,0,1.37.32,1.37,1.65v2.31h-.7v-2.23c0-.62-.23-1.14-.9-1.14-.46,0-.82.33-.94.72-.03.09-.05.21-.05.33v2.33h-.7v-2.82Z"/>
    <path class="cls-3" d="M264.14,48.52c0-.4,0-.73-.03-1.05h.62l.03.62h.02c.22-.37.58-.71,1.21-.71.53,0,.93.32,1.1.78h.02c.12-.22.27-.38.43-.5.23-.18.49-.27.86-.27.51,0,1.27.34,1.27,1.68v2.28h-.69v-2.19c0-.74-.27-1.19-.84-1.19-.4,0-.71.3-.83.64-.03.1-.06.22-.06.35v2.39h-.69v-2.32c0-.62-.27-1.06-.81-1.06-.44,0-.76.35-.87.7-.04.1-.06.22-.06.34v2.34h-.69v-2.82Z"/>
    <path class="cls-3" d="M273.27,49.03c0-.45-.18-1.14-.98-1.14-.71,0-1.02.66-1.08,1.14h2.06ZM271.21,49.53c.02.95.62,1.34,1.33,1.34.5,0,.81-.09,1.07-.2l.12.5c-.25.11-.67.24-1.29.24-1.19,0-1.9-.78-1.9-1.95s.69-2.09,1.82-2.09c1.26,0,1.6,1.11,1.6,1.82,0,.14-.01.26-.02.33h-2.72Z"/>
    <path class="cls-3" d="M274.82,48.52c0-.4,0-.73-.03-1.05h.62l.04.64h.02c.19-.37.64-.73,1.28-.73.54,0,1.37.32,1.37,1.65v2.31h-.7v-2.23c0-.62-.23-1.14-.9-1.14-.46,0-.82.33-.94.72-.03.09-.05.21-.05.33v2.33h-.7v-2.82Z"/>
    <path class="cls-3" d="M280.08,46.36v1.11h1.01v.54h-1.01v2.09c0,.48.14.75.53.75.18,0,.32-.02.41-.05l.03.53c-.14.06-.35.1-.62.1-.33,0-.59-.11-.76-.3-.2-.21-.27-.55-.27-1.01v-2.11h-.6v-.54h.6v-.93l.69-.18Z"/>
  </g>
  <rect class="cls-3" x="283.6" y="45.95" width=".7" height="5.39"/>
  <g class="cls-10">
    <path class="cls-3" d="M285.57,48.52c0-.4,0-.73-.03-1.05h.62l.04.64h.02c.19-.37.64-.73,1.28-.73.54,0,1.37.32,1.37,1.65v2.31h-.7v-2.23c0-.62-.23-1.14-.9-1.14-.46,0-.82.33-.94.72-.03.09-.05.21-.05.33v2.33h-.7v-2.82Z"/>
    <path class="cls-3" d="M292.77,51.2c-.18.1-.59.22-1.11.22-1.17,0-1.93-.79-1.93-1.98s.81-2.06,2.08-2.06c.42,0,.78.1.98.2l-.16.54c-.17-.1-.43-.18-.82-.18-.89,0-1.37.65-1.37,1.46,0,.9.57,1.45,1.34,1.45.4,0,.66-.1.86-.19l.12.53Z"/>
    <path class="cls-3" d="M293.34,50.92c0-.3.2-.5.48-.5s.47.21.47.5-.18.5-.48.5-.47-.22-.47-.5"/>
    <path class="cls-3" d="M135.2,60.94l-1.37-5.39h.73l.64,2.73c.16.67.3,1.34.4,1.86h.02c.09-.54.26-1.18.44-1.87l.72-2.72h.73l.66,2.74c.15.64.3,1.28.38,1.85h.02c.11-.59.26-1.19.43-1.86l.71-2.72h.71l-1.53,5.39h-.73l-.68-2.81c-.17-.69-.28-1.21-.35-1.76h-.02c-.1.53-.22,1.06-.42,1.76l-.77,2.81h-.73Z"/>
    <path class="cls-3" d="M141.78,60.41c.14.02.34.03.58.03.72,0,1.38-.26,1.38-1.05,0-.74-.63-1.04-1.39-1.04h-.58v2.06ZM141.78,57.83h.63c.74,0,1.17-.38,1.17-.9,0-.63-.48-.88-1.18-.88-.32,0-.5.02-.61.05v1.73ZM141.09,55.62c.3-.06.78-.11,1.27-.11.69,0,1.14.12,1.48.39.28.21.45.53.45.95,0,.52-.34.98-.91,1.18v.02c.51.13,1.11.55,1.11,1.35,0,.46-.18.82-.46,1.08-.38.34-.98.5-1.86.5-.48,0-.85-.03-1.08-.06v-5.3Z"/>
    <path class="cls-3" d="M147.02,60.09c.31.19.77.35,1.25.35.71,0,1.13-.38,1.13-.92,0-.5-.29-.79-1.02-1.07-.88-.31-1.42-.77-1.42-1.53,0-.84.7-1.46,1.74-1.46.55,0,.95.13,1.19.26l-.19.57c-.18-.1-.54-.26-1.02-.26-.74,0-1.01.44-1.01.81,0,.5.33.75,1.07,1.04.91.35,1.38.79,1.38,1.58,0,.83-.61,1.55-1.89,1.55-.52,0-1.09-.15-1.38-.34l.18-.58Z"/>
  </g>
  <polygon class="cls-3" points="151.76 55.55 151.76 57.8 154.37 57.8 154.37 55.55 155.07 55.55 155.07 60.94 154.37 60.94 154.37 58.41 151.76 58.41 151.76 60.94 151.06 60.94 151.06 55.55 151.76 55.55"/>
  <rect class="cls-3" x="156.28" y="55.55" width=".7" height="5.39"/>
  <polygon class="cls-3" points="160.98 58.41 158.89 58.41 158.89 60.35 161.22 60.35 161.22 60.94 158.19 60.94 158.19 55.55 161.1 55.55 161.1 56.13 158.89 56.13 158.89 57.84 160.98 57.84 160.98 58.41"/>
  <polygon class="cls-3" points="162.13 55.55 162.82 55.55 162.82 60.35 165.13 60.35 165.13 60.94 162.13 60.94 162.13 55.55"/>
  <g class="cls-8">
    <path class="cls-3" d="M166.6,60.39c.18.03.43.04.7.04,1.49,0,2.29-.83,2.29-2.29,0-1.27-.71-2.08-2.18-2.08-.36,0-.63.03-.82.07v4.25ZM165.9,55.62c.42-.06.93-.11,1.48-.11,1,0,1.71.23,2.18.67.48.44.76,1.06.76,1.93s-.27,1.6-.78,2.1c-.5.5-1.33.77-2.38.77-.5,0-.91-.02-1.26-.06v-5.3Z"/>
    <path class="cls-3" d="M171.04,60.53c0-.3.2-.5.48-.5s.46.21.47.5c0,.28-.18.5-.48.5s-.47-.22-.47-.5M171.04,57.71c0-.3.2-.5.48-.5s.46.21.47.5c0,.28-.18.5-.48.5s-.47-.22-.47-.5"/>
    <path class="cls-3" d="M177.67,57.31c-.1-.06-.4-.18-.78-.18-.75,0-1.12.48-1.12,1.12s.39,1.13,1.13,1.13c.32,0,.62-.09.81-.21l.1.3c-.28.19-.65.25-.98.25-.93,0-1.46-.64-1.46-1.45,0-.91.72-1.49,1.53-1.49.42,0,.78.12.88.22l-.1.31ZM174.66,58.24c0,1.19.88,2.13,2.03,2.13s2.01-.93,2.01-2.15-.88-2.14-2.01-2.14-2.03.94-2.03,2.16M179.1,58.22c0,1.38-1.06,2.48-2.41,2.48s-2.43-1.1-2.43-2.48,1.07-2.46,2.43-2.46,2.41,1.1,2.41,2.46"/>
    <path class="cls-3" d="M182.58,56.72c0,.38.18.68.41.97.54-.31.89-.6.89-1.06,0-.33-.18-.69-.62-.69s-.68.37-.68.78M184.22,60.01c-.32-.35-.92-1.01-1.52-1.69-.29.18-.7.53-.7,1.1,0,.62.46,1.09,1.1,1.09.46,0,.85-.21,1.11-.49M185.07,60.94c-.15-.15-.3-.3-.5-.53-.46.43-.98.62-1.57.62-1.05,0-1.66-.7-1.66-1.51,0-.74.44-1.24,1.06-1.57v-.02c-.28-.35-.45-.74-.45-1.13,0-.66.47-1.33,1.37-1.33.67,0,1.19.45,1.19,1.14,0,.57-.33,1.02-1.18,1.44v.02c.46.53.97,1.12,1.31,1.5.25-.38.42-.9.52-1.57h.64c-.14.85-.38,1.52-.78,1.99.29.3.57.61.89.95h-.83Z"/>
    <path class="cls-3" d="M192.04,57.72l-.08-1.28c0-.17,0-.38-.02-.61h-.03c-.05.19-.12.45-.18.65l-.39,1.21h-.45l-.39-1.24c-.04-.17-.1-.42-.15-.62h-.02c0,.2,0,.41-.02.61l-.08,1.28h-.42l.16-2.18h.65l.38,1.06c.05.17.09.33.14.55h0c.06-.2.1-.38.15-.54l.38-1.07h.62l.17,2.18h-.43ZM189.69,55.55v.36h-.7v1.82h-.43v-1.82h-.7v-.36h1.82Z"/>
    <path class="cls-3" d="M195.47,60.94l-1.37-5.39h.74l.64,2.73c.16.67.3,1.34.4,1.86h.02c.09-.54.26-1.18.44-1.87l.72-2.72h.73l.66,2.74c.15.64.3,1.28.38,1.85h.01c.11-.59.26-1.19.43-1.86l.71-2.72h.71l-1.53,5.39h-.73l-.68-2.81c-.17-.69-.28-1.21-.35-1.76h-.02c-.1.53-.22,1.06-.42,1.76l-.77,2.81h-.73Z"/>
    <path class="cls-3" d="M202.05,60.41c.14.02.34.03.58.03.72,0,1.38-.26,1.38-1.05,0-.74-.63-1.04-1.39-1.04h-.58v2.06ZM202.05,57.83h.63c.74,0,1.17-.38,1.17-.9,0-.63-.48-.88-1.18-.88-.32,0-.5.02-.62.05v1.73ZM201.36,55.62c.3-.06.78-.11,1.27-.11.7,0,1.14.12,1.48.39.28.21.45.53.45.95,0,.52-.34.98-.91,1.18v.02c.51.13,1.11.55,1.11,1.35,0,.46-.18.82-.46,1.08-.38.34-.98.5-1.86.5-.48,0-.85-.03-1.08-.06v-5.3Z"/>
  </g>
  <polygon class="cls-3" points="208.49 58.41 206.39 58.41 206.39 60.35 208.73 60.35 208.73 60.94 205.7 60.94 205.7 55.55 208.61 55.55 208.61 56.13 206.39 56.13 206.39 57.84 208.49 57.84 208.49 58.41"/>
  <rect class="cls-3" x="209.63" y="55.55" width=".7" height="5.39"/>
  <g class="cls-9">
    <path class="cls-3" d="M211.35,60.52c0-.3.2-.5.48-.5s.47.21.47.5-.18.5-.48.5c-.28,0-.47-.22-.47-.5"/>
    <path class="cls-3" d="M215.59,58.21c.15.04.34.05.58.05.84,0,1.35-.41,1.35-1.15s-.5-1.05-1.27-1.05c-.3,0-.54.02-.66.06v2.09ZM214.9,55.61c.34-.06.77-.1,1.34-.1.69,0,1.19.16,1.51.45.3.26.47.65.47,1.13s-.14.87-.42,1.15c-.37.39-.97.59-1.65.59-.21,0-.4,0-.56-.05v2.16h-.7v-5.32Z"/>
    <path class="cls-3" d="M222.25,59.88c0,.4,0,.75.03,1.06h-.62l-.04-.63h-.02c-.18.31-.59.72-1.28.72-.61,0-1.33-.34-1.33-1.7v-2.26h.7v2.14c0,.74.23,1.23.87,1.23.47,0,.8-.33.93-.64.04-.1.07-.23.07-.36v-2.37h.7v2.81Z"/>
    <path class="cls-3" d="M224.11,59.39c0,.09.01.18.03.26.14.49.54.82,1.05.82.74,0,1.18-.6,1.18-1.49,0-.78-.4-1.44-1.15-1.44-.48,0-.93.33-1.07.86-.02.08-.04.18-.04.29v.7ZM223.38,60.94c.02-.26.03-.65.03-1v-4.68h.7v2.43h.01c.25-.43.7-.71,1.32-.71.96,0,1.64.8,1.63,1.97,0,1.38-.87,2.07-1.73,2.07-.56,0-1.01-.22-1.3-.73h-.02l-.03.64h-.61Z"/>
  </g>
  <rect class="cls-3" x="227.97" y="55.26" width=".7" height="5.68"/>
  <g class="cls-12">
    <path class="cls-3" d="M229.85,57.07h.7v3.87h-.7v-3.87ZM230.64,55.98c0,.24-.17.43-.45.43-.25,0-.42-.19-.42-.43s.18-.44.44-.44.43.19.43.44"/>
    <path class="cls-3" d="M231.63,60.22c.21.14.58.28.93.28.51,0,.75-.26.75-.58,0-.34-.2-.52-.72-.71-.7-.25-1.02-.63-1.02-1.09,0-.62.5-1.14,1.34-1.14.39,0,.74.11.95.24l-.18.51c-.15-.1-.43-.22-.79-.22-.42,0-.65.24-.65.53,0,.32.23.46.74.66.67.26,1.01.59,1.01,1.17,0,.68-.53,1.16-1.45,1.16-.42,0-.82-.11-1.09-.26l.18-.54Z"/>
    <path class="cls-3" d="M234.89,55.26h.7v2.41h.02c.11-.2.29-.38.5-.49.21-.12.46-.2.72-.2.52,0,1.35.32,1.35,1.66v2.3h-.7v-2.22c0-.62-.23-1.15-.9-1.15-.46,0-.82.32-.94.7-.04.1-.05.2-.05.34v2.34h-.7v-5.68Z"/>
    <path class="cls-3" d="M239.33,57.07h.7v3.87h-.7v-3.87ZM240.12,55.98c0,.24-.17.43-.45.43-.25,0-.42-.19-.42-.43s.18-.44.44-.44.43.19.43.44"/>
    <path class="cls-3" d="M241.21,58.12c0-.4,0-.73-.03-1.05h.62l.04.64h.02c.19-.37.64-.73,1.28-.73.54,0,1.37.32,1.37,1.65v2.31h-.7v-2.23c0-.62-.23-1.14-.9-1.14-.46,0-.82.33-.94.72-.03.09-.05.21-.05.33v2.33h-.7v-2.82Z"/>
    <path class="cls-3" d="M248.25,58.6c0-.12,0-.22-.04-.32-.13-.41-.47-.74-.98-.74-.67,0-1.15.57-1.15,1.46,0,.76.38,1.39,1.14,1.39.43,0,.82-.27.98-.72.04-.12.06-.26.06-.38v-.7ZM248.98,57.07c-.02.28-.03.59-.03,1.06v2.25c0,.89-.18,1.43-.55,1.77-.38.35-.92.46-1.41.46s-.98-.11-1.29-.32l.18-.54c.26.16.66.3,1.14.3.72,0,1.25-.38,1.25-1.35v-.43h-.02c-.22.36-.63.65-1.23.65-.96,0-1.65-.82-1.65-1.89,0-1.31.85-2.05,1.74-2.05.67,0,1.04.35,1.21.67h.02l.03-.58h.62Z"/>
    <path class="cls-3" d="M252.53,58.08h.71c.74,0,1.22-.41,1.22-1.02,0-.7-.5-1-1.24-1.01-.33,0-.57.03-.69.06v1.97ZM251.84,55.62c.35-.07.85-.11,1.34-.11.74,0,1.22.14,1.56.44.27.24.42.61.42,1.02,0,.71-.45,1.18-1.01,1.38v.02c.42.14.66.53.79,1.09.18.75.3,1.27.41,1.48h-.72c-.09-.15-.21-.61-.36-1.29-.16-.74-.45-1.02-1.08-1.05h-.66v2.33h-.7v-5.32Z"/>
    <path class="cls-3" d="M256.2,57.07h.7v3.87h-.7v-3.87ZM256.98,55.98c0,.24-.17.43-.45.43-.25,0-.42-.19-.42-.43s.18-.44.44-.44.43.19.43.44"/>
    <path class="cls-3" d="M260.68,58.6c0-.12,0-.22-.04-.32-.13-.41-.47-.74-.98-.74-.67,0-1.15.57-1.15,1.46,0,.76.38,1.39,1.14,1.39.43,0,.82-.27.98-.72.04-.12.06-.26.06-.38v-.7ZM261.4,57.07c-.02.28-.03.59-.03,1.06v2.25c0,.89-.18,1.43-.55,1.77-.38.35-.92.46-1.41.46s-.98-.11-1.29-.32l.18-.54c.26.16.66.3,1.14.3.72,0,1.25-.38,1.25-1.35v-.43h-.02c-.22.36-.63.65-1.23.65-.96,0-1.65-.82-1.65-1.89,0-1.31.85-2.05,1.74-2.05.67,0,1.04.35,1.21.67h.02l.03-.58h.62Z"/>
    <path class="cls-3" d="M262.54,55.26h.7v2.41h.02c.11-.2.29-.38.5-.49.21-.12.46-.2.72-.2.52,0,1.35.32,1.35,1.66v2.3h-.7v-2.22c0-.62-.23-1.15-.9-1.15-.46,0-.82.32-.94.7-.04.1-.05.2-.05.34v2.34h-.7v-5.68Z"/>
    <path class="cls-3" d="M267.8,55.96v1.11h1.01v.54h-1.01v2.09c0,.48.14.75.53.75.18,0,.32-.02.41-.05l.03.53c-.14.06-.35.1-.62.1-.33,0-.59-.11-.76-.3-.2-.21-.27-.55-.27-1.01v-2.11h-.6v-.54h.6v-.93l.69-.18Z"/>
    <path class="cls-3" d="M269.5,60.22c.21.14.58.28.93.28.51,0,.75-.26.75-.58,0-.34-.2-.52-.72-.71-.7-.25-1.02-.63-1.02-1.09,0-.62.5-1.14,1.34-1.14.39,0,.74.11.95.24l-.18.51c-.15-.1-.43-.22-.79-.22-.42,0-.65.24-.65.53,0,.32.23.46.74.66.67.26,1.01.59,1.01,1.17,0,.68-.53,1.16-1.45,1.16-.42,0-.82-.11-1.09-.26l.18-.54Z"/>
    <path class="cls-3" d="M277.57,57.31c-.1-.06-.4-.18-.78-.18-.75,0-1.12.48-1.12,1.12s.39,1.13,1.13,1.13c.32,0,.62-.09.81-.21l.1.3c-.28.19-.65.25-.98.25-.93,0-1.46-.64-1.46-1.45,0-.91.72-1.49,1.53-1.49.42,0,.78.12.88.22l-.1.31ZM274.57,58.24c0,1.19.88,2.13,2.03,2.13s2.01-.93,2.01-2.15-.88-2.14-2.01-2.14-2.03.94-2.03,2.16M279,58.22c0,1.38-1.06,2.48-2.41,2.48s-2.43-1.1-2.43-2.48,1.07-2.46,2.43-2.46,2.41,1.1,2.41,2.46"/>
    <path class="cls-3" d="M282.7,55.55h.7v3.61c0,1.43-.7,1.87-1.63,1.87-.25,0-.57-.06-.74-.13l.1-.57c.14.06.35.1.58.1.62,0,.99-.28.99-1.34v-3.55Z"/>
    <path class="cls-3" d="M284.56,55.55h.7v2.6h.02c.14-.21.29-.4.42-.58l1.65-2.02h.86l-1.95,2.29,2.1,3.1h-.83l-1.77-2.65-.51.59v2.05h-.7v-5.39Z"/>
    <path class="cls-3" d="M289.59,58.08h.71c.74,0,1.22-.41,1.22-1.02,0-.7-.5-1-1.24-1.01-.34,0-.58.03-.69.06v1.97ZM288.89,55.62c.35-.07.85-.11,1.34-.11.74,0,1.22.14,1.56.44.27.24.42.61.42,1.02,0,.71-.45,1.18-1.01,1.38v.02c.42.14.66.53.79,1.09.18.75.3,1.27.42,1.48h-.72c-.09-.15-.21-.61-.36-1.29-.16-.74-.45-1.02-1.08-1.05h-.66v2.33h-.7v-5.32Z"/>
    <path class="cls-3" d="M293.01,60.52c0-.3.2-.5.48-.5s.47.21.47.5-.18.5-.48.5-.47-.22-.47-.5"/>
    <path class="cls-3" d="M298.05,55.39c-.58.78-1.01,1.82-1.01,3.27s.44,2.45,1.01,3.25h-.55c-.5-.66-1.05-1.69-1.05-3.25,0-1.58.54-2.6,1.05-3.27h.55Z"/>
    <path class="cls-3" d="M298.7,60.22c.21.14.58.28.93.28.51,0,.75-.26.75-.58,0-.34-.2-.52-.72-.71-.7-.25-1.02-.63-1.02-1.09,0-.62.5-1.14,1.34-1.14.39,0,.74.11.95.24l-.18.51c-.15-.1-.43-.22-.79-.22-.42,0-.65.24-.65.53,0,.32.23.46.74.66.67.26,1.01.59,1.01,1.17,0,.68-.53,1.16-1.45,1.16-.42,0-.82-.11-1.09-.26l.18-.54Z"/>
    <path class="cls-3" d="M301.74,60.94v-.43l.55-.54c1.33-1.26,1.93-1.93,1.93-2.72,0-.53-.26-1.02-1.03-1.02-.47,0-.86.24-1.1.44l-.22-.5c.36-.3.87-.53,1.47-.53,1.12,0,1.59.77,1.59,1.51,0,.96-.7,1.74-1.79,2.79l-.42.38v.02h2.33v.58h-3.32Z"/>
    <path class="cls-3" d="M309.75,61.91c.57-.79,1.01-1.83,1.01-3.27s-.43-2.45-1.01-3.25h.54c.51.66,1.05,1.68,1.05,3.25s-.54,2.58-1.05,3.26h-.54Z"/>
    <path class="cls-3" d="M103.74,62.18c-.5.78-1.46,1.31-2.61,1.31-1.72,0-3.19-1.16-3.19-3.07,0-1.67,1.27-3.05,3.19-3.03.94,0,1.62.32,2.06.6-.58-.21-2.56-.6-3.54.71-.39.52-.54,1.18-.54,1.73,0,1.54,1,2.56,2.02,2.56.86,0,1.64-.62,1.88-1.81.16-.82-.18-1.55-.47-1.89-.29-.35-.97-.69-1.56-.2-.35.29-.32.62-.22.85.17.36.6.35.6.35-.75.15-1.07-.43-.98-.89.09-.44.61-1.14.61-1.14l1.63.02,1.3,1.22s.11.28.19.6c.18.74-.04,1.57-.37,2.09"/>
    <path class="cls-3" d="M107.49,58.99c0-.45-.34-1.02-.96-1.02h-.62v2.18h.63c.63,0,.95-.59.95-1.16M107.89,63.32l.29-.32-1.65-2.37h-.62v2.37l.29.32h-1.7l.3-.32v-5.22l-.29-.32h2.47c.9,0,1.82.72,1.62,1.82h.3s-.52.58-.53.6l.2.15h0s-1.13.51-1.13.51l.35.13,1.64,2.33.29.32h-1.82Z"/>
  </g>
  <polygon class="cls-3" points="109.98 57.47 110.27 57.79 110.27 63.01 109.98 63.32 113.71 63.32 113.83 62.15 113.28 62.83 111.17 62.84 111.4 62.59 111.4 57.79 111.7 57.47 109.98 57.47"/>
  <g class="cls-16">
    <path class="cls-3" d="M118.69,60.36c0-1.2-.57-2.41-1.69-2.41h-1.48v4.64l-.23.24h1.27c1.14,0,2.13-1.02,2.13-2.47M119.86,60.34c0,2.15-1.78,2.98-2.76,2.98h-2.99l.3-.32v-3.37l-.35-.74.37.16-.55-1.07.58.05-.48-.56h3.35c1.49,0,2.54,1.16,2.54,2.87"/>
    <path class="cls-3" d="M104.98,48.05c.6,0,1.09.45,1.16,1.03h0s0,0,0,0c.03.2.03.42.03.42h13.8v-.14l-.56-.39s-12.6,0-12.72,0c-.13-.82-.85-1.47-1.71-1.47h0c-.86,0-1.57.65-1.71,1.47-.12,0-12.72,0-12.72,0l-.56.39v.14h13.79s0-.22.03-.42h0s0,0,0,0c.07-.58.56-1.03,1.16-1.03h0Z"/>
    <path class="cls-3" d="M104.61,36.9c0,.08.09.14.14.16l.02,1.03-.11.11s-.06.08-.06.12c0,.03,0,.06,0,.1,0,.16.07.32.18.45,0,0,.01.01.01.02v.18c0,.25.02.51.04.77l.02.48c-.12.18-.17.33-.13.46.03.1.09.15.13.18v.03c-.03.27-.03.53,0,.79v.7c-.13.16-.13.29-.12.4,0,.13.04.22.09.27,0,.1.03.2.04.29v.06s-.01,1.35-.01,1.35c-.15.37-.03.59.03.67.01.25.03,1.18.03,1.19,0,.02.02.11.1.11.07,0,.12-.04.13-.13.02-.33.06-.98.05-1.17.06-.08.18-.31.03-.68v-.18c0-.09,0-.19,0-.31v-.36c0-.09,0-.18,0-.27v-.29c0-.08,0-.17.01-.25.05-.04.09-.13.11-.26.02-.14.02-.28-.11-.45v-.09c0-.08,0-.15,0-.21l-.02-1.22s.1-.1.13-.2c.03-.13-.02-.28-.14-.44v-1.42c.14-.17.21-.36.21-.56,0-.05-.02-.09-.06-.12l-.11-.11h0c.01-.17.01-.33.01-.5v-.53c.07-.02.15-.08.16-.16,0-.04.02-.16.04-.33.02-.13-.05-.25-.18-.29l-.04-.66c.06-.05.17-.17.15-.35-.02-.16-.13-.24-.2-.27l.18-.3h0s0-.22-.12-.25c-.09-.02-.17-.03-.26-.03h-.03c-.05,0-.1,0-.15.02h0s-.03.01-.04.01c-.12.03-.12.22-.12.24h0s.18.31.18.31c-.07.04-.18.12-.2.27-.02.18.09.31.15.35l-.04.66c-.13.05-.19.16-.18.29.02.17.04.29.04.33"/>
    <path class="cls-3" d="M100.3,35.92s.11.05.14.07l.09.05v.03s.03.11.06.14c0,.01.03.09.06.2,0,0,0,.02.01.03l.13.22.02.08h.02s0,.02.01.02c-.01.02-.02.04-.02.06,0,.06.05.13.1.17.08.2.12.34.12.37,0,.02-.01.07.02.22.01.04.04.13.04.17,0,.06.04.16.07.26l.05.16s.03.11.04.14c0,.02,0,.09.03.35,0,.03.01.05.03.07l.09.08s.05.05.06.07c.01.02.04.04.07.06l.25.74c.15.49.32,1.05.5,1.6.06.17.11.34.16.51.18.57.37,1.17.61,1.72l1.1,3.31c.02.07.1.11.16.08.01,0,.02,0,.03-.01.04-.03.06-.09.05-.15l-.93-3.12c-.03-.13-.06-.28-.12-.42l-.02-.05-.02-.06c0-.13-.02-.27-.07-.41-.06-.17-.14-.34-.2-.48l-.07-.24c-.1-.4-.22-.82-.37-1.28-.04-.13-.08-.23-.11-.32l-.5-1.66s.05-.02.06-.05c.01-.02.02-.06.01-.08l-.13-.42s-.02-.03-.03-.05l-.08-.07v-.04s-.01-.06-.01-.06c0-.01,0-.03,0-.04l-.2-.47.03-.09s.01-.05,0-.07l-.02-.08s-.02-.04-.04-.06l-.08-.07h0s-.06-.15-.06-.15l-.08-.33-.21-.57c.06-.21.05-.24.04-.26,0-.01,0-.05,0-.08,0-.04,0-.07,0-.1,0-.02,0-.09,0-.17,0-.05-.03-.09-.08-.1l-.1-.03-.1-.04-.08-.02s-.04,0-.06,0l-.1.03c-.1,0-.15.03-.15.08,0,0-.02.03-.05.08l-.11.03h-.01s-.1.07-.11.13c0,.04,0,.15,0,.19,0,.06,0,.13.07.15"/>
    <path class="cls-3" d="M91.12,45.66s.04.06.06.07c.04.05.21.15.26.17.06.04.13.06.19.08.03,0,.07.02.12.04.07.03.14.06.2.06,0,0,.02,0,.03,0,.06,0,.15.02.21-.03.02-.02.08-.09.07-.12,0-.03-.11.02-.22-.09-.02-.02-.15-.13-.15-.16,0-.02.08-.19.1-.19.02,0,.12.03.12.03.11.03.23.1.32.18.22.2.5.21.51.21.83-.07,1.69.4,1.77.47.12.12.22.09.23.09h.01s0-.01,0-.01c.17-.17.47-.11.47-.11l2.03.58c.19.07.36.12.52.15l4.55,1.33s.02,0,.04,0c.05,0,.09-.03.11-.07.02-.03.02-.07,0-.1-.01-.03-.04-.06-.08-.07-.29-.09-1.28-.43-2.51-.83-.16-.08-.32-.14-.47-.19-.12-.04-.26-.07-.43-.1-2.4-.77-3.74-1.21-3.89-1.27-.12-.05-.13-.09-.13-.09,0-.02.05-.07.08-.08.03-.02.06-.04.05-.08v-.03s-.03-.01-.03-.01c-.06-.03-.3-.04-.64-.04-.45.01-1.97-.19-2.25-.58-.06-.09-.13-.16-.21-.23-.06-.05-.11-.1-.16-.16-.17-.22-.51-.31-.61.04-.08.26-.41.27-.48.54-.03.12.08.19.13.29.02.1,0,.21.07.29"/>
    <path class="cls-3" d="M116.34,45.35c-.28.09-.57.18-.85.27-.09.03-.19.02-.29.02h-.03s-.05-.01-.08-.03c-.02,0-.03-.02-.05-.02l-.04-.02-.06.09.03.03s0,0,.01.01c0,0,.01.01.02.02,0,.01.02.02.02.03-.01,0-.02.01-.04.02-.03,0-.06.02-.09.02-.04.01-.09.02-.13.04-.08.03-.16.06-.24.1-.07.03-.15.06-.22.09-.08.03-.17.06-.28.09-.28.08-.56.16-.84.24-.04.01-.08.02-.12.03l-.08.02s-.08.02-.12.03c-.07.02-.15.04-.22.06-.15.03-.28.08-.41.12-.08.03-.16.06-.25.08-.18.05-.36.13-.53.2l-.09.04c-.16.07-.32.14-.48.21-.1.05-.2.09-.31.13-.13.06-.28.1-.43.15-.11.03-.23.07-.34.11-.21.08-.44.15-.66.22-.12.04-.23.09-.35.12-.08.02-.16.05-.24.07-.15.04-.32.09-.45.13-.05.01-.09.04-.14.05-.08.03-.14.04-.21.06-.07.02-.15.04-.23.06-.09.02-.04,0-.12.03-.07.02-.13.04-.12.1,0,.03.03.06.12.06,0,0,.17-.01.27-.03.24-.05.47-.11.73-.16.11-.02.26-.11.36-.13.11-.02.19-.04.29-.06.08-.02.19-.05.28-.07.14-.03.25-.1.37-.13.19-.05.38-.06.54-.16.15-.09.31-.1.48-.16.04-.01.09-.03.13-.05.02,0,.04-.02.06-.02.07-.03.13-.06.19-.09.14-.06.27-.12.41-.15.07-.01.13-.04.19-.06.11-.04.22-.07.33-.08.04,0,.08-.01.12-.02h.02c.15-.03.29-.08.42-.12.13-.04.26-.08.4-.11l.17-.03c.17-.03.35-.07.53-.11.1-.02.2-.05.3-.08.05-.02.11-.03.16-.05.03,0,.06-.02.1-.02.05-.01.11-.03.16-.05.17-.06.34-.13.5-.2h.02c.06-.03.12-.06.15-.11.03-.06.08-.07.16-.07.08,0,.16-.01.24-.02.23-.02.46-.04.69-.07.16-.02.34-.06.53-.11.13-.04.27-.08.4-.13.16-.05.33-.11.49-.16.22-.06.68-.16.9-.21.13-.03.26-.06.39-.09.08-.02.19-.08.18-.16,0-.04-.02-.09-.06-.12-.06-.04-.08-.1-.08-.19,0-.05-.05-.12-.11-.13h-.03c-.08-.01-.18-.02-.27,0-.11.03-.46.1-.57.12-.16.03-.33.06-.5.13-.2.08-.42.15-.62.21-.08.02-.16.05-.24.07l-.24.08Z"/>
    <path class="cls-3" d="M115.69,41.01l-.94.78s-.08.01-.11.04c-.03.03-.05.07-.06.09-.3.21-6.84,5.06-7.65,5.66-.05.03-.06.1-.03.14.03.06.11.07.16.03.87-.63,7.37-5.24,7.76-5.52.05.02.1-.01.12-.02.03-.02.06-.06.06-.08.06-.03.2-.11.31-.16.11-.06.85-.52,1-.6.36-.12.7-.36.5-.77-.1-.19-.34-.28-.53-.22-.31.09-.29.42-.29.46-.08.03-.16.01-.21.01-.01,0-.02,0-.03.02,0,.01,0,.02-.01.04,0,.04-.03.07-.06.09"/>
    <path class="cls-3" d="M93.55,41.34c.13.03.23.07.32.15.09.08.3.16.39.23.08.07.27.19.35.21.08.02.18.08.22.14.04.06.18.07.18.07,0,0,.08.08.12.11s.32.17.42.26c.09.09.39.24.6.41.2.16.34.26.45.31.11.06.3.21.4.3.11.09.27.18.38.28.11.1.33.23.51.34.17.11.39.29.53.38.14.09.44.28.56.37.11.09.49.37.68.49.19.12.4.27.57.41.17.14.67.46,1.13.76.45.3,1.44.99,1.57,1.08.13.09.2.03.21,0,0-.03.03-.08-.07-.17-.1-.09-.62-.46-.84-.62-.22-.16-.85-.65-1.01-.77-.16-.12-1.26-.91-1.51-1.1-.25-.18-.59-.42-.78-.55-.18-.13-.43-.3-.64-.43-.21-.13-.35-.3-.65-.49-.3-.19-.42-.35-.68-.5-.26-.15-.36-.26-.5-.38-.13-.12-.36-.19-.47-.33-.11-.13-.34-.21-.34-.21-.02-.07-.24-.19-.3-.23-.06-.04-.53-.52-.73-.68-.21-.16-.38-.23-.46-.28-.08-.05-.13-.17-.35-.4-.19-.2-.5-.08-.62.07-.13.16-.12.29-.05.49.07.2.3.25.43.28"/>
    <path class="cls-3" d="M105.73,46.93s.02.01.03.01c.01,0,.05.02.09,0,.05-.02.09-.08.12-.17.04-.13.1-.32.15-.52.05-.16.1-.33.14-.48.13-.43.5-1.44.7-1.99.07-.2.12-.33.13-.35,0-.03.01-.05.02-.08.01-.05.02-.11.08-.26.01-.04.03-.09.05-.15.12-.35.38-1.08.5-1.54,0-.04.03-.09.05-.14.02-.05.04-.1.05-.15,0-.04.02-.08.04-.12.02-.05.04-.11.05-.19,0-.02.01-.04.03-.08.02-.06.06-.15.11-.3.06-.18.22-.64.32-.94.05-.16.09-.28.1-.3,0-.02.02-.06.05-.12.04-.09.1-.24.19-.43.14-.33.4-1,.58-1.49.06-.17.13-.33.19-.48.11-.28.21-.53.26-.73.08-.31-.17-.56-.3-.59-.12-.03-.15.03-.17.08h0c-.1.22-.18.58-.25.87-.04.18-.08.34-.11.43-.26.71-.36,1.03-.47,1.41-.05.14-.09.29-.15.47-.09.28-.27.82-.46,1.38-.24.72-.49,1.47-.58,1.76-.1.32-.53,1.64-.85,2.6-.19.59-.35,1.06-.37,1.13-.06.18-.29.98-.35,1.18-.04.14-.06.23.02.28"/>
    <path class="cls-3" d="M113.8,37.64l-.68-.49s-.09-.02-.13,0c-.04.03-.06.09-.05.14v.09c.03.07.01.15-.03.21l-1.6,2.39s0,.01,0,.02l-.04.14s-.02.03-.03.04l-.17.08s-.08.07-.09.12c0,.03,0,.06.02.08h0s.01.02.02.03c-1.41,1.93-4.65,6.45-4.7,6.51-.06.07-.13.19-.04.25.09.06.21-.1.21-.1,1.15-1.46,4.15-5.5,4.85-6.43.01,0,.02,0,.04.01h0s.06,0,.08,0c.05-.02.09-.07.09-.12l.02-.18s.01-.03.03-.04l.12-.08s0,0,.01-.01l1.72-2.3c.04-.06.11-.1.18-.11h.09c.05-.02.1-.06.12-.11.02-.04,0-.09-.03-.12"/>
    <path class="cls-3" d="M97.1,57.47l.28.32-1.2,3.48-1.19-3.49.32-.31h-1.76l.28.32-.95,3.37-1.27-3.37.26-.32h-1.74l.31.32,2.19,5.78.31-.34,1.24-4.49,1.65,4.83.29-.32c.4-1.17,1.88-5.47,1.88-5.47l.35-.32h-1.25Z"/>
  </g>
  <polygon class="cls-3" points="94.03 51.11 92.57 51.11 92.86 51.41 92.86 55.56 92.57 55.87 94.03 55.87 93.75 55.56 93.75 51.41 94.03 51.11"/>
  <polygon class="cls-3" points="113.74 51.11 112.27 51.11 112.56 51.41 112.56 55.56 112.27 55.87 113.74 55.87 113.45 55.56 113.45 51.41 113.74 51.11"/>
  <g class="cls-17">
    <path class="cls-3" d="M98.07,51.74v-.64h-3.32l-.17,1.13.63-.66h1.93l-2.53,3.63v.66h3.45l.12-1.05s-.54.57-.54.57h-2.07l1.56-2.28.67-.45-.24-.14.88-.56-.38-.23Z"/>
    <path class="cls-3" d="M105.4,53.33c.44,0,.79-.48.79-.93,0-.28-.17-.81-.78-.81h-.66v1.74h.66ZM110.83,55.69s-.18,1.37-1.87,1.37c-1.12,0-1.95-.47-2.5-1.13-.79-.94-1.1-2.13-1.1-2.13h-.62v1.76l.29.31h-1.47l.29-.31v-4.15l-.29-.31h2.14c.2,0,.42.05.61.14.47.22.76.65.76,1.12,0,.97-.95,1.32-.95,1.32l.35.12s.28.96.82,1.77c.35.51.9,1.02,1.88,1.02.71,0,1.07-.33,1.15-.51l-.2-.2-.57.33.27-.52h1Z"/>
    <path class="cls-3" d="M118.46,51.41l.29-.31h-1.15l.29.31c0,.22,0,3.21,0,3.21l-2.51-3.51h-1.15l.29.31s0,4.15,0,4.15l-.29.31h1.14l-.29-.31v-3.3l2.57,3.62h1.1l-.29-.31v-4.15Z"/>
  </g>
  <path class="cls-3" d="M101.54,54.1l-.73-2.01-.88,2.01h1.62ZM103.31,55.87h-1.52l.29-.31-.28-.78.21-.21h-2.3l-.43.99.29.31h-1.22l.29-.31.49-1.1-.38-.36h.55l1.19-2.68-.28-.31h1.6l-.28.31,1.51,4.15.29.31Z"/>
  <g class="cls-15">
    <path class="cls-3" d="M110.84,53.11c0-.56-.19-1.53-1.16-1.53h-.73v2.95l-.22.24h.88c.9,0,1.23-.9,1.23-1.66M111.8,53.12c0,1.15-.7,2.13-1.78,2.13h-2.21l.25-.31v-3.53l-.29-.3h2.15c1.44,0,1.88,1.04,1.88,2.01"/>
  </g>
  <polygon class="cls-3" points="91.09 51.11 91.38 51.41 90.46 54.15 89.4 51.41 89.69 51.1 88.12 51.11 88.41 51.41 87.53 54.36 87.01 53.17 87.39 53.32 86.69 51.99 87.13 52.17 86.63 51.11 85.13 51.11 86.01 52.63 85.53 52.42 86.64 54.13 86.17 53.94 87.41 56.25 87.65 55.92 88.78 52.24 90.29 56.18 90.52 55.85 92 51.41 92.29 51.11 91.09 51.11"/>
  <g class="cls-14">
    <path class="cls-3" d="M124.1,53.14h-1.68c-.46,0-.92.03-1.08.42-.02.04-.04.13-.04.13l.49.47.22-.54h.96l-.23.25v1.48c-.22.09-.58.15-.88.15-.88,0-1.83-.76-1.83-2,0-.98.64-2.03,1.83-2.03.56,0,1.04.23,1.25.42.23.21.43.53.43.53l.38-1.26-.55.2s-.76-.38-1.49-.38c-1.64,0-2.79,1.03-2.79,2.51,0,.69.24,1.31.7,1.8.56.6,1.36.68,2.07.68,1,0,1.8-.42,1.8-.42v-1.41s.42-.49.42-.49l-.39-.07.43-.46Z"/>
    <path class="cls-3" d="M103.74,46.92s-1.9-2.64-3.09-4.32c-.03-.06-.05-.11-.09-.16-.09-.14-.21-.3-.34-.43-.1-.13-.2-.27-.24-.32,0,0,0-.01,0-.02-.02-.05-.09-.14-.13-.18,0,0-.01-.02-.02-.02-.02-.07-.06-.14-.11-.21-.02-.04-.08-.13-.1-.15l-.36-.5.02-.08h0s-.1-.19-.15-.21h0s-.08,0-.08,0l-.1-.13.02-.07h0s0-.04-.02-.05c-.02-.03-.04-.06-.06-.09-.02-.02-.04-.04-.07-.05h-.06s-.19-.28-.19-.28v-.11s0,0,0,0c0-.02-.1-.16-.12-.17l-.12-.04-.15-.21h0s.04-.09.02-.13c-.03-.05-.07-.13-.11-.19-.03-.05-.08-.07-.16-.08h-.04s-.59-.82-.59-.82l-.02-.08s-.03-.06-.06-.08l-.12-.09-.29-.44s-.04-.04-.07-.05c-.03,0-.06,0-.08.02l-.27.2s-.06.1-.02.15l.18.25.02.13s.04.07.07.09l.12.05.52.71v.06s0,0,0,.01c0,.02,0,.04,0,.06.02.04.06.1.08.13,0,0,.02.02.03.02l.13.07.25.34.06.1v.02s.1.09.1.09l.17.23v.06s0,.06.02.09c.02.03.06.08.09.11.02.02.05.04.08.04h.04s.11.15.11.15l-.02.06h0s.07.12.09.14h0s.06,0,.06,0l.17.23v.12s-.01,0-.01,0c.01.04.1.14.14.16h.09s.17.23.17.23c0,.02,0,.03,0,.04.01.04.03.08.06.12.04.04.08.08.13.11l.14.18c.02.06.04.12.1.16,0,0,.02,0,.02,0,.23.31.6.8.61.81,0,.01.2.26.47.63.07.15.15.26.25.33.42.56,2.51,3.32,2.57,3.4.04.05.08.08.13.08.05,0,.08-.03.08-.03,0,0,.1-.09,0-.22"/>
  </g>
  <polygon class="cls-3" points="119.35 62.84 119.35 62.9 119.5 62.9 119.5 63.32 119.58 63.32 119.58 62.9 119.73 62.9 119.73 62.84 119.35 62.84"/>
  <g class="cls-13">
    <path class="cls-3" d="M119.82,62.83h.08l.17.41.17-.41h.08v.49h-.07v-.34s-.03.07-.03.07l-.11.27h-.07l-.11-.27s-.02-.06-.03-.07v.34h-.07v-.49Z"/>
    <path class="cls-3" d="M71.16,42.28c0-1.22-1.4-2.22-3.26-2.34v6.36c2.34-1.37,3.26-2.74,3.26-4.02M73.75,47.85c0-1.34-.52-2.34-1.86-2.71.67-.73,1.06-1.74,1.06-2.77,0-2.47-2.62-4.17-6.69-4.44-.06,0-.09.03-.09.09v21.39c0,.06.06.09.12.03,5.72-5.3,7.46-9.22,7.46-11.59M64.47,38.03c0-.06-.03-.09-.09-.09-.55.06-1.01.15-1.52.27-.12.03-.15.09-.15.21l.06,10.92c0,1.37,0,2.5.06,3.77,0,.09-.09.12-.12.03-1.12-3.5-1.64-7.88-1.55-14.21,0-.12-.03-.15-.18-.09-.52.21-1.13.55-1.46.76-.09.06-.12.12-.12.27-.09,4.35.27,8.12.91,10.95l-.34.21c-.12.09-.21.09-.3-.09-1.07-2.37-1.74-5.99-1.74-9.89,0-.15-.09-.21-.18-.12-.46.42-.94.91-1.34,1.4-.12.15-.15.24-.15.4.09,3.16,1.1,7.67,2.65,10.41.18.34.43.43.73.21l1.16-.73c.76,2.56,1.89,4.9,3.56,6.82.06.06.12.03.12-.03v-21.39ZM76.95,42.54c0,8.77-4.56,16.38-11.38,20.91-.09.06-.18.12-.24.12s-.15-.06-.24-.12c-6.82-4.53-11.38-12.14-11.38-20.91,0-1,.09-2.01.27-2.95.03-.12.06-.17.12-.18l2.19-.58.31-1.25c.01-.06.03-.11.09-.12l2.25-.61.27-1.19c.02-.09.06-.14.12-.15l5.85-1.08c.1-.02.2-.02.29,0l5.85,1.08c.06.01.11.06.12.15l.27,1.19,2.25.61c.06.01.07.06.09.12l.31,1.25,2.19.58c.06.02.09.06.12.18.18.94.27,1.95.27,2.95M71.89,48.19c0,1.22-.88,3.59-3.99,7.06v-6.88c1.8-1.28,2.37-1.52,3.01-1.52.58,0,.97.49.97,1.34"/>
    <path class="cls-3" d="M307.09,57.88h.2c.13,0,.25-.02.36-.05.11-.03.21-.09.3-.15.09-.07.16-.15.21-.26.05-.1.08-.22.08-.35,0-.27-.09-.47-.25-.6-.17-.13-.38-.2-.63-.2-.16,0-.3.03-.42.09-.12.06-.22.14-.29.24-.08.1-.14.21-.17.34-.04.13-.06.27-.06.41h-.6c0-.24.05-.45.12-.65.07-.2.17-.36.29-.5.13-.14.28-.25.47-.33.19-.08.41-.12.65-.12.21,0,.41.03.6.08.18.05.34.13.48.24.13.11.24.25.32.41.08.17.11.37.11.6s-.07.42-.2.6-.29.3-.49.39h0c.3.08.53.22.68.44.15.22.22.48.22.78,0,.25-.05.47-.14.65-.09.19-.21.35-.37.47-.15.13-.34.22-.54.28-.21.06-.43.1-.66.1-.25,0-.48-.03-.69-.11-.21-.07-.38-.17-.52-.31-.15-.14-.26-.31-.33-.51s-.11-.43-.11-.69h.6c0,.32.1.59.28.79.18.2.44.31.78.31.15,0,.28-.02.41-.07.13-.04.25-.11.34-.19.1-.08.18-.18.24-.3.06-.12.09-.25.09-.4s-.03-.29-.08-.41-.13-.22-.22-.3c-.09-.08-.2-.14-.33-.18-.13-.04-.27-.06-.42-.06-.13,0-.25,0-.36.02v-.51s.04,0,.06,0"/>
  </g>
</svg>