<?xml version="1.0" encoding="UTF-8"?>
<svg id="Capa_1" data-name="Capa 1" xmlns="http://www.w3.org/2000/svg" xmlns:xlink="http://www.w3.org/1999/xlink" viewBox="0 0 148.73 97.98">
  <defs>
    <style>
      .cls-1 {
        clip-path: url(#clippath);
      }

      .cls-2 {
        fill: none;
      }

      .cls-2, .cls-3 {
        stroke-width: 0px;
      }

      .cls-4 {
        clip-path: url(#clippath-1);
      }

      .cls-5 {
        clip-path: url(#clippath-4);
      }

      .cls-6 {
        clip-path: url(#clippath-3);
      }

      .cls-7 {
        clip-path: url(#clippath-2);
      }

      .cls-8 {
        clip-path: url(#clippath-7);
      }

      .cls-9 {
        clip-path: url(#clippath-8);
      }

      .cls-10 {
        clip-path: url(#clippath-6);
      }

      .cls-11 {
        clip-path: url(#clippath-5);
      }

      .cls-12 {
        clip-path: url(#clippath-9);
      }

      .cls-3 {
        fill: #222221;
      }

      .cls-13 {
        clip-path: url(#clippath-14);
      }

      .cls-14 {
        clip-path: url(#clippath-13);
      }

      .cls-15 {
        clip-path: url(#clippath-12);
      }

      .cls-16 {
        clip-path: url(#clippath-10);
      }

      .cls-17 {
        clip-path: url(#clippath-11);
      }
    </style>
    <clipPath id="clippath">
      <rect class="cls-2" x="17.97" y="25.42" width="112.78" height="47.14"/>
    </clipPath>
    <clipPath id="clippath-1">
      <rect class="cls-2" x="17.97" y="25.42" width="112.78" height="47.14"/>
    </clipPath>
    <clipPath id="clippath-2">
      <rect class="cls-2" x="17.97" y="25.42" width="112.78" height="47.14"/>
    </clipPath>
    <clipPath id="clippath-3">
      <rect class="cls-2" x="17.97" y="25.42" width="112.78" height="47.14"/>
    </clipPath>
    <clipPath id="clippath-4">
      <rect class="cls-2" x="17.97" y="25.42" width="112.78" height="47.14"/>
    </clipPath>
    <clipPath id="clippath-5">
      <rect class="cls-2" x="17.97" y="25.42" width="112.78" height="47.14"/>
    </clipPath>
    <clipPath id="clippath-6">
      <rect class="cls-2" x="17.97" y="25.42" width="112.78" height="47.14"/>
    </clipPath>
    <clipPath id="clippath-7">
      <rect class="cls-2" x="17.97" y="25.42" width="112.78" height="47.14"/>
    </clipPath>
    <clipPath id="clippath-8">
      <rect class="cls-2" x="17.97" y="25.42" width="112.78" height="47.14"/>
    </clipPath>
    <clipPath id="clippath-9">
      <rect class="cls-2" x="17.97" y="25.42" width="112.78" height="47.14"/>
    </clipPath>
    <clipPath id="clippath-10">
      <rect class="cls-2" x="17.97" y="25.42" width="112.78" height="47.14"/>
    </clipPath>
    <clipPath id="clippath-11">
      <rect class="cls-2" x="17.97" y="25.42" width="112.78" height="47.14"/>
    </clipPath>
    <clipPath id="clippath-12">
      <rect class="cls-2" x="17.97" y="25.42" width="112.78" height="47.14"/>
    </clipPath>
    <clipPath id="clippath-13">
      <rect class="cls-2" x="17.97" y="25.42" width="112.78" height="47.14"/>
    </clipPath>
    <clipPath id="clippath-14">
      <rect class="cls-2" x="17.97" y="25.42" width="112.78" height="47.14"/>
    </clipPath>
  </defs>
  <g class="cls-1">
    <path class="cls-3" d="M59.78,48.67c-.42.65-1.22,1.1-2.18,1.1-1.44,0-2.67-.97-2.67-2.57,0-1.39,1.06-2.55,2.67-2.54.79,0,1.35.27,1.73.5-.48-.18-2.14-.5-2.96.59-.33.43-.45.99-.45,1.45,0,1.29.84,2.14,1.69,2.14.72,0,1.38-.52,1.57-1.52.13-.68-.15-1.3-.39-1.58-.24-.29-.81-.58-1.31-.17-.29.24-.27.52-.19.71.14.3.5.29.5.29-.63.13-.89-.36-.82-.74.07-.37.51-.96.51-.96l1.37.02,1.09,1.02s.09.23.16.5c.15.62-.03,1.31-.31,1.75"/>
    <path class="cls-3" d="M62.91,46c0-.37-.28-.86-.8-.86h-.52v1.82h.53c.52,0,.8-.5.8-.97M63.24,49.63l.25-.27-1.38-1.98h-.52v1.98l.25.27h-1.42l.25-.27v-4.37l-.25-.26h2.07c.75,0,1.53.6,1.36,1.52h.25s-.43.48-.45.5l.17.12h0l-.95.43.3.11,1.37,1.95.25.27h-1.53Z"/>
  </g>
  <polygon class="cls-3" points="67.76 49.22 65.99 49.22 66.18 49.02 66.18 44.99 66.43 44.73 65 44.73 65.24 44.99 65.24 49.36 64.99 49.63 68.12 49.63 68.22 48.65 67.76 49.22"/>
  <g class="cls-4">
    <path class="cls-3" d="M72.29,47.15c0-1.01-.47-2.02-1.41-2.02h-1.24v3.88l-.19.2h1.06c.95,0,1.79-.85,1.79-2.07M73.27,47.13c0,1.8-1.49,2.5-2.31,2.5h-2.51l.25-.27v-2.82l-.3-.62.31.13-.46-.9.49.04-.4-.46h2.81c1.25,0,2.12.97,2.12,2.4"/>
    <path class="cls-3" d="M60.81,36.85c.5,0,.91.38.97.86h0s0,0,0,0c.02.17.02.35.02.35h11.55v-.12l-.47-.33s-10.55,0-10.65,0c-.11-.69-.71-1.23-1.43-1.23h0c-.72,0-1.32.54-1.43,1.23-.1,0-10.65,0-10.65,0l-.47.33v.12h11.55s0-.18.02-.35h0s0,0,0,0c.06-.49.47-.86.97-.86h0Z"/>
    <path class="cls-3" d="M60.5,27.5c0,.07.08.12.12.14l.02.87-.09.09s-.05.06-.05.1c0,.03,0,.05,0,.08,0,.13.06.26.16.37,0,0,0,.01.01.01v.15c0,.21.01.43.03.65l.02.4c-.1.15-.14.28-.11.39.02.08.08.13.11.15v.03c-.03.23-.03.45,0,.66v.59c-.11.14-.11.24-.1.34,0,.11.03.19.08.23,0,.08.02.16.04.25v.05s-.01,1.13-.01,1.13c-.12.31-.03.5.02.57,0,.21.03.99.03,1,0,.02.02.09.08.09.06,0,.1-.04.11-.11.01-.28.05-.82.04-.98.05-.07.15-.26.03-.57v-.15c0-.08,0-.16,0-.26v-.31c0-.08,0-.15,0-.23v-.25c0-.07,0-.14.01-.21.04-.03.08-.11.09-.22.02-.11.01-.24-.09-.37v-.08c0-.06,0-.12,0-.18l-.02-1.02s.09-.08.11-.17c.02-.11-.02-.24-.12-.37v-1.19c.12-.14.18-.3.17-.47,0-.04-.02-.07-.05-.1l-.09-.09h0c0-.14.01-.28.01-.42v-.45c.06-.02.13-.07.13-.14,0-.03.01-.13.04-.27.02-.11-.04-.21-.15-.25l-.03-.55s.15-.14.13-.3c-.02-.13-.11-.2-.17-.23l.15-.25h0s0-.19-.1-.21c-.07-.02-.15-.03-.22-.03h-.03s-.08,0-.12.02h0s-.03,0-.03.01c-.1.03-.1.18-.1.2h0s.15.26.15.26c-.06.03-.15.1-.17.23-.02.15.08.26.13.3l-.03.55c-.11.04-.16.13-.15.25.02.14.03.24.04.27"/>
    <path class="cls-3" d="M56.89,26.69s.09.04.12.05l.07.04v.02s.03.09.05.12c0,.01.03.07.05.17,0,0,0,.01,0,.02l.11.19.02.07h.01s0,.01.01.02c-.01.01-.02.03-.02.05,0,.05.04.11.08.15.06.17.1.28.1.31,0,.02-.01.06.02.18.01.04.03.11.04.14,0,.05.03.13.06.21l.04.13s.03.09.03.12c0,.02,0,.08.02.29,0,.02.01.04.03.06l.08.07s.04.04.05.06c.01.01.03.03.06.05l.21.62c.13.41.27.88.42,1.34.05.14.09.28.14.42.15.48.31.98.51,1.44l.92,2.77c.02.06.08.09.14.07.01,0,.01,0,.02-.01.04-.03.05-.07.04-.12l-.78-2.61c-.02-.11-.05-.23-.1-.36l-.02-.04v-.05c-.02-.11-.03-.23-.07-.35-.05-.14-.11-.28-.17-.4l-.06-.2c-.08-.33-.18-.68-.31-1.07-.04-.11-.07-.19-.1-.27l-.42-1.39s.04-.02.05-.04c.01-.02.01-.05,0-.07l-.11-.35s-.01-.03-.03-.04l-.07-.06v-.04s-.01-.05-.01-.05c0-.01,0-.02,0-.03l-.16-.4.02-.07s0-.04,0-.06l-.02-.06s-.02-.04-.04-.05l-.06-.06h0s-.04-.13-.04-.13l-.07-.27-.18-.48c.05-.18.04-.2.04-.22,0-.01,0-.04,0-.07,0-.03,0-.06,0-.08,0-.02,0-.07,0-.14,0-.04-.03-.07-.06-.09l-.08-.02-.09-.03-.07-.02s-.03,0-.05,0l-.08.03c-.08,0-.12.03-.12.07,0,0-.02.03-.04.06l-.09.03h0s-.09.06-.1.11c0,.04,0,.13,0,.16,0,.05,0,.11.06.13"/>
    <path class="cls-3" d="M49.2,34.84s.04.05.05.06c.04.04.18.12.22.14.05.04.11.05.16.06.03,0,.06.02.1.04.06.02.12.05.16.05,0,0,.02,0,.03,0,.05,0,.12.02.17-.02.02-.02.06-.08.06-.1,0-.02-.09.02-.19-.08-.02-.02-.12-.11-.13-.13,0-.02.07-.16.09-.16.02,0,.1.03.1.03.09.03.19.09.27.15.18.17.42.17.43.17.7-.06,1.41.33,1.48.4.1.1.19.07.19.07h0s0-.01,0-.01c.14-.14.39-.09.39-.09l1.7.49c.16.06.3.1.43.12l3.81,1.11s.02,0,.03,0c.04,0,.07-.02.09-.06.01-.03.01-.06,0-.09-.01-.03-.04-.05-.06-.06-.24-.08-1.07-.36-2.1-.7-.13-.06-.27-.12-.39-.16-.1-.03-.22-.06-.36-.08-2.01-.65-3.13-1.02-3.26-1.07-.1-.04-.11-.07-.11-.07,0-.02.04-.06.06-.07.03-.02.05-.03.04-.07v-.03s-.03-.01-.03-.01c-.05-.03-.25-.04-.54-.03-.37.01-1.65-.16-1.88-.49-.05-.07-.11-.14-.17-.19-.05-.04-.09-.09-.13-.14-.14-.19-.42-.25-.51.04-.06.22-.34.23-.4.46-.03.1.07.16.11.25.02.08,0,.18.06.25"/>
    <path class="cls-3" d="M70.32,34.58c-.23.07-.48.15-.72.22-.07.02-.16.02-.25.02h-.02s-.04-.01-.07-.03c-.01,0-.03-.01-.04-.02h-.03s-.05.06-.05.06l.03.03s0,0,.01.01c0,0,.01.01.01.02,0,0,.01.02.02.03-.01,0-.02.01-.03.01-.03,0-.05.01-.08.02-.04,0-.07.02-.11.03-.07.03-.14.05-.2.08-.06.03-.12.05-.19.07-.07.03-.15.05-.24.08-.23.07-.47.13-.7.2-.03,0-.06.02-.1.02-.02,0-.04.01-.07.01-.03,0-.07.02-.1.03-.06.02-.12.03-.18.05-.13.03-.23.06-.34.1-.07.02-.14.05-.21.07-.15.04-.3.11-.44.17l-.08.03c-.13.06-.27.12-.4.17-.09.04-.17.07-.26.11-.11.05-.24.09-.36.12-.1.03-.19.06-.28.09-.18.07-.36.12-.55.18-.1.03-.19.07-.29.1-.07.02-.13.04-.2.06-.13.04-.26.08-.38.11-.04.01-.08.03-.12.04-.07.02-.12.04-.18.05-.06.02-.13.04-.19.05-.07.02-.04,0-.1.02-.06.02-.11.03-.1.09,0,.02.03.05.1.05,0,0,.14,0,.22-.02.2-.04.39-.09.61-.14.09-.02.21-.09.3-.11.09-.02.16-.03.25-.05.07-.01.16-.04.23-.06.12-.03.21-.08.31-.11.16-.04.32-.05.45-.13.13-.07.26-.08.4-.13.04-.01.07-.03.11-.04.02,0,.03-.01.05-.02.06-.02.11-.05.16-.07.12-.05.22-.1.35-.13.06-.01.11-.03.16-.05.09-.03.18-.06.28-.06.03,0,.07,0,.1-.01h.02c.13-.03.24-.06.35-.1.11-.03.22-.07.34-.09l.14-.03c.15-.03.3-.06.45-.09.08-.02.17-.05.25-.07.04-.01.09-.03.13-.04.03,0,.05-.01.08-.02.04-.01.09-.02.13-.04.14-.05.28-.11.42-.17h.02s.1-.05.12-.09c.03-.05.06-.06.13-.06.07,0,.13-.01.2-.02.19-.01.39-.03.58-.05.14-.02.29-.05.44-.1.11-.03.22-.07.33-.11.13-.05.28-.09.41-.13.18-.05.57-.13.75-.18.11-.02.22-.05.33-.07.07-.02.16-.07.15-.13,0-.03-.02-.08-.05-.1-.05-.04-.07-.09-.07-.16,0-.04-.04-.1-.09-.11h-.02c-.07-.01-.15-.02-.22,0-.09.02-.39.09-.48.1-.14.03-.28.05-.42.11-.17.07-.35.12-.52.17-.07.02-.13.04-.2.06l-.2.06Z"/>
    <path class="cls-3" d="M69.78,30.95l-.79.66s-.06.01-.09.03c-.03.02-.04.06-.05.08-.25.18-5.73,4.23-6.4,4.74-.04.03-.05.08-.02.12.03.04.09.06.13.03.73-.52,6.17-4.39,6.49-4.62.04.02.09,0,.1-.02.02-.01.05-.05.05-.06.05-.03.17-.09.26-.14.09-.05.72-.44.84-.5.3-.1.59-.3.42-.65-.08-.16-.28-.23-.45-.18-.26.08-.24.35-.24.38-.06.03-.13,0-.18.01-.01,0-.02,0-.02.02,0,0,0,.02,0,.03,0,.03-.02.06-.05.08"/>
    <path class="cls-3" d="M51.24,31.23c.11.02.19.06.27.12.07.07.25.13.33.19.07.06.22.15.3.17.07.02.15.07.18.12.03.05.15.06.15.06,0,0,.06.07.1.09.04.03.27.14.35.22.08.08.33.2.5.34.16.14.28.22.38.26.09.05.25.17.34.25.09.07.23.16.32.23.09.08.28.19.42.28.14.09.33.25.44.32.12.07.37.23.47.31s.41.31.57.41c.16.1.34.23.48.34.14.12.57.39.94.64.38.25,1.2.83,1.31.9.11.07.17.02.18,0,0-.03.02-.06-.06-.14-.08-.08-.52-.39-.7-.52-.19-.13-.71-.54-.85-.64-.14-.1-1.06-.77-1.27-.92-.21-.15-.5-.35-.65-.46-.15-.11-.36-.25-.54-.36s-.29-.25-.54-.41c-.25-.16-.35-.29-.57-.41-.22-.12-.31-.22-.42-.32-.11-.1-.3-.16-.39-.27-.09-.11-.28-.18-.28-.18-.02-.06-.2-.16-.25-.19-.05-.03-.44-.43-.61-.57-.17-.13-.32-.19-.39-.24-.07-.04-.11-.14-.29-.33-.16-.16-.42-.06-.52.06-.11.13-.1.24-.04.41.06.16.25.21.36.24"/>
    <path class="cls-3" d="M61.44,35.91s.01,0,.02.01c.01,0,.04.02.08,0,.04-.02.08-.07.1-.14.03-.11.08-.27.13-.44.04-.13.08-.27.12-.4.11-.36.42-1.21.59-1.66.06-.16.1-.27.11-.3,0-.03.01-.04.02-.06,0-.04.02-.09.07-.22.01-.03.03-.07.04-.13.1-.29.32-.91.42-1.29,0-.03.02-.07.04-.11.02-.04.04-.09.04-.13,0-.04.02-.07.03-.1.01-.04.03-.09.04-.16,0-.02.01-.04.03-.07.02-.05.05-.12.1-.25.05-.15.18-.54.27-.79.04-.13.08-.24.08-.25,0-.01.02-.05.04-.1.03-.08.09-.2.16-.36.12-.28.33-.84.49-1.25.06-.14.11-.28.16-.4.1-.24.18-.44.22-.61.07-.26-.15-.47-.25-.49-.1-.03-.12.03-.14.07h0c-.08.19-.15.49-.21.73-.04.15-.07.28-.09.36-.21.6-.3.87-.4,1.18-.04.12-.08.24-.12.39-.08.24-.23.68-.38,1.16-.2.61-.41,1.23-.49,1.47-.08.27-.45,1.37-.71,2.17-.16.5-.29.89-.31.95-.05.15-.25.82-.29.99-.03.11-.05.19.01.23"/>
    <path class="cls-3" d="M68.2,28.13l-.57-.41s-.08-.02-.11,0c-.03.03-.05.07-.04.12v.07c.02.06,0,.12-.03.17l-1.34,2s0,0,0,.01l-.03.12s-.01.02-.03.03l-.14.06s-.07.06-.07.1c0,.02,0,.05.01.07,0,.01.01.02.02.03-1.18,1.61-3.89,5.4-3.93,5.45-.05.06-.11.16-.03.21.08.05.17-.09.17-.09.96-1.22,3.48-4.61,4.06-5.38,0,0,.02,0,.03,0h0s.05,0,.07,0c.04-.02.07-.06.08-.1l.02-.15s0-.03.02-.03l.1-.07s0,0,.01-.01l1.44-1.93s.09-.08.15-.09h.07s.08-.05.1-.09c.01-.04,0-.08-.03-.1"/>
    <path class="cls-3" d="M54.21,44.73l.23.27-1,2.92-1-2.92.27-.26h-1.48l.24.27-.8,2.82-1.06-2.82.22-.27h-1.46l.26.27,1.83,4.84.26-.28,1.03-3.76,1.38,4.04.25-.27c.34-.98,1.57-4.58,1.57-4.58l.3-.27h-1.05Z"/>
  </g>
  <polygon class="cls-3" points="51.65 39.4 50.42 39.4 50.66 39.66 50.66 43.13 50.42 43.39 51.65 43.39 51.4 43.13 51.4 39.66 51.65 39.4"/>
  <polygon class="cls-3" points="68.14 39.4 66.92 39.4 67.16 39.66 67.16 43.13 66.91 43.39 68.14 43.39 67.9 43.13 67.9 39.66 68.14 39.4"/>
  <g class="cls-7">
    <polygon class="cls-3" points="55.02 39.94 55.02 39.4 52.25 39.4 52.11 40.35 52.63 39.8 54.25 39.8 52.13 42.84 52.13 43.39 55.02 43.39 55.12 42.52 54.67 42.99 52.94 42.99 54.25 41.08 54.81 40.71 54.61 40.59 55.34 40.13 55.02 39.94"/>
    <path class="cls-3" d="M61.16,41.26c.37,0,.66-.4.66-.78,0-.23-.14-.68-.65-.68h-.55v1.46h.55ZM65.71,43.24s-.15,1.14-1.56,1.14c-.94,0-1.64-.39-2.09-.94-.66-.79-.92-1.78-.92-1.78h-.52v1.47l.24.26h-1.23l.24-.26v-3.47l-.24-.26h1.79c.17,0,.35.04.51.12.39.18.64.54.64.94,0,.81-.8,1.11-.8,1.11l.29.1s.23.81.69,1.48c.29.43.76.85,1.57.85.6,0,.9-.28.96-.43l-.16-.17-.48.27.22-.44h.84Z"/>
    <path class="cls-3" d="M72.1,39.66l.24-.26h-.96l.24.26v2.68l-2.1-2.94h-.96l.24.26s0,3.47,0,3.47l-.24.26h.95l-.24-.26v-2.77l2.15,3.03h.92l-.24-.26v-3.47Z"/>
  </g>
  <path class="cls-3" d="M57.93,41.91l-.61-1.68-.74,1.68h1.35ZM59.41,43.39h-1.27l.24-.26-.24-.66.18-.17h-1.92l-.36.83.24.26h-1.02l.24-.26.41-.92-.32-.31h.46l1-2.25-.24-.26h1.34l-.24.26,1.27,3.47.24.26Z"/>
  <g class="cls-6">
    <path class="cls-3" d="M65.71,41.08c0-.47-.16-1.28-.97-1.28h-.61v2.47l-.19.2h.74c.75,0,1.03-.75,1.03-1.39M66.52,41.09c0,.96-.59,1.78-1.49,1.78h-1.85l.21-.26v-2.95l-.24-.25h1.8c1.21,0,1.57.87,1.57,1.68"/>
  </g>
  <polygon class="cls-3" points="49.18 39.4 49.42 39.66 48.65 41.95 47.76 39.66 48.01 39.4 46.69 39.4 46.93 39.66 46.2 42.13 45.77 41.13 46.08 41.26 45.5 40.14 45.86 40.29 45.44 39.4 44.19 39.4 44.92 40.67 44.53 40.51 45.45 41.94 45.06 41.78 46.1 43.71 46.3 43.43 47.25 40.35 48.51 43.65 48.71 43.37 49.94 39.66 50.19 39.4 49.18 39.4"/>
  <g class="cls-5">
    <path class="cls-3" d="M76.82,41.1h-1.4c-.38,0-.77.03-.91.35-.01.03-.03.11-.03.11l.41.39.19-.45h.8l-.19.21v1.23c-.18.08-.49.13-.74.13-.74,0-1.54-.64-1.54-1.67,0-.82.54-1.7,1.54-1.7.47,0,.87.19,1.04.35.19.18.36.44.36.44l.32-1.05-.46.17s-.64-.31-1.25-.31c-1.38,0-2.34.86-2.34,2.1,0,.58.2,1.1.58,1.51.47.5,1.14.57,1.73.57.83,0,1.5-.35,1.5-.35v-1.18l.36-.41-.32-.06.36-.38Z"/>
    <path class="cls-3" d="M59.77,35.9s-1.59-2.21-2.59-3.62c-.02-.05-.04-.09-.07-.13-.08-.12-.17-.25-.29-.36-.08-.11-.17-.23-.2-.27,0,0,0,0,0-.01-.02-.04-.08-.12-.11-.15,0,0-.01-.01-.01-.02-.02-.06-.05-.12-.09-.17-.01-.03-.07-.11-.09-.13h0s-.3-.42-.3-.42l.02-.07h0s-.08-.16-.12-.18h0s-.06,0-.06,0l-.08-.11v-.06s.01,0,.01,0c0-.01,0-.03-.01-.04-.01-.02-.03-.06-.05-.08-.01-.02-.04-.03-.06-.04h-.05s-.16-.23-.16-.23v-.09s0,0,0,0c0-.01-.09-.13-.1-.14l-.1-.03-.12-.17h0s.04-.08.02-.11c-.03-.04-.06-.11-.09-.16-.02-.04-.07-.06-.13-.06h-.03s-.49-.69-.49-.69l-.02-.06s-.02-.05-.05-.07l-.1-.08-.25-.37s-.04-.03-.06-.04c-.03,0-.05,0-.07.02l-.23.17s-.05.09-.02.13l.15.21.02.11s.03.06.06.08l.1.04.44.59v.05s0,0,0,.01c0,.01,0,.03,0,.05.02.04.05.08.07.11,0,0,.01.01.03.02l.11.06.21.28.05.09h0s.07.09.07.09l.14.19v.05s0,.05.02.08c.02.03.05.06.07.09.02.02.04.03.07.04h.04s.09.13.09.13v.05s-.01,0-.01,0c0,.02.06.1.07.11h0s.05,0,.05,0l.14.19v.1s0,0,0,0c.01.04.08.11.11.13h.07s.14.19.14.19c0,.01,0,.02,0,.04,0,.03.03.07.05.1.03.04.07.07.11.1l.11.15c.02.05.03.1.09.13,0,0,.01,0,.02,0,.19.26.5.67.51.68,0,.01.16.22.4.53.06.13.13.22.21.28.35.47,2.1,2.78,2.15,2.85.03.04.07.06.11.06.04,0,.07-.03.07-.03,0,0,.08-.08,0-.18"/>
  </g>
  <polygon class="cls-3" points="72.84 49.22 72.84 49.28 72.97 49.28 72.97 49.63 73.03 49.63 73.03 49.28 73.16 49.28 73.16 49.22 72.84 49.22"/>
  <g class="cls-11">
    <path class="cls-3" d="M73.24,49.22h.07l.14.34.14-.34h.07v.41h-.06v-.28s-.02.06-.02.06l-.09.22h-.06l-.09-.22s-.02-.05-.02-.06v.28h-.06v-.41Z"/>
    <path class="cls-3" d="M32.6,32.02c0-1.02-1.17-1.86-2.73-1.96v5.33c1.96-1.15,2.73-2.29,2.73-3.36M34.76,36.68c0-1.12-.43-1.96-1.55-2.27.56-.61.89-1.45.89-2.32,0-2.06-2.19-3.49-5.6-3.72-.05,0-.08.02-.08.08v17.91c0,.05.05.08.1.03,4.79-4.43,6.24-7.72,6.24-9.71M26.99,28.45c0-.05-.03-.08-.08-.08-.46.05-.84.13-1.27.23-.1.03-.13.08-.13.18l.05,9.15c0,1.15,0,2.09.05,3.16,0,.08-.08.1-.1.03-.94-2.93-1.38-6.6-1.3-11.9,0-.1-.03-.13-.15-.08-.43.18-.94.46-1.22.64-.08.05-.1.1-.1.23-.08,3.64.23,6.8.76,9.17l-.28.18c-.1.08-.18.08-.25-.08-.89-1.99-1.45-5.02-1.45-8.28,0-.13-.08-.18-.15-.1-.38.36-.79.76-1.12,1.17-.1.13-.13.2-.13.33.08,2.65.92,6.42,2.22,8.71.15.28.36.36.61.18l.97-.61c.64,2.14,1.58,4.1,2.98,5.71.05.05.1.03.1-.03v-17.91ZM37.44,32.23c0,7.34-3.82,13.71-9.53,17.51-.08.05-.15.1-.2.1s-.13-.05-.2-.1c-5.71-3.8-9.53-10.17-9.53-17.51,0-.84.08-1.68.23-2.47.03-.1.05-.14.1-.15l1.83-.48.25-1.04c.01-.05.03-.09.08-.1l1.88-.51.23-.99c.01-.08.05-.12.1-.13l4.9-.91c.08-.01.16-.01.24,0l4.9.91c.05.01.09.05.1.13l.23.99,1.89.51s.06.05.08.1l.25,1.04,1.83.48c.05.01.08.05.1.15.15.79.23,1.63.23,2.47M33.21,36.96c0,1.02-.74,3.01-3.34,5.91v-5.76c1.5-1.07,1.99-1.27,2.52-1.27.48,0,.82.41.82,1.12"/>
    <path class="cls-3" d="M18.84,59.3l-.87-3.42h.47l.41,1.73c.1.43.19.85.25,1.18h.01c.06-.34.16-.75.28-1.19l.46-1.73h.46l.42,1.74c.1.41.19.81.24,1.17h.01c.07-.38.17-.76.27-1.18l.45-1.73h.45l-.97,3.42h-.46l-.43-1.78c-.11-.44-.18-.77-.22-1.12h-.01c-.06.34-.14.68-.26,1.12l-.49,1.78h-.46Z"/>
  </g>
  <rect class="cls-3" x="22.58" y="55.88" width=".44" height="3.42"/>
  <polygon class="cls-3" points="23.56 59.04 25.46 56.26 25.46 56.25 23.73 56.25 23.73 55.88 26.04 55.88 26.04 56.14 24.15 58.91 24.15 58.93 26.06 58.93 26.06 59.3 23.56 59.3 23.56 59.04"/>
  <g class="cls-10">
    <path class="cls-3" d="M28.28,57.88l-.34-.98c-.08-.22-.13-.43-.18-.63h-.01c-.05.2-.11.41-.17.62l-.34.99h1.03ZM27.16,58.22l-.36,1.08h-.46l1.16-3.42h.53l1.17,3.42h-.47l-.37-1.08h-1.21Z"/>
    <path class="cls-3" d="M30.16,57.48h.45c.47,0,.77-.26.77-.65,0-.44-.32-.63-.79-.64-.21,0-.37.02-.44.04v1.25ZM29.72,55.92c.22-.05.54-.07.85-.07.47,0,.78.09.99.28.17.15.27.39.27.65,0,.45-.28.75-.64.87h0c.26.11.42.35.5.71.11.48.19.81.26.94h-.46c-.06-.1-.13-.39-.23-.82-.1-.47-.28-.65-.69-.67h-.42v1.48h-.44v-3.38Z"/>
    <path class="cls-3" d="M32.89,58.95c.11.02.27.03.45.03.94,0,1.46-.53,1.46-1.45,0-.81-.45-1.32-1.39-1.32-.23,0-.4.02-.52.05v2.7ZM32.45,55.92c.27-.04.59-.07.94-.07.64,0,1.09.15,1.39.43.3.28.48.68.48,1.23s-.17,1.02-.49,1.33c-.32.32-.85.49-1.51.49-.31,0-.58-.02-.8-.04v-3.37Z"/>
  </g>
  <rect class="cls-3" x="35.84" y="55.88" width=".44" height="3.42"/>
  <g class="cls-8">
    <path class="cls-3" d="M37.05,59.3v-3.42h.48l1.1,1.73c.25.4.45.76.61,1.11h.01c-.04-.46-.05-.88-.05-1.41v-1.43h.42v3.42h-.45l-1.09-1.74c-.24-.38-.47-.77-.64-1.14h-.01c.02.44.03.85.03,1.42v1.46h-.42Z"/>
    <path class="cls-3" d="M43,59.15c-.2.07-.59.19-1.05.19-.52,0-.94-.13-1.28-.45-.29-.28-.48-.74-.48-1.28,0-1.02.71-1.77,1.85-1.77.4,0,.71.09.85.16l-.11.36c-.18-.08-.41-.15-.76-.15-.83,0-1.38.52-1.38,1.38s.52,1.38,1.32,1.38c.29,0,.49-.04.59-.09v-1.02h-.7v-.36h1.13v1.65Z"/>
    <path class="cls-3" d="M45.13,59.3l-.87-3.42h.47l.41,1.73c.1.43.19.85.25,1.18h.01c.06-.34.16-.75.28-1.19l.46-1.73h.46l.42,1.74c.1.41.19.81.24,1.17h.01c.07-.38.17-.76.27-1.18l.45-1.73h.45l-.97,3.42h-.46l-.43-1.78c-.11-.44-.18-.77-.22-1.12h-.01c-.06.34-.14.68-.26,1.12l-.49,1.78h-.46Z"/>
    <path class="cls-3" d="M49.15,57.61c0,.73.4,1.39,1.09,1.39s1.1-.64,1.1-1.42c0-.68-.36-1.39-1.09-1.39s-1.1.68-1.1,1.43M51.8,57.55c0,1.18-.72,1.8-1.59,1.8s-1.54-.7-1.54-1.74.67-1.8,1.59-1.8,1.54.72,1.54,1.73"/>
    <path class="cls-3" d="M52.82,57.48h.45c.47,0,.77-.26.77-.65,0-.44-.32-.63-.79-.64-.21,0-.37.02-.44.04v1.25ZM52.38,55.92c.22-.05.54-.07.85-.07.47,0,.78.09.99.28.17.15.27.39.27.65,0,.45-.28.75-.64.87h0c.26.11.42.35.5.71.11.48.19.81.26.94h-.46c-.06-.1-.13-.39-.23-.82-.1-.47-.28-.65-.69-.67h-.42v1.48h-.44v-3.38Z"/>
  </g>
  <polygon class="cls-3" points="55.11 55.88 55.55 55.88 55.55 58.93 57.02 58.93 57.02 59.3 55.11 59.3 55.11 55.88"/>
  <g class="cls-9">
    <path class="cls-3" d="M57.95,58.95c.11.02.27.03.45.03.95,0,1.46-.53,1.46-1.45,0-.81-.45-1.32-1.39-1.32-.23,0-.4.02-.52.05v2.7ZM57.51,55.92c.27-.04.59-.07.94-.07.63,0,1.09.15,1.39.43.31.28.48.68.48,1.23s-.17,1.02-.49,1.33c-.32.32-.85.49-1.51.49-.31,0-.58-.02-.8-.04v-3.37Z"/>
    <path class="cls-3" d="M63.71,59.21c-.12.06-.38.14-.71.14-.74,0-1.22-.5-1.22-1.25s.52-1.31,1.32-1.31c.26,0,.5.07.62.13l-.1.34c-.11-.06-.27-.12-.52-.12-.56,0-.87.42-.87.93,0,.57.37.92.85.92.25,0,.42-.07.55-.12l.08.33Z"/>
    <path class="cls-3" d="M64.24,55.69h.45v1.53h.01c.07-.13.18-.24.32-.31.13-.08.29-.13.46-.13.33,0,.86.2.86,1.05v1.46h-.45v-1.41c0-.4-.15-.73-.57-.73-.29,0-.52.2-.6.45-.03.06-.03.13-.03.21v1.48h-.45v-3.61Z"/>
    <path class="cls-3" d="M68.35,58.04c-.49-.01-1.04.08-1.04.55,0,.29.19.43.42.43.32,0,.52-.2.59-.41.02-.04.03-.1.03-.14v-.43ZM68.42,59.3l-.04-.31h-.01c-.14.19-.4.37-.75.37-.5,0-.75-.35-.75-.71,0-.59.53-.92,1.48-.91v-.05c0-.2-.06-.57-.56-.57-.23,0-.47.07-.64.18l-.1-.29c.2-.13.5-.22.81-.22.75,0,.93.51.93,1.01v.92c0,.21.01.42.04.59h-.41Z"/>
    <path class="cls-3" d="M69.51,57.61c0-.29,0-.54-.02-.77h.39v.48h.03c.11-.33.38-.54.68-.54.05,0,.09,0,.13.01v.42s-.09-.01-.15-.01c-.31,0-.54.24-.6.57-.01.06-.02.13-.02.21v1.31h-.44v-1.69Z"/>
    <path class="cls-3" d="M72.44,58.04c-.49-.01-1.04.08-1.04.55,0,.29.19.43.42.43.32,0,.52-.2.59-.41.02-.04.03-.1.03-.14v-.43ZM72.51,59.3l-.04-.31h-.01c-.14.19-.4.37-.75.37-.5,0-.75-.35-.75-.71,0-.59.53-.92,1.48-.91v-.05c0-.2-.06-.57-.56-.57-.23,0-.47.07-.64.18l-.1-.29c.2-.13.5-.22.81-.22.75,0,.93.51.93,1.01v.92c0,.21.01.42.04.59h-.41Z"/>
    <path class="cls-3" d="M75.35,59.21c-.12.06-.38.14-.71.14-.74,0-1.22-.5-1.22-1.25s.52-1.31,1.32-1.31c.26,0,.5.07.62.13l-.1.34c-.11-.06-.27-.12-.52-.12-.56,0-.87.42-.87.93,0,.57.37.92.85.92.25,0,.42-.07.55-.12l.08.33Z"/>
    <path class="cls-3" d="M76.47,56.13v.71h.64v.34h-.64v1.33c0,.31.09.48.34.48.12,0,.2-.01.26-.03l.02.33c-.09.04-.22.06-.4.06-.21,0-.37-.07-.48-.19-.13-.13-.17-.35-.17-.64v-1.34h-.38v-.34h.38v-.59l.44-.12Z"/>
    <path class="cls-3" d="M79.15,57.83c0-.28-.12-.73-.62-.73-.45,0-.65.42-.69.73h1.31ZM77.84,58.15c.01.6.4.85.84.85.32,0,.51-.06.68-.13l.08.32c-.16.07-.43.15-.82.15-.76,0-1.21-.5-1.21-1.24s.44-1.33,1.15-1.33c.8,0,1.02.71,1.02,1.16,0,.09-.01.16-.01.21h-1.73Z"/>
    <path class="cls-3" d="M80.14,57.61c0-.29,0-.54-.02-.77h.39v.48h.03c.11-.33.38-.54.68-.54.05,0,.09,0,.13.01v.42s-.09-.01-.15-.01c-.31,0-.54.24-.6.57-.01.06-.02.13-.02.21v1.31h-.44v-1.69Z"/>
    <path class="cls-3" d="M81.74,58.84c.13.09.37.18.59.18.33,0,.48-.16.48-.37,0-.21-.13-.33-.46-.45-.44-.16-.65-.4-.65-.7,0-.4.32-.72.85-.72.25,0,.47.07.6.15l-.11.33c-.1-.06-.27-.14-.5-.14-.26,0-.41.15-.41.34,0,.2.15.29.47.42.43.16.64.38.64.74,0,.43-.33.74-.92.74-.27,0-.52-.07-.69-.17l.11-.34Z"/>
    <path class="cls-3" d="M83.46,59.92c.11-.3.25-.84.31-1.21l.5-.05c-.12.43-.34,1-.48,1.24l-.32.03Z"/>
    <path class="cls-3" d="M85.88,57.51c0-.25,0-.46-.02-.67h.4l.03.41h.01c.12-.23.41-.46.81-.46.34,0,.87.2.87,1.05v1.47h-.45v-1.42c0-.4-.15-.73-.57-.73-.3,0-.52.21-.6.46-.02.06-.03.13-.03.21v1.48h-.45v-1.79Z"/>
    <path class="cls-3" d="M90,58.04c-.49-.01-1.04.08-1.04.55,0,.29.19.43.42.43.32,0,.52-.2.59-.41.02-.04.03-.1.03-.14v-.43ZM90.07,59.3l-.04-.31h-.01c-.14.19-.4.37-.75.37-.5,0-.75-.35-.75-.71,0-.59.53-.92,1.48-.91v-.05c0-.2-.06-.57-.56-.57-.23,0-.47.07-.64.18l-.1-.29c.2-.13.5-.22.81-.22.75,0,.93.51.93,1.01v.92c0,.21.01.42.04.59h-.41Z"/>
    <path class="cls-3" d="M91.15,57.51c0-.25,0-.46-.02-.67h.39l.02.4h.01c.14-.23.37-.45.77-.45.34,0,.59.2.7.49h.01c.07-.14.17-.24.27-.32.15-.11.31-.17.54-.17.33,0,.81.21.81,1.07v1.45h-.44v-1.39c0-.47-.17-.76-.53-.76-.25,0-.45.19-.53.41-.02.06-.03.14-.03.22v1.52h-.44v-1.47c0-.39-.17-.68-.51-.68-.28,0-.48.22-.55.45-.03.07-.03.14-.03.22v1.48h-.44v-1.79Z"/>
    <path class="cls-3" d="M96.95,57.83c0-.28-.12-.73-.62-.73-.45,0-.65.42-.69.73h1.31ZM95.64,58.15c.01.6.4.85.84.85.32,0,.51-.06.68-.13l.08.32c-.16.07-.43.15-.82.15-.76,0-1.21-.5-1.21-1.24s.44-1.33,1.15-1.33c.8,0,1.02.71,1.02,1.16,0,.09-.01.16-.01.21h-1.73Z"/>
    <path class="cls-3" d="M97.88,58.84c.13.09.37.18.59.18.33,0,.48-.16.48-.37,0-.21-.13-.33-.46-.45-.44-.16-.65-.4-.65-.7,0-.4.32-.72.85-.72.25,0,.47.07.6.15l-.11.33c-.1-.06-.27-.14-.5-.14-.26,0-.41.15-.41.34,0,.2.15.29.47.42.43.16.64.38.64.74,0,.43-.33.74-.92.74-.27,0-.52-.07-.69-.17l.11-.34Z"/>
    <path class="cls-3" d="M102.33,58.04c-.49-.01-1.04.08-1.04.55,0,.29.19.43.42.43.32,0,.52-.2.6-.41.01-.04.03-.1.03-.14v-.43ZM102.39,59.3l-.04-.31h-.01c-.14.19-.4.37-.75.37-.5,0-.75-.35-.75-.71,0-.59.53-.92,1.48-.91v-.05c0-.2-.06-.57-.56-.57-.23,0-.47.07-.64.18l-.1-.29c.2-.13.5-.22.81-.22.75,0,.93.51.93,1.01v.92c0,.21.01.42.04.59h-.41Z"/>
    <path class="cls-3" d="M103.48,57.51c0-.25,0-.46-.02-.67h.4l.03.41h.01c.12-.23.41-.46.81-.46.34,0,.87.2.87,1.05v1.47h-.45v-1.42c0-.4-.15-.73-.57-.73-.29,0-.52.21-.6.46-.02.06-.03.13-.03.21v1.48h-.45v-1.79Z"/>
    <path class="cls-3" d="M107.98,57.84c0-.06,0-.13-.02-.19-.07-.28-.31-.52-.65-.52-.46,0-.74.41-.74.95,0,.5.24.91.73.91.3,0,.57-.2.66-.53.01-.06.02-.12.02-.19v-.43ZM108.43,55.69v2.97c0,.22,0,.47.02.64h-.4l-.02-.43h-.01c-.14.27-.44.48-.84.48-.59,0-1.05-.5-1.05-1.25,0-.82.5-1.32,1.1-1.32.38,0,.63.18.74.38h.01v-1.47h.45Z"/>
    <path class="cls-3" d="M110.25,57.61c0-.29,0-.54-.02-.77h.39l.02.48h.02c.11-.33.38-.54.68-.54.05,0,.09,0,.13.01v.42s-.09-.01-.15-.01c-.32,0-.54.24-.6.57-.01.06-.02.13-.02.21v1.31h-.44v-1.69Z"/>
    <path class="cls-3" d="M113.42,57.83c0-.28-.12-.73-.62-.73-.45,0-.65.42-.69.73h1.31ZM112.11,58.15c.01.6.4.85.84.85.32,0,.51-.06.68-.13l.08.32c-.16.07-.43.15-.82.15-.76,0-1.21-.5-1.21-1.24s.44-1.33,1.15-1.33c.8,0,1.02.71,1.02,1.16,0,.09-.01.16-.01.21h-1.73Z"/>
  </g>
  <rect class="cls-3" x="114.4" y="55.69" width=".45" height="3.61"/>
  <g class="cls-12">
    <path class="cls-3" d="M116.9,58.04c-.49-.01-1.04.08-1.04.55,0,.29.19.43.42.43.32,0,.52-.2.6-.41.01-.04.02-.1.02-.14v-.43ZM116.97,59.3l-.04-.31h-.01c-.14.19-.4.37-.75.37-.5,0-.75-.35-.75-.71,0-.59.53-.92,1.48-.91v-.05c0-.2-.06-.57-.56-.57-.23,0-.47.07-.64.18l-.1-.29c.2-.13.5-.22.81-.22.75,0,.93.51.93,1.01v.92c0,.21.01.42.04.59h-.41Z"/>
    <path class="cls-3" d="M118.57,56.13v.71h.64v.34h-.64v1.33c0,.31.09.48.34.48.12,0,.2-.01.26-.03l.02.33c-.09.04-.22.06-.4.06-.21,0-.38-.07-.48-.19-.13-.13-.17-.35-.17-.64v-1.34h-.38v-.34h.38v-.59l.44-.12Z"/>
    <path class="cls-3" d="M121.24,57.83c0-.28-.12-.73-.62-.73-.45,0-.65.42-.69.73h1.31ZM119.93,58.15c.01.6.4.85.84.85.32,0,.51-.06.68-.13l.08.32c-.16.07-.43.15-.82.15-.76,0-1.21-.5-1.21-1.24s.44-1.33,1.15-1.33c.8,0,1.02.71,1.02,1.16,0,.09-.01.16-.01.21h-1.73Z"/>
    <path class="cls-3" d="M123.91,57.84c0-.06,0-.13-.02-.19-.07-.28-.31-.52-.65-.52-.46,0-.74.41-.74.95,0,.5.24.91.73.91.3,0,.57-.2.66-.53.01-.06.02-.12.02-.19v-.43ZM124.36,55.69v2.97c0,.22,0,.47.02.64h-.4l-.02-.43h-.01c-.14.27-.44.48-.84.48-.59,0-1.05-.5-1.05-1.25,0-.82.5-1.32,1.1-1.32.38,0,.63.18.74.38h.01v-1.47h.45Z"/>
    <path class="cls-3" d="M18.27,62.94h.45v2.46h-.45v-2.46ZM18.76,62.25c0,.15-.11.27-.28.27-.16,0-.27-.12-.27-.27s.12-.28.28-.28.27.12.27.28"/>
    <path class="cls-3" d="M19.46,63.61c0-.25,0-.46-.02-.67h.4l.03.41h.01c.12-.23.41-.46.81-.46.34,0,.87.2.87,1.05v1.47h-.45v-1.42c0-.4-.15-.73-.57-.73-.3,0-.52.21-.6.46-.02.06-.03.13-.03.21v1.48h-.45v-1.79Z"/>
    <path class="cls-3" d="M23.95,63.94c0-.06,0-.13-.02-.19-.07-.28-.31-.52-.65-.52-.46,0-.74.41-.74.95,0,.5.24.91.73.91.3,0,.57-.2.66-.53.01-.06.02-.12.02-.19v-.43ZM24.4,61.79v2.97c0,.22,0,.47.02.64h-.4l-.02-.43h-.01c-.14.27-.44.48-.84.48-.59,0-1.05-.5-1.05-1.25,0-.82.5-1.32,1.1-1.32.37,0,.63.18.74.38h0v-1.47h.45Z"/>
    <path class="cls-3" d="M25.14,62.94h.45v2.46h-.45v-2.46ZM25.64,62.25c0,.15-.11.27-.28.27-.16,0-.27-.12-.27-.27s.12-.28.28-.28.27.12.27.28"/>
    <path class="cls-3" d="M28.09,65.31c-.12.06-.38.14-.71.14-.74,0-1.22-.5-1.22-1.25s.52-1.31,1.32-1.31c.26,0,.5.07.62.13l-.1.35c-.11-.06-.27-.12-.52-.12-.56,0-.87.42-.87.93,0,.57.37.92.85.92.25,0,.42-.07.55-.12l.08.34Z"/>
    <path class="cls-3" d="M28.61,62.94h.45v2.46h-.45v-2.46ZM29.11,62.25c0,.15-.11.27-.28.27-.16,0-.27-.12-.27-.27s.12-.28.28-.28.27.12.27.28"/>
    <path class="cls-3" d="M31.1,64.14c-.49-.01-1.04.08-1.04.55,0,.29.19.43.42.43.32,0,.52-.2.6-.41.01-.04.03-.1.03-.14v-.43ZM31.16,65.4l-.04-.31h-.01c-.14.19-.4.36-.75.36-.5,0-.75-.35-.75-.71,0-.59.53-.92,1.48-.91v-.05c0-.2-.06-.57-.56-.57-.23,0-.47.07-.64.18l-.1-.29c.2-.13.5-.22.81-.22.75,0,.93.51.93,1.01v.92c0,.21.01.42.04.59h-.41Z"/>
    <path class="cls-3" d="M34.62,64.14c-.49-.01-1.04.08-1.04.55,0,.29.19.43.42.43.32,0,.52-.2.6-.41.01-.04.03-.1.03-.14v-.43ZM34.69,65.4l-.04-.31h-.01c-.14.19-.4.36-.75.36-.5,0-.75-.35-.75-.71,0-.59.53-.92,1.48-.91v-.05c0-.2-.06-.57-.56-.57-.23,0-.47.07-.64.18l-.1-.29c.2-.13.5-.22.81-.22.75,0,.93.51.93,1.01v.92c0,.21.01.42.04.59h-.41Z"/>
    <path class="cls-3" d="M35.78,63.71c0-.29,0-.54-.02-.77h.39v.48h.03c.11-.33.38-.54.68-.54.05,0,.09,0,.13.01v.42s-.09-.01-.15-.01c-.31,0-.54.24-.6.57-.01.06-.02.13-.02.21v1.31h-.44v-1.69Z"/>
    <path class="cls-3" d="M38.95,63.93c0-.28-.12-.73-.62-.73-.45,0-.65.42-.69.73h1.31ZM37.64,64.25c.01.6.4.85.84.85.32,0,.51-.06.68-.13l.08.32c-.16.07-.43.15-.82.15-.76,0-1.21-.5-1.21-1.24s.44-1.33,1.15-1.33c.8,0,1.02.71,1.02,1.16,0,.09-.01.16-.01.21h-1.73Z"/>
    <path class="cls-3" d="M42.99,63.09c-.07-.04-.25-.12-.49-.12-.48,0-.71.3-.71.71s.25.72.72.72c.2,0,.4-.06.51-.13l.06.19c-.18.12-.41.16-.63.16-.59,0-.93-.41-.93-.92,0-.58.46-.94.97-.94.26,0,.49.08.56.14l-.06.2ZM41.08,63.69c0,.76.56,1.35,1.29,1.35s1.28-.59,1.28-1.37-.56-1.36-1.28-1.36-1.29.6-1.29,1.37M43.9,63.67c0,.87-.67,1.57-1.53,1.57s-1.54-.7-1.54-1.57.68-1.56,1.54-1.56,1.53.7,1.53,1.56"/>
    <path class="cls-3" d="M46.11,62.72c0,.24.11.43.26.62.34-.2.57-.38.57-.67,0-.21-.12-.44-.4-.44s-.43.23-.43.5M47.15,64.81c-.2-.22-.58-.64-.97-1.08-.18.12-.44.34-.44.7,0,.39.29.69.7.69.29,0,.54-.13.71-.31M47.69,65.4c-.1-.1-.19-.19-.32-.34-.29.27-.62.39-1,.39-.67,0-1.05-.45-1.05-.96,0-.47.28-.79.67-1h0c-.18-.24-.28-.49-.28-.73,0-.42.3-.84.87-.84.43,0,.76.28.76.73,0,.36-.21.65-.75.91v.02c.29.33.61.71.83.95.16-.24.26-.57.33-1h.41c-.09.54-.24.97-.49,1.27.18.19.36.39.56.6h-.53Z"/>
    <path class="cls-3" d="M52.12,63.36l-.05-.81c0-.11,0-.24-.01-.39h-.01c-.04.12-.08.28-.12.41l-.25.77h-.28l-.25-.79c-.03-.11-.07-.27-.1-.39h-.02c0,.13,0,.26,0,.39l-.05.81h-.26l.1-1.38h.41l.24.68c.03.11.06.21.09.35h0c.04-.13.07-.24.1-.34l.24-.68h.4l.11,1.38h-.27ZM50.62,61.97v.23h-.44v1.15h-.27v-1.15h-.44v-.23h1.16Z"/>
    <path class="cls-3" d="M54.3,65.4l-.87-3.42h.47l.41,1.73c.1.43.19.85.25,1.18h.01c.06-.34.16-.75.28-1.19l.46-1.73h.46l.42,1.74c.1.41.19.81.24,1.17h.01c.07-.38.17-.76.27-1.18l.45-1.73h.45l-.97,3.42h-.46l-.43-1.78c-.11-.44-.18-.77-.22-1.12h-.01c-.06.34-.14.68-.26,1.12l-.49,1.78h-.46Z"/>
    <path class="cls-3" d="M59.15,64.14c-.49-.01-1.04.08-1.04.55,0,.29.19.43.42.43.32,0,.52-.2.59-.41.02-.04.03-.1.03-.14v-.43ZM59.22,65.4l-.04-.31h-.01c-.14.19-.4.36-.75.36-.5,0-.75-.35-.75-.71,0-.59.53-.92,1.48-.91v-.05c0-.2-.06-.57-.56-.57-.23,0-.47.07-.64.18l-.1-.29c.2-.13.5-.22.81-.22.75,0,.93.51.93,1.01v.92c0,.21.01.42.04.59h-.41Z"/>
    <path class="cls-3" d="M60.31,63.71c0-.29,0-.54-.02-.77h.39v.48h.03c.11-.33.38-.54.68-.54.05,0,.09,0,.13.01v.42s-.09-.01-.15-.01c-.31,0-.54.24-.6.57-.01.06-.02.13-.02.21v1.31h-.44v-1.69Z"/>
    <path class="cls-3" d="M61.99,63.61c0-.25,0-.46-.02-.67h.4l.03.41h.01c.12-.23.41-.46.81-.46.34,0,.87.2.87,1.05v1.47h-.45v-1.42c0-.4-.15-.73-.57-.73-.3,0-.52.21-.6.46-.02.06-.03.13-.03.21v1.48h-.45v-1.79Z"/>
    <path class="cls-3" d="M66.37,63.93c0-.28-.12-.73-.62-.73-.45,0-.65.42-.69.73h1.31ZM65.06,64.25c.01.6.4.85.84.85.32,0,.51-.06.68-.13l.08.32c-.16.07-.43.15-.82.15-.76,0-1.21-.5-1.21-1.24s.44-1.33,1.15-1.33c.8,0,1.02.71,1.02,1.16,0,.09-.01.16-.02.21h-1.73Z"/>
    <path class="cls-3" d="M67.36,63.71c0-.29,0-.54-.02-.77h.39v.48h.03c.11-.33.38-.54.68-.54.05,0,.09,0,.13.01v.42s-.09-.01-.15-.01c-.31,0-.54.24-.6.57-.01.06-.02.13-.02.21v1.31h-.44v-1.69Z"/>
    <path class="cls-3" d="M70.55,65.06c.09.01.21.02.37.02.46,0,.88-.17.88-.67,0-.47-.4-.66-.88-.66h-.37v1.31ZM70.55,63.42h.4c.47,0,.74-.24.74-.57,0-.4-.31-.56-.75-.56-.2,0-.32.02-.39.03v1.1ZM70.11,62.02c.19-.04.5-.07.81-.07.44,0,.73.07.94.25.18.13.28.34.28.6,0,.33-.22.62-.58.75h0c.33.09.71.36.71.87,0,.29-.12.52-.29.69-.24.22-.63.32-1.18.32-.31,0-.54-.02-.69-.04v-3.37Z"/>
    <path class="cls-3" d="M72.85,63.71c0-.29,0-.54-.02-.77h.39v.48h.03c.11-.33.38-.54.68-.54.05,0,.09,0,.13.01v.42s-.09-.01-.15-.01c-.31,0-.54.24-.6.57-.01.06-.02.13-.02.21v1.31h-.44v-1.69Z"/>
    <path class="cls-3" d="M74.74,64.17c0,.54.31.94.75.94s.75-.4.75-.95c0-.42-.21-.94-.74-.94s-.76.49-.76.95M76.69,64.15c0,.91-.63,1.31-1.22,1.31-.67,0-1.18-.49-1.18-1.27,0-.82.54-1.31,1.22-1.31s1.18.51,1.18,1.27"/>
    <path class="cls-3" d="M77.19,64.94c.13.09.37.18.59.18.33,0,.48-.16.48-.37,0-.21-.13-.33-.46-.45-.44-.16-.65-.4-.65-.7,0-.4.32-.72.85-.72.25,0,.47.07.6.15l-.11.33c-.1-.06-.27-.14-.5-.14-.26,0-.41.15-.41.34,0,.2.15.29.47.42.43.16.64.38.64.74,0,.43-.33.74-.92.74-.27,0-.52-.07-.69-.17l.11-.34Z"/>
    <path class="cls-3" d="M79.1,65.13c0-.19.13-.32.3-.32s.3.13.3.32-.12.32-.3.32c-.18,0-.3-.14-.3-.32"/>
  </g>
  <polygon class="cls-3" points="83.13 63.79 81.8 63.79 81.8 65.03 83.28 65.03 83.28 65.4 81.35 65.4 81.35 61.97 83.2 61.97 83.2 62.35 81.8 62.35 81.8 63.43 83.13 63.43 83.13 63.79"/>
  <g class="cls-16">
    <path class="cls-3" d="M83.84,63.61c0-.25,0-.46-.02-.67h.4l.03.41h.01c.12-.23.41-.46.81-.46.34,0,.87.2.87,1.05v1.47h-.45v-1.42c0-.4-.15-.73-.57-.73-.3,0-.52.21-.6.46-.02.06-.03.13-.03.21v1.48h-.45v-1.79Z"/>
    <path class="cls-3" d="M87.18,62.23v.71h.64v.34h-.64v1.33c0,.31.09.48.33.48.12,0,.2-.01.26-.03l.02.34c-.09.04-.22.06-.4.06-.21,0-.38-.07-.48-.19-.13-.13-.17-.35-.17-.64v-1.34h-.38v-.34h.38v-.59l.44-.12Z"/>
    <path class="cls-3" d="M89.85,63.93c0-.28-.12-.73-.62-.73-.45,0-.65.42-.69.73h1.31ZM88.54,64.25c.01.6.4.85.84.85.32,0,.51-.06.68-.13l.08.32c-.16.07-.43.15-.82.15-.76,0-1.21-.5-1.21-1.24s.44-1.33,1.15-1.33c.8,0,1.02.71,1.02,1.16,0,.09-.01.16-.02.21h-1.73Z"/>
    <path class="cls-3" d="M90.84,63.71c0-.29,0-.54-.02-.77h.39v.48h.03c.11-.33.38-.54.68-.54.05,0,.09,0,.13.01v.42s-.09-.01-.15-.01c-.31,0-.54.24-.6.57-.01.06-.02.13-.02.21v1.31h-.44v-1.69Z"/>
    <path class="cls-3" d="M93.16,62.23v.71h.64v.34h-.64v1.33c0,.31.09.48.34.48.12,0,.2-.01.26-.03l.02.34c-.09.04-.22.06-.4.06-.21,0-.38-.07-.48-.19-.13-.13-.17-.35-.17-.64v-1.34h-.38v-.34h.38v-.59l.44-.12Z"/>
    <path class="cls-3" d="M95.6,64.14c-.49-.01-1.04.08-1.04.55,0,.29.19.43.42.43.32,0,.52-.2.59-.41.02-.04.03-.1.03-.14v-.43ZM95.67,65.4l-.04-.31h-.01c-.14.19-.4.36-.75.36-.5,0-.75-.35-.75-.71,0-.59.53-.92,1.48-.91v-.05c0-.2-.06-.57-.56-.57-.23,0-.47.07-.64.18l-.1-.29c.2-.13.5-.22.81-.22.75,0,.93.51.93,1.01v.92c0,.21.01.42.04.59h-.41Z"/>
    <path class="cls-3" d="M96.76,62.94h.45v2.46h-.45v-2.46ZM97.25,62.25c0,.15-.11.27-.28.27-.16,0-.27-.12-.27-.27s.12-.28.28-.28.27.12.27.28"/>
    <path class="cls-3" d="M97.94,63.61c0-.25,0-.46-.02-.67h.4l.03.41h.01c.12-.23.41-.46.81-.46.34,0,.87.2.87,1.05v1.47h-.45v-1.42c0-.4-.15-.73-.57-.73-.3,0-.52.21-.6.46-.02.06-.03.13-.03.21v1.48h-.45v-1.79Z"/>
    <path class="cls-3" d="M100.77,63.61c0-.25,0-.46-.02-.67h.39l.02.4h.01c.14-.23.37-.45.77-.45.34,0,.59.2.7.49h.01c.08-.14.17-.24.27-.32.15-.11.31-.17.54-.17.33,0,.81.21.81,1.07v1.45h-.44v-1.39c0-.47-.17-.76-.53-.76-.25,0-.45.19-.53.41-.02.06-.04.14-.04.22v1.52h-.44v-1.47c0-.39-.17-.68-.51-.68-.28,0-.48.22-.55.45-.03.07-.04.14-.04.22v1.48h-.44v-1.79Z"/>
    <path class="cls-3" d="M106.56,63.93c0-.28-.12-.73-.62-.73-.45,0-.65.42-.69.73h1.31ZM105.25,64.25c.01.6.4.85.84.85.32,0,.51-.06.68-.13l.08.32c-.16.07-.43.15-.82.15-.76,0-1.21-.5-1.21-1.24s.44-1.33,1.15-1.33c.8,0,1.02.71,1.02,1.16,0,.09-.01.16-.01.21h-1.73Z"/>
    <path class="cls-3" d="M107.55,63.61c0-.25,0-.46-.02-.67h.4l.03.41h.01c.12-.23.41-.46.81-.46.34,0,.87.2.87,1.05v1.47h-.45v-1.42c0-.4-.15-.73-.57-.73-.29,0-.52.21-.6.46-.02.06-.03.13-.03.21v1.48h-.45v-1.79Z"/>
    <path class="cls-3" d="M110.89,62.23v.71h.64v.34h-.64v1.33c0,.31.09.48.34.48.12,0,.2-.01.26-.03l.02.34c-.09.04-.22.06-.4.06-.21,0-.38-.07-.48-.19-.13-.13-.17-.35-.17-.64v-1.34h-.38v-.34h.38v-.59l.44-.12Z"/>
  </g>
  <rect class="cls-3" x="113.13" y="61.98" width=".44" height="3.42"/>
  <g class="cls-17">
    <path class="cls-3" d="M114.38,63.61c0-.25,0-.46-.02-.67h.4l.03.41h.01c.12-.23.41-.46.81-.46.34,0,.87.2.87,1.05v1.47h-.45v-1.42c0-.4-.15-.73-.57-.73-.29,0-.52.21-.6.46-.02.06-.03.13-.03.21v1.48h-.45v-1.79Z"/>
    <path class="cls-3" d="M118.95,65.31c-.12.06-.38.14-.71.14-.74,0-1.22-.5-1.22-1.25s.52-1.31,1.32-1.31c.26,0,.5.07.62.13l-.1.35c-.11-.06-.27-.12-.52-.12-.56,0-.87.42-.87.93,0,.57.37.92.85.92.25,0,.42-.07.55-.12l.08.34Z"/>
    <path class="cls-3" d="M119.32,65.13c0-.19.13-.32.3-.32s.3.13.3.32-.12.32-.3.32-.3-.14-.3-.32"/>
    <path class="cls-3" d="M18.84,71.5l-.87-3.42h.47l.41,1.73c.1.43.19.85.25,1.18h.01c.06-.34.16-.75.28-1.19l.46-1.73h.46l.42,1.74c.1.41.19.81.24,1.17h.01c.07-.38.17-.76.27-1.18l.45-1.73h.45l-.97,3.42h-.46l-.43-1.78c-.11-.44-.18-.77-.22-1.12h-.01c-.06.34-.14.68-.26,1.12l-.49,1.78h-.46Z"/>
    <path class="cls-3" d="M23.02,71.16c.09.01.21.02.37.02.46,0,.88-.17.88-.67,0-.47-.4-.66-.88-.66h-.37v1.31ZM23.02,69.52h.4c.47,0,.74-.24.74-.57,0-.4-.31-.56-.75-.56-.2,0-.32.02-.39.03v1.1ZM22.58,68.12c.19-.04.5-.07.81-.07.44,0,.73.07.94.25.18.13.28.34.28.6,0,.33-.22.62-.58.75h0c.33.09.71.36.71.87,0,.29-.12.52-.29.69-.24.22-.63.32-1.18.32-.3,0-.54-.02-.69-.04v-3.37Z"/>
    <path class="cls-3" d="M26.35,70.96c.2.12.49.22.79.22.45,0,.72-.24.72-.58,0-.32-.18-.5-.64-.68-.56-.2-.9-.49-.9-.97,0-.53.44-.93,1.11-.93.35,0,.6.08.76.17l-.12.36c-.11-.06-.34-.16-.65-.16-.47,0-.65.28-.65.51,0,.32.21.48.68.66.58.22.87.5.87,1.01,0,.53-.39.99-1.2.99-.33,0-.69-.1-.87-.22l.11-.37Z"/>
  </g>
  <polygon class="cls-3" points="31.02 68.07 31.02 69.51 29.36 69.51 29.36 68.07 28.92 68.07 28.92 71.5 29.36 71.5 29.36 69.89 31.02 69.89 31.02 71.5 31.47 71.5 31.47 68.07 31.02 68.07"/>
  <rect class="cls-3" x="32.23" y="68.07" width=".44" height="3.42"/>
  <polygon class="cls-3" points="33.45 68.07 33.45 71.5 35.37 71.5 35.37 71.13 33.89 71.13 33.89 69.89 35.22 69.89 35.22 69.53 33.89 69.53 33.89 68.44 35.3 68.44 35.3 68.07 33.45 68.07"/>
  <polygon class="cls-3" points="35.95 68.07 35.95 71.5 37.86 71.5 37.86 71.13 36.39 71.13 36.39 68.07 35.95 68.07"/>
  <g class="cls-15">
    <path class="cls-3" d="M38.79,71.15c.11.02.27.03.45.03.94,0,1.46-.53,1.46-1.45,0-.81-.45-1.32-1.39-1.32-.23,0-.4.02-.52.04v2.7ZM38.35,68.12c.27-.04.59-.07.94-.07.64,0,1.09.15,1.39.43.3.28.48.68.48,1.23s-.17,1.01-.49,1.33c-.32.32-.85.49-1.51.49-.31,0-.58-.01-.8-.04v-3.37Z"/>
    <path class="cls-3" d="M41.61,71.24c0-.19.13-.32.3-.32s.3.13.3.32c0,.18-.12.31-.3.31s-.3-.14-.3-.31M41.61,69.45c0-.19.13-.32.3-.32s.3.13.3.32c0,.18-.12.31-.3.31s-.3-.14-.3-.31"/>
    <path class="cls-3" d="M45.83,69.19c-.07-.04-.25-.12-.49-.12-.48,0-.71.3-.71.71s.25.72.72.72c.2,0,.4-.06.51-.13l.06.19c-.18.12-.41.16-.63.16-.59,0-.93-.41-.93-.92,0-.58.46-.94.97-.94.26,0,.49.08.56.14l-.06.2ZM43.91,69.79c0,.76.56,1.35,1.29,1.35s1.28-.59,1.28-1.37-.56-1.36-1.28-1.36-1.29.6-1.29,1.37M46.73,69.77c0,.87-.67,1.58-1.53,1.58s-1.54-.7-1.54-1.58.68-1.56,1.54-1.56,1.53.7,1.53,1.56"/>
    <path class="cls-3" d="M48.95,68.82c0,.24.11.43.26.62.34-.2.57-.38.57-.67,0-.21-.12-.44-.4-.44s-.43.23-.43.5M49.99,70.91c-.2-.22-.58-.64-.97-1.08-.18.12-.44.34-.44.7,0,.39.29.69.7.69.29,0,.54-.13.71-.31M50.53,71.5c-.1-.1-.19-.19-.32-.34-.29.27-.62.39-1,.39-.67,0-1.05-.45-1.05-.96,0-.47.28-.79.67-1h0c-.18-.24-.28-.49-.28-.73,0-.42.3-.84.87-.84.43,0,.76.28.76.73,0,.36-.21.65-.75.91v.02c.29.33.61.71.83.95.16-.24.26-.57.33-1h.41c-.09.54-.24.97-.49,1.27.18.19.36.39.56.6h-.53Z"/>
    <path class="cls-3" d="M54.95,69.46l-.05-.81c0-.11,0-.24-.01-.39h-.01c-.04.12-.08.28-.12.41l-.25.77h-.28l-.25-.79c-.03-.11-.07-.27-.1-.39h-.02c0,.13,0,.26,0,.39l-.05.81h-.27l.1-1.38h.41l.24.68c.03.11.06.21.09.35h0c.04-.13.07-.24.1-.34l.24-.68h.4l.11,1.38h-.27ZM53.46,68.07v.23h-.44v1.15h-.27v-1.15h-.44v-.23h1.16Z"/>
    <path class="cls-3" d="M57.13,71.5l-.87-3.42h.47l.41,1.73c.1.43.19.85.25,1.18h.01c.06-.34.16-.75.28-1.19l.46-1.73h.46l.42,1.74c.1.41.19.81.24,1.17h0c.07-.38.17-.76.27-1.18l.45-1.73h.45l-.97,3.42h-.46l-.43-1.78c-.11-.44-.18-.77-.22-1.12h-.01c-.06.34-.14.68-.26,1.12l-.49,1.78h-.46Z"/>
    <path class="cls-3" d="M61.32,71.16c.09.01.21.02.37.02.46,0,.88-.17.88-.67,0-.47-.4-.66-.88-.66h-.37v1.31ZM61.32,69.52h.4c.47,0,.74-.24.74-.57,0-.4-.31-.56-.75-.56-.2,0-.32.02-.39.03v1.1ZM60.88,68.12c.19-.04.5-.07.81-.07.44,0,.73.07.94.25.18.13.28.34.28.6,0,.33-.22.62-.58.75h0c.33.09.71.36.71.87,0,.29-.12.52-.29.69-.24.22-.63.32-1.18.32-.31,0-.54-.02-.69-.04v-3.37Z"/>
  </g>
  <polygon class="cls-3" points="63.63 68.07 63.63 71.5 65.56 71.5 65.56 71.13 64.07 71.13 64.07 69.89 65.4 69.89 65.4 69.53 64.07 69.53 64.07 68.44 65.48 68.44 65.48 68.07 63.63 68.07"/>
  <rect class="cls-3" x="66.13" y="68.07" width=".44" height="3.42"/>
  <g class="cls-14">
    <path class="cls-3" d="M67.22,71.23c0-.19.13-.32.3-.32s.3.13.3.32-.12.32-.3.32c-.18,0-.3-.14-.3-.32"/>
    <path class="cls-3" d="M69.92,69.77c.1.03.22.03.37.03.53,0,.86-.26.86-.73s-.32-.67-.81-.67c-.19,0-.34.01-.42.04v1.33ZM69.48,68.11c.21-.04.49-.07.85-.07.44,0,.76.1.96.28.19.16.3.41.3.72s-.09.55-.26.73c-.23.25-.61.38-1.05.38-.13,0-.25,0-.36-.03v1.37h-.44v-3.38Z"/>
    <path class="cls-3" d="M74.15,70.83c0,.25,0,.48.02.67h-.4l-.03-.4h-.01c-.12.2-.38.46-.81.46-.39,0-.85-.21-.85-1.08v-1.44h.45v1.36c0,.47.14.78.55.78.3,0,.51-.21.59-.41.03-.07.04-.15.04-.23v-1.51h.45v1.79Z"/>
    <path class="cls-3" d="M75.33,70.51c0,.06,0,.11.02.16.09.31.34.52.67.52.47,0,.75-.38.75-.94,0-.49-.25-.91-.73-.91-.3,0-.59.21-.68.55-.01.05-.03.11-.03.18v.44ZM74.87,71.5c.01-.17.02-.42.02-.63v-2.97h.44v1.55h0c.16-.27.44-.45.84-.45.61,0,1.04.51,1.04,1.25,0,.88-.55,1.32-1.1,1.32-.36,0-.64-.14-.82-.46h-.01l-.02.41h-.39Z"/>
  </g>
  <rect class="cls-3" x="77.78" y="67.89" width=".45" height="3.61"/>
  <g class="cls-13">
    <path class="cls-3" d="M78.98,69.04h.45v2.46h-.45v-2.46ZM79.48,68.35c0,.15-.11.27-.28.27-.16,0-.27-.12-.27-.27s.12-.28.28-.28.27.12.27.28"/>
    <path class="cls-3" d="M80.11,71.04c.13.09.37.18.59.18.33,0,.48-.16.48-.37,0-.21-.13-.33-.46-.45-.44-.16-.65-.4-.65-.7,0-.4.32-.72.85-.72.25,0,.47.07.6.15l-.11.33c-.1-.06-.27-.14-.5-.14-.26,0-.41.15-.41.34,0,.2.15.29.47.42.43.16.65.38.65.74,0,.43-.34.74-.92.74-.27,0-.52-.07-.69-.17l.11-.34Z"/>
    <path class="cls-3" d="M82.18,67.89h.45v1.53h0c.07-.13.18-.24.32-.31.13-.08.29-.13.46-.13.33,0,.86.2.86,1.05v1.46h-.45v-1.41c0-.4-.15-.73-.57-.73-.29,0-.52.2-.6.45-.03.06-.03.13-.03.21v1.48h-.45v-3.61Z"/>
    <path class="cls-3" d="M85,69.04h.45v2.46h-.45v-2.46ZM85.5,68.35c0,.15-.11.27-.28.27-.16,0-.27-.12-.27-.27s.12-.28.28-.28.27.12.27.28"/>
    <path class="cls-3" d="M86.19,69.7c0-.25,0-.46-.02-.67h.4l.03.41h.01c.12-.23.41-.46.81-.46.34,0,.87.2.87,1.05v1.47h-.45v-1.42c0-.4-.15-.73-.57-.73-.3,0-.52.21-.6.46-.02.06-.03.13-.03.21v1.48h-.45v-1.79Z"/>
    <path class="cls-3" d="M90.67,70.01c0-.08,0-.14-.03-.2-.08-.26-.3-.47-.63-.47-.43,0-.73.36-.73.93,0,.48.24.88.73.88.28,0,.52-.17.62-.46.03-.08.04-.16.04-.24v-.44ZM91.13,69.04c-.01.18-.02.38-.02.68v1.43c0,.56-.11.91-.35,1.12-.24.22-.58.3-.89.3s-.62-.07-.82-.2l.11-.34c.16.1.42.19.72.19.46,0,.79-.24.79-.86v-.28h-.01c-.14.23-.4.41-.78.41-.61,0-1.05-.52-1.05-1.2,0-.83.54-1.31,1.11-1.31.43,0,.66.22.77.43h.01l.02-.37h.39Z"/>
    <path class="cls-3" d="M93.39,69.68h.45c.47,0,.77-.26.77-.65,0-.44-.32-.64-.79-.64-.21,0-.37.02-.44.04v1.25ZM92.95,68.12c.22-.04.54-.07.85-.07.47,0,.78.09.99.28.17.15.27.39.27.65,0,.45-.28.75-.64.87v.02c.26.09.42.33.5.69.11.48.19.81.26.94h-.46c-.06-.1-.13-.39-.23-.82-.1-.47-.28-.65-.69-.67h-.42v1.48h-.44v-3.38Z"/>
    <path class="cls-3" d="M95.72,69.04h.45v2.46h-.45v-2.46ZM96.22,68.35c0,.15-.11.27-.28.27-.16,0-.27-.12-.27-.27s.12-.28.28-.28.27.12.27.28"/>
    <path class="cls-3" d="M98.56,70.01c0-.08,0-.14-.03-.2-.08-.26-.3-.47-.63-.47-.43,0-.73.36-.73.93,0,.48.24.88.73.88.27,0,.52-.17.62-.46.03-.08.04-.16.04-.24v-.44ZM99.03,69.04c-.01.18-.02.38-.02.68v1.43c0,.56-.11.91-.35,1.12-.24.22-.58.3-.89.3s-.62-.07-.82-.2l.11-.34c.16.1.42.19.72.19.46,0,.79-.24.79-.86v-.28h-.01c-.14.23-.4.41-.78.41-.61,0-1.05-.52-1.05-1.2,0-.83.54-1.31,1.11-1.31.43,0,.66.22.77.43h.01l.02-.37h.39Z"/>
    <path class="cls-3" d="M99.75,67.89h.45v1.53h.01c.07-.13.18-.24.32-.31.13-.08.29-.13.46-.13.33,0,.86.2.86,1.05v1.46h-.45v-1.41c0-.4-.15-.73-.57-.73-.29,0-.52.2-.6.45-.03.06-.03.13-.03.21v1.48h-.45v-3.61Z"/>
    <path class="cls-3" d="M103.09,68.33v.71h.64v.34h-.64v1.33c0,.31.09.48.34.48.12,0,.2-.01.26-.03l.02.34c-.09.04-.22.06-.4.06-.21,0-.38-.07-.48-.19-.13-.13-.17-.35-.17-.64v-1.34h-.38v-.34h.38v-.59l.44-.12Z"/>
    <path class="cls-3" d="M104.17,71.04c.13.09.37.18.59.18.33,0,.48-.16.48-.37,0-.21-.13-.33-.46-.45-.44-.16-.65-.4-.65-.7,0-.4.32-.72.85-.72.25,0,.47.07.6.15l-.11.33c-.1-.06-.27-.14-.5-.14-.26,0-.41.15-.41.34,0,.2.15.29.47.42.43.16.65.38.65.74,0,.43-.34.74-.92.74-.27,0-.52-.07-.69-.17l.11-.34Z"/>
    <path class="cls-3" d="M109.3,69.19c-.07-.04-.25-.12-.49-.12-.48,0-.71.3-.71.71s.25.72.72.72c.2,0,.4-.06.51-.13l.06.19c-.18.12-.41.16-.63.16-.59,0-.93-.41-.93-.92,0-.58.46-.94.97-.94.26,0,.49.08.56.14l-.06.2ZM107.39,69.79c0,.76.56,1.35,1.29,1.35s1.28-.59,1.28-1.37-.56-1.36-1.28-1.36-1.29.6-1.29,1.37M110.21,69.77c0,.87-.67,1.58-1.53,1.58s-1.54-.7-1.54-1.58.68-1.56,1.54-1.56,1.53.7,1.53,1.56"/>
    <path class="cls-3" d="M112.56,68.07h.44v2.29c0,.91-.45,1.19-1.04,1.19-.16,0-.36-.03-.47-.08l.07-.36c.09.04.22.07.37.07.4,0,.63-.18.63-.85v-2.26Z"/>
    <path class="cls-3" d="M113.74,68.07h.44v1.65h.01c.09-.13.18-.25.27-.37l1.05-1.28h.55l-1.24,1.45,1.34,1.97h-.52l-1.13-1.68-.33.38v1.31h-.44v-3.42Z"/>
    <path class="cls-3" d="M116.94,69.68h.45c.47,0,.77-.26.77-.65,0-.44-.32-.64-.79-.64-.21,0-.37.02-.44.04v1.25ZM116.49,68.12c.22-.04.54-.07.85-.07.47,0,.78.09.99.28.17.15.27.39.27.65,0,.45-.28.75-.64.87v.02c.26.09.42.33.5.69.11.48.19.81.26.94h-.46c-.06-.1-.13-.39-.23-.82-.1-.47-.28-.65-.69-.67h-.42v1.48h-.44v-3.38Z"/>
    <path class="cls-3" d="M119.11,71.23c0-.19.13-.32.3-.32s.3.13.3.32-.12.32-.3.32-.3-.14-.3-.32"/>
    <path class="cls-3" d="M122.31,67.97c-.37.5-.64,1.16-.64,2.08s.28,1.55.64,2.06h-.35c-.32-.42-.67-1.07-.67-2.06,0-1,.34-1.65.67-2.08h.35Z"/>
    <path class="cls-3" d="M122.73,71.04c.13.09.37.18.59.18.33,0,.48-.16.48-.37,0-.21-.13-.33-.46-.45-.44-.16-.65-.4-.65-.7,0-.4.32-.72.85-.72.25,0,.47.07.6.15l-.11.33c-.1-.06-.27-.14-.5-.14-.26,0-.41.15-.41.34,0,.2.15.29.47.42.43.16.65.38.65.74,0,.43-.34.74-.92.74-.27,0-.52-.07-.69-.17l.11-.34Z"/>
    <path class="cls-3" d="M124.66,71.5v-.27l.35-.34c.84-.8,1.22-1.23,1.23-1.73,0-.34-.16-.64-.66-.64-.3,0-.55.15-.7.28l-.14-.31c.23-.19.55-.34.94-.34.71,0,1.01.49,1.01.96,0,.61-.44,1.1-1.14,1.77l-.26.24h0s1.48,0,1.48,0v.37h-2.11Z"/>
    <path class="cls-3" d="M129.74,72.11c.36-.5.64-1.16.64-2.08s-.27-1.56-.64-2.06h.35c.33.42.66,1.07.66,2.07s-.34,1.64-.66,2.07h-.35Z"/>
    <path class="cls-3" d="M128.06,69.55h.12c.08,0,.16-.01.23-.03.07-.02.14-.06.19-.1.06-.04.1-.1.13-.16.03-.06.05-.14.05-.22,0-.17-.05-.3-.16-.38-.11-.09-.24-.13-.4-.13-.1,0-.19.02-.27.06-.08.04-.14.09-.19.15-.05.06-.09.14-.11.22-.02.08-.04.17-.04.26h-.38c0-.15.03-.29.07-.41.04-.12.1-.23.18-.32.08-.09.18-.16.3-.21.12-.05.26-.08.42-.08.14,0,.26.02.38.05.12.03.22.09.31.15.09.07.15.16.2.26.05.11.07.23.07.38s-.04.27-.12.38c-.08.11-.19.19-.31.25h0c.19.05.34.14.43.28.09.14.14.3.14.49,0,.16-.03.3-.09.42-.06.12-.14.22-.23.3-.1.08-.21.14-.34.18-.13.04-.27.06-.42.06-.16,0-.31-.02-.44-.07-.13-.04-.24-.11-.33-.2-.09-.09-.16-.19-.21-.32-.05-.13-.07-.27-.07-.44h.38c0,.21.07.37.18.5.11.13.28.19.49.19.09,0,.18-.01.26-.04.08-.03.16-.07.22-.12s.11-.12.15-.19.06-.16.06-.26-.02-.18-.05-.26c-.04-.08-.08-.14-.14-.19-.06-.05-.13-.09-.21-.12-.08-.02-.17-.04-.27-.04-.08,0-.16,0-.23.01v-.32s.03,0,.04,0"/>
  </g>
</svg>