<?xml version="1.0" encoding="UTF-8"?>
<svg id="Capa_1" data-name="Capa 1" xmlns="http://www.w3.org/2000/svg" xmlns:xlink="http://www.w3.org/1999/xlink" viewBox="0 0 148.73 97.98">
  <defs>
    <style>
      .cls-1 {
        clip-path: url(#clippath);
      }

      .cls-2 {
        fill: none;
      }

      .cls-2, .cls-3, .cls-4 {
        stroke-width: 0px;
      }

      .cls-5 {
        clip-path: url(#clippath-1);
      }

      .cls-6 {
        clip-path: url(#clippath-4);
      }

      .cls-7 {
        clip-path: url(#clippath-3);
      }

      .cls-8 {
        clip-path: url(#clippath-2);
      }

      .cls-9 {
        clip-path: url(#clippath-7);
      }

      .cls-10 {
        clip-path: url(#clippath-8);
      }

      .cls-11 {
        clip-path: url(#clippath-6);
      }

      .cls-12 {
        clip-path: url(#clippath-5);
      }

      .cls-13 {
        clip-path: url(#clippath-9);
      }

      .cls-3 {
        fill: #222221;
      }

      .cls-14 {
        clip-path: url(#clippath-14);
      }

      .cls-15 {
        clip-path: url(#clippath-13);
      }

      .cls-16 {
        clip-path: url(#clippath-12);
      }

      .cls-17 {
        clip-path: url(#clippath-10);
      }

      .cls-18 {
        clip-path: url(#clippath-15);
      }

      .cls-19 {
        clip-path: url(#clippath-17);
      }

      .cls-20 {
        clip-path: url(#clippath-16);
      }

      .cls-21 {
        clip-path: url(#clippath-11);
      }

      .cls-4 {
        fill: #fff;
      }
    </style>
    <clipPath id="clippath">
      <rect class="cls-2" x="11.99" y="36.86" width="124.75" height="24.27"/>
    </clipPath>
    <clipPath id="clippath-1">
      <rect class="cls-2" x="11.99" y="36.86" width="124.75" height="24.27"/>
    </clipPath>
    <clipPath id="clippath-2">
      <rect class="cls-2" x="11.99" y="36.86" width="124.75" height="24.27"/>
    </clipPath>
    <clipPath id="clippath-3">
      <rect class="cls-2" x="11.99" y="36.86" width="124.75" height="24.27"/>
    </clipPath>
    <clipPath id="clippath-4">
      <rect class="cls-2" x="11.99" y="36.86" width="124.75" height="24.27"/>
    </clipPath>
    <clipPath id="clippath-5">
      <rect class="cls-2" x="11.99" y="36.86" width="124.75" height="24.27"/>
    </clipPath>
    <clipPath id="clippath-6">
      <rect class="cls-2" x="11.99" y="36.86" width="124.75" height="24.27"/>
    </clipPath>
    <clipPath id="clippath-7">
      <rect class="cls-2" x="11.99" y="36.86" width="124.75" height="24.27"/>
    </clipPath>
    <clipPath id="clippath-8">
      <rect class="cls-2" x="11.99" y="36.86" width="124.75" height="24.27"/>
    </clipPath>
    <clipPath id="clippath-9">
      <rect class="cls-2" x="11.99" y="36.86" width="124.75" height="24.27"/>
    </clipPath>
    <clipPath id="clippath-10">
      <rect class="cls-2" x="11.99" y="36.86" width="124.75" height="24.27"/>
    </clipPath>
    <clipPath id="clippath-11">
      <rect class="cls-2" x="11.99" y="36.86" width="124.75" height="24.27"/>
    </clipPath>
    <clipPath id="clippath-12">
      <rect class="cls-2" x="11.99" y="36.86" width="124.75" height="24.27"/>
    </clipPath>
    <clipPath id="clippath-13">
      <rect class="cls-2" x="11.99" y="36.86" width="124.75" height="24.27"/>
    </clipPath>
    <clipPath id="clippath-14">
      <rect class="cls-2" x="11.99" y="36.86" width="124.75" height="24.27"/>
    </clipPath>
    <clipPath id="clippath-15">
      <rect class="cls-2" x="11.99" y="36.86" width="124.75" height="24.27"/>
    </clipPath>
    <clipPath id="clippath-16">
      <rect class="cls-2" x="11.99" y="36.86" width="124.75" height="24.27"/>
    </clipPath>
    <clipPath id="clippath-17">
      <rect class="cls-2" x="11.99" y="36.86" width="124.75" height="24.27"/>
    </clipPath>
  </defs>
  <g class="cls-1">
    <path class="cls-4" d="M13.92,36.86c-1.07,0-1.93.87-1.93,1.94v20.39c0,1.07.86,1.94,1.93,1.94h14.53c1.06,0,1.92-.87,1.92-1.94v-20.39c0-1.07-.86-1.94-1.92-1.94h-14.53Z"/>
    <path class="cls-3" d="M28.45,37.37h-14.53c-.78,0-1.42.64-1.42,1.43v20.39c0,.79.64,1.43,1.42,1.43h14.53c.78,0,1.42-.64,1.42-1.43v-20.39c0-.79-.64-1.43-1.42-1.43M28.45,60.02h-14.53c-.46,0-.83-.38-.83-.83v-9.61h16.18v9.61c0,.46-.38.83-.83.83"/>
    <path class="cls-4" d="M19.62,38.72v8.93l2.02.64v-7.49c0-.35.16-.58.41-.5.33.09.4.41.4.77v2.99c1.26.61,2.25,0,2.25-1.6s-.58-2.38-2.29-2.96c-.67-.23-1.92-.6-2.78-.76"/>
    <path class="cls-4" d="M22.02,46.98l3.25-1.16c.37-.14.43-.32.12-.42-.29-.1-.84-.07-1.21.06l-2.17.76v-1.22l.13-.05s.62-.22,1.51-.32c.88-.09,1.96.01,2.8.33.95.3,1.06.75.82,1.05-.24.3-.84.53-.84.53l-4.42,1.58v-1.17Z"/>
    <path class="cls-4" d="M15.92,46.86c-.98-.28-1.15-.85-.7-1.18.41-.3,1.11-.53,1.11-.53l2.9-1.03v1.17l-2.08.75c-.38.14-.43.32-.13.42.3.1.84.07,1.21-.06l1-.37v1.06c-.06.01-.13.02-.2.03-1,.16-2.07.1-3.11-.25"/>
    <path class="cls-4" d="M26.67,48.34c.13,0,.26-.05.36-.15.09-.1.15-.22.15-.35s-.06-.26-.15-.36c-.1-.1-.23-.15-.36-.15-.29,0-.51.23-.51.51,0,.13.05.26.15.35.09.1.22.15.36.15M26.24,47.84c0-.12.04-.22.12-.3.08-.08.19-.13.3-.13.11,0,.21.05.29.13.08.08.13.18.13.3,0,.23-.19.42-.42.42-.11,0-.22-.05-.3-.12-.08-.08-.12-.18-.12-.29"/>
    <path class="cls-4" d="M26.91,48.07s-.01-.01-.02-.02c0,0,0-.02,0-.04v-.07s-.01-.06-.02-.08c0-.01-.02-.02-.03-.03.02,0,.03-.02.04-.04.02-.02.02-.05.02-.09,0-.07-.03-.11-.09-.14-.03-.01-.06-.02-.1-.02h-.26v.55h0s.01.01.01.01h.09v-.23h.15s.04,0,.06.01c.02,0,.03.03.03.06v.09s0,.03.01.04c0,0,0,.01,0,.02h0s0,0,0,0h.1v-.02h0s0-.01,0-.01ZM26.8,47.71s-.01.05-.02.06c-.02.01-.04.02-.07.02h-.15v-.16h.16s.04,0,.05.01c.02,0,.03.03.03.07"/>
  </g>
  <polygon class="cls-3" points="14.49 53.67 14.95 53.67 14.95 55.55 15.84 55.55 15.84 55.91 14.49 55.91 14.49 53.67"/>
  <path class="cls-3" d="M16.31,55.91h.45v-1.66h-.45v1.66ZM16.31,54h.45v-.39h-.45v.39Z"/>
  <g class="cls-5">
    <path class="cls-3" d="M18.4,54.6c-.09-.04-.18-.05-.27-.05-.32,0-.48.24-.48.53s.15.53.49.53c.09,0,.18,0,.27-.05l.07.33c-.12.04-.25.06-.38.06-.59,0-.9-.37-.9-.86s.33-.87.89-.87c.14,0,.26.02.37.05l-.08.33Z"/>
    <path class="cls-3" d="M19.23,55.21c.03.28.26.4.55.4.12,0,.28-.02.4-.06l.05.33c-.15.04-.3.07-.5.07-.6,0-.94-.35-.94-.86s.31-.87.83-.87c.48,0,.75.32.75.82v.18h-1.14ZM19.23,54.9h.72c0-.23-.13-.39-.34-.39s-.36.16-.38.39"/>
    <path class="cls-3" d="M21.18,54.25v.22h0c.09-.17.29-.26.5-.26.37,0,.61.24.61.6v1.09h-.45v-.93c0-.27-.06-.43-.31-.43-.17,0-.36.12-.36.46v.9h-.45v-1.66h.44Z"/>
    <path class="cls-3" d="M23.82,54.64c-.17-.07-.33-.09-.45-.09-.12,0-.22.03-.22.14,0,.09.07.14.31.22.35.11.55.25.55.54,0,.38-.36.51-.69.51-.2,0-.45-.04-.62-.12l.09-.34c.18.08.4.12.53.12.17,0,.27-.04.27-.15,0-.1-.09-.15-.35-.23-.36-.12-.51-.27-.51-.51,0-.36.33-.52.65-.52.17,0,.38.03.54.1l-.1.33Z"/>
    <path class="cls-3" d="M24.79,55.21c.02.28.26.4.55.4.13,0,.28-.02.39-.06l.05.33c-.15.04-.3.07-.5.07-.59,0-.93-.35-.93-.86s.31-.87.83-.87c.48,0,.75.32.75.82v.18h-1.14ZM24.79,54.9h.72c0-.23-.13-.39-.34-.39s-.36.16-.38.39"/>
    <path class="cls-3" d="M27.49,53.61h.45v2.31h-.44v-.21h0c-.12.17-.32.25-.51.25-.45,0-.7-.38-.7-.87s.26-.87.71-.87c.19,0,.37.06.49.22h0v-.83ZM27.1,55.62c.26,0,.41-.23.41-.54s-.15-.53-.41-.53-.38.23-.38.53.11.53.38.53"/>
    <path class="cls-3" d="M15.26,56.6h.84c.44,0,.81.17.81.69s-.37.73-.81.73h-.39v.82h-.46v-2.24ZM15.71,57.65h.33c.23,0,.4-.08.4-.34s-.17-.34-.42-.34h-.31v.68Z"/>
    <path class="cls-3" d="M18.25,57.49s-.09-.01-.13-.01c-.22,0-.4.14-.4.56v.8h-.45v-1.66h.44v.22h0c.08-.17.23-.25.43-.25.04,0,.09,0,.12,0l-.02.34Z"/>
    <path class="cls-3" d="M19.28,58.88c-.52,0-.84-.33-.84-.87s.33-.86.84-.86.85.32.85.86-.34.87-.85.87M19.28,57.48c-.27,0-.4.22-.4.53s.13.53.4.53.4-.21.4-.53-.13-.53-.4-.53"/>
    <path class="cls-3" d="M21.64,56.54h.44v2.31h-.44v-.21h0c-.12.17-.32.25-.51.25-.45,0-.7-.38-.7-.87s.26-.87.71-.87c.19,0,.37.06.49.22h0v-.83ZM21.25,58.55c.26,0,.41-.23.41-.54s-.15-.53-.41-.53-.38.23-.38.53.11.53.38.53"/>
    <path class="cls-3" d="M23.68,58.84v-.22h0c-.09.17-.29.26-.5.26-.37,0-.62-.24-.62-.6v-1.09h.45v.93c0,.27.07.43.31.43.17,0,.35-.12.35-.46v-.9h.45v1.66h-.44Z"/>
    <path class="cls-3" d="M25.69,57.53c-.08-.03-.18-.05-.27-.05-.32,0-.48.24-.48.53s.15.53.49.53c.09,0,.18,0,.27-.05l.07.33c-.12.04-.25.06-.38.06-.59,0-.9-.37-.9-.86s.33-.87.9-.87c.14,0,.26.01.37.05l-.08.33Z"/>
    <path class="cls-3" d="M26.21,57.18h.25v-.44h.45v.44h.34v.33h-.34v.74c0,.23.03.26.19.26.05,0,.1,0,.15-.01v.33c-.09,0-.19.01-.29.01-.42,0-.49-.17-.49-.48v-.86h-.25v-.33Z"/>
    <path class="cls-3" d="M16.59,53.02c-.67,0-1.05-.48-1.05-1.15s.37-1.16,1.05-1.16,1.05.49,1.05,1.16-.37,1.15-1.05,1.15M16.59,51.07c-.41,0-.59.35-.59.79s.19.79.6.79.59-.35.59-.79-.19-.79-.59-.79"/>
    <path class="cls-3" d="M23.13,51.67c-.09-.04-.18-.05-.27-.05-.32,0-.48.24-.48.53s.15.53.49.53c.09,0,.18,0,.27-.05l.07.33c-.12.04-.25.06-.38.06-.59,0-.9-.37-.9-.86s.33-.87.89-.87c.14,0,.26.02.37.05l-.08.33Z"/>
  </g>
  <path class="cls-3" d="M23.66,52.98h.45v-1.66h-.45v1.66ZM23.66,51.07h.45v-.38h-.45v.38Z"/>
  <path class="cls-3" d="M21.03,52.98h.44v-1.66h-.44v1.66ZM21.03,51.07h.44v-.38h-.44v.38Z"/>
  <g class="cls-8">
    <path class="cls-3" d="M25.53,51.9c0-.17-.11-.28-.37-.28-.12,0-.28.03-.43.08l-.08-.32c.15-.06.37-.1.54-.1.55,0,.78.23.78.63v.68c0,.12,0,.28.02.38h-.39c-.02-.05-.03-.15-.04-.2h0c-.08.15-.26.24-.48.24-.29,0-.6-.13-.6-.51,0-.49.48-.57,1.05-.57v-.04ZM25.47,52.21c-.3,0-.55.05-.55.27,0,.14.09.23.24.23.26,0,.37-.19.37-.38v-.12h-.06Z"/>
  </g>
  <rect class="cls-3" x="26.38" y="50.68" width=".44" height="2.31"/>
  <g class="cls-7">
    <path class="cls-3" d="M19.17,51.03c-.06-.02-.14-.02-.19-.02-.17,0-.24.07-.24.24v.08h.35v.34h-.35v1.32h-.45v-1.32h-.27v-.34h.27v-.11c0-.32.15-.54.63-.54.09,0,.19,0,.28.02l-.03.33Z"/>
    <path class="cls-3" d="M20.6,51.03c-.06-.02-.14-.02-.19-.02-.16,0-.24.07-.24.24v.08h.35v.34h-.35v1.32h-.45v-1.32h-.27v-.34h.27v-.11c0-.32.15-.54.63-.54.09,0,.19,0,.28.02l-.03.33Z"/>
    <path class="cls-3" d="M35.38,40.59v1.39h.75c.64,0,.83-.33.83-.7s-.17-.69-.83-.69h-.76ZM36.17,40.36c.67,0,1.03.34,1.03.92s-.39.92-1.03.92h-.78v1.19h-.23v-3.03h1.02Z"/>
  </g>
  <rect class="cls-3" x="37.88" y="40.22" width=".24" height="3.17"/>
  <g class="cls-6">
    <path class="cls-3" d="M40.47,42.23c-.06,0-.27-.04-.58-.04-.29,0-.84.07-.84.52,0,.42.44.5.72.5s.69-.08.69-.49v-.49ZM40.7,42.03v.7c0,.62-.64.7-.92.7s-.95-.09-.95-.71c0-.71.88-.74,1.09-.74.31,0,.47.03.55.05,0-.48-.24-.72-.76-.72-.3,0-.54.07-.65.1v-.23c.17-.06.41-.11.67-.11.68,0,.98.33.98.96"/>
    <path class="cls-3" d="M42.92,41.11h.25l-.96,2.56c-.19.5-.46.63-.7.63-.09,0-.17-.02-.22-.04v-.22s.14.04.19.04c.36,0,.45-.41.58-.68l-.89-2.29h.25c.24.66.5,1.32.75,1.98l.73-1.98Z"/>
    <path class="cls-3" d="M45.73,42.62c0,.48-.36.82-1.06.82-.39,0-.69-.1-.92-.21v-.25c.21.12.51.23.91.23.48,0,.84-.18.84-.58,0-.96-1.73-.44-1.73-1.49,0-.42.28-.82,1-.82.32,0,.59.08.81.18v.24c-.2-.1-.47-.19-.78-.19-.52,0-.78.23-.78.59,0,.79,1.73.33,1.73,1.49"/>
    <path class="cls-3" d="M47.41,43.16v.22c-.09.02-.19.04-.31.04-.17,0-.6-.02-.6-.59v-1.53h-.37v-.21h.37v-.65h.24v.65h.66v.21h-.66v1.52c0,.31.18.38.39.38.11,0,.2-.02.28-.05"/>
    <path class="cls-3" d="M49.56,42.23c-.06,0-.27-.04-.58-.04-.29,0-.84.07-.84.52,0,.42.44.5.72.5s.69-.08.69-.49v-.49ZM49.79,42.03v.7c0,.62-.64.7-.92.7s-.95-.09-.95-.71c0-.71.88-.74,1.09-.74.31,0,.47.03.55.05,0-.48-.24-.72-.76-.72-.3,0-.54.07-.65.1v-.23c.17-.06.41-.11.67-.11.68,0,.98.33.98.96"/>
    <path class="cls-3" d="M51.55,43.16v.22c-.09.02-.19.04-.31.04-.17,0-.6-.02-.6-.59v-1.53h-.37v-.21h.37v-.65h.24v.65h.66v.21h-.66v1.52c0,.31.18.38.39.38.11,0,.2-.02.28-.05"/>
  </g>
  <path class="cls-3" d="M52.18,43.39h.23v-2.29h-.23v2.29ZM52.17,40.68h.26v-.35h-.26v.35Z"/>
  <g class="cls-12">
    <path class="cls-3" d="M55.04,42.25c0-.72-.33-.97-.84-.97s-.84.25-.84.97.34.97.84.97.84-.24.84-.97M55.27,42.25c0,.97-.58,1.18-1.07,1.18s-1.07-.21-1.07-1.18.58-1.18,1.07-1.18,1.07.21,1.07,1.18"/>
    <path class="cls-3" d="M57.83,41.9v1.49h-.24v-1.49c0-.33-.14-.6-.67-.6-.28,0-.53.07-.73.15v1.95h-.23v-2.09c.16-.09.54-.25.98-.25.56,0,.89.28.89.84"/>
    <path class="cls-3" d="M61.59,42.23c-.06,0-.27-.04-.58-.04-.29,0-.84.07-.84.52,0,.42.44.5.72.5s.69-.08.69-.49v-.49ZM61.82,42.03v.7c0,.62-.64.7-.92.7s-.95-.09-.95-.71c0-.71.88-.74,1.09-.74.31,0,.47.03.55.05,0-.48-.24-.72-.76-.72-.3,0-.54.07-.65.1v-.23c.17-.06.41-.11.67-.11.68,0,.98.33.98.96"/>
    <path class="cls-3" d="M64.44,41.9v1.49h-.24v-1.49c0-.33-.14-.6-.67-.6-.28,0-.53.07-.73.15v1.95h-.23v-2.09c.16-.09.54-.25.98-.25.56,0,.89.28.89.84"/>
    <path class="cls-3" d="M66.18,43.21c.51,0,.68-.24.68-.48v-1.32c-.19-.08-.42-.13-.65-.13-.5,0-.81.24-.81.94,0,.88.45.99.78.99M66.22,41.07c.23,0,.45.04.65.11v-.95h.23v2.49c0,.18-.08.71-.91.71-.39,0-1.01-.15-1.01-1.2,0-.96.56-1.16,1.05-1.16"/>
    <path class="cls-3" d="M70.1,41.19l-.34-.87h.26l.31.87h-.23ZM69.48,41.19c-.11-.29-.23-.58-.33-.87h.26l.31.87h-.24Z"/>
    <path class="cls-3" d="M71.34,40.59v1.39h.75c.64,0,.83-.33.83-.7s-.17-.69-.83-.69h-.76ZM72.13,40.36c.67,0,1.03.34,1.03.92s-.39.92-1.03.92h-.78v1.19h-.23v-3.03h1.02Z"/>
    <path class="cls-3" d="M75.78,42.62c0,.48-.36.82-1.06.82-.39,0-.69-.1-.92-.21v-.25c.21.12.51.23.91.23.48,0,.84-.18.84-.58,0-.96-1.73-.44-1.73-1.49,0-.42.28-.82,1-.82.32,0,.59.08.81.18v.24c-.2-.1-.47-.19-.78-.19-.52,0-.78.23-.78.59,0,.79,1.73.33,1.73,1.49"/>
  </g>
  <path class="cls-3" d="M76.61,40.31l-.31.87h.24l.33-.87h-.26ZM77.23,40.31l-.31.87h.23l.34-.87h-.27Z"/>
  <polygon class="cls-3" points="80.49 40.36 80.49 40.58 78.89 40.58 78.89 41.76 80.29 41.76 80.29 41.98 78.89 41.98 78.89 43.39 78.66 43.39 78.66 40.36 80.49 40.36"/>
  <g class="cls-11">
    <path class="cls-3" d="M82.48,42.23c-.06,0-.27-.04-.58-.04-.29,0-.84.07-.84.52,0,.42.44.5.72.5s.69-.08.69-.49v-.49ZM82.71,42.03v.7c0,.62-.64.7-.92.7s-.95-.09-.95-.71c0-.71.88-.74,1.09-.74.31,0,.47.03.55.05,0-.48-.24-.72-.76-.72-.3,0-.54.07-.65.1v-.23c.17-.06.41-.11.67-.11.68,0,.98.33.98.96"/>
    <path class="cls-3" d="M86.8,41.9v1.49h-.24v-1.49c0-.33-.13-.6-.63-.6-.31,0-.57.09-.75.18.05.12.08.26.08.43v1.49h-.24v-1.49c0-.33-.13-.6-.64-.6-.25,0-.49.07-.67.14v1.95h-.24v-2.09c.16-.09.52-.24.93-.24.27,0,.49.08.63.24.2-.1.52-.24.91-.24.53,0,.85.28.85.84"/>
  </g>
  <path class="cls-3" d="M87.64,43.39h.23v-2.29h-.23v2.29ZM87.63,40.68h.26v-.35h-.26v.35Z"/>
  <rect class="cls-3" x="88.73" y="40.22" width=".24" height="3.17"/>
  <g class="cls-9">
    <path class="cls-3" d="M91.34,41.11h.25l-.96,2.56c-.19.5-.46.63-.7.63-.09,0-.17-.02-.22-.04v-.22s.14.04.19.04c.36,0,.45-.41.58-.68l-.89-2.29h.25c.24.66.5,1.32.75,1.98l.73-1.98Z"/>
    <path class="cls-3" d="M96.89,41.9v1.49h-.24v-1.49c0-.33-.13-.6-.63-.6-.31,0-.57.09-.76.18.05.12.08.26.08.43v1.49h-.24v-1.49c0-.33-.13-.6-.64-.6-.25,0-.49.07-.67.14v1.95h-.24v-2.09c.16-.09.52-.24.93-.24.27,0,.49.08.63.24.2-.1.52-.24.91-.24.53,0,.85.28.85.84"/>
    <path class="cls-3" d="M99.22,42.23c-.06,0-.27-.04-.58-.04-.29,0-.84.07-.84.52,0,.42.44.5.72.5s.69-.08.69-.49v-.49ZM99.45,42.03v.7c0,.62-.64.7-.92.7s-.95-.09-.95-.71c0-.71.88-.74,1.09-.74.31,0,.47.03.55.05,0-.48-.24-.72-.76-.72-.3,0-.54.07-.65.1v-.23c.17-.06.41-.11.67-.11.68,0,.98.33.98.96"/>
    <path class="cls-3" d="M100.44,41.44v1.96h-.23v-2.11c.13-.06.55-.21,1.08-.22v.23c-.36,0-.67.09-.84.14"/>
  </g>
  <polygon class="cls-3" points="103.68 43.39 103.37 43.39 102.42 42.31 102.1 42.66 102.1 43.39 101.86 43.39 101.86 40.22 102.1 40.22 102.1 42.33 103.24 41.11 103.56 41.11 102.58 42.14 103.68 43.39"/>
  <g class="cls-10">
    <path class="cls-3" d="M107.1,42.23c-.06,0-.27-.04-.58-.04-.29,0-.84.07-.84.52,0,.42.44.5.72.5s.69-.08.69-.49v-.49ZM107.33,42.03v.7c0,.62-.64.7-.92.7s-.95-.09-.95-.71c0-.71.88-.74,1.09-.74.31,0,.47.03.55.05,0-.48-.24-.72-.76-.72-.3,0-.54.07-.65.1v-.23c.17-.06.41-.11.67-.11.68,0,.98.33.98.96"/>
    <path class="cls-3" d="M108.32,41.44v1.96h-.23v-2.11c.13-.06.55-.21,1.08-.22v.23c-.36,0-.67.09-.84.14"/>
    <path class="cls-3" d="M109.8,42.18h1.52c0-.11-.03-.89-.76-.89-.5,0-.74.33-.76.89M111.56,42.26c0,.1,0,.12,0,.12h-1.76c0,.08.02.15.04.2.07.44.38.61.82.61.28,0,.56-.06.75-.16v.24c-.21.1-.51.14-.76.14-.52,0-1.09-.22-1.09-1.13,0-.36.11-1.23,1.02-1.23.98,0,.99,1.04.99,1.19"/>
    <path class="cls-3" d="M114.65,43.16v.22c-.09.02-.19.04-.31.04-.17,0-.6-.02-.6-.59v-1.53h-.37v-.21h.37v-.65h.24v.65h.66v.21h-.66v1.52c0,.31.18.38.39.38.11,0,.2-.02.28-.05"/>
    <path class="cls-3" d="M115.49,41.44v1.96h-.23v-2.11c.13-.06.55-.21,1.08-.22v.23c-.36,0-.67.09-.84.14"/>
    <path class="cls-3" d="M118.38,42.23c-.06,0-.27-.04-.58-.04-.29,0-.84.07-.84.52,0,.42.44.5.72.5s.69-.08.69-.49v-.49ZM118.62,42.03v.7c0,.62-.64.7-.92.7s-.95-.09-.95-.71c0-.71.88-.74,1.09-.74.31,0,.47.03.55.05,0-.48-.24-.72-.76-.72-.3,0-.54.07-.65.1v-.23c.17-.06.41-.11.67-.11.68,0,.98.33.98.96"/>
    <path class="cls-3" d="M120.31,43.21c.51,0,.68-.24.68-.48v-1.32c-.19-.08-.42-.13-.65-.13-.5,0-.81.24-.81.94,0,.88.45.99.78.99M120.34,41.07c.23,0,.45.04.65.11v-.95h.23v2.5c0,.17-.08.71-.91.71-.39,0-1.01-.15-1.01-1.2,0-.96.56-1.16,1.05-1.16"/>
    <path class="cls-3" d="M122.17,42.18h1.52c0-.11-.03-.89-.76-.89-.5,0-.74.33-.76.89M123.94,42.26c0,.1,0,.12,0,.12h-1.76c0,.08.02.15.04.2.07.44.38.61.82.61.28,0,.56-.06.75-.16v.24c-.21.1-.51.14-.76.14-.52,0-1.09-.22-1.09-1.13,0-.36.11-1.23,1.02-1.23.98,0,.99,1.04.99,1.19"/>
    <path class="cls-3" d="M127.94,41.9v1.49h-.24v-1.49c0-.33-.13-.6-.63-.6-.31,0-.57.09-.76.18.05.12.08.26.08.43v1.49h-.24v-1.49c0-.33-.13-.6-.64-.6-.25,0-.49.07-.67.14v1.95h-.24v-2.09c.16-.09.52-.24.93-.24.27,0,.49.08.63.24.2-.1.52-.24.91-.24.53,0,.85.28.85.84"/>
    <path class="cls-3" d="M130.27,42.23c-.06,0-.27-.04-.58-.04-.29,0-.84.07-.84.52,0,.42.44.5.72.5s.69-.08.69-.49v-.49ZM130.5,42.03v.7c0,.62-.64.7-.92.7s-.95-.09-.95-.71c0-.71.88-.74,1.09-.74.31,0,.47.03.55.05,0-.48-.24-.72-.76-.72-.3,0-.54.07-.65.1v-.23c.17-.06.41-.11.67-.11.68,0,.98.33.98.96"/>
    <path class="cls-3" d="M131.49,41.44v1.96h-.23v-2.11c.13-.06.55-.21,1.08-.22v.23c-.36,0-.67.09-.84.14"/>
  </g>
  <polygon class="cls-3" points="134.73 43.39 134.42 43.39 133.47 42.31 133.15 42.66 133.15 43.39 132.91 43.39 132.91 40.22 133.15 40.22 133.15 42.33 134.29 41.11 134.61 41.11 133.63 42.14 134.73 43.39"/>
  <g class="cls-13">
    <path class="cls-3" d="M136.74,42.8c0,.37-.28.63-.83.63-.3,0-.54-.08-.72-.17v-.24c.21.11.45.18.71.18.35,0,.6-.13.6-.4,0-.68-1.3-.29-1.3-1.1,0-.33.22-.64.78-.64.24,0,.45.07.62.14v.23c-.15-.07-.35-.14-.6-.14-.3,0-.57.11-.57.41,0,.56,1.3.21,1.3,1.1"/>
    <path class="cls-3" d="M36.94,47.23c0-.72-.33-.97-.84-.97s-.84.25-.84.97.34.97.84.97.84-.24.84-.97M37.18,47.23c0,.97-.58,1.18-1.07,1.18s-1.07-.21-1.07-1.18.58-1.18,1.07-1.18,1.07.21,1.07,1.18"/>
    <path class="cls-3" d="M38.22,45.89v.21h.68v.21h-.68v2.08h-.24v-2.08h-.36v-.21h.36v-.21c0-.75.51-.75.68-.75.09,0,.18.01.25.03v.21c-.06-.01-.13-.02-.21-.02-.19,0-.48,0-.48.53"/>
    <path class="cls-3" d="M42.15,47.61c0,.48-.36.82-1.06.82-.39,0-.69-.1-.92-.21v-.25c.21.12.51.23.91.23.48,0,.84-.18.84-.58,0-.96-1.73-.44-1.73-1.49,0-.42.28-.82,1-.82.32,0,.59.08.81.18v.24c-.2-.1-.47-.19-.78-.19-.52,0-.78.23-.78.59,0,.79,1.73.33,1.73,1.49"/>
    <path class="cls-3" d="M44.7,47.23c0-.72-.33-.97-.84-.97s-.84.25-.84.97.34.97.84.97.84-.24.84-.97M44.93,47.23c0,.97-.58,1.18-1.07,1.18s-1.07-.21-1.07-1.18.58-1.18,1.07-1.18,1.07.21,1.07,1.18"/>
    <path class="cls-3" d="M47.5,46.89v1.49h-.24v-1.49c0-.33-.14-.6-.67-.6-.28,0-.53.07-.73.15v1.95h-.23v-2.09c.16-.09.54-.25.98-.25.56,0,.89.28.89.84"/>
    <path class="cls-3" d="M49.76,46.09h.25l-.96,2.56c-.19.5-.46.63-.7.63-.09,0-.17-.02-.22-.04v-.22s.14.04.19.04c.36,0,.45-.41.58-.68l-.89-2.29h.25c.24.66.5,1.32.75,1.98l.73-1.98Z"/>
    <path class="cls-3" d="M53.33,48.2c.3,0,.6-.06.88-.17v.22c-.29.1-.6.17-.91.17-.84,0-1.41-.44-1.41-1.56s.57-1.57,1.4-1.57c.32,0,.62.06.91.17v.22c-.28-.11-.58-.17-.88-.17-.72,0-1.2.35-1.2,1.34s.48,1.34,1.2,1.34"/>
    <path class="cls-3" d="M56.64,47.23c0-.72-.33-.97-.84-.97s-.84.25-.84.97.34.97.84.97.84-.24.84-.97M56.87,47.23c0,.97-.58,1.18-1.07,1.18s-1.07-.21-1.07-1.18.58-1.18,1.07-1.18,1.07.21,1.07,1.18"/>
    <path class="cls-3" d="M60.9,46.89v1.49h-.24v-1.49c0-.33-.13-.6-.63-.6-.31,0-.57.09-.75.18.05.12.08.26.08.43v1.49h-.24v-1.49c0-.33-.13-.6-.64-.6-.25,0-.49.07-.67.14v1.95h-.24v-2.09c.16-.09.52-.24.93-.24.27,0,.49.08.63.24.2-.1.52-.24.91-.24.53,0,.85.28.85.84"/>
    <path class="cls-3" d="M63.41,47.25c0-.87-.45-.99-.78-.99-.51,0-.68.25-.68.49v1.32c.19.09.42.13.65.13.5,0,.81-.24.81-.94M63.64,47.26c0,.95-.56,1.16-1.05,1.16-.23,0-.45-.04-.65-.11v.94h-.23v-2.49c0-.17.08-.71.91-.71.39,0,1.01.16,1.01,1.21"/>
    <path class="cls-3" d="M66.01,46.09h.24v1.34c0,.63-.35.98-.95.98s-.95-.35-.95-.98v-1.34h.24v1.35c0,.51.24.76.72.76s.72-.25.72-.76v-1.35Z"/>
    <path class="cls-3" d="M68.12,48.15v.22c-.09.02-.19.04-.31.04-.17,0-.6-.02-.6-.59v-1.53h-.37v-.21h.37v-.65h.24v.65h.66v.21h-.66v1.52c0,.31.18.38.39.38.11,0,.2-.02.28-.05"/>
    <path class="cls-3" d="M68.81,47.16h1.52c0-.11-.03-.89-.76-.89-.5,0-.74.33-.77.89M70.58,47.25c0,.1,0,.12,0,.12h-1.76c0,.08.02.15.04.2.07.44.38.61.82.61.28,0,.56-.06.75-.16v.24c-.21.1-.51.14-.76.14-.52,0-1.09-.22-1.09-1.13,0-.36.11-1.23,1.02-1.23.98,0,.99,1.04.99,1.19"/>
    <path class="cls-3" d="M71.48,46.42v1.96h-.23v-2.11c.13-.06.55-.21,1.08-.22v.23c-.36,0-.67.09-.84.14"/>
  </g>
  <polygon class="cls-3" points="74.46 46.74 75.92 46.74 75.92 46.97 74.46 46.97 74.46 48.16 76.11 48.16 76.11 48.38 74.23 48.38 74.23 45.35 76.11 45.35 76.11 45.56 74.46 45.56 74.46 46.74"/>
  <g class="cls-17">
    <path class="cls-3" d="M78.66,46.89v1.49h-.24v-1.49c0-.33-.14-.6-.67-.6-.28,0-.53.07-.73.15v1.95h-.23v-2.09c.16-.09.54-.25.98-.25.56,0,.89.28.89.84"/>
    <path class="cls-3" d="M80.47,48.15v.22c-.09.02-.19.04-.31.04-.17,0-.6-.02-.6-.59v-1.53h-.37v-.21h.37v-.65h.24v.65h.66v.21h-.66v1.52c0,.31.18.38.39.38.11,0,.2-.02.28-.05"/>
    <path class="cls-3" d="M81.16,47.16h1.52c0-.11-.03-.89-.76-.89-.5,0-.74.33-.77.89M82.92,47.25c0,.1,0,.12,0,.12h-1.76c0,.08.02.15.04.2.07.44.38.61.82.61.28,0,.56-.06.75-.16v.24c-.21.1-.51.14-.77.14-.52,0-1.09-.22-1.09-1.13,0-.36.11-1.23,1.02-1.23.98,0,.99,1.04.99,1.19"/>
    <path class="cls-3" d="M83.82,46.42v1.96h-.23v-2.11c.13-.06.55-.21,1.08-.22v.23c-.36,0-.67.09-.84.14"/>
    <path class="cls-3" d="M86.38,48.15v.22c-.09.02-.19.04-.31.04-.17,0-.6-.02-.6-.59v-1.53h-.37v-.21h.37v-.65h.24v.65h.66v.21h-.66v1.52c0,.31.18.38.39.38.11,0,.2-.02.28-.05"/>
    <path class="cls-3" d="M88.52,47.22c-.06,0-.27-.04-.58-.04-.29,0-.84.07-.84.52,0,.42.44.5.72.5s.69-.08.69-.49v-.49ZM88.75,47.01v.7c0,.62-.64.7-.92.7s-.95-.09-.95-.71c0-.71.88-.74,1.09-.74.31,0,.47.03.55.05,0-.48-.24-.72-.76-.72-.3,0-.54.07-.65.1v-.23c.17-.06.41-.11.67-.11.68,0,.98.33.98.96"/>
  </g>
  <path class="cls-3" d="M89.53,48.38h.23v-2.29h-.23v2.29ZM89.51,45.67h.26v-.35h-.26v.35Z"/>
  <g class="cls-21">
    <path class="cls-3" d="M92.45,46.89v1.49h-.24v-1.49c0-.33-.14-.6-.67-.6-.28,0-.53.07-.73.15v1.95h-.23v-2.09c.16-.09.54-.25.98-.25.56,0,.89.28.89.84"/>
    <path class="cls-3" d="M96.59,46.89v1.49h-.24v-1.49c0-.33-.13-.6-.63-.6-.31,0-.57.09-.75.18.05.12.08.26.08.43v1.49h-.24v-1.49c0-.33-.13-.6-.64-.6-.25,0-.49.07-.67.14v1.95h-.24v-2.09c.16-.09.52-.24.93-.24.27,0,.49.08.63.24.2-.1.52-.24.91-.24.53,0,.85.28.85.84"/>
    <path class="cls-3" d="M97.55,47.16h1.52c0-.11-.03-.89-.76-.89-.5,0-.74.33-.76.89M99.32,47.25c0,.1,0,.12,0,.12h-1.76c0,.08.02.15.04.2.07.44.38.61.82.61.28,0,.56-.06.75-.16v.24c-.21.1-.51.14-.76.14-.52,0-1.09-.22-1.09-1.13,0-.36.11-1.23,1.02-1.23.98,0,.99,1.04.99,1.19"/>
    <path class="cls-3" d="M101.86,46.89v1.49h-.24v-1.49c0-.33-.14-.6-.67-.6-.28,0-.53.07-.73.15v1.95h-.23v-2.09c.16-.09.54-.25.98-.25.56,0,.89.28.89.84"/>
    <path class="cls-3" d="M103.67,48.15v.22c-.09.02-.19.04-.31.04-.17,0-.6-.02-.6-.59v-1.53h-.37v-.21h.37v-.65h.24v.65h.66v.21h-.66v1.52c0,.31.18.38.39.38.11,0,.2-.02.28-.05"/>
  </g>
  <rect class="cls-3" x="105.22" y="45.14" width=".23" height="3.03"/>
  <g class="cls-16">
    <path class="cls-3" d="M108.17,46.68v1.49h-.24v-1.49c0-.33-.14-.6-.67-.6-.28,0-.53.07-.73.15v1.95h-.23v-2.09c.16-.09.54-.25.98-.25.56,0,.89.28.89.84"/>
    <path class="cls-3" d="M109.99,47.98c.22,0,.44-.04.64-.12v.23c-.21.08-.44.12-.67.12-.49,0-1.07-.2-1.07-1.18s.58-1.18,1.07-1.18c.23,0,.45.05.67.12v.23c-.2-.08-.43-.12-.64-.12-.52,0-.86.24-.86.96s.34.96.86.96"/>
  </g>
  <rect class="cls-3" x="111.36" y="47.8" width=".26" height=".37"/>
  <polygon class="cls-3" points="37.79 50.33 37.79 53.37 37.56 53.37 37.56 50.72 36.41 52.36 35.26 50.72 35.26 53.37 35.03 53.37 35.03 50.33 35.28 50.33 36.41 51.98 37.54 50.33 37.79 50.33"/>
  <g class="cls-15">
    <path class="cls-3" d="M40.16,52.21c-.06,0-.27-.04-.58-.04-.29,0-.84.07-.84.52,0,.42.44.5.72.5s.69-.08.69-.49v-.49ZM40.39,52v.7c0,.62-.64.7-.92.7s-.95-.09-.95-.71c0-.71.88-.74,1.09-.74.31,0,.47.03.55.05,0-.48-.24-.72-.76-.72-.3,0-.54.07-.65.1v-.23c.17-.06.41-.11.67-.11.68,0,.98.33.98.96"/>
    <path class="cls-3" d="M43.02,51.88v1.49h-.24v-1.49c0-.33-.14-.6-.67-.6-.28,0-.53.07-.73.15v1.95h-.23v-2.09c.16-.09.54-.25.98-.25.56,0,.89.28.89.84"/>
    <path class="cls-3" d="M45.47,51.08h.24v1.34c0,.63-.35.98-.95.98s-.95-.35-.95-.98v-1.34h.24v1.35c0,.51.24.76.72.76s.72-.25.72-.76v-1.35Z"/>
    <path class="cls-3" d="M46.94,50.87v.21h.68v.21h-.68v2.08h-.24v-2.08h-.36v-.21h.36v-.21c0-.75.51-.75.68-.75.09,0,.18.01.25.03v.21c-.06-.01-.13-.02-.21-.02-.19,0-.48,0-.48.53"/>
    <path class="cls-3" d="M49.65,52.21c-.06,0-.27-.04-.58-.04-.29,0-.84.07-.84.52,0,.42.44.5.72.5s.69-.08.69-.49v-.49ZM49.88,52v.7c0,.62-.64.7-.92.7s-.95-.09-.95-.71c0-.71.88-.74,1.09-.74.31,0,.47.03.55.05,0-.48-.24-.72-.76-.72-.3,0-.54.07-.65.1v-.23c.17-.06.41-.11.67-.11.68,0,.98.33.98.96"/>
    <path class="cls-3" d="M51.65,53.18c.22,0,.44-.04.64-.12v.23c-.21.08-.44.12-.67.12-.49,0-1.07-.2-1.07-1.18s.58-1.18,1.07-1.18c.23,0,.45.05.67.12v.23c-.2-.08-.43-.12-.64-.12-.52,0-.86.24-.86.96s.34.96.86.96"/>
    <path class="cls-3" d="M54.05,53.14v.22c-.09.02-.19.04-.31.04-.17,0-.6-.02-.6-.59v-1.53h-.37v-.21h.37v-.65h.24v.65h.66v.21h-.66v1.52c0,.31.18.38.39.38.11,0,.2-.02.28-.05"/>
    <path class="cls-3" d="M56.32,51.08h.24v1.34c0,.63-.35.98-.95.98s-.95-.35-.95-.98v-1.34h.24v1.35c0,.51.24.76.72.76s.72-.25.72-.76v-1.35Z"/>
    <path class="cls-3" d="M57.58,51.41v1.96h-.23v-2.11c.13-.06.55-.21,1.08-.22v.23c-.36,0-.67.09-.84.14"/>
    <path class="cls-3" d="M59.06,52.15h1.52c0-.11-.03-.89-.76-.89-.5,0-.74.33-.77.89M60.83,52.24c0,.1,0,.12,0,.12h-1.76c0,.08.02.15.04.2.07.44.38.61.82.61.28,0,.56-.06.75-.16v.24c-.21.1-.51.14-.77.14-.52,0-1.09-.22-1.09-1.13,0-.36.11-1.23,1.02-1.23.98,0,.99,1.04.99,1.19"/>
    <path class="cls-3" d="M62.46,53.19c.51,0,.68-.24.68-.48v-1.32c-.19-.08-.42-.13-.65-.13-.5,0-.81.24-.81.94,0,.88.45.99.78.99M62.49,51.04c.23,0,.45.04.65.11v-.95h.23v2.49c0,.18-.08.71-.91.71-.39,0-1.01-.15-1.01-1.2,0-.96.56-1.16,1.05-1.16"/>
    <path class="cls-3" d="M67.21,51.08h.24v1.34c0,.63-.35.98-.95.98s-.95-.35-.95-.98v-1.34h.24v1.35c0,.51.24.76.72.76s.72-.25.72-.76v-1.35Z"/>
    <path class="cls-3" d="M70.12,51.88v1.49h-.24v-1.49c0-.33-.14-.6-.67-.6-.28,0-.53.07-.73.15v1.95h-.23v-2.09c.16-.09.54-.25.98-.25.56,0,.89.28.89.84"/>
    <path class="cls-3" d="M71.86,53.19c.51,0,.68-.24.68-.48v-1.32c-.19-.08-.42-.13-.65-.13-.5,0-.81.24-.81.94,0,.88.45.99.78.99M71.89,51.04c.23,0,.45.04.65.11v-.95h.23v2.49c0,.18-.08.71-.91.71-.39,0-1.01-.15-1.01-1.2,0-.96.56-1.16,1.05-1.16"/>
    <path class="cls-3" d="M73.72,52.15h1.52c0-.11-.03-.89-.76-.89-.5,0-.74.33-.77.89M75.48,52.24c0,.1,0,.12,0,.12h-1.76c0,.08.02.15.04.2.07.44.38.61.82.61.28,0,.56-.06.75-.16v.24c-.21.1-.51.14-.76.14-.52,0-1.09-.22-1.09-1.13,0-.36.11-1.23,1.02-1.23.98,0,.99,1.04.99,1.19"/>
    <path class="cls-3" d="M76.38,51.41v1.96h-.23v-2.11c.13-.06.55-.21,1.08-.22v.23c-.36,0-.67.09-.84.14"/>
  </g>
  <rect class="cls-3" x="79.19" y="50.2" width=".24" height="3.17"/>
  <path class="cls-3" d="M80.29,53.37h.23v-2.29h-.23v2.29ZM80.27,50.65h.26v-.35h-.26v.35Z"/>
  <g class="cls-14">
    <path class="cls-3" d="M82.34,53.18c.22,0,.44-.04.64-.12v.23c-.21.08-.44.12-.67.12-.49,0-1.07-.2-1.07-1.18s.59-1.18,1.07-1.18c.23,0,.45.05.67.12v.23c-.2-.08-.43-.12-.64-.12-.52,0-.86.24-.86.96s.34.96.86.96"/>
    <path class="cls-3" d="M83.71,52.15h1.52c0-.11-.03-.89-.76-.89-.5,0-.74.33-.77.89M85.48,52.24c0,.1,0,.12,0,.12h-1.76c0,.08.02.15.04.2.07.44.38.61.82.61.28,0,.56-.06.75-.16v.24c-.21.1-.51.14-.77.14-.52,0-1.09-.22-1.09-1.13,0-.36.11-1.23,1.02-1.23.98,0,.99,1.04.99,1.19"/>
    <path class="cls-3" d="M88.02,51.88v1.49h-.24v-1.49c0-.33-.14-.6-.67-.6-.28,0-.53.07-.73.15v1.95h-.23v-2.09c.16-.09.54-.25.98-.25.56,0,.89.28.89.84"/>
    <path class="cls-3" d="M90.23,52.77c0,.37-.28.63-.83.63-.3,0-.54-.08-.72-.17v-.24c.21.11.45.18.71.18.35,0,.6-.13.6-.4,0-.68-1.3-.29-1.3-1.1,0-.33.22-.64.78-.64.24,0,.45.07.62.14v.23c-.15-.07-.35-.14-.59-.14-.3,0-.57.11-.57.41,0,.56,1.3.21,1.3,1.1"/>
    <path class="cls-3" d="M91.06,52.15h1.52c0-.11-.03-.89-.76-.89-.5,0-.74.33-.76.89M92.82,52.24c0,.1,0,.12,0,.12h-1.76c0,.08.02.15.04.2.07.44.38.61.82.61.28,0,.56-.06.75-.16v.24c-.21.1-.51.14-.76.14-.52,0-1.09-.22-1.09-1.13,0-.36.11-1.23,1.02-1.23.98,0,.99,1.04.99,1.19"/>
    <path class="cls-3" d="M95.02,50.87v.21h.68v.21h-.68v2.08h-.24v-2.08h-.36v-.21h.36v-.21c0-.75.51-.75.68-.75.09,0,.18.01.25.03v.21c-.06-.01-.13-.02-.21-.02-.19,0-.48,0-.48.53"/>
    <path class="cls-3" d="M96.46,51.41v1.96h-.23v-2.11c.13-.06.55-.21,1.08-.22v.23c-.36,0-.67.09-.84.14"/>
    <path class="cls-3" d="M99.59,52.22c0-.72-.33-.97-.84-.97s-.84.25-.84.97.34.97.84.97.84-.24.84-.97M99.82,52.22c0,.97-.58,1.18-1.07,1.18s-1.07-.21-1.07-1.18.58-1.18,1.07-1.18,1.07.21,1.07,1.18"/>
    <path class="cls-3" d="M103.85,51.88v1.49h-.24v-1.49c0-.33-.13-.6-.63-.6-.31,0-.57.09-.75.18.05.12.08.26.08.43v1.49h-.24v-1.49c0-.33-.13-.6-.64-.6-.25,0-.49.07-.67.14v1.95h-.24v-2.09c.16-.09.52-.24.93-.24.27,0,.49.08.63.24.2-.1.52-.24.91-.24.53,0,.85.28.85.84"/>
    <path class="cls-3" d="M107.97,52.59c0,.48-.36.82-1.06.82-.39,0-.69-.1-.92-.21v-.25c.21.12.51.23.91.23.48,0,.84-.18.84-.58,0-.96-1.73-.44-1.73-1.49,0-.42.28-.82,1-.82.32,0,.59.08.81.18v.24c-.2-.1-.47-.19-.78-.19-.52,0-.78.23-.78.59,0,.79,1.73.33,1.73,1.49"/>
    <path class="cls-3" d="M110.52,52.22c0-.72-.33-.97-.84-.97s-.84.25-.84.97.34.97.84.97.84-.24.84-.97M110.75,52.22c0,.97-.58,1.18-1.07,1.18s-1.07-.21-1.07-1.18.58-1.18,1.07-1.18,1.07.21,1.07,1.18"/>
    <path class="cls-3" d="M113.32,51.88v1.49h-.24v-1.49c0-.33-.14-.6-.67-.6-.28,0-.53.07-.73.15v1.95h-.23v-2.09c.16-.09.54-.25.98-.25.56,0,.89.28.89.84"/>
    <path class="cls-3" d="M115.59,51.08h.25l-.96,2.56c-.19.5-.46.63-.7.63-.09,0-.17-.02-.22-.04v-.22s.14.04.19.04c.36,0,.45-.41.58-.68l-.89-2.29h.25c.24.66.5,1.32.75,1.98l.73-1.98Z"/>
    <path class="cls-3" d="M36.46,58.01c.3,0,.6-.06.88-.17v.22c-.29.1-.6.17-.91.17-.84,0-1.41-.44-1.41-1.56s.57-1.57,1.4-1.57c.32,0,.62.06.91.17v.22c-.28-.11-.58-.17-.88-.17-.72,0-1.2.35-1.2,1.34s.48,1.34,1.2,1.34"/>
    <path class="cls-3" d="M39.78,57.04c0-.72-.33-.97-.84-.97s-.84.25-.84.97.34.97.84.97.84-.24.84-.97M40.01,57.04c0,.97-.58,1.18-1.07,1.18s-1.07-.21-1.07-1.18.58-1.18,1.07-1.18,1.07.21,1.07,1.18"/>
    <path class="cls-3" d="M44.04,56.7v1.49h-.24v-1.49c0-.33-.13-.6-.63-.6-.31,0-.57.09-.76.18.05.12.08.26.08.43v1.49h-.24v-1.49c0-.33-.13-.6-.64-.6-.25,0-.49.07-.67.14v1.95h-.24v-2.09c.16-.09.52-.24.93-.24.27,0,.49.08.63.24.2-.1.52-.24.91-.24.53,0,.85.28.85.84"/>
    <path class="cls-3" d="M46.55,57.06c0-.87-.45-.99-.78-.99-.51,0-.68.25-.68.49v1.32c.19.09.42.13.65.13.51,0,.81-.24.81-.94M46.78,57.07c0,.95-.56,1.16-1.05,1.16-.23,0-.45-.04-.65-.11v.94h-.23v-2.49c0-.17.08-.71.91-.71.39,0,1.01.16,1.01,1.21"/>
    <path class="cls-3" d="M49.15,55.9h.24v1.34c0,.63-.35.98-.95.98s-.95-.35-.95-.98v-1.34h.24v1.35c0,.51.24.76.72.76s.72-.25.72-.76v-1.35Z"/>
    <path class="cls-3" d="M51.26,57.96v.22c-.09.02-.19.04-.31.04-.17,0-.6-.02-.6-.59v-1.53h-.37v-.21h.37v-.65h.24v.65h.66v.21h-.66v1.52c0,.31.18.38.39.38.11,0,.2-.02.28-.05"/>
    <path class="cls-3" d="M51.95,56.97h1.52c0-.11-.03-.89-.76-.89-.5,0-.74.33-.77.89M53.72,57.06c0,.1,0,.12,0,.12h-1.76c0,.08.02.15.04.2.07.44.38.61.82.61.28,0,.56-.06.75-.16v.24c-.21.1-.51.14-.76.14-.52,0-1.09-.22-1.09-1.13,0-.36.11-1.23,1.02-1.23.98,0,.99,1.04.99,1.19"/>
    <path class="cls-3" d="M54.62,56.23v1.96h-.23v-2.11c.13-.06.55-.21,1.08-.22v.23c-.36,0-.67.09-.84.14"/>
  </g>
  <polygon class="cls-3" points="57.27 56.53 58.72 56.53 58.72 56.76 57.27 56.76 57.27 57.95 58.92 57.95 58.92 58.17 57.04 58.17 57.04 55.14 58.92 55.14 58.92 55.35 57.27 55.35 57.27 56.53"/>
  <g class="cls-18">
    <path class="cls-3" d="M61.47,56.68v1.49h-.24v-1.49c0-.33-.14-.6-.67-.6-.28,0-.53.07-.73.15v1.95h-.23v-2.09c.16-.09.54-.25.98-.25.56,0,.89.28.89.84"/>
    <path class="cls-3" d="M63.27,57.94v.22c-.09.02-.19.04-.31.04-.17,0-.6-.02-.6-.59v-1.53h-.37v-.21h.37v-.65h.24v.65h.66v.21h-.66v1.52c0,.31.18.38.39.38.11,0,.2-.02.28-.05"/>
    <path class="cls-3" d="M63.97,56.95h1.52c0-.11-.03-.89-.76-.89-.5,0-.74.33-.77.89M65.73,57.04c0,.1,0,.12,0,.12h-1.76c0,.08.02.15.04.2.07.44.38.61.82.61.28,0,.56-.06.75-.16v.24c-.21.1-.51.14-.76.14-.52,0-1.09-.22-1.09-1.13,0-.36.11-1.23,1.02-1.23.98,0,.99,1.04.99,1.19"/>
    <path class="cls-3" d="M66.63,56.21v1.96h-.23v-2.11c.13-.06.55-.21,1.08-.22v.23c-.36,0-.67.09-.84.14"/>
    <path class="cls-3" d="M69.18,57.94v.22c-.09.02-.19.04-.31.04-.17,0-.6-.02-.6-.59v-1.53h-.37v-.21h.37v-.65h.24v.65h.66v.21h-.66v1.52c0,.31.18.38.39.38.11,0,.2-.02.28-.05"/>
    <path class="cls-3" d="M71.33,57.01c-.06,0-.27-.04-.58-.04-.29,0-.84.07-.84.52,0,.42.44.5.72.5s.69-.08.69-.49v-.49ZM71.56,56.8v.7c0,.62-.64.7-.92.7s-.95-.09-.95-.71c0-.71.88-.74,1.09-.74.31,0,.47.03.55.05,0-.48-.24-.72-.76-.72-.3,0-.54.07-.65.1v-.23c.17-.06.41-.11.67-.11.68,0,.98.33.98.96"/>
  </g>
  <path class="cls-3" d="M72.34,58.17h.23v-2.29h-.23v2.29ZM72.33,55.46h.26v-.35h-.26v.35Z"/>
  <g class="cls-20">
    <path class="cls-3" d="M75.26,56.68v1.49h-.24v-1.49c0-.33-.14-.6-.67-.6-.28,0-.53.07-.73.15v1.95h-.23v-2.09c.16-.09.54-.25.98-.25.56,0,.89.28.89.84"/>
    <path class="cls-3" d="M79.4,56.68v1.49h-.24v-1.49c0-.33-.13-.6-.63-.6-.31,0-.57.09-.76.18.05.12.08.26.08.43v1.49h-.24v-1.49c0-.33-.13-.6-.64-.6-.25,0-.49.07-.67.14v1.95h-.24v-2.09c.16-.09.52-.24.93-.24.27,0,.49.08.63.24.2-.1.52-.24.91-.24.53,0,.85.28.85.84"/>
    <path class="cls-3" d="M80.37,56.95h1.52c0-.11-.03-.89-.76-.89-.5,0-.74.33-.77.89M82.13,57.04c0,.1,0,.12,0,.12h-1.76c0,.08.02.15.04.2.07.44.38.61.82.61.28,0,.56-.06.75-.16v.24c-.21.1-.51.14-.77.14-.52,0-1.09-.22-1.09-1.13,0-.36.11-1.23,1.02-1.23.98,0,.99,1.04.99,1.19"/>
    <path class="cls-3" d="M84.67,56.68v1.49h-.24v-1.49c0-.33-.14-.6-.67-.6-.28,0-.53.07-.73.15v1.95h-.23v-2.09c.16-.09.54-.25.98-.25.56,0,.89.28.89.84"/>
    <path class="cls-3" d="M86.48,57.94v.22c-.09.02-.19.04-.31.04-.17,0-.6-.02-.6-.59v-1.53h-.37v-.21h.37v-.65h.24v.65h.66v.21h-.66v1.52c0,.31.18.38.39.38.11,0,.2-.02.28-.05"/>
    <path class="cls-3" d="M88.95,56.99h1.25l-.63-1.57-.62,1.57ZM90.92,58.17h-.25c-.13-.32-.25-.64-.39-.96h-1.43l-.38.96h-.26c.42-1.01.82-2.02,1.24-3.03h.23l1.23,3.03Z"/>
    <path class="cls-3" d="M94.87,56.68v1.49h-.24v-1.49c0-.33-.13-.6-.63-.6-.31,0-.57.09-.75.18.05.12.08.26.08.43v1.49h-.24v-1.49c0-.33-.13-.6-.64-.6-.25,0-.49.07-.67.14v1.95h-.24v-2.09c.16-.09.52-.24.93-.24.27,0,.49.08.63.24.2-.1.52-.24.91-.24.53,0,.85.28.85.84"/>
    <path class="cls-3" d="M95.84,56.95h1.52c0-.11-.03-.89-.76-.89-.5,0-.74.33-.76.89M97.61,57.04c0,.1,0,.12,0,.12h-1.76c0,.08.02.15.04.2.07.44.38.61.82.61.28,0,.56-.06.75-.16v.24c-.21.1-.51.14-.76.14-.52,0-1.09-.22-1.09-1.13,0-.36.11-1.23,1.02-1.23.98,0,.99,1.04.99,1.19"/>
    <path class="cls-3" d="M98.51,56.21v1.96h-.23v-2.11c.13-.06.55-.21,1.08-.22v.23c-.36,0-.67.09-.84.14"/>
  </g>
  <path class="cls-3" d="M99.94,58.17h.23v-2.29h-.23v2.29ZM99.92,55.46h.26v-.35h-.26v.35Z"/>
  <g class="cls-19">
    <path class="cls-3" d="M101.99,57.98c.22,0,.44-.04.64-.12v.23c-.21.08-.44.12-.67.12-.49,0-1.07-.2-1.07-1.18s.58-1.18,1.07-1.18c.23,0,.45.05.67.12v.23c-.2-.08-.42-.12-.64-.12-.52,0-.86.24-.86.96s.34.96.86.96"/>
    <path class="cls-3" d="M104.82,57.01c-.06,0-.27-.04-.58-.04-.29,0-.84.07-.84.52,0,.42.44.5.72.5s.69-.08.69-.49v-.49ZM105.05,56.8v.7c0,.62-.64.7-.92.7s-.95-.09-.95-.71c0-.71.88-.74,1.09-.74.31,0,.47.03.55.05,0-.48-.24-.72-.76-.72-.3,0-.54.07-.65.1v-.23c.17-.06.41-.11.67-.11.68,0,.98.33.98.96"/>
  </g>
  <rect class="cls-3" x="105.89" y="57.8" width=".26" height=".37"/>
</svg>