<?xml version="1.0" encoding="UTF-8"?>
<svg id="Capa_1" data-name="Capa 1" xmlns="http://www.w3.org/2000/svg" viewBox="0 0 148.73 97.98">
  <defs>
    <style>
      .cls-1 {
        fill: #222221;
      }

      .cls-1, .cls-2 {
        stroke-width: 0px;
      }

      .cls-2 {
        fill: #030402;
      }
    </style>
  </defs>
  <g>
    <path class="cls-2" d="M18.03,56.02s.06.01.08.01c.86,0,1.72,0,2.58,0,.34,0,.67-.09.96-.28.45-.29.58-.7.53-1.18-.05-.43-.31-.73-.73-.87-.24-.08-.49-.14-.74-.15-.83-.02-1.66-.02-2.49-.02-.06,0-.12,0-.18.01v2.49ZM18.04,56.79s-.02.04-.02.06c0,.87,0,1.74,0,2.61,0,.12.07.12.16.12.78,0,1.57,0,2.35,0,.46,0,.91-.08,1.31-.32.47-.29.64-.72.61-1.22-.02-.53-.32-.9-.84-1.07-.29-.09-.61-.16-.92-.17-.84-.02-1.67,0-2.51,0-.05,0-.09,0-.14,0M17.12,60.33v-3.54h-1.7c.21-.27.38-.49.57-.71.03-.03.11-.04.16-.04.31,0,.63,0,.96,0v-3.28c.08,0,.14-.01.2-.01,1.04,0,2.08,0,3.12,0,.49,0,.97.06,1.42.25.71.3,1.1.82,1.19,1.53.1.75-.19,1.33-.86,1.75-.02.01-.04.03-.05.04,0,0,0,0-.01.03.03.02.05.04.08.05.77.39,1.17,1,1.13,1.83-.03.81-.43,1.41-1.2,1.79-.43.21-.89.32-1.37.33-1.18.02-2.36,0-3.55,0-.03,0-.06,0-.11-.01"/>
    <path class="cls-2" d="M24.68,56.68c0,.35.08.82.26,1.27.45,1.1,1.43,1.75,2.69,1.79,1.15.04,2.2-.58,2.68-1.62.49-1.06.49-2.13-.01-3.19-.94-1.97-3.66-2.02-4.85-.61-.55.65-.76,1.4-.76,2.36M23.77,56.54c.01-.77.17-1.51.58-2.19.64-1.05,1.61-1.63,2.88-1.76,1.24-.12,2.33.19,3.21,1.04.58.57.91,1.26,1.05,2.03.16.93.1,1.84-.31,2.71-.57,1.21-1.56,1.93-2.97,2.09-1.34.15-2.52-.19-3.43-1.17-.57-.62-.86-1.35-.95-2.16-.02-.2-.03-.4-.05-.6"/>
    <path class="cls-2" d="M16.63,60.35c-.36,0-.68,0-.99,0-.06,0-.12-.08-.16-.13-.79-1-1.59-2.01-2.38-3.01-.03-.04-.07-.08-.12-.14-.05.07-.1.12-.14.17-.79,1-1.58,2-2.37,3-.07.09-.15.14-.28.13-.28,0-.56,0-.87,0,.06-.08.11-.14.15-.2.95-1.21,1.91-2.42,2.87-3.63.09-.12.09-.19,0-.3-.87-1.09-1.74-2.19-2.61-3.29-.04-.05-.08-.1-.14-.18.36,0,.68,0,1,0,.05,0,.11.08.15.13.69.87,1.38,1.75,2.08,2.62.05.06.1.12.16.2.05-.06.09-.11.13-.15.7-.88,1.4-1.76,2.09-2.65.1-.12.2-.17.35-.16.25.01.51,0,.81,0-.05.07-.09.13-.13.18-.87,1.1-1.74,2.2-2.61,3.29-.09.11-.09.19,0,.3.96,1.22,1.92,2.44,2.89,3.66.03.04.07.09.13.17"/>
    <path class="cls-2" d="M31.04,52.74c.34,0,.64,0,.94,0,.07,0,.15.06.19.12.69.87,1.39,1.75,2.08,2.62.05.07.11.13.18.22.05-.06.1-.11.14-.16.7-.89,1.41-1.77,2.1-2.66.08-.1.16-.14.29-.14.27,0,.54,0,.86,0-.06.08-.1.14-.15.2-.86,1.09-1.72,2.18-2.59,3.26-.1.13-.09.21,0,.33.96,1.2,1.91,2.41,2.86,3.62.04.05.08.11.15.19-.36,0-.68,0-1,0-.05,0-.11-.08-.15-.13-.79-.99-1.57-1.99-2.36-2.99-.04-.05-.09-.1-.14-.18-.05.07-.1.12-.14.17-.78,1-1.57,1.99-2.35,2.99-.08.11-.17.16-.31.15-.27,0-.54,0-.85,0,.06-.07.09-.12.13-.17.96-1.22,1.92-2.45,2.88-3.66.1-.12.08-.19,0-.3-.87-1.1-1.74-2.2-2.61-3.29-.04-.05-.07-.1-.13-.18"/>
    <path class="cls-2" d="M16.82,43.74c.05-.3.1-.59.15-.89.24-1.3.83-2.44,1.8-3.39.16-.16.34-.22.56-.12.26.11.54.21.78.36.84.53,1.14.85,1.73,1.29-.08.09-.13.15-.18.21-1.16,1.35-2.16,2.79-2.94,4.36-.27.54-.47,1.1-.54,1.69-.02.18,0,.37,0,.54-.55-.7-.94-1.5-1.14-2.38-.08-.36-.12-.74-.19-1.11,0-.04-.03-.08-.04-.13v-.44Z"/>
    <path class="cls-2" d="M23.84,50.45c-1.78-.02-3.19-.52-4.45-1.45-.32-.24-.41-.54-.33-.91.12-.54.4-1.01.73-1.46,1.03-1.44,2.31-2.66,3.73-3.77.12-.1.24-.18.4-.04,1.49,1.24,2.93,2.52,3.97,4.14.23.36.42.73.52,1.15.08.36,0,.65-.32.88-.94.69-1.98,1.18-3.17,1.35-.41.06-.84.09-1.08.11"/>
    <path class="cls-2" d="M29.25,47.8c.11-.73-.12-1.4-.43-2.05-.79-1.65-1.84-3.16-3.04-4.58-.04-.04-.07-.09-.11-.14.01-.02.02-.04.03-.06.56-.43,1.14-1,1.68-1.29.53-.3.56-.25.85-.37.16-.07.3-.02.4.1.31.36.66.71.92,1.1.51.74.84,1.55.96,2.43.25,1.73-.11,3.34-1.18,4.79-.01.02-.03.04-.04.05,0,0-.02,0-.04.02"/>
    <path class="cls-2" d="M20.31,38.32c1.98-1.15,4.9-1.14,6.89.04-.64-.07-1.22.05-1.78.24-.5.17-.98.38-1.46.58-.18.08-.33.08-.52,0-.71-.36-1.46-.65-2.26-.79-.28-.05-.58-.05-.88-.07"/>
  </g>
  <path class="cls-1" d="M72.49,57.65h.69v.69h-.69v-.69ZM71.98,57.97c-.05.09-.11.17-.19.23-.08.06-.17.11-.28.13-.11.03-.22.05-.35.05-.16,0-.33-.03-.5-.08-.17-.06-.33-.14-.49-.26l.28-.43c.13.09.25.16.38.21.12.05.24.07.35.07.1,0,.16-.02.21-.05.04-.03.07-.07.07-.12h0s-.01-.07-.04-.1c-.02-.03-.06-.05-.1-.07-.04-.02-.1-.04-.15-.05-.06-.02-.12-.03-.18-.05-.08-.02-.16-.05-.24-.08-.08-.03-.16-.08-.22-.13s-.12-.12-.16-.2c-.04-.08-.06-.17-.06-.28h0c0-.13.02-.23.07-.32.05-.09.11-.17.18-.23.08-.06.16-.11.27-.14.1-.03.21-.05.33-.05.15,0,.29.02.44.07.15.05.29.11.42.2l-.25.45c-.12-.07-.23-.12-.33-.16-.11-.04-.21-.06-.29-.06s-.14.02-.18.05c-.04.03-.06.07-.06.11h0s.01.07.04.09c.02.02.06.05.1.07.04.02.09.04.15.06.05.02.11.04.18.06.08.03.16.06.24.09s.16.08.22.13c.07.05.12.11.16.19.04.07.06.16.06.27h0c0,.14-.02.25-.07.34M69.09,56.65c-.08-.09-.19-.14-.33-.14s-.25.05-.33.13c-.08.09-.14.21-.17.36h.98c-.02-.15-.07-.26-.15-.35M69.88,57.33s0,.05,0,.08h-1.6c.03.15.1.26.19.34.1.08.22.11.37.11.11,0,.21-.02.29-.06.09-.04.17-.1.27-.18l.37.33c-.11.13-.24.24-.39.32-.16.08-.34.11-.55.11-.17,0-.33-.03-.48-.09-.15-.06-.28-.14-.38-.25-.11-.11-.19-.23-.25-.38-.06-.14-.09-.31-.09-.48h0c0-.17.03-.33.08-.47.06-.15.13-.27.23-.38.1-.11.22-.2.36-.26.14-.06.29-.09.46-.09.19,0,.36.03.5.1.14.07.26.16.35.28.09.12.16.25.21.4.04.15.07.31.07.47h0s0,.07,0,.09M66.47,56.04h.65v2.3h-.65v-2.3ZM66.45,55.2h.69v.58h-.69v-.58ZM65.22,58.34v-1.28c0-.15-.03-.27-.1-.35-.07-.08-.17-.12-.29-.12s-.22.04-.3.12c-.07.08-.11.2-.11.35v1.28h-.65v-2.3h.65v.33s.08-.1.12-.14c.04-.05.09-.08.15-.12.05-.03.12-.06.18-.08.07-.02.14-.03.22-.03.25,0,.44.08.58.23.14.15.2.36.2.63v1.49h-.65ZM62.58,57.41c-.06-.03-.12-.05-.19-.06s-.15-.02-.22-.02c-.14,0-.25.03-.33.08-.08.05-.12.13-.12.24h0c0,.1.03.17.1.22.07.05.15.07.26.07.15,0,.28-.04.37-.11.09-.07.14-.17.14-.29v-.12ZM62.57,58.34v-.25c-.08.09-.18.16-.29.21-.11.05-.25.08-.41.08-.11,0-.21-.02-.31-.05-.1-.03-.18-.08-.25-.13-.07-.06-.13-.13-.17-.22-.04-.09-.06-.19-.06-.3h0c0-.13.02-.24.07-.33.05-.09.11-.17.19-.23.08-.06.18-.11.29-.13.11-.03.24-.05.38-.05.12,0,.22,0,.31.03.09.02.17.04.25.07v-.04c0-.14-.04-.24-.12-.31-.08-.07-.21-.11-.37-.11-.13,0-.24.01-.33.03-.1.02-.2.05-.3.09l-.16-.5c.12-.05.26-.1.39-.13.14-.03.3-.05.5-.05.36,0,.62.09.78.26.16.17.24.42.24.73v1.34h-.63ZM60.09,57.18c0-.1-.01-.18-.04-.26-.03-.08-.07-.15-.12-.2-.05-.06-.11-.1-.18-.13-.07-.03-.14-.05-.22-.05s-.15.02-.22.05c-.07.03-.12.07-.17.13-.05.06-.09.12-.12.2-.03.08-.05.17-.05.26h0c0,.1.01.19.05.27.03.08.07.15.12.2.05.06.11.1.17.13.07.03.14.05.22.05s.15-.02.22-.05c.07-.03.13-.07.18-.13.05-.06.09-.12.12-.2.03-.08.04-.17.04-.26h0ZM60.65,57.7c-.06.15-.14.27-.23.37-.1.1-.21.18-.33.23-.12.05-.26.08-.39.08-.18,0-.32-.03-.43-.1-.11-.07-.21-.15-.29-.24v.98h-.65v-2.99h.65v.33c.08-.11.18-.2.29-.27.11-.07.26-.1.43-.1.13,0,.26.03.39.08.13.05.24.13.33.23.1.1.17.23.23.37.06.15.09.32.09.51h0c0,.2-.03.37-.09.52M57.11,58.34v-1.28c0-.15-.03-.27-.1-.35-.07-.08-.16-.12-.28-.12s-.22.04-.29.12c-.07.08-.1.2-.1.35v1.28h-.65v-1.28c0-.15-.03-.27-.1-.35-.07-.08-.16-.12-.28-.12s-.22.04-.29.12c-.07.08-.11.2-.11.35v1.28h-.65v-2.3h.65v.33s.08-.1.12-.14c.04-.05.09-.08.15-.12.05-.03.12-.06.18-.08.07-.02.14-.03.23-.03.15,0,.28.03.39.09.11.06.2.15.26.27.1-.12.21-.21.33-.27.12-.06.26-.09.42-.09.24,0,.43.07.57.21.14.14.21.35.21.63v1.5h-.65ZM53.13,57.19c0-.09-.01-.17-.04-.24-.03-.08-.07-.14-.12-.2-.06-.06-.12-.11-.19-.14-.08-.03-.16-.05-.24-.05-.09,0-.18.02-.25.05-.07.03-.13.08-.19.14-.05.06-.09.12-.12.2-.03.08-.04.16-.04.24h0c0,.09.01.17.04.25.03.08.07.14.12.2.05.06.12.11.19.14.07.03.16.05.25.05s.18-.02.25-.05c.07-.03.13-.08.19-.13.05-.06.09-.12.12-.2.03-.08.04-.16.04-.24h0ZM53.68,57.66c-.06.14-.15.27-.26.38-.11.11-.24.19-.4.26s-.32.1-.5.1-.34-.03-.49-.09c-.15-.06-.28-.15-.39-.25-.11-.11-.2-.23-.26-.38-.06-.14-.09-.3-.09-.47h0c0-.17.03-.33.09-.47.06-.14.15-.27.26-.38.11-.11.24-.2.4-.26.15-.06.32-.09.5-.09s.34.03.49.09c.15.06.28.15.39.25.11.11.2.23.26.38.06.14.09.3.09.47h0c0,.17-.03.33-.09.47M50.59,58.27c-.14.08-.33.12-.56.12-.17,0-.33-.03-.48-.1-.15-.06-.27-.15-.38-.26-.11-.11-.19-.23-.25-.38-.06-.14-.09-.3-.09-.46h0c0-.17.03-.33.09-.47.06-.15.14-.27.25-.38.11-.11.23-.2.38-.26.15-.06.31-.09.49-.09.22,0,.4.03.54.1.14.07.27.16.38.28l-.4.43c-.07-.08-.15-.14-.23-.18-.08-.05-.18-.07-.29-.07-.08,0-.16.02-.23.05-.07.03-.13.08-.18.14-.05.06-.09.12-.12.2-.03.08-.04.16-.04.24h0c0,.1.01.18.04.26.03.08.07.14.12.2.05.06.11.1.18.13.07.03.15.05.24.05.11,0,.2-.02.29-.07.08-.04.16-.1.24-.18l.38.39c-.11.12-.24.22-.38.3M47.16,55.74s-.1-.01-.15-.01c-.16,0-.24.08-.24.25v.09h.53v.53h-.52v1.74h-.65v-1.74h-.27v-.54h.27v-.15c0-.25.06-.44.18-.56.12-.12.3-.18.53-.18.1,0,.19,0,.26.02.07.01.14.03.2.05v.54s-.1-.03-.14-.04M44.9,57.19c0-.09-.01-.17-.04-.24-.03-.08-.07-.14-.12-.2-.05-.06-.12-.11-.19-.14-.07-.03-.16-.05-.24-.05-.09,0-.18.02-.25.05-.07.03-.14.08-.19.14-.05.06-.09.12-.12.2-.03.08-.04.16-.04.24h0c0,.09.01.17.04.25.03.08.07.14.12.2.06.06.12.11.19.14.07.03.16.05.25.05s.18-.02.25-.05c.07-.03.14-.08.19-.13.05-.06.09-.12.12-.2.03-.08.04-.16.04-.24h0ZM45.45,57.66c-.06.14-.15.27-.26.38-.11.11-.24.19-.4.26-.15.06-.32.1-.5.1s-.34-.03-.49-.09c-.15-.06-.28-.15-.39-.25-.11-.11-.2-.23-.26-.38-.06-.14-.09-.3-.09-.47h0c0-.17.03-.33.09-.47.06-.14.15-.27.26-.38.11-.11.24-.2.4-.26s.32-.09.5-.09.34.03.49.09c.15.06.28.15.39.25.11.11.2.23.26.38.06.14.09.3.09.47h0c0,.17-.03.33-.09.47"/>
  <path class="cls-1" d="M138.75,52.03c0-.1-.01-.18-.04-.26-.03-.08-.07-.15-.12-.2-.05-.06-.11-.1-.18-.13-.07-.03-.14-.05-.22-.05s-.15.02-.22.05c-.07.03-.13.07-.18.13-.05.06-.09.12-.12.2-.03.08-.04.17-.04.26h0c0,.1.01.19.04.27.03.08.07.15.12.2s.11.1.18.13c.07.03.14.05.22.05s.15-.02.22-.05c.07-.03.13-.07.18-.13.05-.06.09-.12.12-.2.03-.08.04-.16.04-.26h0ZM139.32,52.55c-.06.15-.14.27-.23.37-.1.1-.21.18-.33.23-.13.05-.26.08-.4.08-.17,0-.32-.03-.43-.1-.11-.07-.21-.15-.29-.24v.98h-.65v-2.99h.65v.33c.08-.11.18-.2.29-.27.11-.07.26-.1.43-.1.13,0,.26.03.39.08.13.05.24.13.34.23.1.1.18.23.23.37.06.15.09.32.09.51h0c0,.2-.03.37-.09.52M135.75,53.19v-.33s-.08.1-.12.14c-.04.05-.09.09-.15.12-.06.03-.11.06-.18.08-.07.02-.14.03-.22.03-.25,0-.44-.08-.58-.23-.14-.15-.2-.36-.2-.63v-1.49h.65v1.28c0,.15.03.27.1.35.07.08.17.12.29.12s.23-.04.3-.12c.07-.08.11-.19.11-.35v-1.28h.65v2.3h-.65ZM133.2,52.04c0-.09-.01-.17-.04-.24-.03-.08-.07-.14-.12-.2-.05-.06-.12-.11-.19-.14-.07-.03-.16-.05-.24-.05-.09,0-.18.02-.25.05-.07.03-.14.08-.19.14-.05.06-.09.12-.12.2-.03.08-.04.16-.04.24h0c0,.09.01.17.04.25.03.08.07.14.12.2.05.06.12.11.19.14.07.03.15.05.25.05s.18-.02.25-.05c.07-.03.13-.08.19-.14.05-.06.09-.12.12-.2.03-.08.04-.16.04-.24h0ZM133.75,52.51c-.06.14-.15.27-.26.38-.11.11-.24.19-.39.26s-.32.09-.5.09-.34-.03-.49-.09c-.15-.06-.28-.15-.39-.25-.11-.11-.2-.23-.26-.38-.06-.14-.09-.3-.09-.47h0c0-.17.03-.33.09-.47.06-.14.15-.27.26-.38.11-.11.24-.19.4-.26.15-.06.32-.09.5-.09s.34.03.49.09c.15.06.28.15.39.25s.2.23.26.38c.06.15.09.3.09.47h0c0,.17-.03.33-.09.47M131.02,51.53c-.22,0-.39.07-.51.2-.12.13-.19.34-.19.61v.85h-.65v-2.3h.65v.46c.07-.16.16-.28.27-.38.11-.09.27-.14.46-.13v.68h-.03ZM128.45,51.92c0-.08-.01-.15-.04-.21s-.07-.12-.12-.17c-.05-.05-.11-.08-.18-.11-.07-.03-.14-.04-.22-.04s-.15.01-.22.04c-.07.02-.13.06-.18.11-.05.05-.09.1-.12.17-.03.07-.04.14-.04.21h0c0,.17.05.3.16.39.1.1.24.15.4.15.08,0,.15-.01.22-.04.07-.03.13-.06.18-.11.05-.05.09-.1.12-.17.03-.06.04-.14.04-.21h0ZM129.01,53.22c-.05.15-.13.28-.24.38-.11.1-.24.17-.4.21-.16.05-.35.07-.56.07-.19,0-.37-.02-.54-.06-.17-.04-.33-.1-.48-.18l.22-.49c.12.07.24.12.36.16.12.04.26.06.41.06.22,0,.39-.05.5-.16.11-.11.16-.26.16-.47v-.11c-.1.12-.2.21-.32.28-.11.07-.26.1-.43.1-.14,0-.26-.02-.39-.07s-.23-.12-.33-.21c-.09-.09-.17-.2-.23-.34-.06-.13-.08-.28-.08-.46h0c0-.18.03-.33.09-.47.06-.13.13-.24.23-.34.09-.09.2-.16.33-.21.12-.05.25-.07.38-.07.18,0,.32.03.44.1.11.07.22.15.3.24v-.3h.65v1.78c0,.22-.03.4-.08.56M124.77,53.19c-.08.02-.18.04-.29.04-.1,0-.19,0-.27-.03-.08-.02-.15-.06-.21-.11-.06-.05-.11-.12-.14-.21s-.05-.2-.05-.33v-1.09h-.28v-.56h.28v-.59h.65v.59h.54v.56h-.54v.98c0,.15.07.22.21.22.11,0,.22-.03.32-.08v.52c-.07.04-.15.07-.23.1M123.21,50.59s-.1-.02-.15-.02c-.16,0-.24.08-.24.25v.09h.53v.53h-.52v1.74h-.65v-1.74h-.27v-.54h.27v-.15c0-.26.06-.44.18-.56.12-.12.3-.18.53-.18.1,0,.19,0,.26.02.07.01.14.03.2.05v.54s-.1-.03-.14-.04M120.95,52.04c0-.09-.01-.17-.04-.24-.03-.08-.07-.14-.12-.2-.05-.06-.12-.11-.19-.14-.08-.03-.16-.05-.25-.05-.09,0-.18.02-.25.05s-.14.08-.19.14c-.05.06-.09.12-.12.2s-.04.16-.04.24h0c0,.09.01.17.04.25.03.08.07.14.12.2.05.06.12.11.19.14.07.03.15.05.25.05s.18-.02.25-.05c.07-.03.13-.08.19-.14.05-.06.09-.12.12-.2.03-.08.04-.16.04-.24h0ZM121.5,52.51c-.06.14-.15.27-.26.38-.11.11-.24.19-.39.26s-.32.09-.5.09-.34-.03-.49-.09c-.15-.06-.28-.15-.39-.25-.11-.11-.2-.23-.26-.38-.06-.14-.09-.3-.09-.47h0c0-.17.03-.33.09-.47.06-.14.15-.27.26-.38.11-.11.24-.19.4-.26.15-.06.32-.09.5-.09s.34.03.49.09c.15.06.28.15.39.25s.2.23.26.38c.06.15.09.3.09.47h0c0,.17-.03.33-.09.47M118.68,52.82c-.04.09-.11.17-.19.23-.08.06-.17.11-.28.14-.11.03-.22.05-.34.05-.16,0-.33-.03-.5-.08-.17-.06-.33-.14-.49-.26l.28-.43c.12.09.25.16.38.21.12.05.24.07.35.07.09,0,.16-.02.21-.05.04-.03.07-.07.07-.12h0s-.01-.07-.04-.1-.06-.05-.11-.07c-.04-.02-.1-.04-.15-.05-.06-.02-.12-.04-.18-.06-.08-.02-.16-.05-.24-.08-.08-.03-.16-.08-.22-.13-.07-.05-.12-.12-.16-.2-.04-.08-.06-.17-.06-.28h0c0-.13.02-.23.07-.32.04-.09.1-.17.18-.23.08-.06.16-.11.27-.14.1-.03.21-.05.33-.05.15,0,.29.02.44.07.15.05.29.11.41.19l-.25.45c-.11-.07-.23-.12-.33-.16-.11-.04-.2-.06-.29-.06s-.14.02-.18.05c-.04.03-.06.07-.06.11h0s.01.07.04.09c.03.02.06.05.1.07.04.02.09.04.15.06.06.02.11.04.18.06.08.03.16.06.24.09.08.04.16.08.22.13.07.05.12.11.16.19.04.07.07.16.07.27h0c0,.14-.02.25-.07.34M115.95,52.04c0-.09-.01-.17-.04-.24s-.07-.14-.12-.2c-.06-.06-.12-.11-.19-.14-.07-.03-.16-.05-.24-.05-.1,0-.18.02-.25.05-.07.03-.14.08-.19.14-.05.06-.09.12-.12.2-.03.08-.04.16-.04.24h0c0,.09.01.17.04.25s.07.14.12.2c.05.06.12.11.19.14.07.03.16.05.25.05s.18-.02.25-.05.14-.08.19-.14c.05-.06.09-.12.12-.2.03-.08.04-.16.04-.24h0ZM116.5,52.51c-.06.14-.15.27-.26.38-.11.11-.24.19-.39.26-.15.06-.32.09-.5.09s-.34-.03-.49-.09c-.15-.06-.28-.15-.39-.25-.11-.11-.2-.23-.26-.38-.06-.14-.1-.3-.1-.47h0c0-.17.03-.33.1-.47.06-.14.15-.27.26-.38.11-.11.24-.19.39-.26.15-.06.32-.09.5-.09s.34.03.49.09c.15.06.28.15.39.25.11.11.2.23.26.38.06.15.1.3.1.47h0c0,.17-.03.33-.1.47M113.77,51.53c-.22,0-.39.07-.51.2-.12.13-.19.34-.19.61v.85h-.65v-2.3h.65v.46c.07-.16.16-.28.27-.38.11-.09.27-.14.46-.13v.68h-.03ZM111.61,53.12c-.14.08-.33.12-.56.12-.17,0-.33-.03-.48-.09-.15-.06-.27-.15-.38-.26-.11-.11-.19-.23-.25-.38-.06-.14-.09-.3-.09-.46h0c0-.17.03-.33.09-.47.06-.15.14-.27.25-.38.11-.11.23-.19.38-.26.15-.06.31-.09.49-.09.22,0,.4.03.54.1.14.07.27.16.38.28l-.4.43c-.07-.08-.15-.14-.23-.19-.08-.05-.18-.07-.29-.07-.08,0-.16.02-.22.05s-.13.08-.18.14c-.05.06-.09.12-.12.2s-.04.16-.04.24h0c0,.1.01.18.04.26.03.08.07.14.12.2.05.06.11.1.19.14.07.03.15.05.24.05.11,0,.2-.02.29-.07.08-.04.16-.1.24-.18l.38.39c-.11.12-.24.22-.38.3M108.7,50.89h.65v2.3h-.65v-2.3ZM108.69,50.05h.69v.58h-.69v-.58ZM107.37,53.19v-1.96l-.84,1.28h-.02l-.84-1.27v1.95h-.65v-3.01h.71l.79,1.27.79-1.27h.71v3.01h-.65ZM102.38,51.5c-.08-.09-.19-.14-.33-.14s-.25.04-.33.13c-.08.09-.14.21-.17.36h.98c-.02-.15-.07-.26-.15-.35M103.17,52.18s0,.05,0,.08h-1.6c.03.15.1.26.19.34.1.08.22.11.37.11.11,0,.21-.02.29-.06.09-.04.17-.1.27-.18l.37.33c-.11.14-.24.24-.39.32-.15.08-.34.11-.55.11-.17,0-.33-.03-.48-.09-.15-.06-.28-.14-.38-.24-.11-.11-.19-.23-.25-.38-.06-.14-.09-.3-.09-.48h0c0-.17.03-.33.08-.47.06-.15.13-.27.23-.38.1-.11.22-.19.36-.26.14-.06.29-.09.46-.09.19,0,.36.03.5.1.14.07.26.16.35.28.09.12.16.25.21.4.04.15.07.31.07.47h0s0,.07,0,.09M99.81,53.19v-1.28c0-.16-.03-.27-.1-.35-.07-.08-.17-.12-.29-.12s-.22.04-.3.12c-.07.08-.11.19-.11.35v1.28h-.65v-3.13h.65v1.16s.08-.1.12-.14c.04-.05.09-.09.15-.12.05-.03.11-.06.18-.08.07-.02.14-.03.22-.03.25,0,.44.08.58.23.14.15.2.36.2.63v1.49h-.65ZM97.64,53.19c-.08.02-.18.04-.29.04-.1,0-.19,0-.27-.03-.08-.02-.15-.06-.21-.11-.06-.05-.1-.12-.14-.21-.03-.09-.05-.2-.05-.33v-1.09h-.27v-.56h.27v-.59h.65v.59h.54v.56h-.54v.98c0,.15.07.22.21.22.11,0,.22-.03.32-.08v.52c-.07.04-.14.07-.23.1M94.79,50.59s-.1-.02-.15-.02c-.16,0-.24.08-.24.25v.09h.53v.53h-.52v1.74h-.65v-1.74h-.27v-.54h.27v-.15c0-.26.06-.44.18-.56.12-.12.3-.18.53-.18.1,0,.19,0,.26.02.07.01.14.03.2.05v.54s-.1-.03-.14-.04M92.53,52.04c0-.09-.01-.17-.04-.24-.03-.08-.07-.14-.12-.2-.06-.06-.12-.11-.19-.14-.07-.03-.16-.05-.24-.05-.09,0-.18.02-.25.05-.07.03-.13.08-.19.14-.05.06-.09.12-.12.2-.03.08-.04.16-.04.24h0c0,.09.01.17.04.25.03.08.07.14.12.2.05.06.12.11.19.14.07.03.16.05.25.05s.18-.02.25-.05c.07-.03.14-.08.19-.14.05-.06.09-.12.12-.2.03-.08.04-.16.04-.24h0ZM93.08,52.51c-.06.14-.15.27-.26.38-.11.11-.24.19-.4.26s-.32.09-.5.09-.34-.03-.49-.09c-.15-.06-.28-.15-.39-.25-.11-.11-.2-.23-.26-.38-.06-.14-.09-.3-.09-.47h0c0-.17.03-.33.09-.47.06-.14.15-.27.26-.38.11-.11.24-.19.39-.26.15-.06.32-.09.5-.09s.34.03.49.09c.15.06.28.15.39.25s.2.23.26.38c.06.15.09.3.09.47h0c0,.17-.03.33-.09.47M88.97,52.82c-.04.09-.11.17-.19.23-.08.06-.17.11-.28.14-.11.03-.22.05-.35.05-.16,0-.33-.03-.5-.08-.17-.06-.33-.14-.49-.26l.28-.43c.13.09.25.16.38.21.12.05.24.07.35.07.1,0,.16-.02.21-.05.04-.03.07-.07.07-.12h0s-.01-.07-.04-.1c-.03-.03-.06-.05-.11-.07-.04-.02-.1-.04-.15-.05-.06-.02-.12-.04-.18-.06-.08-.02-.16-.05-.24-.08-.08-.03-.15-.08-.22-.13-.07-.05-.12-.12-.16-.2-.04-.08-.06-.17-.06-.28h0c0-.13.02-.23.07-.32.04-.09.1-.17.18-.23.07-.06.16-.11.27-.14.1-.03.21-.05.33-.05.15,0,.29.02.44.07.15.05.29.11.41.19l-.25.45c-.11-.07-.23-.12-.33-.16-.11-.04-.21-.06-.29-.06s-.14.02-.18.05c-.04.03-.06.07-.06.11h0s.01.07.04.09c.03.02.06.05.1.07.04.02.09.04.15.06.06.02.11.04.18.06.08.03.16.06.24.09.08.04.16.08.22.13.07.05.12.11.16.19.04.07.06.16.06.27h0c0,.14-.02.25-.07.34M86.29,53.19l-.6-.94-.23.24v.7h-.65v-3.13h.65v1.67l.76-.84h.78l-.88.91.91,1.4h-.75ZM84.37,51.53c-.22,0-.39.07-.51.2-.12.13-.19.34-.19.61v.85h-.65v-2.3h.65v.46c.07-.16.16-.28.27-.38s.27-.14.46-.13v.68h-.03ZM81.84,52.26c-.06-.03-.12-.05-.19-.06-.07-.02-.15-.02-.23-.02-.14,0-.25.03-.33.08-.08.06-.12.13-.12.24h0c0,.1.03.17.1.21.07.05.15.07.26.07.15,0,.28-.04.37-.11.09-.07.14-.17.14-.29v-.12ZM81.83,53.19v-.25c-.08.09-.18.16-.29.21-.11.05-.25.08-.41.08-.11,0-.21-.01-.31-.05-.1-.03-.18-.08-.25-.14-.07-.06-.13-.13-.17-.22-.04-.09-.06-.19-.06-.3h0c0-.14.02-.24.07-.34.05-.09.11-.17.19-.23.08-.06.18-.11.29-.14s.24-.05.38-.05c.12,0,.22,0,.31.03.09.02.17.04.26.07v-.04c0-.14-.04-.24-.12-.31-.08-.07-.21-.11-.37-.11-.13,0-.24.01-.33.03-.1.02-.2.05-.3.09l-.16-.5c.12-.05.26-.1.39-.13.14-.03.3-.05.5-.05.36,0,.62.09.78.26.16.18.25.42.25.73v1.34h-.63ZM79.26,53.19v-1.28c0-.16-.03-.27-.1-.35-.07-.08-.16-.12-.28-.12s-.22.04-.29.12c-.07.08-.1.19-.1.35v1.28h-.65v-1.28c0-.16-.03-.27-.1-.35-.07-.08-.16-.12-.28-.12s-.22.04-.29.12c-.07.08-.11.19-.11.35v1.28h-.65v-2.3h.65v.33s.08-.1.12-.14c.04-.05.09-.09.15-.12.05-.03.12-.06.18-.08.07-.02.14-.03.23-.03.15,0,.28.03.39.09.11.06.2.16.26.27.1-.12.21-.21.33-.28.12-.06.26-.09.42-.09.24,0,.43.07.57.21.14.14.21.35.21.63v1.5h-.65ZM75.13,51.5c-.08-.09-.19-.14-.33-.14s-.25.04-.33.13c-.08.09-.14.21-.17.36h.98c-.02-.15-.07-.26-.15-.35M75.91,52.18s0,.05,0,.08h-1.6c.03.15.1.26.19.34.1.08.22.11.37.11.11,0,.21-.02.29-.06.09-.04.17-.1.27-.18l.37.33c-.11.14-.24.24-.4.32-.15.08-.34.11-.54.11-.17,0-.33-.03-.48-.09-.15-.06-.27-.14-.38-.24-.11-.11-.19-.23-.25-.38-.06-.14-.09-.3-.09-.48h0c0-.17.03-.33.08-.47.06-.15.13-.27.23-.38.1-.11.22-.19.36-.26.14-.06.29-.09.46-.09.19,0,.36.03.5.1.14.07.26.16.35.28.09.12.16.25.21.4.04.15.07.31.07.47h0s0,.07,0,.09M72.54,52.03c0-.1-.01-.18-.04-.26-.03-.08-.07-.15-.12-.2-.05-.06-.11-.1-.18-.13-.07-.03-.14-.05-.22-.05s-.15.02-.22.05c-.07.03-.13.07-.18.13-.05.06-.09.12-.12.2-.03.08-.04.16-.04.26h0c0,.1.01.19.04.27.03.08.07.15.12.2.05.06.11.1.18.13.07.03.14.05.22.05s.15-.02.22-.05c.07-.03.13-.07.18-.13s.09-.12.12-.2c.03-.08.04-.17.04-.26h0ZM72.53,53.19v-.33c-.08.11-.18.2-.29.27-.11.07-.26.11-.43.11-.13,0-.26-.03-.39-.08-.13-.05-.24-.13-.33-.23-.1-.1-.17-.23-.23-.37-.06-.15-.09-.32-.09-.51h0c0-.2.03-.37.09-.52.06-.15.14-.27.23-.37.1-.1.21-.18.33-.23.13-.05.26-.08.4-.08.17,0,.32.03.43.1.11.07.21.15.28.24v-1.13h.65v3.13h-.65ZM69.69,52.26c-.06-.03-.12-.05-.19-.06-.07-.02-.15-.02-.23-.02-.14,0-.25.03-.33.08-.08.06-.12.13-.12.24h0c0,.1.03.17.1.21.07.05.15.07.26.07.15,0,.28-.04.37-.11.09-.07.14-.17.14-.29v-.12ZM69.68,53.19v-.25c-.08.09-.18.16-.29.21-.11.05-.25.08-.41.08-.11,0-.21-.01-.31-.05-.1-.03-.18-.08-.25-.14-.07-.06-.13-.13-.17-.22-.04-.09-.06-.19-.06-.3h0c0-.14.02-.24.07-.34.04-.09.11-.17.19-.23.08-.06.18-.11.29-.14.11-.03.24-.05.38-.05.12,0,.22,0,.31.03.09.02.17.04.25.07v-.04c0-.14-.04-.24-.12-.31-.08-.07-.21-.11-.37-.11-.13,0-.24.01-.33.03-.1.02-.2.05-.3.09l-.16-.5c.13-.05.26-.1.4-.13.14-.03.3-.05.5-.05.36,0,.62.09.78.26.16.18.25.42.25.73v1.34h-.63ZM67.89,51.53c-.22,0-.39.07-.51.2-.12.13-.19.34-.19.61v.85h-.65v-2.3h.65v.46c.07-.16.16-.28.27-.38.11-.09.27-.14.46-.13v.68h-.03ZM65.82,53.19c-.08.02-.18.04-.29.04-.1,0-.19,0-.27-.03-.08-.02-.15-.06-.21-.11-.06-.05-.1-.12-.14-.21-.03-.09-.05-.2-.05-.33v-1.09h-.27v-.56h.27v-.59h.65v.59h.54v.56h-.54v.98c0,.15.07.22.21.22.11,0,.22-.03.32-.08v.52c-.07.04-.15.07-.23.1M62.2,51.5c-.08-.09-.19-.14-.33-.14s-.25.04-.33.13c-.09.09-.14.21-.17.36h.98c-.02-.15-.07-.26-.15-.35M62.98,52.18s0,.05,0,.08h-1.6c.03.15.1.26.19.34.1.08.22.11.37.11.11,0,.21-.02.29-.06.09-.04.17-.1.27-.18l.37.33c-.11.14-.24.24-.4.32-.15.08-.34.11-.54.11-.17,0-.33-.03-.48-.09-.15-.06-.28-.14-.38-.24-.11-.11-.19-.23-.25-.38-.06-.14-.09-.3-.09-.48h0c0-.17.03-.33.08-.47.06-.15.13-.27.23-.38.1-.11.22-.19.36-.26.14-.06.29-.09.46-.09.19,0,.36.03.5.1.14.07.26.16.35.28.09.12.16.25.21.4.04.15.07.31.07.47h0s0,.07,0,.09M60.4,51.53c-.22,0-.39.07-.51.2-.12.13-.19.34-.19.61v.85h-.65v-2.3h.65v.46c.07-.16.16-.28.27-.38.12-.09.27-.14.46-.13v.68h-.03ZM57.86,52.26c-.06-.03-.12-.05-.19-.06-.07-.02-.15-.02-.23-.02-.14,0-.25.03-.33.08-.08.06-.12.13-.12.24h0c0,.1.03.17.1.21.07.05.15.07.26.07.15,0,.28-.04.37-.11.09-.07.14-.17.14-.29v-.12ZM57.85,53.19v-.25c-.08.09-.18.16-.29.21-.11.05-.25.08-.41.08-.11,0-.21-.01-.31-.05-.1-.03-.18-.08-.25-.14s-.13-.13-.17-.22c-.04-.09-.06-.19-.06-.3h0c0-.14.02-.24.07-.34.05-.09.11-.17.19-.23.08-.06.18-.11.29-.14s.24-.05.38-.05c.12,0,.22,0,.31.03.09.02.17.04.26.07v-.04c0-.14-.04-.24-.12-.31-.08-.07-.21-.11-.37-.11-.13,0-.24.01-.33.03-.1.02-.2.05-.3.09l-.16-.5c.13-.05.26-.1.4-.13.14-.03.3-.05.5-.05.36,0,.62.09.78.26.16.18.24.42.24.73v1.34h-.63ZM54.68,52.82c-.04.09-.11.17-.19.23-.08.06-.17.11-.28.14-.11.03-.22.05-.35.05-.16,0-.33-.03-.5-.08-.17-.06-.33-.14-.49-.26l.28-.43c.13.09.25.16.38.21.12.05.24.07.35.07.09,0,.16-.02.21-.05.04-.03.07-.07.07-.12h0s-.01-.07-.04-.1c-.03-.03-.06-.05-.11-.07-.04-.02-.09-.04-.15-.05-.06-.02-.12-.04-.18-.06-.08-.02-.16-.05-.24-.08-.08-.03-.15-.08-.22-.13-.07-.05-.12-.12-.16-.2-.04-.08-.06-.17-.06-.28h0c0-.13.02-.23.07-.32.04-.09.1-.17.18-.23.08-.06.16-.11.27-.14.1-.03.21-.05.33-.05.15,0,.29.02.44.07.15.05.29.11.41.19l-.25.45c-.11-.07-.23-.12-.33-.16-.11-.04-.2-.06-.29-.06s-.14.02-.18.05-.06.07-.06.11h0s.01.07.04.09c.02.02.06.05.1.07.04.02.09.04.15.06.06.02.11.04.18.06.08.03.16.06.24.09.08.04.16.08.22.13.07.05.12.11.16.19.04.07.06.16.06.27h0c0,.14-.02.25-.07.34M51.95,52.04c0-.09-.01-.17-.04-.24-.03-.08-.07-.14-.12-.2-.05-.06-.12-.11-.19-.14-.07-.03-.16-.05-.24-.05-.09,0-.18.02-.25.05-.07.03-.14.08-.19.14-.05.06-.09.12-.12.2-.03.08-.04.16-.04.24h0c0,.09.01.17.04.25.03.08.07.14.12.2.06.06.12.11.19.14.07.03.15.05.25.05s.18-.02.25-.05c.07-.03.14-.08.19-.14.05-.06.09-.12.12-.2.03-.08.04-.16.04-.24h0ZM52.5,52.51c-.06.14-.15.27-.26.38-.11.11-.24.19-.39.26-.15.06-.32.09-.5.09s-.34-.03-.49-.09c-.15-.06-.28-.15-.39-.25-.11-.11-.2-.23-.26-.38-.06-.14-.09-.3-.09-.47h0c0-.17.03-.33.09-.47.06-.14.15-.27.26-.38.11-.11.24-.19.39-.26.15-.06.32-.09.5-.09s.34.03.49.09c.15.06.28.15.39.25s.2.23.26.38c.06.15.09.3.09.47h0c0,.17-.03.33-.09.47M48.98,51.92c0-.08-.01-.15-.04-.21-.03-.07-.07-.12-.12-.17-.05-.05-.11-.08-.18-.11-.07-.03-.14-.04-.22-.04s-.15.01-.22.04c-.07.02-.13.06-.18.11-.05.05-.09.1-.12.17-.03.07-.04.14-.04.21h0c0,.17.05.3.16.39s.24.15.4.15c.08,0,.15-.01.22-.04.07-.03.13-.06.18-.11.05-.05.09-.1.12-.17.03-.06.04-.14.04-.21h0ZM49.55,53.22c-.05.15-.13.28-.24.38-.11.1-.24.17-.4.21-.16.05-.35.07-.56.07-.19,0-.37-.02-.54-.06-.17-.04-.33-.1-.48-.18l.22-.49c.12.07.24.12.36.16.12.04.26.06.42.06.22,0,.39-.05.49-.16.11-.11.16-.26.16-.47v-.11c-.1.12-.2.21-.32.28-.12.07-.26.1-.43.1-.13,0-.26-.02-.39-.07s-.23-.12-.33-.21c-.1-.09-.17-.2-.23-.34-.06-.13-.08-.28-.08-.46h0c0-.18.03-.33.09-.47.06-.13.13-.24.23-.34.09-.09.2-.16.33-.21.12-.05.25-.07.38-.07.18,0,.32.03.44.1.11.07.22.15.3.24v-.3h.65v1.78c0,.22-.03.4-.08.56M46.2,52.04c0-.09-.02-.17-.04-.24-.03-.08-.07-.14-.12-.2-.05-.06-.12-.11-.19-.14-.07-.03-.16-.05-.24-.05-.09,0-.18.02-.25.05-.07.03-.14.08-.19.14-.05.06-.09.12-.12.2-.03.08-.04.16-.04.24h0c0,.09.01.17.04.25.03.08.07.14.12.2.05.06.12.11.19.14.07.03.16.05.25.05s.18-.02.25-.05c.07-.03.13-.08.19-.14.05-.06.09-.12.12-.2.03-.08.04-.16.04-.24h0ZM46.75,52.51c-.06.14-.15.27-.26.38-.11.11-.24.19-.4.26-.15.06-.32.09-.5.09s-.34-.03-.49-.09c-.15-.06-.28-.15-.39-.25-.11-.11-.2-.23-.26-.38-.06-.14-.09-.3-.09-.47h0c0-.17.03-.33.09-.47.06-.14.15-.27.26-.38.11-.11.24-.19.4-.26.15-.06.32-.09.5-.09s.34.03.49.09c.15.06.28.15.39.25.11.11.2.23.26.38.06.15.09.3.09.47h0c0,.17-.03.33-.09.47M43.2,50.05h.65v3.13h-.65v-3.13Z"/>
  <path class="cls-1" d="M131.14,48.04l-.46-.72-.46.72h-.68l.81-1.17-.78-1.13h.7l.43.67.43-.67h.68l-.78,1.12.81,1.18h-.7ZM128.61,46.89c0-.09-.01-.17-.04-.24-.03-.08-.07-.14-.12-.2-.06-.06-.12-.1-.19-.14-.07-.03-.16-.05-.24-.05-.1,0-.18.02-.25.05s-.14.08-.19.14c-.05.06-.09.12-.12.2-.03.08-.04.16-.04.24h0c0,.1.01.18.04.25.03.07.07.14.12.2.05.06.12.1.19.14.07.03.15.05.25.05s.18-.02.25-.05.14-.08.19-.13c.05-.06.09-.12.12-.2.03-.08.04-.16.04-.24h0ZM129.16,47.36c-.06.14-.15.27-.26.38-.11.11-.24.19-.39.26-.15.06-.32.1-.5.1s-.34-.03-.49-.09c-.15-.06-.28-.15-.39-.25-.11-.11-.2-.23-.26-.38-.06-.14-.1-.3-.1-.47h0c0-.18.03-.33.1-.47.06-.14.15-.27.26-.38.11-.11.24-.19.39-.26.15-.06.32-.09.5-.09s.34.03.49.09c.15.06.28.15.39.25.11.11.2.23.26.38.06.14.1.3.1.47h0c0,.18-.03.33-.1.47M125.75,46.88c0-.1-.01-.18-.04-.26-.03-.08-.07-.15-.12-.2-.05-.06-.11-.1-.18-.13-.07-.03-.14-.05-.22-.05s-.15.01-.22.05c-.07.03-.13.07-.18.13-.05.06-.09.12-.12.2-.03.08-.04.17-.04.26h0c0,.1.01.19.04.27.03.08.07.15.12.2.05.06.11.1.18.13s.14.05.22.05.15-.02.22-.05c.07-.03.13-.07.18-.13.05-.06.09-.12.12-.2.03-.08.04-.17.04-.26h0ZM126.31,47.4c-.06.15-.14.27-.23.37-.1.1-.21.18-.33.23-.13.05-.26.08-.39.08-.17,0-.32-.03-.43-.1s-.21-.15-.29-.24v.3h-.65v-3.13h.65v1.16c.08-.11.18-.2.29-.27.11-.07.25-.1.43-.1.14,0,.26.03.39.08.13.05.24.13.33.23.1.1.18.23.23.37.06.15.09.32.09.51h0c0,.2-.03.37-.09.52M122.78,48.04l-.67-1.03-.68,1.03h-.75l1.05-1.53-1-1.48h.77l.63.97.63-.97h.75l-1,1.47,1.05,1.54h-.77ZM118.28,46.35c-.08-.09-.19-.14-.33-.14s-.25.05-.33.13c-.08.09-.14.21-.17.36h.98c-.02-.14-.07-.26-.15-.35M119.07,47.03s0,.05,0,.08h-1.6c.03.15.1.26.19.34.1.08.22.11.37.11.11,0,.21-.02.29-.06s.18-.1.27-.18l.37.33c-.11.14-.24.24-.39.32-.16.08-.34.11-.55.11-.17,0-.33-.03-.48-.09-.15-.06-.27-.14-.38-.24-.11-.11-.19-.23-.25-.38-.06-.14-.09-.31-.09-.48h0c0-.17.03-.33.08-.47.06-.15.13-.27.23-.38.1-.11.22-.19.36-.26.14-.06.29-.09.46-.09.19,0,.36.03.5.1.14.07.26.16.35.28.09.12.16.25.21.4.04.15.07.31.07.47h0s0,.07,0,.09M115.7,48.04v-1.28c0-.15-.03-.27-.1-.35-.07-.08-.17-.12-.29-.12s-.22.04-.3.12c-.07.08-.11.19-.11.35v1.28h-.65v-3.13h.65v1.16s.08-.09.12-.14c.04-.05.09-.08.15-.12.05-.03.11-.06.18-.08.07-.02.14-.03.22-.03.25,0,.44.08.58.23.14.15.2.36.2.63v1.49h-.65ZM113.53,48.04c-.08.02-.18.04-.29.04-.1,0-.19-.01-.27-.03-.08-.02-.15-.06-.21-.11-.06-.05-.1-.12-.14-.21-.03-.09-.05-.2-.05-.33v-1.09h-.28v-.56h.28v-.59h.65v.59h.54v.56h-.54v.98c0,.15.07.22.21.22.11,0,.22-.03.32-.08v.52c-.07.04-.14.07-.23.1M109.95,46.88c0-.1-.01-.18-.04-.26-.03-.08-.07-.15-.12-.2-.05-.06-.11-.1-.18-.13-.07-.03-.14-.05-.22-.05s-.15.01-.22.05c-.07.03-.13.07-.18.13-.05.06-.09.12-.12.2-.03.08-.05.17-.05.26h0c0,.1.02.19.05.27.03.08.07.15.12.2.05.06.11.1.18.13s.14.05.22.05.15-.02.22-.05c.07-.03.13-.07.18-.13.05-.06.09-.12.12-.2.03-.08.04-.17.04-.26h0ZM109.94,48.04v-.33c-.08.11-.18.2-.29.27-.11.07-.26.1-.43.1-.13,0-.26-.03-.39-.08-.13-.05-.24-.13-.33-.23-.1-.1-.18-.23-.23-.37-.06-.15-.09-.32-.09-.51h0c0-.2.03-.37.09-.52.06-.15.14-.27.23-.37.1-.1.21-.18.33-.23.13-.05.26-.08.39-.08.17,0,.32.03.43.1s.21.15.28.24v-1.13h.65v3.13h-.65ZM107.06,48.04v-1.28c0-.15-.03-.27-.1-.35-.07-.08-.17-.12-.29-.12s-.22.04-.3.12c-.07.08-.11.19-.11.35v1.28h-.65v-2.3h.65v.33s.08-.09.12-.14.09-.08.15-.12.11-.06.18-.08c.07-.02.14-.03.22-.03.25,0,.44.08.58.23.14.15.2.36.2.63v1.49h-.65ZM104.43,47.11c-.06-.03-.12-.05-.19-.06-.07-.02-.14-.02-.22-.02-.14,0-.25.03-.33.08-.08.05-.12.13-.12.24h0c0,.1.03.17.1.21.07.05.15.07.26.07.15,0,.28-.04.37-.11.09-.07.14-.17.14-.29v-.12ZM104.41,48.04v-.25c-.08.09-.18.16-.29.21-.11.05-.25.08-.41.08-.11,0-.21-.02-.31-.05-.1-.03-.18-.07-.25-.14-.07-.06-.13-.13-.17-.22-.04-.09-.06-.19-.06-.3h0c0-.13.02-.24.07-.34.04-.09.11-.17.19-.23.08-.06.18-.11.29-.14.11-.03.24-.05.38-.05.12,0,.22,0,.31.02.09.02.17.04.26.07v-.04c0-.14-.04-.24-.12-.31-.08-.07-.21-.11-.37-.11-.13,0-.24,0-.33.03-.1.02-.2.05-.3.09l-.16-.5c.13-.05.26-.1.4-.13.14-.03.3-.05.5-.05.36,0,.62.09.78.26.16.17.25.42.25.73v1.34h-.63ZM100.79,48.04h-.26v-.69h.69v.58c0,.28-.07.49-.21.61-.14.12-.33.19-.59.19l-.06-.27c.3-.03.44-.17.42-.43M99.46,48.04l-.46-.72-.46.72h-.68l.81-1.17-.78-1.13h.7l.43.67.43-.67h.68l-.78,1.12.81,1.18h-.7ZM96.93,46.89c0-.09-.01-.17-.04-.24-.03-.08-.07-.14-.12-.2-.05-.06-.12-.1-.19-.14-.07-.03-.16-.05-.24-.05-.1,0-.18.02-.25.05s-.14.08-.19.14c-.05.06-.09.12-.12.2-.03.08-.04.16-.04.24h0c0,.1.01.18.04.25.03.07.07.14.12.2.05.06.12.1.19.14.07.03.15.05.25.05s.18-.02.25-.05c.07-.03.14-.08.19-.13.05-.06.09-.12.12-.2.03-.08.04-.16.04-.24h0ZM97.48,47.36c-.06.14-.15.27-.26.38-.11.11-.24.19-.39.26-.15.06-.32.1-.5.1s-.34-.03-.49-.09c-.15-.06-.28-.15-.39-.25-.11-.11-.2-.23-.26-.38-.06-.14-.1-.3-.1-.47h0c0-.18.03-.33.1-.47.06-.14.15-.27.26-.38.11-.11.24-.19.39-.26.15-.06.32-.09.5-.09s.34.03.49.09c.15.06.28.15.39.25.11.11.2.23.26.38.06.14.1.3.1.47h0c0,.18-.03.33-.1.47M94.06,46.88c0-.1-.01-.18-.04-.26-.03-.08-.07-.15-.12-.2-.05-.06-.11-.1-.18-.13-.07-.03-.14-.05-.22-.05s-.15.01-.22.05c-.07.03-.13.07-.18.13-.05.06-.09.12-.12.2-.03.08-.04.17-.04.26h0c0,.1.01.19.04.27.03.08.07.15.12.2.05.06.11.1.18.13s.14.05.22.05.15-.02.22-.05c.07-.03.13-.07.18-.13.05-.06.09-.12.12-.2.03-.08.04-.17.04-.26h0ZM94.63,47.4c-.06.15-.14.27-.23.37-.1.1-.21.18-.33.23-.13.05-.26.08-.4.08-.17,0-.32-.03-.43-.1-.11-.07-.21-.15-.29-.24v.3h-.65v-3.13h.65v1.16c.08-.11.18-.2.29-.27.11-.07.25-.1.43-.1.14,0,.26.03.39.08.13.05.24.13.33.23.1.1.18.23.23.37.06.15.09.32.09.51h0c0,.2-.03.37-.09.52M91.1,48.04l-.67-1.03-.68,1.03h-.75l1.05-1.53-1.01-1.48h.77l.63.97.63-.97h.75l-1,1.47,1.05,1.54h-.77ZM86.88,48.04h-.26v-.69h.69v.58c0,.28-.07.49-.21.61-.14.12-.33.19-.59.19l-.05-.27c.3-.03.44-.17.42-.43M85.92,48.04c-.08.02-.18.04-.29.04-.1,0-.19-.01-.27-.03-.08-.02-.15-.06-.21-.11-.06-.05-.1-.12-.14-.21-.03-.09-.05-.2-.05-.33v-1.09h-.27v-.56h.27v-.59h.65v.59h.54v.56h-.54v.98c0,.15.07.22.21.22.11,0,.22-.03.32-.08v.52c-.07.04-.14.07-.23.1M84.37,45.44s-.1-.02-.15-.02c-.16,0-.24.08-.24.25v.09h.53v.53h-.52v1.74h-.65v-1.74h-.27v-.54h.27v-.15c0-.26.06-.44.18-.56.12-.12.3-.18.53-.18.1,0,.19,0,.26.02.07.01.14.03.2.05v.54s-.1-.03-.14-.04M82.11,46.89c0-.09-.01-.17-.04-.24-.03-.08-.07-.14-.12-.2-.05-.06-.12-.1-.19-.14-.07-.03-.16-.05-.24-.05-.1,0-.18.02-.25.05-.07.03-.14.08-.19.14-.05.06-.09.12-.12.2-.03.08-.04.16-.04.24h0c0,.1.01.18.04.25.03.07.07.14.12.2.06.06.12.1.19.14.07.03.16.05.25.05s.18-.02.25-.05c.07-.03.13-.08.19-.13.05-.06.09-.12.12-.2.03-.08.04-.16.04-.24h0ZM82.65,47.36c-.06.14-.15.27-.26.38-.11.11-.24.19-.4.26-.15.06-.32.1-.5.1s-.34-.03-.49-.09c-.15-.06-.28-.15-.39-.25-.11-.11-.2-.23-.26-.38-.06-.14-.09-.3-.09-.47h0c0-.18.03-.33.09-.47.06-.14.15-.27.26-.38.11-.11.24-.19.39-.26.15-.06.32-.09.5-.09s.34.03.49.09c.15.06.28.15.39.25.11.11.2.23.26.38.06.14.1.3.1.47h0c0,.18-.03.33-.1.47M79.84,47.67c-.04.09-.11.17-.19.23-.08.06-.17.11-.28.14-.11.03-.22.05-.35.05-.16,0-.33-.03-.5-.08-.17-.06-.33-.14-.49-.26l.28-.43c.13.09.25.16.38.21.12.05.24.07.35.07.1,0,.16-.02.21-.05.04-.03.07-.07.07-.12h0s-.01-.07-.04-.1c-.03-.03-.06-.05-.11-.07-.04-.02-.1-.04-.15-.05-.06-.02-.12-.04-.18-.06-.08-.02-.16-.05-.24-.08s-.15-.08-.22-.13c-.07-.05-.12-.12-.16-.19-.04-.08-.06-.17-.06-.28h0c0-.13.02-.23.07-.32.04-.09.1-.17.18-.23.07-.06.16-.11.27-.14.1-.03.21-.05.33-.05.15,0,.29.02.44.07.15.05.29.11.41.19l-.25.45c-.12-.07-.23-.12-.33-.16-.11-.04-.21-.06-.29-.06s-.14.02-.18.05-.06.07-.06.11h0s.01.07.04.09c.03.02.06.05.1.07.04.02.09.04.15.06.05.02.11.04.18.06.08.03.16.06.24.09.08.03.16.08.22.13.07.05.12.11.16.19.04.07.06.16.06.27h0c0,.14-.02.25-.07.34M77.1,46.89c0-.09-.01-.17-.04-.24-.03-.08-.07-.14-.12-.2-.05-.06-.12-.1-.19-.14-.08-.03-.16-.05-.25-.05-.09,0-.18.02-.25.05-.07.03-.14.08-.19.14-.05.06-.09.12-.12.2-.03.08-.04.16-.04.24h0c0,.1.01.18.04.25.03.07.07.14.12.2.05.06.12.1.19.14.07.03.15.05.25.05s.18-.02.25-.05.14-.08.19-.13c.05-.06.09-.12.12-.2.03-.08.04-.16.04-.24h0ZM77.65,47.36c-.06.14-.15.27-.26.38-.11.11-.24.19-.4.26-.15.06-.32.1-.5.1s-.34-.03-.49-.09c-.15-.06-.28-.15-.39-.25-.11-.11-.2-.23-.26-.38-.06-.14-.09-.3-.09-.47h0c0-.18.03-.33.09-.47.06-.14.15-.27.26-.38.11-.11.24-.19.4-.26.15-.06.32-.09.5-.09s.34.03.49.09c.15.06.28.15.39.25.11.11.2.23.26.38.06.14.09.3.09.47h0c0,.18-.03.33-.09.47M74.92,46.38c-.22,0-.39.07-.51.2-.12.13-.19.34-.19.61v.85h-.65v-2.3h.65v.46c.06-.16.16-.28.27-.38.11-.09.27-.14.46-.13v.68h-.04ZM72.77,47.97c-.14.08-.33.12-.56.12-.17,0-.33-.03-.48-.1-.15-.06-.27-.15-.38-.26-.11-.11-.19-.23-.25-.38-.06-.14-.09-.3-.09-.46h0c0-.17.03-.33.09-.47.06-.15.14-.27.25-.38.11-.11.23-.19.38-.26.15-.06.31-.09.49-.09.22,0,.4.03.54.1.14.07.27.16.38.28l-.4.43c-.07-.08-.15-.14-.23-.19-.08-.05-.18-.07-.29-.07-.08,0-.16.02-.23.05-.07.03-.13.08-.18.14-.05.06-.09.12-.11.2-.03.08-.04.16-.04.24h0c0,.1.01.18.04.26.03.08.07.14.12.2.05.06.11.1.18.13.07.03.15.05.24.05.11,0,.2-.02.29-.07.08-.05.16-.1.24-.18l.38.39c-.11.12-.24.22-.38.3M69.86,45.74h.65v2.3h-.65v-2.3ZM69.84,44.9h.69v.58h-.69v-.58ZM68.52,48.04v-1.96l-.85,1.28h-.02l-.84-1.27v1.95h-.65v-3h.71l.79,1.27.79-1.27h.71v3h-.65ZM63.56,47.35h.69v.69h-.69v-.69ZM62.36,46.88c0-.1-.02-.18-.05-.26-.03-.08-.07-.15-.12-.2-.05-.06-.11-.1-.18-.13-.07-.03-.14-.05-.22-.05s-.15.01-.22.05c-.07.03-.13.07-.18.13-.05.06-.09.12-.12.2s-.04.17-.04.26h0c0,.1.01.19.04.27.03.08.07.15.12.2.05.06.11.1.18.13.07.03.14.05.22.05s.15-.02.22-.05c.07-.03.13-.07.18-.13.05-.06.09-.12.12-.2.03-.08.05-.17.05-.26h0ZM62.35,48.04v-.33c-.08.11-.18.2-.29.27-.11.07-.26.1-.43.1-.13,0-.26-.03-.39-.08-.13-.05-.24-.13-.33-.23-.1-.1-.18-.23-.23-.37-.06-.15-.09-.32-.09-.51h0c0-.2.03-.37.09-.52.06-.15.14-.27.23-.37.1-.1.21-.18.33-.23.13-.05.26-.08.39-.08.18,0,.32.03.43.1.11.07.21.15.29.24v-1.13h.65v3.13h-.65ZM59.41,46.35c-.08-.09-.19-.14-.33-.14s-.25.05-.33.13c-.08.09-.14.21-.16.36h.98c-.02-.14-.07-.26-.15-.35M60.2,47.03s0,.05,0,.08h-1.6c.03.15.1.26.2.34.1.08.22.11.37.11.11,0,.21-.02.29-.06.08-.04.17-.1.27-.18l.37.33c-.11.14-.24.24-.4.32-.15.08-.34.11-.55.11-.17,0-.33-.03-.48-.09-.15-.06-.28-.14-.38-.24-.11-.11-.19-.23-.25-.38-.06-.14-.09-.31-.09-.48h0c0-.17.03-.33.08-.47.06-.15.13-.27.23-.38.1-.11.22-.19.36-.26.14-.06.29-.09.46-.09.19,0,.36.03.5.1.14.07.26.16.35.28.09.12.16.25.21.4.04.15.07.31.07.47h0s0,.07,0,.09M56.77,48.05h-.59l-.9-2.32h.69l.51,1.54.52-1.54h.68l-.9,2.32ZM55.04,46.38c-.22,0-.39.07-.51.2-.12.13-.19.34-.19.61v.85h-.65v-2.3h.65v.46c.07-.16.16-.28.27-.38.11-.09.27-.14.46-.13v.68h-.03ZM52.41,46.35c-.08-.09-.19-.14-.33-.14s-.25.05-.33.13c-.08.09-.14.21-.16.36h.98c-.02-.14-.07-.26-.15-.35M53.2,47.03s0,.05,0,.08h-1.6c.03.15.1.26.2.34.1.08.22.11.37.11.11,0,.21-.02.29-.06.09-.04.17-.1.27-.18l.37.33c-.11.14-.24.24-.4.32-.15.08-.34.11-.55.11-.17,0-.33-.03-.48-.09-.15-.06-.27-.14-.38-.24-.11-.11-.19-.23-.25-.38-.06-.14-.09-.31-.09-.48h0c0-.17.03-.33.08-.47.06-.15.13-.27.23-.38.1-.11.22-.19.36-.26.14-.06.29-.09.46-.09.19,0,.36.03.5.1.14.07.26.16.35.28.09.12.16.25.21.4.04.15.07.31.07.47h0s0,.07,0,.09M50.52,47.67c-.04.09-.11.17-.19.23-.08.06-.17.11-.28.14-.11.03-.22.05-.35.05-.16,0-.33-.03-.5-.08-.17-.06-.33-.14-.49-.26l.28-.43c.13.09.25.16.38.21.12.05.24.07.35.07.1,0,.16-.02.21-.05.04-.03.07-.07.07-.12h0s-.01-.07-.04-.1c-.03-.03-.06-.05-.1-.07-.04-.02-.1-.04-.15-.05-.06-.02-.12-.04-.18-.06-.08-.02-.16-.05-.24-.08-.08-.03-.15-.08-.22-.13s-.12-.12-.16-.19c-.04-.08-.06-.17-.06-.28h0c0-.13.02-.23.07-.32.05-.09.1-.17.18-.23.07-.06.16-.11.27-.14.1-.03.21-.05.33-.05.15,0,.29.02.44.07.15.05.29.11.42.19l-.25.45c-.12-.07-.23-.12-.33-.16-.11-.04-.21-.06-.29-.06s-.14.02-.18.05c-.04.03-.06.07-.06.11h0s.01.07.04.09c.03.02.06.05.1.07.04.02.09.04.15.06.06.02.12.04.18.06.08.03.16.06.24.09.08.03.16.08.22.13.07.05.12.11.16.19.04.07.06.16.06.27h0c0,.14-.02.25-.07.34M47.63,46.35c-.08-.09-.19-.14-.33-.14s-.25.05-.33.13c-.08.09-.14.21-.17.36h.98c-.02-.14-.07-.26-.15-.35M48.42,47.03s0,.05,0,.08h-1.6c.03.15.1.26.19.34.1.08.22.11.37.11.11,0,.21-.02.29-.06.09-.04.17-.1.27-.18l.37.33c-.11.14-.24.24-.39.32-.15.08-.34.11-.55.11-.17,0-.33-.03-.48-.09-.15-.06-.27-.14-.38-.24-.11-.11-.19-.23-.25-.38-.06-.14-.09-.31-.09-.48h0c0-.17.03-.33.08-.47.06-.15.13-.27.23-.38.1-.11.22-.19.36-.26.14-.06.29-.09.46-.09.19,0,.36.03.5.1.14.07.26.16.35.28.09.12.16.25.21.4.04.15.07.31.07.47h0s0,.07,0,.09M45.07,46.06c0-.14-.05-.25-.14-.32-.09-.07-.22-.11-.38-.11h-.66v.86h.67c.16,0,.29-.04.38-.12.09-.08.13-.18.13-.31h0ZM45.06,48.04l-.64-.96h-.52v.96h-.66v-3h1.37c.36,0,.64.09.83.26.2.18.3.42.3.73h0c0,.25-.06.45-.18.6-.12.15-.27.27-.47.34l.73,1.07h-.77Z"/>
  <path class="cls-1" d="M131.37,42.52c-.04.09-.11.17-.19.23-.08.06-.17.1-.28.13-.11.03-.22.05-.35.05-.16,0-.33-.03-.5-.08-.17-.06-.33-.14-.49-.26l.28-.43c.12.09.25.16.38.21.12.05.24.07.35.07.09,0,.16-.02.21-.05.04-.03.07-.07.07-.12h0s-.01-.07-.04-.1c-.03-.02-.06-.05-.11-.07-.04-.02-.09-.04-.15-.05-.06-.02-.12-.04-.18-.06-.08-.02-.16-.05-.24-.08-.08-.03-.16-.08-.22-.13-.07-.05-.12-.12-.16-.19-.04-.08-.06-.17-.06-.28h0c0-.13.02-.23.07-.32.04-.09.1-.17.18-.23.08-.06.17-.11.27-.14.1-.03.21-.05.33-.05.15,0,.29.02.44.07.15.05.29.11.41.19l-.25.45c-.11-.07-.23-.12-.33-.16-.11-.04-.2-.06-.29-.06s-.14.01-.18.05c-.04.03-.06.07-.06.11h0s.01.07.04.09c.03.03.06.05.1.07.04.02.09.04.15.06s.11.04.18.06c.08.03.16.06.25.09.08.03.16.08.22.13.07.05.12.11.16.19.04.08.07.17.07.27h0c0,.14-.02.25-.07.34M129.03,42.89c-.08.02-.18.04-.29.04-.1,0-.19-.01-.27-.03-.08-.02-.15-.06-.21-.11-.06-.06-.11-.12-.14-.21-.03-.09-.05-.2-.05-.33v-1.09h-.28v-.56h.28v-.59h.65v.59h.54v.56h-.54v.98c0,.15.07.22.21.22.11,0,.22-.03.32-.08v.52c-.07.04-.14.07-.23.1M126.75,42.89v-1.28c0-.15-.04-.27-.1-.35-.07-.08-.17-.12-.29-.12s-.22.04-.3.12c-.07.08-.11.19-.11.35v1.28h-.65v-3.13h.65v1.16s.08-.09.12-.14c.04-.05.09-.08.15-.12.05-.03.11-.06.18-.08.07-.02.14-.03.22-.03.25,0,.44.08.58.23.14.15.2.36.2.63v1.49h-.65ZM124.07,41.62c0-.08-.01-.15-.04-.22-.03-.07-.07-.12-.12-.17-.05-.05-.11-.08-.18-.11-.07-.03-.14-.04-.22-.04s-.15.01-.22.04c-.07.03-.13.06-.18.11-.05.05-.09.1-.12.17s-.04.14-.04.22h0c0,.17.05.3.16.39.11.1.24.15.4.15.08,0,.15-.01.22-.04.07-.03.13-.06.18-.11.05-.05.09-.1.12-.17.03-.07.04-.14.04-.21h0ZM124.63,42.92c-.05.15-.13.28-.24.38-.11.1-.24.17-.4.22-.16.05-.35.07-.56.07-.19,0-.37-.02-.54-.06-.17-.04-.33-.1-.48-.18l.22-.49c.12.07.24.12.36.15.12.04.26.06.42.06.22,0,.39-.05.5-.16.11-.11.16-.26.16-.47v-.11c-.1.12-.2.21-.32.27-.11.07-.26.1-.43.1-.13,0-.26-.02-.39-.07-.12-.05-.23-.12-.33-.21-.1-.09-.17-.2-.23-.34-.06-.13-.08-.28-.08-.46h0c0-.18.03-.33.09-.47.06-.13.13-.24.23-.34.09-.09.2-.16.33-.21.12-.05.25-.07.38-.07.18,0,.32.03.44.1.11.07.22.15.31.25v-.3h.65v1.78c0,.22-.03.4-.08.55M121.13,40.58h.65v2.3h-.65v-2.3ZM121.11,39.75h.69v.58h-.69v-.58ZM119.9,40.91c0-.14-.05-.25-.14-.32-.09-.07-.22-.11-.38-.11h-.66v.86h.67c.16,0,.29-.04.38-.12.09-.08.13-.18.13-.31h0ZM119.89,42.89l-.64-.96h-.52v.96h-.66v-3h1.37c.36,0,.64.09.83.26.2.17.3.42.3.73h0c0,.25-.06.45-.18.6-.12.15-.27.26-.47.34l.73,1.07h-.77ZM115.37,39.88h.66v3h-.66v-3ZM113.93,39.88h.66v3h-.66v-3ZM111.83,40.65l-.4.97h.8l-.4-.97ZM112.74,42.89l-.28-.67h-1.27l-.27.67h-.67l1.29-3.03h.61l1.29,3.03h-.69ZM107.9,42.2h.69v.69h-.69v-.69ZM106.7,42.89v-1.28c0-.15-.03-.27-.1-.35-.07-.08-.17-.12-.29-.12s-.23.04-.3.12c-.07.08-.11.19-.11.35v1.28h-.65v-2.3h.65v.33s.08-.09.12-.14c.04-.05.09-.08.15-.12s.11-.06.18-.08c.07-.02.14-.03.22-.03.25,0,.44.08.58.23.14.15.2.36.2.63v1.49h-.65ZM104.13,41.74c0-.09-.01-.17-.04-.24-.03-.08-.07-.14-.12-.2-.05-.06-.12-.1-.19-.14-.08-.03-.16-.05-.25-.05-.09,0-.18.02-.25.05-.07.03-.14.08-.19.14-.05.06-.09.12-.12.2-.03.08-.04.16-.04.24h0c0,.1.01.18.04.25.03.08.07.14.12.2.05.06.12.1.19.14.07.03.15.05.25.05s.18-.02.25-.05c.07-.03.14-.08.19-.14.05-.06.09-.12.12-.2.03-.08.04-.16.04-.24h0ZM104.68,42.21c-.06.14-.15.27-.26.38-.11.11-.24.19-.4.26-.15.06-.32.09-.5.09s-.34-.03-.49-.09c-.15-.06-.28-.15-.39-.25-.11-.11-.2-.23-.26-.38-.06-.14-.09-.3-.09-.46h0c0-.18.03-.33.09-.48.06-.14.15-.27.26-.38.11-.11.24-.19.39-.26.15-.06.32-.09.5-.09s.34.03.49.09c.15.06.28.15.39.25.11.11.2.23.26.38.06.14.09.3.09.47h0c0,.18-.03.33-.09.48M101.13,40.58h.65v2.3h-.65v-2.3ZM101.11,39.75h.69v.58h-.69v-.58ZM100.39,42.89c-.08.02-.18.04-.29.04-.1,0-.19-.01-.27-.03-.08-.02-.15-.06-.21-.11-.06-.06-.1-.12-.14-.21-.03-.09-.05-.2-.05-.33v-1.09h-.27v-.56h.27v-.59h.65v.59h.54v.56h-.54v.98c0,.15.07.22.21.22.11,0,.22-.03.32-.08v.52c-.07.04-.14.07-.23.1M98.14,41.96c-.06-.03-.12-.05-.19-.06-.07-.02-.15-.02-.22-.02-.14,0-.25.03-.33.08-.08.05-.12.13-.12.24h0c0,.1.03.17.1.21.06.05.15.07.26.07.15,0,.28-.04.37-.11.09-.08.14-.17.14-.29v-.12ZM98.13,42.89v-.25c-.08.09-.18.16-.29.21-.11.05-.25.08-.41.08-.11,0-.21-.01-.31-.05-.1-.03-.18-.07-.25-.13-.07-.06-.13-.13-.17-.22-.04-.09-.06-.19-.06-.3h0c0-.13.02-.24.07-.34.04-.09.11-.17.19-.23.08-.06.18-.1.29-.14.11-.03.24-.05.38-.05.12,0,.22,0,.31.02.09.02.17.04.25.07v-.04c0-.14-.04-.24-.12-.31-.08-.07-.21-.11-.37-.11-.13,0-.24.01-.33.03-.1.02-.2.05-.3.09l-.16-.5c.13-.05.26-.1.4-.13.14-.03.3-.05.5-.05.36,0,.62.09.78.26.16.17.25.42.25.73v1.34h-.63ZM96.34,41.22c-.22,0-.39.07-.51.2-.12.13-.19.34-.19.61v.85h-.65v-2.3h.65v.46c.07-.16.16-.28.27-.38.11-.09.27-.14.46-.13v.68h-.04ZM93.87,41.74c0-.09-.01-.17-.04-.24-.03-.08-.07-.14-.12-.2-.05-.06-.12-.1-.19-.14-.07-.03-.16-.05-.24-.05-.09,0-.18.02-.25.05-.07.03-.13.08-.19.14-.05.06-.09.12-.12.2-.03.08-.04.16-.04.24h0c0,.1.01.18.04.25.03.08.07.14.12.2.05.06.12.1.19.14.07.03.16.05.25.05s.18-.02.25-.05c.07-.03.14-.08.19-.14.05-.06.09-.12.12-.2.03-.08.04-.16.04-.24h0ZM94.42,42.21c-.06.14-.15.27-.26.38-.11.11-.24.19-.39.26-.15.06-.32.09-.5.09s-.34-.03-.49-.09c-.15-.06-.28-.15-.39-.25-.11-.11-.2-.23-.26-.38-.06-.14-.09-.3-.09-.46h0c0-.18.03-.33.09-.48.06-.14.15-.27.26-.38.11-.11.24-.19.4-.26.15-.06.32-.09.5-.09s.34.03.49.09c.15.06.28.15.39.25.11.11.2.23.26.38.06.14.09.3.09.47h0c0,.18-.03.33-.09.48M91,41.73c0-.09-.01-.18-.05-.26-.03-.08-.07-.15-.12-.2s-.11-.1-.18-.13c-.07-.03-.14-.05-.22-.05s-.15.02-.22.05c-.07.03-.13.07-.18.13s-.09.12-.12.2-.04.17-.04.26h0c0,.1.01.19.04.27.03.08.07.15.12.2.05.06.11.1.18.13.07.03.14.05.22.05s.15-.02.22-.05.13-.07.18-.13c.05-.06.09-.12.12-.2.03-.08.05-.17.05-.26h0ZM91.57,42.25c-.06.15-.14.27-.23.37-.1.1-.21.18-.33.23-.13.05-.26.08-.39.08-.17,0-.32-.03-.43-.1s-.21-.15-.28-.24v.99h-.65v-2.99h.65v.33c.08-.11.18-.2.29-.27.11-.07.26-.1.43-.1.13,0,.26.02.39.08.13.05.24.13.34.23.1.1.17.23.23.37.06.15.09.32.09.51h0c0,.2-.03.37-.09.52M88.8,41.22c-.22,0-.39.07-.51.2-.12.13-.19.34-.19.61v.85h-.65v-2.3h.65v.46c.07-.16.16-.28.27-.38.11-.09.27-.14.46-.13v.68h-.04ZM86.33,41.74c0-.09-.01-.17-.04-.24-.03-.08-.07-.14-.12-.2-.05-.06-.12-.1-.19-.14-.07-.03-.16-.05-.24-.05-.09,0-.18.02-.25.05-.07.03-.13.08-.19.14-.05.06-.09.12-.12.2-.03.08-.04.16-.04.24h0c0,.1.01.18.04.25.03.08.07.14.12.2.05.06.12.1.19.14.07.03.16.05.25.05s.18-.02.25-.05c.07-.03.14-.08.19-.14.05-.06.09-.12.12-.2.03-.08.04-.16.04-.24h0ZM86.88,42.21c-.06.14-.15.27-.26.38-.11.11-.24.19-.39.26-.15.06-.32.09-.5.09s-.34-.03-.49-.09c-.15-.06-.28-.15-.39-.25-.11-.11-.2-.23-.26-.38-.06-.14-.09-.3-.09-.46h0c0-.18.03-.33.09-.48.06-.14.15-.27.26-.38.11-.11.24-.19.4-.26.15-.06.32-.09.5-.09s.34.03.49.09c.15.06.28.15.39.25.11.11.2.23.26.38.06.14.09.3.09.47h0c0,.18-.03.33-.09.48M83.9,42.62c-.08.07-.17.12-.27.17-.1.05-.21.08-.32.11-.12.02-.25.04-.39.04-.22,0-.43-.04-.61-.12-.19-.08-.35-.19-.49-.33-.14-.14-.24-.3-.32-.49-.08-.19-.12-.39-.12-.61h0c0-.22.04-.42.12-.61.08-.19.18-.35.32-.49.14-.14.3-.25.49-.33.19-.08.4-.12.63-.12.14,0,.27.01.38.03.12.02.22.05.32.09.09.04.18.09.26.15s.15.12.22.19l-.42.49c-.12-.11-.24-.19-.36-.25-.12-.06-.26-.09-.41-.09-.13,0-.24.02-.35.07-.11.05-.2.11-.28.2-.08.09-.14.19-.18.3-.04.11-.06.23-.06.36h0c0,.14.02.26.06.37.04.11.1.21.18.3s.17.15.28.2c.11.05.22.07.35.07.17,0,.32-.03.44-.09.12-.06.24-.15.35-.26l.42.42c-.08.08-.16.16-.24.22M79.42,42.89c-.08.02-.18.04-.29.04-.1,0-.19-.01-.27-.03-.08-.02-.15-.06-.21-.11-.06-.06-.1-.12-.14-.21-.03-.09-.05-.2-.05-.33v-1.09h-.27v-.56h.27v-.59h.65v.59h.54v.56h-.54v.98c0,.15.07.22.21.22.12,0,.22-.03.32-.08v.52c-.07.04-.14.07-.23.1M77.87,40.29s-.1-.01-.15-.01c-.16,0-.24.08-.24.25v.09h.53v.53h-.52v1.74h-.65v-1.74h-.27v-.54h.27v-.15c0-.26.06-.44.18-.56.12-.12.3-.18.53-.18.1,0,.19,0,.26.02s.14.03.2.05v.54s-.1-.03-.14-.04M75.6,41.74c0-.09-.01-.17-.04-.24-.03-.08-.07-.14-.12-.2-.06-.06-.12-.1-.19-.14-.07-.03-.15-.05-.24-.05-.09,0-.18.02-.25.05-.07.03-.13.08-.19.14-.05.06-.09.12-.12.2-.03.08-.04.16-.04.24h0c0,.1.02.18.04.25.03.08.07.14.12.2.05.06.12.1.19.14.07.03.16.05.25.05s.18-.02.25-.05c.07-.03.14-.08.19-.14.05-.06.09-.12.12-.2s.04-.16.04-.24h0ZM76.15,42.21c-.06.14-.15.27-.26.38-.11.11-.24.19-.4.26-.15.06-.32.09-.5.09s-.34-.03-.49-.09c-.15-.06-.28-.15-.39-.25-.11-.11-.2-.23-.26-.38-.06-.14-.1-.3-.1-.46h0c0-.18.03-.33.1-.48.06-.14.15-.27.26-.38.11-.11.24-.19.39-.26.15-.06.32-.09.5-.09s.34.03.49.09c.15.06.28.15.39.25.11.11.2.23.26.38.06.14.09.3.09.47h0c0,.18-.03.33-.09.48M73.34,42.52c-.05.09-.11.17-.19.23-.08.06-.17.1-.28.13-.11.03-.22.05-.35.05-.16,0-.33-.03-.5-.08-.17-.06-.33-.14-.49-.26l.28-.43c.13.09.25.16.38.21.12.05.24.07.35.07.09,0,.16-.02.21-.05.04-.03.07-.07.07-.12h0s-.01-.07-.04-.1c-.03-.02-.06-.05-.11-.07-.04-.02-.1-.04-.15-.05s-.12-.04-.18-.06c-.08-.02-.16-.05-.24-.08-.08-.03-.16-.08-.22-.13s-.12-.12-.16-.19c-.04-.08-.06-.17-.06-.28h0c0-.13.02-.23.07-.32.04-.09.1-.17.18-.23.08-.06.16-.11.27-.14.1-.03.21-.05.33-.05.15,0,.29.02.44.07.15.05.29.11.41.19l-.25.45c-.12-.07-.23-.12-.33-.16-.11-.04-.21-.06-.29-.06s-.14.01-.18.05-.06.07-.06.11h0s.01.07.04.09c.03.03.06.05.1.07.04.02.09.04.15.06s.12.04.18.06c.08.03.16.06.24.09.08.03.16.08.22.13.07.05.12.11.16.19.04.08.06.17.06.27h0c0,.14-.02.25-.07.34M70.6,41.74c0-.09-.02-.17-.04-.24-.03-.08-.07-.14-.12-.2-.05-.06-.12-.1-.19-.14-.07-.03-.16-.05-.25-.05-.09,0-.18.02-.25.05-.07.03-.13.08-.19.14-.05.06-.09.12-.12.2-.03.08-.04.16-.04.24h0c0,.1.01.18.04.25.03.08.07.14.12.2.06.06.12.1.19.14.07.03.15.05.25.05s.18-.02.25-.05c.07-.03.13-.08.19-.14.05-.06.09-.12.12-.2s.04-.16.04-.24h0ZM71.15,42.21c-.06.14-.15.27-.26.38-.11.11-.24.19-.4.26-.15.06-.32.09-.5.09s-.34-.03-.49-.09c-.15-.06-.28-.15-.39-.25-.11-.11-.2-.23-.26-.38-.06-.14-.09-.3-.09-.46h0c0-.18.03-.33.09-.48.06-.14.15-.27.26-.38.11-.11.24-.19.4-.26s.32-.09.5-.09.34.03.49.09c.15.06.28.15.39.25.11.11.2.23.26.38.06.14.09.3.09.47h0c0,.18-.03.33-.09.48M68.42,41.22c-.22,0-.39.07-.51.2-.12.13-.19.34-.19.61v.85h-.65v-2.3h.65v.46c.07-.16.16-.28.27-.38.12-.09.27-.14.46-.13v.68h-.03ZM66.26,42.82c-.14.08-.33.12-.56.12-.17,0-.33-.03-.48-.09-.15-.06-.27-.15-.38-.26-.11-.11-.19-.23-.25-.38-.06-.14-.09-.3-.09-.46h0c0-.17.03-.33.09-.47.06-.14.14-.27.25-.38.11-.11.23-.19.38-.26.15-.06.31-.09.49-.09.22,0,.4.03.54.1.14.07.27.16.38.28l-.4.43c-.08-.08-.15-.14-.23-.18-.08-.05-.18-.07-.29-.07-.08,0-.16.02-.23.05-.07.03-.13.08-.18.14-.05.06-.09.12-.12.2s-.04.16-.04.24h0c0,.1.01.18.04.26.03.08.07.14.12.2.05.06.11.1.18.14.07.03.15.05.24.05.11,0,.2-.02.28-.07.08-.05.16-.1.24-.18l.38.39c-.11.12-.24.22-.38.3M63.35,40.58h.65v2.3h-.65v-2.3ZM63.34,39.75h.69v.58h-.69v-.58ZM62.02,42.89v-1.96l-.85,1.28h-.02l-.84-1.27v1.95h-.65v-3h.71l.79,1.27.79-1.27h.71v3h-.65Z"/>
  <path class="cls-1" d="M57.17,40.11h.45v3.03h-.65v-2.36l-.52.13-.14-.54.86-.26ZM54.55,40.79c-.09.07-.19.17-.3.31l-.46-.37c.07-.1.15-.19.22-.27.08-.08.16-.14.25-.2.09-.05.18-.09.29-.12.1-.03.23-.04.36-.04.16,0,.3.02.43.07.13.05.24.11.33.19.09.08.16.18.21.29.05.11.07.24.07.38,0,.13-.02.24-.05.34-.03.1-.08.19-.15.28-.06.09-.15.18-.25.26-.1.09-.22.18-.35.28l-.49.38h1.31v.57h-2.22v-.52l1-.82c.1-.08.18-.15.24-.21.06-.06.12-.12.16-.17.04-.06.07-.11.09-.16.02-.05.03-.11.03-.17,0-.13-.04-.23-.11-.29s-.17-.1-.29-.1-.22.03-.31.1M52.58,41.26c-.03-.12-.08-.22-.13-.31-.06-.08-.13-.15-.21-.2-.08-.05-.17-.07-.27-.07s-.19.02-.27.07c-.08.05-.15.11-.21.2-.06.08-.1.19-.13.3-.03.12-.04.24-.04.38s.01.26.05.38c.03.12.08.22.13.3s.13.15.21.2c.08.05.17.07.27.07s.19-.02.27-.07.15-.11.21-.2c.06-.09.1-.19.13-.3.03-.12.05-.24.05-.38s-.02-.26-.05-.38M53.21,42.24c-.06.19-.16.35-.27.49-.12.14-.26.25-.42.33-.16.08-.35.12-.55.12s-.38-.04-.55-.12c-.17-.08-.31-.19-.42-.33-.12-.14-.2-.3-.27-.49-.06-.19-.09-.39-.09-.61s.03-.42.1-.61c.07-.19.15-.36.27-.5.12-.14.26-.25.42-.33.17-.08.35-.12.55-.12s.38.04.55.12c.16.08.31.19.42.33.12.14.21.31.27.49s.09.39.09.61-.03.42-.1.61M48.74,40.79c-.09.07-.19.17-.3.31l-.46-.37c.07-.1.15-.19.22-.27.08-.08.16-.14.24-.2.09-.05.18-.09.29-.12.1-.03.23-.04.36-.04.16,0,.3.02.43.07.13.05.24.11.33.19.09.08.16.18.21.29.05.11.07.24.07.38,0,.13-.02.24-.05.34-.03.1-.08.19-.15.28-.06.09-.15.18-.25.26-.1.09-.22.18-.35.28l-.49.38h1.31v.57h-2.22v-.52l1-.82c.1-.08.17-.15.24-.21.06-.06.12-.12.16-.17.04-.06.07-.11.09-.16.02-.05.03-.11.03-.17,0-.13-.04-.23-.11-.29-.07-.07-.17-.1-.29-.1s-.22.03-.31.1"/>
  <path class="cls-1" d="M45.07,42.14c-.1.05-.24.08-.4.08-.12,0-.23-.02-.34-.07-.11-.05-.19-.1-.27-.18-.07-.08-.13-.17-.17-.27-.04-.1-.07-.22-.07-.34s.02-.23.06-.33c.04-.11.1-.2.18-.27s.17-.14.27-.18c.11-.05.22-.07.35-.07.16,0,.29.02.39.07.1.05.19.11.27.18l-.24.27c-.06-.06-.13-.1-.19-.14-.07-.03-.14-.05-.22-.05-.07,0-.13.01-.19.04-.06.03-.11.06-.15.11-.04.05-.08.1-.1.16-.02.06-.03.13-.03.2s.01.13.03.2.06.12.1.16c.04.05.09.08.15.11.06.03.12.04.19.04.09,0,.17-.02.23-.05.06-.04.13-.08.19-.14l.24.24c-.09.09-.18.16-.28.22M45.93,40.84c-.07-.17-.17-.31-.29-.44-.12-.12-.27-.22-.43-.29-.17-.07-.35-.11-.54-.11s-.38.04-.55.11c-.17.07-.31.17-.44.3-.12.13-.22.27-.29.44s-.1.35-.1.54.03.37.1.54c.07.17.16.31.29.44.12.12.27.22.44.29.17.07.35.11.54.11s.38-.04.55-.11c.17-.07.31-.17.44-.3.12-.13.22-.27.29-.44.07-.17.1-.35.1-.54s-.03-.37-.1-.54M46.09,41.98c-.08.19-.19.35-.33.5-.14.14-.31.25-.5.34-.19.08-.39.12-.61.12s-.42-.04-.61-.12c-.19-.08-.35-.19-.49-.33-.14-.14-.25-.31-.33-.49-.08-.19-.12-.39-.12-.6s.04-.41.12-.6c.08-.19.19-.35.33-.5.14-.14.31-.25.5-.34.19-.08.39-.12.61-.12s.42.04.61.12.35.19.49.33c.14.14.25.3.33.49.08.19.12.39.12.6s-.04.41-.12.6"/>
</svg>