<?xml version="1.0" encoding="UTF-8"?>
<svg id="Capa_1" data-name="Capa 1" xmlns="http://www.w3.org/2000/svg" viewBox="0 0 365.04 97.98">
  <defs>
    <style>
      .cls-1 {
        fill: #222221;
        stroke-width: 0px;
      }
    </style>
  </defs>
  <g>
    <path class="cls-1" d="M146.88,42.99c0-1.09-1.25-1.99-2.92-2.1v5.7c2.1-1.23,2.92-2.45,2.92-3.6M149.2,47.97c0-1.2-.46-2.1-1.66-2.43.6-.65.95-1.55.95-2.48,0-2.21-2.34-3.73-5.99-3.98-.06,0-.08.03-.08.08v19.16c0,.06.05.08.11.03,5.12-4.74,6.68-8.26,6.68-10.38M140.89,39.17c0-.06-.03-.08-.08-.08-.49.05-.9.14-1.36.25-.11.03-.14.08-.14.19l.06,9.78c0,1.23,0,2.24.05,3.38,0,.08-.08.11-.11.03-1.01-3.13-1.47-7.06-1.39-12.73,0-.11-.03-.14-.16-.08-.46.19-1.01.49-1.31.68-.08.05-.11.11-.11.25-.08,3.9.24,7.28.82,9.81l-.3.19c-.11.08-.19.08-.27-.08-.95-2.13-1.55-5.37-1.55-8.86,0-.14-.08-.19-.16-.11-.41.38-.84.82-1.2,1.25-.11.14-.14.22-.14.35.08,2.83.98,6.87,2.37,9.32.16.3.38.38.65.19l1.04-.66c.68,2.29,1.69,4.39,3.19,6.11.05.05.11.03.11-.03v-19.16ZM152.06,43.21c0,7.85-4.09,14.67-10.19,18.73-.08.06-.16.11-.22.11s-.14-.05-.22-.11c-6.11-4.06-10.2-10.88-10.2-18.73,0-.9.08-1.8.25-2.64.03-.11.05-.15.11-.16l1.96-.52.27-1.12c.01-.05.03-.09.08-.11l2.02-.55.24-1.06c.01-.08.06-.12.11-.14l5.24-.97c.09-.02.17-.02.26,0l5.24.97c.06.01.1.05.11.14l.25,1.06,2.02.55c.05.01.07.05.08.11l.27,1.12,1.96.52c.06.01.08.05.11.16.16.84.25,1.74.25,2.64M147.54,48.27c0,1.09-.79,3.21-3.57,6.32v-6.16c1.61-1.15,2.13-1.36,2.7-1.36.52,0,.87.44.87,1.2"/>
    <g>
      <g>
        <path class="cls-1" d="M104.74,61.89c-6.14,0-11.89-1.34-16.21-3.77-4.36-2.45-6.76-5.75-6.76-9.29,0-7.23,10.09-12.9,22.97-12.9s22.98,5.67,22.98,12.9c0,3.53-2.4,6.83-6.76,9.29-4.32,2.43-10.08,3.77-16.22,3.77ZM104.74,36.21c-12.73,0-22.69,5.55-22.69,12.62s10.18,12.78,22.69,12.78,22.7-5.73,22.7-12.78-9.97-12.62-22.7-12.62Z"/>
        <path class="cls-1" d="M109.97,52.89c1.8.25,2.16,1.97,2.16,1.97,0,0,2.61-2.92,4.79-2.12,3.22,1.18.75,4.23.29,4.93.56-.15,8.34-2.46,8.34-8.98s-11.91-9.7-11.91-9.7c1.01.81,2.07,2.52.61,4.82-1.6,2.54-4.77,1.71-5.83,1.16-.7-.9-1.05-5.62-1.15-6.88-.45.15-1.35,2.41-1.35,2.41h-2.33s-.9-2.26-1.36-2.41c-.1,1.26-.45,5.98-1.16,6.88-1.05.55-4.23,1.38-5.82-1.16-1.46-2.31-.4-4.02.6-4.82,0,0-11.91,3.17-11.91,9.7s7.78,8.83,8.34,8.98c-.46-.7-2.94-3.75.28-4.93,2.18-.81,4.79,2.12,4.79,2.12,0,0,.37-1.72,2.16-1.97,2.65-.37,5.23,5.5,5.23,5.5,0,0,2.58-5.87,5.23-5.5"/>
      </g>
      <g>
        <polygon class="cls-1" points="120.82 59.95 120.82 60.12 121.28 60.12 121.28 61.46 121.48 61.46 121.48 60.12 121.94 60.12 121.94 59.95 120.82 59.95"/>
        <path class="cls-1" d="M123.38,60.8c-.01-.21-.02-.46-.02-.65h0c-.05.18-.11.36-.19.57l-.27.73h-.15l-.24-.72c-.07-.21-.13-.41-.17-.59h0c0,.19-.02.44-.03.67l-.04.65h-.19l.11-1.51h.25l.26.73c.06.19.11.35.15.51h0c.04-.15.09-.32.16-.51l.27-.73h.25l.09,1.51h-.19l-.04-.66Z"/>
      </g>
    </g>
    <g>
      <path class="cls-1" d="M66.44,35.93c-7.17,0-12.98,5.81-12.98,12.98s5.81,12.98,12.98,12.98,12.98-5.81,12.98-12.98-5.81-12.98-12.98-12.98M69.98,45.44h3.49v1.92c0,.05.04.09.09.09h2.92c.05,0,.1-.04.1-.09l.58-3.65s.07-.06.09-.01c.76,1.58,1.19,3.35,1.19,5.22,0,2.11-.55,4.1-1.5,5.82-.02.04-.09.03-.09-.02v-3.34s-.04-.09-.09-.09h-3.2c-.05,0-.09.04-.09.09v1.78h-1.41c-.65,0-1.18-.53-1.18-1.18v-5.79c0-.06-.03-.11-.07-.14l-.83-.61ZM55.19,44.91l1.12.82s.07.09.07.14v9.44s-.06.07-.09.03c-1.18-1.86-1.86-4.06-1.86-6.42,0-1.39.24-2.73.68-3.98.01-.03.05-.05.08-.03M66.44,60.91c-3.79,0-7.16-1.75-9.36-4.49-.03-.03,0-.08.04-.08h6.42c.06,0,.12-.02.17-.05l2.45-1.78s.07-.08.07-.14v-10.2c0-.06-.03-.11-.07-.14l-2.45-1.78s-.11-.05-.17-.05h-6.95s-.06-.04-.04-.08c2.16-3.15,5.79-5.21,9.9-5.21s7.73,2.06,9.9,5.21c.02.03,0,.08-.04.08h-1.73c-.06,0-.11.03-.13.09l-.38.82-1.17-.85s-.11-.05-.17-.05h-2.76c-.06,0-.12.02-.17.05l-2.45,1.78s-.07.08-.07.14v10.2c0,.06.03.11.07.14l2.45,1.78s.11.05.17.05h5.81s.06.05.04.08c-2.2,2.74-5.58,4.49-9.36,4.49M59.1,45.44h2.33c.65,0,1.18.53,1.18,1.18v5.36c0,.65-.53,1.18-1.18,1.18h-1.42v-6.97c0-.06-.03-.11-.07-.14l-.83-.61Z"/>
      <g>
        <path class="cls-1" d="M76.91,60.8c-.01-.21-.02-.46-.02-.65h0c-.05.18-.11.36-.19.57l-.27.73h-.15l-.24-.72c-.07-.21-.13-.41-.17-.59h0c0,.19-.02.44-.03.67l-.04.65h-.19l.11-1.51h.25l.26.73c.06.19.11.35.15.51h0c.04-.15.09-.32.16-.51l.27-.73h.25l.09,1.51h-.19l-.04-.66Z"/>
        <polygon class="cls-1" points="74.35 59.95 74.35 60.12 74.81 60.12 74.81 61.46 75.01 61.46 75.01 60.12 75.47 60.12 75.47 59.95 74.35 59.95"/>
      </g>
    </g>
  </g>
  <g>
    <path class="cls-1" d="M156.1,41.45c.3-.06.76-.11,1.24-.11.68,0,1.11.12,1.44.38.27.2.44.51.44.92,0,.5-.33.95-.89,1.15v.02c.5.12,1.08.54,1.08,1.31,0,.45-.18.79-.44,1.05-.37.33-.96.49-1.81.49-.47,0-.82-.03-1.05-.06v-5.15ZM156.77,43.59h.61c.71,0,1.13-.37,1.13-.88,0-.61-.47-.85-1.15-.85-.31,0-.49.02-.6.05v1.69ZM156.77,46.1c.13.02.33.03.57.03.7,0,1.34-.26,1.34-1.02,0-.71-.61-1.01-1.35-1.01h-.56v2Z"/>
    <path class="cls-1" d="M161.15,44.96l-.54,1.65h-.7l1.78-5.23h.82l1.79,5.23h-.72l-.56-1.65h-1.86ZM162.87,44.44l-.51-1.51c-.12-.34-.19-.65-.27-.96h-.02c-.08.31-.16.63-.26.95l-.51,1.51h1.58Z"/>
    <path class="cls-1" d="M165.46,41.95h-1.59v-.57h3.88v.57h-1.6v4.66h-.68v-4.66Z"/>
    <path class="cls-1" d="M172.73,44.31c-.04-.73-.09-1.61-.08-2.26h-.02c-.18.61-.4,1.27-.66,1.99l-.92,2.54h-.51l-.85-2.49c-.25-.74-.46-1.41-.61-2.03h-.02c-.02.65-.05,1.53-.1,2.31l-.14,2.24h-.64l.37-5.23h.86l.89,2.53c.22.64.4,1.22.53,1.76h.02c.13-.53.32-1.1.55-1.76l.93-2.53h.86l.33,5.23h-.66l-.13-2.3Z"/>
    <path class="cls-1" d="M175.33,44.96l-.54,1.65h-.7l1.78-5.23h.82l1.79,5.23h-.72l-.56-1.65h-1.86ZM177.05,44.44l-.51-1.51c-.12-.34-.19-.65-.27-.96h-.02c-.08.31-.16.63-.26.95l-.51,1.51h1.58Z"/>
    <path class="cls-1" d="M179.24,46.61v-5.23h.74l1.68,2.65c.39.61.69,1.17.94,1.7h.02c-.06-.71-.08-1.34-.08-2.16v-2.19h.64v5.23h-.68l-1.66-2.66c-.37-.58-.71-1.18-.98-1.75h-.02c.04.67.05,1.3.05,2.17v2.24h-.64Z"/>
    <path class="cls-1" d="M188.05,46.61l-.05-.47h-.02c-.21.29-.61.56-1.15.56-.76,0-1.15-.54-1.15-1.08,0-.91.81-1.41,2.26-1.4v-.08c0-.31-.09-.87-.85-.87-.35,0-.71.11-.98.28l-.16-.45c.31-.2.76-.33,1.23-.33,1.15,0,1.43.78,1.43,1.54v1.41c0,.33.02.65.06.9h-.62ZM187.95,44.69c-.75-.02-1.59.12-1.59.85,0,.44.29.65.64.65.49,0,.8-.31.91-.63.02-.07.04-.15.04-.22v-.65Z"/>
    <path class="cls-1" d="M189.72,43.87c0-.39,0-.71-.03-1.02h.61l.04.62h.02c.19-.36.62-.71,1.24-.71.52,0,1.33.31,1.33,1.6v2.24h-.68v-2.17c0-.61-.22-1.11-.87-1.11-.45,0-.8.32-.92.7-.03.08-.05.2-.05.32v2.26h-.68v-2.74Z"/>
    <path class="cls-1" d="M197.27,41.1v4.54c0,.33,0,.71.03.97h-.61l-.03-.65h-.02c-.21.42-.67.74-1.28.74-.91,0-1.61-.77-1.61-1.91,0-1.25.77-2.02,1.69-2.02.58,0,.96.27,1.13.58h.02v-2.25h.68ZM196.59,44.38c0-.08,0-.2-.03-.29-.1-.43-.47-.79-.99-.79-.71,0-1.13.62-1.13,1.45,0,.76.37,1.39,1.11,1.39.46,0,.88-.3,1-.82.02-.09.03-.19.03-.29v-.65Z"/>
    <path class="cls-1" d="M202.13,46.61l-.05-.47h-.02c-.21.29-.61.56-1.15.56-.76,0-1.15-.54-1.15-1.08,0-.91.81-1.41,2.26-1.4v-.08c0-.31-.09-.87-.85-.87-.35,0-.71.11-.98.28l-.16-.45c.31-.2.76-.33,1.23-.33,1.15,0,1.43.78,1.43,1.54v1.41c0,.33.02.65.06.9h-.62ZM202.03,44.69c-.75-.02-1.59.12-1.59.85,0,.44.29.65.64.65.49,0,.8-.31.91-.63.02-.07.04-.15.04-.22v-.65Z"/>
    <path class="cls-1" d="M203.79,41.1h.68v5.51h-.68v-5.51Z"/>
    <path class="cls-1" d="M205.63,41.1h.68v5.51h-.68v-5.51Z"/>
    <path class="cls-1" d="M209.1,44.03c0-.44,0-.82-.03-1.17h.6l.02.74h.03c.17-.5.58-.82,1.04-.82.08,0,.13,0,.19.02v.64c-.07-.02-.14-.02-.23-.02-.48,0-.82.37-.92.88-.02.09-.03.2-.03.32v2h-.67v-2.59Z"/>
    <path class="cls-1" d="M211.95,44.86c.02.92.61,1.3,1.29,1.3.49,0,.78-.09,1.04-.19l.12.49c-.24.11-.65.23-1.25.23-1.16,0-1.85-.76-1.85-1.9s.67-2.03,1.76-2.03c1.23,0,1.55,1.08,1.55,1.77,0,.14-.02.25-.02.32h-2.64ZM213.95,44.37c0-.44-.18-1.11-.95-1.11-.69,0-.99.64-1.05,1.11h2Z"/>
    <path class="cls-1" d="M215.46,41.1h.68v5.51h-.68v-5.51Z"/>
    <path class="cls-1" d="M219.37,46.61l-.05-.47h-.02c-.21.29-.61.56-1.15.56-.76,0-1.15-.54-1.15-1.08,0-.91.81-1.41,2.26-1.4v-.08c0-.31-.09-.87-.85-.87-.35,0-.71.11-.98.28l-.16-.45c.31-.2.76-.33,1.23-.33,1.15,0,1.43.78,1.43,1.54v1.41c0,.33.02.65.06.9h-.62ZM219.27,44.69c-.75-.02-1.59.12-1.59.85,0,.44.29.65.64.65.49,0,.8-.31.91-.63.02-.07.04-.15.04-.22v-.65Z"/>
    <path class="cls-1" d="M221.82,41.77v1.08h.98v.52h-.98v2.03c0,.47.13.73.51.73.18,0,.31-.02.4-.05l.03.51c-.13.05-.34.09-.61.09-.32,0-.58-.1-.74-.29-.19-.2-.26-.54-.26-.98v-2.05h-.58v-.52h.58v-.9l.67-.18Z"/>
    <path class="cls-1" d="M223.9,44.86c.02.92.61,1.3,1.29,1.3.49,0,.79-.09,1.04-.19l.12.49c-.24.11-.65.23-1.25.23-1.16,0-1.85-.76-1.85-1.9s.67-2.03,1.76-2.03c1.23,0,1.55,1.08,1.55,1.77,0,.14-.02.25-.02.32h-2.64ZM225.91,44.37c0-.44-.18-1.11-.95-1.11-.69,0-.99.64-1.05,1.11h2Z"/>
    <path class="cls-1" d="M230.66,41.1v4.54c0,.33,0,.71.03.97h-.61l-.03-.65h-.02c-.21.42-.67.74-1.28.74-.91,0-1.61-.77-1.61-1.91,0-1.25.77-2.02,1.69-2.02.58,0,.96.27,1.13.58h.02v-2.25h.68ZM229.98,44.38c0-.08,0-.2-.03-.29-.1-.43-.47-.79-.99-.79-.71,0-1.13.62-1.13,1.45,0,.76.37,1.39,1.11,1.39.46,0,.88-.3,1-.82.02-.09.03-.19.03-.29v-.65Z"/>
    <path class="cls-1" d="M236.12,46.47c-.18.09-.57.22-1.08.22-1.13,0-1.87-.77-1.87-1.92s.79-2,2.02-2c.4,0,.76.1.95.19l-.16.53c-.16-.09-.42-.18-.79-.18-.86,0-1.33.64-1.33,1.42,0,.87.56,1.41,1.3,1.41.39,0,.64-.1.84-.19l.12.51Z"/>
    <path class="cls-1" d="M236.92,41.1h.68v2.35h.02c.11-.19.28-.37.49-.48.2-.12.44-.19.7-.19.5,0,1.31.31,1.31,1.61v2.24h-.68v-2.16c0-.61-.22-1.12-.87-1.12-.44,0-.79.31-.92.68-.04.09-.05.19-.05.33v2.27h-.68v-5.51Z"/>
    <path class="cls-1" d="M243.31,46.61l-.05-.47h-.02c-.21.29-.61.56-1.15.56-.76,0-1.15-.54-1.15-1.08,0-.91.81-1.41,2.26-1.4v-.08c0-.31-.09-.87-.85-.87-.35,0-.71.11-.98.28l-.16-.45c.31-.2.76-.33,1.23-.33,1.15,0,1.43.78,1.43,1.54v1.41c0,.33.02.65.06.9h-.62ZM243.21,44.69c-.75-.02-1.59.12-1.59.85,0,.44.29.65.64.65.49,0,.8-.31.91-.63.02-.07.04-.15.04-.22v-.65Z"/>
    <path class="cls-1" d="M244.97,44.03c0-.44,0-.82-.03-1.17h.6l.02.74h.03c.17-.5.58-.82,1.04-.82.08,0,.13,0,.19.02v.64c-.07-.02-.14-.02-.23-.02-.48,0-.82.37-.92.88-.02.09-.03.2-.03.32v2h-.67v-2.59Z"/>
    <path class="cls-1" d="M249.55,46.61l-.05-.47h-.02c-.21.29-.61.56-1.15.56-.76,0-1.15-.54-1.15-1.08,0-.91.81-1.41,2.26-1.4v-.08c0-.31-.09-.87-.85-.87-.35,0-.71.11-.98.28l-.16-.45c.31-.2.76-.33,1.23-.33,1.15,0,1.43.78,1.43,1.54v1.41c0,.33.02.65.06.9h-.62ZM249.45,44.69c-.75-.02-1.59.12-1.59.85,0,.44.29.65.64.65.49,0,.8-.31.91-.63.02-.07.04-.15.04-.22v-.65Z"/>
    <path class="cls-1" d="M253.89,46.47c-.18.09-.57.22-1.08.22-1.13,0-1.87-.77-1.87-1.92s.79-2,2.02-2c.4,0,.76.1.95.19l-.16.53c-.16-.09-.42-.18-.79-.18-.86,0-1.33.64-1.33,1.42,0,.87.56,1.41,1.3,1.41.39,0,.64-.1.84-.19l.12.51Z"/>
    <path class="cls-1" d="M255.62,41.77v1.08h.98v.52h-.98v2.03c0,.47.13.73.51.73.18,0,.31-.02.4-.05l.03.51c-.13.05-.34.09-.61.09-.32,0-.58-.1-.74-.29-.19-.2-.26-.54-.26-.98v-2.05h-.58v-.52h.58v-.9l.67-.18Z"/>
    <path class="cls-1" d="M257.7,44.86c.02.92.61,1.3,1.29,1.3.49,0,.78-.09,1.04-.19l.12.49c-.24.11-.65.23-1.25.23-1.16,0-1.85-.76-1.85-1.9s.67-2.03,1.76-2.03c1.23,0,1.55,1.08,1.55,1.77,0,.14-.02.25-.02.32h-2.64ZM259.7,44.37c0-.44-.18-1.11-.95-1.11-.69,0-.99.64-1.05,1.11h2Z"/>
    <path class="cls-1" d="M261.21,44.03c0-.44,0-.82-.03-1.17h.6l.02.74h.03c.17-.5.58-.82,1.04-.82.08,0,.13,0,.19.02v.64c-.07-.02-.14-.02-.23-.02-.48,0-.82.37-.92.88-.02.09-.03.2-.03.32v2h-.68v-2.59Z"/>
    <path class="cls-1" d="M263.65,45.91c.2.13.56.27.9.27.5,0,.73-.25.73-.56,0-.33-.19-.5-.7-.69-.68-.24-.99-.61-.99-1.06,0-.61.49-1.1,1.3-1.1.38,0,.71.11.92.23l-.17.5c-.15-.09-.42-.22-.77-.22-.4,0-.63.23-.63.51,0,.31.22.45.71.64.65.25.99.58.99,1.13,0,.66-.51,1.13-1.41,1.13-.41,0-.79-.1-1.06-.26l.17-.52Z"/>
    <path class="cls-1" d="M270.55,46.61l-.05-.47h-.02c-.21.29-.61.56-1.15.56-.76,0-1.15-.54-1.15-1.08,0-.91.81-1.41,2.26-1.4v-.08c0-.31-.09-.87-.85-.87-.35,0-.71.11-.98.28l-.16-.45c.31-.2.76-.33,1.23-.33,1.15,0,1.43.78,1.43,1.54v1.41c0,.33.02.65.06.9h-.62ZM270.45,44.69c-.75-.02-1.59.12-1.59.85,0,.44.29.65.64.65.49,0,.8-.31.91-.63.02-.07.04-.15.04-.22v-.65Z"/>
    <path class="cls-1" d="M272.21,43.87c0-.39,0-.71-.03-1.02h.61l.04.62h.02c.19-.36.62-.71,1.24-.71.52,0,1.33.31,1.33,1.6v2.24h-.68v-2.17c0-.61-.22-1.11-.87-1.11-.45,0-.8.32-.92.7-.03.08-.05.2-.05.32v2.26h-.68v-2.74Z"/>
    <path class="cls-1" d="M279.77,41.1v4.54c0,.33,0,.71.03.97h-.61l-.03-.65h-.02c-.21.42-.67.74-1.28.74-.91,0-1.61-.77-1.61-1.91,0-1.25.77-2.02,1.69-2.02.58,0,.96.27,1.13.58h.02v-2.25h.68ZM279.08,44.38c0-.08,0-.2-.03-.29-.1-.43-.47-.79-.99-.79-.71,0-1.13.62-1.13,1.45,0,.76.37,1.39,1.11,1.39.46,0,.88-.3,1-.82.02-.09.03-.19.03-.29v-.65Z"/>
    <path class="cls-1" d="M282.93,44.86c.02.92.61,1.3,1.29,1.3.49,0,.78-.09,1.04-.19l.12.49c-.24.11-.65.23-1.25.23-1.16,0-1.85-.76-1.85-1.9s.67-2.03,1.76-2.03c1.23,0,1.55,1.08,1.55,1.77,0,.14-.02.25-.02.32h-2.64ZM284.93,44.37c0-.44-.18-1.11-.95-1.11-.69,0-.99.64-1.05,1.11h2Z"/>
    <path class="cls-1" d="M286.44,41.1h.68v5.51h-.68v-5.51Z"/>
    <path class="cls-1" d="M288.65,44.86c.02.92.61,1.3,1.29,1.3.49,0,.79-.09,1.04-.19l.12.49c-.24.11-.65.23-1.25.23-1.16,0-1.85-.76-1.85-1.9s.67-2.03,1.76-2.03c1.23,0,1.55,1.08,1.55,1.77,0,.14-.02.25-.02.32h-2.64ZM290.65,44.37c0-.44-.18-1.11-.95-1.11-.69,0-.99.64-1.05,1.11h2Z"/>
    <path class="cls-1" d="M292.16,43.87c0-.39,0-.71-.03-1.02h.6l.03.61h.02c.21-.36.56-.69,1.18-.69.51,0,.9.31,1.06.75h.02c.12-.21.26-.37.42-.49.22-.17.47-.26.83-.26.5,0,1.23.33,1.23,1.63v2.21h-.67v-2.13c0-.72-.26-1.16-.82-1.16-.39,0-.69.29-.81.62-.03.09-.05.22-.05.34v2.32h-.67v-2.25c0-.6-.26-1.03-.78-1.03-.43,0-.74.34-.85.68-.04.1-.05.22-.05.33v2.27h-.67v-2.74Z"/>
    <path class="cls-1" d="M299.02,44.86c.02.92.61,1.3,1.29,1.3.49,0,.78-.09,1.04-.19l.12.49c-.24.11-.65.23-1.25.23-1.16,0-1.85-.76-1.85-1.9s.67-2.03,1.76-2.03c1.23,0,1.55,1.08,1.55,1.77,0,.14-.02.25-.02.32h-2.64ZM301.02,44.37c0-.44-.18-1.11-.95-1.11-.69,0-.99.64-1.05,1.11h2Z"/>
    <path class="cls-1" d="M302.53,43.87c0-.39,0-.71-.03-1.02h.61l.04.62h.02c.19-.36.62-.71,1.24-.71.52,0,1.33.31,1.33,1.6v2.24h-.68v-2.17c0-.61-.22-1.11-.87-1.11-.45,0-.8.32-.92.7-.03.08-.05.2-.05.32v2.26h-.68v-2.74Z"/>
    <path class="cls-1" d="M307.63,41.77v1.08h.98v.52h-.98v2.03c0,.47.13.73.51.73.18,0,.31-.02.4-.05l.03.51c-.13.05-.34.09-.61.09-.32,0-.58-.1-.74-.29-.19-.2-.26-.54-.26-.98v-2.05h-.58v-.52h.58v-.9l.67-.18Z"/>
    <path class="cls-1" d="M309.28,45.91c.2.13.56.27.9.27.5,0,.73-.25.73-.56,0-.33-.19-.5-.7-.69-.68-.24-.99-.61-.99-1.06,0-.61.49-1.1,1.3-1.1.38,0,.71.11.92.23l-.17.5c-.15-.09-.42-.22-.77-.22-.4,0-.63.23-.63.51,0,.31.22.45.71.64.65.25.99.58.99,1.13,0,.66-.51,1.13-1.41,1.13-.41,0-.79-.1-1.06-.26l.17-.52Z"/>
    <path class="cls-1" d="M160.49,53.29c0,1.34-1.03,2.41-2.34,2.41s-2.36-1.07-2.36-2.41,1.04-2.39,2.36-2.39,2.34,1.07,2.34,2.39ZM156.18,53.31c0,1.16.85,2.07,1.97,2.07s1.95-.91,1.95-2.09-.85-2.07-1.95-2.07-1.97.92-1.97,2.1ZM159.1,52.4c-.1-.05-.39-.18-.75-.18-.73,0-1.09.47-1.09,1.09s.38,1.09,1.1,1.09c.31,0,.61-.08.78-.2l.09.3c-.27.18-.63.24-.96.24-.9,0-1.42-.62-1.42-1.41,0-.89.7-1.45,1.48-1.45.4,0,.75.12.85.21l-.09.3Z"/>
    <path class="cls-1" d="M166.28,55.93c-.15-.15-.29-.29-.49-.51-.45.42-.96.6-1.53.6-1.02,0-1.61-.68-1.61-1.47,0-.71.43-1.2,1.02-1.53v-.02c-.27-.34-.43-.72-.43-1.1,0-.64.46-1.29,1.33-1.29.65,0,1.16.43,1.16,1.11,0,.55-.32.99-1.15,1.4v.02c.44.51.94,1.09,1.27,1.46.24-.37.4-.87.5-1.53h.62c-.14.82-.36,1.48-.75,1.93.28.29.55.59.86.92h-.81ZM165.46,55.03c-.31-.34-.89-.98-1.48-1.65-.28.18-.68.51-.68,1.06,0,.6.44,1.06,1.07,1.06.45,0,.83-.2,1.08-.47ZM163.86,51.84c0,.37.17.66.4.94.53-.3.87-.58.87-1.03,0-.32-.18-.68-.61-.68s-.66.36-.66.76Z"/>
    <path class="cls-1" d="M170.76,50.7v.35h-.68v1.76h-.42v-1.76h-.68v-.35h1.77ZM173.04,52.81l-.08-1.24c0-.16,0-.36-.02-.59h-.02c-.05.19-.12.43-.18.63l-.38,1.17h-.43l-.38-1.2c-.04-.16-.1-.41-.15-.6h-.02c0,.19,0,.4-.02.59l-.08,1.24h-.4l.16-2.11h.63l.37,1.03c.05.16.09.32.14.54h0c.05-.19.1-.37.15-.53l.37-1.04h.61l.16,2.11h-.42Z"/>
    <path class="cls-1" d="M175.8,50.76c.41-.06.9-.11,1.44-.11.97,0,1.66.22,2.12.65.47.43.74,1.03.74,1.88s-.26,1.55-.75,2.03c-.49.49-1.3.75-2.31.75-.48,0-.89-.02-1.23-.06v-5.15ZM176.48,55.39c.17.03.42.04.68.04,1.45,0,2.23-.81,2.23-2.22,0-1.23-.69-2.02-2.12-2.02-.35,0-.61.03-.79.07v4.13Z"/>
    <path class="cls-1" d="M184.63,55.76c-.25.12-.75.25-1.38.25-1.48,0-2.59-.93-2.59-2.65s1.11-2.75,2.73-2.75c.65,0,1.06.14,1.24.23l-.16.55c-.26-.12-.62-.22-1.06-.22-1.23,0-2.04.78-2.04,2.16,0,1.28.74,2.1,2.01,2.1.41,0,.83-.09,1.1-.22l.14.54Z"/>
    <path class="cls-1" d="M185.29,55.53c0-.29.19-.49.47-.49s.46.2.46.49-.18.49-.47.49-.46-.21-.46-.49Z"/>
    <path class="cls-1" d="M189.3,55.93l-1.33-5.23h.71l.62,2.65c.16.65.29,1.3.39,1.81h.02c.08-.52.25-1.14.43-1.82l.7-2.64h.71l.64,2.66c.15.62.29,1.24.37,1.79h.02c.11-.58.26-1.16.42-1.81l.69-2.64h.69l-1.48,5.23h-.71l-.66-2.73c-.16-.67-.27-1.18-.34-1.71h-.02c-.09.52-.21,1.03-.4,1.71l-.75,2.73h-.71Z"/>
    <path class="cls-1" d="M195.02,50.76c.3-.06.76-.11,1.24-.11.68,0,1.11.12,1.44.38.27.2.44.51.44.92,0,.5-.33.95-.89,1.15v.02c.5.12,1.08.54,1.08,1.31,0,.45-.18.79-.44,1.05-.37.33-.96.49-1.81.49-.47,0-.82-.03-1.05-.06v-5.15ZM195.69,52.91h.61c.71,0,1.13-.37,1.13-.88,0-.61-.47-.85-1.15-.85-.31,0-.49.02-.6.05v1.69ZM195.69,55.42c.13.02.33.03.57.03.7,0,1.34-.26,1.34-1.02,0-.71-.61-1.01-1.35-1.01h-.56v2Z"/>
    <path class="cls-1" d="M200.78,55.11c.3.19.75.34,1.21.34.69,0,1.09-.37,1.09-.89,0-.49-.28-.77-.99-1.04-.85-.3-1.38-.75-1.38-1.48,0-.82.68-1.42,1.69-1.42.54,0,.92.12,1.16.26l-.19.55c-.17-.09-.52-.25-.99-.25-.71,0-.99.43-.99.78,0,.49.32.73,1.04,1.01.89.34,1.34.77,1.34,1.54,0,.81-.6,1.51-1.83,1.51-.5,0-1.06-.15-1.34-.33l.17-.57Z"/>
    <path class="cls-1" d="M205.38,50.7v2.19h2.53v-2.19h.68v5.23h-.68v-2.45h-2.53v2.45h-.68v-5.23h.68Z"/>
    <path class="cls-1" d="M210.44,50.7v5.23h-.68v-5.23h.68Z"/>
    <path class="cls-1" d="M214.33,53.48h-2.04v1.89h2.27v.57h-2.94v-5.23h2.83v.57h-2.15v1.65h2.04v.56Z"/>
    <path class="cls-1" d="M215.44,50.7h.68v4.67h2.24v.57h-2.91v-5.23Z"/>
    <path class="cls-1" d="M219.1,50.76c.41-.06.9-.11,1.44-.11.97,0,1.66.22,2.12.65.47.43.74,1.03.74,1.88s-.26,1.55-.75,2.03c-.49.49-1.3.75-2.31.75-.48,0-.89-.02-1.23-.06v-5.15ZM219.78,55.39c.17.03.42.04.68.04,1.45,0,2.23-.81,2.23-2.22,0-1.23-.69-2.02-2.12-2.02-.35,0-.61.03-.79.07v4.13Z"/>
    <path class="cls-1" d="M224.09,52.79c0-.29.19-.49.47-.49s.45.2.46.49c0,.27-.18.48-.47.48s-.46-.21-.46-.48ZM224.09,55.53c0-.29.19-.49.47-.49s.45.2.46.49c0,.27-.18.48-.47.48s-.46-.21-.46-.48Z"/>
    <path class="cls-1" d="M231.92,53.29c0,1.34-1.03,2.41-2.34,2.41s-2.36-1.07-2.36-2.41,1.04-2.39,2.36-2.39,2.34,1.07,2.34,2.39ZM227.61,53.31c0,1.16.85,2.07,1.97,2.07s1.95-.91,1.95-2.09-.85-2.07-1.95-2.07-1.97.92-1.97,2.1ZM230.53,52.4c-.1-.05-.39-.18-.75-.18-.73,0-1.09.47-1.09,1.09s.38,1.09,1.1,1.09c.31,0,.61-.08.78-.2l.09.3c-.27.18-.63.24-.96.24-.9,0-1.42-.62-1.42-1.41,0-.89.7-1.45,1.48-1.45.4,0,.75.12.85.21l-.09.3Z"/>
    <path class="cls-1" d="M237.71,55.93c-.15-.15-.29-.29-.49-.51-.45.42-.96.6-1.53.6-1.02,0-1.61-.68-1.61-1.47,0-.71.43-1.2,1.02-1.53v-.02c-.27-.34-.43-.72-.43-1.1,0-.64.46-1.29,1.33-1.29.65,0,1.16.43,1.16,1.11,0,.55-.32.99-1.15,1.4v.02c.44.51.94,1.09,1.27,1.46.24-.37.4-.87.5-1.53h.62c-.14.82-.36,1.48-.75,1.93.28.29.55.59.86.92h-.81ZM236.89,55.03c-.31-.34-.89-.98-1.48-1.65-.28.18-.68.51-.68,1.06,0,.6.44,1.06,1.07,1.06.45,0,.83-.2,1.08-.47ZM235.3,51.84c0,.37.17.66.4.94.53-.3.87-.58.87-1.03,0-.32-.18-.68-.61-.68s-.66.36-.66.76Z"/>
    <path class="cls-1" d="M242.19,50.7v.35h-.68v1.76h-.42v-1.76h-.68v-.35h1.77ZM244.47,52.81l-.08-1.24c0-.16,0-.36-.02-.59h-.02c-.05.19-.12.43-.18.63l-.38,1.17h-.43l-.38-1.2c-.04-.16-.1-.41-.15-.6h-.02c0,.19,0,.4-.02.59l-.08,1.24h-.4l.16-2.11h.63l.37,1.03c.05.16.09.32.14.54h0c.05-.19.1-.37.15-.53l.37-1.04h.61l.16,2.11h-.42Z"/>
    <path class="cls-1" d="M247.8,55.93l-1.33-5.23h.71l.62,2.65c.16.65.29,1.3.39,1.81h.02c.08-.52.25-1.14.43-1.82l.7-2.64h.71l.64,2.66c.15.62.29,1.24.37,1.79h.02c.11-.58.26-1.16.42-1.81l.69-2.64h.69l-1.48,5.23h-.71l-.66-2.73c-.16-.67-.27-1.18-.34-1.71h-.02c-.09.52-.21,1.03-.4,1.71l-.75,2.73h-.71Z"/>
    <path class="cls-1" d="M253.52,50.76c.3-.06.76-.11,1.24-.11.68,0,1.11.12,1.44.38.27.2.44.51.44.92,0,.5-.33.95-.89,1.15v.02c.5.12,1.08.54,1.08,1.31,0,.45-.18.79-.44,1.05-.37.33-.96.49-1.81.49-.47,0-.82-.03-1.05-.06v-5.15ZM254.19,52.91h.61c.71,0,1.13-.37,1.13-.88,0-.61-.47-.85-1.15-.85-.31,0-.49.02-.6.05v1.69ZM254.19,55.42c.13.02.33.03.57.03.7,0,1.34-.26,1.34-1.02,0-.71-.61-1.01-1.35-1.01h-.56v2Z"/>
    <path class="cls-1" d="M260.44,53.48h-2.04v1.89h2.27v.57h-2.94v-5.23h2.83v.57h-2.15v1.65h2.04v.56Z"/>
    <path class="cls-1" d="M262.22,50.7v5.23h-.68v-5.23h.68Z"/>
    <path class="cls-1" d="M263.22,55.53c0-.29.19-.49.47-.49s.46.2.46.49-.18.49-.47.49-.46-.21-.46-.49Z"/>
    <path class="cls-1" d="M268.12,50.54c-.57.76-.98,1.77-.98,3.18s.43,2.38.98,3.15h-.54c-.49-.64-1.02-1.64-1.02-3.15,0-1.53.53-2.52,1.02-3.18h.54Z"/>
    <path class="cls-1" d="M268.75,55.23c.2.13.56.27.9.27.5,0,.73-.25.73-.56,0-.33-.19-.5-.7-.69-.68-.24-.99-.61-.99-1.06,0-.61.49-1.1,1.3-1.1.38,0,.71.11.92.23l-.17.5c-.15-.09-.42-.22-.77-.22-.4,0-.63.23-.63.51,0,.31.22.45.71.64.65.25.99.58.99,1.13,0,.66-.51,1.13-1.41,1.13-.41,0-.79-.1-1.06-.26l.17-.52Z"/>
    <path class="cls-1" d="M271.7,55.93v-.42l.54-.52c1.29-1.23,1.87-1.88,1.88-2.64,0-.51-.25-.99-1-.99-.46,0-.84.23-1.07.43l-.22-.48c.35-.29.85-.51,1.43-.51,1.09,0,1.54.75,1.54,1.47,0,.93-.68,1.69-1.74,2.71l-.4.37h0s2.27.01,2.27.01v.57h-3.22Z"/>
    <path class="cls-1" d="M275.84,55.15c.19.12.64.32,1.12.32.88,0,1.15-.56,1.14-.98,0-.71-.64-1.01-1.3-1.01h-.38v-.51h.38c.5,0,1.13-.26,1.13-.85,0-.4-.26-.76-.88-.76-.4,0-.79.18-1.01.33l-.18-.5c.26-.19.78-.39,1.32-.39.99,0,1.44.59,1.44,1.2,0,.52-.31.96-.93,1.19h0c.62.14,1.13.61,1.13,1.31,0,.81-.63,1.51-1.84,1.51-.57,0-1.06-.18-1.31-.34l.19-.53Z"/>
    <path class="cls-1" d="M279.47,56.87c.55-.77.98-1.78.98-3.18s-.42-2.38-.98-3.15h.53c.5.64,1.02,1.63,1.02,3.16s-.52,2.51-1.02,3.17h-.53Z"/>
  </g>
</svg>