<?xml version="1.0" encoding="UTF-8"?>
<svg id="Capa_1" data-name="Capa 1" xmlns="http://www.w3.org/2000/svg" xmlns:xlink="http://www.w3.org/1999/xlink" viewBox="0 0 209.27 97.98">
  <defs>
    <style>
      .cls-1 {
        clip-path: url(#clippath);
      }

      .cls-2 {
        fill: none;
      }

      .cls-2, .cls-3 {
        stroke-width: 0px;
      }

      .cls-3 {
        fill: #222221;
      }
    </style>
    <clipPath id="clippath">
      <rect class="cls-2" x="8.68" y="30.99" width="191.91" height="34.78"/>
    </clipPath>
  </defs>
  <g class="cls-1">
    <path class="cls-3" d="M24.47,30.99v30.42l6.89,2.18v-25.51c0-1.2.53-2,1.4-1.73,1.12.31,1.34,1.42,1.34,2.61v10.19c4.29,2.08,7.66,0,7.66-5.48s-1.98-8.09-7.8-10.09c-2.3-.76-6.56-2.06-9.49-2.6"/>
    <path class="cls-3" d="M32.67,59.15l11.06-3.94c1.25-.46,1.44-1.1.43-1.43-1.03-.34-2.86-.24-4.13.21l-7.36,2.6v-4.14l.42-.14s2.13-.76,5.13-1.08c2.99-.33,6.66.04,9.55,1.13,3.25,1.03,3.61,2.54,2.79,3.59-.83,1.04-2.86,1.79-2.86,1.79l-15.03,5.4v-3.98Z"/>
    <path class="cls-3" d="M11.85,58.73c-3.33-.93-3.89-2.89-2.37-4.02,1.4-1.03,3.79-1.81,3.79-1.81l9.87-3.52v4l-7.09,2.54c-1.26.45-1.45,1.08-.43,1.41,1.03.34,2.86.25,4.12-.21l3.41-1.23v3.57c-.22.04-.46.07-.69.11-3.4.57-7.03.33-10.6-.85"/>
    <path class="cls-3" d="M48.36,63.54c.43,0,.83-.17,1.14-.47.3-.3.47-.7.47-1.14s-.17-.84-.47-1.14c-.31-.31-.71-.47-1.14-.47-.89,0-1.62.72-1.62,1.62,0,.43.17.83.47,1.14.31.3.72.47,1.15.47M47.02,61.94c0-.37.14-.71.39-.95.26-.26.6-.39.96-.39s.69.14.94.39c.25.25.39.59.39.95,0,.73-.6,1.33-1.33,1.33-.36,0-.7-.14-.96-.39-.25-.25-.39-.59-.39-.94"/>
    <path class="cls-3" d="M49.16,62.68s-.04-.03-.06-.07c0-.03-.01-.08-.01-.14v-.23c-.01-.11-.03-.19-.08-.24-.02-.04-.06-.06-.1-.09.05-.04.1-.09.13-.14.05-.07.07-.17.07-.27,0-.21-.09-.36-.26-.44-.09-.04-.2-.06-.34-.06h-.83v1.8h.32v-.73h.49c.09,0,.15.01.19.03.06.04.09.1.1.19v.28c.02.07.02.11.03.15,0,.03.01.05.02.06v.02h.36v-.1h-.02ZM48.8,61.52c0,.1-.02.17-.08.2-.06.04-.14.06-.24.06h-.49v-.5h.52c.07,0,.13.01.17.03.07.04.11.11.11.21"/>
    <path class="cls-3" d="M73.36,38.97h-8.32s-.06.02-.06.05v19.46s.03.06.06.06h3.37s.06-.03.06-.06v-17.34s.01-.03.02-.03h3.86c1.4,0,2.18,1.41,2.18,3.98s-.77,3.99-2.18,3.99h-2.32s-.06.02-.06.06v2.02s.02.06.06.06h3.33c1.17,0,2.32-.54,3.15-1.48.98-1.11,1.5-2.71,1.5-4.63,0-3.72-1.82-6.13-4.65-6.13"/>
    <path class="cls-3" d="M83.53,38.97h-3.37s-.07.03-.07.06v19.46s.03.06.07.06h3.37s.06-.03.06-.06v-19.46s-.03-.06-.06-.06"/>
    <path class="cls-3" d="M98.24,43.71s-.03-.06-.06-.06h-6.01c-5.39,0-6.08,3.95-6.08,7.43v3.01c0,2.59,1.61,4.46,3.82,4.46h3.28s.06-.03.06-.06v-2.02s-.03-.06-.06-.06h-2.34c-.54,0-1.26-.23-1.26-2.09v-3.24c0-2.16.2-3.53.65-4.32.48-.87,1.25-.98,1.93-.98h2.56s.02.01.02.03c0,0,0,12.69,0,12.69,0,.03.03.06.06.06h3.37s.06-.03.06-.06v-14.78Z"/>
    <path class="cls-3" d="M122.51,47.11l-1.66-.13c-1.25-.11-2.17-.8-2.17-2.84,0-2.38,1.07-3.04,2.5-3.04h4.6s.06-.03.06-.06v-2.02s-.03-.06-.06-.06h-5.08c-3.14,0-5.37,1.84-5.37,5.52v.16c0,2.9,1.78,4.99,4.44,5.19l1.65.12c1.26.1,2.05,1.22,2.05,2.94v.48c0,1.07-.27,3.03-2.56,3.03h-4.78s-.06.03-.06.06v2.01s.03.06.06.06h5.93c1.83,0,4.89-.74,4.89-5.71,0-1.8-.41-3.22-1.24-4.25-.71-.88-1.76-1.36-3.19-1.47"/>
    <path class="cls-3" d="M150.14,43.71s-.03-.06-.06-.06h-6.02c-5.38,0-6.07,3.95-6.07,7.43v3.01c0,2.59,1.61,4.46,3.84,4.46h3.27s.06-.03.06-.06v-2.02s-.03-.06-.06-.06h-2.34c-.54,0-1.26-.23-1.26-2.09v-3.24c0-2.16.2-3.53.64-4.32.49-.87,1.25-.98,1.93-.98h2.57s.02.01.03.03v12.69s.02.06.06.06h3.37s.06-.03.06-.06v-14.78Z"/>
    <path class="cls-3" d="M136.59,43.64h-3.66s-.02,0-.02-.02h0v-2.45s-.03-.06-.06-.06h-3.37s-.06.03-.06.06v12.91c0,2.59,1.61,4.46,3.83,4.46h2.41s.06-.03.06-.06v-2.02s-.03-.06-.06-.06h-1.48c-.38,0-1.27-.02-1.27-1.93v-8.69s.01-.02.02-.02c1.12,0,3.66,0,3.66,0,.03,0,.06-.03.06-.06v-2s-.03-.06-.06-.06"/>
    <path class="cls-3" d="M160.13,43.64h-3.64s-.02,0-.02-.02h0v-2.45s-.02-.06-.06-.06h-3.38s-.06.03-.06.06v12.91c0,2.59,1.61,4.46,3.83,4.46h2.41s.06-.03.06-.06v-2.02s-.02-.06-.06-.06h-1.48c-.38,0-1.26-.02-1.26-1.93v-8.69s0-.02.02-.02c1.11,0,3.64,0,3.64,0,.03,0,.06-.03.06-.06v-2s-.03-.06-.06-.06"/>
    <path class="cls-3" d="M165.7,43.64h-3.37s-.06.03-.06.06v14.78s.03.06.06.06h3.37s.06-.03.06-.06v-14.78s-.02-.06-.06-.06"/>
    <path class="cls-3" d="M165.7,38.97h-3.37s-.06.03-.06.06v2.83s.03.06.06.06h3.37s.06-.03.06-.06v-2.83s-.02-.06-.06-.06"/>
    <path class="cls-3" d="M189.02,43.64h-6.01s-.06.03-.06.06v14.78s.03.06.05.06h3.38s.06-.03.06-.06v-12.69s0-.02.02-.02h2.56c.69,0,1.46.11,1.94.91.45.72.65,2,.65,4,0,.09,0,7.8,0,7.8,0,.03.03.06.06.06h3.36s.06-.03.06-.06v-7.41c0-3.47-.69-7.43-6.07-7.43"/>
    <path class="cls-3" d="M174.36,43.64c-5.63,0-6.35,3.97-6.35,7.45s.72,7.46,6.35,7.46,6.35-3.99,6.35-7.46-.72-7.45-6.35-7.45M176.49,55.43c-.53.87-1.37.99-2.14.99s-1.6-.12-2.14-.99c-.48-.79-.71-2.16-.71-4.34v-.02c0-2.56.32-4.02,1.02-4.71.42-.42.97-.59,1.82-.59s1.41.17,1.83.59c.7.69,1.02,2.16,1.02,4.73,0,2.17-.23,3.55-.71,4.34"/>
    <path class="cls-3" d="M100.15,43.64s-.05.03-.04.06l5,14.64s0,.08,0,.12l-2.82,7.25s0,.06.04.06h2.93s.07-.02.09-.06l8.78-22.01s0-.06-.04-.06h-3.2s-.07.03-.08.06l-3.72,9.62s-.03.03-.04,0l-3.28-9.62s-.04-.06-.08-.06h-3.54Z"/>
    <path class="cls-3" d="M198.98,58.54c.43,0,.83-.17,1.14-.47.3-.3.47-.71.47-1.14s-.17-.84-.47-1.14c-.31-.31-.71-.47-1.14-.47-.89,0-1.61.72-1.61,1.61,0,.43.17.83.47,1.14.3.3.72.47,1.14.47M197.64,56.94c0-.37.14-.7.39-.95.26-.25.6-.39.95-.39s.69.14.94.39c.25.25.39.59.39.95,0,.74-.6,1.33-1.34,1.33-.35,0-.7-.14-.95-.39-.25-.25-.39-.59-.39-.95"/>
    <path class="cls-3" d="M199.78,57.68s-.04-.03-.06-.07c0-.03,0-.08,0-.14v-.23c-.01-.11-.03-.19-.08-.24-.02-.04-.06-.07-.1-.1.05-.04.09-.09.13-.14.04-.07.07-.16.07-.27,0-.21-.09-.36-.26-.44-.09-.04-.2-.06-.34-.06h-.83v1.8h.32v-.73h.49c.09,0,.15.01.19.03.06.04.09.1.1.2l.02.28c0,.07,0,.11.01.14,0,.03.01.05.02.06v.02h.36v-.1h-.02ZM199.42,56.53c0,.1-.03.16-.08.2-.06.04-.14.06-.23.06h-.5v-.5h.52c.07,0,.13.01.17.03.07.03.11.11.11.22"/>
  </g>
</svg>