<?xml version="1.0" encoding="UTF-8"?>
<svg id="Capa_1" data-name="Capa 1" xmlns="http://www.w3.org/2000/svg" xmlns:xlink="http://www.w3.org/1999/xlink" viewBox="0 0 148.73 97.98">
  <defs>
    <style>
      .cls-1 {
        clip-path: url(#clippath);
      }

      .cls-2 {
        fill: none;
      }

      .cls-2, .cls-3 {
        stroke-width: 0px;
      }

      .cls-4 {
        clip-path: url(#clippath-1);
      }

      .cls-5 {
        clip-path: url(#clippath-4);
      }

      .cls-6 {
        clip-path: url(#clippath-3);
      }

      .cls-7 {
        clip-path: url(#clippath-2);
      }

      .cls-8 {
        clip-path: url(#clippath-7);
      }

      .cls-9 {
        clip-path: url(#clippath-8);
      }

      .cls-10 {
        clip-path: url(#clippath-6);
      }

      .cls-11 {
        clip-path: url(#clippath-5);
      }

      .cls-3 {
        fill: #222221;
      }
    </style>
    <clipPath id="clippath">
      <rect class="cls-2" x="16.04" y="28.28" width="116.65" height="41.42"/>
    </clipPath>
    <clipPath id="clippath-1">
      <rect class="cls-2" x="16.04" y="28.28" width="116.65" height="41.42"/>
    </clipPath>
    <clipPath id="clippath-2">
      <rect class="cls-2" x="16.04" y="28.28" width="116.65" height="41.42"/>
    </clipPath>
    <clipPath id="clippath-3">
      <rect class="cls-2" x="16.04" y="28.28" width="116.65" height="41.42"/>
    </clipPath>
    <clipPath id="clippath-4">
      <rect class="cls-2" x="16.04" y="28.28" width="116.65" height="41.42"/>
    </clipPath>
    <clipPath id="clippath-5">
      <rect class="cls-2" x="16.04" y="28.28" width="116.65" height="41.42"/>
    </clipPath>
    <clipPath id="clippath-6">
      <rect class="cls-2" x="16.04" y="28.28" width="116.65" height="41.42"/>
    </clipPath>
    <clipPath id="clippath-7">
      <rect class="cls-2" x="16.04" y="28.28" width="116.65" height="41.42"/>
    </clipPath>
    <clipPath id="clippath-8">
      <rect class="cls-2" x="16.04" y="28.28" width="116.65" height="41.42"/>
    </clipPath>
  </defs>
  <g class="cls-1">
    <path class="cls-3" d="M117.71,34.97c0-1.03-1.19-1.89-2.76-1.99v5.4c1.99-1.16,2.76-2.32,2.76-3.41M117.51,38.84c-.54,0-1.03.21-2.56,1.29v5.84c2.63-2.94,3.38-4.96,3.38-5.99,0-.72-.33-1.14-.83-1.14M113.58,49.53c-.05.05-.1.03-.1-.02v-18.15c0-.05.02-.08.08-.08,3.46.23,5.68,1.68,5.68,3.77,0,.88-.34,1.73-.9,2.35,1.14.31,1.57,1.16,1.57,2.3,0,2.01-1.47,5.35-6.32,9.84M112.03,49.5c0,.05-.05.08-.1.02-1.42-1.63-2.38-3.61-3.02-5.78l-.98.62c-.26.18-.46.1-.62-.18-1.32-2.32-2.17-6.15-2.25-8.83,0-.13.03-.21.13-.34.33-.41.75-.83,1.14-1.19.08-.08.16-.03.16.1,0,3.31.57,6.38,1.47,8.39.08.16.15.16.26.08l.28-.18c-.54-2.4-.85-5.6-.77-9.3,0-.13.03-.18.1-.23.28-.18.8-.47,1.24-.65.13-.05.15-.03.15.08-.08,5.37.36,9.09,1.32,12.06.03.08.1.05.1-.03-.05-1.08-.05-2.04-.05-3.2l-.05-9.27c0-.1.03-.16.13-.18.44-.1.83-.18,1.29-.23.05,0,.08.03.08.08v18.15ZM122.39,32.68c-.03-.1-.05-.14-.1-.15l-1.86-.49-.26-1.06c-.01-.05-.03-.09-.08-.1l-1.91-.52-.23-1.01c-.01-.08-.05-.12-.1-.13l-4.97-.92c-.08-.01-.16-.01-.24,0l-4.97.92c-.05.01-.09.05-.1.13l-.23,1.01-1.91.52c-.05.01-.06.05-.08.1l-.26,1.06-1.86.49c-.05.01-.08.05-.1.15-.15.8-.23,1.65-.23,2.51,0,7.44,3.87,13.89,9.66,17.74.08.05.15.1.21.1s.13-.05.21-.1c5.79-3.85,9.66-10.3,9.66-17.74,0-.85-.08-1.7-.23-2.51"/>
    <path class="cls-3" d="M48.97,51.99c-.01-.2-.02-.44-.02-.62h0c-.05.17-.11.35-.18.55l-.26.7h-.14l-.23-.69c-.07-.2-.13-.39-.17-.56h0c0,.18-.02.42-.03.64l-.04.62h-.18l.1-1.44h.24l.25.7c.06.18.11.34.14.48h0c.04-.14.09-.3.15-.48l.26-.7h.24l.09,1.44h-.18l-.04-.63Z"/>
  </g>
  <polygon class="cls-3" points="46.97 51.34 46.53 51.34 46.53 51.18 47.6 51.18 47.6 51.34 47.16 51.34 47.16 52.62 46.97 52.62 46.97 51.34"/>
  <g class="cls-4">
    <path class="cls-3" d="M38.99,28.28c-6.83,0-12.37,5.54-12.37,12.37s5.54,12.37,12.37,12.37,12.37-5.54,12.37-12.37-5.54-12.37-12.37-12.37M42.36,37.34h3.33v1.83s.04.09.09.09h2.78s.09-.04.1-.08l.55-3.48s.07-.06.09-.01c.73,1.5,1.14,3.19,1.14,4.97,0,2.01-.52,3.9-1.43,5.55-.02.04-.09.02-.09-.02v-3.18s-.04-.09-.09-.09h-3.05s-.09.04-.09.09v1.69h-1.34c-.62,0-1.12-.5-1.12-1.12v-5.52c0-.05-.02-.1-.07-.13l-.79-.58ZM28.27,36.84l1.07.78s.07.08.07.14v9s-.06.07-.09.03c-1.12-1.77-1.77-3.87-1.77-6.12,0-1.33.23-2.6.64-3.79.01-.03.05-.04.08-.02M38.99,52.1c-3.61,0-6.83-1.67-8.93-4.28-.02-.03,0-.08.04-.08h6.12c.06,0,.11-.02.16-.05l2.34-1.7s.07-.08.07-.13v-9.72c0-.05-.03-.1-.07-.13l-2.34-1.7s-.1-.05-.16-.05h-6.63s-.06-.04-.04-.07c2.06-3,5.52-4.97,9.43-4.97s7.37,1.97,9.43,4.97c.02.03,0,.07-.04.07h-1.65c-.05,0-.1.03-.13.08l-.36.78-1.11-.81s-.1-.05-.16-.05h-2.63c-.06,0-.11.02-.16.05l-2.34,1.7s-.07.08-.07.13v9.72c0,.05.03.1.07.13l2.34,1.7s.1.05.16.05h5.54s.06.04.04.08c-2.1,2.61-5.32,4.28-8.93,4.28M31.99,37.34h2.22c.62,0,1.12.5,1.12,1.12v5.11c0,.62-.5,1.12-1.12,1.12h-1.36v-6.64c0-.05-.02-.1-.07-.13l-.79-.58Z"/>
    <path class="cls-3" d="M77.13,28.86c-11.95,0-21.31,5.15-21.31,11.72s9.56,11.86,21.31,11.86,21.32-5.32,21.32-11.86-9.37-11.72-21.32-11.72M77.13,53.03c-12.28,0-21.9-5.47-21.9-12.44s9.62-12.3,21.9-12.3,21.9,5.4,21.9,12.3-9.62,12.44-21.9,12.44"/>
    <path class="cls-3" d="M82.12,44.44c1.71.24,2.06,1.88,2.06,1.88,0,0,2.48-2.79,4.56-2.02,3.07,1.12.71,4.03.28,4.7.53-.14,7.95-2.34,7.95-8.56s-11.35-9.25-11.35-9.25c.96.77,1.97,2.4.58,4.6-1.53,2.42-4.55,1.63-5.56,1.1-.67-.86-1-5.36-1.1-6.56-.43.14-1.29,2.3-1.29,2.3h-2.22s-.86-2.16-1.29-2.3c-.09,1.2-.43,5.7-1.1,6.56-1,.53-4.03,1.32-5.55-1.1-1.39-2.2-.38-3.83.58-4.6,0,0-11.35,3.02-11.35,9.25s7.42,8.42,7.95,8.56c-.44-.67-2.8-3.57.27-4.7,2.08-.77,4.56,2.02,4.56,2.02,0,0,.35-1.64,2.06-1.88,2.53-.35,4.98,5.25,4.98,5.25,0,0,2.46-5.59,4.99-5.25"/>
  </g>
  <polygon class="cls-3" points="92.9 51.34 92.46 51.34 92.46 51.18 93.52 51.18 93.52 51.34 93.09 51.34 93.09 52.62 92.9 52.62 92.9 51.34"/>
  <g class="cls-7">
    <path class="cls-3" d="M94.9,51.99c-.01-.2-.02-.44-.02-.62h0c-.05.17-.11.35-.18.55l-.25.7h-.14l-.23-.69c-.07-.2-.12-.39-.17-.56h0c0,.18-.01.42-.03.64l-.04.62h-.18l.1-1.44h.24l.25.7c.06.18.11.33.15.48h0c.04-.15.09-.3.15-.48l.26-.7h.24l.09,1.44h-.18l-.04-.63Z"/>
    <path class="cls-3" d="M16.78,61.64c.1.02.24.02.43.02.52,0,1.01-.19,1.01-.76,0-.53-.46-.76-1.01-.76h-.42v1.49ZM16.78,59.76h.46c.53,0,.85-.28.85-.66,0-.46-.35-.64-.86-.64-.23,0-.37.02-.45.03v1.26ZM16.27,58.15c.22-.05.57-.08.93-.08.51,0,.83.09,1.08.29.2.15.33.38.33.69,0,.38-.25.71-.66.86h0c.37.1.81.41.81.99,0,.34-.13.59-.33.79-.27.25-.72.37-1.36.37-.35,0-.62-.02-.79-.05v-3.86Z"/>
    <path class="cls-3" d="M21.34,60.39l-.38-1.13c-.09-.26-.15-.49-.2-.72h-.01c-.06.23-.12.47-.2.71l-.38,1.13h1.18ZM20.06,60.79l-.41,1.23h-.52l1.33-3.92h.61l1.34,3.92h-.54l-.42-1.23h-1.39Z"/>
  </g>
  <polygon class="cls-3" points="23.28 58.53 22.09 58.53 22.09 58.1 24.99 58.1 24.99 58.53 23.79 58.53 23.79 62.02 23.28 62.02 23.28 58.53"/>
  <g class="cls-6">
    <path class="cls-3" d="M28.73,60.3c-.03-.55-.06-1.2-.06-1.69h-.02c-.13.46-.3.95-.49,1.49l-.69,1.9h-.38l-.63-1.87c-.19-.55-.34-1.06-.45-1.52h-.01c-.01.49-.04,1.15-.07,1.73l-.11,1.68h-.48l.27-3.92h.65l.67,1.89c.16.48.3.91.4,1.32h.02c.1-.4.24-.83.41-1.32l.7-1.89h.65l.24,3.92h-.49l-.1-1.72Z"/>
    <path class="cls-3" d="M31.96,60.39l-.38-1.13c-.09-.26-.15-.49-.2-.72h-.01c-.06.23-.12.47-.2.71l-.38,1.13h1.18ZM30.67,60.79l-.41,1.23h-.52l1.33-3.92h.61l1.34,3.92h-.54l-.42-1.23h-1.39Z"/>
    <path class="cls-3" d="M33.6,62.02v-3.92h.55l1.26,1.98c.29.46.52.87.7,1.27h.01c-.05-.53-.06-1.01-.06-1.62v-1.64h.48v3.92h-.51l-1.24-1.99c-.27-.44-.54-.88-.73-1.31h-.02c.03.5.04.97.04,1.62v1.67h-.48Z"/>
    <path class="cls-3" d="M40.12,60.58c-.56-.01-1.19.09-1.19.63,0,.33.22.49.48.49.37,0,.6-.23.68-.47.02-.05.03-.11.03-.16v-.49ZM40.2,62.02l-.04-.36h-.02c-.16.22-.46.42-.86.42-.57,0-.86-.4-.86-.81,0-.68.61-1.05,1.69-1.05v-.06c0-.23-.06-.65-.64-.65-.26,0-.53.08-.73.21l-.12-.34c.23-.15.57-.25.92-.25.86,0,1.07.59,1.07,1.15v1.05c0,.24.01.48.05.67h-.47Z"/>
    <path class="cls-3" d="M41.44,59.97c0-.29,0-.53-.02-.76h.45l.03.47h.01c.14-.27.47-.53.93-.53.39,0,1,.23,1,1.2v1.68h-.51v-1.62c0-.45-.17-.83-.65-.83-.34,0-.6.24-.69.52-.02.06-.03.15-.03.24v1.69h-.51v-2.05Z"/>
    <path class="cls-3" d="M46.59,60.35c0-.06,0-.15-.02-.22-.08-.33-.35-.59-.74-.59-.53,0-.84.47-.84,1.09,0,.57.28,1.04.83,1.04.34,0,.66-.23.75-.61.02-.07.02-.14.02-.22v-.49ZM47.1,57.89v3.4c0,.25,0,.54.02.73h-.46l-.02-.49h-.01c-.16.31-.5.55-.96.55-.68,0-1.2-.58-1.2-1.43,0-.94.58-1.51,1.26-1.51.43,0,.72.2.85.43h.01v-1.68h.51Z"/>
    <path class="cls-3" d="M50.66,60.58c-.56-.01-1.19.09-1.19.63,0,.33.22.49.48.49.37,0,.6-.23.68-.47.02-.05.03-.11.03-.16v-.49ZM50.74,62.02l-.04-.36h-.02c-.16.22-.46.42-.86.42-.57,0-.86-.4-.86-.81,0-.68.6-1.05,1.69-1.05v-.06c0-.23-.06-.65-.64-.65-.26,0-.53.08-.73.21l-.12-.34c.23-.15.57-.25.92-.25.86,0,1.07.59,1.07,1.15v1.05c0,.24.01.48.05.67h-.47Z"/>
  </g>
  <rect class="cls-3" x="51.98" y="57.89" width=".51" height="4.13"/>
  <rect class="cls-3" x="53.36" y="57.89" width=".51" height="4.13"/>
  <g class="cls-5">
    <path class="cls-3" d="M55.96,60.08c0-.33,0-.62-.02-.88h.45l.02.55h.02c.13-.38.44-.62.78-.62.06,0,.1,0,.14.02v.48c-.05-.01-.1-.02-.17-.02-.36,0-.62.27-.69.66-.01.07-.02.15-.02.24v1.5h-.51v-1.94Z"/>
    <path class="cls-3" d="M59.59,60.34c0-.33-.13-.83-.71-.83-.52,0-.74.48-.78.83h1.49ZM58.09,60.7c.01.69.45.98.97.98.37,0,.59-.06.78-.15l.09.37c-.18.08-.49.18-.94.18-.87,0-1.38-.57-1.38-1.42s.5-1.52,1.32-1.52c.92,0,1.16.81,1.16,1.33,0,.1-.01.18-.02.24h-1.98Z"/>
  </g>
  <rect class="cls-3" x="60.72" y="57.89" width=".51" height="4.13"/>
  <g class="cls-11">
    <path class="cls-3" d="M63.57,60.58c-.56-.01-1.19.09-1.19.63,0,.33.22.49.48.49.37,0,.6-.23.68-.47.02-.05.03-.11.03-.16v-.49ZM63.65,62.02l-.04-.36h-.02c-.16.22-.46.42-.86.42-.57,0-.86-.4-.86-.81,0-.68.6-1.05,1.69-1.05v-.06c0-.23-.06-.65-.64-.65-.26,0-.53.08-.73.21l-.12-.34c.23-.15.57-.25.92-.25.86,0,1.07.59,1.07,1.15v1.05c0,.24.01.48.05.67h-.47Z"/>
    <path class="cls-3" d="M65.49,58.4v.81h.73v.39h-.73v1.52c0,.35.1.55.38.55.13,0,.23-.02.3-.03l.02.38c-.1.04-.26.07-.45.07-.24,0-.43-.08-.55-.22-.15-.15-.2-.4-.2-.73v-1.53h-.44v-.39h.44v-.68l.5-.13Z"/>
    <path class="cls-3" d="M68.54,60.34c0-.33-.13-.83-.71-.83-.52,0-.74.48-.78.83h1.49ZM67.04,60.7c.01.69.45.98.97.98.37,0,.59-.06.78-.15l.09.37c-.18.08-.49.18-.94.18-.87,0-1.38-.57-1.38-1.42s.5-1.52,1.32-1.52c.92,0,1.16.81,1.16,1.33,0,.1-.01.18-.02.24h-1.98Z"/>
    <path class="cls-3" d="M71.59,60.35c0-.06,0-.15-.02-.22-.08-.33-.35-.59-.74-.59-.53,0-.84.47-.84,1.09,0,.57.28,1.04.83,1.04.34,0,.66-.23.75-.61.02-.07.02-.14.02-.22v-.49ZM72.1,57.89v3.4c0,.25,0,.54.02.73h-.46l-.02-.49h-.01c-.16.31-.5.55-.96.55-.68,0-1.2-.58-1.2-1.43,0-.94.58-1.51,1.26-1.51.43,0,.72.2.85.43h.01v-1.68h.51Z"/>
    <path class="cls-3" d="M76.19,61.91c-.13.07-.43.16-.81.16-.85,0-1.4-.58-1.4-1.44s.59-1.49,1.51-1.49c.3,0,.57.08.71.15l-.12.4c-.12-.07-.31-.13-.59-.13-.64,0-.99.48-.99,1.06,0,.65.42,1.05.98,1.05.29,0,.48-.08.63-.14l.09.38Z"/>
    <path class="cls-3" d="M76.79,57.89h.51v1.76h.01c.08-.14.21-.27.37-.36.15-.09.33-.15.52-.15.38,0,.98.23.98,1.2v1.68h-.51v-1.62c0-.45-.17-.84-.65-.84-.33,0-.59.23-.69.51-.03.07-.03.14-.03.24v1.7h-.51v-4.13Z"/>
    <path class="cls-3" d="M81.5,60.58c-.56-.01-1.19.09-1.19.63,0,.33.22.49.48.49.37,0,.6-.23.68-.47.02-.05.03-.11.03-.16v-.49ZM81.57,62.02l-.04-.36h-.02c-.16.22-.46.42-.86.42-.57,0-.86-.4-.86-.81,0-.68.6-1.05,1.69-1.05v-.06c0-.23-.06-.65-.64-.65-.26,0-.54.08-.73.21l-.12-.34c.23-.15.57-.25.92-.25.86,0,1.07.59,1.07,1.15v1.05c0,.24.01.48.05.67h-.46Z"/>
    <path class="cls-3" d="M82.82,60.08c0-.33,0-.62-.02-.88h.45l.02.55h.02c.13-.38.44-.62.78-.62.06,0,.1,0,.14.02v.48c-.05-.01-.1-.02-.17-.02-.36,0-.62.27-.69.66-.01.07-.02.15-.02.24v1.5h-.5v-1.94Z"/>
    <path class="cls-3" d="M86.17,60.58c-.56-.01-1.19.09-1.19.63,0,.33.22.49.48.49.37,0,.6-.23.68-.47.02-.05.03-.11.03-.16v-.49ZM86.25,62.02l-.04-.36h-.02c-.16.22-.46.42-.86.42-.57,0-.86-.4-.86-.81,0-.68.6-1.05,1.69-1.05v-.06c0-.23-.06-.65-.64-.65-.26,0-.54.08-.73.21l-.12-.34c.23-.15.57-.25.92-.25.86,0,1.07.59,1.07,1.15v1.05c0,.24.01.48.05.67h-.46Z"/>
    <path class="cls-3" d="M89.5,61.91c-.13.07-.43.16-.81.16-.85,0-1.4-.58-1.4-1.44s.59-1.49,1.51-1.49c.3,0,.57.08.71.15l-.12.4c-.12-.07-.31-.13-.59-.13-.65,0-.99.48-.99,1.06,0,.65.42,1.05.98,1.05.29,0,.48-.08.63-.14l.09.38Z"/>
    <path class="cls-3" d="M90.79,58.4v.81h.73v.39h-.73v1.52c0,.35.1.55.38.55.13,0,.23-.02.3-.03l.02.38c-.1.04-.26.07-.45.07-.24,0-.43-.08-.55-.22-.14-.15-.2-.4-.2-.73v-1.53h-.44v-.39h.44v-.68l.5-.13Z"/>
    <path class="cls-3" d="M93.85,60.34c0-.33-.13-.83-.71-.83-.52,0-.74.48-.79.83h1.49ZM92.35,60.7c.01.69.45.98.97.98.37,0,.59-.06.78-.15l.09.37c-.18.08-.49.18-.94.18-.87,0-1.39-.57-1.39-1.42s.5-1.52,1.32-1.52c.92,0,1.16.81,1.16,1.33,0,.1-.01.18-.02.24h-1.98Z"/>
    <path class="cls-3" d="M94.98,60.08c0-.33,0-.62-.02-.88h.45l.02.55h.02c.13-.38.44-.62.78-.62.06,0,.1,0,.14.02v.48c-.05-.01-.1-.02-.17-.02-.36,0-.62.27-.69.66-.01.07-.02.15-.02.24v1.5h-.51v-1.94Z"/>
    <path class="cls-3" d="M96.81,61.5c.15.1.42.2.68.2.37,0,.55-.19.55-.42,0-.24-.15-.38-.52-.52-.51-.18-.74-.46-.74-.8,0-.45.37-.83.97-.83.28,0,.53.08.69.17l-.13.37c-.11-.07-.31-.16-.58-.16-.3,0-.47.17-.47.38,0,.23.17.34.53.48.49.19.74.43.74.85,0,.49-.38.84-1.05.84-.31,0-.59-.08-.79-.19l.13-.39Z"/>
    <path class="cls-3" d="M101.89,60.58c-.56-.01-1.19.09-1.19.63,0,.33.22.49.48.49.37,0,.6-.23.68-.47.02-.05.03-.11.03-.16v-.49ZM101.97,62.02l-.04-.36h-.02c-.16.22-.46.42-.86.42-.57,0-.86-.4-.86-.81,0-.68.6-1.05,1.69-1.05v-.06c0-.23-.06-.65-.64-.65-.26,0-.54.08-.73.21l-.12-.34c.23-.15.57-.25.92-.25.86,0,1.07.59,1.07,1.15v1.05c0,.24.01.48.05.67h-.46Z"/>
    <path class="cls-3" d="M103.21,59.97c0-.29,0-.53-.02-.76h.45l.03.47h.01c.14-.27.46-.53.93-.53.39,0,1,.23,1,1.2v1.68h-.51v-1.62c0-.45-.17-.83-.65-.83-.34,0-.6.24-.69.52-.02.06-.03.15-.03.24v1.69h-.51v-2.05Z"/>
    <path class="cls-3" d="M108.36,60.35c0-.06,0-.15-.02-.22-.08-.33-.35-.59-.74-.59-.53,0-.84.47-.84,1.09,0,.57.28,1.04.83,1.04.34,0,.66-.23.75-.61.02-.07.02-.14.02-.22v-.49ZM108.87,57.89v3.4c0,.25,0,.54.02.73h-.46l-.02-.49h-.01c-.16.31-.5.55-.96.55-.68,0-1.21-.58-1.21-1.43,0-.94.58-1.51,1.26-1.51.43,0,.72.2.85.43h.01v-1.68h.51Z"/>
    <path class="cls-3" d="M112.74,60.34c0-.33-.13-.83-.71-.83-.52,0-.74.48-.79.83h1.49ZM111.24,60.7c.01.69.45.98.97.98.37,0,.59-.06.78-.15l.09.37c-.18.08-.49.18-.94.18-.87,0-1.38-.57-1.38-1.42s.5-1.52,1.32-1.52c.92,0,1.16.81,1.16,1.33,0,.1-.01.18-.02.24h-1.98Z"/>
  </g>
  <rect class="cls-3" x="113.87" y="57.89" width=".51" height="4.13"/>
  <g class="cls-10">
    <path class="cls-3" d="M117.02,60.34c0-.33-.13-.83-.71-.83-.52,0-.74.48-.79.83h1.49ZM115.52,60.7c.01.69.45.98.96.98.37,0,.59-.06.78-.15l.09.37c-.18.08-.49.18-.94.18-.87,0-1.39-.57-1.39-1.42s.5-1.52,1.32-1.52c.92,0,1.16.81,1.16,1.33,0,.1-.01.18-.02.24h-1.98Z"/>
    <path class="cls-3" d="M118.15,59.97c0-.29,0-.53-.02-.76h.45l.02.45h.02c.16-.27.42-.52.88-.52.38,0,.67.23.8.56h.01c.09-.16.2-.28.31-.37.17-.13.35-.2.62-.2.37,0,.92.24.92,1.22v1.66h-.5v-1.59c0-.54-.2-.87-.61-.87-.29,0-.52.21-.6.46-.02.07-.04.16-.04.26v1.74h-.5v-1.69c0-.45-.2-.77-.59-.77-.32,0-.55.26-.63.51-.03.08-.04.16-.04.25v1.7h-.5v-2.05Z"/>
    <path class="cls-3" d="M124.79,60.34c0-.33-.13-.83-.71-.83-.52,0-.74.48-.79.83h1.49ZM123.29,60.7c.01.69.45.98.97.98.37,0,.59-.06.78-.15l.09.37c-.18.08-.49.18-.94.18-.87,0-1.39-.57-1.39-1.42s.5-1.52,1.32-1.52c.92,0,1.16.81,1.16,1.33,0,.1-.01.18-.02.24h-1.98Z"/>
    <path class="cls-3" d="M125.91,59.97c0-.29,0-.53-.02-.76h.45l.03.47h.01c.14-.27.46-.53.93-.53.39,0,1,.23,1,1.2v1.68h-.51v-1.62c0-.45-.17-.83-.65-.83-.34,0-.6.24-.69.52-.02.06-.03.15-.03.24v1.69h-.51v-2.05Z"/>
    <path class="cls-3" d="M129.73,58.4v.81h.73v.39h-.73v1.52c0,.35.1.55.38.55.13,0,.23-.02.3-.03l.02.38c-.1.04-.26.07-.45.07-.24,0-.43-.08-.55-.22-.14-.15-.2-.4-.2-.73v-1.53h-.44v-.39h.44v-.68l.5-.13Z"/>
    <path class="cls-3" d="M130.97,61.5c.15.1.42.2.68.2.37,0,.55-.19.55-.42,0-.24-.15-.38-.52-.52-.51-.18-.74-.46-.74-.8,0-.45.37-.83.97-.83.28,0,.53.08.69.17l-.13.37c-.11-.07-.31-.16-.58-.16-.3,0-.47.17-.47.38,0,.23.17.34.53.48.49.19.74.43.74.85,0,.49-.38.84-1.05.84-.31,0-.59-.08-.79-.19l.13-.39Z"/>
    <path class="cls-3" d="M18.52,66.36c-.08-.04-.29-.13-.56-.13-.55,0-.82.35-.82.81s.29.82.82.82c.23,0,.45-.06.59-.15l.07.22c-.2.13-.47.18-.72.18-.67,0-1.06-.47-1.06-1.05,0-.66.52-1.08,1.11-1.08.3,0,.56.09.64.16l-.07.23ZM16.33,67.04c0,.87.64,1.55,1.48,1.55s1.46-.68,1.46-1.56-.64-1.55-1.46-1.55-1.48.69-1.48,1.57M19.56,67.02c0,1-.77,1.8-1.75,1.8s-1.77-.8-1.77-1.8.78-1.79,1.77-1.79,1.75.8,1.75,1.79"/>
    <path class="cls-3" d="M22.09,65.93c0,.28.13.5.3.7.39-.23.65-.44.65-.77,0-.24-.13-.51-.45-.51s-.49.27-.49.57M23.28,68.32c-.23-.26-.67-.73-1.11-1.23-.21.13-.51.38-.51.8,0,.45.33.79.8.79.34,0,.62-.15.81-.36M23.9,69c-.11-.11-.22-.22-.37-.38-.34.31-.72.45-1.15.45-.76,0-1.2-.51-1.2-1.1,0-.54.32-.9.77-1.15v-.02c-.2-.26-.32-.54-.32-.82,0-.48.34-.97.99-.97.49,0,.87.33.87.83,0,.41-.24.74-.86,1.05v.02c.33.38.7.81.95,1.09.18-.27.3-.65.38-1.15h.47c-.11.62-.27,1.11-.56,1.45.21.22.41.44.65.69h-.61Z"/>
    <path class="cls-3" d="M28.96,66.66l-.06-.93c0-.12,0-.27-.01-.44h-.02c-.04.14-.09.33-.13.47l-.28.88h-.33l-.28-.9c-.03-.12-.08-.31-.11-.45h-.02c0,.15,0,.3-.01.44l-.06.93h-.3l.12-1.58h.47l.27.77c.03.12.06.24.1.4h0c.04-.14.08-.28.11-.39l.27-.78h.45l.12,1.58h-.31ZM27.25,65.08v.26h-.51v1.32h-.31v-1.32h-.51v-.26h1.33Z"/>
    <path class="cls-3" d="M31.53,68.59c.13.02.31.03.51.03,1.08,0,1.67-.6,1.67-1.66,0-.92-.52-1.51-1.59-1.51-.26,0-.46.02-.59.05v3.09ZM31.02,65.13c.31-.05.68-.08,1.08-.08.73,0,1.25.17,1.59.49.35.32.55.77.55,1.41s-.2,1.16-.57,1.52c-.37.37-.97.57-1.73.57-.36,0-.66-.02-.92-.05v-3.86Z"/>
    <path class="cls-3" d="M37.63,68.87c-.19.09-.56.19-1.03.19-1.1,0-1.94-.7-1.94-1.98s.83-2.06,2.05-2.06c.49,0,.8.11.93.17l-.12.41c-.19-.09-.47-.16-.79-.16-.92,0-1.53.59-1.53,1.62,0,.96.55,1.58,1.51,1.58.31,0,.62-.07.83-.16l.1.4Z"/>
    <path class="cls-3" d="M38.13,68.69c0-.22.15-.37.35-.37s.34.15.34.37-.13.37-.35.37-.34-.16-.34-.37"/>
    <path class="cls-3" d="M41.13,69l-.99-3.92h.53l.47,1.98c.12.49.22.98.29,1.36h.01c.06-.39.18-.86.32-1.36l.52-1.98h.53l.48,1.99c.11.46.21.93.27,1.34h.01c.08-.43.19-.87.31-1.36l.52-1.98h.52l-1.11,3.92h-.53l-.49-2.04c-.12-.5-.2-.88-.26-1.28h-.01c-.07.39-.16.77-.3,1.28l-.56,2.04h-.53Z"/>
    <path class="cls-3" d="M45.92,68.61c.1.02.24.02.42.02.52,0,1.01-.19,1.01-.76,0-.53-.46-.76-1.01-.76h-.42v1.5ZM45.92,66.73h.46c.53,0,.85-.28.85-.66,0-.46-.35-.64-.86-.64-.23,0-.37.02-.45.03v1.26ZM45.41,65.13c.22-.05.57-.08.92-.08.51,0,.83.09,1.08.28.2.15.33.38.33.69,0,.38-.25.71-.66.86h0c.37.1.81.41.81.99,0,.34-.13.59-.33.79-.27.25-.72.37-1.35.37-.35,0-.62-.02-.78-.05v-3.86Z"/>
    <path class="cls-3" d="M49.73,68.38c.23.14.56.26.91.26.52,0,.82-.27.82-.67,0-.37-.21-.58-.74-.78-.64-.23-1.04-.56-1.04-1.11,0-.61.51-1.06,1.27-1.06.4,0,.69.09.87.19l-.14.41c-.13-.07-.39-.18-.74-.18-.53,0-.74.32-.74.59,0,.37.24.55.78.76.66.26,1,.58,1,1.15s-.45,1.13-1.37,1.13c-.38,0-.79-.11-1-.25l.13-.43Z"/>
  </g>
  <polygon class="cls-3" points="55.07 65.08 55.07 66.72 53.17 66.72 53.17 65.08 52.66 65.08 52.66 69 53.17 69 53.17 67.16 55.07 67.16 55.07 69 55.58 69 55.58 65.08 55.07 65.08"/>
  <rect class="cls-3" x="56.45" y="65.08" width=".51" height="3.92"/>
  <polygon class="cls-3" points="57.84 65.08 57.84 69 60.05 69 60.05 68.57 58.35 68.57 58.35 67.16 59.87 67.16 59.87 66.74 58.35 66.74 58.35 65.5 59.96 65.5 59.96 65.08 57.84 65.08"/>
  <polygon class="cls-3" points="60.7 65.08 60.7 69 62.89 69 62.89 68.57 61.21 68.57 61.21 65.08 60.7 65.08"/>
  <g class="cls-8">
    <path class="cls-3" d="M63.96,68.59c.13.02.31.03.51.03,1.08,0,1.67-.6,1.67-1.66,0-.92-.52-1.51-1.59-1.51-.26,0-.46.02-.59.05v3.09ZM63.45,65.13c.31-.05.67-.08,1.08-.08.73,0,1.24.17,1.59.49.35.32.55.77.55,1.41s-.2,1.16-.56,1.52c-.37.37-.97.57-1.73.57-.36,0-.66-.02-.92-.05v-3.86Z"/>
    <path class="cls-3" d="M67.18,68.7c0-.21.15-.37.35-.37s.34.15.34.37c0,.2-.13.36-.35.36s-.34-.16-.34-.36M67.18,66.65c0-.21.15-.37.35-.37s.34.15.34.37c0,.2-.13.36-.35.36s-.34-.16-.34-.36"/>
    <path class="cls-3" d="M72,66.36c-.08-.04-.29-.13-.56-.13-.55,0-.82.35-.82.81s.29.82.82.82c.23,0,.45-.06.59-.15l.07.22c-.2.13-.47.18-.72.18-.67,0-1.06-.47-1.06-1.05,0-.66.52-1.08,1.11-1.08.3,0,.56.09.64.16l-.07.23ZM69.82,67.04c0,.87.64,1.55,1.48,1.55s1.46-.68,1.46-1.56-.64-1.55-1.46-1.55-1.48.69-1.48,1.57M73.04,67.02c0,1-.77,1.8-1.75,1.8s-1.77-.8-1.77-1.8.78-1.79,1.77-1.79,1.75.8,1.75,1.79"/>
    <path class="cls-3" d="M75.57,65.93c0,.28.13.5.3.7.4-.23.65-.44.65-.77,0-.24-.13-.51-.45-.51s-.49.27-.49.57M76.77,68.32c-.23-.26-.67-.73-1.1-1.23-.21.13-.51.38-.51.8,0,.45.33.79.8.79.34,0,.62-.15.81-.36M77.38,69c-.11-.11-.22-.22-.37-.38-.34.31-.72.45-1.15.45-.76,0-1.2-.51-1.2-1.1,0-.54.32-.9.77-1.15v-.02c-.2-.26-.32-.54-.32-.82,0-.48.34-.97.99-.97.49,0,.87.33.87.83,0,.41-.24.74-.86,1.05v.02c.33.38.7.81.95,1.09.18-.27.3-.65.38-1.15h.47c-.1.62-.27,1.11-.56,1.45.21.22.41.44.65.69h-.6Z"/>
    <path class="cls-3" d="M82.45,66.66l-.06-.93c0-.12,0-.27-.01-.44h-.02c-.04.14-.09.33-.13.47l-.28.88h-.33l-.28-.9c-.03-.12-.08-.31-.11-.45h-.02c0,.15,0,.3-.01.44l-.06.93h-.3l.12-1.58h.47l.27.77c.03.12.06.24.1.4h0c.04-.14.08-.28.11-.39l.27-.78h.45l.12,1.58h-.31ZM80.74,65.08v.26h-.51v1.32h-.31v-1.32h-.51v-.26h1.33Z"/>
    <path class="cls-3" d="M84.94,69l-.99-3.92h.54l.46,1.98c.12.49.22.98.29,1.36h.01c.06-.39.19-.86.32-1.36l.52-1.98h.53l.48,1.99c.11.46.22.93.27,1.34h.01c.08-.43.19-.87.31-1.36l.52-1.98h.52l-1.11,3.92h-.53l-.49-2.04c-.12-.5-.2-.88-.26-1.28h-.01c-.07.39-.16.77-.3,1.28l-.56,2.04h-.53Z"/>
    <path class="cls-3" d="M89.72,68.61c.1.02.24.02.43.02.52,0,1.01-.19,1.01-.76,0-.53-.46-.76-1.01-.76h-.42v1.5ZM89.72,66.73h.46c.53,0,.85-.28.85-.66,0-.46-.35-.64-.86-.64-.23,0-.37.02-.45.03v1.26ZM89.22,65.13c.22-.05.57-.08.93-.08.51,0,.83.09,1.07.28.21.15.33.38.33.69,0,.38-.25.71-.66.86h0c.37.1.81.41.81.99,0,.34-.13.59-.33.79-.27.25-.71.37-1.35.37-.35,0-.62-.02-.79-.05v-3.86Z"/>
  </g>
  <polygon class="cls-3" points="92.37 65.08 92.37 69 94.57 69 94.57 68.57 92.88 68.57 92.88 67.16 94.4 67.16 94.4 66.74 92.88 66.74 92.88 65.5 94.49 65.5 94.49 65.08 92.37 65.08"/>
  <rect class="cls-3" x="95.23" y="65.08" width=".51" height="3.92"/>
  <g class="cls-9">
    <path class="cls-3" d="M96.48,68.69c0-.22.14-.37.35-.37s.34.15.34.37-.13.37-.35.37-.34-.16-.34-.37"/>
    <path class="cls-3" d="M100.15,64.96c-.43.57-.73,1.33-.73,2.38s.32,1.78.73,2.36h-.4c-.37-.48-.76-1.23-.76-2.36,0-1.14.4-1.89.76-2.38h.4Z"/>
    <path class="cls-3" d="M100.62,68.47c.15.1.42.2.68.2.37,0,.55-.19.55-.42s-.15-.38-.52-.52c-.51-.18-.74-.46-.74-.8,0-.45.37-.83.97-.83.28,0,.53.08.69.17l-.13.37c-.11-.07-.31-.16-.58-.16-.3,0-.47.17-.47.38,0,.23.17.34.53.48.49.19.74.43.74.85,0,.49-.38.84-1.05.84-.31,0-.59-.08-.79-.19l.13-.39Z"/>
    <path class="cls-3" d="M102.83,69v-.31l.4-.39c.96-.92,1.4-1.41,1.41-1.98,0-.38-.18-.74-.75-.74-.34,0-.63.17-.8.32l-.16-.36c.26-.22.63-.38,1.07-.38.81,0,1.16.56,1.16,1.1,0,.7-.51,1.26-1.3,2.03l-.3.28h0s1.7.01,1.7.01v.43h-2.41Z"/>
    <path class="cls-3" d="M105.93,68.41c.15.09.48.24.84.24.66,0,.86-.42.86-.73,0-.53-.48-.76-.98-.76h-.28v-.38h.28c.37,0,.84-.19.84-.64,0-.3-.19-.57-.66-.57-.3,0-.59.13-.76.25l-.13-.37c.2-.14.58-.29.99-.29.74,0,1.08.44,1.08.9,0,.39-.23.72-.7.89h0c.47.1.84.45.84.98,0,.61-.47,1.13-1.38,1.13-.42,0-.8-.13-.98-.25l.14-.4Z"/>
    <path class="cls-3" d="M108.65,69.7c.41-.57.73-1.33.73-2.38s-.31-1.79-.73-2.36h.4c.37.48.76,1.22.76,2.37s-.39,1.88-.76,2.37h-.4Z"/>
  </g>
</svg>