<?xml version="1.0" encoding="UTF-8"?>
<svg id="_íconos" data-name="íconos" xmlns="http://www.w3.org/2000/svg" viewBox="0 0 126.36 81.77">
  <defs>
    <style>
      .cls-1 {
        fill: #ffd743;
      }

      .cls-2 {
        fill: #fff;
      }
    </style>
  </defs>
  <path class="cls-1" d="M115.99,37.73c-1.23-6.43-2.47-12.86-3.72-19.29-.56-2.91-1.12-5.81-1.69-8.71-1.37-7.06-10.43-3.71-15.81-2.87-8.71,1.5-17.77,3.1-27.12,4.78-6.36,1.15-13.26,2.38-19.96,3.69-9.12,1.91-16.83,3.16-24.08,6.86-21.29,12.35-19.04,34.19-5,45.62,3.74,3.03,8.72,5.1,14.74,5.61,2.81.24,5.16.09,6.6-.04,14.08-1.26,59.01-9.82,64.01-10.78,3.7-.71,8.19-.88,11.52-2.72,2.25-1.25,3.06-3.24,3.03-5.56-.05-3.55-.71-7.05-1.37-10.54-.38-2.02-.77-4.03-1.15-6.05"/>
  <path class="cls-2" d="M17.28,49.3c.21,1.19-.65,2.34-1.93,2.56-1.27.22-2.48-.56-2.69-1.75-.21-1.19.65-2.34,1.93-2.56,1.27-.23,2.48.56,2.69,1.75"/>
  <path d="M95.74,46.14c-.31.05-.6-.06-.87-.34-.27-.28-.51-.74-.74-1.38s-.42-1.45-.6-2.44c-.17-.99-.27-1.82-.27-2.49,0-.67.07-1.18.22-1.55.15-.36.38-.57.68-.62.31-.05.6.06.87.35.27.29.51.75.73,1.39.22.64.41,1.45.58,2.42.17.99.27,1.82.28,2.49.01.67-.06,1.18-.21,1.54-.15.36-.38.57-.68.62M96.23,49.05c1.11-.2,2.03-.66,2.75-1.4.72-.73,1.21-1.7,1.46-2.9.25-1.2.24-2.56-.03-4.09s-.71-2.8-1.32-3.81c-.61-1.01-1.38-1.72-2.29-2.13-.92-.41-1.94-.52-3.06-.32-1.14.2-2.07.67-2.8,1.4-.73.74-1.22,1.7-1.47,2.88-.25,1.18-.24,2.53.02,4.05.27,1.55.72,2.82,1.34,3.83.62,1.01,1.39,1.73,2.31,2.15.92.42,1.96.53,3.11.33M83.87,48.23c-.31.05-.6-.06-.87-.34-.27-.28-.51-.74-.74-1.38s-.42-1.45-.6-2.44c-.17-.99-.27-1.82-.27-2.49,0-.67.07-1.18.22-1.55.15-.36.38-.57.68-.62.31-.05.6.06.87.35.27.29.51.75.73,1.39.22.64.41,1.45.58,2.42.17.99.27,1.82.28,2.49.01.67-.06,1.18-.21,1.55-.15.36-.38.57-.68.62M84.36,51.14c1.11-.2,2.03-.66,2.75-1.4.72-.73,1.21-1.7,1.46-2.9.25-1.2.24-2.56-.03-4.09-.27-1.53-.71-2.8-1.32-3.81-.61-1.01-1.38-1.72-2.29-2.13-.92-.41-1.94-.52-3.06-.32-1.14.2-2.07.67-2.8,1.4-.73.74-1.22,1.7-1.47,2.88-.25,1.18-.24,2.53.02,4.05.27,1.55.72,2.82,1.34,3.83.62,1.01,1.39,1.73,2.31,2.15.92.42,1.96.53,3.11.33M74.42,52.68l3.47-.61-.68-3.84-3.47.61.68,3.84ZM67.58,51.1c-.31.05-.6-.06-.87-.34-.27-.28-.51-.74-.74-1.38s-.42-1.45-.6-2.44c-.17-.99-.26-1.82-.27-2.49,0-.67.07-1.18.22-1.55.15-.36.38-.57.68-.62.31-.05.6.06.87.35.27.29.51.75.73,1.39.22.64.41,1.45.59,2.42.17.99.27,1.82.28,2.49.01.67-.06,1.18-.21,1.54-.15.36-.38.57-.68.62M68.08,54.01c1.11-.2,2.03-.66,2.75-1.4.72-.74,1.21-1.7,1.46-2.9.25-1.2.24-2.56-.03-4.09-.27-1.53-.71-2.8-1.32-3.81-.61-1.01-1.38-1.72-2.29-2.13-.92-.41-1.94-.52-3.06-.32-1.14.2-2.07.67-2.8,1.41-.73.74-1.22,1.7-1.47,2.88-.25,1.18-.24,2.53.02,4.05.27,1.54.72,2.82,1.34,3.83.62,1.01,1.39,1.73,2.31,2.15.92.42,1.96.54,3.11.33M55.71,53.19c-.31.06-.6-.06-.87-.34-.27-.28-.51-.74-.74-1.38s-.42-1.45-.6-2.44c-.17-.99-.26-1.82-.27-2.49,0-.67.07-1.18.22-1.55.15-.36.38-.57.68-.62.31-.05.6.06.87.35.27.29.51.75.73,1.39.22.64.41,1.45.59,2.42.17.99.27,1.82.28,2.49.01.67-.06,1.18-.21,1.55-.15.36-.38.57-.68.62M56.2,56.1c1.11-.2,2.03-.66,2.75-1.4.72-.73,1.21-1.7,1.46-2.9s.24-2.56-.03-4.09c-.27-1.53-.71-2.8-1.32-3.81-.61-1.01-1.38-1.72-2.29-2.13-.92-.41-1.94-.52-3.06-.32-1.14.2-2.07.67-2.8,1.41-.73.74-1.22,1.7-1.47,2.88-.25,1.18-.24,2.53.02,4.05.27,1.54.72,2.82,1.34,3.83.62,1.01,1.39,1.73,2.31,2.15.92.43,1.96.54,3.11.33M38.84,49.17l4.76-1.68-1-3.87-4.25,2.74.49,2.8ZM40.51,58.66l9.39-1.66-.53-3.01-9.39,1.66.53,3.01ZM43.4,57.94l3.8-.67-2.47-14.02-2.13.38-1.31,2.3,2.12,12.01ZM30.52,47.07l2.56-.45-.47-2.68-2.56.45.47,2.68ZM33.06,61.48l2.56-.45-.47-2.64-2.56.45.47,2.64ZM33.84,60.07c1.14-.2,2.08-.55,2.83-1.05.75-.5,1.28-1.14,1.58-1.9.3-.77.37-1.62.21-2.57-.13-.74-.38-1.37-.74-1.88-.36-.51-.86-.91-1.49-1.21-.63-.3-1.41-.51-2.32-.63-.86-.1-1.5-.21-1.92-.32-.42-.11-.73-.25-.91-.41-.18-.16-.3-.38-.35-.66-.04-.2-.02-.39.06-.57.07-.17.21-.32.4-.43s.42-.19.69-.24c.5-.09.95-.04,1.36.15.4.19.79.53,1.16,1.04l2.42-1.73c-.51-1-1.21-1.69-2.1-2.06-.89-.37-1.95-.45-3.16-.24-1.08.19-1.98.53-2.7,1.01-.72.48-1.23,1.09-1.52,1.83-.3.74-.36,1.57-.2,2.51.13.73.38,1.35.76,1.85.38.5.88.89,1.53,1.18.64.28,1.43.48,2.35.58.81.08,1.42.18,1.84.29.42.11.72.26.9.44s.3.44.36.77c.04.24.02.46-.07.64-.09.18-.24.34-.45.47-.21.13-.5.22-.85.29-.61.11-1.14.06-1.59-.15-.45-.21-.9-.63-1.36-1.26l-2.41,1.87c.33.67.77,1.21,1.32,1.62.55.41,1.2.68,1.93.81.74.13,1.56.11,2.47-.05"/>
  <path d="M87.3,27.86l3.32-.58-.36-2.02-3.32.59.36,2.02ZM86.1,32l6.08-1.07-.35-2.01-4.09.72.66.48-1.17-6.67-.6.73,4.16-.73-.35-2.01-6,1.06,1.67,9.48ZM77.56,33.5l2.55-.45-1.43-8.1-.5.73.89-.16c.43-.08.8-.04,1.1.11.3.15.55.42.75.8.2.38.35.89.46,1.52.11.62.14,1.15.08,1.57s-.2.76-.43,1c-.23.24-.55.4-.96.47l-1.63.29.37,2,1.54-.27c.99-.18,1.81-.51,2.44-1.01.63-.5,1.07-1.14,1.31-1.92.24-.78.27-1.68.09-2.71-.18-1.01-.51-1.83-.98-2.47-.47-.63-1.09-1.07-1.84-1.3-.75-.23-1.64-.26-2.65-.08l-2.83.5,1.67,9.49ZM70.7,34.86c.75-.13,1.37-.37,1.87-.71.49-.34.84-.76,1.05-1.27.2-.51.25-1.08.14-1.71-.09-.5-.26-.91-.5-1.25-.25-.34-.58-.61-.99-.81-.42-.2-.93-.34-1.55-.42-.55-.07-.96-.14-1.23-.22-.26-.07-.45-.17-.57-.28-.11-.11-.18-.26-.22-.45-.02-.14,0-.26.05-.37.05-.11.15-.21.27-.29.12-.08.28-.13.46-.16.33-.06.62-.03.88.09.26.12.49.34.71.66l1.67-1.22c-.36-.64-.83-1.07-1.41-1.29s-1.27-.27-2.07-.13c-.72.13-1.32.35-1.8.67-.48.32-.82.73-1.02,1.23-.2.5-.25,1.05-.14,1.65.09.51.25.93.49,1.26.24.33.57.6.98.79.41.19.92.32,1.53.38.54.05.95.12,1.22.19.27.07.47.17.6.29.12.12.21.29.24.51.03.16.01.31-.04.43-.06.13-.16.23-.3.32-.14.09-.33.15-.57.19-.36.06-.71.02-1.05-.14-.34-.15-.62-.43-.83-.82l-1.68,1.3c.36.66.87,1.12,1.54,1.39.66.26,1.43.31,2.3.16M62.31,34.33c-.29.05-.55-.02-.77-.2-.22-.18-.42-.48-.59-.9-.17-.42-.32-.96-.43-1.61-.12-.66-.17-1.21-.15-1.66.02-.45.1-.8.25-1.05.15-.25.36-.4.64-.45.28-.05.53.02.76.21.22.19.42.49.59.91.17.42.31.95.43,1.6.12.66.17,1.22.15,1.67-.01.45-.1.8-.25,1.05-.15.24-.36.39-.64.44M62.62,36.28c.84-.15,1.53-.48,2.08-.98.55-.51.92-1.16,1.12-1.96.2-.8.21-1.71.03-2.73s-.49-1.86-.94-2.53c-.45-.67-1.01-1.13-1.68-1.4-.67-.26-1.43-.32-2.27-.17-.85.15-1.55.47-2.1.97-.55.5-.93,1.15-1.14,1.95-.21.8-.22,1.71-.04,2.72.18,1.03.5,1.88.94,2.54.45.67,1.01,1.14,1.69,1.41.68.27,1.45.33,2.3.18M50.35,38.3l2.16-.38-.74-4.19-.77-3.33-.43.09,4.12,7.04,2.74-.48-1.67-9.48-2.17.38.67,3.82.56,2.39.17-.09-3.47-5.76-2.83.5,1.67,9.48ZM44.31,35.44l3.32-.59-.36-2.02-3.32.59.36,2.02ZM43.11,39.58l6.08-1.07-.35-2.01-4.09.72.66.48-1.18-6.67-.6.73,4.16-.73-.35-2.01-6,1.06,1.67,9.48ZM32,41.53l2.25-.4-.94-5.34-.45-2.21-.12.04,2.96,7.26,2.07-.37.29-7.85h-.13s.34,2.23.34,2.23l.95,5.37,2.45-.43-1.67-9.48-3.54.62-.21,6.55.24-.04-2.44-6.08-3.73.66,1.67,9.48Z"/>
</svg>