<?xml version="1.0" encoding="UTF-8"?>
<svg id="_íconos" data-name="íconos" xmlns="http://www.w3.org/2000/svg" viewBox="0 0 126.36 81.77">
  <defs>
    <style>
      .cls-1 {
        fill: #ffd743;
      }

      .cls-2 {
        fill: #fff;
      }
    </style>
  </defs>
  <path class="cls-1" d="M114.42,53.24c.73-6.71,1.45-13.43,2.16-20.14.32-3.03.65-6.07.97-9.1.79-7.37-8.74-6.75-14.07-7.52-8.66-1.1-17.67-2.21-26.98-3.32-6.34-.75-13.21-1.58-19.91-2.27-9.17-.81-16.81-1.87-24.74-.36C8.15,16.42,3.85,38.64,13.73,54.08c2.64,4.1,6.73,7.62,12.26,9.91,2.58,1.07,4.84,1.61,6.23,1.91,13.65,2.93,58.54,7.79,63.55,8.33,3.69.4,7.98,1.56,11.66.73,2.49-.56,3.84-2.29,4.49-4.6.99-3.52,1.4-7.17,1.8-10.81.23-2.1.46-4.21.69-6.31"/>
  <path class="cls-2" d="M17.94,35.43c-.15,1.24-1.31,2.12-2.58,1.96-1.27-.16-2.18-1.29-2.03-2.53.15-1.24,1.31-2.12,2.58-1.96s2.18,1.29,2.03,2.53"/>
  <path d="M94.76,56.93c-.27-.03-.49-.2-.64-.5-.15-.3-.24-.75-.26-1.34-.02-.59.02-1.32.12-2.19.11-.87.24-1.58.41-2.14.17-.56.36-.97.58-1.23.22-.26.46-.38.72-.35.27.03.48.2.63.51.15.31.23.76.25,1.35.02.59-.02,1.31-.13,2.17-.11.87-.24,1.58-.4,2.15-.16.56-.35.97-.57,1.24-.22.26-.46.38-.72.35M94.43,59.48c.98.12,1.86-.04,2.65-.46.79-.43,1.44-1.11,1.96-2.05.51-.93.85-2.07,1.02-3.42.17-1.35.12-2.52-.13-3.52-.25-1-.71-1.79-1.37-2.36-.66-.58-1.49-.93-2.47-1.05-1-.12-1.9.03-2.69.46s-1.45,1.1-1.96,2.03c-.51.92-.85,2.05-1.01,3.39-.17,1.36-.12,2.54.14,3.54.26,1,.72,1.79,1.38,2.38.66.59,1.5.95,2.51,1.07M84.32,55.65c-.27-.03-.49-.2-.64-.5-.15-.3-.24-.75-.26-1.34-.02-.59.02-1.32.12-2.19.11-.87.24-1.58.41-2.14.17-.56.36-.97.58-1.23.22-.26.46-.38.72-.35.27.03.48.21.63.51.15.31.23.76.25,1.35.02.59-.02,1.31-.13,2.17-.11.87-.24,1.58-.4,2.15-.16.56-.35.97-.57,1.24s-.46.38-.72.35M83.99,58.2c.98.12,1.86-.03,2.65-.46.79-.43,1.44-1.11,1.96-2.04.51-.93.85-2.07,1.02-3.42.16-1.35.12-2.52-.13-3.52-.25-1-.71-1.79-1.37-2.36-.66-.58-1.49-.93-2.47-1.05-1-.12-1.9.03-2.69.46-.8.43-1.45,1.1-1.96,2.03-.51.92-.85,2.05-1.02,3.39-.17,1.36-.12,2.54.14,3.54.26,1,.72,1.79,1.38,2.38.66.59,1.49.95,2.51,1.07M75.3,56.95l3.05.38.42-3.38-3.06-.38-.41,3.38ZM69.35,56.4c.96.12,1.82.05,2.57-.2.75-.25,1.35-.68,1.81-1.28.45-.6.74-1.35.85-2.24.11-.92.06-1.7-.17-2.34-.22-.64-.6-1.15-1.14-1.53-.53-.37-1.21-.61-2.02-.71-.5-.06-.97-.05-1.4.03-.43.08-.83.22-1.2.43l.26.52.75-3.57-1.02.67,5.88.72.33-2.7-7.49-.92-1.33,6.87,2.41,1.02c.2-.22.45-.38.75-.5.3-.11.62-.15.96-.11.45.06.77.23.96.54.19.3.24.74.17,1.31-.05.39-.14.71-.28.95-.14.24-.32.42-.55.52-.23.1-.5.14-.81.1-.42-.05-.75-.21-1.01-.48-.26-.27-.43-.67-.51-1.2l-2.72.55c.1.73.32,1.34.65,1.83.33.49.77.88,1.33,1.15.55.27,1.21.46,1.96.55M59.65,52.62c-.27-.03-.49-.2-.64-.5-.15-.3-.24-.75-.26-1.34-.02-.59.02-1.32.12-2.19.11-.87.24-1.58.41-2.14.16-.56.36-.97.58-1.24.22-.26.46-.38.72-.35.27.03.49.2.64.51.15.31.23.76.25,1.35.02.59-.02,1.31-.13,2.17-.11.87-.24,1.58-.4,2.14-.16.56-.35.97-.57,1.24-.22.26-.46.38-.72.35M59.32,55.17c.98.12,1.86-.04,2.65-.46.79-.43,1.44-1.11,1.95-2.04.51-.93.85-2.08,1.02-3.42.16-1.35.12-2.52-.13-3.52-.25-1-.71-1.78-1.37-2.36-.66-.58-1.49-.93-2.47-1.05-1-.12-1.9.03-2.7.46-.8.43-1.45,1.1-1.96,2.03-.51.92-.85,2.05-1.01,3.39-.17,1.36-.12,2.54.14,3.54.26,1,.72,1.79,1.38,2.38.66.59,1.49.95,2.51,1.07M46.6,44.96l4.39-.18.16-3.48-4.25,1.2-.3,2.46ZM45.58,53.3l8.25,1.01.33-2.64-8.25-1.01-.32,2.64ZM48.17,53.44l3.34.41,1.51-12.33-1.88-.23-1.68,1.59-1.3,10.56ZM40.2,41.09l2.25.28.29-2.36-2.25-.28-.29,2.36ZM38.65,53.76l2.25.28.29-2.32-2.25-.28-.29,2.32ZM39.66,52.77c1,.12,1.88.07,2.63-.16.75-.23,1.35-.62,1.8-1.18.45-.56.73-1.26.83-2.09.08-.65.03-1.24-.14-1.76-.17-.52-.48-.98-.93-1.39-.45-.41-1.04-.78-1.78-1.12-.69-.3-1.2-.56-1.52-.76-.33-.2-.55-.39-.66-.57s-.15-.39-.12-.64c.02-.18.09-.33.19-.46.11-.13.25-.21.44-.25.19-.04.4-.05.64-.02.44.05.81.21,1.09.47.29.26.52.65.7,1.17l2.46-.82c-.17-.96-.58-1.72-1.23-2.26s-1.51-.87-2.58-1.01c-.95-.12-1.79-.07-2.51.15-.72.22-1.3.6-1.73,1.14-.44.54-.7,1.22-.8,2.04-.08.64-.03,1.22.16,1.73s.51.97.97,1.37c.46.4,1.07.76,1.82,1.08.66.27,1.14.51,1.46.71.32.2.53.4.63.6.1.19.14.44.1.74-.03.22-.1.39-.22.52-.12.13-.29.22-.5.27-.21.05-.47.06-.78.02-.54-.07-.96-.24-1.29-.53-.32-.29-.59-.75-.82-1.4l-2.49.95c.1.64.33,1.2.69,1.69.36.49.83.88,1.41,1.17.58.29,1.27.49,2.07.59"/>
  <path d="M90.87,40.73c-.38-.05-.68-.23-.89-.54-.21-.32-.34-.77-.39-1.36-.05-.59-.03-1.32.08-2.18.11-.87.26-1.58.45-2.14.2-.56.43-.96.71-1.22.28-.26.6-.36.97-.32.37.05.66.23.87.55.21.32.34.78.4,1.36.05.59.03,1.31-.08,2.17-.11.87-.26,1.59-.44,2.15-.19.56-.43.97-.71,1.22-.28.25-.61.35-.96.31M90.52,43.28c1.11.14,2.1,0,2.98-.43.88-.42,1.6-1.1,2.15-2.02.55-.92.92-2.06,1.08-3.4.17-1.35.1-2.52-.21-3.53-.3-1.01-.83-1.8-1.57-2.39-.74-.59-1.66-.95-2.77-1.08-1.12-.14-2.12,0-3,.41-.88.41-1.6,1.08-2.17,2-.57.92-.93,2.05-1.1,3.38-.17,1.36-.1,2.54.21,3.54.3,1.01.83,1.81,1.58,2.41.75.6,1.68.97,2.8,1.11M77.21,41.47l7.56.93.34-2.77-4.93-.61.62.98,1.31-10.63-3.36-.41-1.54,12.51ZM70.27,27.14l2.77.34,3.48-2.48-4-.49-2.24,2.63ZM70.91,38.28c-.38-.05-.68-.23-.89-.54-.21-.32-.34-.77-.4-1.35-.05-.59-.03-1.32.08-2.18.11-.87.26-1.58.45-2.14.2-.56.43-.96.71-1.22.28-.26.6-.36.97-.32.37.05.66.23.87.55.21.32.34.78.39,1.36.05.59.03,1.31-.08,2.17-.11.87-.26,1.58-.45,2.15-.19.56-.43.97-.71,1.22-.28.25-.61.35-.96.31M70.56,40.83c1.11.14,2.1,0,2.98-.43.88-.42,1.6-1.1,2.15-2.02.56-.92.92-2.06,1.08-3.4.16-1.35.1-2.52-.21-3.53s-.83-1.8-1.57-2.39c-.74-.59-1.66-.95-2.77-1.08-1.12-.14-2.12,0-3,.41-.88.41-1.6,1.08-2.17,2-.57.92-.93,2.05-1.1,3.38-.17,1.36-.1,2.54.21,3.54.31,1.01.83,1.81,1.58,2.41.75.6,1.68.97,2.8,1.11M59.8,39.53c.99.12,1.86.07,2.61-.17.75-.23,1.35-.63,1.8-1.18.45-.55.73-1.25.83-2.08.08-.65.03-1.24-.15-1.76-.18-.52-.49-.98-.93-1.39-.44-.41-1.04-.78-1.79-1.12-.66-.3-1.15-.55-1.45-.74-.3-.19-.5-.38-.6-.56-.1-.18-.13-.4-.1-.65.02-.18.09-.33.2-.45.11-.12.26-.2.45-.25.19-.05.4-.06.64-.03.43.05.78.2,1.06.45.28.25.49.61.63,1.1l2.56-.88c-.21-.93-.64-1.65-1.27-2.16-.63-.51-1.48-.83-2.54-.96-.95-.12-1.79-.07-2.51.15-.72.22-1.3.6-1.74,1.15-.44.54-.71,1.21-.81,2.01-.08.67-.04,1.26.14,1.77.17.51.48.96.92,1.36.44.4,1.03.75,1.76,1.06.65.27,1.14.51,1.46.71.31.2.52.39.63.59.11.2.15.44.11.73-.03.22-.1.39-.22.53-.12.14-.29.23-.5.28-.21.05-.47.06-.78.02-.48-.06-.9-.25-1.26-.57-.36-.32-.61-.77-.73-1.34l-2.61.99c.2.97.66,1.74,1.39,2.32.73.58,1.67.94,2.81,1.08M44.16,35.03l6.04.74.31-2.52-6.04-.74-.31,2.52ZM41.76,37.12l2.93.36,3.92-10.69-.96-.12,1.19,11.32,3.39.42-1.68-12.9-4.02-.49-4.77,12.11Z"/>
</svg>